solid D:/Users/Paul Maroldt/Documents/!StartUp_Repositories/module_type_database/0118_L116-700/L116-700_convdec.stl_created_by_BoundingMesh
    facet normal -0.00057231 0.928245 0.371968
        outer loop
            vertex 0.0139513 0.058062 0.0791121
            vertex 0.028885 0.0511075 0.09649
            vertex 0.69 0.050477 0.0990806
        endloop
    endfacet
    facet normal -0.821579 -0.492392 0.287329
        outer loop
            vertex -0.0472953 -0.0352993 0.0308396
            vertex -0.0371901 -0.0423042 0.0477299
            vertex -0.0534666 -0.0224579 0.0351997
        endloop
    endfacet
    facet normal -0.311682 0.898716 0.308486
        outer loop
            vertex -0.013709 0.0579536 0.0514811
            vertex -0.00823813 0.0548017 0.0661911
            vertex 0.0139513 0.058062 0.0791121
        endloop
    endfacet
    facet normal 0.983717 -0.178721 -0.0189848
        outer loop
            vertex 0.705968 -0.0113497 0.0453557
            vertex 0.7 -0.0485196 0.0860307
            vertex 0.7 -0.0439552 0.0430617
        endloop
    endfacet
    facet normal 0.69351 0.717851 -0.0610956
        outer loop
            vertex 0.69 0.0560027 0.0426857
            vertex 0.69 0.058798 0.0755295
            vertex 0.7 0.047481 0.056071
        endloop
    endfacet
    facet normal -0.793801 0.14581 -0.59044
        outer loop
            vertex -0.0502939 0.00509583 -0.000109584
            vertex -0.0587062 4.24174e-005 0.00995215
            vertex -0.0549365 0.0207587 0.01
        endloop
    endfacet
    facet normal -0.420506 0.842422 0.336898
        outer loop
            vertex -0.0251518 0.0479304 0.0622618
            vertex -0.00823813 0.0548017 0.0661911
            vertex -0.013709 0.0579536 0.0514811
        endloop
    endfacet
    facet normal -0.827949 -0.103589 0.551154
        outer loop
            vertex -0.0304278 -0.0198499 0.0854108
            vertex -0.0359482 0.00690664 0.0821469
            vertex -0.0485559 -0.00834042 0.0603418
        endloop
    endfacet
    facet normal 0.00693014 0.996374 -0.0848003
        outer loop
            vertex -0.0195524 0.0580777 0.00907943
            vertex 0.69 0.058798 0.0755295
            vertex 0.69 0.0560027 0.0426857
        endloop
    endfacet
    facet normal 0.979654 0.168492 -0.109031
        outer loop
            vertex 0.7 0.0254046 0.0219551
            vertex 0.7 0.047481 0.056071
            vertex 0.704536 0.0278271 0.0664554
        endloop
    endfacet
    facet normal 0.985312 0.130566 0.110054
        outer loop
            vertex 0.7 0.0219113 0.114085
            vertex 0.704536 0.0278271 0.0664554
            vertex 0.7 0.0449587 0.0867419
        endloop
    endfacet
    facet normal -0.446794 -0.796584 0.407222
        outer loop
            vertex 0.00579886 -0.0498174 0.0910078
            vertex -0.0234137 -0.0457844 0.0668456
            vertex -0.00682919 -0.0580236 0.0611001
        endloop
    endfacet
    facet normal -0.101275 -0.386419 0.916746
        outer loop
            vertex 0.0364938 -0.0343242 0.115318
            vertex 0.0472293 -0.0276458 0.119319
            vertex 0.0280217 -0.0222915 0.119454
        endloop
    endfacet
    facet normal 0.987566 0.114027 0.108214
        outer loop
            vertex 0.706254 -0.00646389 0.08691
            vertex 0.704536 0.0278271 0.0664554
            vertex 0.7 0.0219113 0.114085
        endloop
    endfacet
    facet normal -0.594612 -0.749054 0.292155
        outer loop
            vertex -0.0318867 -0.0493593 0.0404352
            vertex -0.0234137 -0.0457844 0.0668456
            vertex -0.0371901 -0.0423042 0.0477299
        endloop
    endfacet
    facet normal -0.00110693 -0.897466 0.441082
        outer loop
            vertex 0.0341787 -0.0472531 0.103318
            vertex 0.0185091 -0.0547438 0.0880374
            vertex 0.69 -0.0513271 0.0966745
        endloop
    endfacet
    facet normal -0.821273 -0.499626 0.275472
        outer loop
            vertex -0.0534666 -0.0224579 0.0351997
            vertex -0.0371901 -0.0423042 0.0477299
            vertex -0.0396927 -0.0303294 0.0619876
        endloop
    endfacet
    facet normal -0.617825 0.786049 -0.0204706
        outer loop
            vertex -0.0195524 0.0580777 0.00907943
            vertex -0.0440025 0.0388842 0.01
            vertex -0.0380114 0.0443285 0.0382373
        endloop
    endfacet
    facet normal 0.970055 0.00288697 -0.242866
        outer loop
            vertex 0.705968 -0.0113497 0.0453557
            vertex 0.7 -0.0152278 0.0214721
            vertex 0.7 0.0254046 0.0219551
        endloop
    endfacet
    facet normal 0.743916 -0.665866 -0.0566712
        outer loop
            vertex 0.69 -0.0560027 0.0426857
            vertex 0.7 -0.0485196 0.0860307
            vertex 0.69 -0.058798 0.0755295
        endloop
    endfacet
    facet normal 0.0302795 -0.292684 -0.95573
        outer loop
            vertex 0.69 -0.0313959 0.0170106
            vertex -0.0124272 -0.0468835 -0.000500792
            vertex 0.69 -0.00746785 0.00968284
        endloop
    endfacet
    facet normal 0.0175701 0.0424235 -0.998945
        outer loop
            vertex 0.69 -0.00746785 0.00968284
            vertex -0.00786988 0.0467464 -0.000289394
            vertex 0.69 0.012386 0.010526
        endloop
    endfacet
    facet normal 0.663627 -0.582 0.469973
        outer loop
            vertex 0.7 -0.0485196 0.0860307
            vertex 0.69 -0.0372372 0.114123
            vertex 0.69 -0.0513271 0.0966745
        endloop
    endfacet
    facet normal 0.0348818 -0.721528 -0.691506
        outer loop
            vertex -0.0195671 -0.05806 0.00903949
            vertex 0.69 -0.0313959 0.0170106
            vertex 0.69 -0.0560027 0.0426857
        endloop
    endfacet
    facet normal -0.3517 0.751033 0.558799
        outer loop
            vertex -0.00894784 0.0473499 0.0814634
            vertex 0.0121988 0.0442688 0.0989138
            vertex 0.00779627 0.0533194 0.0839788
        endloop
    endfacet
    facet normal 0.971924 0.234505 0.0192851
        outer loop
            vertex 0.704536 0.0278271 0.0664554
            vertex 0.7 0.047481 0.056071
            vertex 0.7 0.0449587 0.0867419
        endloop
    endfacet
    facet normal -0.677804 -0.566696 0.468441
        outer loop
            vertex -0.0396927 -0.0303294 0.0619876
            vertex -0.0234137 -0.0457844 0.0668456
            vertex -0.0220504 -0.0325096 0.0848774
        endloop
    endfacet
    facet normal -0.633965 -0.382428 -0.672189
        outer loop
            vertex -0.0567993 -0.0176705 0.01
            vertex -0.0390747 -0.0293659 -6.28271e-005
            vertex -0.0440025 -0.0388842 0.01
        endloop
    endfacet
    facet normal -0.91173 -0.25559 0.321593
        outer loop
            vertex -0.0534666 -0.0224579 0.0351997
            vertex -0.0485559 -0.00834042 0.0603418
            vertex -0.0570529 -0.01001 0.0349255
        endloop
    endfacet
    facet normal -0.0145957 0.0105503 -0.999838
        outer loop
            vertex -0.0502939 0.00509583 -0.000109584
            vertex -0.0329704 0.0361535 -3.47515e-005
            vertex -0.00786988 0.0467464 -0.000289394
        endloop
    endfacet
    facet normal -0.981768 0.178799 -0.064519
        outer loop
            vertex -0.0583413 0.00792649 0.0262484
            vertex -0.0549365 0.0207587 0.01
            vertex -0.0587062 4.24174e-005 0.00995215
        endloop
    endfacet
    facet normal -0.946025 -0.0529136 0.319744
        outer loop
            vertex -0.0570529 -0.01001 0.0349255
            vertex -0.0485559 -0.00834042 0.0603418
            vertex -0.0510211 0.00332554 0.0549786
        endloop
    endfacet
    facet normal 0.975123 0.00264998 0.221647
        outer loop
            vertex 0.706254 -0.00646389 0.08691
            vertex 0.7 0.0219113 0.114085
            vertex 0.7 -0.0184877 0.114568
        endloop
    endfacet
    facet normal -0.74399 -0.0818865 -0.663154
        outer loop
            vertex -0.0502939 0.00509583 -0.000109584
            vertex -0.0567993 -0.0176705 0.01
            vertex -0.0587062 4.24174e-005 0.00995215
        endloop
    endfacet
    facet normal -0.00108474 0.999999 0.000743153
        outer loop
            vertex -0.0195524 0.0580777 0.00907943
            vertex 0.0139513 0.058062 0.0791121
            vertex 0.69 0.058798 0.0755295
        endloop
    endfacet
    facet normal -0.744802 0.666633 0.029494
        outer loop
            vertex -0.0490645 0.032441 0.0278024
            vertex -0.0380114 0.0443285 0.0382373
            vertex -0.0440025 0.0388842 0.01
        endloop
    endfacet
    facet normal -0.0024733 -0.999996 0.00130433
        outer loop
            vertex -0.0195671 -0.05806 0.00903949
            vertex 0.00816007 -0.0580423 0.0751884
            vertex -0.00682919 -0.0580236 0.0611001
        endloop
    endfacet
    facet normal -0.350779 0.852636 0.387255
        outer loop
            vertex 0.0139513 0.058062 0.0791121
            vertex -0.00823813 0.0548017 0.0661911
            vertex 0.00779627 0.0533194 0.0839788
        endloop
    endfacet
    facet normal 0.668976 -0.217647 -0.710705
        outer loop
            vertex 0.69 -0.0313959 0.0170106
            vertex 0.69 -0.00746785 0.00968284
            vertex 0.7 -0.0152278 0.0214721
        endloop
    endfacet
    facet normal -0.222762 0.823885 0.521143
        outer loop
            vertex 0.0139513 0.058062 0.0791121
            vertex 0.00779627 0.0533194 0.0839788
            vertex 0.028885 0.0511075 0.09649
        endloop
    endfacet
    facet normal -0.193998 0.192238 0.961982
        outer loop
            vertex 0.0150517 0.00626007 0.120132
            vertex 0.041488 0.000857041 0.126543
            vertex 0.0377381 0.0234996 0.121262
        endloop
    endfacet
    facet normal -0.00169111 -0.680123 0.733096
        outer loop
            vertex 0.0341787 -0.0472531 0.103318
            vertex 0.69 -0.0372372 0.114123
            vertex 0.0364938 -0.0343242 0.115318
        endloop
    endfacet
    facet normal -0.957448 0.118876 0.262986
        outer loop
            vertex -0.0583413 0.00792649 0.0262484
            vertex -0.0510211 0.00332554 0.0549786
            vertex -0.0517201 0.0157465 0.0468192
        endloop
    endfacet
    facet normal 0.0153011 -0.0143727 -0.99978
        outer loop
            vertex -0.0124272 -0.0468835 -0.000500792
            vertex 0.0793727 0.0160114 -1.21219e-008
            vertex 0.69 -0.00746785 0.00968284
        endloop
    endfacet
    facet normal 0.0332628 -0.661086 -0.749573
        outer loop
            vertex -0.0195671 -0.05806 0.00903949
            vertex -0.0124272 -0.0468835 -0.000500792
            vertex 0.69 -0.0313959 0.0170106
        endloop
    endfacet
    facet normal -0.547879 -0.456197 0.701223
        outer loop
            vertex -0.00927152 -0.0403359 0.0897702
            vertex -0.00657143 -0.0222762 0.103629
            vertex -0.0220504 -0.0325096 0.0848774
        endloop
    endfacet
    facet normal -0.582762 -0.632767 0.509896
        outer loop
            vertex -0.00927152 -0.0403359 0.0897702
            vertex -0.0220504 -0.0325096 0.0848774
            vertex -0.0234137 -0.0457844 0.0668456
        endloop
    endfacet
    facet normal -0.550597 -0.785355 0.282948
        outer loop
            vertex -0.0318867 -0.0493593 0.0404352
            vertex -0.0186874 -0.0552131 0.0498722
            vertex -0.0234137 -0.0457844 0.0668456
        endloop
    endfacet
    facet normal -0.447024 0.614356 0.650182
        outer loop
            vertex -0.0166949 0.0314044 0.0912039
            vertex 0.0121988 0.0442688 0.0989138
            vertex -0.00894784 0.0473499 0.0814634
        endloop
    endfacet
    facet normal -0.576014 -0.188603 -0.795385
        outer loop
            vertex -0.0502939 0.00509583 -0.000109584
            vertex -0.0390747 -0.0293659 -6.28271e-005
            vertex -0.0567993 -0.0176705 0.01
        endloop
    endfacet
    facet normal -0.87588 0.0361235 0.481175
        outer loop
            vertex -0.0359482 0.00690664 0.0821469
            vertex -0.0510211 0.00332554 0.0549786
            vertex -0.0485559 -0.00834042 0.0603418
        endloop
    endfacet
    facet normal 0.000738893 0.942879 0.333135
        outer loop
            vertex 0.0139513 0.058062 0.0791121
            vertex 0.69 0.050477 0.0990806
            vertex 0.69 0.058798 0.0755295
        endloop
    endfacet
    facet normal 0.498536 0.323212 -0.804361
        outer loop
            vertex 0.7 0.0254046 0.0219551
            vertex 0.69 0.012386 0.010526
            vertex 0.69 0.0331946 0.0188874
        endloop
    endfacet
    facet normal -0.462048 0.884376 0.0662635
        outer loop
            vertex -0.0195524 0.0580777 0.00907943
            vertex -0.0282262 0.0514298 0.0373231
            vertex -0.013709 0.0579536 0.0514811
        endloop
    endfacet
    facet normal -0.746849 0.58742 0.311696
        outer loop
            vertex -0.0251518 0.0479304 0.0622618
            vertex -0.0380114 0.0443285 0.0382373
            vertex -0.0468966 0.0301392 0.0436887
        endloop
    endfacet
    facet normal -0.796997 0.572739 0.191746
        outer loop
            vertex -0.0490645 0.032441 0.0278024
            vertex -0.0468966 0.0301392 0.0436887
            vertex -0.0380114 0.0443285 0.0382373
        endloop
    endfacet
    facet normal 0.821858 0.478288 -0.3095
        outer loop
            vertex 0.7 0.0254046 0.0219551
            vertex 0.69 0.0560027 0.0426857
            vertex 0.7 0.047481 0.056071
        endloop
    endfacet
    facet normal -0.68685 0.0902601 0.721173
        outer loop
            vertex -0.0359482 0.00690664 0.0821469
            vertex -0.0134955 -0.00137079 0.104567
            vertex -0.0219087 0.0160689 0.0943715
        endloop
    endfacet
    facet normal -0.54525 0.818269 0.182037
        outer loop
            vertex -0.0251518 0.0479304 0.0622618
            vertex -0.013709 0.0579536 0.0514811
            vertex -0.0282262 0.0514298 0.0373231
        endloop
    endfacet
    facet normal -0.266614 -0.475821 0.83816
        outer loop
            vertex 0.0364938 -0.0343242 0.115318
            vertex 0.0280217 -0.0222915 0.119454
            vertex 0.012647 -0.034665 0.107539
        endloop
    endfacet
    facet normal -0.212516 0.483151 -0.849354
        outer loop
            vertex -0.0195524 0.0580777 0.00907943
            vertex -0.00786988 0.0467464 -0.000289394
            vertex -0.0329704 0.0361535 -3.47515e-005
        endloop
    endfacet
    facet normal -0.495522 -0.725209 0.478048
        outer loop
            vertex 0.00579886 -0.0498174 0.0910078
            vertex -0.00927152 -0.0403359 0.0897702
            vertex -0.0234137 -0.0457844 0.0668456
        endloop
    endfacet
    facet normal 0.000501566 -0.450135 0.89296
        outer loop
            vertex 0.69 -0.0126128 0.126536
            vertex 0.0472293 -0.0276458 0.119319
            vertex 0.69 -0.0372372 0.114123
        endloop
    endfacet
    facet normal 0.989983 0.0932693 -0.105989
        outer loop
            vertex 0.705968 -0.0113497 0.0453557
            vertex 0.7 0.0254046 0.0219551
            vertex 0.704536 0.0278271 0.0664554
        endloop
    endfacet
    facet normal -0.330142 -0.481915 -0.811643
        outer loop
            vertex -0.0195671 -0.05806 0.00903949
            vertex -0.0390747 -0.0293659 -6.28271e-005
            vertex -0.0124272 -0.0468835 -0.000500792
        endloop
    endfacet
    facet normal -0.965539 0.0538264 0.254631
        outer loop
            vertex -0.0570529 -0.01001 0.0349255
            vertex -0.0510211 0.00332554 0.0549786
            vertex -0.0583413 0.00792649 0.0262484
        endloop
    endfacet
    facet normal -0.716746 -0.0631638 0.694468
        outer loop
            vertex -0.0304278 -0.0198499 0.0854108
            vertex -0.0134955 -0.00137079 0.104567
            vertex -0.0359482 0.00690664 0.0821469
        endloop
    endfacet
    facet normal -0.176268 -0.800318 0.57308
        outer loop
            vertex 0.0341787 -0.0472531 0.103318
            vertex 0.00579886 -0.0498174 0.0910078
            vertex 0.0185091 -0.0547438 0.0880374
        endloop
    endfacet
    facet normal -0.997714 -0.0493169 0.0462
        outer loop
            vertex -0.0570529 -0.01001 0.0349255
            vertex -0.0583413 0.00792649 0.0262484
            vertex -0.0587062 4.24174e-005 0.00995215
        endloop
    endfacet
    facet normal -0.00571556 0.0163033 -0.999851
        outer loop
            vertex -0.0124272 -0.0468835 -0.000500792
            vertex -0.0390747 -0.0293659 -6.28271e-005
            vertex 0.0793727 0.0160114 -1.21219e-008
        endloop
    endfacet
    facet normal -0.00220241 -0.00207378 -0.999995
        outer loop
            vertex -0.0502939 0.00509583 -0.000109584
            vertex -0.00786988 0.0467464 -0.000289394
            vertex -0.0390747 -0.0293659 -6.28271e-005
        endloop
    endfacet
    facet normal -0.855347 -0.515974 -0.0463912
        outer loop
            vertex -0.0472953 -0.0352993 0.0308396
            vertex -0.0567993 -0.0176705 0.01
            vertex -0.0440025 -0.0388842 0.01
        endloop
    endfacet
    facet normal -0.446815 -0.891741 0.0717993
        outer loop
            vertex -0.0195671 -0.05806 0.00903949
            vertex -0.0186874 -0.0552131 0.0498722
            vertex -0.0318867 -0.0493593 0.0404352
        endloop
    endfacet
    facet normal -0.994004 -0.106949 0.022756
        outer loop
            vertex -0.0570529 -0.01001 0.0349255
            vertex -0.0587062 4.24174e-005 0.00995215
            vertex -0.0567993 -0.0176705 0.01
        endloop
    endfacet
    facet normal 0.612412 0.570743 -0.546996
        outer loop
            vertex 0.7 0.0254046 0.0219551
            vertex 0.69 0.0331946 0.0188874
            vertex 0.69 0.0560027 0.0426857
        endloop
    endfacet
    facet normal 0.735834 0.028732 -0.676552
        outer loop
            vertex 0.7 0.0254046 0.0219551
            vertex 0.69 -0.00746785 0.00968284
            vertex 0.69 0.012386 0.010526
        endloop
    endfacet
    facet normal 0.681544 0.689977 0.24378
        outer loop
            vertex 0.69 0.058798 0.0755295
            vertex 0.69 0.050477 0.0990806
            vertex 0.7 0.0449587 0.0867419
        endloop
    endfacet
    facet normal -0.205456 0.731668 0.649962
        outer loop
            vertex 0.0346463 0.0422368 0.108297
            vertex 0.028885 0.0511075 0.09649
            vertex 0.0121988 0.0442688 0.0989138
        endloop
    endfacet
    facet normal -0.586679 0.809753 0.0104243
        outer loop
            vertex -0.0195524 0.0580777 0.00907943
            vertex -0.0380114 0.0443285 0.0382373
            vertex -0.0282262 0.0514298 0.0373231
        endloop
    endfacet
    facet normal -0.569871 0.319689 -0.756998
        outer loop
            vertex -0.0502939 0.00509583 -0.000109584
            vertex -0.0549365 0.0207587 0.01
            vertex -0.0329704 0.0361535 -3.47515e-005
        endloop
    endfacet
    facet normal -0.854902 0.51571 -0.0564358
        outer loop
            vertex -0.0490645 0.032441 0.0278024
            vertex -0.0440025 0.0388842 0.01
            vertex -0.0549365 0.0207587 0.01
        endloop
    endfacet
    facet normal -0.490607 -0.812547 0.314757
        outer loop
            vertex -0.00682919 -0.0580236 0.0611001
            vertex -0.0234137 -0.0457844 0.0668456
            vertex -0.0186874 -0.0552131 0.0498722
        endloop
    endfacet
    facet normal 0.0327203 0.37265 -0.927395
        outer loop
            vertex 0.69 0.0331946 0.0188874
            vertex 0.69 0.012386 0.010526
            vertex -0.00786988 0.0467464 -0.000289394
        endloop
    endfacet
    facet normal -0.166074 0.565231 0.808043
        outer loop
            vertex 0.0238656 0.0286905 0.115557
            vertex 0.0411441 0.0325635 0.116399
            vertex 0.0346463 0.0422368 0.108297
        endloop
    endfacet
    facet normal -0.711576 -0.49201 0.501584
        outer loop
            vertex -0.0304278 -0.0198499 0.0854108
            vertex -0.0396927 -0.0303294 0.0619876
            vertex -0.0220504 -0.0325096 0.0848774
        endloop
    endfacet
    facet normal 0.526508 -0.801608 0.283222
        outer loop
            vertex 0.7 -0.0485196 0.0860307
            vertex 0.69 -0.0513271 0.0966745
            vertex 0.69 -0.058798 0.0755295
        endloop
    endfacet
    facet normal -0.44531 -0.531352 -0.720669
        outer loop
            vertex -0.0195671 -0.05806 0.00903949
            vertex -0.0440025 -0.0388842 0.01
            vertex -0.0390747 -0.0293659 -6.28271e-005
        endloop
    endfacet
    facet normal -0.247555 -0.660976 0.708398
        outer loop
            vertex 0.0341787 -0.0472531 0.103318
            vertex 0.012647 -0.034665 0.107539
            vertex 0.00579886 -0.0498174 0.0910078
        endloop
    endfacet
    facet normal -0.241322 -0.875297 0.419069
        outer loop
            vertex 0.00579886 -0.0498174 0.0910078
            vertex 0.00816007 -0.0580423 0.0751884
            vertex 0.0185091 -0.0547438 0.0880374
        endloop
    endfacet
    facet normal 0.0348616 0.721528 -0.691507
        outer loop
            vertex -0.0195524 0.0580777 0.00907943
            vertex 0.69 0.0560027 0.0426857
            vertex 0.69 0.0331946 0.0188874
        endloop
    endfacet
    facet normal -0.360573 0.844763 0.395428
        outer loop
            vertex -0.00894784 0.0473499 0.0814634
            vertex 0.00779627 0.0533194 0.0839788
            vertex -0.00823813 0.0548017 0.0661911
        endloop
    endfacet
    facet normal -0.34014 -0.134069 0.930769
        outer loop
            vertex 0.0150517 0.00626007 0.120132
            vertex 0.00932408 -0.0162953 0.11479
            vertex 0.0314562 -0.00797106 0.124077
        endloop
    endfacet
    facet normal -0.795591 0.286929 0.533579
        outer loop
            vertex -0.0359482 0.00690664 0.0821469
            vertex -0.0371422 0.0291702 0.0683945
            vertex -0.0419053 0.0203117 0.0660561
        endloop
    endfacet
    facet normal -0.00793465 0.99996 0.00402015
        outer loop
            vertex -0.0195524 0.0580777 0.00907943
            vertex -0.013709 0.0579536 0.0514811
            vertex 0.0139513 0.058062 0.0791121
        endloop
    endfacet
    facet normal -0.861405 0.365418 0.352776
        outer loop
            vertex -0.0468966 0.0301392 0.0436887
            vertex -0.0517201 0.0157465 0.0468192
            vertex -0.0419053 0.0203117 0.0660561
        endloop
    endfacet
    facet normal -0.596983 0.609033 0.522198
        outer loop
            vertex -0.0251518 0.0479304 0.0622618
            vertex -0.0166949 0.0314044 0.0912039
            vertex -0.00894784 0.0473499 0.0814634
        endloop
    endfacet
    facet normal -0.294735 -0.952804 0.0727803
        outer loop
            vertex -0.0195671 -0.05806 0.00903949
            vertex -0.00682919 -0.0580236 0.0611001
            vertex -0.0186874 -0.0552131 0.0498722
        endloop
    endfacet
    facet normal 0.0173771 0.0399192 -0.999052
        outer loop
            vertex 0.69 -0.00746785 0.00968284
            vertex 0.0793727 0.0160114 -1.21219e-008
            vertex -0.00786988 0.0467464 -0.000289394
        endloop
    endfacet
    facet normal 0.574358 0.305273 0.759554
        outer loop
            vertex 0.7 0.0219113 0.114085
            vertex 0.69 0.0331943 0.117112
            vertex 0.69 0.0123887 0.125474
        endloop
    endfacet
    facet normal 0.798846 -0.361393 -0.480874
        outer loop
            vertex 0.7 -0.0439552 0.0430617
            vertex 0.69 -0.0313959 0.0170106
            vertex 0.7 -0.0152278 0.0214721
        endloop
    endfacet
    facet normal 0.715447 0.504393 0.483449
        outer loop
            vertex 0.7 0.0219113 0.114085
            vertex 0.69 0.050477 0.0990806
            vertex 0.69 0.0331943 0.117112
        endloop
    endfacet
    facet normal -0.392155 0.347405 0.851777
        outer loop
            vertex 0.0238656 0.0286905 0.115557
            vertex 0.00420387 0.0307569 0.105662
            vertex -0.000629418 0.0148685 0.109917
        endloop
    endfacet
    facet normal -0.680213 -0.732779 0.0185769
        outer loop
            vertex -0.0472953 -0.0352993 0.0308396
            vertex -0.0440025 -0.0388842 0.01
            vertex -0.0318867 -0.0493593 0.0404352
        endloop
    endfacet
    facet normal -0.0974942 -0.163443 0.981724
        outer loop
            vertex 0.041488 0.000857041 0.126543
            vertex 0.0314562 -0.00797106 0.124077
            vertex 0.049816 -0.0149164 0.124744
        endloop
    endfacet
    facet normal -0.733022 0.328582 0.595578
        outer loop
            vertex -0.0359482 0.00690664 0.0821469
            vertex -0.0219087 0.0160689 0.0943715
            vertex -0.0371422 0.0291702 0.0683945
        endloop
    endfacet
    facet normal -0.230125 -0.639572 0.733478
        outer loop
            vertex 0.0341787 -0.0472531 0.103318
            vertex 0.0364938 -0.0343242 0.115318
            vertex 0.012647 -0.034665 0.107539
        endloop
    endfacet
    facet normal -0.419835 -0.575726 0.701626
        outer loop
            vertex 0.00579886 -0.0498174 0.0910078
            vertex 0.012647 -0.034665 0.107539
            vertex -0.00927152 -0.0403359 0.0897702
        endloop
    endfacet
    facet normal 0.768741 -0.635982 -0.0675575
        outer loop
            vertex 0.69 -0.0560027 0.0426857
            vertex 0.7 -0.0439552 0.0430617
            vertex 0.7 -0.0485196 0.0860307
        endloop
    endfacet
    facet normal -0.138257 -0.27408 0.951717
        outer loop
            vertex 0.0280217 -0.0222915 0.119454
            vertex 0.049816 -0.0149164 0.124744
            vertex 0.0314562 -0.00797106 0.124077
        endloop
    endfacet
    facet normal -0.896164 -0.442383 0.0344759
        outer loop
            vertex -0.0472953 -0.0352993 0.0308396
            vertex -0.0534666 -0.0224579 0.0351997
            vertex -0.0567993 -0.0176705 0.01
        endloop
    endfacet
    facet normal -0.617766 -0.785977 -0.0245919
        outer loop
            vertex -0.0195671 -0.05806 0.00903949
            vertex -0.0318867 -0.0493593 0.0404352
            vertex -0.0440025 -0.0388842 0.01
        endloop
    endfacet
    facet normal -0.00110869 -0.999999 0.000732339
        outer loop
            vertex -0.0195671 -0.05806 0.00903949
            vertex 0.69 -0.058798 0.0755295
            vertex 0.00816007 -0.0580423 0.0751884
        endloop
    endfacet
    facet normal -0.422613 0.822108 0.381492
        outer loop
            vertex -0.0251518 0.0479304 0.0622618
            vertex -0.00894784 0.0473499 0.0814634
            vertex -0.00823813 0.0548017 0.0661911
        endloop
    endfacet
    facet normal -0.581195 0.350599 -0.734366
        outer loop
            vertex -0.0329704 0.0361535 -3.47515e-005
            vertex -0.0549365 0.0207587 0.01
            vertex -0.0440025 0.0388842 0.01
        endloop
    endfacet
    facet normal -0.509167 -0.206134 0.835618
        outer loop
            vertex -0.0134955 -0.00137079 0.104567
            vertex -0.00657143 -0.0222762 0.103629
            vertex 0.00932408 -0.0162953 0.11479
        endloop
    endfacet
    facet normal -0.00142808 0.473192 0.880958
        outer loop
            vertex 0.0377381 0.0234996 0.121262
            vertex 0.69 0.0331943 0.117112
            vertex 0.0411441 0.0325635 0.116399
        endloop
    endfacet
    facet normal -0.918865 0.348279 0.185441
        outer loop
            vertex -0.0468966 0.0301392 0.0436887
            vertex -0.0560581 0.0163025 0.02428
            vertex -0.0517201 0.0157465 0.0468192
        endloop
    endfacet
    facet normal 0.765063 0.00765421 -0.64391
        outer loop
            vertex 0.7 0.0254046 0.0219551
            vertex 0.7 -0.0152278 0.0214721
            vertex 0.69 -0.00746785 0.00968284
        endloop
    endfacet
    facet normal 0.963317 -0.16123 -0.214534
        outer loop
            vertex 0.705968 -0.0113497 0.0453557
            vertex 0.7 -0.0439552 0.0430617
            vertex 0.7 -0.0152278 0.0214721
        endloop
    endfacet
    facet normal 0.772666 0.485387 0.409131
        outer loop
            vertex 0.7 0.0219113 0.114085
            vertex 0.7 0.0449587 0.0867419
            vertex 0.69 0.050477 0.0990806
        endloop
    endfacet
    facet normal 0.999007 0.0429379 -0.0119238
        outer loop
            vertex 0.706254 -0.00646389 0.08691
            vertex 0.705968 -0.0113497 0.0453557
            vertex 0.704536 0.0278271 0.0664554
        endloop
    endfacet
    facet normal -0.364114 -0.847474 0.386275
        outer loop
            vertex 0.00579886 -0.0498174 0.0910078
            vertex -0.00682919 -0.0580236 0.0611001
            vertex 0.00816007 -0.0580423 0.0751884
        endloop
    endfacet
    facet normal 0.989036 -0.147297 0.010512
        outer loop
            vertex 0.706254 -0.00646389 0.08691
            vertex 0.7 -0.0485196 0.0860307
            vertex 0.705968 -0.0113497 0.0453557
        endloop
    endfacet
    facet normal -0.457265 -0.0933489 0.884418
        outer loop
            vertex 0.0150517 0.00626007 0.120132
            vertex -0.0134955 -0.00137079 0.104567
            vertex 0.00932408 -0.0162953 0.11479
        endloop
    endfacet
    facet normal -0.871362 0.166686 0.461458
        outer loop
            vertex -0.0359482 0.00690664 0.0821469
            vertex -0.0419053 0.0203117 0.0660561
            vertex -0.0510211 0.00332554 0.0549786
        endloop
    endfacet
    facet normal 0.739166 0.0285835 0.672916
        outer loop
            vertex 0.7 0.0219113 0.114085
            vertex 0.69 0.0123887 0.125474
            vertex 0.69 -0.0126128 0.126536
        endloop
    endfacet
    facet normal 0.769199 0.00763938 0.638963
        outer loop
            vertex 0.7 0.0219113 0.114085
            vertex 0.69 -0.0126128 0.126536
            vertex 0.7 -0.0184877 0.114568
        endloop
    endfacet
    facet normal 0.001982 -0.00378931 -0.999991
        outer loop
            vertex -0.0390747 -0.0293659 -6.28271e-005
            vertex -0.00786988 0.0467464 -0.000289394
            vertex 0.0793727 0.0160114 -1.21219e-008
        endloop
    endfacet
    facet normal -0.340133 -0.39786 0.852066
        outer loop
            vertex 0.0280217 -0.0222915 0.119454
            vertex 0.00932408 -0.0162953 0.11479
            vertex 0.012647 -0.034665 0.107539
        endloop
    endfacet
    facet normal -0.859544 0.368764 0.353831
        outer loop
            vertex -0.0371422 0.0291702 0.0683945
            vertex -0.0468966 0.0301392 0.0436887
            vertex -0.0419053 0.0203117 0.0660561
        endloop
    endfacet
    facet normal -0.876147 -0.326617 0.354525
        outer loop
            vertex -0.0534666 -0.0224579 0.0351997
            vertex -0.0396927 -0.0303294 0.0619876
            vertex -0.0485559 -0.00834042 0.0603418
        endloop
    endfacet
    facet normal -0.32141 0.568422 0.757359
        outer loop
            vertex 0.0238656 0.0286905 0.115557
            vertex 0.0121988 0.0442688 0.0989138
            vertex 0.00420387 0.0307569 0.105662
        endloop
    endfacet
    facet normal -0.00116529 -0.391858 0.920025
        outer loop
            vertex 0.69 -0.0126128 0.126536
            vertex 0.049816 -0.0149164 0.124744
            vertex 0.0472293 -0.0276458 0.119319
        endloop
    endfacet
    facet normal -0.920301 0.388151 0.0488422
        outer loop
            vertex -0.0490645 0.032441 0.0278024
            vertex -0.0549365 0.0207587 0.01
            vertex -0.0560581 0.0163025 0.02428
        endloop
    endfacet
    facet normal -0.383322 0.32682 0.863859
        outer loop
            vertex 0.0150517 0.00626007 0.120132
            vertex 0.0238656 0.0286905 0.115557
            vertex -0.000629418 0.0148685 0.109917
        endloop
    endfacet
    facet normal -0.000717473 -0.513076 0.858343
        outer loop
            vertex 0.0364938 -0.0343242 0.115318
            vertex 0.69 -0.0372372 0.114123
            vertex 0.0472293 -0.0276458 0.119319
        endloop
    endfacet
    facet normal -0.88968 0.214653 0.402981
        outer loop
            vertex -0.0510211 0.00332554 0.0549786
            vertex -0.0419053 0.0203117 0.0660561
            vertex -0.0517201 0.0157465 0.0468192
        endloop
    endfacet
    facet normal -0.748169 0.582214 0.318229
        outer loop
            vertex -0.0251518 0.0479304 0.0622618
            vertex -0.0468966 0.0301392 0.0436887
            vertex -0.0371422 0.0291702 0.0683945
        endloop
    endfacet
    facet normal 0.976493 -0.148479 0.156256
        outer loop
            vertex 0.706254 -0.00646389 0.08691
            vertex 0.7 -0.0184877 0.114568
            vertex 0.7 -0.0485196 0.0860307
        endloop
    endfacet
    facet normal -0.000470636 0.330197 0.943912
        outer loop
            vertex 0.0377381 0.0234996 0.121262
            vertex 0.0489839 0.0109005 0.125675
            vertex 0.69 0.0123887 0.125474
        endloop
    endfacet
    facet normal 0.000214735 0.0424388 0.999099
        outer loop
            vertex 0.69 -0.0126128 0.126536
            vertex 0.69 0.0123887 0.125474
            vertex 0.0489839 0.0109005 0.125675
        endloop
    endfacet
    facet normal -0.498578 0.111819 0.859603
        outer loop
            vertex 0.0150517 0.00626007 0.120132
            vertex -0.000629418 0.0148685 0.109917
            vertex -0.0134955 -0.00137079 0.104567
        endloop
    endfacet
    facet normal 0.789737 0.611382 0.0502786
        outer loop
            vertex 0.69 0.058798 0.0755295
            vertex 0.7 0.0449587 0.0867419
            vertex 0.7 0.047481 0.056071
        endloop
    endfacet
    facet normal -0.1559 0.511846 0.844813
        outer loop
            vertex 0.0377381 0.0234996 0.121262
            vertex 0.0411441 0.0325635 0.116399
            vertex 0.0238656 0.0286905 0.115557
        endloop
    endfacet
    facet normal -0.57896 -0.412747 0.703168
        outer loop
            vertex -0.0304278 -0.0198499 0.0854108
            vertex -0.0220504 -0.0325096 0.0848774
            vertex -0.00657143 -0.0222762 0.103629
        endloop
    endfacet
    facet normal 0.00153119 -0.778008 0.628252
        outer loop
            vertex 0.0341787 -0.0472531 0.103318
            vertex 0.69 -0.0513271 0.0966745
            vertex 0.69 -0.0372372 0.114123
        endloop
    endfacet
    facet normal -0.527849 0.340205 0.778226
        outer loop
            vertex -0.0166949 0.0314044 0.0912039
            vertex -0.0219087 0.0160689 0.0943715
            vertex 0.00420387 0.0307569 0.105662
        endloop
    endfacet
    facet normal -0.636453 0.574885 0.514233
        outer loop
            vertex -0.0251518 0.0479304 0.0622618
            vertex -0.0371422 0.0291702 0.0683945
            vertex -0.0166949 0.0314044 0.0912039
        endloop
    endfacet
    facet normal -0.604954 -0.234509 0.760944
        outer loop
            vertex -0.0304278 -0.0198499 0.0854108
            vertex -0.00657143 -0.0222762 0.103629
            vertex -0.0134955 -0.00137079 0.104567
        endloop
    endfacet
    facet normal -0.444012 0.596598 0.668524
        outer loop
            vertex -0.0166949 0.0314044 0.0912039
            vertex 0.00420387 0.0307569 0.105662
            vertex 0.0121988 0.0442688 0.0989138
        endloop
    endfacet
    facet normal 0.783116 -0.428372 0.450807
        outer loop
            vertex 0.7 -0.0485196 0.0860307
            vertex 0.7 -0.0184877 0.114568
            vertex 0.69 -0.0372372 0.114123
        endloop
    endfacet
    facet normal -0.422201 -0.397883 0.814515
        outer loop
            vertex 0.012647 -0.034665 0.107539
            vertex 0.00932408 -0.0162953 0.11479
            vertex -0.00657143 -0.0222762 0.103629
        endloop
    endfacet
    facet normal -0.467236 -0.493229 0.733768
        outer loop
            vertex -0.00927152 -0.0403359 0.0897702
            vertex 0.012647 -0.034665 0.107539
            vertex -0.00657143 -0.0222762 0.103629
        endloop
    endfacet
    facet normal -0.958671 -0.274554 0.0746265
        outer loop
            vertex -0.0534666 -0.0224579 0.0351997
            vertex -0.0570529 -0.01001 0.0349255
            vertex -0.0567993 -0.0176705 0.01
        endloop
    endfacet
    facet normal -0.692739 -0.60751 0.388643
        outer loop
            vertex -0.0396927 -0.0303294 0.0619876
            vertex -0.0371901 -0.0423042 0.0477299
            vertex -0.0234137 -0.0457844 0.0668456
        endloop
    endfacet
    facet normal -0.710543 0.365739 0.601136
        outer loop
            vertex -0.0166949 0.0314044 0.0912039
            vertex -0.0371422 0.0291702 0.0683945
            vertex -0.0219087 0.0160689 0.0943715
        endloop
    endfacet
    facet normal -0.916569 0.358555 0.17703
        outer loop
            vertex -0.0490645 0.032441 0.0278024
            vertex -0.0560581 0.0163025 0.02428
            vertex -0.0468966 0.0301392 0.0436887
        endloop
    endfacet
    facet normal 0.00177191 0.0847913 0.996397
        outer loop
            vertex 0.69 -0.0126128 0.126536
            vertex 0.0489839 0.0109005 0.125675
            vertex 0.041488 0.000857041 0.126543
        endloop
    endfacet
    facet normal -0.097588 -0.37334 0.922548
        outer loop
            vertex 0.0280217 -0.0222915 0.119454
            vertex 0.0472293 -0.0276458 0.119319
            vertex 0.049816 -0.0149164 0.124744
        endloop
    endfacet
    facet normal -0.471902 0.568836 -0.673598
        outer loop
            vertex -0.0195524 0.0580777 0.00907943
            vertex -0.0329704 0.0361535 -3.47515e-005
            vertex -0.0440025 0.0388842 0.01
        endloop
    endfacet
    facet normal 0.62671 -0.350769 0.695842
        outer loop
            vertex 0.69 -0.0126128 0.126536
            vertex 0.69 -0.0372372 0.114123
            vertex 0.7 -0.0184877 0.114568
        endloop
    endfacet
    facet normal 0.000653813 0.721936 0.69196
        outer loop
            vertex 0.0346463 0.0422368 0.108297
            vertex 0.69 0.0331943 0.117112
            vertex 0.69 0.050477 0.0990806
        endloop
    endfacet
    facet normal -0.245433 0.795306 0.554303
        outer loop
            vertex 0.0121988 0.0442688 0.0989138
            vertex 0.028885 0.0511075 0.09649
            vertex 0.00779627 0.0533194 0.0839788
        endloop
    endfacet
    facet normal -0.258679 0.608105 0.750529
        outer loop
            vertex 0.0238656 0.0286905 0.115557
            vertex 0.0346463 0.0422368 0.108297
            vertex 0.0121988 0.0442688 0.0989138
        endloop
    endfacet
    facet normal 0.000512605 -0.942879 0.333136
        outer loop
            vertex 0.0185091 -0.0547438 0.0880374
            vertex 0.69 -0.058798 0.0755295
            vertex 0.69 -0.0513271 0.0966745
        endloop
    endfacet
    facet normal -0.833021 -0.301028 0.464175
        outer loop
            vertex -0.0304278 -0.0198499 0.0854108
            vertex -0.0485559 -0.00834042 0.0603418
            vertex -0.0396927 -0.0303294 0.0619876
        endloop
    endfacet
    facet normal -0.00236856 -0.114552 0.993414
        outer loop
            vertex 0.69 -0.0126128 0.126536
            vertex 0.041488 0.000857041 0.126543
            vertex 0.049816 -0.0149164 0.124744
        endloop
    endfacet
    facet normal -0.303396 -0.226063 0.92566
        outer loop
            vertex 0.0280217 -0.0222915 0.119454
            vertex 0.0314562 -0.00797106 0.124077
            vertex 0.00932408 -0.0162953 0.11479
        endloop
    endfacet
    facet normal 0.000360737 0.372919 0.927864
        outer loop
            vertex 0.0377381 0.0234996 0.121262
            vertex 0.69 0.0123887 0.125474
            vertex 0.69 0.0331943 0.117112
        endloop
    endfacet
    facet normal -0.714285 -0.68504 0.143239
        outer loop
            vertex -0.0472953 -0.0352993 0.0308396
            vertex -0.0318867 -0.0493593 0.0404352
            vertex -0.0371901 -0.0423042 0.0477299
        endloop
    endfacet
    facet normal 0.00690992 -0.996374 -0.0848003
        outer loop
            vertex -0.0195671 -0.05806 0.00903949
            vertex 0.69 -0.0560027 0.0426857
            vertex 0.69 -0.058798 0.0755295
        endloop
    endfacet
    facet normal -0.0011981 -0.96836 0.249555
        outer loop
            vertex 0.0185091 -0.0547438 0.0880374
            vertex 0.00816007 -0.0580423 0.0751884
            vertex 0.69 -0.058798 0.0755295
        endloop
    endfacet
    facet normal -0.566244 0.803759 0.182589
        outer loop
            vertex -0.0251518 0.0479304 0.0622618
            vertex -0.0282262 0.0514298 0.0373231
            vertex -0.0380114 0.0443285 0.0382373
        endloop
    endfacet
    facet normal -0.236248 -0.00296673 0.971688
        outer loop
            vertex 0.0150517 0.00626007 0.120132
            vertex 0.0314562 -0.00797106 0.124077
            vertex 0.041488 0.000857041 0.126543
        endloop
    endfacet
    facet normal 0.0334534 0.657116 -0.753047
        outer loop
            vertex -0.0195524 0.0580777 0.00907943
            vertex 0.69 0.0331946 0.0188874
            vertex -0.00786988 0.0467464 -0.000289394
        endloop
    endfacet
    facet normal -0.535252 0.36662 0.760983
        outer loop
            vertex -0.0219087 0.0160689 0.0943715
            vertex -0.000629418 0.0148685 0.109917
            vertex 0.00420387 0.0307569 0.105662
        endloop
    endfacet
    facet normal -0.155729 0.199833 0.967375
        outer loop
            vertex 0.0377381 0.0234996 0.121262
            vertex 0.041488 0.000857041 0.126543
            vertex 0.0489839 0.0109005 0.125675
        endloop
    endfacet
    facet normal -0.572079 0.190418 0.797788
        outer loop
            vertex -0.0134955 -0.00137079 0.104567
            vertex -0.000629418 0.0148685 0.109917
            vertex -0.0219087 0.0160689 0.0943715
        endloop
    endfacet
    facet normal -0.96437 0.26447 0.00678504
        outer loop
            vertex -0.0583413 0.00792649 0.0262484
            vertex -0.0560581 0.0163025 0.02428
            vertex -0.0549365 0.0207587 0.01
        endloop
    endfacet
    facet normal -0.93563 0.299094 0.187454
        outer loop
            vertex -0.0583413 0.00792649 0.0262484
            vertex -0.0517201 0.0157465 0.0468192
            vertex -0.0560581 0.0163025 0.02428
        endloop
    endfacet
    facet normal -0.00146661 0.641516 0.767108
        outer loop
            vertex 0.0346463 0.0422368 0.108297
            vertex 0.0411441 0.0325635 0.116399
            vertex 0.69 0.0331943 0.117112
        endloop
    endfacet
    facet normal -0.268026 0.292542 0.917922
        outer loop
            vertex 0.0150517 0.00626007 0.120132
            vertex 0.0377381 0.0234996 0.121262
            vertex 0.0238656 0.0286905 0.115557
        endloop
    endfacet
    facet normal 0.667238 -0.537754 -0.515379
        outer loop
            vertex 0.69 -0.0560027 0.0426857
            vertex 0.69 -0.0313959 0.0170106
            vertex 0.7 -0.0439552 0.0430617
        endloop
    endfacet
    facet normal -0.00159357 0.799123 0.601166
        outer loop
            vertex 0.0346463 0.0422368 0.108297
            vertex 0.69 0.050477 0.0990806
            vertex 0.028885 0.0511075 0.09649
        endloop
    endfacet
endsolid D:/Users/Paul Maroldt/Documents/!StartUp_Repositories/module_type_database/0118_L116-700/L116-700_convdec.stl_created_by_BoundingMesh