solid D:/Users/Paul Maroldt/Documents/!StartUp_Repositories/module_type_database/0066_D116/D116-quebec-distal_convdec.stl_created_by_BoundingMesh
    facet normal 0.975106 -0.217733 -0.04197
        outer loop
            vertex 0.0584814 -0.00343022 -0.0164995
            vertex 0.0562155 -0.0147717 -0.0103064
            vertex 0.0543855 -0.0217734 -0.0164999
        endloop
    endfacet
    facet normal 0.324202 0.489939 -0.80923
        outer loop
            vertex 0.0281695 0.0275105 -0.0309583
            vertex 0.0159449 0.0365513 -0.0303822
            vertex 0.0360452 0.0461802 -0.0164997
        endloop
    endfacet
    facet normal 0 0 -1
        outer loop
            vertex -0.0147704 -0.0377471 -0.0307144
            vertex 0.0271865 -0.0294013 -0.0307144
            vertex 0.0146962 -0.0377471 -0.0307144
        endloop
    endfacet
    facet normal -0.371524 -0.619098 0.691872
        outer loop
            vertex -0.0279264 -0.0392778 -5.96046e-011
            vertex -0.0338137 -0.0472665 -0.0103098
            vertex -0.0257216 -0.0521273 -0.010314
        endloop
    endfacet
    facet normal -0.0922178 0.167142 0.981611
        outer loop
            vertex -0.0027994 0.0273986 0.00408421
            vertex -0.0156691 0.0442842 -5.96046e-011
            vertex -0.0325825 0.0349525 -5.96046e-011
        endloop
    endfacet
    facet normal 0.888146 0.449733 0.0945352
        outer loop
            vertex 0.0533772 0.0241401 -0.0164998
            vertex 0.049621 0.0302562 -0.010307
            vertex 0.0538016 0.0220002 -0.0103068
        endloop
    endfacet
    facet normal 0.809398 0.587231 0.00588825
        outer loop
            vertex 0.049621 0.0302562 -0.010307
            vertex 0.0455996 0.0358611 -0.0164988
            vertex 0.0440827 0.0378898 -0.0103073
        endloop
    endfacet
    facet normal 0.441486 0.896406 0.0393199
        outer loop
            vertex 0.019566 0.0552182 -0.0164995
            vertex 0.0214046 0.0540411 -0.0103081
            vertex 0.0297935 0.0499095 -0.0103079
        endloop
    endfacet
    facet normal -0.998939 -0.0212263 -0.0408736
        outer loop
            vertex -0.0576068 -0.0106547 -0.0164993
            vertex -0.0581177 0.000913205 -0.0100205
            vertex -0.0580065 0.00815583 -0.0164994
        endloop
    endfacet
    facet normal 0.0307975 0.200793 0.97915
        outer loop
            vertex -0.0027994 0.0273986 0.00408421
            vertex 0.0146111 0.0446445 -5.96046e-011
            vertex -0.000559119 0.0469713 -5.96046e-011
        endloop
    endfacet
    facet normal 0.0902734 0.662261 0.743815
        outer loop
            vertex -0.000559119 0.0469713 -5.96046e-011
            vertex 0.0124606 0.0567744 -0.0103084
            vertex 0.00319366 0.0580377 -0.0103085
        endloop
    endfacet
    facet normal 0.305709 0.586652 0.749921
        outer loop
            vertex 0.0317421 0.0357174 -5.96046e-011
            vertex 0.0297935 0.0499095 -0.0103079
            vertex 0.0146111 0.0446445 -5.96046e-011
        endloop
    endfacet
    facet normal 0.452454 0.418856 -0.787303
        outer loop
            vertex 0.0281695 0.0275105 -0.0309583
            vertex 0.0360452 0.0461802 -0.0164997
            vertex 0.0455996 0.0358611 -0.0164988
        endloop
    endfacet
    facet normal -0.970025 -0.223566 0.0952342
        outer loop
            vertex -0.0576068 -0.0106547 -0.0164993
            vertex -0.055406 -0.0175672 -0.01031
            vertex -0.0575066 -0.00845296 -0.01031
        endloop
    endfacet
    facet normal -0.567196 -0.113498 -0.815725
        outer loop
            vertex -0.0576068 -0.0106547 -0.0164993
            vertex -0.0395982 0.00151474 -0.0307144
            vertex -0.0360328 -0.0161859 -0.0307307
        endloop
    endfacet
    facet normal 0.535034 -0.415098 0.735821
        outer loop
            vertex 0.0486459 -0.0318096 -0.010308
            vertex 0.0339379 -0.0324948 -5.96046e-011
            vertex 0.0429324 -0.0391858 -0.0103147
        endloop
    endfacet
    facet normal 0 0 -1
        outer loop
            vertex -0.0147704 -0.0377471 -0.0307144
            vertex 0.0146962 -0.0377471 -0.0307144
            vertex -3.71213e-005 -0.0406777 -0.0307144
        endloop
    endfacet
    facet normal 0.648724 -0.759873 -0.0418339
        outer loop
            vertex 0.0446917 -0.0378752 -0.0164996
            vertex 0.0360568 -0.0455878 -0.0103101
            vertex 0.033995 -0.0470073 -0.0164989
        endloop
    endfacet
    facet normal -0.940523 -0.337116 -0.0420744
        outer loop
            vertex -0.0512617 -0.0283569 -0.0164997
            vertex -0.055406 -0.0175672 -0.01031
            vertex -0.0576068 -0.0106547 -0.0164993
        endloop
    endfacet
    facet normal -0.690739 0.0911668 0.717334
        outer loop
            vertex -0.0478153 0.000125859 -5.96046e-011
            vertex -0.0572172 0.0102334 -0.0103379
            vertex -0.0581177 0.000913205 -0.0100205
        endloop
    endfacet
    facet normal -0.220254 -0.622479 0.751005
        outer loop
            vertex -0.0279264 -0.0392778 -5.96046e-011
            vertex -0.0170205 -0.0555753 -0.0103099
            vertex -0.00810326 -0.0462919 -5.96046e-011
        endloop
    endfacet
    facet normal 0.674969 0.214429 0.706
        outer loop
            vertex 0.0447088 0.0166873 -5.96046e-011
            vertex 0.0566336 0.0130848 -0.0103065
            vertex 0.0538016 0.0220002 -0.0103068
        endloop
    endfacet
    facet normal -0.484911 0.869415 0.0947555
        outer loop
            vertex -0.0262695 0.052362 -0.0164996
            vertex -0.0322193 0.0483688 -0.0103087
            vertex -0.0241368 0.0528768 -0.010309
        endloop
    endfacet
    facet normal 0.200094 0.654835 0.728802
        outer loop
            vertex 0.0146111 0.0446445 -5.96046e-011
            vertex 0.0214046 0.0540411 -0.0103081
            vertex 0.0124606 0.0567744 -0.0103084
        endloop
    endfacet
    facet normal 0.150984 0.102877 0.983169
        outer loop
            vertex 0.0317421 0.0357174 -5.96046e-011
            vertex 0.0184166 0.0170471 0.004
            vertex 0.0447088 0.0166873 -5.96046e-011
        endloop
    endfacet
    facet normal 0.58136 0.115293 -0.805436
        outer loop
            vertex 0.0362882 0.0159058 -0.0307144
            vertex 0.0570421 0.0105617 -0.0164993
            vertex 0.0392171 0.00113696 -0.0307144
        endloop
    endfacet
    facet normal 0.465773 -0.499704 0.730309
        outer loop
            vertex 0.0429324 -0.0391858 -0.0103147
            vertex 0.0339379 -0.0324948 -5.96046e-011
            vertex 0.0360568 -0.0455878 -0.0103101
        endloop
    endfacet
    facet normal 0.733102 0.678771 -0.0427979
        outer loop
            vertex 0.0360452 0.0461802 -0.0164997
            vertex 0.0440827 0.0378898 -0.0103073
            vertex 0.0455996 0.0358611 -0.0164988
        endloop
    endfacet
    facet normal 0.292567 0.533462 -0.793614
        outer loop
            vertex 0.0360452 0.0461802 -0.0164997
            vertex 0.0159449 0.0365513 -0.0303822
            vertex 0.019566 0.0552182 -0.0164995
        endloop
    endfacet
    facet normal -0.142171 0.988934 -0.0423995
        outer loop
            vertex 0.00107351 0.0585723 -0.0164996
            vertex -0.012849 0.0565708 -0.0164991
            vertex -0.00615531 0.0577985 -0.0103087
        endloop
    endfacet
    facet normal -0.00617981 0.00212871 -0.999979
        outer loop
            vertex -0.00191586 0.0393659 -0.0308667
            vertex -0.0395982 0.00151474 -0.0307144
            vertex -0.0367072 0.0160614 -0.0307013
        endloop
    endfacet
    facet normal -0.338761 -0.514616 -0.787662
        outer loop
            vertex -0.0396439 -0.0431305 -0.0164995
            vertex -0.0147704 -0.0377471 -0.0307144
            vertex -0.027896 -0.0508642 -0.0164993
        endloop
    endfacet
    facet normal -0.549411 -0.834586 -0.0401746
        outer loop
            vertex -0.0396439 -0.0431305 -0.0164995
            vertex -0.027896 -0.0508642 -0.0164993
            vertex -0.0338137 -0.0472665 -0.0103098
        endloop
    endfacet
    facet normal 0.295871 0.600779 0.742647
        outer loop
            vertex 0.0146111 0.0446445 -5.96046e-011
            vertex 0.0297935 0.0499095 -0.0103079
            vertex 0.0214046 0.0540411 -0.0103081
        endloop
    endfacet
    facet normal -0.580482 0.116091 -0.805955
        outer loop
            vertex -0.0580065 0.00815583 -0.0164994
            vertex -0.0367072 0.0160614 -0.0307013
            vertex -0.0395982 0.00151474 -0.0307144
        endloop
    endfacet
    facet normal -0.123056 0.588873 -0.798803
        outer loop
            vertex -0.0210076 0.0358846 -0.030492
            vertex -0.012849 0.0565708 -0.0164991
            vertex -0.00191586 0.0393659 -0.0308667
        endloop
    endfacet
    facet normal -0.214054 -0.972166 0.0952562
        outer loop
            vertex -0.0150592 -0.0566136 -0.0164993
            vertex -0.00797622 -0.0575671 -0.0103141
            vertex -0.0170205 -0.0555753 -0.0103099
        endloop
    endfacet
    facet normal 0.670775 -0.118943 0.732061
        outer loop
            vertex 0.0445993 -0.0168479 -5.96046e-011
            vertex 0.0562155 -0.0147717 -0.0103064
            vertex 0.0578547 -0.00557797 -0.0103146
        endloop
    endfacet
    facet normal -0.514772 -0.442289 0.734432
        outer loop
            vertex -0.0279264 -0.0392778 -5.96046e-011
            vertex -0.046993 -0.0342067 -0.0103101
            vertex -0.040887 -0.0413137 -0.0103103
        endloop
    endfacet
    facet normal -0.00144674 -0.175435 0.98449
        outer loop
            vertex -0.00810326 -0.0462919 -5.96046e-011
            vertex 0.00729735 -0.0464189 -5.96046e-011
            vertex 0.00711586 -0.0239706 0.004
        endloop
    endfacet
    facet normal -0.320689 0.581239 0.747877
        outer loop
            vertex -0.0325825 0.0349525 -5.96046e-011
            vertex -0.0156691 0.0442842 -5.96046e-011
            vertex -0.0241368 0.0528768 -0.010309
        endloop
    endfacet
    facet normal 0.0788716 0.153639 0.984974
        outer loop
            vertex -0.0027994 0.0273986 0.00408421
            vertex 0.0184166 0.0170471 0.004
            vertex 0.0146111 0.0446445 -5.96046e-011
        endloop
    endfacet
    facet normal -0.324483 0.581823 0.745783
        outer loop
            vertex -0.0325825 0.0349525 -5.96046e-011
            vertex -0.0241368 0.0528768 -0.010309
            vertex -0.0322193 0.0483688 -0.0103087
        endloop
    endfacet
    facet normal 0.66758 0.0983991 0.738007
        outer loop
            vertex 0.0447088 0.0166873 -5.96046e-011
            vertex 0.0580015 0.00382766 -0.0103096
            vertex 0.0566336 0.0130848 -0.0103065
        endloop
    endfacet
    facet normal 0.0801445 0.153796 0.984847
        outer loop
            vertex 0.0317421 0.0357174 -5.96046e-011
            vertex 0.0146111 0.0446445 -5.96046e-011
            vertex 0.0184166 0.0170471 0.004
        endloop
    endfacet
    facet normal -0.0175333 0.684678 0.728634
        outer loop
            vertex -0.000559119 0.0469713 -5.96046e-011
            vertex 0.00319366 0.0580377 -0.0103085
            vertex -0.00615531 0.0577985 -0.0103087
        endloop
    endfacet
    facet normal 0.50173 0.334244 -0.797839
        outer loop
            vertex 0.0281695 0.0275105 -0.0309583
            vertex 0.0455996 0.0358611 -0.0164988
            vertex 0.0362882 0.0159058 -0.0307144
        endloop
    endfacet
    facet normal 0.855974 -0.515324 -0.0418208
        outer loop
            vertex 0.0446917 -0.0378752 -0.0164996
            vertex 0.0543855 -0.0217734 -0.0164999
            vertex 0.0486459 -0.0318096 -0.010308
        endloop
    endfacet
    facet normal 0.993838 0.102233 -0.0428205
        outer loop
            vertex 0.0584814 -0.00343022 -0.0164995
            vertex 0.0570421 0.0105617 -0.0164993
            vertex 0.0580015 0.00382766 -0.0103096
        endloop
    endfacet
    facet normal 0.571623 -0.11671 -0.812173
        outer loop
            vertex 0.0584814 -0.00343022 -0.0164995
            vertex 0.0355322 -0.016911 -0.0307144
            vertex 0.0392171 0.00113696 -0.0307144
        endloop
    endfacet
    facet normal 0.100399 0.654578 0.749298
        outer loop
            vertex -0.000559119 0.0469713 -5.96046e-011
            vertex 0.0146111 0.0446445 -5.96046e-011
            vertex 0.0124606 0.0567744 -0.0103084
        endloop
    endfacet
    facet normal 0.952336 0.302513 0.0392665
        outer loop
            vertex 0.0533772 0.0241401 -0.0164998
            vertex 0.0538016 0.0220002 -0.0103068
            vertex 0.0566336 0.0130848 -0.0103065
        endloop
    endfacet
    facet normal -0.185545 0.982619 0.00575298
        outer loop
            vertex -0.0153447 0.0560633 -0.0103089
            vertex -0.00615531 0.0577985 -0.0103087
            vertex -0.012849 0.0565708 -0.0164991
        endloop
    endfacet
    facet normal 0.103563 -0.136447 0.985219
        outer loop
            vertex 0.0235004 -0.00617604 0.00474214
            vertex 0.00711586 -0.0239706 0.004
            vertex 0.0339379 -0.0324948 -5.96046e-011
        endloop
    endfacet
    facet normal -0.116085 0.652764 0.748614
        outer loop
            vertex -0.000559119 0.0469713 -5.96046e-011
            vertex -0.00615531 0.0577985 -0.0103087
            vertex -0.0156691 0.0442842 -5.96046e-011
        endloop
    endfacet
    facet normal -0.190144 -0.0477691 0.980593
        outer loop
            vertex -0.0161867 -0.0161262 0.00534129
            vertex -0.0478153 0.000125859 -5.96046e-011
            vertex -0.0423482 -0.0216358 -5.96046e-011
        endloop
    endfacet
    facet normal -0.23342 0.644023 0.728525
        outer loop
            vertex -0.0156691 0.0442842 -5.96046e-011
            vertex -0.0153447 0.0560633 -0.0103089
            vertex -0.0241368 0.0528768 -0.010309
        endloop
    endfacet
    facet normal -0.618778 0.78466 0.03771
        outer loop
            vertex -0.0414995 0.041348 -0.016499
            vertex -0.0396077 0.0425426 -0.0103137
            vertex -0.0322193 0.0483688 -0.0103087
        endloop
    endfacet
    facet normal -0.522063 0.477291 0.706855
        outer loop
            vertex -0.0325825 0.0349525 -5.96046e-011
            vertex -0.0396077 0.0425426 -0.0103137
            vertex -0.0459388 0.0356114 -0.0103095
        endloop
    endfacet
    facet normal -0.954483 0.29553 -0.0403023
        outer loop
            vertex -0.0580065 0.00815583 -0.0164994
            vertex -0.0548117 0.0193198 -0.0102985
            vertex -0.052457 0.0260792 -0.0164995
        endloop
    endfacet
    facet normal -0.757928 -0.651177 0.0389189
        outer loop
            vertex -0.0396439 -0.0431305 -0.0164995
            vertex -0.040887 -0.0413137 -0.0103103
            vertex -0.046993 -0.0342067 -0.0103101
        endloop
    endfacet
    facet normal -0.0391677 -0.674682 0.737069
        outer loop
            vertex -0.00810326 -0.0462919 -5.96046e-011
            vertex -0.00797622 -0.0575671 -0.0103141
            vertex 0.00142365 -0.0581081 -0.0103098
        endloop
    endfacet
    facet normal 0.668279 -0.234613 0.705946
        outer loop
            vertex 0.0445993 -0.0168479 -5.96046e-011
            vertex 0.0531173 -0.0236 -0.0103075
            vertex 0.0562155 -0.0147717 -0.0103064
        endloop
    endfacet
    facet normal 0.608948 -0.331711 0.720521
        outer loop
            vertex 0.0445993 -0.0168479 -5.96046e-011
            vertex 0.0486459 -0.0318096 -0.010308
            vertex 0.0531173 -0.0236 -0.0103075
        endloop
    endfacet
    facet normal -0.464406 -0.551764 0.692736
        outer loop
            vertex -0.0279264 -0.0392778 -5.96046e-011
            vertex -0.040887 -0.0413137 -0.0103103
            vertex -0.0338137 -0.0472665 -0.0103098
        endloop
    endfacet
    facet normal 0.0021369 0.0013513 -0.999997
        outer loop
            vertex -0.0395982 0.00151474 -0.0307144
            vertex -0.0147704 -0.0377471 -0.0307144
            vertex -0.0360328 -0.0161859 -0.0307307
        endloop
    endfacet
    facet normal -0.647035 -0.264144 0.715244
        outer loop
            vertex -0.0423482 -0.0216358 -5.96046e-011
            vertex -0.055406 -0.0175672 -0.01031
            vertex -0.0518714 -0.0262254 -0.01031
        endloop
    endfacet
    facet normal 0.177889 -0.652498 0.736616
        outer loop
            vertex 0.00729735 -0.0464189 -5.96046e-011
            vertex 0.0107557 -0.0571205 -0.0103147
            vertex 0.0197665 -0.0546586 -0.01031
        endloop
    endfacet
    facet normal -0.614083 -0.0130526 -0.789134
        outer loop
            vertex -0.0576068 -0.0106547 -0.0164993
            vertex -0.0580065 0.00815583 -0.0164994
            vertex -0.0395982 0.00151474 -0.0307144
        endloop
    endfacet
    facet normal -0.698287 -0.0675865 0.71262
        outer loop
            vertex -0.0478153 0.000125859 -5.96046e-011
            vertex -0.0581177 0.000913205 -0.0100205
            vertex -0.0575066 -0.00845296 -0.01031
        endloop
    endfacet
    facet normal -0.0870568 0.605372 -0.791167
        outer loop
            vertex 0.00107351 0.0585723 -0.0164996
            vertex -0.00191586 0.0393659 -0.0308667
            vertex -0.012849 0.0565708 -0.0164991
        endloop
    endfacet
    facet normal 0.702551 0.710542 0.0393907
        outer loop
            vertex 0.0360452 0.0461802 -0.0164997
            vertex 0.0374118 0.0444857 -0.0103077
            vertex 0.0440827 0.0378898 -0.0103073
        endloop
    endfacet
    facet normal 0.0331179 -0.0720683 0.99685
        outer loop
            vertex 0.0235004 -0.00617604 0.00474214
            vertex -0.0161867 -0.0161262 0.00534129
            vertex 0.00711586 -0.0239706 0.004
        endloop
    endfacet
    facet normal 0.678855 -0.0109855 0.73419
        outer loop
            vertex 0.0580015 0.00382766 -0.0103096
            vertex 0.0467835 -0.000376388 -5.96046e-011
            vertex 0.0578547 -0.00557797 -0.0103146
        endloop
    endfacet
    facet normal 0.658076 0.0800126 0.748688
        outer loop
            vertex 0.0447088 0.0166873 -5.96046e-011
            vertex 0.0467835 -0.000376388 -5.96046e-011
            vertex 0.0580015 0.00382766 -0.0103096
        endloop
    endfacet
    facet normal -0.597238 -0.365058 0.71417
        outer loop
            vertex -0.0423482 -0.0216358 -5.96046e-011
            vertex -0.0518714 -0.0262254 -0.01031
            vertex -0.046993 -0.0342067 -0.0103101
        endloop
    endfacet
    facet normal 0.480439 0.875997 -0.0425228
        outer loop
            vertex 0.0360452 0.0461802 -0.0164997
            vertex 0.019566 0.0552182 -0.0164995
            vertex 0.0297935 0.0499095 -0.0103079
        endloop
    endfacet
    facet normal 0.964582 0.260345 -0.0424437
        outer loop
            vertex 0.0533772 0.0241401 -0.0164998
            vertex 0.0566336 0.0130848 -0.0103065
            vertex 0.0570421 0.0105617 -0.0164993
        endloop
    endfacet
    facet normal 0.193879 0.0235729 0.980742
        outer loop
            vertex 0.0235004 -0.00617604 0.00474214
            vertex 0.0467835 -0.000376388 -5.96046e-011
            vertex 0.0447088 0.0166873 -5.96046e-011
        endloop
    endfacet
    facet normal 0.656859 -0.0871026 0.748966
        outer loop
            vertex 0.0445993 -0.0168479 -5.96046e-011
            vertex 0.0578547 -0.00557797 -0.0103146
            vertex 0.0467835 -0.000376388 -5.96046e-011
        endloop
    endfacet
    facet normal 0.786982 -0.609671 0.0946668
        outer loop
            vertex 0.0446917 -0.0378752 -0.0164996
            vertex 0.0486459 -0.0318096 -0.010308
            vertex 0.0429324 -0.0391858 -0.0103147
        endloop
    endfacet
    facet normal 0.995313 -0.0155851 0.0954402
        outer loop
            vertex 0.0584814 -0.00343022 -0.0164995
            vertex 0.0580015 0.00382766 -0.0103096
            vertex 0.0578547 -0.00557797 -0.0103146
        endloop
    endfacet
    facet normal 0.680954 -0.731301 0.0387335
        outer loop
            vertex 0.0446917 -0.0378752 -0.0164996
            vertex 0.0429324 -0.0391858 -0.0103147
            vertex 0.0360568 -0.0455878 -0.0103101
        endloop
    endfacet
    facet normal 0.405001 -0.474449 -0.781583
        outer loop
            vertex 0.0446917 -0.0378752 -0.0164996
            vertex 0.033995 -0.0470073 -0.0164989
            vertex 0.0271865 -0.0294013 -0.0307144
        endloop
    endfacet
    facet normal 0.0468014 0.126424 -0.990872
        outer loop
            vertex 0.0281695 0.0275105 -0.0309583
            vertex -0.00191586 0.0393659 -0.0308667
            vertex 0.0159449 0.0365513 -0.0303822
        endloop
    endfacet
    facet normal 0.290945 0.952051 0.0946037
        outer loop
            vertex 0.019566 0.0552182 -0.0164995
            vertex 0.0124606 0.0567744 -0.0103084
            vertex 0.0214046 0.0540411 -0.0103081
        endloop
    endfacet
    facet normal -0.00247165 -0.00156299 -0.999996
        outer loop
            vertex -0.00191586 0.0393659 -0.0308667
            vertex -0.0147704 -0.0377471 -0.0307144
            vertex -0.0395982 0.00151474 -0.0307144
        endloop
    endfacet
    facet normal 0.832553 0.552453 -0.0406319
        outer loop
            vertex 0.0533772 0.0241401 -0.0164998
            vertex 0.0455996 0.0358611 -0.0164988
            vertex 0.049621 0.0302562 -0.010307
        endloop
    endfacet
    facet normal -0.123782 0.655447 0.745028
        outer loop
            vertex -0.0156691 0.0442842 -5.96046e-011
            vertex -0.00615531 0.0577985 -0.0103087
            vertex -0.0153447 0.0560633 -0.0103089
        endloop
    endfacet
    facet normal 0.206031 -0.0273207 0.978164
        outer loop
            vertex 0.0235004 -0.00617604 0.00474214
            vertex 0.0445993 -0.0168479 -5.96046e-011
            vertex 0.0467835 -0.000376388 -5.96046e-011
        endloop
    endfacet
    facet normal -0.455047 0.368946 -0.810439
        outer loop
            vertex -0.0210076 0.0358846 -0.030492
            vertex -0.0367072 0.0160614 -0.0307013
            vertex -0.0414995 0.041348 -0.016499
        endloop
    endfacet
    facet normal -0.654559 -0.150859 0.740807
        outer loop
            vertex -0.0478153 0.000125859 -5.96046e-011
            vertex -0.0575066 -0.00845296 -0.01031
            vertex -0.055406 -0.0175672 -0.01031
        endloop
    endfacet
    facet normal -0.00221427 -0.174928 0.984579
        outer loop
            vertex -0.0161867 -0.0161262 0.00534129
            vertex -0.00810326 -0.0462919 -5.96046e-011
            vertex 0.00711586 -0.0239706 0.004
        endloop
    endfacet
    facet normal -0.0251695 0.0304838 -0.999218
        outer loop
            vertex -0.0210076 0.0358846 -0.030492
            vertex -0.00191586 0.0393659 -0.0308667
            vertex -0.0367072 0.0160614 -0.0307013
        endloop
    endfacet
    facet normal -0.990689 0.0989047 0.0935598
        outer loop
            vertex -0.0580065 0.00815583 -0.0164994
            vertex -0.0581177 0.000913205 -0.0100205
            vertex -0.0572172 0.0102334 -0.0103379
        endloop
    endfacet
    facet normal -0.0370233 0.208188 0.977388
        outer loop
            vertex -0.0027994 0.0273986 0.00408421
            vertex -0.000559119 0.0469713 -5.96046e-011
            vertex -0.0156691 0.0442842 -5.96046e-011
        endloop
    endfacet
    facet normal -0.438206 0.555098 0.706995
        outer loop
            vertex -0.0325825 0.0349525 -5.96046e-011
            vertex -0.0322193 0.0483688 -0.0103087
            vertex -0.0396077 0.0425426 -0.0103137
        endloop
    endfacet
    facet normal 0.104812 -0.98992 0.0952514
        outer loop
            vertex 0.00364288 -0.0584687 -0.0164994
            vertex 0.0107557 -0.0571205 -0.0103147
            vertex 0.00142365 -0.0581081 -0.0103098
        endloop
    endfacet
    facet normal 0.28297 -0.621163 0.730811
        outer loop
            vertex 0.0217219 -0.0416379 -5.96046e-011
            vertex 0.0197665 -0.0546586 -0.01031
            vertex 0.0282742 -0.0507827 -0.0103098
        endloop
    endfacet
    facet normal -0.502431 -0.313498 -0.80578
        outer loop
            vertex -0.0512617 -0.0283569 -0.0164997
            vertex -0.0360328 -0.0161859 -0.0307307
            vertex -0.028924 -0.0282765 -0.0304593
        endloop
    endfacet
    facet normal -0.645992 0.16448 0.745413
        outer loop
            vertex -0.0478153 0.000125859 -5.96046e-011
            vertex -0.0430641 0.0187861 -5.96046e-011
            vertex -0.0548117 0.0193198 -0.0102985
        endloop
    endfacet
    facet normal -0.925122 -0.377669 0.0389286
        outer loop
            vertex -0.0512617 -0.0283569 -0.0164997
            vertex -0.0518714 -0.0262254 -0.01031
            vertex -0.055406 -0.0175672 -0.01031
        endloop
    endfacet
    facet normal 0.221279 -0.974302 -0.0420976
        outer loop
            vertex 0.00364288 -0.0584687 -0.0164994
            vertex 0.021971 -0.0543061 -0.0164995
            vertex 0.0107557 -0.0571205 -0.0103147
        endloop
    endfacet
    facet normal -0.575092 -0.206116 -0.791698
        outer loop
            vertex -0.0512617 -0.0283569 -0.0164997
            vertex -0.0576068 -0.0106547 -0.0164993
            vertex -0.0360328 -0.0161859 -0.0307307
        endloop
    endfacet
    facet normal -0.000529854 0.0191774 0.999816
        outer loop
            vertex 0.0235004 -0.00617604 0.00474214
            vertex -0.0027994 0.0273986 0.00408421
            vertex -0.0206565 0.0105645 0.00439764
        endloop
    endfacet
    facet normal -0.408387 -0.911813 -0.0426359
        outer loop
            vertex -0.0150592 -0.0566136 -0.0164993
            vertex -0.0257216 -0.0521273 -0.010314
            vertex -0.027896 -0.0508642 -0.0164993
        endloop
    endfacet
    facet normal -0.2507 -0.631774 0.733492
        outer loop
            vertex -0.0279264 -0.0392778 -5.96046e-011
            vertex -0.0257216 -0.0521273 -0.010314
            vertex -0.0170205 -0.0555753 -0.0103099
        endloop
    endfacet
    facet normal -0.0677707 -0.191532 0.979144
        outer loop
            vertex -0.0161867 -0.0161262 0.00534129
            vertex -0.0279264 -0.0392778 -5.96046e-011
            vertex -0.00810326 -0.0462919 -5.96046e-011
        endloop
    endfacet
    facet normal -0.102927 0.127549 0.986477
        outer loop
            vertex -0.0027994 0.0273986 0.00408421
            vertex -0.0325825 0.0349525 -5.96046e-011
            vertex -0.0206565 0.0105645 0.00439764
        endloop
    endfacet
    facet normal 0.113106 0.578714 -0.80765
        outer loop
            vertex 0.019566 0.0552182 -0.0164995
            vertex 0.0159449 0.0365513 -0.0303822
            vertex -0.00191586 0.0393659 -0.0308667
        endloop
    endfacet
    facet normal 0.546271 0.372217 0.750361
        outer loop
            vertex 0.0317421 0.0357174 -5.96046e-011
            vertex 0.0447088 0.0166873 -5.96046e-011
            vertex 0.049621 0.0302562 -0.010307
        endloop
    endfacet
    facet normal 0.407641 0.572601 0.711307
        outer loop
            vertex 0.0317421 0.0357174 -5.96046e-011
            vertex 0.0374118 0.0444857 -0.0103077
            vertex 0.0297935 0.0499095 -0.0103079
        endloop
    endfacet
    facet normal 0.98374 -0.175362 0.0387839
        outer loop
            vertex 0.0584814 -0.00343022 -0.0164995
            vertex 0.0578547 -0.00557797 -0.0103146
            vertex 0.0562155 -0.0147717 -0.0103064
        endloop
    endfacet
    facet normal 0 0 -1
        outer loop
            vertex 0.0362882 0.0159058 -0.0307144
            vertex 0.0355322 -0.016911 -0.0307144
            vertex 0.0271865 -0.0294013 -0.0307144
        endloop
    endfacet
    facet normal 0.0127262 -0.0121108 -0.999846
        outer loop
            vertex 0.0281695 0.0275105 -0.0309583
            vertex 0.0362882 0.0159058 -0.0307144
            vertex -0.0147704 -0.0377471 -0.0307144
        endloop
    endfacet
    facet normal 0.0578962 -0.174676 0.982922
        outer loop
            vertex 0.0217219 -0.0416379 -5.96046e-011
            vertex 0.00711586 -0.0239706 0.004
            vertex 0.00729735 -0.0464189 -5.96046e-011
        endloop
    endfacet
    facet normal 0.989242 0.146176 0.00569862
        outer loop
            vertex 0.0566336 0.0130848 -0.0103065
            vertex 0.0580015 0.00382766 -0.0103096
            vertex 0.0570421 0.0105617 -0.0164993
        endloop
    endfacet
    facet normal -0.169932 -0.138914 0.975616
        outer loop
            vertex -0.0161867 -0.0161262 0.00534129
            vertex -0.0423482 -0.0216358 -5.96046e-011
            vertex -0.0279264 -0.0392778 -5.96046e-011
        endloop
    endfacet
    facet normal 0.150955 0.064569 0.98643
        outer loop
            vertex 0.0235004 -0.00617604 0.00474214
            vertex 0.0447088 0.0166873 -5.96046e-011
            vertex 0.0184166 0.0170471 0.004
        endloop
    endfacet
    facet normal 0 0 -1
        outer loop
            vertex 0.0362882 0.0159058 -0.0307144
            vertex 0.0271865 -0.0294013 -0.0307144
            vertex -0.0147704 -0.0377471 -0.0307144
        endloop
    endfacet
    facet normal 0.87753 -0.477954 0.0387329
        outer loop
            vertex 0.0543855 -0.0217734 -0.0164999
            vertex 0.0531173 -0.0236 -0.0103075
            vertex 0.0486459 -0.0318096 -0.010308
        endloop
    endfacet
    facet normal 0.575678 -0.128527 -0.807512
        outer loop
            vertex 0.0584814 -0.00343022 -0.0164995
            vertex 0.0543855 -0.0217734 -0.0164999
            vertex 0.0355322 -0.016911 -0.0307144
        endloop
    endfacet
    facet normal -0.591534 0.183149 -0.785203
        outer loop
            vertex -0.0580065 0.00815583 -0.0164994
            vertex -0.052457 0.0260792 -0.0164995
            vertex -0.0367072 0.0160614 -0.0307013
        endloop
    endfacet
    facet normal -0.966056 0.255587 0.0375733
        outer loop
            vertex -0.0580065 0.00815583 -0.0164994
            vertex -0.0572172 0.0102334 -0.0103379
            vertex -0.0548117 0.0193198 -0.0102985
        endloop
    endfacet
    facet normal -0.555817 0.363215 0.747758
        outer loop
            vertex -0.0430641 0.0187861 -5.96046e-011
            vertex -0.0459388 0.0356114 -0.0103095
            vertex -0.0510564 0.0277801 -0.0103095
        endloop
    endfacet
    facet normal -0.379897 0.525274 -0.761423
        outer loop
            vertex -0.0210076 0.0358846 -0.030492
            vertex -0.0414995 0.041348 -0.016499
            vertex -0.0262695 0.052362 -0.0164996
        endloop
    endfacet
    facet normal -0.642711 0.166907 0.747707
        outer loop
            vertex -0.0478153 0.000125859 -5.96046e-011
            vertex -0.0548117 0.0193198 -0.0102985
            vertex -0.0572172 0.0102334 -0.0103379
        endloop
    endfacet
    facet normal -0.188174 0.600119 -0.777462
        outer loop
            vertex -0.0210076 0.0358846 -0.030492
            vertex -0.0262695 0.052362 -0.0164996
            vertex -0.012849 0.0565708 -0.0164991
        endloop
    endfacet
    facet normal -0.73497 0.671394 0.0951236
        outer loop
            vertex -0.0414995 0.041348 -0.016499
            vertex -0.0459388 0.0356114 -0.0103095
            vertex -0.0396077 0.0425426 -0.0103137
        endloop
    endfacet
    facet normal -0.176487 0.0449364 0.983277
        outer loop
            vertex -0.0478153 0.000125859 -5.96046e-011
            vertex -0.0206565 0.0105645 0.00439764
            vertex -0.0430641 0.0187861 -5.96046e-011
        endloop
    endfacet
    facet normal -0.259177 -0.578669 -0.773285
        outer loop
            vertex -0.0150592 -0.0566136 -0.0164993
            vertex -0.027896 -0.0508642 -0.0164993
            vertex -0.0147704 -0.0377471 -0.0307144
        endloop
    endfacet
    facet normal -0.0054421 -0.659921 0.751315
        outer loop
            vertex -0.00810326 -0.0462919 -5.96046e-011
            vertex 0.00142365 -0.0581081 -0.0103098
            vertex 0.00729735 -0.0464189 -5.96046e-011
        endloop
    endfacet
    facet normal -0.99701 -0.0662781 0.0397186
        outer loop
            vertex -0.0576068 -0.0106547 -0.0164993
            vertex -0.0575066 -0.00845296 -0.01031
            vertex -0.0581177 0.000913205 -0.0100205
        endloop
    endfacet
    facet normal -0.0543149 -0.0543159 -0.997045
        outer loop
            vertex -0.0360328 -0.0161859 -0.0307307
            vertex -0.0147704 -0.0377471 -0.0307144
            vertex -0.028924 -0.0282765 -0.0304593
        endloop
    endfacet
    facet normal 0.138396 -0.609385 -0.780703
        outer loop
            vertex 0.00364288 -0.0584687 -0.0164994
            vertex 0.0146962 -0.0377471 -0.0307144
            vertex 0.021971 -0.0543061 -0.0164995
        endloop
    endfacet
    facet normal -0.514916 -0.85722 0.00596227
        outer loop
            vertex -0.0338137 -0.0472665 -0.0103098
            vertex -0.027896 -0.0508642 -0.0164993
            vertex -0.0257216 -0.0521273 -0.010314
        endloop
    endfacet
    facet normal -0.641006 -0.761655 0.0948328
        outer loop
            vertex -0.0396439 -0.0431305 -0.0164995
            vertex -0.0338137 -0.0472665 -0.0103098
            vertex -0.040887 -0.0413137 -0.0103103
        endloop
    endfacet
    facet normal -0.146892 -0.668539 0.729026
        outer loop
            vertex -0.00810326 -0.0462919 -5.96046e-011
            vertex -0.0170205 -0.0555753 -0.0103099
            vertex -0.00797622 -0.0575671 -0.0103141
        endloop
    endfacet
    facet normal -0.0986275 -0.994307 -0.0403372
        outer loop
            vertex 0.00364288 -0.0584687 -0.0164994
            vertex -0.00797622 -0.0575671 -0.0103141
            vertex -0.0150592 -0.0566136 -0.0164993
        endloop
    endfacet
    facet normal 0.106104 0.58497 -0.804084
        outer loop
            vertex 0.019566 0.0552182 -0.0164995
            vertex -0.00191586 0.0393659 -0.0308667
            vertex 0.00107351 0.0585723 -0.0164996
        endloop
    endfacet
    facet normal -0.492418 0.353405 -0.79538
        outer loop
            vertex -0.0414995 0.041348 -0.016499
            vertex -0.0367072 0.0160614 -0.0307013
            vertex -0.052457 0.0260792 -0.0164995
        endloop
    endfacet
    facet normal -0.340478 0.939436 0.0391746
        outer loop
            vertex -0.0262695 0.052362 -0.0164996
            vertex -0.0241368 0.0528768 -0.010309
            vertex -0.0153447 0.0560633 -0.0103089
        endloop
    endfacet
    facet normal -0.558332 0.361998 0.746474
        outer loop
            vertex -0.0325825 0.0349525 -5.96046e-011
            vertex -0.0459388 0.0356114 -0.0103095
            vertex -0.0430641 0.0187861 -5.96046e-011
        endloop
    endfacet
    facet normal 0.502642 0.333602 -0.797534
        outer loop
            vertex 0.0533772 0.0241401 -0.0164998
            vertex 0.0362882 0.0159058 -0.0307144
            vertex 0.0455996 0.0358611 -0.0164988
        endloop
    endfacet
    facet normal 0.602071 0.0619444 -0.796036
        outer loop
            vertex 0.0584814 -0.00343022 -0.0164995
            vertex 0.0392171 0.00113696 -0.0307144
            vertex 0.0570421 0.0105617 -0.0164993
        endloop
    endfacet
    facet normal 0.499227 0.504946 0.704132
        outer loop
            vertex 0.0317421 0.0357174 -5.96046e-011
            vertex 0.0440827 0.0378898 -0.0103073
            vertex 0.0374118 0.0444857 -0.0103077
        endloop
    endfacet
    facet normal 0.178304 0.983059 -0.0424667
        outer loop
            vertex 0.019566 0.0552182 -0.0164995
            vertex 0.00107351 0.0585723 -0.0164996
            vertex 0.0124606 0.0567744 -0.0103084
        endloop
    endfacet
    facet normal 0.577377 0.81099 0.0945058
        outer loop
            vertex 0.0360452 0.0461802 -0.0164997
            vertex 0.0297935 0.0499095 -0.0103079
            vertex 0.0374118 0.0444857 -0.0103077
        endloop
    endfacet
    facet normal 0.163833 -0.111632 0.980152
        outer loop
            vertex 0.0235004 -0.00617604 0.00474214
            vertex 0.0339379 -0.0324948 -5.96046e-011
            vertex 0.0445993 -0.0168479 -5.96046e-011
        endloop
    endfacet
    facet normal 0.585361 0.157964 -0.795236
        outer loop
            vertex 0.0533772 0.0241401 -0.0164998
            vertex 0.0570421 0.0105617 -0.0164993
            vertex 0.0362882 0.0159058 -0.0307144
        endloop
    endfacet
    facet normal 0.395172 -0.527985 0.751713
        outer loop
            vertex 0.0217219 -0.0416379 -5.96046e-011
            vertex 0.0360568 -0.0455878 -0.0103101
            vertex 0.0339379 -0.0324948 -5.96046e-011
        endloop
    endfacet
    facet normal 0.493702 -0.329879 -0.804635
        outer loop
            vertex 0.0446917 -0.0378752 -0.0164996
            vertex 0.0271865 -0.0294013 -0.0307144
            vertex 0.0355322 -0.016911 -0.0307144
        endloop
    endfacet
    facet normal 0.555172 -0.831715 0.00581134
        outer loop
            vertex 0.0360568 -0.0455878 -0.0103101
            vertex 0.0282742 -0.0507827 -0.0103098
            vertex 0.033995 -0.0470073 -0.0164989
        endloop
    endfacet
    facet normal -0.00358731 -0.001377 -0.999993
        outer loop
            vertex 0.0281695 0.0275105 -0.0309583
            vertex -0.0147704 -0.0377471 -0.0307144
            vertex -0.00191586 0.0393659 -0.0308667
        endloop
    endfacet
    facet normal -0.155785 0.101004 0.982613
        outer loop
            vertex -0.0325825 0.0349525 -5.96046e-011
            vertex -0.0430641 0.0187861 -5.96046e-011
            vertex -0.0206565 0.0105645 0.00439764
        endloop
    endfacet
    facet normal -0.162696 0.00763672 0.986647
        outer loop
            vertex -0.0161867 -0.0161262 0.00534129
            vertex -0.0206565 0.0105645 0.00439764
            vertex -0.0478153 0.000125859 -5.96046e-011
        endloop
    endfacet
    facet normal -0.909838 0.403976 0.0948621
        outer loop
            vertex -0.052457 0.0260792 -0.0164995
            vertex -0.0548117 0.0193198 -0.0102985
            vertex -0.0510564 0.0277801 -0.0103095
        endloop
    endfacet
    facet normal -0.625883 0.27876 0.728398
        outer loop
            vertex -0.0430641 0.0187861 -5.96046e-011
            vertex -0.0510564 0.0277801 -0.0103095
            vertex -0.0548117 0.0193198 -0.0102985
        endloop
    endfacet
    facet normal -0.849368 -0.51916 0.0951145
        outer loop
            vertex -0.0512617 -0.0283569 -0.0164997
            vertex -0.046993 -0.0342067 -0.0103101
            vertex -0.0518714 -0.0262254 -0.01031
        endloop
    endfacet
    facet normal -0.515523 -0.421424 0.746082
        outer loop
            vertex -0.0279264 -0.0392778 -5.96046e-011
            vertex -0.0423482 -0.0216358 -5.96046e-011
            vertex -0.046993 -0.0342067 -0.0103101
        endloop
    endfacet
    facet normal 0.0218804 0.0367176 0.999086
        outer loop
            vertex 0.0235004 -0.00617604 0.00474214
            vertex 0.0184166 0.0170471 0.004
            vertex -0.0027994 0.0273986 0.00408421
        endloop
    endfacet
    facet normal -0.785364 -0.617603 -0.0420651
        outer loop
            vertex -0.0512617 -0.0283569 -0.0164997
            vertex -0.0396439 -0.0431305 -0.0164995
            vertex -0.046993 -0.0342067 -0.0103101
        endloop
    endfacet
    facet normal -0.488328 -0.384027 -0.783619
        outer loop
            vertex -0.0512617 -0.0283569 -0.0164997
            vertex -0.028924 -0.0282765 -0.0304593
            vertex -0.0396439 -0.0431305 -0.0164995
        endloop
    endfacet
    facet normal -0.118622 -0.596358 -0.793906
        outer loop
            vertex -0.0150592 -0.0566136 -0.0164993
            vertex -0.0147704 -0.0377471 -0.0307144
            vertex -3.71213e-005 -0.0406777 -0.0307144
        endloop
    endfacet
    facet normal -0.34694 -0.497072 -0.795331
        outer loop
            vertex -0.0396439 -0.0431305 -0.0164995
            vertex -0.028924 -0.0282765 -0.0304593
            vertex -0.0147704 -0.0377471 -0.0307144
        endloop
    endfacet
    facet normal -0.298969 0.953321 -0.0423784
        outer loop
            vertex -0.0262695 0.052362 -0.0164996
            vertex -0.0153447 0.0560633 -0.0103089
            vertex -0.012849 0.0565708 -0.0164991
        endloop
    endfacet
    facet normal -0.811715 0.582521 -0.042291
        outer loop
            vertex -0.0414995 0.041348 -0.016499
            vertex -0.052457 0.0260792 -0.0164995
            vertex -0.0459388 0.0356114 -0.0103095
        endloop
    endfacet
    facet normal 0.624578 0.316286 0.714049
        outer loop
            vertex 0.0447088 0.0166873 -5.96046e-011
            vertex 0.0538016 0.0220002 -0.0103068
            vertex 0.049621 0.0302562 -0.010307
        endloop
    endfacet
    facet normal 0 -0 -1
        outer loop
            vertex 0.0362882 0.0159058 -0.0307144
            vertex 0.0392171 0.00113696 -0.0307144
            vertex 0.0355322 -0.016911 -0.0307144
        endloop
    endfacet
    facet normal 0.546402 0.396452 0.737747
        outer loop
            vertex 0.0317421 0.0357174 -5.96046e-011
            vertex 0.049621 0.0302562 -0.010307
            vertex 0.0440827 0.0378898 -0.0103073
        endloop
    endfacet
    facet normal 0.519147 -0.312558 -0.795484
        outer loop
            vertex 0.0446917 -0.0378752 -0.0164996
            vertex 0.0355322 -0.016911 -0.0307144
            vertex 0.0543855 -0.0217734 -0.0164999
        endloop
    endfacet
    facet normal 0.134969 0.990071 0.0392723
        outer loop
            vertex 0.00107351 0.0585723 -0.0164996
            vertex 0.00319366 0.0580377 -0.0103085
            vertex 0.0124606 0.0567744 -0.0103084
        endloop
    endfacet
    facet normal -0.642044 -0.161298 0.749508
        outer loop
            vertex -0.0478153 0.000125859 -5.96046e-011
            vertex -0.055406 -0.0175672 -0.01031
            vertex -0.0423482 -0.0216358 -5.96046e-011
        endloop
    endfacet
    facet normal 0.375229 -0.562097 0.737054
        outer loop
            vertex 0.0217219 -0.0416379 -5.96046e-011
            vertex 0.0282742 -0.0507827 -0.0103098
            vertex 0.0360568 -0.0455878 -0.0103101
        endloop
    endfacet
    facet normal 0.12022 -0.604395 -0.787562
        outer loop
            vertex 0.00364288 -0.0584687 -0.0164994
            vertex -3.71213e-005 -0.0406777 -0.0307144
            vertex 0.0146962 -0.0377471 -0.0307144
        endloop
    endfacet
    facet normal 0.544494 -0.371004 0.752251
        outer loop
            vertex 0.0445993 -0.0168479 -5.96046e-011
            vertex 0.0339379 -0.0324948 -5.96046e-011
            vertex 0.0486459 -0.0318096 -0.010308
        endloop
    endfacet
    facet normal 0.322395 -0.531048 -0.783613
        outer loop
            vertex 0.021971 -0.0543061 -0.0164995
            vertex 0.0146962 -0.0377471 -0.0307144
            vertex 0.033995 -0.0470073 -0.0164989
        endloop
    endfacet
    facet normal -0.58552 0.809646 -0.0404865
        outer loop
            vertex -0.0414995 0.041348 -0.016499
            vertex -0.0322193 0.0483688 -0.0103087
            vertex -0.0262695 0.052362 -0.0164996
        endloop
    endfacet
    facet normal 0.0059776 0.0363321 0.999322
        outer loop
            vertex 0.0235004 -0.00617604 0.00474214
            vertex -0.0206565 0.0105645 0.00439764
            vertex -0.0161867 -0.0161262 0.00534129
        endloop
    endfacet
    facet normal -0.0254642 0.995184 0.0946544
        outer loop
            vertex 0.00107351 0.0585723 -0.0164996
            vertex -0.00615531 0.0577985 -0.0103087
            vertex 0.00319366 0.0580377 -0.0103085
        endloop
    endfacet
    facet normal -0.836471 0.546617 0.0390663
        outer loop
            vertex -0.052457 0.0260792 -0.0164995
            vertex -0.0510564 0.0277801 -0.0103095
            vertex -0.0459388 0.0356114 -0.0103095
        endloop
    endfacet
    facet normal 0.939299 -0.329649 0.0951294
        outer loop
            vertex 0.0543855 -0.0217734 -0.0164999
            vertex 0.0562155 -0.0147717 -0.0103064
            vertex 0.0531173 -0.0236 -0.0103075
        endloop
    endfacet
    facet normal 0.339416 -0.507968 -0.791685
        outer loop
            vertex 0.033995 -0.0470073 -0.0164989
            vertex 0.0146962 -0.0377471 -0.0307144
            vertex 0.0271865 -0.0294013 -0.0307144
        endloop
    endfacet
    facet normal -0.0625808 -0.630864 -0.773366
        outer loop
            vertex 0.00364288 -0.0584687 -0.0164994
            vertex -0.0150592 -0.0566136 -0.0164993
            vertex -3.71213e-005 -0.0406777 -0.0307144
        endloop
    endfacet
    facet normal 0.0723401 -0.679936 0.729694
        outer loop
            vertex 0.00729735 -0.0464189 -5.96046e-011
            vertex 0.00142365 -0.0581081 -0.0103098
            vertex 0.0107557 -0.0571205 -0.0103147
        endloop
    endfacet
    facet normal -0.368134 -0.928947 0.039181
        outer loop
            vertex -0.0150592 -0.0566136 -0.0164993
            vertex -0.0170205 -0.0555753 -0.0103099
            vertex -0.0257216 -0.0521273 -0.010314
        endloop
    endfacet
    facet normal 0.412687 -0.905864 0.095396
        outer loop
            vertex 0.021971 -0.0543061 -0.0164995
            vertex 0.0282742 -0.0507827 -0.0103098
            vertex 0.0197665 -0.0546586 -0.01031
        endloop
    endfacet
    facet normal -0.0574353 -0.997644 0.0375289
        outer loop
            vertex 0.00364288 -0.0584687 -0.0164994
            vertex 0.00142365 -0.0581081 -0.0103098
            vertex -0.00797622 -0.0575671 -0.0103141
        endloop
    endfacet
    facet normal 0.51845 -0.854087 -0.041779
        outer loop
            vertex 0.021971 -0.0543061 -0.0164995
            vertex 0.033995 -0.0470073 -0.0164989
            vertex 0.0282742 -0.0507827 -0.0103098
        endloop
    endfacet
    facet normal 0.207562 -0.626225 0.751505
        outer loop
            vertex 0.0217219 -0.0416379 -5.96046e-011
            vertex 0.00729735 -0.0464189 -5.96046e-011
            vertex 0.0197665 -0.0546586 -0.01031
        endloop
    endfacet
    facet normal 0.263338 -0.963919 0.0388964
        outer loop
            vertex 0.021971 -0.0543061 -0.0164995
            vertex 0.0197665 -0.0546586 -0.01031
            vertex 0.0107557 -0.0571205 -0.0103147
        endloop
    endfacet
    facet normal 0.10312 -0.137777 0.985081
        outer loop
            vertex 0.0217219 -0.0416379 -5.96046e-011
            vertex 0.0339379 -0.0324948 -5.96046e-011
            vertex 0.00711586 -0.0239706 0.004
        endloop
    endfacet
endsolid D:/Users/Paul Maroldt/Documents/!StartUp_Repositories/module_type_database/0066_D116/D116-quebec-distal_convdec.stl_created_by_BoundingMesh