solid D:/Users/Paul Maroldt/Documents/!StartUp_Repositories/module_type_database/0066_D116/D116-quebec-proximal_convdec.stl_created_by_BoundingMesh
    facet normal 0.987624 0.0804425 0.134642
        outer loop
            vertex 0.054 0.0206287 0.136966
            vertex 0.0571121 0.0346401 0.105767
            vertex 0.054 0.0386284 0.126212
        endloop
    endfacet
    facet normal -0.0892155 -0.980263 0.176422
        outer loop
            vertex -0.0995354 -0.0445634 0.0992411
            vertex -0.0999469 -0.0465482 0.0880048
            vertex 0.0288291 -0.0579985 0.0895041
        endloop
    endfacet
    facet normal 0.0377353 0.87997 0.473527
        outer loop
            vertex 0.0234527 0.0504373 0.11261
            vertex 0.054 0.0484052 0.113952
            vertex 0.054 0.0558366 0.100142
        endloop
    endfacet
    facet normal -0.747192 0.491896 0.446925
        outer loop
            vertex -0.100306 0.0313927 0.117437
            vertex -0.100591 0.0374452 0.110299
            vertex -0.108065 0.0214139 0.115448
        endloop
    endfacet
    facet normal -0.0914005 0.757724 0.646143
        outer loop
            vertex 0.0234527 0.0504373 0.11261
            vertex -0.100591 0.0374452 0.110299
            vertex -0.100306 0.0313927 0.117437
        endloop
    endfacet
    facet normal -0.72951 -0.351021 0.587026
        outer loop
            vertex -0.100299 -0.0257833 0.121983
            vertex -0.108151 -0.0121088 0.120402
            vertex -0.108149 -0.0286591 0.110508
        endloop
    endfacet
    facet normal -0.663927 0.695417 0.274947
        outer loop
            vertex -0.100612 0.0468438 0.0898109
            vertex -0.108093 0.0389802 0.0916354
            vertex -0.0998023 0.0428178 0.101949
        endloop
    endfacet
    facet normal -0.301833 0.238059 -0.92316
        outer loop
            vertex -0.0517731 0.00919833 5.96046e-011
            vertex -0.100257 0.00833593 0.0156297
            vertex -0.0286565 0.0378581 -0.000167493
        endloop
    endfacet
    facet normal -0.0230021 -0.00752831 -0.999707
        outer loop
            vertex -0.0517731 0.00919833 5.96046e-011
            vertex -0.0163494 -0.0442697 -0.000412416
            vertex -0.0391362 -0.0294126 5.96046e-011
        endloop
    endfacet
    facet normal -0.152707 -0.986384 -0.0610526
        outer loop
            vertex -0.0937691 -0.0481949 0.0705011
            vertex -0.100095 -0.0463686 0.0568174
            vertex -0.00498501 -0.0582187 0.0103783
        endloop
    endfacet
    facet normal 0.993729 0.0229593 0.109435
        outer loop
            vertex 0.0571353 -0.0223751 0.117518
            vertex 0.0571121 0.0346401 0.105767
            vertex 0.054 0.0206287 0.136966
        endloop
    endfacet
    facet normal -0.11279 -0.663827 -0.739333
        outer loop
            vertex -0.0163494 -0.0442697 -0.000412416
            vertex -0.00498501 -0.0582187 0.0103783
            vertex -0.0204385 -0.0548894 0.00974654
        endloop
    endfacet
    facet normal 0.999221 -0.0387001 0.00772772
        outer loop
            vertex 0.0586902 -0.00369758 0.01
            vertex 0.0571353 -0.0223751 0.117518
            vertex 0.0567332 -0.0416447 0.0730096
        endloop
    endfacet
    facet normal -0.648967 -0.744792 0.155328
        outer loop
            vertex -0.0995354 -0.0445634 0.0992411
            vertex -0.108106 -0.0389703 0.0902515
            vertex -0.0999469 -0.0465482 0.0880048
        endloop
    endfacet
    facet normal 0.0473069 -0.78096 0.622786
        outer loop
            vertex 0.0264426 -0.0458273 0.119278
            vertex 0.054 -0.0516996 0.109821
            vertex 0.054 -0.0386284 0.126212
        endloop
    endfacet
    facet normal -0.339763 -0.770859 -0.53883
        outer loop
            vertex -0.0204385 -0.0548894 0.00974654
            vertex -0.100391 -0.0437178 0.0441789
            vertex -0.101634 -0.0338399 0.0308312
        endloop
    endfacet
    facet normal -0.0931947 -0.841036 0.532892
        outer loop
            vertex 0.0264426 -0.0458273 0.119278
            vertex -0.0998777 -0.0364064 0.112055
            vertex -0.0995354 -0.0445634 0.0992411
        endloop
    endfacet
    facet normal 0.574205 -0.737735 -0.355015
        outer loop
            vertex 0.0542583 -0.0569951 0.0639863
            vertex 0.0278911 -0.0515382 0.01
            vertex 0.0431141 -0.0396896 0.01
        endloop
    endfacet
    facet normal -0.999958 -0.00913848 -0.000847433
        outer loop
            vertex -0.108349 -0.00607316 0.0222351
            vertex -0.108074 -0.0389335 0.0520949
            vertex -0.108106 -0.0389703 0.0902515
        endloop
    endfacet
    facet normal 0.99988 0.00351285 0.0150703
        outer loop
            vertex 0.0586902 -0.00369758 0.01
            vertex 0.0571121 0.0346401 0.105767
            vertex 0.0571353 -0.0223751 0.117518
        endloop
    endfacet
    facet normal 0.0797732 -0.995809 -0.0447209
        outer loop
            vertex 0.0542583 -0.0569951 0.0639863
            vertex 0.054 -0.0581787 0.089881
            vertex 0.00834365 -0.0582488 0.01
        endloop
    endfacet
    facet normal 0.981299 0.150496 0.120014
        outer loop
            vertex 0.054 0.0386284 0.126212
            vertex 0.0571121 0.0346401 0.105767
            vertex 0.054 0.0484052 0.113952
        endloop
    endfacet
    facet normal 0.987015 -0.160606 0.00250452
        outer loop
            vertex 0.0542583 -0.0569951 0.0639863
            vertex 0.0567332 -0.0416447 0.0730096
            vertex 0.054 -0.0581787 0.089881
        endloop
    endfacet
    facet normal 0.170542 -0.616372 -0.768766
        outer loop
            vertex 0.00834365 -0.0582488 0.01
            vertex 0.00338261 -0.0471451 -3.15119e-006
            vertex 0.0197526 -0.0426158 -3.10554e-006
        endloop
    endfacet
    facet normal 0.621939 -0.406336 -0.66939
        outer loop
            vertex 0.0389886 -0.0293894 -8.55139e-005
            vertex 0.0536653 -0.0235399 0.01
            vertex 0.0431141 -0.0396896 0.01
        endloop
    endfacet
    facet normal 0.985371 -0.133243 0.106256
        outer loop
            vertex 0.0571353 -0.0223751 0.117518
            vertex 0.054 -0.0386284 0.126212
            vertex 0.054 -0.0516996 0.109821
        endloop
    endfacet
    facet normal -0.218618 0.956626 -0.192545
        outer loop
            vertex -0.0202763 0.0551205 0.0099169
            vertex -0.100289 0.0439819 0.0454244
            vertex -0.100054 0.046817 0.0592433
        endloop
    endfacet
    facet normal -0.620885 0.178044 0.763415
        outer loop
            vertex -0.100418 0.0200735 0.125152
            vertex -0.108246 0.00594737 0.12208
            vertex -0.0999352 0.00592671 0.128844
        endloop
    endfacet
    facet normal -0.622134 -0.00949028 -0.782853
        outer loop
            vertex -0.108349 -0.00607316 0.0222351
            vertex -0.100257 0.00833593 0.0156297
            vertex -0.100257 -0.00638032 0.0158081
        endloop
    endfacet
    facet normal -0.631014 0.024316 0.77539
        outer loop
            vertex -0.100304 -0.00686464 0.128945
            vertex -0.0999352 0.00592671 0.128844
            vertex -0.108246 0.00594737 0.12208
        endloop
    endfacet
    facet normal -0.553431 -0.709233 0.436695
        outer loop
            vertex -0.0995354 -0.0445634 0.0992411
            vertex -0.0998777 -0.0364064 0.112055
            vertex -0.105363 -0.0360015 0.105761
        endloop
    endfacet
    facet normal 0.0667701 0.996764 -0.0447635
        outer loop
            vertex 0.0542126 0.0570071 0.0641105
            vertex -0.00245758 0.0583805 0.0101621
            vertex 0.054 0.0579416 0.0846022
        endloop
    endfacet
    facet normal 0.31469 -0.916668 -0.246353
        outer loop
            vertex 0.0542583 -0.0569951 0.0639863
            vertex 0.00834365 -0.0582488 0.01
            vertex 0.0278911 -0.0515382 0.01
        endloop
    endfacet
    facet normal -0.0224633 -0.67468 -0.737768
        outer loop
            vertex 0.00834365 -0.0582488 0.01
            vertex -0.00498501 -0.0582187 0.0103783
            vertex 0.00338261 -0.0471451 -3.15119e-006
        endloop
    endfacet
    facet normal -0.0857159 -0.99554 0.0394008
        outer loop
            vertex 0.0288291 -0.0579985 0.0895041
            vertex -0.0937691 -0.0481949 0.0705011
            vertex -0.00498501 -0.0582187 0.0103783
        endloop
    endfacet
    facet normal 0.608019 -0.201531 -0.767918
        outer loop
            vertex 0.0488456 0.000465002 -0.000115925
            vertex 0.0536653 -0.0235399 0.01
            vertex 0.0389886 -0.0293894 -8.55139e-005
        endloop
    endfacet
    facet normal 0.991588 -0.123101 0.0399993
        outer loop
            vertex 0.054 -0.0581787 0.089881
            vertex 0.0567332 -0.0416447 0.0730096
            vertex 0.054 -0.0516996 0.109821
        endloop
    endfacet
    facet normal -0.0857687 -0.446441 0.890693
        outer loop
            vertex 0.0282506 -0.0184254 0.137727
            vertex -0.0950917 -0.0174854 0.126321
            vertex 0.0263837 -0.0320444 0.130721
        endloop
    endfacet
    facet normal 0.000314586 0.00302935 -0.999995
        outer loop
            vertex -0.00398666 0.0486271 -0.000127109
            vertex -0.0163494 -0.0442697 -0.000412416
            vertex -0.0286565 0.0378581 -0.000167493
        endloop
    endfacet
    facet normal -0.999983 -0.00573713 0.000797772
        outer loop
            vertex -0.108349 -0.00607316 0.0222351
            vertex -0.108106 -0.0389703 0.0902515
            vertex -0.108149 -0.0286591 0.110508
        endloop
    endfacet
    facet normal 0.0120355 0.178602 0.983848
        outer loop
            vertex 0.0278348 7.65331e-005 0.141017
            vertex 0.054 0.00519908 0.139767
            vertex 0.054 0.0206287 0.136966
        endloop
    endfacet
    facet normal -0.327296 -0.479381 -0.814292
        outer loop
            vertex -0.0163494 -0.0442697 -0.000412416
            vertex -0.100261 -0.0213395 0.0198158
            vertex -0.0391362 -0.0294126 5.96046e-011
        endloop
    endfacet
    facet normal -0.0789457 -0.649405 -0.756334
        outer loop
            vertex -0.0163494 -0.0442697 -0.000412416
            vertex 0.00338261 -0.0471451 -3.15119e-006
            vertex -0.00498501 -0.0582187 0.0103783
        endloop
    endfacet
    facet normal -0.345059 0.543901 -0.764923
        outer loop
            vertex -0.0286565 0.0378581 -0.000167493
            vertex -0.100258 0.0220878 0.0209186
            vertex -0.100255 0.0336638 0.0291484
        endloop
    endfacet
    facet normal 0.987217 0.145089 -0.0659633
        outer loop
            vertex 0.0542126 0.0570071 0.0641105
            vertex 0.0573988 0.032164 0.0571523
            vertex 0.0560527 0.0198858 0.01
        endloop
    endfacet
    facet normal -0.84933 0.471145 -0.238036
        outer loop
            vertex -0.10815 0.0286672 0.0335944
            vertex -0.108149 0.0389244 0.0538929
            vertex -0.105364 0.0361486 0.0384617
        endloop
    endfacet
    facet normal -0.671171 0.65064 0.355243
        outer loop
            vertex -0.100591 0.0374452 0.110299
            vertex -0.0998023 0.0428178 0.101949
            vertex -0.108072 0.033389 0.103594
        endloop
    endfacet
    facet normal -0.724506 0.689269 5.58875e-005
        outer loop
            vertex -0.100612 0.0468438 0.0898109
            vertex -0.108149 0.0389244 0.0538929
            vertex -0.108093 0.0389802 0.0916354
        endloop
    endfacet
    facet normal 0.9913 0.131617 -0.000857617
        outer loop
            vertex 0.0571121 0.0346401 0.105767
            vertex 0.0573988 0.032164 0.0571523
            vertex 0.054 0.0579416 0.0846022
        endloop
    endfacet
    facet normal -0.689066 0.37185 -0.622025
        outer loop
            vertex -0.10815 0.0286672 0.0335944
            vertex -0.100258 0.0220878 0.0209186
            vertex -0.108122 0.0122338 0.0237394
        endloop
    endfacet
    facet normal -0.687832 0.657085 0.308426
        outer loop
            vertex -0.0998023 0.0428178 0.101949
            vertex -0.108093 0.0389802 0.0916354
            vertex -0.108072 0.033389 0.103594
        endloop
    endfacet
    facet normal -0.0111276 0.742573 0.669673
        outer loop
            vertex 0.0234527 0.0504373 0.11261
            vertex 0.0269853 0.0350771 0.129701
            vertex 0.054 0.0386284 0.126212
        endloop
    endfacet
    facet normal -0.999916 0.0109823 0.0068909
        outer loop
            vertex -0.108246 0.00594737 0.12208
            vertex -0.108072 0.033389 0.103594
            vertex -0.108093 0.0389802 0.0916354
        endloop
    endfacet
    facet normal -0.999989 0.00475758 0.000136652
        outer loop
            vertex -0.108246 0.00594737 0.12208
            vertex -0.108093 0.0389802 0.0916354
            vertex -0.10815 0.0286672 0.0335944
        endloop
    endfacet
    facet normal -0.999929 -0.00620674 0.0101798
        outer loop
            vertex -0.108246 0.00594737 0.12208
            vertex -0.108149 -0.0286591 0.110508
            vertex -0.108151 -0.0121088 0.120402
        endloop
    endfacet
    facet normal 0.00274009 0.190027 0.981775
        outer loop
            vertex 0.0278348 7.65331e-005 0.141017
            vertex 0.054 0.0206287 0.136966
            vertex 0.0270818 0.0181805 0.137515
        endloop
    endfacet
    facet normal -0.225422 -0.336518 0.914298
        outer loop
            vertex -0.100299 -0.0257833 0.121983
            vertex -0.0950917 -0.0174854 0.126321
            vertex -0.100304 -0.00686464 0.128945
        endloop
    endfacet
    facet normal -0.0831416 -0.967486 0.238867
        outer loop
            vertex -0.0995354 -0.0445634 0.0992411
            vertex 0.0288291 -0.0579985 0.0895041
            vertex 0.026095 -0.0544853 0.102782
        endloop
    endfacet
    facet normal -0.999538 0.0210825 0.0218878
        outer loop
            vertex -0.108246 0.00594737 0.12208
            vertex -0.108065 0.0214139 0.115448
            vertex -0.108072 0.033389 0.103594
        endloop
    endfacet
    facet normal -0.0891132 -0.994086 0.0620691
        outer loop
            vertex 0.0288291 -0.0579985 0.0895041
            vertex -0.0999469 -0.0465482 0.0880048
            vertex -0.0937691 -0.0481949 0.0705011
        endloop
    endfacet
    facet normal 0.41608 0.503942 -0.756915
        outer loop
            vertex 0.0392899 0.0277782 -3.26065e-005
            vertex 0.0217256 0.0423112 -1.19479e-005
            vertex 0.0431141 0.0396896 0.01
        endloop
    endfacet
    facet normal 0.670418 -0.169778 -0.722298
        outer loop
            vertex 0.0488456 0.000465002 -0.000115925
            vertex 0.0586902 -0.00369758 0.01
            vertex 0.0536653 -0.0235399 0.01
        endloop
    endfacet
    facet normal -0.268835 -0.963177 -0.0042701
        outer loop
            vertex -0.0937691 -0.0481949 0.0705011
            vertex -0.0999469 -0.0465482 0.0880048
            vertex -0.100095 -0.0463686 0.0568174
        endloop
    endfacet
    facet normal 0.0124481 -0.0243323 -0.999626
        outer loop
            vertex 0.0389886 -0.0293894 -8.55139e-005
            vertex 0.0197526 -0.0426158 -3.10554e-006
            vertex -0.0163494 -0.0442697 -0.000412416
        endloop
    endfacet
    facet normal -0.333644 0.338373 -0.879878
        outer loop
            vertex -0.100257 0.00833593 0.0156297
            vertex -0.100258 0.0220878 0.0209186
            vertex -0.0286565 0.0378581 -0.000167493
        endloop
    endfacet
    facet normal 0.0418025 0.722008 -0.690621
        outer loop
            vertex -0.00398666 0.0486271 -0.000127109
            vertex -0.00245758 0.0583805 0.0101621
            vertex 0.0109136 0.0573368 0.00988031
        endloop
    endfacet
    facet normal 0.217568 -0.633759 -0.742303
        outer loop
            vertex 0.00834365 -0.0582488 0.01
            vertex 0.0197526 -0.0426158 -3.10554e-006
            vertex 0.0278911 -0.0515382 0.01
        endloop
    endfacet
    facet normal -0.999994 -0.00327991 0.00142651
        outer loop
            vertex -0.108246 0.00594737 0.12208
            vertex -0.108349 -0.00607316 0.0222351
            vertex -0.108149 -0.0286591 0.110508
        endloop
    endfacet
    facet normal 0.980874 -0.0998345 0.167091
        outer loop
            vertex 0.0571353 -0.0223751 0.117518
            vertex 0.054 -0.0251653 0.134256
            vertex 0.054 -0.0386284 0.126212
        endloop
    endfacet
    facet normal 0.42208 -0.542285 -0.726481
        outer loop
            vertex 0.0389886 -0.0293894 -8.55139e-005
            vertex 0.0431141 -0.0396896 0.01
            vertex 0.0278911 -0.0515382 0.01
        endloop
    endfacet
    facet normal 0.15545 0.618803 -0.770012
        outer loop
            vertex -0.00398666 0.0486271 -0.000127109
            vertex 0.0109136 0.0573368 0.00988031
            vertex 0.0217256 0.0423112 -1.19479e-005
        endloop
    endfacet
    facet normal -0.11917 0.992869 -0.00304587
        outer loop
            vertex -0.100612 0.0468438 0.0898109
            vertex -0.00245758 0.0583805 0.0101621
            vertex -0.100054 0.046817 0.0592433
        endloop
    endfacet
    facet normal -0.335021 0.591217 -0.733637
        outer loop
            vertex -0.0202763 0.0551205 0.0099169
            vertex -0.0286565 0.0378581 -0.000167493
            vertex -0.100255 0.0336638 0.0291484
        endloop
    endfacet
    facet normal -0.0866084 0.995538 0.0374672
        outer loop
            vertex -0.100612 0.0468438 0.0898109
            vertex 0.0281711 0.0579496 0.0924121
            vertex -0.00245758 0.0583805 0.0101621
        endloop
    endfacet
    facet normal 0.992025 0.125956 0.00454804
        outer loop
            vertex 0.0542126 0.0570071 0.0641105
            vertex 0.054 0.0579416 0.0846022
            vertex 0.0573988 0.032164 0.0571523
        endloop
    endfacet
    facet normal -0.0878237 0.943719 0.318874
        outer loop
            vertex -0.100612 0.0468438 0.0898109
            vertex -0.0998023 0.0428178 0.101949
            vertex 0.0281711 0.0579496 0.0924121
        endloop
    endfacet
    facet normal 0.016988 -0.950916 0.308981
        outer loop
            vertex 0.026095 -0.0544853 0.102782
            vertex 0.054 -0.0581787 0.089881
            vertex 0.054 -0.0516996 0.109821
        endloop
    endfacet
    facet normal -0.640444 0.754406 -0.143884
        outer loop
            vertex -0.100289 0.0439819 0.0454244
            vertex -0.108149 0.0389244 0.0538929
            vertex -0.100054 0.046817 0.0592433
        endloop
    endfacet
    facet normal -0.713563 0.492658 0.498112
        outer loop
            vertex -0.100591 0.0374452 0.110299
            vertex -0.108072 0.033389 0.103594
            vertex -0.108065 0.0214139 0.115448
        endloop
    endfacet
    facet normal -0.646386 0.570408 -0.506774
        outer loop
            vertex -0.10815 0.0286672 0.0335944
            vertex -0.105364 0.0361486 0.0384617
            vertex -0.100255 0.0336638 0.0291484
        endloop
    endfacet
    facet normal -0.0843366 -0.636713 0.766475
        outer loop
            vertex 0.0264426 -0.0458273 0.119278
            vertex 0.0263837 -0.0320444 0.130721
            vertex -0.100299 -0.0257833 0.121983
        endloop
    endfacet
    facet normal 0.0178758 -0.512826 0.858307
        outer loop
            vertex 0.0263837 -0.0320444 0.130721
            vertex 0.054 -0.0386284 0.126212
            vertex 0.054 -0.0251653 0.134256
        endloop
    endfacet
    facet normal -0.68615 0.414333 0.597935
        outer loop
            vertex -0.100418 0.0200735 0.125152
            vertex -0.100306 0.0313927 0.117437
            vertex -0.108065 0.0214139 0.115448
        endloop
    endfacet
    facet normal 0.993234 0.0207419 0.114259
        outer loop
            vertex 0.0571353 -0.0223751 0.117518
            vertex 0.054 0.0206287 0.136966
            vertex 0.054 0.00519908 0.139767
        endloop
    endfacet
    facet normal -0.083096 -0.420241 0.9036
        outer loop
            vertex -0.100299 -0.0257833 0.121983
            vertex 0.0263837 -0.0320444 0.130721
            vertex -0.0950917 -0.0174854 0.126321
        endloop
    endfacet
    facet normal 0.990172 -0.131254 -0.0482935
        outer loop
            vertex 0.0542583 -0.0569951 0.0639863
            vertex 0.0586902 -0.00369758 0.01
            vertex 0.0567332 -0.0416447 0.0730096
        endloop
    endfacet
    facet normal -0.681326 -0.731979 -0.00127732
        outer loop
            vertex -0.108074 -0.0389335 0.0520949
            vertex -0.100095 -0.0463686 0.0568174
            vertex -0.108106 -0.0389703 0.0902515
        endloop
    endfacet
    facet normal 0.992252 -0.117036 0.0417055
        outer loop
            vertex 0.0571353 -0.0223751 0.117518
            vertex 0.054 -0.0516996 0.109821
            vertex 0.0567332 -0.0416447 0.0730096
        endloop
    endfacet
    facet normal -0.0238234 -0.175542 0.984184
        outer loop
            vertex 0.0278348 7.65331e-005 0.141017
            vertex 0.0282506 -0.0184254 0.137727
            vertex 0.054 -0.0104826 0.139767
        endloop
    endfacet
    facet normal 0.571307 0.202302 -0.795413
        outer loop
            vertex 0.0560527 0.0198858 0.01
            vertex 0.0488456 0.000465002 -0.000115925
            vertex 0.0392899 0.0277782 -3.26065e-005
        endloop
    endfacet
    facet normal 0.992176 0.110962 -0.0572185
        outer loop
            vertex 0.0560527 0.0198858 0.01
            vertex 0.0573988 0.032164 0.0571523
            vertex 0.0586902 -0.00369758 0.01
        endloop
    endfacet
    facet normal -0.613579 -0.204191 -0.762776
        outer loop
            vertex -0.100261 -0.0213395 0.0198158
            vertex -0.108349 -0.00607316 0.0222351
            vertex -0.100257 -0.00638032 0.0158081
        endloop
    endfacet
    facet normal -0.717381 -0.278891 -0.638423
        outer loop
            vertex -0.100261 -0.0213395 0.0198158
            vertex -0.108066 -0.0212287 0.0285377
            vertex -0.108349 -0.00607316 0.0222351
        endloop
    endfacet
    facet normal 0.224955 0.643536 -0.731612
        outer loop
            vertex 0.0109136 0.0573368 0.00988031
            vertex 0.0278911 0.0515382 0.01
            vertex 0.0217256 0.0423112 -1.19479e-005
        endloop
    endfacet
    facet normal -0.250189 0.576056 -0.778181
        outer loop
            vertex -0.00398666 0.0486271 -0.000127109
            vertex -0.0286565 0.0378581 -0.000167493
            vertex -0.0202763 0.0551205 0.0099169
        endloop
    endfacet
    facet normal -0.69352 0.720315 -0.0132914
        outer loop
            vertex -0.100612 0.0468438 0.0898109
            vertex -0.100054 0.046817 0.0592433
            vertex -0.108149 0.0389244 0.0538929
        endloop
    endfacet
    facet normal -0.998926 -0.0324215 -0.033108
        outer loop
            vertex -0.108349 -0.00607316 0.0222351
            vertex -0.108066 -0.0212287 0.0285377
            vertex -0.108067 -0.0338263 0.0409042
        endloop
    endfacet
    facet normal 0.00506751 0.00239679 -0.999984
        outer loop
            vertex -0.00398666 0.0486271 -0.000127109
            vertex 0.0217256 0.0423112 -1.19479e-005
            vertex -0.0163494 -0.0442697 -0.000412416
        endloop
    endfacet
    facet normal 0.0408607 0.990122 0.134121
        outer loop
            vertex 0.0281711 0.0579496 0.0924121
            vertex 0.054 0.0558366 0.100142
            vertex 0.054 0.0579416 0.0846022
        endloop
    endfacet
    facet normal -0.0862956 0.732056 0.675757
        outer loop
            vertex 0.0234527 0.0504373 0.11261
            vertex -0.100306 0.0313927 0.117437
            vertex 0.0269853 0.0350771 0.129701
        endloop
    endfacet
    facet normal 0.00170208 0.999988 0.00460502
        outer loop
            vertex 0.0281711 0.0579496 0.0924121
            vertex 0.054 0.0579416 0.0846022
            vertex -0.00245758 0.0583805 0.0101621
        endloop
    endfacet
    facet normal -0.620243 -0.271044 0.736094
        outer loop
            vertex -0.100299 -0.0257833 0.121983
            vertex -0.100304 -0.00686464 0.128945
            vertex -0.108151 -0.0121088 0.120402
        endloop
    endfacet
    facet normal -0.493272 0.734218 -0.466484
        outer loop
            vertex -0.100289 0.0439819 0.0454244
            vertex -0.100255 0.0336638 0.0291484
            vertex -0.105364 0.0361486 0.0384617
        endloop
    endfacet
    facet normal 0.0765476 0.995544 -0.0550654
        outer loop
            vertex 0.0542126 0.0570071 0.0641105
            vertex 0.0109136 0.0573368 0.00988031
            vertex -0.00245758 0.0583805 0.0101621
        endloop
    endfacet
    facet normal -0.999522 0.0146322 -0.0272393
        outer loop
            vertex -0.108349 -0.00607316 0.0222351
            vertex -0.10815 0.0286672 0.0335944
            vertex -0.108122 0.0122338 0.0237394
        endloop
    endfacet
    facet normal -0.0107234 -0.967221 0.253709
        outer loop
            vertex 0.026095 -0.0544853 0.102782
            vertex 0.0288291 -0.0579985 0.0895041
            vertex 0.054 -0.0581787 0.089881
        endloop
    endfacet
    facet normal -0.0266847 -0.638615 0.769063
        outer loop
            vertex 0.0264426 -0.0458273 0.119278
            vertex 0.054 -0.0386284 0.126212
            vertex 0.0263837 -0.0320444 0.130721
        endloop
    endfacet
    facet normal -0.0898239 0.248627 0.964425
        outer loop
            vertex -0.100418 0.0200735 0.125152
            vertex -0.0999352 0.00592671 0.128844
            vertex 0.0270818 0.0181805 0.137515
        endloop
    endfacet
    facet normal -0.0980052 0.841099 0.531928
        outer loop
            vertex 0.0234527 0.0504373 0.11261
            vertex -0.0998023 0.0428178 0.101949
            vertex -0.100591 0.0374452 0.110299
        endloop
    endfacet
    facet normal 0.988395 0.150529 0.0203904
        outer loop
            vertex 0.054 0.0558366 0.100142
            vertex 0.0571121 0.0346401 0.105767
            vertex 0.054 0.0579416 0.0846022
        endloop
    endfacet
    facet normal -0.0289692 -0.884828 0.465016
        outer loop
            vertex 0.0264426 -0.0458273 0.119278
            vertex 0.026095 -0.0544853 0.102782
            vertex 0.054 -0.0516996 0.109821
        endloop
    endfacet
    facet normal -0.0954524 0.561279 0.822104
        outer loop
            vertex 0.0269853 0.0350771 0.129701
            vertex -0.100306 0.0313927 0.117437
            vertex -0.100418 0.0200735 0.125152
        endloop
    endfacet
    facet normal -0.0847555 0.185836 0.978919
        outer loop
            vertex 0.0278348 7.65331e-005 0.141017
            vertex 0.0270818 0.0181805 0.137515
            vertex -0.0999352 0.00592671 0.128844
        endloop
    endfacet
    facet normal 0.790622 -0.516543 -0.328785
        outer loop
            vertex 0.0542583 -0.0569951 0.0639863
            vertex 0.0431141 -0.0396896 0.01
            vertex 0.0536653 -0.0235399 0.01
        endloop
    endfacet
    facet normal 0.990216 0 0.13954
        outer loop
            vertex 0.0571353 -0.0223751 0.117518
            vertex 0.054 0.00519908 0.139767
            vertex 0.054 -0.0104826 0.139767
        endloop
    endfacet
    facet normal 0.98273 -0.0650245 0.173242
        outer loop
            vertex 0.0571353 -0.0223751 0.117518
            vertex 0.054 -0.0104826 0.139767
            vertex 0.054 -0.0251653 0.134256
        endloop
    endfacet
    facet normal -0.00724678 -0.999956 0.00587965
        outer loop
            vertex 0.0288291 -0.0579985 0.0895041
            vertex -0.00498501 -0.0582187 0.0103783
            vertex 0.054 -0.0581787 0.089881
        endloop
    endfacet
    facet normal -0.33723 -0.579722 -0.741754
        outer loop
            vertex -0.0163494 -0.0442697 -0.000412416
            vertex -0.0204385 -0.0548894 0.00974654
            vertex -0.100261 -0.0213395 0.0198158
        endloop
    endfacet
    facet normal 0.024612 0.781602 0.623292
        outer loop
            vertex 0.0234527 0.0504373 0.11261
            vertex 0.054 0.0386284 0.126212
            vertex 0.054 0.0484052 0.113952
        endloop
    endfacet
    facet normal 0.790961 0.516766 -0.327618
        outer loop
            vertex 0.0542126 0.0570071 0.0641105
            vertex 0.0560527 0.0198858 0.01
            vertex 0.0431141 0.0396896 0.01
        endloop
    endfacet
    facet normal 0.00194367 0.00377057 -0.999991
        outer loop
            vertex -0.0163494 -0.0442697 -0.000412416
            vertex 0.0217256 0.0423112 -1.19479e-005
            vertex 0.0392899 0.0277782 -3.26065e-005
        endloop
    endfacet
    facet normal 0.00678335 -0.00325827 -0.999972
        outer loop
            vertex 0.0488456 0.000465002 -0.000115925
            vertex 0.0389886 -0.0293894 -8.55139e-005
            vertex -0.0163494 -0.0442697 -0.000412416
        endloop
    endfacet
    facet normal 0.730856 0.081737 -0.67762
        outer loop
            vertex 0.0560527 0.0198858 0.01
            vertex 0.0586902 -0.00369758 0.01
            vertex 0.0488456 0.000465002 -0.000115925
        endloop
    endfacet
    facet normal -0.306614 -0.0115379 -0.951764
        outer loop
            vertex -0.0517731 0.00919833 5.96046e-011
            vertex -0.100257 -0.00638032 0.0158081
            vertex -0.100257 0.00833593 0.0156297
        endloop
    endfacet
    facet normal -0.334853 0.795511 -0.50501
        outer loop
            vertex -0.0202763 0.0551205 0.0099169
            vertex -0.100255 0.0336638 0.0291484
            vertex -0.100289 0.0439819 0.0454244
        endloop
    endfacet
    facet normal 0.981604 0.16813 0.0904736
        outer loop
            vertex 0.054 0.0558366 0.100142
            vertex 0.054 0.0484052 0.113952
            vertex 0.0571121 0.0346401 0.105767
        endloop
    endfacet
    facet normal 0.0477189 0 0.998861
        outer loop
            vertex 0.0278348 7.65331e-005 0.141017
            vertex 0.054 -0.0104826 0.139767
            vertex 0.054 0.00519908 0.139767
        endloop
    endfacet
    facet normal -0.699923 0.0671073 -0.711058
        outer loop
            vertex -0.108349 -0.00607316 0.0222351
            vertex -0.108122 0.0122338 0.0237394
            vertex -0.100257 0.00833593 0.0156297
        endloop
    endfacet
    facet normal 0.043407 0.512405 0.857646
        outer loop
            vertex 0.0269853 0.0350771 0.129701
            vertex 0.054 0.0206287 0.136966
            vertex 0.054 0.0386284 0.126212
        endloop
    endfacet
    facet normal -0.713414 -0.0685623 0.69738
        outer loop
            vertex -0.100304 -0.00686464 0.128945
            vertex -0.108246 0.00594737 0.12208
            vertex -0.108151 -0.0121088 0.120402
        endloop
    endfacet
    facet normal 0.574437 0.738032 -0.354021
        outer loop
            vertex 0.0542126 0.0570071 0.0641105
            vertex 0.0431141 0.0396896 0.01
            vertex 0.0278911 0.0515382 0.01
        endloop
    endfacet
    facet normal -0.698313 0.671868 -0.246887
        outer loop
            vertex -0.100289 0.0439819 0.0454244
            vertex -0.105364 0.0361486 0.0384617
            vertex -0.108149 0.0389244 0.0538929
        endloop
    endfacet
    facet normal -0.619274 -0.549087 0.561252
        outer loop
            vertex -0.100299 -0.0257833 0.121983
            vertex -0.108149 -0.0286591 0.110508
            vertex -0.0998777 -0.0364064 0.112055
        endloop
    endfacet
    facet normal 0.000126794 -0.457462 0.889229
        outer loop
            vertex 0.0282506 -0.0184254 0.137727
            vertex 0.0263837 -0.0320444 0.130721
            vertex 0.054 -0.0251653 0.134256
        endloop
    endfacet
    facet normal -0.845569 -0.476497 0.240757
        outer loop
            vertex -0.108149 -0.0286591 0.110508
            vertex -0.108106 -0.0389703 0.0902515
            vertex -0.105363 -0.0360015 0.105761
        endloop
    endfacet
    facet normal -0.0866179 0.94019 0.329454
        outer loop
            vertex 0.0234527 0.0504373 0.11261
            vertex 0.0281711 0.0579496 0.0924121
            vertex -0.0998023 0.0428178 0.101949
        endloop
    endfacet
    facet normal -0.736686 0.273764 0.618342
        outer loop
            vertex -0.100418 0.0200735 0.125152
            vertex -0.108065 0.0214139 0.115448
            vertex -0.108246 0.00594737 0.12208
        endloop
    endfacet
    facet normal -0.0828574 -0.176276 0.980847
        outer loop
            vertex 0.0278348 7.65331e-005 0.141017
            vertex -0.100304 -0.00686464 0.128945
            vertex 0.0282506 -0.0184254 0.137727
        endloop
    endfacet
    facet normal -0.0196517 0.419574 0.907509
        outer loop
            vertex 0.0269853 0.0350771 0.129701
            vertex 0.0270818 0.0181805 0.137515
            vertex 0.054 0.0206287 0.136966
        endloop
    endfacet
    facet normal -0.999984 0.00561186 0.000356004
        outer loop
            vertex -0.108246 0.00594737 0.12208
            vertex -0.10815 0.0286672 0.0335944
            vertex -0.108349 -0.00607316 0.0222351
        endloop
    endfacet
    facet normal -0.094358 0.0105808 0.995482
        outer loop
            vertex 0.0278348 7.65331e-005 0.141017
            vertex -0.0999352 0.00592671 0.128844
            vertex -0.100304 -0.00686464 0.128945
        endloop
    endfacet
    facet normal -0.617248 0.282382 -0.734347
        outer loop
            vertex -0.100257 0.00833593 0.0156297
            vertex -0.108122 0.0122338 0.0237394
            vertex -0.100258 0.0220878 0.0209186
        endloop
    endfacet
    facet normal 0.314849 0.916759 -0.245811
        outer loop
            vertex 0.0542126 0.0570071 0.0641105
            vertex 0.0278911 0.0515382 0.01
            vertex 0.0109136 0.0573368 0.00988031
        endloop
    endfacet
    facet normal -0.668729 -0.448862 -0.592726
        outer loop
            vertex -0.100261 -0.0213395 0.0198158
            vertex -0.101634 -0.0338399 0.0308312
            vertex -0.108066 -0.0212287 0.0285377
        endloop
    endfacet
    facet normal -0.648158 -0.639736 -0.413074
        outer loop
            vertex -0.100391 -0.0437178 0.0441789
            vertex -0.108067 -0.0338263 0.0409042
            vertex -0.101634 -0.0338399 0.0308312
        endloop
    endfacet
    facet normal 0.361329 -0.530283 -0.766969
        outer loop
            vertex 0.0389886 -0.0293894 -8.55139e-005
            vertex 0.0278911 -0.0515382 0.01
            vertex 0.0197526 -0.0426158 -3.10554e-006
        endloop
    endfacet
    facet normal 0.999532 0.0302706 0.00435282
        outer loop
            vertex 0.0586902 -0.00369758 0.01
            vertex 0.0573988 0.032164 0.0571523
            vertex 0.0571121 0.0346401 0.105767
        endloop
    endfacet
    facet normal 0.601364 0.392895 -0.695698
        outer loop
            vertex 0.0560527 0.0198858 0.01
            vertex 0.0392899 0.0277782 -3.26065e-005
            vertex 0.0431141 0.0396896 0.01
        endloop
    endfacet
    facet normal 0.412034 0.529378 -0.741611
        outer loop
            vertex 0.0217256 0.0423112 -1.19479e-005
            vertex 0.0278911 0.0515382 0.01
            vertex 0.0431141 0.0396896 0.01
        endloop
    endfacet
    facet normal -0.00219775 -0.999995 0.00213367
        outer loop
            vertex 0.00834365 -0.0582488 0.01
            vertex 0.054 -0.0581787 0.089881
            vertex -0.00498501 -0.0582187 0.0103783
        endloop
    endfacet
    facet normal -0.636711 0.446909 -0.628388
        outer loop
            vertex -0.10815 0.0286672 0.0335944
            vertex -0.100255 0.0336638 0.0291484
            vertex -0.100258 0.0220878 0.0209186
        endloop
    endfacet
    facet normal -0.177002 0.976636 -0.121868
        outer loop
            vertex -0.0202763 0.0551205 0.0099169
            vertex -0.100054 0.046817 0.0592433
            vertex -0.00245758 0.0583805 0.0101621
        endloop
    endfacet
    facet normal -0.999995 -0.00284715 0.0014879
        outer loop
            vertex -0.10815 0.0286672 0.0335944
            vertex -0.108093 0.0389802 0.0916354
            vertex -0.108149 0.0389244 0.0538929
        endloop
    endfacet
    facet normal -0.00922799 0.00159925 -0.999956
        outer loop
            vertex -0.0517731 0.00919833 5.96046e-011
            vertex -0.0286565 0.0378581 -0.000167493
            vertex -0.0163494 -0.0442697 -0.000412416
        endloop
    endfacet
    facet normal -0.0923438 -0.681835 0.725654
        outer loop
            vertex 0.0264426 -0.0458273 0.119278
            vertex -0.100299 -0.0257833 0.121983
            vertex -0.0998777 -0.0364064 0.112055
        endloop
    endfacet
    facet normal -0.0258904 0.938917 0.343168
        outer loop
            vertex 0.0234527 0.0504373 0.11261
            vertex 0.054 0.0558366 0.100142
            vertex 0.0281711 0.0579496 0.0924121
        endloop
    endfacet
    facet normal -0.0827259 -0.881697 0.464506
        outer loop
            vertex 0.0264426 -0.0458273 0.119278
            vertex -0.0995354 -0.0445634 0.0992411
            vertex 0.026095 -0.0544853 0.102782
        endloop
    endfacet
    facet normal -0.0905041 -0.280503 0.955577
        outer loop
            vertex -0.100304 -0.00686464 0.128945
            vertex -0.0950917 -0.0174854 0.126321
            vertex 0.0282506 -0.0184254 0.137727
        endloop
    endfacet
    facet normal -0.0815278 0.417966 0.904797
        outer loop
            vertex 0.0269853 0.0350771 0.129701
            vertex -0.100418 0.0200735 0.125152
            vertex 0.0270818 0.0181805 0.137515
        endloop
    endfacet
    facet normal -0.328092 -0.244376 -0.912489
        outer loop
            vertex -0.100261 -0.0213395 0.0198158
            vertex -0.100257 -0.00638032 0.0158081
            vertex -0.0391362 -0.0294126 5.96046e-011
        endloop
    endfacet
    facet normal 0.0135692 -0.0490323 -0.998705
        outer loop
            vertex -0.0163494 -0.0442697 -0.000412416
            vertex 0.0197526 -0.0426158 -3.10554e-006
            vertex 0.00338261 -0.0471451 -3.15119e-006
        endloop
    endfacet
    facet normal -0.745631 -0.466775 -0.475558
        outer loop
            vertex -0.101634 -0.0338399 0.0308312
            vertex -0.108067 -0.0338263 0.0409042
            vertex -0.108066 -0.0212287 0.0285377
        endloop
    endfacet
    facet normal -0.343181 -0.599486 -0.723079
        outer loop
            vertex -0.100261 -0.0213395 0.0198158
            vertex -0.0204385 -0.0548894 0.00974654
            vertex -0.101634 -0.0338399 0.0308312
        endloop
    endfacet
    facet normal 0.956805 -0.242303 -0.160664
        outer loop
            vertex 0.0542583 -0.0569951 0.0639863
            vertex 0.0536653 -0.0235399 0.01
            vertex 0.0586902 -0.00369758 0.01
        endloop
    endfacet
    facet normal 0.00197941 0.00374297 -0.999991
        outer loop
            vertex 0.0488456 0.000465002 -0.000115925
            vertex -0.0163494 -0.0442697 -0.000412416
            vertex 0.0392899 0.0277782 -3.26065e-005
        endloop
    endfacet
    facet normal -0.680673 -0.732586 -0.000986554
        outer loop
            vertex -0.108106 -0.0389703 0.0902515
            vertex -0.100095 -0.0463686 0.0568174
            vertex -0.0999469 -0.0465482 0.0880048
        endloop
    endfacet
    facet normal -0.634889 -0.574726 0.51634
        outer loop
            vertex -0.0998777 -0.0364064 0.112055
            vertex -0.108149 -0.0286591 0.110508
            vertex -0.105363 -0.0360015 0.105761
        endloop
    endfacet
    facet normal -0.705213 -0.644833 -0.29473
        outer loop
            vertex -0.100391 -0.0437178 0.0441789
            vertex -0.108074 -0.0389335 0.0520949
            vertex -0.108067 -0.0338263 0.0409042
        endloop
    endfacet
    facet normal -0.700097 -0.668205 0.251726
        outer loop
            vertex -0.0995354 -0.0445634 0.0992411
            vertex -0.105363 -0.0360015 0.105761
            vertex -0.108106 -0.0389703 0.0902515
        endloop
    endfacet
    facet normal -0.124166 0.729282 -0.672852
        outer loop
            vertex -0.00398666 0.0486271 -0.000127109
            vertex -0.0202763 0.0551205 0.0099169
            vertex -0.00245758 0.0583805 0.0101621
        endloop
    endfacet
    facet normal -0.201215 -0.965422 -0.165747
        outer loop
            vertex -0.0204385 -0.0548894 0.00974654
            vertex -0.00498501 -0.0582187 0.0103783
            vertex -0.100095 -0.0463686 0.0568174
        endloop
    endfacet
    facet normal -0.217787 -0.956224 -0.195458
        outer loop
            vertex -0.0204385 -0.0548894 0.00974654
            vertex -0.100095 -0.0463686 0.0568174
            vertex -0.100391 -0.0437178 0.0441789
        endloop
    endfacet
    facet normal -0.999855 -0.0152678 -0.00759367
        outer loop
            vertex -0.108349 -0.00607316 0.0222351
            vertex -0.108067 -0.0338263 0.0409042
            vertex -0.108074 -0.0389335 0.0520949
        endloop
    endfacet
    facet normal 0.0342029 -0.351197 0.935677
        outer loop
            vertex 0.0282506 -0.0184254 0.137727
            vertex 0.054 -0.0251653 0.134256
            vertex 0.054 -0.0104826 0.139767
        endloop
    endfacet
    facet normal -0.626864 -0.765357 -0.145844
        outer loop
            vertex -0.100391 -0.0437178 0.0441789
            vertex -0.100095 -0.0463686 0.0568174
            vertex -0.108074 -0.0389335 0.0520949
        endloop
    endfacet
    facet normal -0.28176 -0.0922166 -0.955043
        outer loop
            vertex -0.0517731 0.00919833 5.96046e-011
            vertex -0.0391362 -0.0294126 5.96046e-011
            vertex -0.100257 -0.00638032 0.0158081
        endloop
    endfacet
endsolid D:/Users/Paul Maroldt/Documents/!StartUp_Repositories/module_type_database/0066_D116/D116-quebec-proximal_convdec.stl_created_by_BoundingMesh