solid D:/Users/Paul Maroldt/Documents/!StartUp_Repositories/gen2_robot_data/ModuleLibrary/L86-350/L86-350_convdec.stl_created_by_BoundingMesh
    facet normal 0.586686 -0.455686 -0.66944
        outer loop
            vertex 0.350111 -0.0145806 0.0192316
            vertex 0.34 -0.0305635 0.02125
            vertex 0.339913 -0.0147514 0.0104105
        endloop
    endfacet
    facet normal 0.90119 -0.181365 0.393654
        outer loop
            vertex 0.350175 0.00255237 0.0912623
            vertex 0.35005 -0.0267487 0.0780488
            vertex 0.355794 -0.0224745 0.0668683
        endloop
    endfacet
    facet normal -0.756219 -0.00175184 -0.654316
        outer loop
            vertex -0.0428342 -0.0117572 0.01
            vertex -0.0440274 0.00360386 0.0113379
            vertex -0.0341606 -0.010902 -2.67073e-005
        endloop
    endfacet
    facet normal 0.999848 0.0124011 -0.0122285
        outer loop
            vertex 0.355343 -0.0192937 0.0332187
            vertex 0.355647 -0.00196096 0.0756509
            vertex 0.355794 -0.0224745 0.0668683
        endloop
    endfacet
    facet normal 0.708075 0.375183 0.598221
        outer loop
            vertex 0.350175 0.00255237 0.0912623
            vertex 0.353875 0.0221345 0.0746016
            vertex 0.34 0.0327619 0.0843594
        endloop
    endfacet
    facet normal 0.684685 0.72492 -0.0754868
        outer loop
            vertex 0.350178 0.032633 0.0354569
            vertex 0.34 0.0451132 0.0629905
            vertex 0.3507 0.0346776 0.0598263
        endloop
    endfacet
    facet normal 0.889609 0.00113283 -0.456721
        outer loop
            vertex 0.350111 -0.0145806 0.0192316
            vertex 0.350016 0.0116904 0.0191117
            vertex 0.355003 0.00367624 0.0288056
        endloop
    endfacet
    facet normal 0.746508 -0.276173 0.605355
        outer loop
            vertex 0.350175 0.00255237 0.0912623
            vertex 0.340194 -0.0182667 0.0940726
            vertex 0.35005 -0.0267487 0.0780488
        endloop
    endfacet
    facet normal -0.00505417 0.932609 0.360854
        outer loop
            vertex 0.0130849 0.0407015 0.0698135
            vertex 0.028764 0.0384541 0.0758414
            vertex 0.34 0.0451132 0.0629905
        endloop
    endfacet
    facet normal -0.720689 -0.20535 0.662146
        outer loop
            vertex -0.0116025 -0.00209274 0.0807189
            vertex -0.0275858 -0.00607125 0.0620886
            vertex -0.0179922 -0.0170964 0.0691112
        endloop
    endfacet
    facet normal 0.00113638 -0.626894 0.779103
        outer loop
            vertex 0.340194 -0.0182667 0.0940726
            vertex 0.0358491 -0.0235629 0.090255
            vertex 0.34 -0.0329931 0.0822235
        endloop
    endfacet
    facet normal 0.0021385 0.865778 0.500423
        outer loop
            vertex 0.34 0.0327619 0.0843594
            vertex 0.34 0.0451132 0.0629905
            vertex 0.028764 0.0384541 0.0758414
        endloop
    endfacet
    facet normal 0.0356901 -0.0604673 -0.997532
        outer loop
            vertex 0.340125 0.0120953 0.00879072
            vertex 0.339913 -0.0147514 0.0104105
            vertex -0.00247078 -0.0341429 -0.000663988
        endloop
    endfacet
    facet normal 0.999108 0.00678297 -0.041673
        outer loop
            vertex 0.355705 0.0277109 0.0495479
            vertex 0.355343 -0.0192937 0.0332187
            vertex 0.355003 0.00367624 0.0288056
        endloop
    endfacet
    facet normal 0.932114 -0.359174 -0.0464446
        outer loop
            vertex 0.355343 -0.0192937 0.0332187
            vertex 0.355794 -0.0224745 0.0668683
            vertex 0.349998 -0.0358519 0.0539985
        endloop
    endfacet
    facet normal 0.711033 -0.51083 -0.483202
        outer loop
            vertex 0.350111 -0.0145806 0.0192316
            vertex 0.350004 -0.030202 0.0355887
            vertex 0.34 -0.0305635 0.02125
        endloop
    endfacet
    facet normal 0.663185 0.420665 -0.619053
        outer loop
            vertex 0.340125 0.0120953 0.00879072
            vertex 0.34 0.0304228 0.0211109
            vertex 0.350016 0.0116904 0.0191117
        endloop
    endfacet
    facet normal 0.929476 0.222465 -0.29425
        outer loop
            vertex 0.350178 0.032633 0.0354569
            vertex 0.355003 0.00367624 0.0288056
            vertex 0.350016 0.0116904 0.0191117
        endloop
    endfacet
    facet normal 0.931656 0.221413 -0.288087
        outer loop
            vertex 0.355705 0.0277109 0.0495479
            vertex 0.355003 0.00367624 0.0288056
            vertex 0.350178 0.032633 0.0354569
        endloop
    endfacet
    facet normal 0.0365666 -0.0670542 -0.997079
        outer loop
            vertex 0.340125 0.0120953 0.00879072
            vertex -0.00247078 -0.0341429 -0.000663988
            vertex 0.00269522 -0.00945751 -0.00213464
        endloop
    endfacet
    facet normal -0.521433 -0.741745 0.421808
        outer loop
            vertex -0.00478596 -0.0447924 0.0493753
            vertex -0.00791611 -0.0325949 0.066955
            vertex -0.0171736 -0.037274 0.0472829
        endloop
    endfacet
    facet normal 0.775765 -0.603324 -0.184905
        outer loop
            vertex 0.340164 -0.0440941 0.0396336
            vertex 0.350004 -0.030202 0.0355887
            vertex 0.349998 -0.0358519 0.0539985
        endloop
    endfacet
    facet normal -0.0474328 -0.0495092 -0.997647
        outer loop
            vertex 0.00269522 -0.00945751 -0.00213464
            vertex -0.00247078 -0.0341429 -0.000663988
            vertex -0.0204123 -0.0292363 -5.4459e-005
        endloop
    endfacet
    facet normal -0.791956 0.21233 -0.57247
        outer loop
            vertex -0.0440274 0.00360386 0.0113379
            vertex -0.0384483 0.0209533 0.0100547
            vertex -0.0333922 0.0114434 -0.000467167
        endloop
    endfacet
    facet normal 0.0491342 -0.804192 -0.592335
        outer loop
            vertex 0.340164 -0.0440941 0.0396336
            vertex -0.00643612 -0.0431572 0.00961112
            vertex 0.34 -0.0305635 0.02125
        endloop
    endfacet
    facet normal -0.121507 -0.579551 0.805827
        outer loop
            vertex 0.0135243 -0.0300813 0.0822007
            vertex 0.0276813 -0.0338802 0.0816032
            vertex 0.0358491 -0.0235629 0.090255
        endloop
    endfacet
    facet normal -0.180316 -0.768522 0.613889
        outer loop
            vertex 0.0142105 -0.0414972 0.0681108
            vertex 0.0276813 -0.0338802 0.0816032
            vertex 0.0135243 -0.0300813 0.0822007
        endloop
    endfacet
    facet normal -0.608885 -0.483363 0.628983
        outer loop
            vertex -0.00791611 -0.0325949 0.066955
            vertex -0.00592647 -0.0191377 0.0792227
            vertex -0.0179922 -0.0170964 0.0691112
        endloop
    endfacet
    facet normal -0.504678 -0.628935 -0.59139
        outer loop
            vertex -0.0345172 -0.0288532 0.0115749
            vertex -0.0204123 -0.0292363 -5.4459e-005
            vertex -0.0214912 -0.0378248 0.01
        endloop
    endfacet
    facet normal 0.000303874 -0.642692 0.766125
        outer loop
            vertex 0.0276813 -0.0338802 0.0816032
            vertex 0.34 -0.0329931 0.0822235
            vertex 0.0358491 -0.0235629 0.090255
        endloop
    endfacet
    facet normal -0.0297192 0.0283995 -0.999155
        outer loop
            vertex 0.00269522 -0.00945751 -0.00213464
            vertex -0.0333922 0.0114434 -0.000467167
            vertex -0.0197346 0.0295665 -0.000358281
        endloop
    endfacet
    facet normal 0.897277 0.412476 0.157347
        outer loop
            vertex 0.353875 0.0221345 0.0746016
            vertex 0.355705 0.0277109 0.0495479
            vertex 0.3507 0.0346776 0.0598263
        endloop
    endfacet
    facet normal -0.0081593 0.112169 0.993656
        outer loop
            vertex 0.34006 0.00839549 0.09832
            vertex 0.0382563 0.0154201 0.0950488
            vertex 0.0325938 -0.00240864 0.0970149
        endloop
    endfacet
    facet normal 0.654488 0.749709 -0.0978854
        outer loop
            vertex 0.350178 0.032633 0.0354569
            vertex 0.34 0.0416116 0.0361716
            vertex 0.34 0.0451132 0.0629905
        endloop
    endfacet
    facet normal -0.657731 0.588423 0.470264
        outer loop
            vertex -0.0147246 0.0236486 0.0696785
            vertex -0.0181967 0.0366729 0.0485255
            vertex -0.0267961 0.0229426 0.0536782
        endloop
    endfacet
    facet normal 0.000654914 0.516438 0.856324
        outer loop
            vertex 0.34 0.0327619 0.0843594
            vertex 0.0253893 0.0255832 0.0889294
            vertex 0.0382563 0.0154201 0.0950488
        endloop
    endfacet
    facet normal -0.718033 -0.687303 0.109741
        outer loop
            vertex -0.0345172 -0.0288532 0.0115749
            vertex -0.0243096 -0.0365355 0.0302492
            vertex -0.0302261 -0.0288737 0.0395232
        endloop
    endfacet
    facet normal -0.992114 0.0249851 0.122824
        outer loop
            vertex -0.043228 -0.0126209 0.0210955
            vertex -0.0414534 0.008852 0.0310618
            vertex -0.0440274 0.00360386 0.0113379
        endloop
    endfacet
    facet normal 0.598439 -0.680952 0.422108
        outer loop
            vertex 0.35005 -0.0267487 0.0780488
            vertex 0.34 -0.0329931 0.0822235
            vertex 0.34 -0.0428842 0.066267
        endloop
    endfacet
    facet normal 0.757796 0.648655 -0.0706542
        outer loop
            vertex 0.355705 0.0277109 0.0495479
            vertex 0.350178 0.032633 0.0354569
            vertex 0.3507 0.0346776 0.0598263
        endloop
    endfacet
    facet normal 0.0493988 -0.760177 -0.647836
        outer loop
            vertex -0.00643612 -0.0431572 0.00961112
            vertex -0.00247078 -0.0341429 -0.000663988
            vertex 0.34 -0.0305635 0.02125
        endloop
    endfacet
    facet normal 0.876815 -0.459747 -0.140809
        outer loop
            vertex 0.355343 -0.0192937 0.0332187
            vertex 0.349998 -0.0358519 0.0539985
            vertex 0.350004 -0.030202 0.0355887
        endloop
    endfacet
    facet normal -0.536472 0.676466 0.504571
        outer loop
            vertex 0.00388172 0.0358018 0.0731677
            vertex -0.0181967 0.0366729 0.0485255
            vertex -0.0147246 0.0236486 0.0696785
        endloop
    endfacet
    facet normal -0.977217 -0.017416 0.211527
        outer loop
            vertex -0.043228 -0.0126209 0.0210955
            vertex -0.0383027 -0.00211846 0.0447142
            vertex -0.0414534 0.008852 0.0310618
        endloop
    endfacet
    facet normal -0.225216 0.0363443 0.973631
        outer loop
            vertex 0.0226646 0.0115383 0.0941975
            vertex 0.0142013 -0.00496102 0.0928557
            vertex 0.0325938 -0.00240864 0.0970149
        endloop
    endfacet
    facet normal -0.856769 -0.484212 0.17744
        outer loop
            vertex -0.043228 -0.0126209 0.0210955
            vertex -0.0302261 -0.0288737 0.0395232
            vertex -0.037427 -0.0151151 0.0422992
        endloop
    endfacet
    facet normal -0.198271 -0.149703 0.968647
        outer loop
            vertex 0.0279518 -0.0151382 0.0940974
            vertex 0.0325938 -0.00240864 0.0970149
            vertex 0.0142013 -0.00496102 0.0928557
        endloop
    endfacet
    facet normal -0.142637 0.371745 0.917311
        outer loop
            vertex 0.0226646 0.0115383 0.0941975
            vertex 0.0382563 0.0154201 0.0950488
            vertex 0.0253893 0.0255832 0.0889294
        endloop
    endfacet
    facet normal -0.570139 0.806435 0.156856
        outer loop
            vertex -0.0181967 0.0366729 0.0485255
            vertex -0.0133211 0.0423473 0.0370738
            vertex -0.0301302 0.0319408 0.0294786
        endloop
    endfacet
    facet normal -0.252995 -0.441209 0.861004
        outer loop
            vertex 0.0135243 -0.0300813 0.0822007
            vertex 0.0279518 -0.0151382 0.0940974
            vertex 0.0056472 -0.018016 0.0860688
        endloop
    endfacet
    facet normal -0.532589 -0.825381 0.187335
        outer loop
            vertex -0.00478596 -0.0447924 0.0493753
            vertex -0.0171736 -0.037274 0.0472829
            vertex -0.0243096 -0.0365355 0.0302492
        endloop
    endfacet
    facet normal 0.581496 -0.514638 0.630087
        outer loop
            vertex 0.35005 -0.0267487 0.0780488
            vertex 0.340194 -0.0182667 0.0940726
            vertex 0.34 -0.0329931 0.0822235
        endloop
    endfacet
    facet normal 0.928698 -0.0566631 -0.366482
        outer loop
            vertex 0.355343 -0.0192937 0.0332187
            vertex 0.350111 -0.0145806 0.0192316
            vertex 0.355003 0.00367624 0.0288056
        endloop
    endfacet
    facet normal -0.0554882 -0.0400987 -0.997654
        outer loop
            vertex 0.00269522 -0.00945751 -0.00213464
            vertex -0.0204123 -0.0292363 -5.4459e-005
            vertex -0.0341606 -0.010902 -2.67073e-005
        endloop
    endfacet
    facet normal 0.0297037 0.0412173 -0.998709
        outer loop
            vertex 0.340125 0.0120953 0.00879072
            vertex 0.00269522 -0.00945751 -0.00213464
            vertex -0.00188098 0.034234 -0.000467573
        endloop
    endfacet
    facet normal 0.701291 0.435228 -0.564595
        outer loop
            vertex 0.350178 0.032633 0.0354569
            vertex 0.350016 0.0116904 0.0191117
            vertex 0.34 0.0304228 0.0211109
        endloop
    endfacet
    facet normal 0.0141492 0.991485 -0.129453
        outer loop
            vertex -0.0108419 0.0430912 0.00915681
            vertex 0.34 0.0451132 0.0629905
            vertex 0.34 0.0416116 0.0361716
        endloop
    endfacet
    facet normal 0.554461 0.668033 -0.496291
        outer loop
            vertex 0.350178 0.032633 0.0354569
            vertex 0.34 0.0304228 0.0211109
            vertex 0.34 0.0416116 0.0361716
        endloop
    endfacet
    facet normal -0.00611335 0.71377 0.700354
        outer loop
            vertex 0.34 0.0327619 0.0843594
            vertex 0.028764 0.0384541 0.0758414
            vertex 0.0253893 0.0255832 0.0889294
        endloop
    endfacet
    facet normal 0.514623 -0.132366 0.847138
        outer loop
            vertex 0.350175 0.00255237 0.0912623
            vertex 0.34006 0.00839549 0.09832
            vertex 0.340194 -0.0182667 0.0940726
        endloop
    endfacet
    facet normal -0.787797 -0.488109 0.375667
        outer loop
            vertex -0.037427 -0.0151151 0.0422992
            vertex -0.0302261 -0.0288737 0.0395232
            vertex -0.027406 -0.0206156 0.056167
        endloop
    endfacet
    facet normal -0.315637 0.358399 0.878592
        outer loop
            vertex 0.00147846 0.00857187 0.0877964
            vertex 0.0226646 0.0115383 0.0941975
            vertex 0.00196753 0.0208494 0.0829638
        endloop
    endfacet
    facet normal -0.392744 -0.91964 0.00389055
        outer loop
            vertex -0.00478596 -0.0447924 0.0493753
            vertex -0.0243096 -0.0365355 0.0302492
            vertex -0.0214912 -0.0378248 0.01
        endloop
    endfacet
    facet normal -0.618797 -0.752151 0.226625
        outer loop
            vertex -0.0302261 -0.0288737 0.0395232
            vertex -0.0243096 -0.0365355 0.0302492
            vertex -0.0171736 -0.037274 0.0472829
        endloop
    endfacet
    facet normal 0.607064 -0.793656 0.0397923
        outer loop
            vertex 0.340164 -0.0440941 0.0396336
            vertex 0.349998 -0.0358519 0.0539985
            vertex 0.34 -0.0428842 0.066267
        endloop
    endfacet
    facet normal -0.292219 -0.283378 0.913403
        outer loop
            vertex 0.0056472 -0.018016 0.0860688
            vertex 0.0279518 -0.0151382 0.0940974
            vertex 0.0142013 -0.00496102 0.0928557
        endloop
    endfacet
    facet normal -0.300149 0.385503 0.872524
        outer loop
            vertex 0.0226646 0.0115383 0.0941975
            vertex 0.0253893 0.0255832 0.0889294
            vertex 0.00196753 0.0208494 0.0829638
        endloop
    endfacet
    facet normal -0.853128 -0.205738 0.479421
        outer loop
            vertex -0.027406 -0.0206156 0.056167
            vertex -0.0275858 -0.00607125 0.0620886
            vertex -0.0383027 -0.00211846 0.0447142
        endloop
    endfacet
    facet normal 0.653847 -0.0507108 -0.754925
        outer loop
            vertex 0.340125 0.0120953 0.00879072
            vertex 0.350111 -0.0145806 0.0192316
            vertex 0.339913 -0.0147514 0.0104105
        endloop
    endfacet
    facet normal -0.728512 0.61393 0.303909
        outer loop
            vertex -0.0181967 0.0366729 0.0485255
            vertex -0.0301302 0.0319408 0.0294786
            vertex -0.0343459 0.0217377 0.0399844
        endloop
    endfacet
    facet normal -0.961818 -0.11127 0.25005
        outer loop
            vertex -0.043228 -0.0126209 0.0210955
            vertex -0.037427 -0.0151151 0.0422992
            vertex -0.0383027 -0.00211846 0.0447142
        endloop
    endfacet
    facet normal -0.634904 -0.629137 0.448423
        outer loop
            vertex -0.00791611 -0.0325949 0.066955
            vertex -0.027406 -0.0206156 0.056167
            vertex -0.0171736 -0.037274 0.0472829
        endloop
    endfacet
    facet normal -0.494136 0.869138 -0.0207226
        outer loop
            vertex -0.0133211 0.0423473 0.0370738
            vertex -0.0108419 0.0430912 0.00915681
            vertex -0.0277717 0.0334861 0.01
        endloop
    endfacet
    facet normal -0.939153 0.127307 0.319036
        outer loop
            vertex -0.0345063 0.008383 0.0516993
            vertex -0.0414534 0.008852 0.0310618
            vertex -0.0383027 -0.00211846 0.0447142
        endloop
    endfacet
    facet normal -0.328889 -0.741527 0.584782
        outer loop
            vertex 0.0142105 -0.0414972 0.0681108
            vertex 0.0135243 -0.0300813 0.0822007
            vertex -0.00791611 -0.0325949 0.066955
        endloop
    endfacet
    facet normal 0.999971 -0.00607396 -0.00468268
        outer loop
            vertex 0.355705 0.0277109 0.0495479
            vertex 0.355647 -0.00196096 0.0756509
            vertex 0.355343 -0.0192937 0.0332187
        endloop
    endfacet
    facet normal 0.918734 -0.149834 0.365346
        outer loop
            vertex 0.350175 0.00255237 0.0912623
            vertex 0.355794 -0.0224745 0.0668683
            vertex 0.355647 -0.00196096 0.0756509
        endloop
    endfacet
    facet normal 0.663117 -0.599999 -0.447524
        outer loop
            vertex 0.340164 -0.0440941 0.0396336
            vertex 0.34 -0.0305635 0.02125
            vertex 0.350004 -0.030202 0.0355887
        endloop
    endfacet
    facet normal -0.585225 0.495748 -0.641674
        outer loop
            vertex -0.0197346 0.0295665 -0.000358281
            vertex -0.0384483 0.0209533 0.0100547
            vertex -0.0277717 0.0334861 0.01
        endloop
    endfacet
    facet normal -0.474864 0.524014 0.707045
        outer loop
            vertex 0.00388172 0.0358018 0.0731677
            vertex -0.0147246 0.0236486 0.0696785
            vertex 0.00196753 0.0208494 0.0829638
        endloop
    endfacet
    facet normal -0.385165 0.88159 0.272849
        outer loop
            vertex -0.0181967 0.0366729 0.0485255
            vertex 0.00365745 0.0438931 0.0560469
            vertex -0.0133211 0.0423473 0.0370738
        endloop
    endfacet
    facet normal -0.144147 0.728911 0.669261
        outer loop
            vertex 0.0130849 0.0407015 0.0698135
            vertex 0.00388172 0.0358018 0.0731677
            vertex 0.0253893 0.0255832 0.0889294
        endloop
    endfacet
    facet normal 0.947699 0.0831134 0.308153
        outer loop
            vertex 0.350175 0.00255237 0.0912623
            vertex 0.355647 -0.00196096 0.0756509
            vertex 0.353875 0.0221345 0.0746016
        endloop
    endfacet
    facet normal -0.434904 -0.174312 0.883445
        outer loop
            vertex -0.0116025 -0.00209274 0.0807189
            vertex 0.0056472 -0.018016 0.0860688
            vertex 0.0142013 -0.00496102 0.0928557
        endloop
    endfacet
    facet normal 0.763065 -0.469895 -0.443768
        outer loop
            vertex 0.355343 -0.0192937 0.0332187
            vertex 0.350004 -0.030202 0.0355887
            vertex 0.350111 -0.0145806 0.0192316
        endloop
    endfacet
    facet normal -0.569224 -0.821742 -0.0269063
        outer loop
            vertex -0.0345172 -0.0288532 0.0115749
            vertex -0.0214912 -0.0378248 0.01
            vertex -0.0243096 -0.0365355 0.0302492
        endloop
    endfacet
    facet normal -0.680328 -0.388237 -0.621631
        outer loop
            vertex -0.0345172 -0.0288532 0.0115749
            vertex -0.0428342 -0.0117572 0.01
            vertex -0.0341606 -0.010902 -2.67073e-005
        endloop
    endfacet
    facet normal -0.580113 -0.433965 -0.689306
        outer loop
            vertex -0.0345172 -0.0288532 0.0115749
            vertex -0.0341606 -0.010902 -2.67073e-005
            vertex -0.0204123 -0.0292363 -5.4459e-005
        endloop
    endfacet
    facet normal -0.212763 -0.692338 -0.689493
        outer loop
            vertex -0.0204123 -0.0292363 -5.4459e-005
            vertex -0.00247078 -0.0341429 -0.000663988
            vertex -0.00643612 -0.0431572 0.00961112
        endloop
    endfacet
    facet normal 0.0585936 -0.564228 -0.823537
        outer loop
            vertex 0.339913 -0.0147514 0.0104105
            vertex 0.34 -0.0305635 0.02125
            vertex -0.00247078 -0.0341429 -0.000663988
        endloop
    endfacet
    facet normal -0.149918 -0.523164 0.838942
        outer loop
            vertex 0.0135243 -0.0300813 0.0822007
            vertex 0.0358491 -0.0235629 0.090255
            vertex 0.0279518 -0.0151382 0.0940974
        endloop
    endfacet
    facet normal -0.584805 0.194716 0.787457
        outer loop
            vertex -0.0116025 -0.00209274 0.0807189
            vertex 0.00147846 0.00857187 0.0877964
            vertex -0.0198101 0.00981328 0.0716795
        endloop
    endfacet
    facet normal -0.644263 -0.277114 0.712835
        outer loop
            vertex -0.0116025 -0.00209274 0.0807189
            vertex -0.0179922 -0.0170964 0.0691112
            vertex -0.00592647 -0.0191377 0.0792227
        endloop
    endfacet
    facet normal -0.996424 -0.0738185 -0.0411112
        outer loop
            vertex -0.043228 -0.0126209 0.0210955
            vertex -0.0440274 0.00360386 0.0113379
            vertex -0.0428342 -0.0117572 0.01
        endloop
    endfacet
    facet normal -0.828933 -0.155682 0.537245
        outer loop
            vertex -0.037427 -0.0151151 0.0422992
            vertex -0.027406 -0.0206156 0.056167
            vertex -0.0383027 -0.00211846 0.0447142
        endloop
    endfacet
    facet normal 0.00330442 -0.998963 0.0454012
        outer loop
            vertex -0.00478596 -0.0447924 0.0493753
            vertex 0.340164 -0.0440941 0.0396336
            vertex 0.34 -0.0428842 0.066267
        endloop
    endfacet
    facet normal -0.746337 -0.25887 0.613161
        outer loop
            vertex -0.027406 -0.0206156 0.056167
            vertex -0.0179922 -0.0170964 0.0691112
            vertex -0.0275858 -0.00607125 0.0620886
        endloop
    endfacet
    facet normal -0.840416 -0.526451 0.128649
        outer loop
            vertex -0.0345172 -0.0288532 0.0115749
            vertex -0.0302261 -0.0288737 0.0395232
            vertex -0.043228 -0.0126209 0.0210955
        endloop
    endfacet
    facet normal -0.0031925 -0.984321 0.176359
        outer loop
            vertex 0.0142105 -0.0414972 0.0681108
            vertex -0.00478596 -0.0447924 0.0493753
            vertex 0.34 -0.0428842 0.066267
        endloop
    endfacet
    facet normal -0.10924 0.993874 0.0167824
        outer loop
            vertex -0.0133211 0.0423473 0.0370738
            vertex 0.00365745 0.0438931 0.0560469
            vertex -0.0108419 0.0430912 0.00915681
        endloop
    endfacet
    facet normal -0.00329509 0.999865 -0.0160805
        outer loop
            vertex -0.0108419 0.0430912 0.00915681
            vertex 0.00365745 0.0438931 0.0560469
            vertex 0.34 0.0451132 0.0629905
        endloop
    endfacet
    facet normal -0.753251 0.356791 0.552551
        outer loop
            vertex -0.0147246 0.0236486 0.0696785
            vertex -0.0267961 0.0229426 0.0536782
            vertex -0.0198101 0.00981328 0.0716795
        endloop
    endfacet
    facet normal -0.747045 0.0125877 -0.664654
        outer loop
            vertex -0.0440274 0.00360386 0.0113379
            vertex -0.0333922 0.0114434 -0.000467167
            vertex -0.0341606 -0.010902 -2.67073e-005
        endloop
    endfacet
    facet normal -0.308776 0.548578 0.776993
        outer loop
            vertex 0.00388172 0.0358018 0.0731677
            vertex 0.00196753 0.0208494 0.0829638
            vertex 0.0253893 0.0255832 0.0889294
        endloop
    endfacet
    facet normal -0.760327 0.647492 -0.0515512
        outer loop
            vertex -0.040117 0.0197151 0.0191143
            vertex -0.0277717 0.0334861 0.01
            vertex -0.0384483 0.0209533 0.0100547
        endloop
    endfacet
    facet normal -0.582938 0.443394 -0.68087
        outer loop
            vertex -0.0197346 0.0295665 -0.000358281
            vertex -0.0333922 0.0114434 -0.000467167
            vertex -0.0384483 0.0209533 0.0100547
        endloop
    endfacet
    facet normal -0.00215344 -0.222652 0.974896
        outer loop
            vertex 0.0279518 -0.0151382 0.0940974
            vertex 0.340194 -0.0182667 0.0940726
            vertex 0.0325938 -0.00240864 0.0970149
        endloop
    endfacet
    facet normal -0.0156552 0.0364856 -0.999212
        outer loop
            vertex 0.00269522 -0.00945751 -0.00213464
            vertex -0.0197346 0.0295665 -0.000358281
            vertex -0.00188098 0.034234 -0.000467573
        endloop
    endfacet
    facet normal 0.00133604 -0.157314 0.987548
        outer loop
            vertex 0.34006 0.00839549 0.09832
            vertex 0.0325938 -0.00240864 0.0970149
            vertex 0.340194 -0.0182667 0.0940726
        endloop
    endfacet
    facet normal 0.736944 -0.632709 0.237891
        outer loop
            vertex 0.35005 -0.0267487 0.0780488
            vertex 0.34 -0.0428842 0.066267
            vertex 0.349998 -0.0358519 0.0539985
        endloop
    endfacet
    facet normal -0.334337 -0.942126 -0.0248679
        outer loop
            vertex -0.00478596 -0.0447924 0.0493753
            vertex -0.0214912 -0.0378248 0.01
            vertex -0.00643612 -0.0431572 0.00961112
        endloop
    endfacet
    facet normal -0.00830274 0.972863 0.231231
        outer loop
            vertex 0.0130849 0.0407015 0.0698135
            vertex 0.34 0.0451132 0.0629905
            vertex 0.00365745 0.0438931 0.0560469
        endloop
    endfacet
    facet normal 0.000861273 -0.999154 -0.0411233
        outer loop
            vertex -0.00478596 -0.0447924 0.0493753
            vertex -0.00643612 -0.0431572 0.00961112
            vertex 0.340164 -0.0440941 0.0396336
        endloop
    endfacet
    facet normal -0.633409 -0.494595 0.595121
        outer loop
            vertex -0.00791611 -0.0325949 0.066955
            vertex -0.0179922 -0.0170964 0.0691112
            vertex -0.027406 -0.0206156 0.056167
        endloop
    endfacet
    facet normal 0.00136775 -0.849948 0.526865
        outer loop
            vertex 0.0276813 -0.0338802 0.0816032
            vertex 0.34 -0.0428842 0.066267
            vertex 0.34 -0.0329931 0.0822235
        endloop
    endfacet
    facet normal -0.824035 0.379162 0.420953
        outer loop
            vertex -0.0345063 0.008383 0.0516993
            vertex -0.0267961 0.0229426 0.0536782
            vertex -0.0343459 0.0217377 0.0399844
        endloop
    endfacet
    facet normal -0.407821 0.823439 0.3945
        outer loop
            vertex 0.00388172 0.0358018 0.0731677
            vertex 0.00365745 0.0438931 0.0560469
            vertex -0.0181967 0.0366729 0.0485255
        endloop
    endfacet
    facet normal -0.756117 -0.024729 0.653969
        outer loop
            vertex -0.0116025 -0.00209274 0.0807189
            vertex -0.0198101 0.00981328 0.0716795
            vertex -0.0275858 -0.00607125 0.0620886
        endloop
    endfacet
    facet normal -0.894857 -0.441428 -0.066122
        outer loop
            vertex -0.0345172 -0.0288532 0.0115749
            vertex -0.043228 -0.0126209 0.0210955
            vertex -0.0428342 -0.0117572 0.01
        endloop
    endfacet
    facet normal -0.346924 -0.798378 0.492175
        outer loop
            vertex 0.0142105 -0.0414972 0.0681108
            vertex -0.00791611 -0.0325949 0.066955
            vertex -0.00478596 -0.0447924 0.0493753
        endloop
    endfacet
    facet normal -0.270691 -0.717437 -0.64188
        outer loop
            vertex -0.0204123 -0.0292363 -5.4459e-005
            vertex -0.00643612 -0.0431572 0.00961112
            vertex -0.0214912 -0.0378248 0.01
        endloop
    endfacet
    facet normal -0.946242 0.29437 -0.134057
        outer loop
            vertex -0.040117 0.0197151 0.0191143
            vertex -0.0384483 0.0209533 0.0100547
            vertex -0.0440274 0.00360386 0.0113379
        endloop
    endfacet
    facet normal -0.830761 0.527187 0.178634
        outer loop
            vertex -0.0301302 0.0319408 0.0294786
            vertex -0.040117 0.0197151 0.0191143
            vertex -0.0343459 0.0217377 0.0399844
        endloop
    endfacet
    facet normal 0.704395 0.614538 0.355205
        outer loop
            vertex 0.34 0.0327619 0.0843594
            vertex 0.3507 0.0346776 0.0598263
            vertex 0.34 0.0451132 0.0629905
        endloop
    endfacet
    facet normal -0.429267 -0.57298 0.698158
        outer loop
            vertex -0.00791611 -0.0325949 0.066955
            vertex 0.0135243 -0.0300813 0.0822007
            vertex -0.00592647 -0.0191377 0.0792227
        endloop
    endfacet
    facet normal -0.00411755 -0.418154 0.908367
        outer loop
            vertex 0.0279518 -0.0151382 0.0940974
            vertex 0.0358491 -0.0235629 0.090255
            vertex 0.340194 -0.0182667 0.0940726
        endloop
    endfacet
    facet normal -0.430856 -0.0686718 0.899804
        outer loop
            vertex -0.0116025 -0.00209274 0.0807189
            vertex 0.0142013 -0.00496102 0.0928557
            vertex 0.00147846 0.00857187 0.0877964
        endloop
    endfacet
    facet normal -0.0879152 0.136732 0.986699
        outer loop
            vertex 0.0226646 0.0115383 0.0941975
            vertex 0.0325938 -0.00240864 0.0970149
            vertex 0.0382563 0.0154201 0.0950488
        endloop
    endfacet
    facet normal 0.00216643 0.497133 0.867672
        outer loop
            vertex 0.34006 0.00839549 0.09832
            vertex 0.34 0.0327619 0.0843594
            vertex 0.0382563 0.0154201 0.0950488
        endloop
    endfacet
    facet normal 0.992998 0.0769295 0.0896537
        outer loop
            vertex 0.353875 0.0221345 0.0746016
            vertex 0.355647 -0.00196096 0.0756509
            vertex 0.355705 0.0277109 0.0495479
        endloop
    endfacet
    facet normal -0.555403 0.323639 0.766019
        outer loop
            vertex -0.0147246 0.0236486 0.0696785
            vertex 0.00147846 0.00857187 0.0877964
            vertex 0.00196753 0.0208494 0.0829638
        endloop
    endfacet
    facet normal -0.756993 0.652203 -0.0399164
        outer loop
            vertex -0.0301302 0.0319408 0.0294786
            vertex -0.0277717 0.0334861 0.01
            vertex -0.040117 0.0197151 0.0191143
        endloop
    endfacet
    facet normal -0.478174 -0.233551 0.846643
        outer loop
            vertex -0.0116025 -0.00209274 0.0807189
            vertex -0.00592647 -0.0191377 0.0792227
            vertex 0.0056472 -0.018016 0.0860688
        endloop
    endfacet
    facet normal 0.666028 0.372057 0.646514
        outer loop
            vertex 0.350175 0.00255237 0.0912623
            vertex 0.34 0.0327619 0.0843594
            vertex 0.34006 0.00839549 0.09832
        endloop
    endfacet
    facet normal 0.713302 0.602439 0.358145
        outer loop
            vertex 0.353875 0.0221345 0.0746016
            vertex 0.3507 0.0346776 0.0598263
            vertex 0.34 0.0327619 0.0843594
        endloop
    endfacet
    facet normal 0.721975 -0.000546861 -0.691919
        outer loop
            vertex 0.340125 0.0120953 0.00879072
            vertex 0.350016 0.0116904 0.0191117
            vertex 0.350111 -0.0145806 0.0192316
        endloop
    endfacet
    facet normal 0.0492446 0.801748 -0.59563
        outer loop
            vertex -0.0108419 0.0430912 0.00915681
            vertex 0.34 0.0416116 0.0361716
            vertex 0.34 0.0304228 0.0211109
        endloop
    endfacet
    facet normal -0.72907 0.588052 0.350216
        outer loop
            vertex -0.0181967 0.0366729 0.0485255
            vertex -0.0343459 0.0217377 0.0399844
            vertex -0.0267961 0.0229426 0.0536782
        endloop
    endfacet
    facet normal -0.154637 0.724061 0.672178
        outer loop
            vertex 0.0130849 0.0407015 0.0698135
            vertex 0.0253893 0.0255832 0.0889294
            vertex 0.028764 0.0384541 0.0758414
        endloop
    endfacet
    facet normal -0.560711 0.316749 0.765032
        outer loop
            vertex -0.0147246 0.0236486 0.0696785
            vertex -0.0198101 0.00981328 0.0716795
            vertex 0.00147846 0.00857187 0.0877964
        endloop
    endfacet
    facet normal -0.171884 0.639935 -0.748959
        outer loop
            vertex -0.0108419 0.0430912 0.00915681
            vertex -0.00188098 0.034234 -0.000467573
            vertex -0.0197346 0.0295665 -0.000358281
        endloop
    endfacet
    facet normal -0.298071 0.0755107 0.951552
        outer loop
            vertex 0.00147846 0.00857187 0.0877964
            vertex 0.0142013 -0.00496102 0.0928557
            vertex 0.0226646 0.0115383 0.0941975
        endloop
    endfacet
    facet normal -0.770488 0.334245 0.542797
        outer loop
            vertex -0.0198101 0.00981328 0.0716795
            vertex -0.0267961 0.0229426 0.0536782
            vertex -0.0345063 0.008383 0.0516993
        endloop
    endfacet
    facet normal -0.806273 0.0382622 0.590305
        outer loop
            vertex -0.0198101 0.00981328 0.0716795
            vertex -0.0345063 0.008383 0.0516993
            vertex -0.0275858 -0.00607125 0.0620886
        endloop
    endfacet
    facet normal -0.91053 0.351471 0.217722
        outer loop
            vertex -0.040117 0.0197151 0.0191143
            vertex -0.0414534 0.008852 0.0310618
            vertex -0.0343459 0.0217377 0.0399844
        endloop
    endfacet
    facet normal -0.654579 -0.627184 0.422099
        outer loop
            vertex -0.027406 -0.0206156 0.056167
            vertex -0.0302261 -0.0288737 0.0395232
            vertex -0.0171736 -0.037274 0.0472829
        endloop
    endfacet
    facet normal 0.058492 0.557208 -0.82831
        outer loop
            vertex 0.340125 0.0120953 0.00879072
            vertex -0.00188098 0.034234 -0.000467573
            vertex 0.34 0.0304228 0.0211109
        endloop
    endfacet
    facet normal 0.049532 0.757477 -0.65098
        outer loop
            vertex -0.0108419 0.0430912 0.00915681
            vertex 0.34 0.0304228 0.0211109
            vertex -0.00188098 0.034234 -0.000467573
        endloop
    endfacet
    facet normal -0.401945 -0.506894 0.762561
        outer loop
            vertex -0.00592647 -0.0191377 0.0792227
            vertex 0.0135243 -0.0300813 0.0822007
            vertex 0.0056472 -0.018016 0.0860688
        endloop
    endfacet
    facet normal -0.421085 0.690577 -0.58804
        outer loop
            vertex -0.0108419 0.0430912 0.00915681
            vertex -0.0197346 0.0295665 -0.000358281
            vertex -0.0277717 0.0334861 0.01
        endloop
    endfacet
    facet normal -0.000919489 -0.870422 0.492306
        outer loop
            vertex 0.0142105 -0.0414972 0.0681108
            vertex 0.34 -0.0428842 0.066267
            vertex 0.0276813 -0.0338802 0.0816032
        endloop
    endfacet
    facet normal 0.809875 -0.549196 0.206123
        outer loop
            vertex 0.35005 -0.0267487 0.0780488
            vertex 0.349998 -0.0358519 0.0539985
            vertex 0.355794 -0.0224745 0.0668683
        endloop
    endfacet
    facet normal -0.906666 0.284288 0.311667
        outer loop
            vertex -0.0345063 0.008383 0.0516993
            vertex -0.0343459 0.0217377 0.0399844
            vertex -0.0414534 0.008852 0.0310618
        endloop
    endfacet
    facet normal -0.976718 0.201405 0.0738733
        outer loop
            vertex -0.040117 0.0197151 0.0191143
            vertex -0.0440274 0.00360386 0.0113379
            vertex -0.0414534 0.008852 0.0310618
        endloop
    endfacet
    facet normal -0.854212 -0.0361842 0.518664
        outer loop
            vertex -0.0345063 0.008383 0.0516993
            vertex -0.0383027 -0.00211846 0.0447142
            vertex -0.0275858 -0.00607125 0.0620886
        endloop
    endfacet
    facet normal -0.307777 0.858666 0.409837
        outer loop
            vertex 0.0130849 0.0407015 0.0698135
            vertex 0.00365745 0.0438931 0.0560469
            vertex 0.00388172 0.0358018 0.0731677
        endloop
    endfacet
    facet normal -0.527533 0.849527 0.00352133
        outer loop
            vertex -0.0133211 0.0423473 0.0370738
            vertex -0.0277717 0.0334861 0.01
            vertex -0.0301302 0.0319408 0.0294786
        endloop
    endfacet
    facet normal -0.0563988 -0.0177375 -0.998251
        outer loop
            vertex 0.00269522 -0.00945751 -0.00213464
            vertex -0.0341606 -0.010902 -2.67073e-005
            vertex -0.0333922 0.0114434 -0.000467167
        endloop
    endfacet
endsolid D:/Users/Paul Maroldt/Documents/!StartUp_Repositories/gen2_robot_data/ModuleLibrary/L86-350/L86-350_convdec.stl_created_by_BoundingMesh