solid D:/Users/Paul Maroldt/Documents/!StartUp_Repositories/module_type_database/0096_L86-82/0096_L86-82_convdec.stl_created_by_BoundingMesh
    facet normal 0.646734 0.359538 -0.672657
        outer loop
            vertex 0.072 0.0126653 0.0112474
            vertex 0.072 0.0274753 0.0191634
            vertex 0.082 0.0119083 0.0204574
        endloop
    endfacet
    facet normal 0.641289 -0.734258 -0.22274
        outer loop
            vertex 0.072 -0.0434212 0.0487232
            vertex 0.072 -0.0384793 0.0324323
            vertex 0.082 -0.0320116 0.0399026
        endloop
    endfacet
    facet normal -0.00118075 0.038896 -0.999243
        outer loop
            vertex -0.010316 0.0333445 -1.85295e-005
            vertex 0.00395907 0.0342449 -3.49013e-007
            vertex 0.0169776 0.0301767 -0.000174089
        endloop
    endfacet
    facet normal 0.678313 0.0932387 -0.728833
        outer loop
            vertex 0.072 0.0126653 0.0112474
            vertex 0.082 0.0119083 0.0204574
            vertex 0.082 -0.00328063 0.0185143
        endloop
    endfacet
    facet normal -0.884086 -0.381139 0.270417
        outer loop
            vertex -0.031684 -0.0247459 0.0387038
            vertex -0.0345485 -0.0133542 0.0453948
            vertex -0.0393146 -0.012051 0.0316496
        endloop
    endfacet
    facet normal 0.229771 0.858329 -0.458778
        outer loop
            vertex 0.072 0.0417526 0.0403347
            vertex 0.072 0.0353892 0.0284294
            vertex 0.0105795 0.0419807 0.01
        endloop
    endfacet
    facet normal -0.0443954 0.71788 -0.69475
        outer loop
            vertex -0.00440481 0.0434058 0.01
            vertex 0.00395907 0.0342449 -3.49013e-007
            vertex -0.010316 0.0333445 -1.85295e-005
        endloop
    endfacet
    facet normal -0.726961 -0.445349 0.522677
        outer loop
            vertex -0.0211039 -0.0268505 0.054667
            vertex -0.0245953 -0.0162702 0.058826
            vertex -0.0270122 -0.0229836 0.0497443
        endloop
    endfacet
    facet normal -0.441083 0.89737 -0.0131398
        outer loop
            vertex -0.0261076 0.0352125 0.0252216
            vertex -0.0146384 0.0409859 0.0345066
            vertex -0.0165495 0.0396877 0.01
        endloop
    endfacet
    facet normal -0.698507 0.371619 -0.611544
        outer loop
            vertex -0.0330892 0.0291383 0.0101298
            vertex -0.0276772 0.0225002 -8.5591e-005
            vertex -0.041758 0.0125657 0.0099606
        endloop
    endfacet
    facet normal 0.264774 -0.722755 -0.638373
        outer loop
            vertex 0.0117844 -0.0321554 -0.0006351
            vertex 0.072 -0.0276795 0.0192726
            vertex 0.0106146 -0.0419774 0.01
        endloop
    endfacet
    facet normal 0.924183 0.19271 -0.329772
        outer loop
            vertex 0.0868668 0.0173539 0.0377742
            vertex 0.086 0.00751018 0.0295926
            vertex 0.0820519 0.0246027 0.0285165
        endloop
    endfacet
    facet normal -0.00420073 0.0129086 -0.999908
        outer loop
            vertex -0.0276772 0.0225002 -8.5591e-005
            vertex -0.010316 0.0333445 -1.85295e-005
            vertex 0.0169776 0.0301767 -0.000174089
        endloop
    endfacet
    facet normal 0.00169493 -0.967427 0.253143
        outer loop
            vertex 0.00870063 -0.0431662 0.0580201
            vertex 0.072 -0.0421738 0.0613889
            vertex 0.0230402 -0.0402645 0.0690134
        endloop
    endfacet
    facet normal 0.94412 -0.132967 0.301591
        outer loop
            vertex 0.082 -0.0128938 0.0862733
            vertex 0.0868995 -0.014225 0.0703487
            vertex 0.0873396 -0.0022025 0.0742715
        endloop
    endfacet
    facet normal 0.920266 -0.0209881 0.39073
        outer loop
            vertex 0.082 -0.0128938 0.0862733
            vertex 0.0873396 -0.0022025 0.0742715
            vertex 0.082 0.00476047 0.0872216
        endloop
    endfacet
    facet normal 0.265471 0.0962735 -0.9593
        outer loop
            vertex 0.0371497 -0.0033088 5.96046e-011
            vertex 0.0291652 0.0187082 5.96046e-011
            vertex 0.072 0.0126653 0.0112474
        endloop
    endfacet
    facet normal -0.489073 0.799176 0.349464
        outer loop
            vertex -0.00100825 0.0435886 0.0500178
            vertex -0.0136719 0.039752 0.0410689
            vertex 0.000389988 0.0407291 0.0585139
        endloop
    endfacet
    facet normal 0.631841 -0.0759716 -0.771366
        outer loop
            vertex 0.072 -0.0126653 0.0112474
            vertex 0.072 -2.27089e-016 0.01
            vertex 0.082 -0.00328063 0.0185143
        endloop
    endfacet
    facet normal 0.70091 -0.222007 -0.677819
        outer loop
            vertex 0.0821863 -0.0219886 0.0248344
            vertex 0.072 -0.0126653 0.0112474
            vertex 0.082 -0.00328063 0.0185143
        endloop
    endfacet
    facet normal -0.850445 0.328222 0.411112
        outer loop
            vertex -0.0374494 0.0133197 0.0375765
            vertex -0.0311772 0.0122798 0.0513817
            vertex -0.0297183 0.0182655 0.0496208
        endloop
    endfacet
    facet normal -0.00749528 0.995125 0.0983332
        outer loop
            vertex -0.00100825 0.0435886 0.0500178
            vertex 0.0128917 0.0427365 0.0597005
            vertex 0.072 0.0434212 0.0572768
        endloop
    endfacet
    facet normal 0.597377 -0.378039 -0.707267
        outer loop
            vertex 0.0821863 -0.0219886 0.0248344
            vertex 0.072 -0.0276795 0.0192726
            vertex 0.072 -0.0126653 0.0112474
        endloop
    endfacet
    facet normal -0.143906 0.184799 0.972183
        outer loop
            vertex 0.0389276 0.0199427 0.092919
            vertex 0.0260493 0.00581814 0.0936976
            vertex 0.0408802 0.0046272 0.0961193
        endloop
    endfacet
    facet normal -0.793032 0.216075 0.569572
        outer loop
            vertex -0.0322259 0.00254814 0.0536134
            vertex -0.0233655 0.0165126 0.0606524
            vertex -0.0311772 0.0122798 0.0513817
        endloop
    endfacet
    facet normal -0.779009 -0.386763 0.493517
        outer loop
            vertex -0.0345485 -0.0133542 0.0453948
            vertex -0.0270122 -0.0229836 0.0497443
            vertex -0.030883 -0.011423 0.0526942
        endloop
    endfacet
    facet normal -0.564432 -0.483213 -0.669269
        outer loop
            vertex -0.0325765 -0.0141406 -2.38781e-005
            vertex -0.0223646 -0.026102 5.96046e-011
            vertex -0.0277375 -0.0336764 0.01
        endloop
    endfacet
    facet normal -0.975875 0.0738543 0.205461
        outer loop
            vertex -0.039001 0.00183393 0.0406131
            vertex -0.0423348 0.00724193 0.0228347
            vertex -0.0424435 -0.00379696 0.0262864
        endloop
    endfacet
    facet normal -0.509155 -0.75383 0.415334
        outer loop
            vertex -0.0202738 -0.0343505 0.044642
            vertex -0.00158962 -0.0412315 0.0550578
            vertex -0.0127283 -0.0318523 0.0584262
        endloop
    endfacet
    facet normal -0.883357 -0.466133 -0.0489896
        outer loop
            vertex -0.0379744 -0.0221398 0.0235296
            vertex -0.042298 -0.0125867 0.0105936
            vertex -0.0356694 -0.0251474 0.0105841
        endloop
    endfacet
    facet normal -0.382579 0.616745 -0.687938
        outer loop
            vertex -0.0276772 0.0225002 -8.5591e-005
            vertex -0.0276544 0.0337198 0.00996023
            vertex -0.010316 0.0333445 -1.85295e-005
        endloop
    endfacet
    facet normal -0.380773 -0.627071 -0.679554
        outer loop
            vertex -0.00746635 -0.0351486 6.32293e-011
            vertex -0.0277375 -0.0336764 0.01
            vertex -0.0223646 -0.026102 5.96046e-011
        endloop
    endfacet
    facet normal 0.765998 -0.162715 0.621909
        outer loop
            vertex -0.00746635 -0.0351486 6.32293e-011
            vertex 0 0 0
            vertex -0.0165495 -0.0396877 0.01
        endloop
    endfacet
    facet normal 0.634821 0.587535 -0.501802
        outer loop
            vertex 0.072 0.0274753 0.0191634
            vertex 0.072 0.0353892 0.0284294
            vertex 0.0820519 0.0246027 0.0285165
        endloop
    endfacet
    facet normal 0.316023 0.447234 -0.836727
        outer loop
            vertex 0.072 0.0126653 0.0112474
            vertex 0.0169776 0.0301767 -0.000174089
            vertex 0.072 0.0274753 0.0191634
        endloop
    endfacet
    facet normal 0.158582 -0.944829 -0.286617
        outer loop
            vertex 0.072 -0.0434212 0.0487232
            vertex 0.0106146 -0.0419774 0.01
            vertex 0.072 -0.0384793 0.0324323
        endloop
    endfacet
    facet normal 0.990194 0.0267656 -0.137109
        outer loop
            vertex 0.0866698 -0.00956982 0.0310956
            vertex 0.086 0.00751018 0.0295926
            vertex 0.0868668 0.0173539 0.0377742
        endloop
    endfacet
    facet normal 0.265944 -0.745176 -0.611545
        outer loop
            vertex 0.072 -0.0276795 0.0192726
            vertex 0.072 -0.0384793 0.0324323
            vertex 0.0106146 -0.0419774 0.01
        endloop
    endfacet
    facet normal 0.614173 -0.61004 -0.500643
        outer loop
            vertex 0.0821863 -0.0219886 0.0248344
            vertex 0.072 -0.0384793 0.0324323
            vertex 0.072 -0.0276795 0.0192726
        endloop
    endfacet
    facet normal 0.282827 -0.0940135 -0.954553
        outer loop
            vertex 0.0371497 -0.0033088 5.96046e-011
            vertex 0.072 -2.27089e-016 0.01
            vertex 0.072 -0.0126653 0.0112474
        endloop
    endfacet
    facet normal -0.669834 0.675282 0.308733
        outer loop
            vertex -0.018183 0.0338192 0.0491173
            vertex -0.0198624 0.0360221 0.0406553
            vertex -0.0285865 0.0265652 0.0424121
        endloop
    endfacet
    facet normal 0.673289 0.526119 0.5195
        outer loop
            vertex 0.0820027 0.0295411 0.0713173
            vertex 0.072 0.0304056 0.0834056
            vertex 0.0820561 0.0188663 0.0820589
        endloop
    endfacet
    facet normal -0.202436 0.224562 0.953201
        outer loop
            vertex 0.0389276 0.0199427 0.092919
            vertex 0.0224545 0.0177402 0.0899394
            vertex 0.01752 0.0132991 0.0899377
        endloop
    endfacet
    facet normal -0.346617 0.735024 0.58275
        outer loop
            vertex 0.0133623 0.0388742 0.0686304
            vertex -0.00195415 0.0327378 0.0672601
            vertex 0.0080183 0.0307155 0.0757424
        endloop
    endfacet
    facet normal 0.91654 0.285953 0.279618
        outer loop
            vertex 0.086 0.0134927 0.0746268
            vertex 0.0820027 0.0295411 0.0713173
            vertex 0.0820561 0.0188663 0.0820589
        endloop
    endfacet
    facet normal 0.0603373 0.993372 -0.0978357
        outer loop
            vertex 0.072 0.0434212 0.0572768
            vertex 0.072 0.0417526 0.0403347
            vertex -0.00440481 0.0434058 0.01
        endloop
    endfacet
    facet normal -0.133706 -0.168526 0.976587
        outer loop
            vertex 0.0217125 -0.00732552 0.0929831
            vertex 0.040302 -0.0178763 0.0937075
            vertex 0.0359362 -0.00183599 0.0958778
        endloop
    endfacet
    facet normal -0.0262319 -0.0431996 -0.998722
        outer loop
            vertex -0.00746635 -0.0351486 6.32293e-011
            vertex -0.0223646 -0.026102 5.96046e-011
            vertex 0.0117844 -0.0321554 -0.0006351
        endloop
    endfacet
    facet normal 0.684734 0.388613 -0.616539
        outer loop
            vertex 0.072 0.0274753 0.0191634
            vertex 0.0820519 0.0246027 0.0285165
            vertex 0.082 0.0119083 0.0204574
        endloop
    endfacet
    facet normal 0.652008 0.725562 0.220102
        outer loop
            vertex 0.072 0.0434212 0.0572768
            vertex 0.072 0.0384793 0.0735677
            vertex 0.0820986 0.0343761 0.0571787
        endloop
    endfacet
    facet normal 0.913921 -0.400552 0.0656208
        outer loop
            vertex 0.0873276 -0.0225798 0.0510035
            vertex 0.0820226 -0.0322077 0.0661188
            vertex 0.082 -0.0344909 0.0524968
        endloop
    endfacet
    facet normal -0.42599 0.875685 0.227394
        outer loop
            vertex -0.00100825 0.0435886 0.0500178
            vertex -0.0146384 0.0409859 0.0345066
            vertex -0.0136719 0.039752 0.0410689
        endloop
    endfacet
    facet normal 0.665 0.743248 -0.0732014
        outer loop
            vertex 0.072 0.0434212 0.0572768
            vertex 0.0820986 0.0343761 0.0571787
            vertex 0.072 0.0417526 0.0403347
        endloop
    endfacet
    facet normal 0.939217 0.323519 -0.11492
        outer loop
            vertex 0.086068 0.0262647 0.0563311
            vertex 0.0868668 0.0173539 0.0377742
            vertex 0.0820186 0.0326773 0.0412888
        endloop
    endfacet
    facet normal 0.28082 0.284514 -0.91662
        outer loop
            vertex 0.072 0.0126653 0.0112474
            vertex 0.0291652 0.0187082 5.96046e-011
            vertex 0.0169776 0.0301767 -0.000174089
        endloop
    endfacet
    facet normal -0.67159 0.244663 -0.699362
        outer loop
            vertex -0.0276772 0.0225002 -8.5591e-005
            vertex -0.0343557 0.00439548 -6.0038e-006
            vertex -0.041758 0.0125657 0.0099606
        endloop
    endfacet
    facet normal -0.873947 0.196154 0.444681
        outer loop
            vertex -0.039001 0.00183393 0.0406131
            vertex -0.0322259 0.00254814 0.0536134
            vertex -0.0311772 0.0122798 0.0513817
        endloop
    endfacet
    facet normal 0.644884 0.674038 -0.360274
        outer loop
            vertex 0.072 0.0417526 0.0403347
            vertex 0.0820186 0.0326773 0.0412888
            vertex 0.072 0.0353892 0.0284294
        endloop
    endfacet
    facet normal 0.307925 -0.435705 -0.84578
        outer loop
            vertex 0.0117844 -0.0321554 -0.0006351
            vertex 0.0252384 -0.0238199 -3.09101e-005
            vertex 0.072 -0.0126653 0.0112474
        endloop
    endfacet
    facet normal -0.00330042 0.00767076 -0.999965
        outer loop
            vertex -0.0276772 0.0225002 -8.5591e-005
            vertex 0.0169776 0.0301767 -0.000174089
            vertex 0.0117844 -0.0321554 -0.0006351
        endloop
    endfacet
    facet normal -0.615102 0.113089 0.780295
        outer loop
            vertex -0.0168822 0.0109845 0.0707276
            vertex -0.0135243 -0.0031959 0.0754298
            vertex -0.00417687 0.0032597 0.0818627
        endloop
    endfacet
    facet normal -0.699999 -0.185496 0.689632
        outer loop
            vertex -0.0135243 -0.0031959 0.0754298
            vertex -0.0235286 -0.00654786 0.0643735
            vertex -0.0153701 -0.0145011 0.0705154
        endloop
    endfacet
    facet normal -0.990268 0.137125 0.0238057
        outer loop
            vertex -0.0436558 -0.00019902 0.010745
            vertex -0.0423348 0.00724193 0.0228347
            vertex -0.0415415 0.0137935 0.0180961
        endloop
    endfacet
    facet normal -0.895942 0.376564 0.235557
        outer loop
            vertex -0.0374494 0.0133197 0.0375765
            vertex -0.0351487 0.0221191 0.0322604
            vertex -0.0392037 0.0206809 0.0191363
        endloop
    endfacet
    facet normal -0.992628 -0.109438 0.0520941
        outer loop
            vertex -0.042298 -0.0125867 0.0105936
            vertex -0.0424435 -0.00379696 0.0262864
            vertex -0.0436558 -0.00019902 0.010745
        endloop
    endfacet
    facet normal -0.792539 0.21526 0.570566
        outer loop
            vertex -0.0322259 0.00254814 0.0536134
            vertex -0.0247971 0.00663851 0.0623891
            vertex -0.0233655 0.0165126 0.0606524
        endloop
    endfacet
    facet normal 0.0027704 0.999985 -0.00480304
        outer loop
            vertex -0.00100825 0.0435886 0.0500178
            vertex 0.072 0.0434212 0.0572768
            vertex -0.00440481 0.0434058 0.01
        endloop
    endfacet
    facet normal -0.0129382 -0.875852 0.482406
        outer loop
            vertex 0.072 -0.0384793 0.0735677
            vertex 0.0298193 -0.0349285 0.0788832
            vertex 0.0230402 -0.0402645 0.0690134
        endloop
    endfacet
    facet normal 0.681452 -0.611585 0.401979
        outer loop
            vertex 0.072 -0.0384793 0.0735677
            vertex 0.0820226 -0.0322077 0.0661188
            vertex 0.0822221 -0.0253154 0.0762668
        endloop
    endfacet
    facet normal -0.578683 0.191087 0.79285
        outer loop
            vertex -0.0168822 0.0109845 0.0707276
            vertex -0.00417687 0.0032597 0.0818627
            vertex -0.00645495 0.0151179 0.077342
        endloop
    endfacet
    facet normal -0.574662 0.795841 0.190788
        outer loop
            vertex -0.0261076 0.0352125 0.0252216
            vertex -0.0272045 0.0322825 0.0341397
            vertex -0.0198624 0.0360221 0.0406553
        endloop
    endfacet
    facet normal 0.0104314 0.956886 0.290275
        outer loop
            vertex 0.0281449 0.0389592 0.0735617
            vertex 0.072 0.0384793 0.0735677
            vertex 0.072 0.0434212 0.0572768
        endloop
    endfacet
    facet normal -0.790862 0.584843 0.180266
        outer loop
            vertex -0.0392037 0.0206809 0.0191363
            vertex -0.0351487 0.0221191 0.0322604
            vertex -0.0272045 0.0322825 0.0341397
        endloop
    endfacet
    facet normal -0.983404 -0.162026 0.0816348
        outer loop
            vertex -0.042298 -0.0125867 0.0105936
            vertex -0.0409358 -0.0165708 0.0190957
            vertex -0.0424435 -0.00379696 0.0262864
        endloop
    endfacet
    facet normal 0.192038 -0.693818 -0.694074
        outer loop
            vertex -0.00299463 -0.0440382 0.0431934
            vertex -0.0174911 -0.0396536 0.0347995
            vertex 0 0 0
        endloop
    endfacet
    facet normal -0.127949 0.933414 0.335213
        outer loop
            vertex -0.00100825 0.0435886 0.0500178
            vertex 0.000389988 0.0407291 0.0585139
            vertex 0.0133623 0.0388742 0.0686304
        endloop
    endfacet
    facet normal 0.933662 -0.303423 -0.190286
        outer loop
            vertex 0.0821863 -0.0219886 0.0248344
            vertex 0.0873276 -0.0225798 0.0510035
            vertex 0.082 -0.0320116 0.0399026
        endloop
    endfacet
    facet normal -0.762258 -0.611954 0.210891
        outer loop
            vertex -0.0379744 -0.0221398 0.0235296
            vertex -0.0266577 -0.0342602 0.029263
            vertex -0.031684 -0.0247459 0.0387038
        endloop
    endfacet
    facet normal -0.761486 0.637742 0.115866
        outer loop
            vertex -0.0261076 0.0352125 0.0252216
            vertex -0.0392037 0.0206809 0.0191363
            vertex -0.0272045 0.0322825 0.0341397
        endloop
    endfacet
    facet normal 0.092414 -0.736534 -0.670058
        outer loop
            vertex -0.00746635 -0.0351486 6.32293e-011
            vertex 0.0117844 -0.0321554 -0.0006351
            vertex 0.0106146 -0.0419774 0.01
        endloop
    endfacet
    facet normal 0.650181 -0.481997 0.587319
        outer loop
            vertex 0.072 -0.0205677 0.0914793
            vertex 0.072 -0.0304056 0.0834056
            vertex 0.0822221 -0.0253154 0.0762668
        endloop
    endfacet
    facet normal 0.00788886 -0.956908 0.290283
        outer loop
            vertex 0.072 -0.0384793 0.0735677
            vertex 0.0230402 -0.0402645 0.0690134
            vertex 0.072 -0.0421738 0.0613889
        endloop
    endfacet
    facet normal 0.0183858 0.0979957 0.995017
        outer loop
            vertex 0.072 -0.0042768 0.0964212
            vertex 0.072 0.00838888 0.0951738
            vertex 0.0408802 0.0046272 0.0961193
        endloop
    endfacet
    facet normal -0.0841732 -0.67601 0.732069
        outer loop
            vertex 0.0298193 -0.0349285 0.0788832
            vertex 0.0365443 -0.0267961 0.0871661
            vertex 0.0265276 -0.0272456 0.0855993
        endloop
    endfacet
    facet normal 0.26628 0.0944766 -0.959254
        outer loop
            vertex 0.0371497 -0.0033088 5.96046e-011
            vertex 0.072 0.0126653 0.0112474
            vertex 0.072 -2.27089e-016 0.01
        endloop
    endfacet
    facet normal 0.310469 -0.448099 -0.838341
        outer loop
            vertex 0.0117844 -0.0321554 -0.0006351
            vertex 0.072 -0.0126653 0.0112474
            vertex 0.072 -0.0276795 0.0192726
        endloop
    endfacet
    facet normal 0.264868 0.707912 -0.654756
        outer loop
            vertex 0.072 0.0274753 0.0191634
            vertex 0.0169776 0.0301767 -0.000174089
            vertex 0.0105795 0.0419807 0.01
        endloop
    endfacet
    facet normal 0.929484 0.194983 -0.313116
        outer loop
            vertex 0.0820519 0.0246027 0.0285165
            vertex 0.086 0.00751018 0.0295926
            vertex 0.082 0.0119083 0.0204574
        endloop
    endfacet
    facet normal -0.684759 0.600841 0.412425
        outer loop
            vertex -0.018183 0.0338192 0.0491173
            vertex -0.0285865 0.0265652 0.0424121
            vertex -0.0243381 0.0239248 0.0533125
        endloop
    endfacet
    facet normal -0.778882 0.468428 0.417034
        outer loop
            vertex -0.0243381 0.0239248 0.0533125
            vertex -0.0285865 0.0265652 0.0424121
            vertex -0.0297183 0.0182655 0.0496208
        endloop
    endfacet
    facet normal -0.830999 0.425025 0.358879
        outer loop
            vertex -0.0374494 0.0133197 0.0375765
            vertex -0.0297183 0.0182655 0.0496208
            vertex -0.0285865 0.0265652 0.0424121
        endloop
    endfacet
    facet normal -0.496145 0.703084 0.509424
        outer loop
            vertex 0.000389988 0.0407291 0.0585139
            vertex -0.0156756 0.0288534 0.0592574
            vertex -0.00195415 0.0327378 0.0672601
        endloop
    endfacet
    facet normal -0.347106 0.736816 0.580189
        outer loop
            vertex 0.000389988 0.0407291 0.0585139
            vertex -0.00195415 0.0327378 0.0672601
            vertex 0.0133623 0.0388742 0.0686304
        endloop
    endfacet
    facet normal 0.640247 0.593804 0.487319
        outer loop
            vertex 0.072 0.0384793 0.0735677
            vertex 0.072 0.0304056 0.0834056
            vertex 0.0820027 0.0295411 0.0713173
        endloop
    endfacet
    facet normal 0.916802 0.338621 -0.211684
        outer loop
            vertex 0.0868668 0.0173539 0.0377742
            vertex 0.0820519 0.0246027 0.0285165
            vertex 0.0820186 0.0326773 0.0412888
        endloop
    endfacet
    facet normal -0.437668 0.116465 0.891562
        outer loop
            vertex 0.00762991 0.0140187 0.0862532
            vertex -0.00417687 0.0032597 0.0818627
            vertex 0.0110815 0.00121911 0.0896196
        endloop
    endfacet
    facet normal 0.688607 -0.607661 -0.395688
        outer loop
            vertex 0.0821863 -0.0219886 0.0248344
            vertex 0.082 -0.0320116 0.0399026
            vertex 0.072 -0.0384793 0.0324323
        endloop
    endfacet
    facet normal 0.0174017 -0.634295 0.772895
        outer loop
            vertex 0.072 -0.0205677 0.0914793
            vertex 0.0365443 -0.0267961 0.0871661
            vertex 0.072 -0.0304056 0.0834056
        endloop
    endfacet
    facet normal -0.157788 -0.687359 0.708971
        outer loop
            vertex 0.0298193 -0.0349285 0.0788832
            vertex 0.0265276 -0.0272456 0.0855993
            vertex 0.01705 -0.0314191 0.0794437
        endloop
    endfacet
    facet normal -0.00190145 -0.191421 0.981506
        outer loop
            vertex 0.040302 -0.0178763 0.0937075
            vertex 0.072 -0.0042768 0.0964212
            vertex 0.0534404 -0.00654539 0.0959428
        endloop
    endfacet
    facet normal -0.75843 0.645355 0.0911119
        outer loop
            vertex -0.0330892 0.0291383 0.0101298
            vertex -0.0392037 0.0206809 0.0191363
            vertex -0.0261076 0.0352125 0.0252216
        endloop
    endfacet
    facet normal 0.210007 0.701139 -0.681397
        outer loop
            vertex 0.0169776 0.0301767 -0.000174089
            vertex 0.00395907 0.0342449 -3.49013e-007
            vertex 0.0105795 0.0419807 0.01
        endloop
    endfacet
    facet normal 0.637278 0.0755316 0.766923
        outer loop
            vertex 0.072 -0.0042768 0.0964212
            vertex 0.082 0.00476047 0.0872216
            vertex 0.072 0.00838888 0.0951738
        endloop
    endfacet
    facet normal 0.674168 0.625078 -0.393414
        outer loop
            vertex 0.0820186 0.0326773 0.0412888
            vertex 0.0820519 0.0246027 0.0285165
            vertex 0.072 0.0353892 0.0284294
        endloop
    endfacet
    facet normal 0.997731 -0.0509009 0.0440625
        outer loop
            vertex 0.0873276 -0.0225798 0.0510035
            vertex 0.0873396 -0.0022025 0.0742715
            vertex 0.0868995 -0.014225 0.0703487
        endloop
    endfacet
    facet normal 0.90781 -0.126085 -0.39998
        outer loop
            vertex 0.0821863 -0.0219886 0.0248344
            vertex 0.082 -0.00328063 0.0185143
            vertex 0.0866698 -0.00956982 0.0310956
        endloop
    endfacet
    facet normal 0.923353 0.0487215 -0.380849
        outer loop
            vertex 0.082 -0.00328063 0.0185143
            vertex 0.082 0.0119083 0.0204574
            vertex 0.086 0.00751018 0.0295926
        endloop
    endfacet
    facet normal 0.0684756 -0.0382631 -0.996919
        outer loop
            vertex 0.0117844 -0.0321554 -0.0006351
            vertex 0.0371497 -0.0033088 5.96046e-011
            vertex 0.0252384 -0.0238199 -3.09101e-005
        endloop
    endfacet
    facet normal 0.945469 -0.290882 0.146549
        outer loop
            vertex 0.0873276 -0.0225798 0.0510035
            vertex 0.0868995 -0.014225 0.0703487
            vertex 0.0820226 -0.0322077 0.0661188
        endloop
    endfacet
    facet normal 0.66041 0.0736003 -0.74729
        outer loop
            vertex 0.072 0.0126653 0.0112474
            vertex 0.082 -0.00328063 0.0185143
            vertex 0.072 -2.27089e-016 0.01
        endloop
    endfacet
    facet normal -0.934925 -0.177309 0.307371
        outer loop
            vertex -0.039001 0.00183393 0.0406131
            vertex -0.0393146 -0.012051 0.0316496
            vertex -0.0345485 -0.0133542 0.0453948
        endloop
    endfacet
    facet normal -0.453612 0.0963574 0.885975
        outer loop
            vertex -0.00746635 -0.0351486 6.32293e-011
            vertex 0.0106146 -0.0419774 0.01
            vertex 0 0 0
        endloop
    endfacet
    facet normal -0.834538 -0.538071 -0.118432
        outer loop
            vertex -0.0379744 -0.0221398 0.0235296
            vertex -0.0409358 -0.0165708 0.0190957
            vertex -0.042298 -0.0125867 0.0105936
        endloop
    endfacet
    facet normal -0.945568 0.324552 -0.0238175
        outer loop
            vertex -0.0392037 0.0206809 0.0191363
            vertex -0.041758 0.0125657 0.0099606
            vertex -0.0415415 0.0137935 0.0180961
        endloop
    endfacet
    facet normal -0.876408 -0.109266 0.469009
        outer loop
            vertex -0.039001 0.00183393 0.0406131
            vertex -0.0345485 -0.0133542 0.0453948
            vertex -0.030883 -0.011423 0.0526942
        endloop
    endfacet
    facet normal -0.454526 -0.0131025 0.890637
        outer loop
            vertex 0.00753749 -0.00948386 0.0876535
            vertex 0.0110815 0.00121911 0.0896196
            vertex -0.00417687 0.0032597 0.0818627
        endloop
    endfacet
    facet normal 0.00412449 -0.998452 0.0554682
        outer loop
            vertex -0.00299463 -0.0440382 0.0431934
            vertex 0.072 -0.0434212 0.0487232
            vertex 0.00870063 -0.0431662 0.0580201
        endloop
    endfacet
    facet normal -0.879622 0.229046 0.416897
        outer loop
            vertex -0.039001 0.00183393 0.0406131
            vertex -0.0311772 0.0122798 0.0513817
            vertex -0.0374494 0.0133197 0.0375765
        endloop
    endfacet
    facet normal -0.817385 -0.113406 0.564819
        outer loop
            vertex -0.0322259 0.00254814 0.0536134
            vertex -0.0235286 -0.00654786 0.0643735
            vertex -0.0242337 -0.000245023 0.0646186
        endloop
    endfacet
    facet normal -0.508105 0.717226 0.476881
        outer loop
            vertex 0.000389988 0.0407291 0.0585139
            vertex -0.018183 0.0338192 0.0491173
            vertex -0.0156756 0.0288534 0.0592574
        endloop
    endfacet
    facet normal -0.734416 -0.273778 0.62103
        outer loop
            vertex -0.0235286 -0.00654786 0.0643735
            vertex -0.0245953 -0.0162702 0.058826
            vertex -0.0153701 -0.0145011 0.0705154
        endloop
    endfacet
    facet normal -0.720828 -0.107268 0.684763
        outer loop
            vertex -0.0135243 -0.0031959 0.0754298
            vertex -0.0242337 -0.000245023 0.0646186
            vertex -0.0235286 -0.00654786 0.0643735
        endloop
    endfacet
    facet normal -0.597971 -0.664754 0.447808
        outer loop
            vertex -0.0202738 -0.0343505 0.044642
            vertex -0.0127283 -0.0318523 0.0584262
            vertex -0.0211039 -0.0268505 0.054667
        endloop
    endfacet
    facet normal -0.768147 -0.251655 0.588744
        outer loop
            vertex -0.0235286 -0.00654786 0.0643735
            vertex -0.030883 -0.011423 0.0526942
            vertex -0.0245953 -0.0162702 0.058826
        endloop
    endfacet
    facet normal -0.95254 0.191284 0.236807
        outer loop
            vertex -0.039001 0.00183393 0.0406131
            vertex -0.0374494 0.0133197 0.0375765
            vertex -0.0423348 0.00724193 0.0228347
        endloop
    endfacet
    facet normal -0.818037 -0.115697 0.563408
        outer loop
            vertex -0.0322259 0.00254814 0.0536134
            vertex -0.030883 -0.011423 0.0526942
            vertex -0.0235286 -0.00654786 0.0643735
        endloop
    endfacet
    facet normal -0.688826 0.462441 0.558271
        outer loop
            vertex -0.0132154 0.0242801 0.066742
            vertex -0.0243381 0.0239248 0.0533125
            vertex -0.0233655 0.0165126 0.0606524
        endloop
    endfacet
    facet normal -0.568127 -0.482709 -0.666502
        outer loop
            vertex -0.0325765 -0.0141406 -2.38781e-005
            vertex -0.0277375 -0.0336764 0.01
            vertex -0.0356694 -0.0251474 0.0105841
        endloop
    endfacet
    facet normal -0.731428 -0.681615 0.0203432
        outer loop
            vertex -0.0266577 -0.0342602 0.029263
            vertex -0.0356694 -0.0251474 0.0105841
            vertex -0.0277375 -0.0336764 0.01
        endloop
    endfacet
    facet normal -0.525416 -0.0830277 0.846785
        outer loop
            vertex -0.0135243 -0.0031959 0.0754298
            vertex -0.00312021 -0.0107029 0.0811493
            vertex -0.00417687 0.0032597 0.0818627
        endloop
    endfacet
    facet normal -0.884763 -0.390247 0.254759
        outer loop
            vertex -0.031684 -0.0247459 0.0387038
            vertex -0.0393146 -0.012051 0.0316496
            vertex -0.0409358 -0.0165708 0.0190957
        endloop
    endfacet
    facet normal -0.472932 0.880272 -0.038165
        outer loop
            vertex -0.0261076 0.0352125 0.0252216
            vertex -0.0165495 0.0396877 0.01
            vertex -0.0276544 0.0337198 0.00996023
        endloop
    endfacet
    facet normal -0.644676 0.764398 -0.00942439
        outer loop
            vertex -0.0330892 0.0291383 0.0101298
            vertex -0.0261076 0.0352125 0.0252216
            vertex -0.0276544 0.0337198 0.00996023
        endloop
    endfacet
    facet normal -0.364243 -0.677915 -0.63856
        outer loop
            vertex -0.00746635 -0.0351486 6.32293e-011
            vertex -0.0165495 -0.0396877 0.01
            vertex -0.0277375 -0.0336764 0.01
        endloop
    endfacet
    facet normal 0.0196952 0.00575358 -0.999789
        outer loop
            vertex 0.0117844 -0.0321554 -0.0006351
            vertex 0.0169776 0.0301767 -0.000174089
            vertex 0.0291652 0.0187082 5.96046e-011
        endloop
    endfacet
    facet normal -0.22998 0.751201 -0.618714
        outer loop
            vertex -0.00440481 0.0434058 0.01
            vertex -0.010316 0.0333445 -1.85295e-005
            vertex -0.0165495 0.0396877 0.01
        endloop
    endfacet
    facet normal 0.637742 -0.595413 0.488639
        outer loop
            vertex 0.072 -0.0384793 0.0735677
            vertex 0.0822221 -0.0253154 0.0762668
            vertex 0.072 -0.0304056 0.0834056
        endloop
    endfacet
    facet normal -0.596805 -0.764627 0.243247
        outer loop
            vertex -0.0202738 -0.0343505 0.044642
            vertex -0.0266577 -0.0342602 0.029263
            vertex -0.0174911 -0.0396536 0.0347995
        endloop
    endfacet
    facet normal 0.266477 0.732911 -0.625964
        outer loop
            vertex 0.072 0.0274753 0.0191634
            vertex 0.0105795 0.0419807 0.01
            vertex 0.072 0.0353892 0.0284294
        endloop
    endfacet
    facet normal 0.0177239 0.00642761 -0.999822
        outer loop
            vertex 0.0117844 -0.0321554 -0.0006351
            vertex 0.0291652 0.0187082 5.96046e-011
            vertex 0.0371497 -0.0033088 5.96046e-011
        endloop
    endfacet
    facet normal 0.99458 0.0834853 0.0619763
        outer loop
            vertex 0.086068 0.0262647 0.0563311
            vertex 0.086 0.0134927 0.0746268
            vertex 0.0873396 -0.0022025 0.0742715
        endloop
    endfacet
    facet normal -0.754339 0.145592 0.640137
        outer loop
            vertex -0.0168822 0.0109845 0.0707276
            vertex -0.0247971 0.00663851 0.0623891
            vertex -0.0242337 -0.000245023 0.0646186
        endloop
    endfacet
    facet normal 0.0727551 0.764987 -0.639923
        outer loop
            vertex -0.00440481 0.0434058 0.01
            vertex 0.0105795 0.0419807 0.01
            vertex 0.00395907 0.0342449 -3.49013e-007
        endloop
    endfacet
    facet normal -0.317635 0.426407 0.846927
        outer loop
            vertex 0.00762991 0.0140187 0.0862532
            vertex 0.0224545 0.0177402 0.0899394
            vertex 0.0086823 0.0251513 0.0810429
        endloop
    endfacet
    facet normal -0.523937 0.450043 0.723154
        outer loop
            vertex -0.0132154 0.0242801 0.066742
            vertex -0.00645495 0.0151179 0.077342
            vertex -0.00260502 0.025756 0.0735109
        endloop
    endfacet
    facet normal -0.789699 0.342258 0.509151
        outer loop
            vertex -0.0233655 0.0165126 0.0606524
            vertex -0.0297183 0.0182655 0.0496208
            vertex -0.0311772 0.0122798 0.0513817
        endloop
    endfacet
    facet normal -0.485433 0.60785 0.628389
        outer loop
            vertex -0.0132154 0.0242801 0.066742
            vertex -0.00260502 0.025756 0.0735109
            vertex -0.00195415 0.0327378 0.0672601
        endloop
    endfacet
    facet normal -0.138409 0.906318 0.399288
        outer loop
            vertex 0.0281449 0.0389592 0.0735617
            vertex 0.0128917 0.0427365 0.0597005
            vertex 0.0133623 0.0388742 0.0686304
        endloop
    endfacet
    facet normal -0.221886 0.890636 0.396905
        outer loop
            vertex -0.00100825 0.0435886 0.0500178
            vertex 0.0133623 0.0388742 0.0686304
            vertex 0.0128917 0.0427365 0.0597005
        endloop
    endfacet
    facet normal -0.000378249 0.964712 0.263309
        outer loop
            vertex 0.0281449 0.0389592 0.0735617
            vertex 0.072 0.0434212 0.0572768
            vertex 0.0128917 0.0427365 0.0597005
        endloop
    endfacet
    facet normal -0.217858 0.479174 0.850253
        outer loop
            vertex 0.0389276 0.0199427 0.092919
            vertex 0.0243186 0.0254838 0.086053
            vertex 0.0224545 0.0177402 0.0899394
        endloop
    endfacet
    facet normal 0.894855 0.443329 -0.0519022
        outer loop
            vertex 0.086068 0.0262647 0.0563311
            vertex 0.0820186 0.0326773 0.0412888
            vertex 0.0820986 0.0343761 0.0571787
        endloop
    endfacet
    facet normal -0.513399 0.826471 0.231014
        outer loop
            vertex -0.0146384 0.0409859 0.0345066
            vertex -0.0198624 0.0360221 0.0406553
            vertex -0.0136719 0.039752 0.0410689
        endloop
    endfacet
    facet normal 0.684303 0.248225 0.685649
        outer loop
            vertex 0.072 0.0205677 0.0914793
            vertex 0.082 0.00476047 0.0872216
            vertex 0.0820561 0.0188663 0.0820589
        endloop
    endfacet
    facet normal -0.0427858 -0.145385 0.98845
        outer loop
            vertex 0.040302 -0.0178763 0.0937075
            vertex 0.0534404 -0.00654539 0.0959428
            vertex 0.0359362 -0.00183599 0.0958778
        endloop
    endfacet
    facet normal 0.639343 0.487797 0.594386
        outer loop
            vertex 0.072 0.0205677 0.0914793
            vertex 0.0820561 0.0188663 0.0820589
            vertex 0.072 0.0304056 0.0834056
        endloop
    endfacet
    facet normal 0.941462 0.274776 0.195316
        outer loop
            vertex 0.086068 0.0262647 0.0563311
            vertex 0.0820027 0.0295411 0.0713173
            vertex 0.086 0.0134927 0.0746268
        endloop
    endfacet
    facet normal -0.156219 0.750476 0.64217
        outer loop
            vertex 0.0281449 0.0389592 0.0735617
            vertex 0.0188474 0.0337422 0.0773968
            vertex 0.0291664 0.0308427 0.0832956
        endloop
    endfacet
    facet normal -0.832545 0.429236 0.350178
        outer loop
            vertex -0.0374494 0.0133197 0.0375765
            vertex -0.0285865 0.0265652 0.0424121
            vertex -0.0351487 0.0221191 0.0322604
        endloop
    endfacet
    facet normal -0.951925 -0.227706 0.204912
        outer loop
            vertex -0.0424435 -0.00379696 0.0262864
            vertex -0.0409358 -0.0165708 0.0190957
            vertex -0.0393146 -0.012051 0.0316496
        endloop
    endfacet
    facet normal -0.414442 -0.747286 0.519423
        outer loop
            vertex -0.000648976 -0.0305697 0.0711473
            vertex -0.00158962 -0.0412315 0.0550578
            vertex 0.00484745 -0.0351494 0.0689441
        endloop
    endfacet
    facet normal -0.873647 0.458646 -0.162434
        outer loop
            vertex -0.0330892 0.0291383 0.0101298
            vertex -0.041758 0.0125657 0.0099606
            vertex -0.0392037 0.0206809 0.0191363
        endloop
    endfacet
    facet normal -0.473239 -0.880775 -0.0167571
        outer loop
            vertex -0.0277375 -0.0336764 0.01
            vertex -0.0165495 -0.0396877 0.01
            vertex -0.0174911 -0.0396536 0.0347995
        endloop
    endfacet
    facet normal -0.783609 0.564564 0.259276
        outer loop
            vertex -0.0272045 0.0322825 0.0341397
            vertex -0.0351487 0.0221191 0.0322604
            vertex -0.0285865 0.0265652 0.0424121
        endloop
    endfacet
    facet normal -0.555903 0.810987 0.182403
        outer loop
            vertex -0.0261076 0.0352125 0.0252216
            vertex -0.0198624 0.0360221 0.0406553
            vertex -0.0146384 0.0409859 0.0345066
        endloop
    endfacet
    facet normal -0.598069 0.376956 0.707261
        outer loop
            vertex -0.0168822 0.0109845 0.0707276
            vertex -0.00645495 0.0151179 0.077342
            vertex -0.0132154 0.0242801 0.066742
        endloop
    endfacet
    facet normal -0.698996 0.0704593 0.711646
        outer loop
            vertex -0.0168822 0.0109845 0.0707276
            vertex -0.0242337 -0.000245023 0.0646186
            vertex -0.0135243 -0.0031959 0.0754298
        endloop
    endfacet
    facet normal -0.204716 0.0143429 0.978716
        outer loop
            vertex 0.0217125 -0.00732552 0.0929831
            vertex 0.0359362 -0.00183599 0.0958778
            vertex 0.0260493 0.00581814 0.0936976
        endloop
    endfacet
    facet normal -0.470585 0.424678 0.773433
        outer loop
            vertex -0.00645495 0.0151179 0.077342
            vertex -0.000199456 0.0142697 0.0816138
            vertex 0.0086823 0.0251513 0.0810429
        endloop
    endfacet
    facet normal -0.664299 0.520539 0.53642
        outer loop
            vertex -0.0132154 0.0242801 0.066742
            vertex -0.0156756 0.0288534 0.0592574
            vertex -0.0243381 0.0239248 0.0533125
        endloop
    endfacet
    facet normal -0.765772 0.398984 0.504385
        outer loop
            vertex -0.0233655 0.0165126 0.0606524
            vertex -0.0243381 0.0239248 0.0533125
            vertex -0.0297183 0.0182655 0.0496208
        endloop
    endfacet
    facet normal -0.995603 0.0367475 0.086169
        outer loop
            vertex -0.0424435 -0.00379696 0.0262864
            vertex -0.0423348 0.00724193 0.0228347
            vertex -0.0436558 -0.00019902 0.010745
        endloop
    endfacet
    facet normal -0.288028 0.642269 0.710303
        outer loop
            vertex 0.0086823 0.0251513 0.0810429
            vertex 0.0188474 0.0337422 0.0773968
            vertex 0.0080183 0.0307155 0.0757424
        endloop
    endfacet
    facet normal -0.93605 0.286974 0.203609
        outer loop
            vertex -0.0374494 0.0133197 0.0375765
            vertex -0.0392037 0.0206809 0.0191363
            vertex -0.0415415 0.0137935 0.0180961
        endloop
    endfacet
    facet normal -0.943126 0.262102 0.20449
        outer loop
            vertex -0.0374494 0.0133197 0.0375765
            vertex -0.0415415 0.0137935 0.0180961
            vertex -0.0423348 0.00724193 0.0228347
        endloop
    endfacet
    facet normal -0.511869 -0.808342 0.290815
        outer loop
            vertex -0.0202738 -0.0343505 0.044642
            vertex -0.0174911 -0.0396536 0.0347995
            vertex -0.0116005 -0.0400357 0.0441056
        endloop
    endfacet
    facet normal -0.0223208 -0.0210515 -0.999529
        outer loop
            vertex -0.0325765 -0.0141406 -2.38781e-005
            vertex 0.0117844 -0.0321554 -0.0006351
            vertex -0.0223646 -0.026102 5.96046e-011
        endloop
    endfacet
    facet normal -0.0139284 -0.000372725 -0.999903
        outer loop
            vertex -0.0325765 -0.0141406 -2.38781e-005
            vertex -0.0343557 0.00439548 -6.0038e-006
            vertex 0.0117844 -0.0321554 -0.0006351
        endloop
    endfacet
    facet normal -0.706811 -0.448335 0.547188
        outer loop
            vertex -0.0211039 -0.0268505 0.054667
            vertex -0.016956 -0.0230084 0.0631729
            vertex -0.0245953 -0.0162702 0.058826
        endloop
    endfacet
    facet normal -0.740872 -0.0730462 -0.667662
        outer loop
            vertex -0.042298 -0.0125867 0.0105936
            vertex -0.0436558 -0.00019902 0.010745
            vertex -0.0325765 -0.0141406 -2.38781e-005
        endloop
    endfacet
    facet normal -0.739358 -0.0703221 -0.66963
        outer loop
            vertex -0.0325765 -0.0141406 -2.38781e-005
            vertex -0.0436558 -0.00019902 0.010745
            vertex -0.0343557 0.00439548 -6.0038e-006
        endloop
    endfacet
    facet normal 0.266058 -0.153072 -0.951726
        outer loop
            vertex 0.0371497 -0.0033088 5.96046e-011
            vertex 0.072 -0.0126653 0.0112474
            vertex 0.0252384 -0.0238199 -3.09101e-005
        endloop
    endfacet
    facet normal -0.531215 0.0668766 0.844594
        outer loop
            vertex 0 0 0
            vertex 0.0106146 -0.0419774 0.01
            vertex 0.072 -0.0434212 0.0487232
        endloop
    endfacet
    facet normal -0.144389 -0.893937 0.424297
        outer loop
            vertex 0.00870063 -0.0431662 0.0580201
            vertex 0.0230402 -0.0402645 0.0690134
            vertex 0.0179183 -0.0382041 0.0716114
        endloop
    endfacet
    facet normal 0.0148699 -0.772927 0.634321
        outer loop
            vertex 0.072 -0.0384793 0.0735677
            vertex 0.072 -0.0304056 0.0834056
            vertex 0.0298193 -0.0349285 0.0788832
        endloop
    endfacet
    facet normal 0.648419 -0.757618 0.0746153
        outer loop
            vertex 0.072 -0.0434212 0.0487232
            vertex 0.082 -0.0344909 0.0524968
            vertex 0.072 -0.0421738 0.0613889
        endloop
    endfacet
    facet normal 0.950003 -0.246074 -0.192201
        outer loop
            vertex 0.0821863 -0.0219886 0.0248344
            vertex 0.0866698 -0.00956982 0.0310956
            vertex 0.0873276 -0.0225798 0.0510035
        endloop
    endfacet
    facet normal -0.0132449 0.000490256 -0.999912
        outer loop
            vertex -0.0276772 0.0225002 -8.5591e-005
            vertex 0.0117844 -0.0321554 -0.0006351
            vertex -0.0343557 0.00439548 -6.0038e-006
        endloop
    endfacet
    facet normal 0.673372 0.734749 -0.0819428
        outer loop
            vertex 0.072 0.0417526 0.0403347
            vertex 0.0820986 0.0343761 0.0571787
            vertex 0.0820186 0.0326773 0.0412888
        endloop
    endfacet
    facet normal 0.00619693 0.768335 0.640017
        outer loop
            vertex 0.0281449 0.0389592 0.0735617
            vertex 0.0291664 0.0308427 0.0832956
            vertex 0.072 0.0304056 0.0834056
        endloop
    endfacet
    facet normal 0.676194 0.695674 0.242487
        outer loop
            vertex 0.072 0.0384793 0.0735677
            vertex 0.0820027 0.0295411 0.0713173
            vertex 0.0820986 0.0343761 0.0571787
        endloop
    endfacet
    facet normal 0.00493913 0.205141 0.97872
        outer loop
            vertex 0.0389276 0.0199427 0.092919
            vertex 0.0408802 0.0046272 0.0961193
            vertex 0.072 0.00838888 0.0951738
        endloop
    endfacet
    facet normal -0.335069 0.154111 0.929505
        outer loop
            vertex 0.00762991 0.0140187 0.0862532
            vertex 0.0110815 0.00121911 0.0896196
            vertex 0.01752 0.0132991 0.0899377
        endloop
    endfacet
    facet normal -0.645092 -0.426777 0.633812
        outer loop
            vertex -0.0153701 -0.0145011 0.0705154
            vertex -0.016956 -0.0230084 0.0631729
            vertex -0.00968779 -0.0229629 0.0706011
        endloop
    endfacet
    facet normal 0.654775 0.219409 0.723277
        outer loop
            vertex 0.072 0.0205677 0.0914793
            vertex 0.072 0.00838888 0.0951738
            vertex 0.082 0.00476047 0.0872216
        endloop
    endfacet
    facet normal -0.422344 0.598277 0.680949
        outer loop
            vertex 0.0086823 0.0251513 0.0810429
            vertex 0.0080183 0.0307155 0.0757424
            vertex -0.00260502 0.025756 0.0735109
        endloop
    endfacet
    facet normal 0.99947 0.000756227 -0.0325303
        outer loop
            vertex 0.0873276 -0.0225798 0.0510035
            vertex 0.0866698 -0.00956982 0.0310956
            vertex 0.0868668 0.0173539 0.0377742
        endloop
    endfacet
    facet normal 0.00837186 0.772985 0.634369
        outer loop
            vertex 0.0281449 0.0389592 0.0735617
            vertex 0.072 0.0304056 0.0834056
            vertex 0.072 0.0384793 0.0735677
        endloop
    endfacet
    facet normal 0.935142 0.0719625 0.346886
        outer loop
            vertex 0.086 0.0134927 0.0746268
            vertex 0.082 0.00476047 0.0872216
            vertex 0.0873396 -0.0022025 0.0742715
        endloop
    endfacet
    facet normal 0.0931123 0.979034 -0.181168
        outer loop
            vertex -0.00440481 0.0434058 0.01
            vertex 0.072 0.0417526 0.0403347
            vertex 0.0105795 0.0419807 0.01
        endloop
    endfacet
    facet normal -0.655567 0.601427 0.456636
        outer loop
            vertex -0.018183 0.0338192 0.0491173
            vertex -0.0243381 0.0239248 0.0533125
            vertex -0.0156756 0.0288534 0.0592574
        endloop
    endfacet
    facet normal 0.925067 -0.228097 0.303681
        outer loop
            vertex 0.082 -0.0128938 0.0862733
            vertex 0.0822221 -0.0253154 0.0762668
            vertex 0.0868995 -0.014225 0.0703487
        endloop
    endfacet
    facet normal 0.662074 -0.462936 0.589362
        outer loop
            vertex 0.082 -0.0128938 0.0862733
            vertex 0.072 -0.0205677 0.0914793
            vertex 0.0822221 -0.0253154 0.0762668
        endloop
    endfacet
    facet normal 0.912634 0.137291 0.385032
        outer loop
            vertex 0.086 0.0134927 0.0746268
            vertex 0.0820561 0.0188663 0.0820589
            vertex 0.082 0.00476047 0.0872216
        endloop
    endfacet
    facet normal 0.695186 -0.0385565 0.717795
        outer loop
            vertex 0.082 -0.0128938 0.0862733
            vertex 0.082 0.00476047 0.0872216
            vertex 0.072 -0.0042768 0.0964212
        endloop
    endfacet
    facet normal 0.936998 -0.297271 0.18348
        outer loop
            vertex 0.0820226 -0.0322077 0.0661188
            vertex 0.0868995 -0.014225 0.0703487
            vertex 0.0822221 -0.0253154 0.0762668
        endloop
    endfacet
    facet normal -0.298697 0.134322 0.944848
        outer loop
            vertex 0.0260493 0.00581814 0.0936976
            vertex 0.01752 0.0132991 0.0899377
            vertex 0.0110815 0.00121911 0.0896196
        endloop
    endfacet
    facet normal -0.252748 0.613572 0.748096
        outer loop
            vertex 0.0291664 0.0308427 0.0832956
            vertex 0.0086823 0.0251513 0.0810429
            vertex 0.0243186 0.0254838 0.086053
        endloop
    endfacet
    facet normal -0.0114117 -0.0286188 0.999525
        outer loop
            vertex 0.0359362 -0.00183599 0.0958778
            vertex 0.0534404 -0.00654539 0.0959428
            vertex 0.0408802 0.0046272 0.0961193
        endloop
    endfacet
    facet normal 0.894122 0.42184 0.150322
        outer loop
            vertex 0.086068 0.0262647 0.0563311
            vertex 0.0820986 0.0343761 0.0571787
            vertex 0.0820027 0.0295411 0.0713173
        endloop
    endfacet
    facet normal -0.769879 0.0755205 -0.633706
        outer loop
            vertex -0.0436558 -0.00019902 0.010745
            vertex -0.041758 0.0125657 0.0099606
            vertex -0.0343557 0.00439548 -6.0038e-006
        endloop
    endfacet
    facet normal -0.779178 -0.386754 0.493259
        outer loop
            vertex -0.030883 -0.011423 0.0526942
            vertex -0.0270122 -0.0229836 0.0497443
            vertex -0.0245953 -0.0162702 0.058826
        endloop
    endfacet
    facet normal -0.283447 -0.532582 0.797505
        outer loop
            vertex 0.0099397 -0.0212006 0.0837406
            vertex 0.01705 -0.0314191 0.0794437
            vertex 0.0265276 -0.0272456 0.0855993
        endloop
    endfacet
    facet normal -0.914861 -0.213771 0.342537
        outer loop
            vertex -0.0379744 -0.0221398 0.0235296
            vertex -0.031684 -0.0247459 0.0387038
            vertex -0.0409358 -0.0165708 0.0190957
        endloop
    endfacet
    facet normal -0.505658 0.576067 -0.642228
        outer loop
            vertex -0.0330892 0.0291383 0.0101298
            vertex -0.0276544 0.0337198 0.00996023
            vertex -0.0276772 0.0225002 -8.5591e-005
        endloop
    endfacet
    facet normal -0.358605 0.671603 -0.648346
        outer loop
            vertex -0.0276544 0.0337198 0.00996023
            vertex -0.0165495 0.0396877 0.01
            vertex -0.010316 0.0333445 -1.85295e-005
        endloop
    endfacet
    facet normal -0.654068 0.668976 0.35308
        outer loop
            vertex -0.0272045 0.0322825 0.0341397
            vertex -0.0285865 0.0265652 0.0424121
            vertex -0.0198624 0.0360221 0.0406553
        endloop
    endfacet
    facet normal -0.595902 -0.581902 0.553436
        outer loop
            vertex -0.0211039 -0.0268505 0.054667
            vertex -0.0127283 -0.0318523 0.0584262
            vertex -0.016956 -0.0230084 0.0631729
        endloop
    endfacet
    facet normal -0.708032 -0.592322 0.384507
        outer loop
            vertex -0.0202738 -0.0343505 0.044642
            vertex -0.0211039 -0.0268505 0.054667
            vertex -0.0270122 -0.0229836 0.0497443
        endloop
    endfacet
    facet normal -0.393497 -0.894464 0.212351
        outer loop
            vertex -0.00299463 -0.0440382 0.0431934
            vertex -0.0116005 -0.0400357 0.0441056
            vertex -0.0174911 -0.0396536 0.0347995
        endloop
    endfacet
    facet normal -0.385336 -0.886728 0.255401
        outer loop
            vertex -0.00299463 -0.0440382 0.0431934
            vertex -0.00158962 -0.0412315 0.0550578
            vertex -0.0116005 -0.0400357 0.0441056
        endloop
    endfacet
    facet normal 0.688407 -0.711666 -0.140099
        outer loop
            vertex 0.072 -0.0434212 0.0487232
            vertex 0.082 -0.0320116 0.0399026
            vertex 0.082 -0.0344909 0.0524968
        endloop
    endfacet
    facet normal -0.459004 -0.727999 0.509248
        outer loop
            vertex -0.000648976 -0.0305697 0.0711473
            vertex -0.0127283 -0.0318523 0.0584262
            vertex -0.00158962 -0.0412315 0.0550578
        endloop
    endfacet
    facet normal -0.179267 -0.753337 0.63273
        outer loop
            vertex 0.0179183 -0.0382041 0.0716114
            vertex 0.0298193 -0.0349285 0.0788832
            vertex 0.01705 -0.0314191 0.0794437
        endloop
    endfacet
    facet normal -0.799171 -0.440921 0.408551
        outer loop
            vertex -0.031684 -0.0247459 0.0387038
            vertex -0.0270122 -0.0229836 0.0497443
            vertex -0.0345485 -0.0133542 0.0453948
        endloop
    endfacet
    facet normal -0.736741 -0.675683 0.0258004
        outer loop
            vertex -0.0379744 -0.0221398 0.0235296
            vertex -0.0356694 -0.0251474 0.0105841
            vertex -0.0266577 -0.0342602 0.029263
        endloop
    endfacet
    facet normal -0.362144 -0.361215 0.859288
        outer loop
            vertex 0.00753749 -0.00948386 0.0876535
            vertex 0.0099397 -0.0212006 0.0837406
            vertex 0.0201213 -0.0177203 0.0894946
        endloop
    endfacet
    facet normal -0.428682 0.624485 0.652878
        outer loop
            vertex -0.00195415 0.0327378 0.0672601
            vertex -0.00260502 0.025756 0.0735109
            vertex 0.0080183 0.0307155 0.0757424
        endloop
    endfacet
    facet normal -0.29609 -0.816866 0.495036
        outer loop
            vertex -0.00158962 -0.0412315 0.0550578
            vertex 0.00870063 -0.0431662 0.0580201
            vertex 0.00484745 -0.0351494 0.0689441
        endloop
    endfacet
    facet normal -0.292625 0.955823 -0.0278134
        outer loop
            vertex -0.00440481 0.0434058 0.01
            vertex -0.0165495 0.0396877 0.01
            vertex -0.0146384 0.0409859 0.0345066
        endloop
    endfacet
    facet normal 0.905928 -0.415457 -0.0817871
        outer loop
            vertex 0.0873276 -0.0225798 0.0510035
            vertex 0.082 -0.0344909 0.0524968
            vertex 0.082 -0.0320116 0.0399026
        endloop
    endfacet
    facet normal 0.93853 0.00643352 -0.345138
        outer loop
            vertex 0.0866698 -0.00956982 0.0310956
            vertex 0.082 -0.00328063 0.0185143
            vertex 0.086 0.00751018 0.0295926
        endloop
    endfacet
    facet normal -0.296202 -0.737922 0.606412
        outer loop
            vertex 0.0179183 -0.0382041 0.0716114
            vertex 0.01705 -0.0314191 0.0794437
            vertex 0.00484745 -0.0351494 0.0689441
        endloop
    endfacet
    facet normal -0.206798 0.240825 0.948282
        outer loop
            vertex 0.0389276 0.0199427 0.092919
            vertex 0.01752 0.0132991 0.0899377
            vertex 0.0260493 0.00581814 0.0936976
        endloop
    endfacet
    facet normal -0.505773 0.805059 0.309958
        outer loop
            vertex -0.018183 0.0338192 0.0491173
            vertex -0.0136719 0.039752 0.0410689
            vertex -0.0198624 0.0360221 0.0406553
        endloop
    endfacet
    facet normal -0.531655 0.210609 0.820358
        outer loop
            vertex -0.00417687 0.0032597 0.0818627
            vertex -0.000199456 0.0142697 0.0816138
            vertex -0.00645495 0.0151179 0.077342
        endloop
    endfacet
    facet normal -0.276418 0.483411 0.830606
        outer loop
            vertex 0.0086823 0.0251513 0.0810429
            vertex 0.0224545 0.0177402 0.0899394
            vertex 0.0243186 0.0254838 0.086053
        endloop
    endfacet
    facet normal 0.998348 0.0550267 0.0165521
        outer loop
            vertex 0.086068 0.0262647 0.0563311
            vertex 0.0873396 -0.0022025 0.0742715
            vertex 0.0868668 0.0173539 0.0377742
        endloop
    endfacet
    facet normal 0.0062396 -0.593073 0.805125
        outer loop
            vertex 0.040302 -0.0178763 0.0937075
            vertex 0.0365443 -0.0267961 0.0871661
            vertex 0.072 -0.0205677 0.0914793
        endloop
    endfacet
    facet normal 0.0361476 0.290102 0.956313
        outer loop
            vertex 0.0389276 0.0199427 0.092919
            vertex 0.072 0.00838888 0.0951738
            vertex 0.072 0.0205677 0.0914793
        endloop
    endfacet
    facet normal -0.878318 -0.114955 0.46405
        outer loop
            vertex -0.039001 0.00183393 0.0406131
            vertex -0.030883 -0.011423 0.0526942
            vertex -0.0322259 0.00254814 0.0536134
        endloop
    endfacet
    facet normal -0.343523 -0.0584345 0.937325
        outer loop
            vertex 0.00753749 -0.00948386 0.0876535
            vertex 0.0217125 -0.00732552 0.0929831
            vertex 0.0110815 0.00121911 0.0896196
        endloop
    endfacet
    facet normal -0.508178 -0.861249 0.00238463
        outer loop
            vertex -0.0266577 -0.0342602 0.029263
            vertex -0.0277375 -0.0336764 0.01
            vertex -0.0174911 -0.0396536 0.0347995
        endloop
    endfacet
    facet normal -0.989083 0.147304 0.00409067
        outer loop
            vertex -0.0436558 -0.00019902 0.010745
            vertex -0.0415415 0.0137935 0.0180961
            vertex -0.041758 0.0125657 0.0099606
        endloop
    endfacet
    facet normal 0.925543 -0.37696 0.0356599
        outer loop
            vertex 0 0 0
            vertex -0.0174911 -0.0396536 0.0347995
            vertex -0.0165495 -0.0396877 0.01
        endloop
    endfacet
    facet normal 0.00153327 -0.714181 0.699959
        outer loop
            vertex 0.0298193 -0.0349285 0.0788832
            vertex 0.072 -0.0304056 0.0834056
            vertex 0.0365443 -0.0267961 0.0871661
        endloop
    endfacet
    facet normal 0.0103856 -0.995132 0.0980072
        outer loop
            vertex 0.00870063 -0.0431662 0.0580201
            vertex 0.072 -0.0434212 0.0487232
            vertex 0.072 -0.0421738 0.0613889
        endloop
    endfacet
    facet normal -0.710515 -0.374506 -0.595746
        outer loop
            vertex -0.042298 -0.0125867 0.0105936
            vertex -0.0325765 -0.0141406 -2.38781e-005
            vertex -0.0356694 -0.0251474 0.0105841
        endloop
    endfacet
    facet normal -0.70325 -0.592954 0.392229
        outer loop
            vertex -0.0202738 -0.0343505 0.044642
            vertex -0.0270122 -0.0229836 0.0497443
            vertex -0.031684 -0.0247459 0.0387038
        endloop
    endfacet
    facet normal -0.306454 0.34016 0.889031
        outer loop
            vertex 0.00762991 0.0140187 0.0862532
            vertex 0.01752 0.0132991 0.0899377
            vertex 0.0224545 0.0177402 0.0899394
        endloop
    endfacet
    facet normal -0.699878 -0.654205 0.286682
        outer loop
            vertex -0.0202738 -0.0343505 0.044642
            vertex -0.031684 -0.0247459 0.0387038
            vertex -0.0266577 -0.0342602 0.029263
        endloop
    endfacet
    facet normal -0.304713 -0.260782 0.916048
        outer loop
            vertex 0.00753749 -0.00948386 0.0876535
            vertex 0.0201213 -0.0177203 0.0894946
            vertex 0.0217125 -0.00732552 0.0929831
        endloop
    endfacet
    facet normal -0.593832 -0.237251 0.768815
        outer loop
            vertex -0.0135243 -0.0031959 0.0754298
            vertex -0.0153701 -0.0145011 0.0705154
            vertex -0.00312021 -0.0107029 0.0811493
        endloop
    endfacet
    facet normal -0.273534 0.0380066 0.961111
        outer loop
            vertex 0.0217125 -0.00732552 0.0929831
            vertex 0.0260493 0.00581814 0.0936976
            vertex 0.0110815 0.00121911 0.0896196
        endloop
    endfacet
    facet normal -0.447837 -0.364479 0.816454
        outer loop
            vertex 0.00753749 -0.00948386 0.0876535
            vertex -0.00141127 -0.0196102 0.0782244
            vertex 0.0099397 -0.0212006 0.0837406
        endloop
    endfacet
    facet normal 0.999927 0.00881101 -0.00823219
        outer loop
            vertex 0.0873276 -0.0225798 0.0510035
            vertex 0.0868668 0.0173539 0.0377742
            vertex 0.0873396 -0.0022025 0.0742715
        endloop
    endfacet
    facet normal -0.45458 0.412455 0.789455
        outer loop
            vertex 0.00762991 0.0140187 0.0862532
            vertex 0.0086823 0.0251513 0.0810429
            vertex -0.000199456 0.0142697 0.0816138
        endloop
    endfacet
    facet normal -0.201384 0.979431 0.0126187
        outer loop
            vertex -0.00100825 0.0435886 0.0500178
            vertex -0.00440481 0.0434058 0.01
            vertex -0.0146384 0.0409859 0.0345066
        endloop
    endfacet
    facet normal -0.154265 0.0812113 0.984686
        outer loop
            vertex 0.0359362 -0.00183599 0.0958778
            vertex 0.0408802 0.0046272 0.0961193
            vertex 0.0260493 0.00581814 0.0936976
        endloop
    endfacet
    facet normal -0.298058 0.730666 0.614238
        outer loop
            vertex 0.0133623 0.0388742 0.0686304
            vertex 0.0080183 0.0307155 0.0757424
            vertex 0.0188474 0.0337422 0.0773968
        endloop
    endfacet
    facet normal 0.00485912 0.664278 0.74747
        outer loop
            vertex 0.0389276 0.0199427 0.092919
            vertex 0.072 0.0304056 0.0834056
            vertex 0.0291664 0.0308427 0.0832956
        endloop
    endfacet
    facet normal -0.494306 -0.788615 0.365717
        outer loop
            vertex -0.0202738 -0.0343505 0.044642
            vertex -0.0116005 -0.0400357 0.0441056
            vertex -0.00158962 -0.0412315 0.0550578
        endloop
    endfacet
    facet normal 0.0581742 -0.701054 -0.710732
        outer loop
            vertex -0.00299463 -0.0440382 0.0431934
            vertex 0 0 0
            vertex 0.072 -0.0434212 0.0487232
        endloop
    endfacet
    facet normal -0.292339 -0.817245 0.496637
        outer loop
            vertex 0.00870063 -0.0431662 0.0580201
            vertex 0.0179183 -0.0382041 0.0716114
            vertex 0.00484745 -0.0351494 0.0689441
        endloop
    endfacet
    facet normal -0.0809496 -0.852466 0.516477
        outer loop
            vertex 0.0179183 -0.0382041 0.0716114
            vertex 0.0230402 -0.0402645 0.0690134
            vertex 0.0298193 -0.0349285 0.0788832
        endloop
    endfacet
    facet normal -0.762031 0.217744 0.609833
        outer loop
            vertex -0.0168822 0.0109845 0.0707276
            vertex -0.0233655 0.0165126 0.0606524
            vertex -0.0247971 0.00663851 0.0623891
        endloop
    endfacet
    facet normal -0.48334 -0.523974 0.701308
        outer loop
            vertex -0.000648976 -0.0305697 0.0711473
            vertex 0.00258185 -0.025554 0.0771214
            vertex -0.00968779 -0.0229629 0.0706011
        endloop
    endfacet
    facet normal -0.54591 -0.358925 0.75707
        outer loop
            vertex -0.00312021 -0.0107029 0.0811493
            vertex -0.0153701 -0.0145011 0.0705154
            vertex -0.00968779 -0.0229629 0.0706011
        endloop
    endfacet
    facet normal -0.103526 -0.55947 0.82236
        outer loop
            vertex 0.040302 -0.0178763 0.0937075
            vertex 0.0265276 -0.0272456 0.0855993
            vertex 0.0365443 -0.0267961 0.0871661
        endloop
    endfacet
    facet normal -0.552072 -0.353838 0.754994
        outer loop
            vertex -0.00312021 -0.0107029 0.0811493
            vertex -0.00968779 -0.0229629 0.0706011
            vertex -0.00141127 -0.0196102 0.0782244
        endloop
    endfacet
    facet normal -0.512308 0.647574 0.564082
        outer loop
            vertex -0.0132154 0.0242801 0.066742
            vertex -0.00195415 0.0327378 0.0672601
            vertex -0.0156756 0.0288534 0.0592574
        endloop
    endfacet
    facet normal -0.0209436 -0.0393263 0.999007
        outer loop
            vertex 0.072 -0.0042768 0.0964212
            vertex 0.0408802 0.0046272 0.0961193
            vertex 0.0534404 -0.00654539 0.0959428
        endloop
    endfacet
    facet normal -0.198017 -0.284484 0.938008
        outer loop
            vertex 0.0217125 -0.00732552 0.0929831
            vertex 0.0201213 -0.0177203 0.0894946
            vertex 0.040302 -0.0178763 0.0937075
        endloop
    endfacet
    facet normal 0.67044 -0.731937 0.121568
        outer loop
            vertex 0.0820226 -0.0322077 0.0661188
            vertex 0.072 -0.0421738 0.0613889
            vertex 0.082 -0.0344909 0.0524968
        endloop
    endfacet
    facet normal 0.631548 -0.741949 0.225074
        outer loop
            vertex 0.072 -0.0384793 0.0735677
            vertex 0.072 -0.0421738 0.0613889
            vertex 0.0820226 -0.0322077 0.0661188
        endloop
    endfacet
    facet normal -0.472874 0.814743 0.335536
        outer loop
            vertex 0.000389988 0.0407291 0.0585139
            vertex -0.0136719 0.039752 0.0410689
            vertex -0.018183 0.0338192 0.0491173
        endloop
    endfacet
    facet normal -0.330155 -0.700577 0.632605
        outer loop
            vertex -0.000648976 -0.0305697 0.0711473
            vertex 0.00484745 -0.0351494 0.0689441
            vertex 0.01705 -0.0314191 0.0794437
        endloop
    endfacet
    facet normal -0.489945 -0.465884 0.736821
        outer loop
            vertex -0.00968779 -0.0229629 0.0706011
            vertex 0.00258185 -0.025554 0.0771214
            vertex -0.00141127 -0.0196102 0.0782244
        endloop
    endfacet
    facet normal -0.183323 -0.475215 0.86056
        outer loop
            vertex 0.040302 -0.0178763 0.0937075
            vertex 0.0201213 -0.0177203 0.0894946
            vertex 0.0265276 -0.0272456 0.0855993
        endloop
    endfacet
    facet normal -0.579038 -0.582804 0.570136
        outer loop
            vertex -0.00968779 -0.0229629 0.0706011
            vertex -0.016956 -0.0230084 0.0631729
            vertex -0.0127283 -0.0318523 0.0584262
        endloop
    endfacet
    facet normal -0.165346 0.565376 0.80809
        outer loop
            vertex 0.0389276 0.0199427 0.092919
            vertex 0.0291664 0.0308427 0.0832956
            vertex 0.0243186 0.0254838 0.086053
        endloop
    endfacet
    facet normal -0.671217 0.376521 0.638513
        outer loop
            vertex -0.0168822 0.0109845 0.0707276
            vertex -0.0132154 0.0242801 0.066742
            vertex -0.0233655 0.0165126 0.0606524
        endloop
    endfacet
    facet normal -0.512273 -0.0824455 0.854856
        outer loop
            vertex 0.00753749 -0.00948386 0.0876535
            vertex -0.00417687 0.0032597 0.0818627
            vertex -0.00312021 -0.0107029 0.0811493
        endloop
    endfacet
    facet normal -0.456963 -0.355423 0.815389
        outer loop
            vertex 0.00753749 -0.00948386 0.0876535
            vertex -0.00312021 -0.0107029 0.0811493
            vertex -0.00141127 -0.0196102 0.0782244
        endloop
    endfacet
    facet normal 0.584811 -0.235475 0.776239
        outer loop
            vertex 0.082 -0.0128938 0.0862733
            vertex 0.072 -0.0042768 0.0964212
            vertex 0.072 -0.0205677 0.0914793
        endloop
    endfacet
    facet normal -0.253213 0.616148 0.745818
        outer loop
            vertex 0.0291664 0.0308427 0.0832956
            vertex 0.0188474 0.0337422 0.0773968
            vertex 0.0086823 0.0251513 0.0810429
        endloop
    endfacet
    facet normal -0.199698 0.785999 0.585087
        outer loop
            vertex 0.0281449 0.0389592 0.0735617
            vertex 0.0133623 0.0388742 0.0686304
            vertex 0.0188474 0.0337422 0.0773968
        endloop
    endfacet
    facet normal -0.691715 -0.393622 0.605468
        outer loop
            vertex -0.0153701 -0.0145011 0.0705154
            vertex -0.0245953 -0.0162702 0.058826
            vertex -0.016956 -0.0230084 0.0631729
        endloop
    endfacet
    facet normal -0.545242 -0.606321 0.578867
        outer loop
            vertex -0.000648976 -0.0305697 0.0711473
            vertex -0.00968779 -0.0229629 0.0706011
            vertex -0.0127283 -0.0318523 0.0584262
        endloop
    endfacet
    facet normal 0.0216568 0.634242 0.772831
        outer loop
            vertex 0.0389276 0.0199427 0.092919
            vertex 0.072 0.0205677 0.0914793
            vertex 0.072 0.0304056 0.0834056
        endloop
    endfacet
    facet normal -0.941683 -0.167235 0.292002
        outer loop
            vertex -0.039001 0.00183393 0.0406131
            vertex -0.0424435 -0.00379696 0.0262864
            vertex -0.0393146 -0.012051 0.0316496
        endloop
    endfacet
    facet normal -0.27949 -0.518455 0.808139
        outer loop
            vertex 0.0201213 -0.0177203 0.0894946
            vertex 0.0099397 -0.0212006 0.0837406
            vertex 0.0265276 -0.0272456 0.0855993
        endloop
    endfacet
    facet normal -0.360355 -0.609237 0.706382
        outer loop
            vertex -0.000648976 -0.0305697 0.0711473
            vertex 0.01705 -0.0314191 0.0794437
            vertex 0.00258185 -0.025554 0.0771214
        endloop
    endfacet
    facet normal 0.0425812 -0.290027 0.956071
        outer loop
            vertex 0.040302 -0.0178763 0.0937075
            vertex 0.072 -0.0205677 0.0914793
            vertex 0.072 -0.0042768 0.0964212
        endloop
    endfacet
    facet normal -0.480199 0.44583 0.75541
        outer loop
            vertex -0.00645495 0.0151179 0.077342
            vertex 0.0086823 0.0251513 0.0810429
            vertex -0.00260502 0.025756 0.0735109
        endloop
    endfacet
    facet normal -0.441465 -0.441536 0.781124
        outer loop
            vertex 0.0099397 -0.0212006 0.0837406
            vertex -0.00141127 -0.0196102 0.0782244
            vertex 0.00258185 -0.025554 0.0771214
        endloop
    endfacet
    facet normal -0.248109 -0.93572 0.25074
        outer loop
            vertex -0.00299463 -0.0440382 0.0431934
            vertex 0.00870063 -0.0431662 0.0580201
            vertex -0.00158962 -0.0412315 0.0550578
        endloop
    endfacet
    facet normal -0.785985 0.131341 0.604133
        outer loop
            vertex -0.0322259 0.00254814 0.0536134
            vertex -0.0242337 -0.000245023 0.0646186
            vertex -0.0247971 0.00663851 0.0623891
        endloop
    endfacet
    facet normal -0.347301 -0.558443 0.753341
        outer loop
            vertex 0.0099397 -0.0212006 0.0837406
            vertex 0.00258185 -0.025554 0.0771214
            vertex 0.01705 -0.0314191 0.0794437
        endloop
    endfacet
    facet normal -0.494993 0.197945 0.84605
        outer loop
            vertex 0.00762991 0.0140187 0.0862532
            vertex -0.000199456 0.0142697 0.0816138
            vertex -0.00417687 0.0032597 0.0818627
        endloop
    endfacet
endsolid D:/Users/Paul Maroldt/Documents/!StartUp_Repositories/module_type_database/0096_L86-82/0096_L86-82_convdec.stl_created_by_BoundingMesh