solid D:/Users/Paul Maroldt/Documents/!StartUp_Repositories/module_type_database/L116-350_convdec.stl_created_by_BoundingMesh
    facet normal 0.981239 -0.11582 -0.154127
        outer loop
            vertex 0.35 -0.0436311 0.0428099
            vertex 0.35 -0.0187111 0.0240835
            vertex 0.355032 -0.0204235 0.0574062
        endloop
    endfacet
    facet normal -0.465204 -0.45356 0.760177
        outer loop
            vertex 0.0116629 -0.0340049 0.107661
            vertex -0.00826552 -0.0199874 0.103829
            vertex -0.000985643 -0.0370809 0.0980852
        endloop
    endfacet
    facet normal 0.0344998 -0.0408144 -0.998571
        outer loop
            vertex -0.00305839 -0.0465535 -0.00070546
            vertex 0.0480445 -0.0205247 -3.76599e-006
            vertex 0.34 -0.00696498 0.00952884
        endloop
    endfacet
    facet normal -0.394915 -0.779124 0.486835
        outer loop
            vertex -0.00384268 -0.0590073 0.0660865
            vertex 0.0082918 -0.0509844 0.0887696
            vertex -0.00950633 -0.0449407 0.0840042
        endloop
    endfacet
    facet normal 0.00972903 0.000846238 -0.999952
        outer loop
            vertex -0.0111465 0.0478657 -0.000521787
            vertex 0.043435 0.0384407 1.28705e-006
            vertex 0.0480445 -0.0205247 -3.76599e-006
        endloop
    endfacet
    facet normal 0.609752 -0.656666 -0.443838
        outer loop
            vertex 0.35 -0.0436311 0.0428099
            vertex 0.34 -0.0579477 0.0502534
            vertex 0.34 -0.0424459 0.0273182
        endloop
    endfacet
    facet normal -0.000815956 -0.929441 0.368969
        outer loop
            vertex 0.0247982 -0.0516043 0.0951942
            vertex 0.0161293 -0.0567768 0.0821454
            vertex 0.34 -0.0579477 0.0799121
        endloop
    endfacet
    facet normal 0.671666 0.489494 0.556112
        outer loop
            vertex 0.34 0.0249627 0.123226
            vertex 0.35 0.0409844 0.0970457
            vertex 0.34 0.0438571 0.106595
        endloop
    endfacet
    facet normal -0.599102 -0.619292 0.507498
        outer loop
            vertex -0.0322931 -0.0310046 0.0741104
            vertex -0.0229173 -0.0473273 0.0652602
            vertex -0.00950633 -0.0449407 0.0840042
        endloop
    endfacet
    facet normal 0.998105 -0.0165228 -0.0592658
        outer loop
            vertex 0.35703 -0.00197618 0.085912
            vertex 0.355032 -0.0204235 0.0574062
            vertex 0.354654 0.00883072 0.0428847
        endloop
    endfacet
    facet normal -0.447529 -0.892985 0.0479113
        outer loop
            vertex -0.0338628 -0.0482939 0.0358603
            vertex -0.032641 -0.0502937 0.01
            vertex -0.0193201 -0.0548844 0.0488646
        endloop
    endfacet
    facet normal 0.0621949 -0.292249 -0.954318
        outer loop
            vertex -0.00305839 -0.0465535 -0.00070546
            vertex 0.34 -0.00696498 0.00952884
            vertex 0.34 -0.0264689 0.0155017
        endloop
    endfacet
    facet normal -0.687516 -0.688778 0.230016
        outer loop
            vertex -0.0438709 -0.0387349 0.0345704
            vertex -0.0338628 -0.0482939 0.0358603
            vertex -0.033543 -0.041577 0.0569298
        endloop
    endfacet
    facet normal 0.0688358 -0.662943 -0.745498
        outer loop
            vertex -0.00722107 -0.0582694 0.00932868
            vertex -0.00305839 -0.0465535 -0.00070546
            vertex 0.34 -0.0424459 0.0273182
        endloop
    endfacet
    facet normal -2.72417e-005 -0.00759783 -0.999971
        outer loop
            vertex -0.0111465 0.0478657 -0.000521787
            vertex 0.0480445 -0.0205247 -3.76599e-006
            vertex -0.0463033 -0.0154579 -3.96935e-005
        endloop
    endfacet
    facet normal -0.396058 -0.67868 0.618491
        outer loop
            vertex -0.00950633 -0.0449407 0.0840042
            vertex 0.0082918 -0.0509844 0.0887696
            vertex -0.000985643 -0.0370809 0.0980852
        endloop
    endfacet
    facet normal -0.881548 0.0746392 0.466156
        outer loop
            vertex -0.0491051 0.0115892 0.0566491
            vertex -0.0479513 -0.00329401 0.0612141
            vertex -0.040645 0.0131532 0.0723976
        endloop
    endfacet
    facet normal -0.500581 -0.459683 0.73356
        outer loop
            vertex -0.0177685 -0.0303069 0.0908775
            vertex -0.000985643 -0.0370809 0.0980852
            vertex -0.00826552 -0.0199874 0.103829
        endloop
    endfacet
    facet normal 0.685181 -0.153408 0.712034
        outer loop
            vertex 0.35 -0.0234117 0.112611
            vertex 0.34 -0.00249679 0.12674
            vertex 0.34 -0.0227288 0.122381
        endloop
    endfacet
    facet normal -0.941253 0.257031 0.219038
        outer loop
            vertex -0.0481415 0.0225085 0.0519063
            vertex -0.0561799 0.0206108 0.0195905
            vertex -0.056043 0.00374546 0.0399695
        endloop
    endfacet
    facet normal 0.685742 0.0923888 0.721957
        outer loop
            vertex 0.34 0.0249627 0.123226
            vertex 0.34 -0.00249679 0.12674
            vertex 0.35 0.0116051 0.115437
        endloop
    endfacet
    facet normal -0.0190124 0.00370938 -0.999812
        outer loop
            vertex -0.0111465 0.0478657 -0.000521787
            vertex -0.0463469 0.00753206 -2.05819e-006
            vertex -0.0390048 0.0293093 -6.08801e-005
        endloop
    endfacet
    facet normal -0.447374 0.759598 0.472089
        outer loop
            vertex -0.00184241 0.0584519 0.0691646
            vertex -0.0159861 0.0448635 0.0776253
            vertex -0.0018 0.0474669 0.0868798
        endloop
    endfacet
    facet normal -0.385168 0.922775 0.0114756
        outer loop
            vertex -0.0292424 0.0507835 0.0410178
            vertex -0.0167035 0.0559143 0.0492965
            vertex -0.0273872 0.0519436 0.01
        endloop
    endfacet
    facet normal -0.000640963 0.719326 0.694672
        outer loop
            vertex 0.034672 0.0390413 0.1113
            vertex 0.34 0.0438571 0.106595
            vertex 0.0334062 0.0457481 0.104354
        endloop
    endfacet
    facet normal -0.364394 0.528004 -0.767091
        outer loop
            vertex -0.0111465 0.0478657 -0.000521787
            vertex -0.0390048 0.0293093 -6.08801e-005
            vertex -0.0273872 0.0519436 0.01
        endloop
    endfacet
    facet normal 0.799605 -0.596149 -0.0723832
        outer loop
            vertex 0.35 -0.0483916 0.0820174
            vertex 0.34 -0.0579477 0.0502534
            vertex 0.35 -0.0436311 0.0428099
        endloop
    endfacet
    facet normal 0.779264 -0.485434 0.39636
        outer loop
            vertex 0.35 -0.0483916 0.0820174
            vertex 0.35 -0.0234117 0.112611
            vertex 0.34 -0.0413581 0.110292
        endloop
    endfacet
    facet normal -0.605126 -0.755814 0.250136
        outer loop
            vertex -0.0338628 -0.0482939 0.0358603
            vertex -0.0229173 -0.0473273 0.0652602
            vertex -0.033543 -0.041577 0.0569298
        endloop
    endfacet
    facet normal 0.754967 -0.389938 -0.527232
        outer loop
            vertex 0.34 -0.0424459 0.0273182
            vertex 0.34 -0.0264689 0.0155017
            vertex 0.35 -0.0187111 0.0240835
        endloop
    endfacet
    facet normal -0.665839 0.124571 -0.735623
        outer loop
            vertex -0.0590003 0.0017048 0.0104642
            vertex -0.0549819 0.0204421 0.01
            vertex -0.0463469 0.00753206 -2.05819e-006
        endloop
    endfacet
    facet normal -0.599146 0.199905 -0.775282
        outer loop
            vertex -0.0390048 0.0293093 -6.08801e-005
            vertex -0.0463469 0.00753206 -2.05819e-006
            vertex -0.0549819 0.0204421 0.01
        endloop
    endfacet
    facet normal 0.744104 0.634953 -0.207708
        outer loop
            vertex 0.35 0.0402148 0.040244
            vertex 0.34 0.051038 0.0375055
            vertex 0.34 0.0579477 0.0586281
        endloop
    endfacet
    facet normal 0.97867 -0.15913 0.129931
        outer loop
            vertex 0.35 -0.0483916 0.0820174
            vertex 0.35703 -0.00197618 0.085912
            vertex 0.35 -0.0234117 0.112611
        endloop
    endfacet
    facet normal -0.5197 -0.459246 -0.72042
        outer loop
            vertex -0.032641 -0.0502937 0.01
            vertex -0.0502814 -0.0303312 0.01
            vertex -0.0275538 -0.0399277 -0.000277844
        endloop
    endfacet
    facet normal -0.00663372 0.0399604 -0.999179
        outer loop
            vertex -0.0275538 -0.0399277 -0.000277844
            vertex 0.0480445 -0.0205247 -3.76599e-006
            vertex -0.00305839 -0.0465535 -0.00070546
        endloop
    endfacet
    facet normal -0.247312 0.711663 -0.65755
        outer loop
            vertex -0.0111465 0.0478657 -0.000521787
            vertex -0.0273872 0.0519436 0.01
            vertex -0.00731601 0.058235 0.00926016
        endloop
    endfacet
    facet normal -0.26047 -0.965477 0.00295193
        outer loop
            vertex -0.00384268 -0.0590073 0.0660865
            vertex -0.0193201 -0.0548844 0.0488646
            vertex -0.00722107 -0.0582694 0.00932868
        endloop
    endfacet
    facet normal -0.902653 -0.341529 0.26187
        outer loop
            vertex -0.0565452 -0.020507 0.0238093
            vertex -0.0449134 -0.0288597 0.05301
            vertex -0.0501987 -0.0142588 0.0538342
        endloop
    endfacet
    facet normal -0.748986 -0.661862 -0.0309605
        outer loop
            vertex -0.0438709 -0.0387349 0.0345704
            vertex -0.0502814 -0.0303312 0.01
            vertex -0.032641 -0.0502937 0.01
        endloop
    endfacet
    facet normal -0.987404 -0.0730653 0.140338
        outer loop
            vertex -0.0597982 -0.00476101 0.00911949
            vertex -0.0565452 -0.020507 0.0238093
            vertex -0.056043 0.00374546 0.0399695
        endloop
    endfacet
    facet normal -0.850056 -0.169673 0.498614
        outer loop
            vertex -0.0363418 -0.00298349 0.0811121
            vertex -0.0479513 -0.00329401 0.0612141
            vertex -0.0345928 -0.0172633 0.0792346
        endloop
    endfacet
    facet normal 0.73893 0.652042 0.169779
        outer loop
            vertex 0.35 0.0409844 0.0970457
            vertex 0.34 0.0579477 0.0754206
            vertex 0.34 0.0535744 0.0922164
        endloop
    endfacet
    facet normal 0.00114586 0.660715 0.750636
        outer loop
            vertex 0.34 0.0249627 0.123226
            vertex 0.34 0.0438571 0.106595
            vertex 0.034672 0.0390413 0.1113
        endloop
    endfacet
    facet normal 0.0407871 0.0570843 -0.997536
        outer loop
            vertex 0.34 0.0152675 0.0108011
            vertex 0.34 -0.00696498 0.00952884
            vertex 0.043435 0.0384407 1.28705e-006
        endloop
    endfacet
    facet normal -0.000510563 0.958837 0.283956
        outer loop
            vertex 0.0217984 0.0536287 0.0914609
            vertex 0.34 0.0535744 0.0922164
            vertex 0.010086 0.0578098 0.0773215
        endloop
    endfacet
    facet normal 0.616201 -0.428727 0.660674
        outer loop
            vertex 0.35 -0.0234117 0.112611
            vertex 0.34 -0.0227288 0.122381
            vertex 0.34 -0.0413581 0.110292
        endloop
    endfacet
    facet normal 0.708812 0.705397 0
        outer loop
            vertex 0.35 0.0478993 0.0667741
            vertex 0.34 0.0579477 0.0586281
            vertex 0.34 0.0579477 0.0754206
        endloop
    endfacet
    facet normal 0.660942 0.337852 -0.670083
        outer loop
            vertex 0.35 0.012113 0.0190742
            vertex 0.34 0.0152675 0.0108011
            vertex 0.34 0.0349611 0.0207305
        endloop
    endfacet
    facet normal 0.976296 0.130231 -0.172875
        outer loop
            vertex 0.35 0.012113 0.0190742
            vertex 0.35 0.0402148 0.040244
            vertex 0.354654 0.00883072 0.0428847
        endloop
    endfacet
    facet normal 0.0325115 0.00262717 -0.999468
        outer loop
            vertex 0.34 -0.00696498 0.00952884
            vertex 0.0480445 -0.0205247 -3.76599e-006
            vertex 0.043435 0.0384407 1.28705e-006
        endloop
    endfacet
    facet normal -0.619043 0.0385582 0.78441
        outer loop
            vertex -0.0258907 -0.00813311 0.0935365
            vertex -0.0027215 0.00487175 0.111182
            vertex -0.0161157 0.0135485 0.100185
        endloop
    endfacet
    facet normal -0.185697 0.982516 0.0134101
        outer loop
            vertex -0.00184241 0.0584519 0.0691646
            vertex -0.00731601 0.058235 0.00926016
            vertex -0.0167035 0.0559143 0.0492965
        endloop
    endfacet
    facet normal 0.0666208 -0.826664 -0.558738
        outer loop
            vertex 0.34 -0.0579477 0.0502534
            vertex -0.00722107 -0.0582694 0.00932868
            vertex 0.34 -0.0424459 0.0273182
        endloop
    endfacet
    facet normal -0.26009 -0.858142 0.442657
        outer loop
            vertex -0.00384268 -0.0590073 0.0660865
            vertex 0.0161293 -0.0567768 0.0821454
            vertex 0.0082918 -0.0509844 0.0887696
        endloop
    endfacet
    facet normal -0.219472 -0.848218 0.482036
        outer loop
            vertex 0.0247982 -0.0516043 0.0951942
            vertex 0.0082918 -0.0509844 0.0887696
            vertex 0.0161293 -0.0567768 0.0821454
        endloop
    endfacet
    facet normal -0.301453 0.0443055 0.952451
        outer loop
            vertex 0.0236134 0.0150745 0.121235
            vertex 0.0136864 0.00458568 0.118581
            vertex 0.0314165 0.00212653 0.124307
        endloop
    endfacet
    facet normal -0.208102 0.684412 0.698766
        outer loop
            vertex 0.0118078 0.0441025 0.0995335
            vertex 0.034672 0.0390413 0.1113
            vertex 0.0334062 0.0457481 0.104354
        endloop
    endfacet
    facet normal 0.000428809 -0.199693 0.979858
        outer loop
            vertex 0.0485477 -0.00291652 0.126782
            vertex 0.0487672 -0.0224256 0.122806
            vertex 0.34 -0.00249679 0.12674
        endloop
    endfacet
    facet normal -0.00109441 0.852799 0.522238
        outer loop
            vertex 0.0217984 0.0536287 0.0914609
            vertex 0.0334062 0.0457481 0.104354
            vertex 0.34 0.0535744 0.0922164
        endloop
    endfacet
    facet normal -0.617809 0.786032 -0.0215883
        outer loop
            vertex -0.0447332 0.0383099 0.01
            vertex -0.0378073 0.0443771 0.0327034
            vertex -0.0273872 0.0519436 0.01
        endloop
    endfacet
    facet normal -0.382951 0.568002 0.728507
        outer loop
            vertex 0.0159295 0.0312474 0.111723
            vertex 0.0118078 0.0441025 0.0995335
            vertex -0.00501754 0.032794 0.099506
        endloop
    endfacet
    facet normal -0.66844 0.0744362 0.740032
        outer loop
            vertex -0.0258907 -0.00813311 0.0935365
            vertex -0.0161157 0.0135485 0.100185
            vertex -0.0260898 0.0138131 0.0911492
        endloop
    endfacet
    facet normal 0.986357 -0.0627937 -0.152175
        outer loop
            vertex 0.354654 0.00883072 0.0428847
            vertex 0.355032 -0.0204235 0.0574062
            vertex 0.35 -0.0187111 0.0240835
        endloop
    endfacet
    facet normal 0.987274 0.14007 -0.0752982
        outer loop
            vertex 0.35 0.0402148 0.040244
            vertex 0.354005 0.0265615 0.067358
            vertex 0.354654 0.00883072 0.0428847
        endloop
    endfacet
    facet normal 0.0449341 0.949479 -0.310597
        outer loop
            vertex 0.34 0.051038 0.0375055
            vertex -0.00731601 0.058235 0.00926016
            vertex 0.34 0.0579477 0.0586281
        endloop
    endfacet
    facet normal -0.510064 -0.383332 -0.769994
        outer loop
            vertex -0.0275538 -0.0399277 -0.000277844
            vertex -0.0502814 -0.0303312 0.01
            vertex -0.0463033 -0.0154579 -3.96935e-005
        endloop
    endfacet
    facet normal 0.779024 0.377261 -0.500794
        outer loop
            vertex 0.35 0.012113 0.0190742
            vertex 0.34 0.0349611 0.0207305
            vertex 0.35 0.0402148 0.040244
        endloop
    endfacet
    facet normal 0.644974 0.0436604 -0.762956
        outer loop
            vertex 0.35 0.012113 0.0190742
            vertex 0.34 -0.00696498 0.00952884
            vertex 0.34 0.0152675 0.0108011
        endloop
    endfacet
    facet normal -0.491992 -0.105729 0.864156
        outer loop
            vertex -0.0027215 0.00487175 0.111182
            vertex -0.0115287 -0.00889844 0.104483
            vertex 0.0101756 -0.0121511 0.116442
        endloop
    endfacet
    facet normal 0.707293 -0.585698 0.395847
        outer loop
            vertex 0.35 -0.0483916 0.0820174
            vertex 0.34 -0.0413581 0.110292
            vertex 0.34 -0.0512598 0.0956414
        endloop
    endfacet
    facet normal 0.0704119 0.44909 -0.890708
        outer loop
            vertex -0.0111465 0.0478657 -0.000521787
            vertex 0.34 0.0349611 0.0207305
            vertex 0.34 0.0152675 0.0108011
        endloop
    endfacet
    facet normal -0.82708 0.3315 0.453924
        outer loop
            vertex -0.0481415 0.0225085 0.0519063
            vertex -0.040645 0.0131532 0.0723976
            vertex -0.0362442 0.0293584 0.0685815
        endloop
    endfacet
    facet normal -0.938058 -0.0394159 0.344229
        outer loop
            vertex -0.0501987 -0.0142588 0.0538342
            vertex -0.0479513 -0.00329401 0.0612141
            vertex -0.056043 0.00374546 0.0399695
        endloop
    endfacet
    facet normal -0.632351 0.362707 -0.684526
        outer loop
            vertex -0.0447332 0.0383099 0.01
            vertex -0.0390048 0.0293093 -6.08801e-005
            vertex -0.0549819 0.0204421 0.01
        endloop
    endfacet
    facet normal -0.198617 0.746474 0.635081
        outer loop
            vertex 0.0217984 0.0536287 0.0914609
            vertex 0.0118078 0.0441025 0.0995335
            vertex 0.0334062 0.0457481 0.104354
        endloop
    endfacet
    facet normal -0.827363 -0.561157 0.0239319
        outer loop
            vertex -0.0438709 -0.0387349 0.0345704
            vertex -0.0565452 -0.020507 0.0238093
            vertex -0.0502814 -0.0303312 0.01
        endloop
    endfacet
    facet normal -0.00353423 -0.667658 0.74446
        outer loop
            vertex 0.0360276 -0.0342876 0.11519
            vertex 0.0342129 -0.0440769 0.106402
            vertex 0.34 -0.0413581 0.110292
        endloop
    endfacet
    facet normal 0.987938 -0.152079 0.0291712
        outer loop
            vertex 0.35 -0.0483916 0.0820174
            vertex 0.355032 -0.0204235 0.0574062
            vertex 0.35703 -0.00197618 0.085912
        endloop
    endfacet
    facet normal -0.0166022 0.00160532 -0.999861
        outer loop
            vertex -0.0111465 0.0478657 -0.000521787
            vertex -0.0463033 -0.0154579 -3.96935e-005
            vertex -0.0463469 0.00753206 -2.05819e-006
        endloop
    endfacet
    facet normal -0.664344 0.575175 0.477306
        outer loop
            vertex -0.0329199 0.0425676 0.0572908
            vertex -0.0362442 0.0293584 0.0685815
            vertex -0.0230885 0.031202 0.0846708
        endloop
    endfacet
    facet normal -0.162913 0.133748 0.977533
        outer loop
            vertex 0.0465487 0.0219325 0.124119
            vertex 0.0236134 0.0150745 0.121235
            vertex 0.0314165 0.00212653 0.124307
        endloop
    endfacet
    facet normal -0.503988 0.624208 0.59696
        outer loop
            vertex -0.00501754 0.032794 0.099506
            vertex -0.0018 0.0474669 0.0868798
            vertex -0.0159861 0.0448635 0.0776253
        endloop
    endfacet
    facet normal 0.98172 0.182816 -0.0529529
        outer loop
            vertex 0.35 0.0402148 0.040244
            vertex 0.35 0.0478993 0.0667741
            vertex 0.354005 0.0265615 0.067358
        endloop
    endfacet
    facet normal 0.623283 -0.719647 0.305985
        outer loop
            vertex 0.35 -0.0483916 0.0820174
            vertex 0.34 -0.0512598 0.0956414
            vertex 0.34 -0.0579477 0.0799121
        endloop
    endfacet
    facet normal -0.653738 0.586481 0.478191
        outer loop
            vertex -0.0329199 0.0425676 0.0572908
            vertex -0.0230885 0.031202 0.0846708
            vertex -0.0159861 0.0448635 0.0776253
        endloop
    endfacet
    facet normal 0.977031 0.11307 0.180624
        outer loop
            vertex 0.35 0.0409844 0.0970457
            vertex 0.35 0.0116051 0.115437
            vertex 0.35703 -0.00197618 0.085912
        endloop
    endfacet
    facet normal -0.50773 -0.584102 0.633274
        outer loop
            vertex -0.0177685 -0.0303069 0.0908775
            vertex -0.00950633 -0.0449407 0.0840042
            vertex -0.000985643 -0.0370809 0.0980852
        endloop
    endfacet
    facet normal 0.723391 -0.202172 -0.660176
        outer loop
            vertex 0.34 -0.00696498 0.00952884
            vertex 0.35 -0.0187111 0.0240835
            vertex 0.34 -0.0264689 0.0155017
        endloop
    endfacet
    facet normal 0.980026 -0.197419 -0.0239702
        outer loop
            vertex 0.35 -0.0483916 0.0820174
            vertex 0.35 -0.0436311 0.0428099
            vertex 0.355032 -0.0204235 0.0574062
        endloop
    endfacet
    facet normal -0.189362 0.501196 0.84436
        outer loop
            vertex 0.0465487 0.0219325 0.124119
            vertex 0.034672 0.0390413 0.1113
            vertex 0.0159295 0.0312474 0.111723
        endloop
    endfacet
    facet normal 0.000942183 0.0104538 -0.999945
        outer loop
            vertex -0.0275538 -0.0399277 -0.000277844
            vertex -0.0463033 -0.0154579 -3.96935e-005
            vertex 0.0480445 -0.0205247 -3.76599e-006
        endloop
    endfacet
    facet normal 0.000243098 -0.82852 0.55996
        outer loop
            vertex 0.34 -0.0413581 0.110292
            vertex 0.0342129 -0.0440769 0.106402
            vertex 0.34 -0.0512598 0.0956414
        endloop
    endfacet
    facet normal -0.511928 -0.817324 0.264406
        outer loop
            vertex -0.00384268 -0.0590073 0.0660865
            vertex -0.0229173 -0.0473273 0.0652602
            vertex -0.0193201 -0.0548844 0.0488646
        endloop
    endfacet
    facet normal -0.403931 0.154134 0.901711
        outer loop
            vertex 0.0236134 0.0150745 0.121235
            vertex -0.0027215 0.00487175 0.111182
            vertex 0.0136864 0.00458568 0.118581
        endloop
    endfacet
    facet normal 0.00247598 -0.999911 -0.013147
        outer loop
            vertex -0.00384268 -0.0590073 0.0660865
            vertex -0.00722107 -0.0582694 0.00932868
            vertex 0.34 -0.0579477 0.0502534
        endloop
    endfacet
    facet normal -0.45252 -0.429731 0.781381
        outer loop
            vertex 0.0188532 -0.02563 0.116431
            vertex -0.00826552 -0.0199874 0.103829
            vertex 0.0116629 -0.0340049 0.107661
        endloop
    endfacet
    facet normal 0.071051 0.720145 -0.690176
        outer loop
            vertex 0.34 0.051038 0.0375055
            vertex 0.34 0.0349611 0.0207305
            vertex -0.00731601 0.058235 0.00926016
        endloop
    endfacet
    facet normal 0.981744 0.185428 0.0423571
        outer loop
            vertex 0.35 0.0409844 0.0970457
            vertex 0.354005 0.0265615 0.067358
            vertex 0.35 0.0478993 0.0667741
        endloop
    endfacet
    facet normal 0.0726044 -0.593063 -0.801876
        outer loop
            vertex -0.00305839 -0.0465535 -0.00070546
            vertex 0.34 -0.0264689 0.0155017
            vertex 0.34 -0.0424459 0.0273182
        endloop
    endfacet
    facet normal 0.0562786 0.272612 -0.960477
        outer loop
            vertex -0.0111465 0.0478657 -0.000521787
            vertex 0.34 0.0152675 0.0108011
            vertex 0.043435 0.0384407 1.28705e-006
        endloop
    endfacet
    facet normal -0.425069 0.54081 -0.725839
        outer loop
            vertex -0.0447332 0.0383099 0.01
            vertex -0.0273872 0.0519436 0.01
            vertex -0.0390048 0.0293093 -6.08801e-005
        endloop
    endfacet
    facet normal -0.825821 -0.324951 0.460897
        outer loop
            vertex -0.0449134 -0.0288597 0.05301
            vertex -0.0322931 -0.0310046 0.0741104
            vertex -0.0501987 -0.0142588 0.0538342
        endloop
    endfacet
    facet normal 0.766058 0.617394 -0.17883
        outer loop
            vertex 0.35 0.0402148 0.040244
            vertex 0.34 0.0579477 0.0586281
            vertex 0.35 0.0478993 0.0667741
        endloop
    endfacet
    facet normal -0.699528 0.688952 0.189753
        outer loop
            vertex -0.0329199 0.0425676 0.0572908
            vertex -0.0292424 0.0507835 0.0410178
            vertex -0.0378073 0.0443771 0.0327034
        endloop
    endfacet
    facet normal -0.861549 0.494171 -0.116313
        outer loop
            vertex -0.0447332 0.0383099 0.01
            vertex -0.0549819 0.0204421 0.01
            vertex -0.0561799 0.0206108 0.0195905
        endloop
    endfacet
    facet normal 0.980095 -0.031846 -0.19596
        outer loop
            vertex 0.35 0.012113 0.0190742
            vertex 0.354654 0.00883072 0.0428847
            vertex 0.35 -0.0187111 0.0240835
        endloop
    endfacet
    facet normal -0.933907 0.208545 0.290389
        outer loop
            vertex -0.0481415 0.0225085 0.0519063
            vertex -0.056043 0.00374546 0.0399695
            vertex -0.0491051 0.0115892 0.0566491
        endloop
    endfacet
    facet normal -0.680037 -0.276481 -0.679049
        outer loop
            vertex -0.0597982 -0.00476101 0.00911949
            vertex -0.0463033 -0.0154579 -3.96935e-005
            vertex -0.0502814 -0.0303312 0.01
        endloop
    endfacet
    facet normal -0.217714 -0.631234 -0.744409
        outer loop
            vertex -0.032641 -0.0502937 0.01
            vertex -0.0275538 -0.0399277 -0.000277844
            vertex -0.00722107 -0.0582694 0.00932868
        endloop
    endfacet
    facet normal -0.637383 5.26059e-005 -0.770548
        outer loop
            vertex -0.0590003 0.0017048 0.0104642
            vertex -0.0463469 0.00753206 -2.05819e-006
            vertex -0.0463033 -0.0154579 -3.96935e-005
        endloop
    endfacet
    facet normal 3.51685e-005 0.99692 0.0784245
        outer loop
            vertex -0.00184241 0.0584519 0.0691646
            vertex 0.010086 0.0578098 0.0773215
            vertex 0.34 0.0579477 0.0754206
        endloop
    endfacet
    facet normal -0.929183 0.0406494 0.367379
        outer loop
            vertex -0.056043 0.00374546 0.0399695
            vertex -0.0479513 -0.00329401 0.0612141
            vertex -0.0491051 0.0115892 0.0566491
        endloop
    endfacet
    facet normal -0.701024 -0.349192 0.621796
        outer loop
            vertex -0.0322931 -0.0310046 0.0741104
            vertex -0.0177685 -0.0303069 0.0908775
            vertex -0.0345928 -0.0172633 0.0792346
        endloop
    endfacet
    facet normal -0.299594 -0.954014 -0.0100024
        outer loop
            vertex -0.032641 -0.0502937 0.01
            vertex -0.00722107 -0.0582694 0.00932868
            vertex -0.0193201 -0.0548844 0.0488646
        endloop
    endfacet
    facet normal -0.856197 -0.474038 0.205462
        outer loop
            vertex -0.0438709 -0.0387349 0.0345704
            vertex -0.0449134 -0.0288597 0.05301
            vertex -0.0565452 -0.020507 0.0238093
        endloop
    endfacet
    facet normal -0.571447 0.719519 0.394641
        outer loop
            vertex -0.0329199 0.0425676 0.0572908
            vertex -0.0159861 0.0448635 0.0776253
            vertex -0.0212003 0.0505151 0.0597709
        endloop
    endfacet
    facet normal -0.825209 -0.313347 0.46994
        outer loop
            vertex -0.0322931 -0.0310046 0.0741104
            vertex -0.0345928 -0.0172633 0.0792346
            vertex -0.0501987 -0.0142588 0.0538342
        endloop
    endfacet
    facet normal 0.970578 -0.0193696 0.240008
        outer loop
            vertex 0.35 -0.0234117 0.112611
            vertex 0.35703 -0.00197618 0.085912
            vertex 0.35 0.0116051 0.115437
        endloop
    endfacet
    facet normal -0.627691 -0.315274 0.711763
        outer loop
            vertex -0.0258907 -0.00813311 0.0935365
            vertex -0.0177685 -0.0303069 0.0908775
            vertex -0.00826552 -0.0199874 0.103829
        endloop
    endfacet
    facet normal -0.744829 0.63812 0.195017
        outer loop
            vertex -0.0329199 0.0425676 0.0572908
            vertex -0.0378073 0.0443771 0.0327034
            vertex -0.0424303 0.0340737 0.0487608
        endloop
    endfacet
    facet normal 0.00135951 0.999992 -0.00374492
        outer loop
            vertex -0.00184241 0.0584519 0.0691646
            vertex 0.34 0.0579477 0.0586281
            vertex -0.00731601 0.058235 0.00926016
        endloop
    endfacet
    facet normal -1.0148e-005 0.106556 0.994307
        outer loop
            vertex 0.0465487 0.0219325 0.124119
            vertex 0.0485477 -0.00291652 0.126782
            vertex 0.34 -0.00249679 0.12674
        endloop
    endfacet
    facet normal 0.696586 0.517994 -0.496438
        outer loop
            vertex 0.35 0.0402148 0.040244
            vertex 0.34 0.0349611 0.0207305
            vertex 0.34 0.051038 0.0375055
        endloop
    endfacet
    facet normal -0.308232 0.8121 0.495467
        outer loop
            vertex 0.0217984 0.0536287 0.0914609
            vertex 0.010086 0.0578098 0.0773215
            vertex -0.0018 0.0474669 0.0868798
        endloop
    endfacet
    facet normal -0.746384 0.341612 0.57115
        outer loop
            vertex -0.0260898 0.0138131 0.0911492
            vertex -0.0230885 0.031202 0.0846708
            vertex -0.0362442 0.0293584 0.0685815
        endloop
    endfacet
    facet normal -0.606158 0.000766164 0.795344
        outer loop
            vertex -0.0258907 -0.00813311 0.0935365
            vertex -0.0115287 -0.00889844 0.104483
            vertex -0.0027215 0.00487175 0.111182
        endloop
    endfacet
    facet normal -0.847935 0.479947 0.22507
        outer loop
            vertex -0.0481415 0.0225085 0.0519063
            vertex -0.0424303 0.0340737 0.0487608
            vertex -0.0465755 0.0352079 0.0307254
        endloop
    endfacet
    facet normal 0.00104735 0.967732 0.251979
        outer loop
            vertex 0.010086 0.0578098 0.0773215
            vertex 0.34 0.0535744 0.0922164
            vertex 0.34 0.0579477 0.0754206
        endloop
    endfacet
    facet normal -0.465503 0.852063 0.239363
        outer loop
            vertex -0.00184241 0.0584519 0.0691646
            vertex -0.0167035 0.0559143 0.0492965
            vertex -0.0212003 0.0505151 0.0597709
        endloop
    endfacet
    facet normal -0.837885 0.5458 0.00721014
        outer loop
            vertex -0.0447332 0.0383099 0.01
            vertex -0.0561799 0.0206108 0.0195905
            vertex -0.0465755 0.0352079 0.0307254
        endloop
    endfacet
    facet normal -0.567077 0.353263 0.744063
        outer loop
            vertex -0.000108412 0.0193696 0.109621
            vertex -0.00501754 0.032794 0.099506
            vertex -0.0161157 0.0135485 0.100185
        endloop
    endfacet
    facet normal 0.807505 0.312984 0.499978
        outer loop
            vertex 0.34 0.0249627 0.123226
            vertex 0.35 0.0116051 0.115437
            vertex 0.35 0.0409844 0.0970457
        endloop
    endfacet
    facet normal -0.74928 0.33764 0.569717
        outer loop
            vertex -0.040645 0.0131532 0.0723976
            vertex -0.0260898 0.0138131 0.0911492
            vertex -0.0362442 0.0293584 0.0685815
        endloop
    endfacet
    facet normal -0.75027 0.0647652 0.657952
        outer loop
            vertex -0.0258907 -0.00813311 0.0935365
            vertex -0.0260898 0.0138131 0.0911492
            vertex -0.0363418 -0.00298349 0.0811121
        endloop
    endfacet
    facet normal 0.995931 0.0834379 -0.0340393
        outer loop
            vertex 0.35703 -0.00197618 0.085912
            vertex 0.354654 0.00883072 0.0428847
            vertex 0.354005 0.0265615 0.067358
        endloop
    endfacet
    facet normal -0.243247 0.6252 0.74159
        outer loop
            vertex 0.0159295 0.0312474 0.111723
            vertex 0.034672 0.0390413 0.1113
            vertex 0.0118078 0.0441025 0.0995335
        endloop
    endfacet
    facet normal -0.168679 -0.091341 0.98143
        outer loop
            vertex 0.0485477 -0.00291652 0.126782
            vertex 0.0314165 0.00212653 0.124307
            vertex 0.0272909 -0.0126144 0.122226
        endloop
    endfacet
    facet normal 0.000664502 -0.540782 0.841162
        outer loop
            vertex 0.0360276 -0.0342876 0.11519
            vertex 0.34 -0.0227288 0.122381
            vertex 0.0487672 -0.0224256 0.122806
        endloop
    endfacet
    facet normal -0.299573 0.953956 -0.0149461
        outer loop
            vertex -0.00731601 0.058235 0.00926016
            vertex -0.0273872 0.0519436 0.01
            vertex -0.0167035 0.0559143 0.0492965
        endloop
    endfacet
    facet normal -0.00260872 -0.990041 0.140756
        outer loop
            vertex -0.00384268 -0.0590073 0.0660865
            vertex 0.34 -0.0579477 0.0799121
            vertex 0.0161293 -0.0567768 0.0821454
        endloop
    endfacet
    facet normal -0.320997 -0.0535114 0.945567
        outer loop
            vertex 0.0101756 -0.0121511 0.116442
            vertex 0.0272909 -0.0126144 0.122226
            vertex 0.0136864 0.00458568 0.118581
        endloop
    endfacet
    facet normal -0.428377 0.438606 0.790012
        outer loop
            vertex 0.0159295 0.0312474 0.111723
            vertex -0.00501754 0.032794 0.099506
            vertex -0.000108412 0.0193696 0.109621
        endloop
    endfacet
    facet normal -0.243859 -0.593676 0.766865
        outer loop
            vertex 0.0188532 -0.02563 0.116431
            vertex 0.0116629 -0.0340049 0.107661
            vertex 0.0360276 -0.0342876 0.11519
        endloop
    endfacet
    facet normal -0.318303 -0.205676 0.925408
        outer loop
            vertex 0.0188532 -0.02563 0.116431
            vertex 0.0272909 -0.0126144 0.122226
            vertex 0.0101756 -0.0121511 0.116442
        endloop
    endfacet
    facet normal -0.166453 -0.309003 0.936382
        outer loop
            vertex 0.0188532 -0.02563 0.116431
            vertex 0.0487672 -0.0224256 0.122806
            vertex 0.0272909 -0.0126144 0.122226
        endloop
    endfacet
    facet normal 0.00101743 0.828534 0.559937
        outer loop
            vertex 0.0334062 0.0457481 0.104354
            vertex 0.34 0.0438571 0.106595
            vertex 0.34 0.0535744 0.0922164
        endloop
    endfacet
    facet normal -0.452346 -0.291904 0.842719
        outer loop
            vertex 0.0188532 -0.02563 0.116431
            vertex 0.0101756 -0.0121511 0.116442
            vertex -0.00826552 -0.0199874 0.103829
        endloop
    endfacet
    facet normal -0.176755 -0.603268 -0.777705
        outer loop
            vertex -0.0275538 -0.0399277 -0.000277844
            vertex -0.00305839 -0.0465535 -0.00070546
            vertex -0.00722107 -0.0582694 0.00932868
        endloop
    endfacet
    facet normal -0.665518 -0.613085 0.42569
        outer loop
            vertex -0.0322931 -0.0310046 0.0741104
            vertex -0.033543 -0.041577 0.0569298
            vertex -0.0229173 -0.0473273 0.0652602
        endloop
    endfacet
    facet normal -0.963479 -0.134385 0.231621
        outer loop
            vertex -0.0565452 -0.020507 0.0238093
            vertex -0.0501987 -0.0142588 0.0538342
            vertex -0.056043 0.00374546 0.0399695
        endloop
    endfacet
    facet normal 0.611442 0.655611 0.443073
        outer loop
            vertex 0.35 0.0409844 0.0970457
            vertex 0.34 0.0535744 0.0922164
            vertex 0.34 0.0438571 0.106595
        endloop
    endfacet
    facet normal -0.990344 0.102888 0.0929145
        outer loop
            vertex -0.0597982 -0.00476101 0.00911949
            vertex -0.0561799 0.0206108 0.0195905
            vertex -0.0590003 0.0017048 0.0104642
        endloop
    endfacet
    facet normal -0.726306 0.686311 0.038159
        outer loop
            vertex -0.0447332 0.0383099 0.01
            vertex -0.0465755 0.0352079 0.0307254
            vertex -0.0378073 0.0443771 0.0327034
        endloop
    endfacet
    facet normal -0.412165 0.233992 -0.88055
        outer loop
            vertex -0.0597982 -0.00476101 0.00911949
            vertex -0.0590003 0.0017048 0.0104642
            vertex -0.0463033 -0.0154579 -3.96935e-005
        endloop
    endfacet
    facet normal -0.482395 -0.756568 0.441475
        outer loop
            vertex -0.00384268 -0.0590073 0.0660865
            vertex -0.00950633 -0.0449407 0.0840042
            vertex -0.0229173 -0.0473273 0.0652602
        endloop
    endfacet
    facet normal -0.786462 0.117711 0.606318
        outer loop
            vertex -0.0363418 -0.00298349 0.0811121
            vertex -0.0260898 0.0138131 0.0911492
            vertex -0.040645 0.0131532 0.0723976
        endloop
    endfacet
    facet normal -0.598561 -0.221543 0.769833
        outer loop
            vertex -0.0258907 -0.00813311 0.0935365
            vertex -0.00826552 -0.0199874 0.103829
            vertex -0.0115287 -0.00889844 0.104483
        endloop
    endfacet
    facet normal -0.619535 0.365703 0.694578
        outer loop
            vertex -0.0260898 0.0138131 0.0911492
            vertex -0.0161157 0.0135485 0.100185
            vertex -0.0230885 0.031202 0.0846708
        endloop
    endfacet
    facet normal -0.579046 0.772934 0.259381
        outer loop
            vertex -0.0329199 0.0425676 0.0572908
            vertex -0.0212003 0.0505151 0.0597709
            vertex -0.0292424 0.0507835 0.0410178
        endloop
    endfacet
    facet normal -0.728924 0.652059 0.20854
        outer loop
            vertex -0.0424303 0.0340737 0.0487608
            vertex -0.0378073 0.0443771 0.0327034
            vertex -0.0465755 0.0352079 0.0307254
        endloop
    endfacet
    facet normal 0.987398 0.145356 0.0625878
        outer loop
            vertex 0.35 0.0409844 0.0970457
            vertex 0.35703 -0.00197618 0.085912
            vertex 0.354005 0.0265615 0.067358
        endloop
    endfacet
    facet normal 0.00170773 0.126935 0.99191
        outer loop
            vertex 0.34 0.0249627 0.123226
            vertex 0.0465487 0.0219325 0.124119
            vertex 0.34 -0.00249679 0.12674
        endloop
    endfacet
    facet normal -0.505191 0.769323 0.391056
        outer loop
            vertex -0.00184241 0.0584519 0.0691646
            vertex -0.0212003 0.0505151 0.0597709
            vertex -0.0159861 0.0448635 0.0776253
        endloop
    endfacet
    facet normal -0.300458 0.810279 0.503164
        outer loop
            vertex -0.00184241 0.0584519 0.0691646
            vertex -0.0018 0.0474669 0.0868798
            vertex 0.010086 0.0578098 0.0773215
        endloop
    endfacet
    facet normal -0.88091 0.431802 0.193765
        outer loop
            vertex -0.0481415 0.0225085 0.0519063
            vertex -0.0465755 0.0352079 0.0307254
            vertex -0.0561799 0.0206108 0.0195905
        endloop
    endfacet
    facet normal -0.49161 0.841812 0.222871
        outer loop
            vertex -0.0292424 0.0507835 0.0410178
            vertex -0.0212003 0.0505151 0.0597709
            vertex -0.0167035 0.0559143 0.0492965
        endloop
    endfacet
    facet normal 0.78043 -0.100294 -0.617147
        outer loop
            vertex 0.35 0.012113 0.0190742
            vertex 0.35 -0.0187111 0.0240835
            vertex 0.34 -0.00696498 0.00952884
        endloop
    endfacet
    facet normal -0.233079 0.408341 0.882571
        outer loop
            vertex 0.0465487 0.0219325 0.124119
            vertex 0.0159295 0.0312474 0.111723
            vertex 0.0236134 0.0150745 0.121235
        endloop
    endfacet
    facet normal -0.495594 -0.195747 0.846209
        outer loop
            vertex 0.0101756 -0.0121511 0.116442
            vertex -0.0115287 -0.00889844 0.104483
            vertex -0.00826552 -0.0199874 0.103829
        endloop
    endfacet
    facet normal 0.690879 -0.722971 0
        outer loop
            vertex 0.35 -0.0483916 0.0820174
            vertex 0.34 -0.0579477 0.0799121
            vertex 0.34 -0.0579477 0.0502534
        endloop
    endfacet
    facet normal -0.607696 0.375132 0.699987
        outer loop
            vertex -0.00501754 0.032794 0.099506
            vertex -0.0230885 0.031202 0.0846708
            vertex -0.0161157 0.0135485 0.100185
        endloop
    endfacet
    facet normal -0.597052 -0.591577 0.541817
        outer loop
            vertex -0.0322931 -0.0310046 0.0741104
            vertex -0.00950633 -0.0449407 0.0840042
            vertex -0.0177685 -0.0303069 0.0908775
        endloop
    endfacet
    facet normal 0.0693396 0.670881 -0.738316
        outer loop
            vertex -0.0111465 0.0478657 -0.000521787
            vertex -0.00731601 0.058235 0.00926016
            vertex 0.34 0.0349611 0.0207305
        endloop
    endfacet
    facet normal -0.757341 -0.592521 0.274504
        outer loop
            vertex -0.0438709 -0.0387349 0.0345704
            vertex -0.033543 -0.041577 0.0569298
            vertex -0.0449134 -0.0288597 0.05301
        endloop
    endfacet
    facet normal -0.792104 0.490112 0.363815
        outer loop
            vertex -0.0481415 0.0225085 0.0519063
            vertex -0.0362442 0.0293584 0.0685815
            vertex -0.0424303 0.0340737 0.0487608
        endloop
    endfacet
    facet normal -0.849031 -0.164014 0.502241
        outer loop
            vertex -0.0501987 -0.0142588 0.0538342
            vertex -0.0345928 -0.0172633 0.0792346
            vertex -0.0479513 -0.00329401 0.0612141
        endloop
    endfacet
    facet normal -0.542605 0.590291 0.597609
        outer loop
            vertex -0.00501754 0.032794 0.099506
            vertex -0.0159861 0.0448635 0.0776253
            vertex -0.0230885 0.031202 0.0846708
        endloop
    endfacet
    facet normal -0.146196 -0.418503 0.896372
        outer loop
            vertex 0.0188532 -0.02563 0.116431
            vertex 0.0360276 -0.0342876 0.11519
            vertex 0.0487672 -0.0224256 0.122806
        endloop
    endfacet
    facet normal 0.000854886 -0.544353 0.838855
        outer loop
            vertex 0.0360276 -0.0342876 0.11519
            vertex 0.34 -0.0413581 0.110292
            vertex 0.34 -0.0227288 0.122381
        endloop
    endfacet
    facet normal -0.787939 -0.17416 0.59061
        outer loop
            vertex -0.0258907 -0.00813311 0.0935365
            vertex -0.0363418 -0.00298349 0.0811121
            vertex -0.0345928 -0.0172633 0.0792346
        endloop
    endfacet
    facet normal 0.000116428 -0.830192 0.557477
        outer loop
            vertex 0.0247982 -0.0516043 0.0951942
            vertex 0.34 -0.0512598 0.0956414
            vertex 0.0342129 -0.0440769 0.106402
        endloop
    endfacet
    facet normal 0.000450662 -0.920269 0.391287
        outer loop
            vertex 0.0247982 -0.0516043 0.0951942
            vertex 0.34 -0.0579477 0.0799121
            vertex 0.34 -0.0512598 0.0956414
        endloop
    endfacet
    facet normal -0.11745 -0.199584 0.972816
        outer loop
            vertex 0.0485477 -0.00291652 0.126782
            vertex 0.0272909 -0.0126144 0.122226
            vertex 0.0487672 -0.0224256 0.122806
        endloop
    endfacet
    facet normal 0.00147495 0.999999 0
        outer loop
            vertex -0.00184241 0.0584519 0.0691646
            vertex 0.34 0.0579477 0.0754206
            vertex 0.34 0.0579477 0.0586281
        endloop
    endfacet
    facet normal -0.863274 0.0414475 0.503031
        outer loop
            vertex -0.0363418 -0.00298349 0.0811121
            vertex -0.040645 0.0131532 0.0723976
            vertex -0.0479513 -0.00329401 0.0612141
        endloop
    endfacet
    facet normal -0.548374 0.186606 0.815147
        outer loop
            vertex -0.000108412 0.0193696 0.109621
            vertex -0.0161157 0.0135485 0.100185
            vertex -0.0027215 0.00487175 0.111182
        endloop
    endfacet
    facet normal -0.921649 -0.348871 -0.16986
        outer loop
            vertex -0.0597982 -0.00476101 0.00911949
            vertex -0.0502814 -0.0303312 0.01
            vertex -0.0565452 -0.020507 0.0238093
        endloop
    endfacet
    facet normal -0.860132 0.265164 0.43573
        outer loop
            vertex -0.0481415 0.0225085 0.0519063
            vertex -0.0491051 0.0115892 0.0566491
            vertex -0.040645 0.0131532 0.0723976
        endloop
    endfacet
    facet normal -0.595484 0.803348 -0.00557024
        outer loop
            vertex -0.0292424 0.0507835 0.0410178
            vertex -0.0273872 0.0519436 0.01
            vertex -0.0378073 0.0443771 0.0327034
        endloop
    endfacet
    facet normal -0.355049 -0.672208 0.649674
        outer loop
            vertex 0.0082918 -0.0509844 0.0887696
            vertex 0.0183621 -0.043156 0.102373
            vertex -0.000985643 -0.0370809 0.0980852
        endloop
    endfacet
    facet normal -0.35306 -0.648281 0.674597
        outer loop
            vertex 0.0116629 -0.0340049 0.107661
            vertex -0.000985643 -0.0370809 0.0980852
            vertex 0.0183621 -0.043156 0.102373
        endloop
    endfacet
    facet normal -0.780508 0.507931 0.364435
        outer loop
            vertex -0.0329199 0.0425676 0.0572908
            vertex -0.0424303 0.0340737 0.0487608
            vertex -0.0362442 0.0293584 0.0685815
        endloop
    endfacet
    facet normal -0.431769 0.640864 0.63472
        outer loop
            vertex -0.00501754 0.032794 0.099506
            vertex 0.0118078 0.0441025 0.0995335
            vertex -0.0018 0.0474669 0.0868798
        endloop
    endfacet
    facet normal -0.56931 -0.786972 0.237826
        outer loop
            vertex -0.0338628 -0.0482939 0.0358603
            vertex -0.0193201 -0.0548844 0.0488646
            vertex -0.0229173 -0.0473273 0.0652602
        endloop
    endfacet
    facet normal -0.692066 -0.721465 0.023094
        outer loop
            vertex -0.0438709 -0.0387349 0.0345704
            vertex -0.032641 -0.0502937 0.01
            vertex -0.0338628 -0.0482939 0.0358603
        endloop
    endfacet
    facet normal -0.970745 0.205092 -0.124869
        outer loop
            vertex -0.0590003 0.0017048 0.0104642
            vertex -0.0561799 0.0206108 0.0195905
            vertex -0.0549819 0.0204421 0.01
        endloop
    endfacet
    facet normal -0.743084 -0.544453 0.389099
        outer loop
            vertex -0.0449134 -0.0288597 0.05301
            vertex -0.033543 -0.041577 0.0569298
            vertex -0.0322931 -0.0310046 0.0741104
        endloop
    endfacet
    facet normal -0.697031 -0.331561 0.635779
        outer loop
            vertex -0.0258907 -0.00813311 0.0935365
            vertex -0.0345928 -0.0172633 0.0792346
            vertex -0.0177685 -0.0303069 0.0908775
        endloop
    endfacet
    facet normal -0.312813 -0.0463786 0.948682
        outer loop
            vertex 0.0136864 0.00458568 0.118581
            vertex 0.0272909 -0.0126144 0.122226
            vertex 0.0314165 0.00212653 0.124307
        endloop
    endfacet
    facet normal -0.209759 -0.720991 0.660434
        outer loop
            vertex 0.0247982 -0.0516043 0.0951942
            vertex 0.0342129 -0.0440769 0.106402
            vertex 0.0183621 -0.043156 0.102373
        endloop
    endfacet
    facet normal 0.759422 -0.390845 -0.520114
        outer loop
            vertex 0.35 -0.0436311 0.0428099
            vertex 0.34 -0.0424459 0.0273182
            vertex 0.35 -0.0187111 0.0240835
        endloop
    endfacet
    facet normal -0.225896 -0.627236 0.74535
        outer loop
            vertex 0.0360276 -0.0342876 0.11519
            vertex 0.0183621 -0.043156 0.102373
            vertex 0.0342129 -0.0440769 0.106402
        endloop
    endfacet
    facet normal -0.411328 -0.0301438 0.910989
        outer loop
            vertex -0.0027215 0.00487175 0.111182
            vertex 0.0101756 -0.0121511 0.116442
            vertex 0.0136864 0.00458568 0.118581
        endloop
    endfacet
    facet normal -0.240085 -0.611449 0.753982
        outer loop
            vertex 0.0116629 -0.0340049 0.107661
            vertex 0.0183621 -0.043156 0.102373
            vertex 0.0360276 -0.0342876 0.11519
        endloop
    endfacet
    facet normal 0.00308162 -0.999995 0
        outer loop
            vertex -0.00384268 -0.0590073 0.0660865
            vertex 0.34 -0.0579477 0.0502534
            vertex 0.34 -0.0579477 0.0799121
        endloop
    endfacet
    facet normal -0.11436 0.0967583 0.988716
        outer loop
            vertex 0.0465487 0.0219325 0.124119
            vertex 0.0314165 0.00212653 0.124307
            vertex 0.0485477 -0.00291652 0.126782
        endloop
    endfacet
    facet normal 0.00120729 -0.210617 0.977568
        outer loop
            vertex 0.34 -0.00249679 0.12674
            vertex 0.0487672 -0.0224256 0.122806
            vertex 0.34 -0.0227288 0.122381
        endloop
    endfacet
    facet normal -0.269887 -0.734588 0.622528
        outer loop
            vertex 0.0247982 -0.0516043 0.0951942
            vertex 0.0183621 -0.043156 0.102373
            vertex 0.0082918 -0.0509844 0.0887696
        endloop
    endfacet
    facet normal -0.363866 0.337683 0.868085
        outer loop
            vertex 0.0236134 0.0150745 0.121235
            vertex 0.0159295 0.0312474 0.111723
            vertex -0.000108412 0.0193696 0.109621
        endloop
    endfacet
    facet normal 0.760764 0.63273 0.144534
        outer loop
            vertex 0.35 0.0409844 0.0970457
            vertex 0.35 0.0478993 0.0667741
            vertex 0.34 0.0579477 0.0754206
        endloop
    endfacet
    facet normal 0.778432 -0.0504961 0.625695
        outer loop
            vertex 0.35 -0.0234117 0.112611
            vertex 0.35 0.0116051 0.115437
            vertex 0.34 -0.00249679 0.12674
        endloop
    endfacet
    facet normal -0.990385 0.103235 0.0920885
        outer loop
            vertex -0.0597982 -0.00476101 0.00911949
            vertex -0.056043 0.00374546 0.0399695
            vertex -0.0561799 0.0206108 0.0195905
        endloop
    endfacet
    facet normal -0.309234 0.7824 0.540577
        outer loop
            vertex 0.0217984 0.0536287 0.0914609
            vertex -0.0018 0.0474669 0.0868798
            vertex 0.0118078 0.0441025 0.0995335
        endloop
    endfacet
    facet normal -0.00373545 0.597956 0.80152
        outer loop
            vertex 0.34 0.0249627 0.123226
            vertex 0.034672 0.0390413 0.1113
            vertex 0.0465487 0.0219325 0.124119
        endloop
    endfacet
    facet normal -0.408285 0.170154 0.896856
        outer loop
            vertex 0.0236134 0.0150745 0.121235
            vertex -0.000108412 0.0193696 0.109621
            vertex -0.0027215 0.00487175 0.111182
        endloop
    endfacet
endsolid D:/Users/Paul Maroldt/Documents/!StartUp_Repositories/module_type_database/L116-350_convdec.stl_created_by_BoundingMesh