solid D:/Users/Paul Maroldt/Documents/!StartUp_Repositories/module_type_database/0067_D148/D148-romeo-proximal_convdec.stl_created_by_BoundingMesh
    facet normal -0.407465 0.225613 -0.884913
        outer loop
            vertex -0.0513305 0.0410475 -0.000210963
            vertex -0.103761 0.00599245 0.0149936
            vertex -0.104482 0.021669 0.0193224
        endloop
    endfacet
    facet normal -0.117525 0.975026 0.188447
        outer loop
            vertex 0.0180634 0.07096 0.126868
            vertex -0.105454 0.059502 0.10912
            vertex -0.103973 0.0570433 0.122765
        endloop
    endfacet
    facet normal 0.987877 0.0545435 0.145339
        outer loop
            vertex 0.0731485 -0.00723019 0.157237
            vertex 0.069 0.0384168 0.168304
            vertex 0.069 0.0133612 0.177707
        endloop
    endfacet
    facet normal -0.00038648 0.00135263 -0.999999
        outer loop
            vertex 0.040547 -0.0497314 -0.000179547
            vertex -0.0253184 0.0581554 -8.16064e-006
            vertex -0.00520345 0.0632129 -9.09376e-006
        endloop
    endfacet
    facet normal 0.0766652 -0.674244 -0.734518
        outer loop
            vertex 0.0131304 -0.0734478 0.0109283
            vertex -0.00477838 -0.0635653 -1.24801e-005
            vertex 0.0180219 -0.0609809 -5.02857e-006
        endloop
    endfacet
    facet normal -0.595311 0.211454 0.775173
        outer loop
            vertex -0.10408 0.00520734 0.16547
            vertex -0.104047 0.0231093 0.160612
            vertex -0.115484 0.0173931 0.153388
        endloop
    endfacet
    facet normal -0.671835 0.533891 0.513419
        outer loop
            vertex -0.105603 0.0391413 0.151399
            vertex -0.115813 0.0416442 0.135436
            vertex -0.115484 0.0317156 0.146191
        endloop
    endfacet
    facet normal -0.999984 0.00523338 -0.00221092
        outer loop
            vertex -0.11566 0.0264147 0.0301839
            vertex -0.115813 0.0416442 0.135436
            vertex -0.115604 0.0518865 0.0651493
        endloop
    endfacet
    facet normal -0.00126773 -0.0111334 -0.999937
        outer loop
            vertex -0.0522337 -0.0401908 -0.000168144
            vertex 0.040547 -0.0497314 -0.000179547
            vertex -0.0264263 -0.0576426 -6.55369e-006
        endloop
    endfacet
    facet normal -0.334305 0.920529 0.202155
        outer loop
            vertex -0.110668 0.0563692 0.114763
            vertex -0.103973 0.0570433 0.122765
            vertex -0.105454 0.059502 0.10912
        endloop
    endfacet
    facet normal -0.999999 -0.000105913 0.00137252
        outer loop
            vertex -0.115779 -7.34675e-006 0.156997
            vertex -0.115813 0.0416442 0.135436
            vertex -0.115935 -0.0391889 0.0403142
        endloop
    endfacet
    facet normal -0.626233 0.341876 0.70068
        outer loop
            vertex -0.105603 0.0391413 0.151399
            vertex -0.115484 0.0317156 0.146191
            vertex -0.104047 0.0231093 0.160612
        endloop
    endfacet
    facet normal -0.017839 0.983517 0.179933
        outer loop
            vertex 0.0180634 0.07096 0.126868
            vertex 0.069 0.074228 0.114055
            vertex 0.020822 0.0739791 0.110639
        endloop
    endfacet
    facet normal 0.638879 0.225249 -0.735592
        outer loop
            vertex 0.065845 0.000900629 -0.000170452
            vertex 0.0555658 0.0305875 -7.62043e-006
            vertex 0.072354 0.0185671 0.0108925
        endloop
    endfacet
    facet normal 0.497312 0.391938 -0.773993
        outer loop
            vertex 0.0600072 0.0468378 0.011075
            vertex 0.0555658 0.0305875 -7.62043e-006
            vertex 0.0427264 0.0468783 -7.87819e-006
        endloop
    endfacet
    facet normal -0.234723 0.683722 -0.690963
        outer loop
            vertex -0.0115123 0.0740198 0.011
            vertex -0.0253184 0.0581554 -8.16064e-006
            vertex -0.0348 0.0660251 0.011
        endloop
    endfacet
    facet normal -0.164732 0.655044 -0.737415
        outer loop
            vertex -0.0115123 0.0740198 0.011
            vertex -0.00520345 0.0632129 -9.09376e-006
            vertex -0.0253184 0.0581554 -8.16064e-006
        endloop
    endfacet
    facet normal 0.0522895 -0.997987 -0.0358784
        outer loop
            vertex 0.0709984 -0.0735463 0.0980053
            vertex 0.069 -0.074228 0.114055
            vertex 0.0131304 -0.0734478 0.0109283
        endloop
    endfacet
    facet normal 0.980068 -3.72041e-005 0.19866
        outer loop
            vertex 0.0731485 -0.00723019 0.157237
            vertex 0.069 0.0133612 0.177707
            vertex 0.069 -0.0133738 0.177702
        endloop
    endfacet
    facet normal 0.999444 0.0317332 0.0101913
        outer loop
            vertex 0.071196 0.0733992 0.0976551
            vertex 0.0731485 -0.00723019 0.157237
            vertex 0.0745022 -0.00298257 0.0112552
        endloop
    endfacet
    facet normal -0.352015 0.124107 -0.92773
        outer loop
            vertex -0.0513305 0.0410475 -0.000210963
            vertex -0.0661141 0.000692617 -1.04308e-010
            vertex -0.103761 0.00599245 0.0149936
        endloop
    endfacet
    facet normal 0.297191 -0.606512 -0.737442
        outer loop
            vertex 0.040547 -0.0497314 -0.000179547
            vertex 0.0355852 -0.0657556 0.011
            vertex 0.0180219 -0.0609809 -5.02857e-006
        endloop
    endfacet
    facet normal -0.00354136 -0.00393028 -0.999986
        outer loop
            vertex -0.0513305 0.0410475 -0.000210963
            vertex 0.040547 -0.0497314 -0.000179547
            vertex -0.0661141 0.000692617 -1.04308e-010
        endloop
    endfacet
    facet normal 0.0701655 0.996693 -0.0409746
        outer loop
            vertex 0.071196 0.0733992 0.0976551
            vertex 0.0114441 0.0740432 0.011
            vertex 0.069 0.074228 0.114055
        endloop
    endfacet
    facet normal 0.0298447 -0.0147322 -0.999446
        outer loop
            vertex 0.065845 0.000900629 -0.000170452
            vertex 0.0563232 -0.0294361 -7.6102e-006
            vertex 0.040547 -0.0497314 -0.000179547
        endloop
    endfacet
    facet normal -0.116585 0.896036 0.428401
        outer loop
            vertex 0.0180634 0.07096 0.126868
            vertex -0.103973 0.0570433 0.122765
            vertex 0.0194931 0.0633787 0.143114
        endloop
    endfacet
    facet normal -0.0162529 0.905518 0.423996
        outer loop
            vertex 0.0180634 0.07096 0.126868
            vertex 0.0194931 0.0633787 0.143114
            vertex 0.069 0.0659623 0.139494
        endloop
    endfacet
    facet normal -0.420411 0.6514 -0.631611
        outer loop
            vertex -0.109648 0.0473616 0.0415718
            vertex -0.0348 0.0660251 0.011
            vertex -0.10381 0.0373961 0.0274082
        endloop
    endfacet
    facet normal 0.00346087 -0.779195 0.626772
        outer loop
            vertex 0.0194944 -0.0633794 0.143114
            vertex 0.069 -0.0534868 0.155139
            vertex 0.0194148 -0.0519567 0.157315
        endloop
    endfacet
    facet normal -0.414468 -0.2183 -0.883494
        outer loop
            vertex -0.107928 -0.0283822 0.0230416
            vertex -0.10795 -0.00604872 0.0175336
            vertex -0.0522337 -0.0401908 -0.000168144
        endloop
    endfacet
    facet normal -0.107923 -0.103733 0.988733
        outer loop
            vertex -0.104139 -0.0189319 0.162931
            vertex 0.0198552 -0.00516211 0.17791
            vertex -0.10408 0.00520734 0.16547
        endloop
    endfacet
    facet normal -0.344116 -0.832688 0.433838
        outer loop
            vertex -0.111375 -0.0479701 0.13577
            vertex -0.10687 -0.0566185 0.122744
            vertex -0.104541 -0.0507396 0.135875
        endloop
    endfacet
    facet normal 0.989821 -0.0936328 0.107182
        outer loop
            vertex 0.0731485 -0.00723019 0.157237
            vertex 0.069 -0.0384168 0.168304
            vertex 0.069 -0.0534868 0.155139
        endloop
    endfacet
    facet normal -0.559189 -0.0853696 0.824633
        outer loop
            vertex -0.104139 -0.0189319 0.162931
            vertex -0.10408 0.00520734 0.16547
            vertex -0.115779 -7.34675e-006 0.156997
        endloop
    endfacet
    facet normal 0.981588 -0.0671113 0.178833
        outer loop
            vertex 0.0731485 -0.00723019 0.157237
            vertex 0.069 -0.0133738 0.177702
            vertex 0.069 -0.0384168 0.168304
        endloop
    endfacet
    facet normal 0.992992 -0.0923977 0.073679
        outer loop
            vertex 0.0731485 -0.00723019 0.157237
            vertex 0.069 -0.0534868 0.155139
            vertex 0.069 -0.0659623 0.139494
        endloop
    endfacet
    facet normal -0.118585 -0.957577 0.26265
        outer loop
            vertex -0.106242 -0.0594117 0.112844
            vertex 0.0180929 -0.0709651 0.126859
            vertex -0.10687 -0.0566185 0.122744
        endloop
    endfacet
    facet normal 0.00221137 0.00172704 -0.999996
        outer loop
            vertex 0.040547 -0.0497314 -0.000179547
            vertex 0.0427264 0.0468783 -7.87819e-006
            vertex 0.0555658 0.0305875 -7.62043e-006
        endloop
    endfacet
    facet normal 0.936332 0.333932 0.108502
        outer loop
            vertex 0.071196 0.0733992 0.0976551
            vertex 0.069 0.074228 0.114055
            vertex 0.069 0.0659623 0.139494
        endloop
    endfacet
    facet normal 0.995266 0.0721848 0.0650695
        outer loop
            vertex 0.071196 0.0733992 0.0976551
            vertex 0.069 0.0659623 0.139494
            vertex 0.0731485 -0.00723019 0.157237
        endloop
    endfacet
    facet normal -0.0157477 0.236295 0.971554
        outer loop
            vertex 0.020686 0.0272786 0.173539
            vertex 0.0199456 0.00922035 0.177919
            vertex 0.069 0.0133612 0.177707
        endloop
    endfacet
    facet normal -0.723331 0.605752 0.331446
        outer loop
            vertex -0.1081 0.0514502 0.134347
            vertex -0.115664 0.0506561 0.119291
            vertex -0.115813 0.0416442 0.135436
        endloop
    endfacet
    facet normal 0.0204397 0.351284 0.936046
        outer loop
            vertex 0.020686 0.0272786 0.173539
            vertex 0.069 0.0133612 0.177707
            vertex 0.069 0.0384168 0.168304
        endloop
    endfacet
    facet normal -0.116263 -0.898659 0.422961
        outer loop
            vertex 0.0194944 -0.0633794 0.143114
            vertex -0.104541 -0.0507396 0.135875
            vertex -0.10687 -0.0566185 0.122744
        endloop
    endfacet
    facet normal 0.466004 -0.598759 -0.651405
        outer loop
            vertex 0.0600303 -0.0467417 0.0110104
            vertex 0.0355852 -0.0657556 0.011
            vertex 0.040547 -0.0497314 -0.000179547
        endloop
    endfacet
    facet normal 0.31615 0.92492 -0.211123
        outer loop
            vertex 0.071196 0.0733992 0.0976551
            vertex 0.0692691 0.0689373 0.0752223
            vertex 0.0114441 0.0740432 0.011
        endloop
    endfacet
    facet normal -0.563381 0.195734 -0.802677
        outer loop
            vertex -0.115823 0.002112 0.0225134
            vertex -0.104482 0.021669 0.0193224
            vertex -0.103761 0.00599245 0.0149936
        endloop
    endfacet
    facet normal 0.667171 -0.29309 -0.684822
        outer loop
            vertex 0.0600303 -0.0467417 0.0110104
            vertex 0.0563232 -0.0294361 -7.6102e-006
            vertex 0.0724092 -0.0185036 0.0109849
        endloop
    endfacet
    facet normal -0.577254 0.80508 -0.136469
        outer loop
            vertex -0.106799 0.0592548 0.071373
            vertex -0.108036 0.0562277 0.0587475
            vertex -0.115604 0.0518865 0.0651493
        endloop
    endfacet
    facet normal 0.00481728 0.00452951 -0.999978
        outer loop
            vertex -0.0513305 0.0410475 -0.000210963
            vertex -0.0253184 0.0581554 -8.16064e-006
            vertex 0.040547 -0.0497314 -0.000179547
        endloop
    endfacet
    facet normal -0.405544 -0.769711 -0.49303
        outer loop
            vertex -0.0349352 -0.0659787 0.011
            vertex -0.107932 -0.0534026 0.0514102
            vertex -0.107964 -0.0449426 0.0382289
        endloop
    endfacet
    facet normal -0.530345 0.00567185 -0.847763
        outer loop
            vertex -0.115823 0.002112 0.0225134
            vertex -0.103761 0.00599245 0.0149936
            vertex -0.10795 -0.00604872 0.0175336
        endloop
    endfacet
    facet normal -0.668372 0.684671 -0.290698
        outer loop
            vertex -0.109648 0.0473616 0.0415718
            vertex -0.115472 0.0430563 0.0448222
            vertex -0.108036 0.0562277 0.0587475
        endloop
    endfacet
    facet normal 0.0128488 0.657848 0.753041
        outer loop
            vertex 0.0193889 0.051934 0.157342
            vertex 0.069 0.0384168 0.168304
            vertex 0.069 0.0534868 0.155139
        endloop
    endfacet
    facet normal -0.625078 -0.78055 0.00434368
        outer loop
            vertex -0.106759 -0.0592505 0.0674131
            vertex -0.106242 -0.0594117 0.112844
            vertex -0.115524 -0.0519791 0.112739
        endloop
    endfacet
    facet normal 0.98892 -0.132178 -0.0675738
        outer loop
            vertex 0.0709984 -0.0735463 0.0980053
            vertex 0.0724092 -0.0185036 0.0109849
            vertex 0.0745022 -0.00298257 0.0112552
        endloop
    endfacet
    facet normal 0.317302 0.924276 -0.212212
        outer loop
            vertex 0.0114441 0.0740432 0.011
            vertex 0.0692691 0.0689373 0.0752223
            vertex 0.0355852 0.0657556 0.011
        endloop
    endfacet
    facet normal 0.995986 0.0699791 0.0558021
        outer loop
            vertex 0.0731485 -0.00723019 0.157237
            vertex 0.069 0.0659623 0.139494
            vertex 0.069 0.0534868 0.155139
        endloop
    endfacet
    facet normal 0.993962 0.0982623 -0.0488335
        outer loop
            vertex 0.071196 0.0733992 0.0976551
            vertex 0.0745022 -0.00298257 0.0112552
            vertex 0.072354 0.0185671 0.0108925
        endloop
    endfacet
    facet normal 0.883977 0.38775 -0.261217
        outer loop
            vertex 0.0600072 0.0468378 0.011075
            vertex 0.0692691 0.0689373 0.0752223
            vertex 0.072354 0.0185671 0.0108925
        endloop
    endfacet
    facet normal -0.996987 -0.028408 -0.0721841
        outer loop
            vertex -0.115823 0.002112 0.0225134
            vertex -0.115535 -0.0206956 0.0275115
            vertex -0.115935 -0.0391889 0.0403142
        endloop
    endfacet
    facet normal -0.562479 -0.558171 -0.609969
        outer loop
            vertex -0.107928 -0.0283822 0.0230416
            vertex -0.107964 -0.0449426 0.0382289
            vertex -0.115935 -0.0391889 0.0403142
        endloop
    endfacet
    facet normal -0.997967 0.028614 0.0569438
        outer loop
            vertex -0.115484 0.0317156 0.146191
            vertex -0.115813 0.0416442 0.135436
            vertex -0.115484 0.0173931 0.153388
        endloop
    endfacet
    facet normal 0.000310861 0.00421827 -0.999991
        outer loop
            vertex -0.0522337 -0.0401908 -0.000168144
            vertex -0.0661141 0.000692617 -1.04308e-010
            vertex 0.040547 -0.0497314 -0.000179547
        endloop
    endfacet
    facet normal 0.0127466 -0.657849 0.753042
        outer loop
            vertex 0.0194148 -0.0519567 0.157315
            vertex 0.069 -0.0534868 0.155139
            vertex 0.069 -0.0384168 0.168304
        endloop
    endfacet
    facet normal -0.156527 -0.987672 -0.00172327
        outer loop
            vertex -0.0102835 -0.0744416 0.011
            vertex -0.106242 -0.0594117 0.112844
            vertex -0.106759 -0.0592505 0.0674131
        endloop
    endfacet
    facet normal -0.104627 0.23847 0.965497
        outer loop
            vertex 0.020686 0.0272786 0.173539
            vertex -0.10408 0.00520734 0.16547
            vertex 0.0199456 0.00922035 0.177919
        endloop
    endfacet
    facet normal -0.643966 -0.502781 0.576645
        outer loop
            vertex -0.115658 -0.0247153 0.151263
            vertex -0.111375 -0.0479701 0.13577
            vertex -0.105053 -0.0386928 0.150919
        endloop
    endfacet
    facet normal 0.00437681 -0.000653287 0.99999
        outer loop
            vertex 0.0199456 0.00922035 0.177919
            vertex 0.0198552 -0.00516211 0.17791
            vertex 0.069 0.0133612 0.177707
        endloop
    endfacet
    facet normal -0.106145 0.486173 0.867392
        outer loop
            vertex 0.020686 0.0272786 0.173539
            vertex 0.0203078 0.0410997 0.165746
            vertex -0.104047 0.0231093 0.160612
        endloop
    endfacet
    facet normal -0.999988 -0.00439046 -0.00218291
        outer loop
            vertex -0.115658 -0.0247153 0.151263
            vertex -0.115779 -7.34675e-006 0.156997
            vertex -0.115537 -0.0440819 0.134786
        endloop
    endfacet
    facet normal -0.115036 -0.512091 0.851193
        outer loop
            vertex -0.104139 -0.0189319 0.162931
            vertex -0.105053 -0.0386928 0.150919
            vertex 0.0203915 -0.0373105 0.168704
        endloop
    endfacet
    facet normal 0.503387 -0.384745 -0.773675
        outer loop
            vertex 0.0600303 -0.0467417 0.0110104
            vertex 0.040547 -0.0497314 -0.000179547
            vertex 0.0563232 -0.0294361 -7.6102e-006
        endloop
    endfacet
    facet normal -0.179067 -0.65377 -0.735201
        outer loop
            vertex -0.0102835 -0.0744416 0.011
            vertex -0.0264263 -0.0576426 -6.55369e-006
            vertex -0.00477838 -0.0635653 -1.24801e-005
        endloop
    endfacet
    facet normal 0.941979 -0.319243 0.103729
        outer loop
            vertex 0.0709984 -0.0735463 0.0980053
            vertex 0.069 -0.0659623 0.139494
            vertex 0.069 -0.074228 0.114055
        endloop
    endfacet
    facet normal -0.105102 -0.60608 0.788429
        outer loop
            vertex 0.0203915 -0.0373105 0.168704
            vertex -0.105053 -0.0386928 0.150919
            vertex 0.0194148 -0.0519567 0.157315
        endloop
    endfacet
    facet normal -0.626343 0.168482 0.761123
        outer loop
            vertex -0.115779 -7.34675e-006 0.156997
            vertex -0.10408 0.00520734 0.16547
            vertex -0.115484 0.0173931 0.153388
        endloop
    endfacet
    facet normal -0.115248 0.797336 0.59243
        outer loop
            vertex -0.105603 0.0391413 0.151399
            vertex 0.0194931 0.0633787 0.143114
            vertex -0.1081 0.0514502 0.134347
        endloop
    endfacet
    facet normal 0.368201 0.568354 -0.7358
        outer loop
            vertex 0.0207912 0.0609859 -8.73078e-005
            vertex 0.0355852 0.0657556 0.011
            vertex 0.0427264 0.0468783 -7.87819e-006
        endloop
    endfacet
    facet normal 0.77786 -0.0940731 -0.621356
        outer loop
            vertex 0.065845 0.000900629 -0.000170452
            vertex 0.0745022 -0.00298257 0.0112552
            vertex 0.0724092 -0.0185036 0.0109849
        endloop
    endfacet
    facet normal -0.0994554 0.604591 0.790303
        outer loop
            vertex -0.105603 0.0391413 0.151399
            vertex 0.0203078 0.0410997 0.165746
            vertex 0.0193889 0.051934 0.157342
        endloop
    endfacet
    facet normal -0.532011 -0.421717 0.734247
        outer loop
            vertex -0.115658 -0.0247153 0.151263
            vertex -0.105053 -0.0386928 0.150919
            vertex -0.104139 -0.0189319 0.162931
        endloop
    endfacet
    facet normal -0.622441 0.239366 -0.745165
        outer loop
            vertex -0.115823 0.002112 0.0225134
            vertex -0.11566 0.0264147 0.0301839
            vertex -0.104482 0.021669 0.0193224
        endloop
    endfacet
    facet normal 0.883977 -0.38775 -0.261217
        outer loop
            vertex 0.0600303 -0.0467417 0.0110104
            vertex 0.0724092 -0.0185036 0.0109849
            vertex 0.0692549 -0.0689279 0.0751602
        endloop
    endfacet
    facet normal -0.654633 0.691789 -0.304768
        outer loop
            vertex -0.115604 0.0518865 0.0651493
            vertex -0.108036 0.0562277 0.0587475
            vertex -0.115472 0.0430563 0.0448222
        endloop
    endfacet
    facet normal -0.272019 0.941474 -0.199077
        outer loop
            vertex -0.0115123 0.0740198 0.011
            vertex -0.108036 0.0562277 0.0587475
            vertex -0.106799 0.0592548 0.071373
        endloop
    endfacet
    facet normal -0.114265 0.992743 0.0374862
        outer loop
            vertex -0.0115123 0.0740198 0.011
            vertex -0.105454 0.059502 0.10912
            vertex 0.020822 0.0739791 0.110639
        endloop
    endfacet
    facet normal -0.599508 -0.674232 -0.431279
        outer loop
            vertex -0.115935 -0.0391889 0.0403142
            vertex -0.107964 -0.0449426 0.0382289
            vertex -0.107932 -0.0534026 0.0514102
        endloop
    endfacet
    facet normal -0.99795 0.0287742 0.0571599
        outer loop
            vertex -0.115779 -7.34675e-006 0.156997
            vertex -0.115484 0.0173931 0.153388
            vertex -0.115813 0.0416442 0.135436
        endloop
    endfacet
    facet normal 0.0283573 -0.718257 -0.695199
        outer loop
            vertex -0.0102835 -0.0744416 0.011
            vertex -0.00477838 -0.0635653 -1.24801e-005
            vertex 0.0131304 -0.0734478 0.0109283
        endloop
    endfacet
    facet normal -0.555256 -0.793452 -0.249249
        outer loop
            vertex -0.106759 -0.0592505 0.0674131
            vertex -0.115598 -0.0512699 0.0616987
            vertex -0.107932 -0.0534026 0.0514102
        endloop
    endfacet
    facet normal -0.367073 -0.120832 -0.92231
        outer loop
            vertex -0.0522337 -0.0401908 -0.000168144
            vertex -0.10795 -0.00604872 0.0175336
            vertex -0.0661141 0.000692617 -1.04308e-010
        endloop
    endfacet
    facet normal -0.115306 -0.77728 0.618499
        outer loop
            vertex 0.0194944 -0.0633794 0.143114
            vertex -0.105053 -0.0386928 0.150919
            vertex -0.104541 -0.0507396 0.135875
        endloop
    endfacet
    facet normal -0.116976 -0.896058 0.428248
        outer loop
            vertex 0.0180929 -0.0709651 0.126859
            vertex 0.0194944 -0.0633794 0.143114
            vertex -0.10687 -0.0566185 0.122744
        endloop
    endfacet
    facet normal -0.371537 0.573567 -0.730056
        outer loop
            vertex -0.0513305 0.0410475 -0.000210963
            vertex -0.0348 0.0660251 0.011
            vertex -0.0253184 0.0581554 -8.16064e-006
        endloop
    endfacet
    facet normal 0.806451 0.0705108 -0.587082
        outer loop
            vertex 0.065845 0.000900629 -0.000170452
            vertex 0.072354 0.0185671 0.0108925
            vertex 0.0745022 -0.00298257 0.0112552
        endloop
    endfacet
    facet normal 0.317301 -0.924276 -0.212211
        outer loop
            vertex 0.0692549 -0.0689279 0.0751602
            vertex 0.0131304 -0.0734478 0.0109283
            vertex 0.0355852 -0.0657556 0.011
        endloop
    endfacet
    facet normal 0.993902 -0.0896149 0.064255
        outer loop
            vertex 0.0709984 -0.0735463 0.0980053
            vertex 0.0731485 -0.00723019 0.157237
            vertex 0.069 -0.0659623 0.139494
        endloop
    endfacet
    facet normal -0.00627168 0.00331324 -0.999975
        outer loop
            vertex 0.065845 0.000900629 -0.000170452
            vertex 0.040547 -0.0497314 -0.000179547
            vertex 0.0555658 0.0305875 -7.62043e-006
        endloop
    endfacet
    facet normal 0.577525 -0.742306 -0.339773
        outer loop
            vertex 0.0600303 -0.0467417 0.0110104
            vertex 0.0692549 -0.0689279 0.0751602
            vertex 0.0355852 -0.0657556 0.011
        endloop
    endfacet
    facet normal 0.00469575 0.00167098 -0.999988
        outer loop
            vertex 0.0207912 0.0609859 -8.73078e-005
            vertex 0.0427264 0.0468783 -7.87819e-006
            vertex 0.040547 -0.0497314 -0.000179547
        endloop
    endfacet
    facet normal 0.239081 -0.691563 -0.681602
        outer loop
            vertex 0.0355852 -0.0657556 0.011
            vertex 0.0131304 -0.0734478 0.0109283
            vertex 0.0180219 -0.0609809 -5.02857e-006
        endloop
    endfacet
    facet normal -0.414926 -0.58142 -0.699848
        outer loop
            vertex -0.107928 -0.0283822 0.0230416
            vertex -0.0522337 -0.0401908 -0.000168144
            vertex -0.0349352 -0.0659787 0.011
        endloop
    endfacet
    facet normal 0.994205 0.0707267 0.080961
        outer loop
            vertex 0.0731485 -0.00723019 0.157237
            vertex 0.069 0.0534868 0.155139
            vertex 0.069 0.0384168 0.168304
        endloop
    endfacet
    facet normal 0.576709 0.743159 -0.339295
        outer loop
            vertex 0.0600072 0.0468378 0.011075
            vertex 0.0355852 0.0657556 0.011
            vertex 0.0692691 0.0689373 0.0752223
        endloop
    endfacet
    facet normal -0.723757 -0.382128 -0.57459
        outer loop
            vertex -0.107928 -0.0283822 0.0230416
            vertex -0.115935 -0.0391889 0.0403142
            vertex -0.115535 -0.0206956 0.0275115
        endloop
    endfacet
    facet normal -0.0979851 -0.374277 0.922126
        outer loop
            vertex -0.104139 -0.0189319 0.162931
            vertex 0.0203915 -0.0373105 0.168704
            vertex 0.0198943 -0.0191235 0.176033
        endloop
    endfacet
    facet normal -0.109556 -0.980403 0.163731
        outer loop
            vertex -0.106242 -0.0594117 0.112844
            vertex 0.0207632 -0.0739596 0.110715
            vertex 0.0180929 -0.0709651 0.126859
        endloop
    endfacet
    facet normal -0.666767 -0.745207 -0.00938787
        outer loop
            vertex -0.106759 -0.0592505 0.0674131
            vertex -0.115524 -0.0519791 0.112739
            vertex -0.115598 -0.0512699 0.0616987
        endloop
    endfacet
    facet normal -0.666535 -0.701934 0.251038
        outer loop
            vertex -0.10687 -0.0566185 0.122744
            vertex -0.115537 -0.0440819 0.134786
            vertex -0.115524 -0.0519791 0.112739
        endloop
    endfacet
    facet normal -0.616365 -0.767225 0.177367
        outer loop
            vertex -0.106242 -0.0594117 0.112844
            vertex -0.10687 -0.0566185 0.122744
            vertex -0.115524 -0.0519791 0.112739
        endloop
    endfacet
    facet normal 0.0047968 -0.781846 0.623453
        outer loop
            vertex 0.0194944 -0.0633794 0.143114
            vertex 0.069 -0.0659623 0.139494
            vertex 0.069 -0.0534868 0.155139
        endloop
    endfacet
    facet normal -0.618702 -0.511324 0.596453
        outer loop
            vertex -0.115658 -0.0247153 0.151263
            vertex -0.115537 -0.0440819 0.134786
            vertex -0.111375 -0.0479701 0.13577
        endloop
    endfacet
    facet normal -0.656461 -0.173582 0.734117
        outer loop
            vertex -0.115658 -0.0247153 0.151263
            vertex -0.104139 -0.0189319 0.162931
            vertex -0.115779 -7.34675e-006 0.156997
        endloop
    endfacet
    facet normal -0.233374 -0.679798 -0.695278
        outer loop
            vertex -0.0102835 -0.0744416 0.011
            vertex -0.0349352 -0.0659787 0.011
            vertex -0.0264263 -0.0576426 -6.55369e-006
        endloop
    endfacet
    facet normal -0.114313 0.980001 0.16288
        outer loop
            vertex 0.0180634 0.07096 0.126868
            vertex 0.020822 0.0739791 0.110639
            vertex -0.105454 0.059502 0.10912
        endloop
    endfacet
    facet normal -0.114499 -0.774398 0.622252
        outer loop
            vertex 0.0194944 -0.0633794 0.143114
            vertex 0.0194148 -0.0519567 0.157315
            vertex -0.105053 -0.0386928 0.150919
        endloop
    endfacet
    facet normal -0.413114 0.868974 0.272435
        outer loop
            vertex -0.1081 0.0514502 0.134347
            vertex -0.103973 0.0570433 0.122765
            vertex -0.110668 0.0563692 0.114763
        endloop
    endfacet
    facet normal -0.999969 0.00750875 -0.00254014
        outer loop
            vertex -0.115823 0.002112 0.0225134
            vertex -0.115813 0.0416442 0.135436
            vertex -0.11566 0.0264147 0.0301839
        endloop
    endfacet
    facet normal -0.322676 -0.896391 -0.303914
        outer loop
            vertex -0.106759 -0.0592505 0.0674131
            vertex -0.107932 -0.0534026 0.0514102
            vertex -0.0349352 -0.0659787 0.011
        endloop
    endfacet
    facet normal 0.316096 -0.924941 -0.211111
        outer loop
            vertex 0.0709984 -0.0735463 0.0980053
            vertex 0.0131304 -0.0734478 0.0109283
            vertex 0.0692549 -0.0689279 0.0751602
        endloop
    endfacet
    facet normal -0.619316 0.352526 0.701551
        outer loop
            vertex -0.115484 0.0317156 0.146191
            vertex -0.115484 0.0173931 0.153388
            vertex -0.104047 0.0231093 0.160612
        endloop
    endfacet
    facet normal 0.00420117 -0.000187273 0.999991
        outer loop
            vertex 0.069 0.0133612 0.177707
            vertex 0.0198552 -0.00516211 0.17791
            vertex 0.069 -0.0133738 0.177702
        endloop
    endfacet
    facet normal 0.0167128 0.950923 0.308976
        outer loop
            vertex 0.0180634 0.07096 0.126868
            vertex 0.069 0.0659623 0.139494
            vertex 0.069 0.074228 0.114055
        endloop
    endfacet
    facet normal -0.310666 0.904937 -0.290819
        outer loop
            vertex -0.0115123 0.0740198 0.011
            vertex -0.0348 0.0660251 0.011
            vertex -0.108036 0.0562277 0.0587475
        endloop
    endfacet
    facet normal -0.000727278 0.713421 -0.700735
        outer loop
            vertex -0.0115123 0.0740198 0.011
            vertex 0.0114441 0.0740432 0.011
            vertex -0.00520345 0.0632129 -9.09376e-006
        endloop
    endfacet
    facet normal -0.15374 0.988111 -0.000993004
        outer loop
            vertex -0.0115123 0.0740198 0.011
            vertex -0.106799 0.0592548 0.071373
            vertex -0.105454 0.059502 0.10912
        endloop
    endfacet
    facet normal -0.672517 0.493069 -0.55191
        outer loop
            vertex -0.109648 0.0473616 0.0415718
            vertex -0.11566 0.0264147 0.0301839
            vertex -0.115472 0.0430563 0.0448222
        endloop
    endfacet
    facet normal -0.00531752 0.999984 0.00213403
        outer loop
            vertex -0.0115123 0.0740198 0.011
            vertex 0.020822 0.0739791 0.110639
            vertex 0.069 0.074228 0.114055
        endloop
    endfacet
    facet normal -0.376986 -0.0637663 -0.924021
        outer loop
            vertex -0.0661141 0.000692617 -1.04308e-010
            vertex -0.10795 -0.00604872 0.0175336
            vertex -0.103761 0.00599245 0.0149936
        endloop
    endfacet
    facet normal -0.647152 -0.170981 -0.74294
        outer loop
            vertex -0.115823 0.002112 0.0225134
            vertex -0.10795 -0.00604872 0.0175336
            vertex -0.115535 -0.0206956 0.0275115
        endloop
    endfacet
    facet normal -0.381418 -0.570766 -0.727149
        outer loop
            vertex -0.0522337 -0.0401908 -0.000168144
            vertex -0.0264263 -0.0576426 -6.55369e-006
            vertex -0.0349352 -0.0659787 0.011
        endloop
    endfacet
    facet normal -0.999451 0.0275128 -0.018442
        outer loop
            vertex -0.11566 0.0264147 0.0301839
            vertex -0.115604 0.0518865 0.0651493
            vertex -0.115472 0.0430563 0.0448222
        endloop
    endfacet
    facet normal -0.610381 0.745636 0.267323
        outer loop
            vertex -0.1081 0.0514502 0.134347
            vertex -0.110668 0.0563692 0.114763
            vertex -0.115664 0.0506561 0.119291
        endloop
    endfacet
    facet normal -0.371709 0.838686 -0.398043
        outer loop
            vertex -0.109648 0.0473616 0.0415718
            vertex -0.108036 0.0562277 0.0587475
            vertex -0.0348 0.0660251 0.011
        endloop
    endfacet
    facet normal -0.112501 0.909888 0.399309
        outer loop
            vertex -0.1081 0.0514502 0.134347
            vertex 0.0194931 0.0633787 0.143114
            vertex -0.103973 0.0570433 0.122765
        endloop
    endfacet
    facet normal 0.00344457 0.779185 0.626785
        outer loop
            vertex 0.0194931 0.0633787 0.143114
            vertex 0.0193889 0.051934 0.157342
            vertex 0.069 0.0534868 0.155139
        endloop
    endfacet
    facet normal -0.106323 0.48765 0.866541
        outer loop
            vertex -0.105603 0.0391413 0.151399
            vertex -0.104047 0.0231093 0.160612
            vertex 0.0203078 0.0410997 0.165746
        endloop
    endfacet
    facet normal -0.505135 0.862952 0.0123476
        outer loop
            vertex -0.106799 0.0592548 0.071373
            vertex -0.110668 0.0563692 0.114763
            vertex -0.105454 0.059502 0.10912
        endloop
    endfacet
    facet normal -0.311685 -0.746838 0.587439
        outer loop
            vertex -0.111375 -0.0479701 0.13577
            vertex -0.104541 -0.0507396 0.135875
            vertex -0.105053 -0.0386928 0.150919
        endloop
    endfacet
    facet normal -0.664704 -0.654918 -0.359516
        outer loop
            vertex -0.115598 -0.0512699 0.0616987
            vertex -0.115935 -0.0391889 0.0403142
            vertex -0.107932 -0.0534026 0.0514102
        endloop
    endfacet
    facet normal 0.0550747 0.668895 -0.741314
        outer loop
            vertex 0.0207912 0.0609859 -8.73078e-005
            vertex -0.00520345 0.0632129 -9.09376e-006
            vertex 0.0114441 0.0740432 0.011
        endloop
    endfacet
    facet normal -0.425001 -0.611311 -0.667588
        outer loop
            vertex -0.107928 -0.0283822 0.0230416
            vertex -0.0349352 -0.0659787 0.011
            vertex -0.107964 -0.0449426 0.0382289
        endloop
    endfacet
    facet normal 0.00269688 -0.02091 -0.999778
        outer loop
            vertex 0.040547 -0.0497314 -0.000179547
            vertex 0.0180219 -0.0609809 -5.02857e-006
            vertex -0.00477838 -0.0635653 -1.24801e-005
        endloop
    endfacet
    facet normal 0.971022 -0.208775 -0.116313
        outer loop
            vertex 0.0709984 -0.0735463 0.0980053
            vertex 0.0692549 -0.0689279 0.0751602
            vertex 0.0724092 -0.0185036 0.0109849
        endloop
    endfacet
    facet normal -0.0162421 -0.905526 0.423981
        outer loop
            vertex 0.0180929 -0.0709651 0.126859
            vertex 0.069 -0.0659623 0.139494
            vertex 0.0194944 -0.0633794 0.143114
        endloop
    endfacet
    facet normal 0.444235 0.570749 -0.69058
        outer loop
            vertex 0.0600072 0.0468378 0.011075
            vertex 0.0427264 0.0468783 -7.87819e-006
            vertex 0.0355852 0.0657556 0.011
        endloop
    endfacet
    facet normal -0.00188661 -0.00589511 -0.999981
        outer loop
            vertex 0.040547 -0.0497314 -0.000179547
            vertex -0.00477838 -0.0635653 -1.24801e-005
            vertex -0.0264263 -0.0576426 -6.55369e-006
        endloop
    endfacet
    facet normal 0.64367 -0.205985 -0.737061
        outer loop
            vertex 0.065845 0.000900629 -0.000170452
            vertex 0.0724092 -0.0185036 0.0109849
            vertex 0.0563232 -0.0294361 -7.6102e-006
        endloop
    endfacet
    facet normal 0.966827 0.221556 -0.127115
        outer loop
            vertex 0.071196 0.0733992 0.0976551
            vertex 0.072354 0.0185671 0.0108925
            vertex 0.0692691 0.0689373 0.0752223
        endloop
    endfacet
    facet normal -0.74706 0.664603 0.0142756
        outer loop
            vertex -0.110668 0.0563692 0.114763
            vertex -0.115604 0.0518865 0.0651493
            vertex -0.115664 0.0506561 0.119291
        endloop
    endfacet
    facet normal -0.0180744 -0.133271 0.990915
        outer loop
            vertex 0.0198943 -0.0191235 0.176033
            vertex 0.069 -0.0133738 0.177702
            vertex 0.0198552 -0.00516211 0.17791
        endloop
    endfacet
    facet normal -0.000874659 -0.373793 0.927512
        outer loop
            vertex 0.0203915 -0.0373105 0.168704
            vertex 0.069 -0.0384168 0.168304
            vertex 0.0198943 -0.0191235 0.176033
        endloop
    endfacet
    facet normal 0.016763 -0.950922 0.308976
        outer loop
            vertex 0.0180929 -0.0709651 0.126859
            vertex 0.069 -0.074228 0.114055
            vertex 0.069 -0.0659623 0.139494
        endloop
    endfacet
    facet normal 0.0422937 -0.998641 -0.0304681
        outer loop
            vertex -0.0102835 -0.0744416 0.011
            vertex 0.0131304 -0.0734478 0.0109283
            vertex 0.069 -0.074228 0.114055
        endloop
    endfacet
    facet normal -0.693312 -0.687328 0.216561
        outer loop
            vertex -0.111375 -0.0479701 0.13577
            vertex -0.115537 -0.0440819 0.134786
            vertex -0.10687 -0.0566185 0.122744
        endloop
    endfacet
    facet normal -0.630882 -0.18637 -0.753163
        outer loop
            vertex -0.107928 -0.0283822 0.0230416
            vertex -0.115535 -0.0206956 0.0275115
            vertex -0.10795 -0.00604872 0.0175336
        endloop
    endfacet
    facet normal 0.0093176 -0.351333 0.936204
        outer loop
            vertex 0.0198943 -0.0191235 0.176033
            vertex 0.069 -0.0384168 0.168304
            vertex 0.069 -0.0133738 0.177702
        endloop
    endfacet
    facet normal -0.310954 -0.905781 -0.287869
        outer loop
            vertex -0.0102835 -0.0744416 0.011
            vertex -0.106759 -0.0592505 0.0674131
            vertex -0.0349352 -0.0659787 0.011
        endloop
    endfacet
    facet normal -0.650306 0.567579 0.504931
        outer loop
            vertex -0.105603 0.0391413 0.151399
            vertex -0.1081 0.0514502 0.134347
            vertex -0.115813 0.0416442 0.135436
        endloop
    endfacet
    facet normal 0.248606 0.724169 -0.643253
        outer loop
            vertex 0.0207912 0.0609859 -8.73078e-005
            vertex 0.0114441 0.0740432 0.011
            vertex 0.0355852 0.0657556 0.011
        endloop
    endfacet
    facet normal -0.00746552 -0.61353 0.789636
        outer loop
            vertex 0.0203915 -0.0373105 0.168704
            vertex 0.0194148 -0.0519567 0.157315
            vertex 0.069 -0.0384168 0.168304
        endloop
    endfacet
    facet normal -0.00777825 0.612479 0.790448
        outer loop
            vertex 0.0193889 0.051934 0.157342
            vertex 0.0203078 0.0410997 0.165746
            vertex 0.069 0.0384168 0.168304
        endloop
    endfacet
    facet normal -0.639312 0.768925 -0.0058698
        outer loop
            vertex -0.106799 0.0592548 0.071373
            vertex -0.115604 0.0518865 0.0651493
            vertex -0.110668 0.0563692 0.114763
        endloop
    endfacet
    facet normal -0.108916 0.774956 0.62256
        outer loop
            vertex -0.105603 0.0391413 0.151399
            vertex 0.0193889 0.051934 0.157342
            vertex 0.0194931 0.0633787 0.143114
        endloop
    endfacet
    facet normal -0.999997 0.00238937 -0.000747931
        outer loop
            vertex -0.115823 0.002112 0.0225134
            vertex -0.115935 -0.0391889 0.0403142
            vertex -0.115813 0.0416442 0.135436
        endloop
    endfacet
    facet normal -0.999885 0.0151645 -0.000763444
        outer loop
            vertex -0.115604 0.0518865 0.0651493
            vertex -0.115813 0.0416442 0.135436
            vertex -0.115664 0.0506561 0.119291
        endloop
    endfacet
    facet normal -0.00101942 0.999999 -0.00122391
        outer loop
            vertex -0.0115123 0.0740198 0.011
            vertex 0.069 0.074228 0.114055
            vertex 0.0114441 0.0740432 0.011
        endloop
    endfacet
    facet normal -0.409198 0.585078 -0.700172
        outer loop
            vertex -0.0513305 0.0410475 -0.000210963
            vertex -0.10381 0.0373961 0.0274082
            vertex -0.0348 0.0660251 0.011
        endloop
    endfacet
    facet normal -0.444633 0.424509 -0.788729
        outer loop
            vertex -0.0513305 0.0410475 -0.000210963
            vertex -0.104482 0.021669 0.0193224
            vertex -0.10381 0.0373961 0.0274082
        endloop
    endfacet
    facet normal -0.113049 -0.992784 0.0399971
        outer loop
            vertex -0.0102835 -0.0744416 0.011
            vertex 0.0207632 -0.0739596 0.110715
            vertex -0.106242 -0.0594117 0.112844
        endloop
    endfacet
    facet normal -0.999662 -0.0259584 0.00108864
        outer loop
            vertex -0.115598 -0.0512699 0.0616987
            vertex -0.115524 -0.0519791 0.112739
            vertex -0.115935 -0.0391889 0.0403142
        endloop
    endfacet
    facet normal -0.999925 -0.0117129 0.00360588
        outer loop
            vertex -0.115935 -0.0391889 0.0403142
            vertex -0.115524 -0.0519791 0.112739
            vertex -0.115537 -0.0440819 0.134786
        endloop
    endfacet
    facet normal 0.659168 0.292354 -0.692839
        outer loop
            vertex 0.0600072 0.0468378 0.011075
            vertex 0.072354 0.0185671 0.0108925
            vertex 0.0555658 0.0305875 -7.62043e-006
        endloop
    endfacet
    facet normal -0.611504 0.506147 -0.608176
        outer loop
            vertex -0.109648 0.0473616 0.0415718
            vertex -0.10381 0.0373961 0.0274082
            vertex -0.11566 0.0264147 0.0301839
        endloop
    endfacet
    facet normal -0.0179009 -0.983598 0.179484
        outer loop
            vertex 0.0180929 -0.0709651 0.126859
            vertex 0.0207632 -0.0739596 0.110715
            vertex 0.069 -0.074228 0.114055
        endloop
    endfacet
    facet normal -0.999965 -0.00741968 0.00382841
        outer loop
            vertex -0.115779 -7.34675e-006 0.156997
            vertex -0.115935 -0.0391889 0.0403142
            vertex -0.115537 -0.0440819 0.134786
        endloop
    endfacet
    facet normal -0.0998727 5.08733e-006 0.995
        outer loop
            vertex -0.10408 0.00520734 0.16547
            vertex 0.0198552 -0.00516211 0.17791
            vertex 0.0199456 0.00922035 0.177919
        endloop
    endfacet
    facet normal 0.999181 -0.0396409 0.00811208
        outer loop
            vertex 0.0709984 -0.0735463 0.0980053
            vertex 0.0745022 -0.00298257 0.0112552
            vertex 0.0731485 -0.00723019 0.157237
        endloop
    endfacet
    facet normal -0.0060288 -0.999959 0.00671068
        outer loop
            vertex -0.0102835 -0.0744416 0.011
            vertex 0.069 -0.074228 0.114055
            vertex 0.0207632 -0.0739596 0.110715
        endloop
    endfacet
    facet normal -0.108137 0.260545 0.959387
        outer loop
            vertex 0.020686 0.0272786 0.173539
            vertex -0.104047 0.0231093 0.160612
            vertex -0.10408 0.00520734 0.16547
        endloop
    endfacet
    facet normal 0.00478561 0.781846 0.623453
        outer loop
            vertex 0.0194931 0.0633787 0.143114
            vertex 0.069 0.0534868 0.155139
            vertex 0.069 0.0659623 0.139494
        endloop
    endfacet
    facet normal -0.544722 0.401741 -0.736127
        outer loop
            vertex -0.11566 0.0264147 0.0301839
            vertex -0.10381 0.0373961 0.0274082
            vertex -0.104482 0.021669 0.0193224
        endloop
    endfacet
    facet normal -0.104321 -0.132803 0.985637
        outer loop
            vertex -0.104139 -0.0189319 0.162931
            vertex 0.0198943 -0.0191235 0.176033
            vertex 0.0198552 -0.00516211 0.17791
        endloop
    endfacet
    facet normal -0.00298307 0.00030082 -0.999996
        outer loop
            vertex 0.0207912 0.0609859 -8.73078e-005
            vertex 0.040547 -0.0497314 -0.000179547
            vertex -0.00520345 0.0632129 -9.09376e-006
        endloop
    endfacet
    facet normal -0.0187285 0.490678 0.87114
        outer loop
            vertex 0.020686 0.0272786 0.173539
            vertex 0.069 0.0384168 0.168304
            vertex 0.0203078 0.0410997 0.165746
        endloop
    endfacet
endsolid D:/Users/Paul Maroldt/Documents/!StartUp_Repositories/module_type_database/0067_D148/D148-romeo-proximal_convdec.stl_created_by_BoundingMesh