solid D:/Users/Paul Maroldt/Documents/!StartUp_Repositories/module_type_database/L86-440_convdec.stl_created_by_BoundingMesh
    facet normal 0.763931 -0.504779 0.402004
        outer loop
            vertex 0.43 -0.0391681 0.0772707
            vertex 0.44 -0.0353589 0.0630507
            vertex 0.44 -0.0193676 0.0831303
        endloop
    endfacet
    facet normal -0.19753 -0.413312 0.888907
        outer loop
            vertex 0.0163045 -0.02284 0.0868904
            vertex 0.0326615 -0.0218997 0.0909624
            vertex 0.0221028 -0.0114288 0.0934847
        endloop
    endfacet
    facet normal -0.600052 0.0163071 0.799795
        outer loop
            vertex -0.00174867 -0.00305392 0.0859895
            vertex -0.0131487 0.00410347 0.0772906
            vertex -0.0185808 -0.00325684 0.0733652
        endloop
    endfacet
    facet normal 0.644671 0.483335 0.592272
        outer loop
            vertex 0.43 0.0392891 0.0770474
            vertex 0.430065 0.0180911 0.0942757
            vertex 0.44 0.0215068 0.0806743
        endloop
    endfacet
    facet normal 0.950698 -0.310001 0.00846366
        outer loop
            vertex 0.44 -0.0353589 0.0630507
            vertex 0.44405 -0.0234483 0.0443775
            vertex 0.444046 -0.0229639 0.0625717
        endloop
    endfacet
    facet normal -0.379681 0.216686 0.899383
        outer loop
            vertex -0.00267359 0.0127465 0.0831551
            vertex 0.00905773 0.00028451 0.09111
            vertex 0.0154361 0.0157596 0.0900743
        endloop
    endfacet
    facet normal -0.658123 0.459269 0.596612
        outer loop
            vertex -0.0102161 0.0286768 0.0681323
            vertex -0.0261524 0.0215859 0.0560115
            vertex -0.0179392 0.0164705 0.0690093
        endloop
    endfacet
    facet normal -0.21061 0.885843 0.413432
        outer loop
            vertex -0.00370069 0.0436746 0.0512685
            vertex 0.0075961 0.0367573 0.0718447
            vertex 0.0104076 0.0436363 0.0585376
        endloop
    endfacet
    facet normal 0.837066 0.432547 0.334998
        outer loop
            vertex 0.444787 0.0216116 0.0685776
            vertex 0.44 0.0334222 0.0652892
            vertex 0.44 0.0215068 0.0806743
        endloop
    endfacet
    facet normal -0.841289 0.351526 0.410685
        outer loop
            vertex -0.0261524 0.0215859 0.0560115
            vertex -0.0345566 0.01943 0.0406408
            vertex -0.0369139 0.00884068 0.0448758
        endloop
    endfacet
    facet normal -0.447946 0.576591 0.683291
        outer loop
            vertex 0.00847932 0.0267347 0.0820273
            vertex -0.0102161 0.0286768 0.0681323
            vertex -0.00519164 0.019869 0.0788586
        endloop
    endfacet
    facet normal 0.920972 -0.386787 -0.0469613
        outer loop
            vertex 0.44 -0.0353589 0.0630507
            vertex 0.44 -0.032279 0.0376837
            vertex 0.44405 -0.0234483 0.0443775
        endloop
    endfacet
    facet normal -0.104508 -0.331271 0.93773
        outer loop
            vertex 0.0408516 -0.00933978 0.0963122
            vertex 0.0221028 -0.0114288 0.0934847
            vertex 0.0326615 -0.0218997 0.0909624
        endloop
    endfacet
    facet normal 0.667166 0.738583 -0.0968783
        outer loop
            vertex 0.43 0.0410786 0.0321547
            vertex 0.43 0.0440418 0.0547456
            vertex 0.440381 0.0337608 0.0478552
        endloop
    endfacet
    facet normal 0.999968 -0.00796236 0.000433113
        outer loop
            vertex 0.444406 0.0209488 0.0386705
            vertex 0.444046 -0.0229639 0.0625717
            vertex 0.44405 -0.0234483 0.0443775
        endloop
    endfacet
    facet normal 0.713091 0.700464 0.0291879
        outer loop
            vertex 0.44 0.0334222 0.0652892
            vertex 0.440381 0.0337608 0.0478552
            vertex 0.43 0.0440418 0.0547456
        endloop
    endfacet
    facet normal 0.944415 0.0951886 0.314673
        outer loop
            vertex 0.444787 0.0216116 0.0685776
            vertex 0.44 0.00287484 0.0886125
            vertex 0.444314 -0.00640466 0.0784721
        endloop
    endfacet
    facet normal -0.134764 -0.12154 0.983396
        outer loop
            vertex 0.0331301 0.00436539 0.0969479
            vertex 0.0221028 -0.0114288 0.0934847
            vertex 0.0408516 -0.00933978 0.0963122
        endloop
    endfacet
    facet normal 0.870357 -0.117842 0.478112
        outer loop
            vertex 0.44 -0.0193676 0.0831303
            vertex 0.444314 -0.00640466 0.0784721
            vertex 0.44 0.00287484 0.0886125
        endloop
    endfacet
    facet normal -0.185795 0.3361 0.923318
        outer loop
            vertex 0.0225654 0.00710608 0.0946589
            vertex 0.0341752 0.018507 0.092845
            vertex 0.0154361 0.0157596 0.0900743
        endloop
    endfacet
    facet normal 0.747331 0.260439 0.611283
        outer loop
            vertex 0.430065 0.0180911 0.0942757
            vertex 0.44 0.00287484 0.0886125
            vertex 0.44 0.0215068 0.0806743
        endloop
    endfacet
    facet normal -0.457276 0.131025 0.87962
        outer loop
            vertex -0.00174867 -0.00305392 0.0859895
            vertex 0.00905773 0.00028451 0.09111
            vertex -0.00267359 0.0127465 0.0831551
        endloop
    endfacet
    facet normal -0.38349 0.373848 0.844496
        outer loop
            vertex 0.00847932 0.0267347 0.0820273
            vertex -0.00519164 0.019869 0.0788586
            vertex -0.00267359 0.0127465 0.0831551
        endloop
    endfacet
    facet normal 0.912829 0.245306 -0.326449
        outer loop
            vertex 0.444406 0.0209488 0.0386705
            vertex 0.44 0.011314 0.0191103
            vertex 0.44 0.0288368 0.0322776
        endloop
    endfacet
    facet normal -0.000430298 -0.0465759 0.998915
        outer loop
            vertex 0.0331301 0.00436539 0.0969479
            vertex 0.0408516 -0.00933978 0.0963122
            vertex 0.429877 -0.00207529 0.0968185
        endloop
    endfacet
    facet normal -0.343401 0.202912 0.917007
        outer loop
            vertex 0.0225654 0.00710608 0.0946589
            vertex 0.0154361 0.0157596 0.0900743
            vertex 0.00905773 0.00028451 0.09111
        endloop
    endfacet
    facet normal 0.614984 0.196995 -0.763536
        outer loop
            vertex 0.44 0.011314 0.0191103
            vertex 0.429986 0.00611529 0.00970332
            vertex 0.430004 0.0218034 0.0137654
        endloop
    endfacet
    facet normal -0.225885 -0.0585987 0.97239
        outer loop
            vertex 0.0331301 0.00436539 0.0969479
            vertex 0.0225654 0.00710608 0.0946589
            vertex 0.00905773 0.00028451 0.09111
        endloop
    endfacet
    facet normal -0.181731 -0.501558 0.845821
        outer loop
            vertex 0.0274974 -0.0314358 0.0841981
            vertex 0.0326615 -0.0218997 0.0909624
            vertex 0.0163045 -0.02284 0.0868904
        endloop
    endfacet
    facet normal -0.565844 -0.745804 0.351564
        outer loop
            vertex -0.016078 -0.0402562 0.0402798
            vertex -0.0100453 -0.0356939 0.0596679
            vertex -0.0267039 -0.0307549 0.0433333
        endloop
    endfacet
    facet normal -0.675436 0.225447 -0.702111
        outer loop
            vertex -0.0365863 -0.00295538 -0.000123313
            vertex -0.0435045 0.0085338 0.0102212
            vertex -0.0286349 0.0212113 -1.27362e-005
        endloop
    endfacet
    facet normal 0.763924 0.510189 0.395129
        outer loop
            vertex 0.43 0.0392891 0.0770474
            vertex 0.44 0.0215068 0.0806743
            vertex 0.44 0.0334222 0.0652892
        endloop
    endfacet
    facet normal -0.296114 -0.773711 0.560079
        outer loop
            vertex 0.00612719 -0.0297699 0.078831
            vertex 0.000576383 -0.0329387 0.0715188
            vertex 0.0156523 -0.0391832 0.0708631
        endloop
    endfacet
    facet normal -0.740731 -0.671011 -0.0326002
        outer loop
            vertex -0.0288611 -0.0332132 0.0291358
            vertex -0.0393413 -0.0206662 0.00900829
            vertex -0.0277717 -0.0334861 0.01
        endloop
    endfacet
    facet normal -0.483075 -0.264252 0.834751
        outer loop
            vertex -0.00174867 -0.00305392 0.0859895
            vertex -0.00743108 -0.0161589 0.0785525
            vertex 0.00671074 -0.0151084 0.087069
        endloop
    endfacet
    facet normal -0.401401 -0.657534 -0.637595
        outer loop
            vertex -0.0110392 -0.0429818 0.00925863
            vertex -0.0277717 -0.0334861 0.01
            vertex -0.0242137 -0.0251149 -0.000872941
        endloop
    endfacet
    facet normal 0.0442728 -0.413914 -0.909239
        outer loop
            vertex 0.43 -0.0282774 0.0181461
            vertex -0.00618205 -0.034136 -0.000425528
            vertex 0.43 -0.0105363 0.0100698
        endloop
    endfacet
    facet normal 0.9456 -0.233161 0.226884
        outer loop
            vertex 0.44 -0.0193676 0.0831303
            vertex 0.444046 -0.0229639 0.0625717
            vertex 0.444314 -0.00640466 0.0784721
        endloop
    endfacet
    facet normal -0.00233938 0.960407 0.278591
        outer loop
            vertex 0.43 0.0392891 0.0770474
            vertex 0.0104076 0.0436363 0.0585376
            vertex 0.020736 0.039789 0.0718874
        endloop
    endfacet
    facet normal 0.949877 0.312045 -0.0190162
        outer loop
            vertex 0.444787 0.0216116 0.0685776
            vertex 0.444406 0.0209488 0.0386705
            vertex 0.440381 0.0337608 0.0478552
        endloop
    endfacet
    facet normal -0.360331 -0.784139 0.505259
        outer loop
            vertex -0.0100453 -0.0356939 0.0596679
            vertex 0.000625604 -0.0440746 0.0542715
            vertex 0.000576383 -0.0329387 0.0715188
        endloop
    endfacet
    facet normal 0.999924 -0.0110869 -0.00530813
        outer loop
            vertex 0.444406 0.0209488 0.0386705
            vertex 0.444314 -0.00640466 0.0784721
            vertex 0.444046 -0.0229639 0.0625717
        endloop
    endfacet
    facet normal 0.716826 -0.166861 0.676991
        outer loop
            vertex 0.44 -0.0193676 0.0831303
            vertex 0.44 0.00287484 0.0886125
            vertex 0.430038 -0.0184197 0.0939121
        endloop
    endfacet
    facet normal 0.691758 -0.716865 -0.0870371
        outer loop
            vertex 0.44 -0.0353589 0.0630507
            vertex 0.43 -0.0440286 0.0549786
            vertex 0.44 -0.032279 0.0376837
        endloop
    endfacet
    facet normal 0.909262 0.389962 -0.145504
        outer loop
            vertex 0.444406 0.0209488 0.0386705
            vertex 0.44 0.0288368 0.0322776
            vertex 0.440381 0.0337608 0.0478552
        endloop
    endfacet
    facet normal 0.684671 0 -0.728852
        outer loop
            vertex 0.44 -0.0144393 0.0191103
            vertex 0.429986 0.00611529 0.00970332
            vertex 0.44 0.011314 0.0191103
        endloop
    endfacet
    facet normal -0.587422 -0.191508 0.786295
        outer loop
            vertex -0.00174867 -0.00305392 0.0859895
            vertex -0.0185808 -0.00325684 0.0733652
            vertex -0.00743108 -0.0161589 0.0785525
        endloop
    endfacet
    facet normal -0.00341989 -0.389984 0.920815
        outer loop
            vertex 0.430038 -0.0184197 0.0939121
            vertex 0.0408516 -0.00933978 0.0963122
            vertex 0.0326615 -0.0218997 0.0909624
        endloop
    endfacet
    facet normal -0.632836 0.246395 0.734036
        outer loop
            vertex -0.00519164 0.019869 0.0788586
            vertex -0.0179392 0.0164705 0.0690093
            vertex -0.0131487 0.00410347 0.0772906
        endloop
    endfacet
    facet normal 0.923716 0.382081 0.0276072
        outer loop
            vertex 0.444787 0.0216116 0.0685776
            vertex 0.440381 0.0337608 0.0478552
            vertex 0.44 0.0334222 0.0652892
        endloop
    endfacet
    facet normal -0.000487642 0.00214507 -0.999998
        outer loop
            vertex -0.00924738 0.0344836 -0.000752396
            vertex 0.0200786 -0.00854493 -0.000858996
            vertex -0.0242137 -0.0251149 -0.000872941
        endloop
    endfacet
    facet normal 0.641607 -0.61759 -0.454888
        outer loop
            vertex 0.44 -0.032279 0.0376837
            vertex 0.43 -0.0416887 0.0363543
            vertex 0.43 -0.0282774 0.0181461
        endloop
    endfacet
    facet normal -0.497936 -0.63247 0.593331
        outer loop
            vertex -0.0100453 -0.0356939 0.0596679
            vertex 0.000576383 -0.0329387 0.0715188
            vertex -0.0160459 -0.0257684 0.0652123
        endloop
    endfacet
    facet normal 0.99986 -0.00601409 0.0155828
        outer loop
            vertex 0.444436 -0.00540861 0.0265724
            vertex 0.444406 0.0209488 0.0386705
            vertex 0.44405 -0.0234483 0.0443775
        endloop
    endfacet
    facet normal 0.938655 -0.252217 -0.23519
        outer loop
            vertex 0.444436 -0.00540861 0.0265724
            vertex 0.44405 -0.0234483 0.0443775
            vertex 0.44 -0.032279 0.0376837
        endloop
    endfacet
    facet normal -0.603348 0.731968 0.316535
        outer loop
            vertex -0.0194554 0.0389548 0.0359508
            vertex -0.0263318 0.0304222 0.0425748
            vertex -0.0144079 0.0345555 0.055745
        endloop
    endfacet
    facet normal 0.0112089 0.991445 -0.130046
        outer loop
            vertex 0.43 0.0410786 0.0321547
            vertex -0.0108581 0.0430793 0.00940915
            vertex 0.43 0.0440418 0.0547456
        endloop
    endfacet
    facet normal 0.7267 0.412678 -0.549185
        outer loop
            vertex 0.44 0.011314 0.0191103
            vertex 0.430004 0.0218034 0.0137654
            vertex 0.44 0.0288368 0.0322776
        endloop
    endfacet
    facet normal -0.435733 0.753381 0.492498
        outer loop
            vertex -0.00370069 0.0436746 0.0512685
            vertex -0.0144079 0.0345555 0.055745
            vertex 0.0075961 0.0367573 0.0718447
        endloop
    endfacet
    facet normal -0.735828 0.326285 0.593376
        outer loop
            vertex -0.0261524 0.0215859 0.0560115
            vertex -0.0241539 0.00813965 0.0658836
            vertex -0.0179392 0.0164705 0.0690093
        endloop
    endfacet
    facet normal 0.0365992 0.765822 -0.642011
        outer loop
            vertex 0.43 0.0410786 0.0321547
            vertex -0.00924738 0.0344836 -0.000752396
            vertex -0.0108581 0.0430793 0.00940915
        endloop
    endfacet
    facet normal 0.688827 -0.719271 -0.090367
        outer loop
            vertex 0.44 -0.032279 0.0376837
            vertex 0.43 -0.0440286 0.0549786
            vertex 0.43 -0.0416887 0.0363543
        endloop
    endfacet
    facet normal 0.633561 0.756701 0.161259
        outer loop
            vertex 0.43 0.0392891 0.0770474
            vertex 0.44 0.0334222 0.0652892
            vertex 0.43 0.0440418 0.0547456
        endloop
    endfacet
    facet normal -0.875823 -0.259733 0.406784
        outer loop
            vertex -0.0295758 -0.018873 0.0523708
            vertex -0.0291631 -0.010221 0.0587837
            vertex -0.0386417 -0.00531407 0.041509
        endloop
    endfacet
    facet normal 0.667132 -0.0158302 -0.744771
        outer loop
            vertex 0.44 -0.0144393 0.0191103
            vertex 0.43 -0.0105363 0.0100698
            vertex 0.429986 0.00611529 0.00970332
        endloop
    endfacet
    facet normal 0.0250553 0.0195525 -0.999495
        outer loop
            vertex -0.00924738 0.0344836 -0.000752396
            vertex 0.429986 0.00611529 0.00970332
            vertex 0.0200786 -0.00854493 -0.000858996
        endloop
    endfacet
    facet normal -0.792356 0.0129259 0.609922
        outer loop
            vertex -0.0185808 -0.00325684 0.0733652
            vertex -0.0241539 0.00813965 0.0658836
            vertex -0.0327119 0.00231251 0.0548893
        endloop
    endfacet
    facet normal -0.597081 -0.416483 0.685592
        outer loop
            vertex -0.0160459 -0.0257684 0.0652123
            vertex -0.00743108 -0.0161589 0.0785525
            vertex -0.0186877 -0.0168431 0.0683335
        endloop
    endfacet
    facet normal 0.598524 0.094724 0.795485
        outer loop
            vertex 0.430065 0.0180911 0.0942757
            vertex 0.429877 -0.00207529 0.0968185
            vertex 0.44 0.00287484 0.0886125
        endloop
    endfacet
    facet normal -0.835895 -0.53321 0.130256
        outer loop
            vertex -0.0288611 -0.0332132 0.0291358
            vertex -0.0349857 -0.0217016 0.0369556
            vertex -0.0395063 -0.0189243 0.0193145
        endloop
    endfacet
    facet normal -0.338604 -0.190284 0.921487
        outer loop
            vertex 0.00905773 0.00028451 0.09111
            vertex 0.00671074 -0.0151084 0.087069
            vertex 0.0221028 -0.0114288 0.0934847
        endloop
    endfacet
    facet normal 0.0392011 0.250426 -0.967342
        outer loop
            vertex -0.00924738 0.0344836 -0.000752396
            vertex 0.430004 0.0218034 0.0137654
            vertex 0.429986 0.00611529 0.00970332
        endloop
    endfacet
    facet normal 0.00140633 -0.625674 0.780083
        outer loop
            vertex 0.43 -0.0391681 0.0772707
            vertex 0.430038 -0.0184197 0.0939121
            vertex 0.0274974 -0.0314358 0.0841981
        endloop
    endfacet
    facet normal 0.00198757 -0.175056 0.984556
        outer loop
            vertex 0.430038 -0.0184197 0.0939121
            vertex 0.429877 -0.00207529 0.0968185
            vertex 0.0408516 -0.00933978 0.0963122
        endloop
    endfacet
    facet normal -0.131717 0.285178 0.949381
        outer loop
            vertex 0.0331301 0.00436539 0.0969479
            vertex 0.0341752 0.018507 0.092845
            vertex 0.0225654 0.00710608 0.0946589
        endloop
    endfacet
    facet normal -0.864477 0.453231 0.217395
        outer loop
            vertex -0.0320719 0.030143 0.0281865
            vertex -0.0398457 0.0149473 0.0289542
            vertex -0.0345566 0.01943 0.0406408
        endloop
    endfacet
    facet normal -0.00106465 0.99994 -0.0108761
        outer loop
            vertex -0.0108581 0.0430793 0.00940915
            vertex 0.0104076 0.0436363 0.0585376
            vertex 0.43 0.0440418 0.0547456
        endloop
    endfacet
    facet normal -0.823589 0.251014 0.508619
        outer loop
            vertex -0.0261524 0.0215859 0.0560115
            vertex -0.0369139 0.00884068 0.0448758
            vertex -0.0241539 0.00813965 0.0658836
        endloop
    endfacet
    facet normal 0.9997 -0.0212095 -0.0122653
        outer loop
            vertex 0.444787 0.0216116 0.0685776
            vertex 0.444314 -0.00640466 0.0784721
            vertex 0.444406 0.0209488 0.0386705
        endloop
    endfacet
    facet normal 0.926925 -0.293534 0.233769
        outer loop
            vertex 0.44 -0.0353589 0.0630507
            vertex 0.444046 -0.0229639 0.0625717
            vertex 0.44 -0.0193676 0.0831303
        endloop
    endfacet
    facet normal 0.559534 -0.809782 0.176562
        outer loop
            vertex 0.43 -0.0391681 0.0772707
            vertex 0.43 -0.0440286 0.0549786
            vertex 0.44 -0.0353589 0.0630507
        endloop
    endfacet
    facet normal 0.728942 -0.493722 -0.474218
        outer loop
            vertex 0.44 -0.0144393 0.0191103
            vertex 0.44 -0.032279 0.0376837
            vertex 0.43 -0.0282774 0.0181461
        endloop
    endfacet
    facet normal -0.00620607 0.820429 0.571715
        outer loop
            vertex 0.0271202 0.0305924 0.0851541
            vertex 0.43 0.0392891 0.0770474
            vertex 0.020736 0.039789 0.0718874
        endloop
    endfacet
    facet normal -0.787694 0.535925 0.303845
        outer loop
            vertex -0.0320719 0.030143 0.0281865
            vertex -0.0345566 0.01943 0.0406408
            vertex -0.0263318 0.0304222 0.0425748
        endloop
    endfacet
    facet normal -0.443435 -0.425577 0.788828
        outer loop
            vertex 0.00612719 -0.0297699 0.078831
            vertex 0.00671074 -0.0151084 0.087069
            vertex -0.00743108 -0.0161589 0.0785525
        endloop
    endfacet
    facet normal -0.400433 0.66732 -0.627963
        outer loop
            vertex -0.00924738 0.0344836 -0.000752396
            vertex -0.0277717 0.0334861 0.01
            vertex -0.0108581 0.0430793 0.00940915
        endloop
    endfacet
    facet normal -0.57804 0.8159 0.0133038
        outer loop
            vertex -0.0320719 0.030143 0.0281865
            vertex -0.0194554 0.0389548 0.0359508
            vertex -0.0277717 0.0334861 0.01
        endloop
    endfacet
    facet normal -0.384654 0.374702 0.843587
        outer loop
            vertex 0.00847932 0.0267347 0.0820273
            vertex -0.00267359 0.0127465 0.0831551
            vertex 0.0154361 0.0157596 0.0900743
        endloop
    endfacet
    facet normal -0.699977 0.296553 -0.649684
        outer loop
            vertex -0.0435045 0.0085338 0.0102212
            vertex -0.038137 0.0228002 0.0109502
            vertex -0.0286349 0.0212113 -1.27362e-005
        endloop
    endfacet
    facet normal -0.242327 -0.563017 0.79012
        outer loop
            vertex 0.00612719 -0.0297699 0.078831
            vertex 0.0274974 -0.0314358 0.0841981
            vertex 0.0163045 -0.02284 0.0868904
        endloop
    endfacet
    facet normal -0.00317756 0.278855 0.960328
        outer loop
            vertex 0.0331301 0.00436539 0.0969479
            vertex 0.430065 0.0180911 0.0942757
            vertex 0.0341752 0.018507 0.092845
        endloop
    endfacet
    facet normal 0.551479 -0.345621 -0.759221
        outer loop
            vertex 0.44 -0.0144393 0.0191103
            vertex 0.43 -0.0282774 0.0181461
            vertex 0.43 -0.0105363 0.0100698
        endloop
    endfacet
    facet normal -0.130735 -0.802391 0.582303
        outer loop
            vertex 0.0259546 -0.0416763 0.0697407
            vertex 0.0274974 -0.0314358 0.0841981
            vertex 0.0156523 -0.0391832 0.0708631
        endloop
    endfacet
    facet normal -0.629697 -0.632577 0.450919
        outer loop
            vertex -0.0267039 -0.0307549 0.0433333
            vertex -0.0100453 -0.0356939 0.0596679
            vertex -0.0160459 -0.0257684 0.0652123
        endloop
    endfacet
    facet normal 0.859582 0 -0.510998
        outer loop
            vertex 0.44 -0.0144393 0.0191103
            vertex 0.44 0.011314 0.0191103
            vertex 0.444436 -0.00540861 0.0265724
        endloop
    endfacet
    facet normal 0.952 0.128585 -0.277779
        outer loop
            vertex 0.444436 -0.00540861 0.0265724
            vertex 0.44 0.011314 0.0191103
            vertex 0.444406 0.0209488 0.0386705
        endloop
    endfacet
    facet normal 0.000938442 0.978037 0.208428
        outer loop
            vertex 0.43 0.0392891 0.0770474
            vertex 0.43 0.0440418 0.0547456
            vertex 0.0104076 0.0436363 0.0585376
        endloop
    endfacet
    facet normal -0.441873 0.743284 0.502271
        outer loop
            vertex -0.0102161 0.0286768 0.0681323
            vertex 0.0075961 0.0367573 0.0718447
            vertex -0.0144079 0.0345555 0.055745
        endloop
    endfacet
    facet normal -0.30873 -0.799467 0.515303
        outer loop
            vertex 0.000625604 -0.0440746 0.0542715
            vertex 0.0156523 -0.0391832 0.0708631
            vertex 0.000576383 -0.0329387 0.0715188
        endloop
    endfacet
    facet normal -0.421231 0.627839 0.65451
        outer loop
            vertex 0.00847932 0.0267347 0.0820273
            vertex 0.0075961 0.0367573 0.0718447
            vertex -0.0102161 0.0286768 0.0681323
        endloop
    endfacet
    facet normal 0.0437987 0.689626 -0.72284
        outer loop
            vertex 0.43 0.0410786 0.0321547
            vertex 0.430004 0.0218034 0.0137654
            vertex -0.00924738 0.0344836 -0.000752396
        endloop
    endfacet
    facet normal -0.537411 0.783786 0.311237
        outer loop
            vertex -0.00370069 0.0436746 0.0512685
            vertex -0.0194554 0.0389548 0.0359508
            vertex -0.0144079 0.0345555 0.055745
        endloop
    endfacet
    facet normal -0.917794 0.0176811 0.396664
        outer loop
            vertex -0.0369139 0.00884068 0.0448758
            vertex -0.0386417 -0.00531407 0.041509
            vertex -0.0327119 0.00231251 0.0548893
        endloop
    endfacet
    facet normal -0.615616 0.235927 0.751901
        outer loop
            vertex -0.00519164 0.019869 0.0788586
            vertex -0.0131487 0.00410347 0.0772906
            vertex -0.00267359 0.0127465 0.0831551
        endloop
    endfacet
    facet normal -0.619722 0.438855 0.650655
        outer loop
            vertex -0.0102161 0.0286768 0.0681323
            vertex -0.0179392 0.0164705 0.0690093
            vertex -0.00519164 0.019869 0.0788586
        endloop
    endfacet
    facet normal -0.638766 0.588611 0.495495
        outer loop
            vertex -0.0102161 0.0286768 0.0681323
            vertex -0.0144079 0.0345555 0.055745
            vertex -0.0261524 0.0215859 0.0560115
        endloop
    endfacet
    facet normal -0.0392598 0.0118798 -0.999158
        outer loop
            vertex -0.00924738 0.0344836 -0.000752396
            vertex -0.0242137 -0.0251149 -0.000872941
            vertex -0.0365863 -0.00295538 -0.000123313
        endloop
    endfacet
    facet normal 0.00200043 0.630704 0.776021
        outer loop
            vertex 0.0271202 0.0305924 0.0851541
            vertex 0.430065 0.0180911 0.0942757
            vertex 0.43 0.0392891 0.0770474
        endloop
    endfacet
    facet normal -0.975775 0.175626 0.130454
        outer loop
            vertex -0.0435045 0.0085338 0.0102212
            vertex -0.0429408 0.000799383 0.0248502
            vertex -0.0398457 0.0149473 0.0289542
        endloop
    endfacet
    facet normal -0.969529 -0.243629 0.0256549
        outer loop
            vertex -0.0393413 -0.0206662 0.00900829
            vertex -0.0395063 -0.0189243 0.0193145
            vertex -0.0432972 -0.00476443 0.0105197
        endloop
    endfacet
    facet normal -0.660595 0.223943 0.716564
        outer loop
            vertex -0.0241539 0.00813965 0.0658836
            vertex -0.0131487 0.00410347 0.0772906
            vertex -0.0179392 0.0164705 0.0690093
        endloop
    endfacet
    facet normal -0.346503 -0.448984 0.82362
        outer loop
            vertex 0.00612719 -0.0297699 0.078831
            vertex 0.0163045 -0.02284 0.0868904
            vertex 0.00671074 -0.0151084 0.087069
        endloop
    endfacet
    facet normal 0.0105669 -0.992145 -0.12465
        outer loop
            vertex -0.0110392 -0.0429818 0.00925863
            vertex 0.43 -0.0416887 0.0363543
            vertex 0.43 -0.0440286 0.0549786
        endloop
    endfacet
    facet normal 0.660962 -0.125064 0.739924
        outer loop
            vertex 0.430038 -0.0184197 0.0939121
            vertex 0.44 0.00287484 0.0886125
            vertex 0.429877 -0.00207529 0.0968185
        endloop
    endfacet
    facet normal -0.000992725 -0.578204 0.815892
        outer loop
            vertex 0.0274974 -0.0314358 0.0841981
            vertex 0.430038 -0.0184197 0.0939121
            vertex 0.0326615 -0.0218997 0.0909624
        endloop
    endfacet
    facet normal -0.516858 -0.500647 0.694413
        outer loop
            vertex 0.00612719 -0.0297699 0.078831
            vertex -0.00743108 -0.0161589 0.0785525
            vertex -0.0160459 -0.0257684 0.0652123
        endloop
    endfacet
    facet normal 0.0382831 -0.747289 -0.663395
        outer loop
            vertex -0.0110392 -0.0429818 0.00925863
            vertex -0.00618205 -0.034136 -0.000425528
            vertex 0.43 -0.0282774 0.0181461
        endloop
    endfacet
    facet normal 0.934869 -0.256025 -0.245911
        outer loop
            vertex 0.44 -0.0144393 0.0191103
            vertex 0.444436 -0.00540861 0.0265724
            vertex 0.44 -0.032279 0.0376837
        endloop
    endfacet
    facet normal 0.0265381 -0.0219733 -0.999406
        outer loop
            vertex 0.43 -0.0105363 0.0100698
            vertex 0.0200786 -0.00854493 -0.000858996
            vertex 0.429986 0.00611529 0.00970332
        endloop
    endfacet
    facet normal -0.49636 -0.593176 0.633852
        outer loop
            vertex 0.00612719 -0.0297699 0.078831
            vertex -0.0160459 -0.0257684 0.0652123
            vertex 0.000576383 -0.0329387 0.0715188
        endloop
    endfacet
    facet normal -0.601252 0.530043 -0.597955
        outer loop
            vertex -0.038137 0.0228002 0.0109502
            vertex -0.0277717 0.0334861 0.01
            vertex -0.0286349 0.0212113 -1.27362e-005
        endloop
    endfacet
    facet normal -0.903951 0.31632 0.287776
        outer loop
            vertex -0.0369139 0.00884068 0.0448758
            vertex -0.0345566 0.01943 0.0406408
            vertex -0.0398457 0.0149473 0.0289542
        endloop
    endfacet
    facet normal -0.429233 0.588835 -0.68486
        outer loop
            vertex -0.00924738 0.0344836 -0.000752396
            vertex -0.0286349 0.0212113 -1.27362e-005
            vertex -0.0277717 0.0334861 0.01
        endloop
    endfacet
    facet normal -0.0531975 0.0220712 -0.99834
        outer loop
            vertex -0.00924738 0.0344836 -0.000752396
            vertex -0.0365863 -0.00295538 -0.000123313
            vertex -0.0286349 0.0212113 -1.27362e-005
        endloop
    endfacet
    facet normal 0.918088 0.155364 0.364659
        outer loop
            vertex 0.444787 0.0216116 0.0685776
            vertex 0.44 0.0215068 0.0806743
            vertex 0.44 0.00287484 0.0886125
        endloop
    endfacet
    facet normal -0.9124 -0.285141 0.293633
        outer loop
            vertex -0.0349857 -0.0217016 0.0369556
            vertex -0.0386417 -0.00531407 0.041509
            vertex -0.0409887 -0.0115591 0.0281518
        endloop
    endfacet
    facet normal -0.494027 -0.869304 -0.0157274
        outer loop
            vertex -0.0288611 -0.0332132 0.0291358
            vertex -0.0277717 -0.0334861 0.01
            vertex -0.0110392 -0.0429818 0.00925863
        endloop
    endfacet
    facet normal -0.971764 -0.0959016 0.215587
        outer loop
            vertex -0.0429408 0.000799383 0.0248502
            vertex -0.0409887 -0.0115591 0.0281518
            vertex -0.0386417 -0.00531407 0.041509
        endloop
    endfacet
    facet normal -0.791856 -0.570081 0.219026
        outer loop
            vertex -0.0267039 -0.0307549 0.0433333
            vertex -0.0349857 -0.0217016 0.0369556
            vertex -0.0288611 -0.0332132 0.0291358
        endloop
    endfacet
    facet normal -0.170496 -0.89252 0.41754
        outer loop
            vertex 0.0259546 -0.0416763 0.0697407
            vertex 0.0156523 -0.0391832 0.0708631
            vertex 0.000625604 -0.0440746 0.0542715
        endloop
    endfacet
    facet normal -0.226494 -0.0550951 0.972453
        outer loop
            vertex 0.0331301 0.00436539 0.0969479
            vertex 0.00905773 0.00028451 0.09111
            vertex 0.0221028 -0.0114288 0.0934847
        endloop
    endfacet
    facet normal -0.881913 0.45701 0.115637
        outer loop
            vertex -0.0320719 0.030143 0.0281865
            vertex -0.038137 0.0228002 0.0109502
            vertex -0.0398457 0.0149473 0.0289542
        endloop
    endfacet
    facet normal -0.639795 -0.262483 0.722333
        outer loop
            vertex -0.0185808 -0.00325684 0.0733652
            vertex -0.0186877 -0.0168431 0.0683335
            vertex -0.00743108 -0.0161589 0.0785525
        endloop
    endfacet
    facet normal -0.670542 0.615707 0.413857
        outer loop
            vertex -0.0261524 0.0215859 0.0560115
            vertex -0.0144079 0.0345555 0.055745
            vertex -0.0263318 0.0304222 0.0425748
        endloop
    endfacet
    facet normal -0.323931 0.94515 0.0419468
        outer loop
            vertex -0.00370069 0.0436746 0.0512685
            vertex -0.0108581 0.0430793 0.00940915
            vertex -0.0194554 0.0389548 0.0359508
        endloop
    endfacet
    facet normal -0.690241 0.129774 0.711847
        outer loop
            vertex -0.0185808 -0.00325684 0.0733652
            vertex -0.0131487 0.00410347 0.0772906
            vertex -0.0241539 0.00813965 0.0658836
        endloop
    endfacet
    facet normal -0.80051 -0.473214 0.367767
        outer loop
            vertex -0.0267039 -0.0307549 0.0433333
            vertex -0.0295758 -0.018873 0.0523708
            vertex -0.0349857 -0.0217016 0.0369556
        endloop
    endfacet
    facet normal 0.649429 0.524978 -0.550127
        outer loop
            vertex 0.43 0.0410786 0.0321547
            vertex 0.44 0.0288368 0.0322776
            vertex 0.430004 0.0218034 0.0137654
        endloop
    endfacet
    facet normal -0.178793 0.766227 0.617194
        outer loop
            vertex 0.0271202 0.0305924 0.0851541
            vertex 0.020736 0.039789 0.0718874
            vertex 0.0075961 0.0367573 0.0718447
        endloop
    endfacet
    facet normal -0.777992 0.520117 0.352429
        outer loop
            vertex -0.0261524 0.0215859 0.0560115
            vertex -0.0263318 0.0304222 0.0425748
            vertex -0.0345566 0.01943 0.0406408
        endloop
    endfacet
    facet normal -0.481728 -0.87632 -0.00125175
        outer loop
            vertex -0.016078 -0.0402562 0.0402798
            vertex -0.0288611 -0.0332132 0.0291358
            vertex -0.0110392 -0.0429818 0.00925863
        endloop
    endfacet
    facet normal -0.256825 -0.965496 0.0431147
        outer loop
            vertex -0.016078 -0.0402562 0.0402798
            vertex -0.0110392 -0.0429818 0.00925863
            vertex 0.000625604 -0.0440746 0.0542715
        endloop
    endfacet
    facet normal -0.731308 -0.231807 0.641447
        outer loop
            vertex -0.0291631 -0.010221 0.0587837
            vertex -0.0186877 -0.0168431 0.0683335
            vertex -0.0185808 -0.00325684 0.0733652
        endloop
    endfacet
    facet normal -0.905808 -0.387605 0.171095
        outer loop
            vertex -0.0349857 -0.0217016 0.0369556
            vertex -0.0409887 -0.0115591 0.0281518
            vertex -0.0395063 -0.0189243 0.0193145
        endloop
    endfacet
    facet normal 0.616941 -0.493098 0.613383
        outer loop
            vertex 0.43 -0.0391681 0.0772707
            vertex 0.44 -0.0193676 0.0831303
            vertex 0.430038 -0.0184197 0.0939121
        endloop
    endfacet
    facet normal 0.038766 -0.804562 -0.592602
        outer loop
            vertex -0.0110392 -0.0429818 0.00925863
            vertex 0.43 -0.0282774 0.0181461
            vertex 0.43 -0.0416887 0.0363543
        endloop
    endfacet
    facet normal -0.581934 -0.299339 -0.75614
        outer loop
            vertex -0.0393413 -0.0206662 0.00900829
            vertex -0.0365863 -0.00295538 -0.000123313
            vertex -0.0242137 -0.0251149 -0.000872941
        endloop
    endfacet
    facet normal -0.99942 -0.0148916 0.0306374
        outer loop
            vertex -0.0435045 0.0085338 0.0102212
            vertex -0.0432972 -0.00476443 0.0105197
            vertex -0.0429408 0.000799383 0.0248502
        endloop
    endfacet
    facet normal -0.799467 -0.0401303 0.599368
        outer loop
            vertex -0.0291631 -0.010221 0.0587837
            vertex -0.0185808 -0.00325684 0.0733652
            vertex -0.0327119 0.00231251 0.0548893
        endloop
    endfacet
    facet normal -0.563046 -0.555469 -0.61191
        outer loop
            vertex -0.0393413 -0.0206662 0.00900829
            vertex -0.0242137 -0.0251149 -0.000872941
            vertex -0.0277717 -0.0334861 0.01
        endloop
    endfacet
    facet normal -0.987781 -0.135418 0.0771421
        outer loop
            vertex -0.0429408 0.000799383 0.0248502
            vertex -0.0432972 -0.00476443 0.0105197
            vertex -0.0409887 -0.0115591 0.0281518
        endloop
    endfacet
    facet normal -0.882283 -0.298065 0.364327
        outer loop
            vertex -0.0295758 -0.018873 0.0523708
            vertex -0.0386417 -0.00531407 0.041509
            vertex -0.0349857 -0.0217016 0.0369556
        endloop
    endfacet
    facet normal -0.215766 -0.748797 0.626696
        outer loop
            vertex 0.00612719 -0.0297699 0.078831
            vertex 0.0156523 -0.0391832 0.0708631
            vertex 0.0274974 -0.0314358 0.0841981
        endloop
    endfacet
    facet normal -0.71903 0.693678 -0.0425005
        outer loop
            vertex -0.0320719 0.030143 0.0281865
            vertex -0.0277717 0.0334861 0.01
            vertex -0.038137 0.0228002 0.0109502
        endloop
    endfacet
    facet normal 0.0110101 0.99981 -0.0161013
        outer loop
            vertex -0.00370069 0.0436746 0.0512685
            vertex 0.0104076 0.0436363 0.0585376
            vertex -0.0108581 0.0430793 0.00940915
        endloop
    endfacet
    facet normal -0.0024883 0.535849 0.84431
        outer loop
            vertex 0.0271202 0.0305924 0.0851541
            vertex 0.0341752 0.018507 0.092845
            vertex 0.430065 0.0180911 0.0942757
        endloop
    endfacet
    facet normal 0.00235409 0.125079 0.992144
        outer loop
            vertex 0.0331301 0.00436539 0.0969479
            vertex 0.429877 -0.00207529 0.0968185
            vertex 0.430065 0.0180911 0.0942757
        endloop
    endfacet
    facet normal -0.823814 0.250061 0.508724
        outer loop
            vertex -0.0369139 0.00884068 0.0448758
            vertex -0.0327119 0.00231251 0.0548893
            vertex -0.0241539 0.00813965 0.0658836
        endloop
    endfacet
    facet normal 0.0264117 -0.0440187 -0.998682
        outer loop
            vertex -0.00618205 -0.034136 -0.000425528
            vertex 0.0200786 -0.00854493 -0.000858996
            vertex 0.43 -0.0105363 0.0100698
        endloop
    endfacet
    facet normal -0.935134 0.348594 0.0632977
        outer loop
            vertex -0.0435045 0.0085338 0.0102212
            vertex -0.0398457 0.0149473 0.0289542
            vertex -0.038137 0.0228002 0.0109502
        endloop
    endfacet
    facet normal -0.493861 0.869184 -0.0249013
        outer loop
            vertex -0.0108581 0.0430793 0.00940915
            vertex -0.0277717 0.0334861 0.01
            vertex -0.0194554 0.0389548 0.0359508
        endloop
    endfacet
    facet normal -0.295707 -0.62682 -0.72087
        outer loop
            vertex -0.0110392 -0.0429818 0.00925863
            vertex -0.0242137 -0.0251149 -0.000872941
            vertex -0.00618205 -0.034136 -0.000425528
        endloop
    endfacet
    facet normal -0.843678 -0.0251887 -0.536259
        outer loop
            vertex -0.0365863 -0.00295538 -0.000123313
            vertex -0.0432972 -0.00476443 0.0105197
            vertex -0.0435045 0.0085338 0.0102212
        endloop
    endfacet
    facet normal -0.255888 0.677768 0.689313
        outer loop
            vertex 0.0271202 0.0305924 0.0851541
            vertex 0.0075961 0.0367573 0.0718447
            vertex 0.00847932 0.0267347 0.0820273
        endloop
    endfacet
    facet normal -0.962107 0.143159 0.23207
        outer loop
            vertex -0.0369139 0.00884068 0.0448758
            vertex -0.0398457 0.0149473 0.0289542
            vertex -0.0429408 0.000799383 0.0248502
        endloop
    endfacet
    facet normal -0.000146826 -0.988158 0.153441
        outer loop
            vertex 0.0259546 -0.0416763 0.0697407
            vertex 0.000625604 -0.0440746 0.0542715
            vertex 0.43 -0.0440286 0.0549786
        endloop
    endfacet
    facet normal -0.00571571 -0.815728 0.578408
        outer loop
            vertex 0.0259546 -0.0416763 0.0697407
            vertex 0.43 -0.0391681 0.0772707
            vertex 0.0274974 -0.0314358 0.0841981
        endloop
    endfacet
    facet normal -0.469603 -0.815599 0.338041
        outer loop
            vertex -0.016078 -0.0402562 0.0402798
            vertex 0.000625604 -0.0440746 0.0542715
            vertex -0.0100453 -0.0356939 0.0596679
        endloop
    endfacet
    facet normal -0.194379 0.443367 0.87501
        outer loop
            vertex 0.0271202 0.0305924 0.0851541
            vertex 0.0154361 0.0157596 0.0900743
            vertex 0.0341752 0.018507 0.092845
        endloop
    endfacet
    facet normal 0.0107912 -0.0280042 -0.99955
        outer loop
            vertex -0.0242137 -0.0251149 -0.000872941
            vertex 0.0200786 -0.00854493 -0.000858996
            vertex -0.00618205 -0.034136 -0.000425528
        endloop
    endfacet
    facet normal -0.823958 -0.153122 -0.54557
        outer loop
            vertex -0.0393413 -0.0206662 0.00900829
            vertex -0.0432972 -0.00476443 0.0105197
            vertex -0.0365863 -0.00295538 -0.000123313
        endloop
    endfacet
    facet normal -0.23982 0.47058 0.849141
        outer loop
            vertex 0.0271202 0.0305924 0.0851541
            vertex 0.00847932 0.0267347 0.0820273
            vertex 0.0154361 0.0157596 0.0900743
        endloop
    endfacet
    facet normal -0.205854 0.886365 0.414707
        outer loop
            vertex 0.020736 0.039789 0.0718874
            vertex 0.0104076 0.0436363 0.0585376
            vertex 0.0075961 0.0367573 0.0718447
        endloop
    endfacet
    facet normal -0.884211 -0.109253 0.454131
        outer loop
            vertex -0.0291631 -0.010221 0.0587837
            vertex -0.0327119 0.00231251 0.0548893
            vertex -0.0386417 -0.00531407 0.041509
        endloop
    endfacet
    facet normal 0.757649 0.616759 -0.213485
        outer loop
            vertex 0.43 0.0410786 0.0321547
            vertex 0.440381 0.0337608 0.0478552
            vertex 0.44 0.0288368 0.0322776
        endloop
    endfacet
    facet normal -0.82522 -0.558936 0.0812568
        outer loop
            vertex -0.0288611 -0.0332132 0.0291358
            vertex -0.0395063 -0.0189243 0.0193145
            vertex -0.0393413 -0.0206662 0.00900829
        endloop
    endfacet
    facet normal -0.742753 -0.375477 0.554377
        outer loop
            vertex -0.0295758 -0.018873 0.0523708
            vertex -0.0186877 -0.0168431 0.0683335
            vertex -0.0291631 -0.010221 0.0587837
        endloop
    endfacet
    facet normal -0.961937 0.0536858 0.267947
        outer loop
            vertex -0.0369139 0.00884068 0.0448758
            vertex -0.0429408 0.000799383 0.0248502
            vertex -0.0386417 -0.00531407 0.041509
        endloop
    endfacet
    facet normal -0.612961 -0.757603 0.224314
        outer loop
            vertex -0.016078 -0.0402562 0.0402798
            vertex -0.0267039 -0.0307549 0.0433333
            vertex -0.0288611 -0.0332132 0.0291358
        endloop
    endfacet
    facet normal 0.000147132 -0.999704 -0.0243084
        outer loop
            vertex -0.0110392 -0.0429818 0.00925863
            vertex 0.43 -0.0440286 0.0549786
            vertex 0.000625604 -0.0440746 0.0542715
        endloop
    endfacet
    facet normal 0.00209505 -0.977043 0.213031
        outer loop
            vertex 0.0259546 -0.0416763 0.0697407
            vertex 0.43 -0.0440286 0.0549786
            vertex 0.43 -0.0391681 0.0772707
        endloop
    endfacet
    facet normal -0.710894 -0.526495 0.466296
        outer loop
            vertex -0.0267039 -0.0307549 0.0433333
            vertex -0.0160459 -0.0257684 0.0652123
            vertex -0.0295758 -0.018873 0.0523708
        endloop
    endfacet
    facet normal -0.281002 -0.369144 0.885873
        outer loop
            vertex 0.00671074 -0.0151084 0.087069
            vertex 0.0163045 -0.02284 0.0868904
            vertex 0.0221028 -0.0114288 0.0934847
        endloop
    endfacet
    facet normal -0.555893 0.115138 0.823241
        outer loop
            vertex -0.00174867 -0.00305392 0.0859895
            vertex -0.00267359 0.0127465 0.0831551
            vertex -0.0131487 0.00410347 0.0772906
        endloop
    endfacet
    facet normal -0.970652 -0.237864 0.0354209
        outer loop
            vertex -0.0409887 -0.0115591 0.0281518
            vertex -0.0432972 -0.00476443 0.0105197
            vertex -0.0395063 -0.0189243 0.0193145
        endloop
    endfacet
    facet normal -0.652259 0.716863 0.246303
        outer loop
            vertex -0.0320719 0.030143 0.0281865
            vertex -0.0263318 0.0304222 0.0425748
            vertex -0.0194554 0.0389548 0.0359508
        endloop
    endfacet
    facet normal -0.72927 -0.407951 0.54931
        outer loop
            vertex -0.0295758 -0.018873 0.0523708
            vertex -0.0160459 -0.0257684 0.0652123
            vertex -0.0186877 -0.0168431 0.0683335
        endloop
    endfacet
    facet normal -0.374723 -0.181548 0.909188
        outer loop
            vertex -0.00174867 -0.00305392 0.0859895
            vertex 0.00671074 -0.0151084 0.087069
            vertex 0.00905773 0.00028451 0.09111
        endloop
    endfacet
endsolid D:/Users/Paul Maroldt/Documents/!StartUp_Repositories/module_type_database/L86-440_convdec.stl_created_by_BoundingMesh