solid D:/Users/Paul Maroldt/Documents/!StartUp_Repositories/module_type_database/0065_D86/D86-papa-proximal_convdec.stl_created_by_BoundingMesh
    facet normal 0.723634 -0.178672 0.666656
        outer loop
            vertex 0.039 -0.00819438 0.106827
            vertex 0.0427895 -0.0164687 0.100496
            vertex 0.0427897 0.00203128 0.105454
        endloop
    endfacet
    facet normal -0.667749 -0.196241 -0.718053
        outer loop
            vertex -0.107328 0.00287295 0.0142916
            vertex -0.104342 -0.0139232 0.0161051
            vertex -0.113753 -0.00806286 0.0232552
        endloop
    endfacet
    facet normal -0.00217129 0.9417 0.336446
        outer loop
            vertex 0.039 0.04357 0.0734106
            vertex 0.00937475 0.0448772 0.0695606
            vertex 0.00588581 0.0380098 0.0887597
        endloop
    endfacet
    facet normal -0.071042 0.0482384 -0.996306
        outer loop
            vertex -0.0479699 0.00300585 0.000131463
            vertex -0.0187053 0.0330371 -0.00050123
            vertex -0.0139088 -0.00542857 -0.00270565
        endloop
    endfacet
    facet normal 0.456603 0.783438 0.421591
        outer loop
            vertex 0.039 0.0314185 0.0959916
            vertex 0.0436954 0.0334433 0.0871436
            vertex 0.039 0.04357 0.0734106
        endloop
    endfacet
    facet normal -0.999372 0.0134244 -0.0327991
        outer loop
            vertex -0.113718 0.0266655 0.0364029
            vertex -0.113753 -0.00806286 0.0232552
            vertex -0.114251 -0.0236421 0.0320527
        endloop
    endfacet
    facet normal 0.0396127 -0.769284 0.637678
        outer loop
            vertex 0.039 -0.0258694 0.100002
            vertex 0.00509393 -0.0327346 0.0938262
            vertex 0.039 -0.0389083 0.0842721
        endloop
    endfacet
    facet normal -0.0546964 0.281682 0.957948
        outer loop
            vertex 0.00930777 0.0197532 0.105298
            vertex -0.103484 0.0145223 0.100396
            vertex 0.00491148 0.00740138 0.108679
        endloop
    endfacet
    facet normal 0.528126 0.733273 -0.428244
        outer loop
            vertex 0.0143835 0.0363065 -0.00109818
            vertex 0.0205042 0.0383797 0.01
            vertex 0.034282 0.0284565 0.01
        endloop
    endfacet
    facet normal 0.976705 -0.0555588 0.207269
        outer loop
            vertex 0.0449962 -0.0255393 0.0876661
            vertex 0.0427897 0.00203128 0.105454
            vertex 0.0427895 -0.0164687 0.100496
        endloop
    endfacet
    facet normal 0.562957 0.42409 -0.709385
        outer loop
            vertex 0.0143835 0.0363065 -0.00109818
            vertex 0.034282 0.0284565 0.01
            vertex 0.0310587 0.0159247 -4.98106e-005
        endloop
    endfacet
    facet normal 0.0165352 0.0272872 -0.999491
        outer loop
            vertex 0.0335942 -0.00074572 -0.00179193
            vertex -0.0139088 -0.00542857 -0.00270565
            vertex 0.0143835 0.0363065 -0.00109818
        endloop
    endfacet
    facet normal 0.0164853 -0.149871 -0.988568
        outer loop
            vertex -0.0145779 -0.0292803 -0.00144004
            vertex 0.0134941 -0.0365734 0.00013375
            vertex -0.00412173 -0.0374348 -2.94174e-005
        endloop
    endfacet
    facet normal -0.514242 -0.715937 0.472217
        outer loop
            vertex -0.113861 -0.0312796 0.075684
            vertex -0.103764 -0.0372317 0.0776555
            vertex -0.103848 -0.030021 0.0884963
        endloop
    endfacet
    facet normal 0.881285 -0.47211 -0.0212024
        outer loop
            vertex 0.039 -0.0423038 0.0513918
            vertex 0.0427894 -0.0358488 0.0651671
            vertex 0.039 -0.0431102 0.0693477
        endloop
    endfacet
    facet normal -0.227696 0.201814 -0.952589
        outer loop
            vertex -0.0479699 0.00300585 0.000131463
            vertex -0.107328 0.00287295 0.0142916
            vertex -0.0187053 0.0330371 -0.00050123
        endloop
    endfacet
    facet normal 0.685849 -0.448097 -0.573428
        outer loop
            vertex 0.044105 -0.010842 0.01
            vertex 0.0281327 -0.0352889 0.01
            vertex 0.030217 -0.0192914 -8.10184e-006
        endloop
    endfacet
    facet normal -0.561288 -0.622621 -0.545252
        outer loop
            vertex -0.10522 -0.0366602 0.0376214
            vertex -0.114251 -0.0236421 0.0320527
            vertex -0.100831 -0.0268768 0.0219317
        endloop
    endfacet
    facet normal -0.693616 -0.337264 -0.636514
        outer loop
            vertex -0.113753 -0.00806286 0.0232552
            vertex -0.104342 -0.0139232 0.0161051
            vertex -0.114251 -0.0236421 0.0320527
        endloop
    endfacet
    facet normal -0.999421 -0.0339063 0.0029982
        outer loop
            vertex -0.113861 -0.0312796 0.075684
            vertex -0.114462 -0.0122366 0.0907014
            vertex -0.114251 -0.0236421 0.0320527
        endloop
    endfacet
    facet normal -0.059037 -0.994959 0.0810641
        outer loop
            vertex -0.103764 -0.0372317 0.0776555
            vertex -0.10291 -0.038993 0.0566597
            vertex 0.00934841 -0.0449617 0.0651566
        endloop
    endfacet
    facet normal -0.0482016 -0.983871 0.172265
        outer loop
            vertex -0.103764 -0.0372317 0.0776555
            vertex 0.00934841 -0.0449617 0.0651566
            vertex 0.00861048 -0.04217 0.0808946
        endloop
    endfacet
    facet normal -0.0520095 0.665088 0.744951
        outer loop
            vertex 0.00930777 0.0197532 0.105298
            vertex 0.00588581 0.0380098 0.0887597
            vertex -0.103921 0.0245849 0.0930791
        endloop
    endfacet
    facet normal -0.477669 0.76099 0.439006
        outer loop
            vertex -0.101849 0.0386288 0.0733959
            vertex -0.114633 0.0255151 0.0822178
            vertex -0.0999238 0.0335266 0.084335
        endloop
    endfacet
    facet normal -0.0213614 -0.608267 0.793445
        outer loop
            vertex 0.039 -0.0258694 0.100002
            vertex 0.00250601 -0.0209458 0.102794
            vertex 0.00509393 -0.0327346 0.0938262
        endloop
    endfacet
    facet normal 0.0252514 -0.360101 0.932571
        outer loop
            vertex 0.039 -0.0258694 0.100002
            vertex 0.039 -0.00819438 0.106827
            vertex 0.00609718 -0.00898922 0.107411
        endloop
    endfacet
    facet normal 0.820207 0.557027 0.130317
        outer loop
            vertex 0.0436954 0.0334433 0.0871436
            vertex 0.0427896 0.0399636 0.0649743
            vertex 0.039 0.04357 0.0734106
        endloop
    endfacet
    facet normal -0.0233739 0.0542939 -0.998251
        outer loop
            vertex 0.0143835 0.0363065 -0.00109818
            vertex -0.0139088 -0.00542857 -0.00270565
            vertex -0.0187053 0.0330371 -0.00050123
        endloop
    endfacet
    facet normal -0.126248 0.972589 -0.195274
        outer loop
            vertex 0.00214823 0.0452288 0.0120321
            vertex -0.0156159 0.0425149 0.01
            vertex -0.0996856 0.0393388 0.0485338
        endloop
    endfacet
    facet normal 0.804671 -0.457099 0.3789
        outer loop
            vertex 0.0449962 -0.0255393 0.0876661
            vertex 0.039 -0.0258694 0.100002
            vertex 0.039 -0.0389083 0.0842721
        endloop
    endfacet
    facet normal -0.229295 -0.144691 -0.962543
        outer loop
            vertex -0.0479699 0.00300585 0.000131463
            vertex -0.104342 -0.0139232 0.0161051
            vertex -0.107328 0.00287295 0.0142916
        endloop
    endfacet
    facet normal -0.999731 0.0122918 -0.0196576
        outer loop
            vertex -0.114633 0.0255151 0.0822178
            vertex -0.113718 0.0266655 0.0364029
            vertex -0.114251 -0.0236421 0.0320527
        endloop
    endfacet
    facet normal -0.609838 -0.792084 -0.0264755
        outer loop
            vertex -0.113861 -0.0312796 0.075684
            vertex -0.113394 -0.0306872 0.0472038
            vertex -0.10522 -0.0366602 0.0376214
        endloop
    endfacet
    facet normal -0.986588 -0.162054 -0.0195483
        outer loop
            vertex -0.113861 -0.0312796 0.075684
            vertex -0.114251 -0.0236421 0.0320527
            vertex -0.113394 -0.0306872 0.0472038
        endloop
    endfacet
    facet normal 0.0365172 -0.983676 0.176203
        outer loop
            vertex 0.039 -0.0431102 0.0693477
            vertex 0.00861048 -0.04217 0.0808946
            vertex 0.00934841 -0.0449617 0.0651566
        endloop
    endfacet
    facet normal 0.999463 0.0222552 0.0240627
        outer loop
            vertex 0.0449962 -0.0255393 0.0876661
            vertex 0.046018 0.0125464 0.01
            vertex 0.0436954 0.0334433 0.0871436
        endloop
    endfacet
    facet normal -0.994931 0.0177376 0.0989859
        outer loop
            vertex -0.113801 0.00837503 0.0936518
            vertex -0.114633 0.0255151 0.0822178
            vertex -0.114462 -0.0122366 0.0907014
        endloop
    endfacet
    facet normal -0.999984 -0.00511443 -0.00260303
        outer loop
            vertex -0.114633 0.0255151 0.0822178
            vertex -0.114251 -0.0236421 0.0320527
            vertex -0.114462 -0.0122366 0.0907014
        endloop
    endfacet
    facet normal -0.656046 0.396533 0.642157
        outer loop
            vertex -0.114633 0.0255151 0.0822178
            vertex -0.113801 0.00837503 0.0936518
            vertex -0.103484 0.0145223 0.100396
        endloop
    endfacet
    facet normal -0.0489959 -0.34695 0.936603
        outer loop
            vertex -0.104251 -0.00451724 0.103295
            vertex 0.00250601 -0.0209458 0.102794
            vertex 0.00609718 -0.00898922 0.107411
        endloop
    endfacet
    facet normal -0.635445 0.748098 0.191205
        outer loop
            vertex -0.113051 0.0331517 0.0575969
            vertex -0.114633 0.0255151 0.0822178
            vertex -0.101849 0.0386288 0.0733959
        endloop
    endfacet
    facet normal -0.470428 0.877329 -0.0948171
        outer loop
            vertex -0.113051 0.0331517 0.0575969
            vertex -0.0996856 0.0393388 0.0485338
            vertex -0.103684 0.0360367 0.0378177
        endloop
    endfacet
    facet normal 0.0195239 -0.0757122 0.996939
        outer loop
            vertex 0.039 -0.00819438 0.106827
            vertex 0.00491148 0.00740138 0.108679
            vertex 0.00609718 -0.00898922 0.107411
        endloop
    endfacet
    facet normal -0.713225 -0.167112 0.680722
        outer loop
            vertex -0.106316 -0.0189006 0.0976004
            vertex -0.104251 -0.00451724 0.103295
            vertex -0.114462 -0.0122366 0.0907014
        endloop
    endfacet
    facet normal 0.0205013 -0.804993 0.59293
        outer loop
            vertex 0.039 -0.0389083 0.0842721
            vertex 0.00509393 -0.0327346 0.0938262
            vertex 0.00861048 -0.04217 0.0808946
        endloop
    endfacet
    facet normal -0.0486327 -0.813121 0.58006
        outer loop
            vertex 0.00509393 -0.0327346 0.0938262
            vertex -0.103848 -0.030021 0.0884963
            vertex 0.00861048 -0.04217 0.0808946
        endloop
    endfacet
    facet normal 0.842602 -0.360675 0.399918
        outer loop
            vertex 0.0449962 -0.0255393 0.0876661
            vertex 0.0427895 -0.0164687 0.100496
            vertex 0.039 -0.0258694 0.100002
        endloop
    endfacet
    facet normal 0.996312 -0.081491 -0.0268535
        outer loop
            vertex 0.0449962 -0.0255393 0.0876661
            vertex 0.044105 -0.010842 0.01
            vertex 0.046018 0.0125464 0.01
        endloop
    endfacet
    facet normal 0.611081 -0.285136 0.738429
        outer loop
            vertex 0.039 -0.0258694 0.100002
            vertex 0.0427895 -0.0164687 0.100496
            vertex 0.039 -0.00819438 0.106827
        endloop
    endfacet
    facet normal 0.992196 0.124624 -0.00388592
        outer loop
            vertex 0.0436954 0.0334433 0.0871436
            vertex 0.046018 0.0125464 0.01
            vertex 0.0427896 0.0399636 0.0649743
        endloop
    endfacet
    facet normal -0.0653159 0.152777 0.9861
        outer loop
            vertex -0.104251 -0.00451724 0.103295
            vertex 0.00491148 0.00740138 0.108679
            vertex -0.103484 0.0145223 0.100396
        endloop
    endfacet
    facet normal 0.990513 -0.1325 -0.0364397
        outer loop
            vertex 0.0449962 -0.0255393 0.0876661
            vertex 0.0427894 -0.0358488 0.0651671
            vertex 0.044105 -0.010842 0.01
        endloop
    endfacet
    facet normal 0.94478 -0.306358 -0.116339
        outer loop
            vertex 0.039 -0.0423038 0.0513918
            vertex 0.044105 -0.010842 0.01
            vertex 0.0427894 -0.0358488 0.0651671
        endloop
    endfacet
    facet normal -0.218126 -0.1789 -0.959383
        outer loop
            vertex -0.0479699 0.00300585 0.000131463
            vertex -0.0145779 -0.0292803 -0.00144004
            vertex -0.104342 -0.0139232 0.0161051
        endloop
    endfacet
    facet normal 0.297428 0.895419 -0.331302
        outer loop
            vertex 0.0143835 0.0363065 -0.00109818
            vertex 0.00214823 0.0452288 0.0120321
            vertex 0.0205042 0.0383797 0.01
        endloop
    endfacet
    facet normal -0.0860978 0.752065 -0.653441
        outer loop
            vertex 0.0143835 0.0363065 -0.00109818
            vertex -0.0187053 0.0330371 -0.00050123
            vertex -0.0156159 0.0425149 0.01
        endloop
    endfacet
    facet normal -0.24563 -0.462345 -0.851999
        outer loop
            vertex -0.0145779 -0.0292803 -0.00144004
            vertex -0.00412173 -0.0374348 -2.94174e-005
            vertex -0.104342 -0.0139232 0.0161051
        endloop
    endfacet
    facet normal -0.836348 0.04345 -0.546474
        outer loop
            vertex -0.107328 0.00287295 0.0142916
            vertex -0.113753 -0.00806286 0.0232552
            vertex -0.113141 0.015634 0.0242027
        endloop
    endfacet
    facet normal -0.996915 0.0286681 -0.0730705
        outer loop
            vertex -0.113753 -0.00806286 0.0232552
            vertex -0.113718 0.0266655 0.0364029
            vertex -0.113141 0.015634 0.0242027
        endloop
    endfacet
    facet normal 0.0440067 0.999031 0.000577878
        outer loop
            vertex 0.00214823 0.0452288 0.0120321
            vertex 0.00937475 0.0448772 0.0695606
            vertex 0.039 0.04357 0.0734106
        endloop
    endfacet
    facet normal -0.0552599 0.998191 0.0236974
        outer loop
            vertex -0.101849 0.0386288 0.0733959
            vertex 0.00937475 0.0448772 0.0695606
            vertex -0.0996856 0.0393388 0.0485338
        endloop
    endfacet
    facet normal -0.0531712 0.998504 0.0127818
        outer loop
            vertex 0.00214823 0.0452288 0.0120321
            vertex -0.0996856 0.0393388 0.0485338
            vertex 0.00937475 0.0448772 0.0695606
        endloop
    endfacet
    facet normal 0.319013 0.921138 -0.223013
        outer loop
            vertex 0.00214823 0.0452288 0.0120321
            vertex 0.039 0.0422437 0.0524175
            vertex 0.0205042 0.0383797 0.01
        endloop
    endfacet
    facet normal 0.647163 -0.18889 -0.73858
        outer loop
            vertex 0.0335942 -0.00074572 -0.00179193
            vertex 0.044105 -0.010842 0.01
            vertex 0.030217 -0.0192914 -8.10184e-006
        endloop
    endfacet
    facet normal -0.25978 0.315684 -0.91261
        outer loop
            vertex -0.100342 0.0246446 0.0198341
            vertex -0.0187053 0.0330371 -0.00050123
            vertex -0.107328 0.00287295 0.0142916
        endloop
    endfacet
    facet normal -0.0543596 0.801613 -0.595367
        outer loop
            vertex 0.0143835 0.0363065 -0.00109818
            vertex -0.0156159 0.0425149 0.01
            vertex 0.00214823 0.0452288 0.0120321
        endloop
    endfacet
    facet normal -0.217951 -0.799611 -0.559571
        outer loop
            vertex 0.00581506 -0.0463489 0.00821859
            vertex -0.10522 -0.0366602 0.0376214
            vertex -0.100831 -0.0268768 0.0219317
        endloop
    endfacet
    facet normal 0.225871 0.135172 -0.964733
        outer loop
            vertex 0.0335942 -0.00074572 -0.00179193
            vertex 0.0143835 0.0363065 -0.00109818
            vertex 0.0310587 0.0159247 -4.98106e-005
        endloop
    endfacet
    facet normal 0.799056 -0.52206 -0.298266
        outer loop
            vertex 0.039 -0.0423038 0.0513918
            vertex 0.0281327 -0.0352889 0.01
            vertex 0.044105 -0.010842 0.01
        endloop
    endfacet
    facet normal -0.244172 -0.452074 -0.85791
        outer loop
            vertex -0.104342 -0.0139232 0.0161051
            vertex -0.00412173 -0.0374348 -2.94174e-005
            vertex -0.100831 -0.0268768 0.0219317
        endloop
    endfacet
    facet normal -0.603097 -0.45741 -0.653491
        outer loop
            vertex -0.114251 -0.0236421 0.0320527
            vertex -0.104342 -0.0139232 0.0161051
            vertex -0.100831 -0.0268768 0.0219317
        endloop
    endfacet
    facet normal -0.603661 -0.796868 -0.0243969
        outer loop
            vertex -0.113861 -0.0312796 0.075684
            vertex -0.10522 -0.0366602 0.0376214
            vertex -0.10291 -0.038993 0.0566597
        endloop
    endfacet
    facet normal -0.0551675 -0.998092 0.0277403
        outer loop
            vertex 0.00581506 -0.0463489 0.00821859
            vertex 0.00934841 -0.0449617 0.0651566
            vertex -0.10291 -0.038993 0.0566597
        endloop
    endfacet
    facet normal -0.0491817 -0.611523 0.789697
        outer loop
            vertex -0.106316 -0.0189006 0.0976004
            vertex 0.00509393 -0.0327346 0.0938262
            vertex 0.00250601 -0.0209458 0.102794
        endloop
    endfacet
    facet normal -0.0403911 -0.0799722 0.995978
        outer loop
            vertex -0.104251 -0.00451724 0.103295
            vertex 0.00609718 -0.00898922 0.107411
            vertex 0.00491148 0.00740138 0.108679
        endloop
    endfacet
    facet normal -0.0524813 -0.831675 0.552777
        outer loop
            vertex -0.103848 -0.030021 0.0884963
            vertex -0.103764 -0.0372317 0.0776555
            vertex 0.00861048 -0.04217 0.0808946
        endloop
    endfacet
    facet normal -0.114544 -0.987626 -0.107118
        outer loop
            vertex 0.00581506 -0.0463489 0.00821859
            vertex -0.10291 -0.038993 0.0566597
            vertex -0.10522 -0.0366602 0.0376214
        endloop
    endfacet
    facet normal 0.90467 -0.413981 0.10096
        outer loop
            vertex 0.0449962 -0.0255393 0.0876661
            vertex 0.039 -0.0431102 0.0693477
            vertex 0.0427894 -0.0358488 0.0651671
        endloop
    endfacet
    facet normal 0.0729978 -0.960009 0.270286
        outer loop
            vertex 0.039 -0.0431102 0.0693477
            vertex 0.039 -0.0389083 0.0842721
            vertex 0.00861048 -0.04217 0.0808946
        endloop
    endfacet
    facet normal -0.041612 0.943136 0.329792
        outer loop
            vertex 0.00937475 0.0448772 0.0695606
            vertex -0.101849 0.0386288 0.0733959
            vertex 0.00588581 0.0380098 0.0887597
        endloop
    endfacet
    facet normal 0.708668 0.18264 0.681493
        outer loop
            vertex 0.039 0.0116127 0.106827
            vertex 0.0427897 0.00203128 0.105454
            vertex 0.0427897 0.0205313 0.100496
        endloop
    endfacet
    facet normal -0.0594259 0.71138 0.700291
        outer loop
            vertex 0.00588581 0.0380098 0.0887597
            vertex -0.0999238 0.0335266 0.084335
            vertex -0.103921 0.0245849 0.0930791
        endloop
    endfacet
    facet normal -0.0561636 0.901016 0.430135
        outer loop
            vertex 0.00588581 0.0380098 0.0887597
            vertex -0.101849 0.0386288 0.0733959
            vertex -0.0999238 0.0335266 0.084335
        endloop
    endfacet
    facet normal -0.988023 0.153487 -0.0158784
        outer loop
            vertex -0.113051 0.0331517 0.0575969
            vertex -0.113718 0.0266655 0.0364029
            vertex -0.114633 0.0255151 0.0822178
        endloop
    endfacet
    facet normal -0.426347 0.904489 -0.011269
        outer loop
            vertex -0.113051 0.0331517 0.0575969
            vertex -0.101849 0.0386288 0.0733959
            vertex -0.0996856 0.0393388 0.0485338
        endloop
    endfacet
    facet normal -0.146668 0.959402 -0.240909
        outer loop
            vertex -0.0996856 0.0393388 0.0485338
            vertex -0.0156159 0.0425149 0.01
            vertex -0.103684 0.0360367 0.0378177
        endloop
    endfacet
    facet normal -0.652952 0.729748 -0.202783
        outer loop
            vertex -0.113051 0.0331517 0.0575969
            vertex -0.103684 0.0360367 0.0378177
            vertex -0.113718 0.0266655 0.0364029
        endloop
    endfacet
    facet normal 0.0716052 0.878333 0.472657
        outer loop
            vertex 0.039 0.0314185 0.0959916
            vertex 0.039 0.04357 0.0734106
            vertex 0.00588581 0.0380098 0.0887597
        endloop
    endfacet
    facet normal -0.0294108 0.668045 0.743539
        outer loop
            vertex 0.039 0.0314185 0.0959916
            vertex 0.00588581 0.0380098 0.0887597
            vertex 0.00930777 0.0197532 0.105298
        endloop
    endfacet
    facet normal 0.86937 0.460712 -0.178716
        outer loop
            vertex 0.039 0.0422437 0.0524175
            vertex 0.0427896 0.0399636 0.0649743
            vertex 0.046018 0.0125464 0.01
        endloop
    endfacet
    facet normal 0.893775 -0.43173 0.121552
        outer loop
            vertex 0.0449962 -0.0255393 0.0876661
            vertex 0.039 -0.0389083 0.0842721
            vertex 0.039 -0.0431102 0.0693477
        endloop
    endfacet
    facet normal -0.465066 0.716437 0.520031
        outer loop
            vertex -0.0999238 0.0335266 0.084335
            vertex -0.114633 0.0255151 0.0822178
            vertex -0.103921 0.0245849 0.0930791
        endloop
    endfacet
    facet normal 0.735685 0.461283 0.49597
        outer loop
            vertex 0.039 0.0314185 0.0959916
            vertex 0.0427897 0.0205313 0.100496
            vertex 0.0436954 0.0334433 0.0871436
        endloop
    endfacet
    facet normal -0.597499 0.580518 -0.553167
        outer loop
            vertex -0.100342 0.0246446 0.0198341
            vertex -0.113141 0.015634 0.0242027
            vertex -0.113718 0.0266655 0.0364029
        endloop
    endfacet
    facet normal -0.0952132 -0.0500826 -0.994196
        outer loop
            vertex -0.0479699 0.00300585 0.000131463
            vertex -0.0139088 -0.00542857 -0.00270565
            vertex -0.0145779 -0.0292803 -0.00144004
        endloop
    endfacet
    facet normal -0.217876 -0.782533 -0.583242
        outer loop
            vertex 0.00581506 -0.0463489 0.00821859
            vertex -0.100831 -0.0268768 0.0219317
            vertex -0.00412173 -0.0374348 -2.94174e-005
        endloop
    endfacet
    facet normal 0.445234 -0.856224 -0.262004
        outer loop
            vertex 0.00581506 -0.0463489 0.00821859
            vertex 0.0281327 -0.0352889 0.01
            vertex 0.039 -0.0423038 0.0513918
        endloop
    endfacet
    facet normal 0.413207 -0.750796 -0.515331
        outer loop
            vertex 0.00581506 -0.0463489 0.00821859
            vertex 0.0134941 -0.0365734 0.00013375
            vertex 0.0281327 -0.0352889 0.01
        endloop
    endfacet
    facet normal -0.743545 -0.621434 -0.246902
        outer loop
            vertex -0.10522 -0.0366602 0.0376214
            vertex -0.113394 -0.0306872 0.0472038
            vertex -0.114251 -0.0236421 0.0320527
        endloop
    endfacet
    facet normal 0.575763 0.171123 -0.799509
        outer loop
            vertex 0.0335942 -0.00074572 -0.00179193
            vertex 0.0310587 0.0159247 -4.98106e-005
            vertex 0.046018 0.0125464 0.01
        endloop
    endfacet
    facet normal 0.11056 -0.115086 -0.987184
        outer loop
            vertex 0.0335942 -0.00074572 -0.00179193
            vertex 0.030217 -0.0192914 -8.10184e-006
            vertex 0.0134941 -0.0365734 0.00013375
        endloop
    endfacet
    facet normal 0.569517 0.420101 -0.706516
        outer loop
            vertex 0.034282 0.0284565 0.01
            vertex 0.046018 0.0125464 0.01
            vertex 0.0310587 0.0159247 -4.98106e-005
        endloop
    endfacet
    facet normal 0.0244909 -0.0536562 -0.998259
        outer loop
            vertex 0.0335942 -0.00074572 -0.00179193
            vertex -0.0145779 -0.0292803 -0.00144004
            vertex -0.0139088 -0.00542857 -0.00270565
        endloop
    endfacet
    facet normal 0.0366176 -0.0741077 -0.996578
        outer loop
            vertex 0.0335942 -0.00074572 -0.00179193
            vertex 0.0134941 -0.0365734 0.00013375
            vertex -0.0145779 -0.0292803 -0.00144004
        endloop
    endfacet
    facet normal 0.513158 -0.502269 -0.695984
        outer loop
            vertex 0.030217 -0.0192914 -8.10184e-006
            vertex 0.0281327 -0.0352889 0.01
            vertex 0.0134941 -0.0365734 0.00013375
        endloop
    endfacet
    facet normal -0.51452 -0.855968 0.0508777
        outer loop
            vertex -0.113861 -0.0312796 0.075684
            vertex -0.10291 -0.038993 0.0566597
            vertex -0.103764 -0.0372317 0.0776555
        endloop
    endfacet
    facet normal 0.177288 -0.983168 -0.044154
        outer loop
            vertex 0.00581506 -0.0463489 0.00821859
            vertex 0.039 -0.0423038 0.0513918
            vertex 0.039 -0.0431102 0.0693477
        endloop
    endfacet
    facet normal -0.0534484 -0.639641 0.766814
        outer loop
            vertex -0.106316 -0.0189006 0.0976004
            vertex -0.103848 -0.030021 0.0884963
            vertex 0.00509393 -0.0327346 0.0938262
        endloop
    endfacet
    facet normal -0.753652 -0.0693889 0.653601
        outer loop
            vertex -0.104251 -0.00451724 0.103295
            vertex -0.113801 0.00837503 0.0936518
            vertex -0.114462 -0.0122366 0.0907014
        endloop
    endfacet
    facet normal -0.600139 0.143981 0.786831
        outer loop
            vertex -0.104251 -0.00451724 0.103295
            vertex -0.103484 0.0145223 0.100396
            vertex -0.113801 0.00837503 0.0936518
        endloop
    endfacet
    facet normal 0.0207304 0.257085 0.966166
        outer loop
            vertex 0.039 0.0116127 0.106827
            vertex 0.00930777 0.0197532 0.105298
            vertex 0.00491148 0.00740138 0.108679
        endloop
    endfacet
    facet normal 0.0594025 -0.998021 0.0206289
        outer loop
            vertex 0.00581506 -0.0463489 0.00821859
            vertex 0.039 -0.0431102 0.0693477
            vertex 0.00934841 -0.0449617 0.0651566
        endloop
    endfacet
    facet normal 0.039013 -0.654858 -0.754744
        outer loop
            vertex 0.00581506 -0.0463489 0.00821859
            vertex -0.00412173 -0.0374348 -2.94174e-005
            vertex 0.0134941 -0.0365734 0.00013375
        endloop
    endfacet
    facet normal 0.774447 0.571266 -0.271822
        outer loop
            vertex 0.039 0.0422437 0.0524175
            vertex 0.046018 0.0125464 0.01
            vertex 0.034282 0.0284565 0.01
        endloop
    endfacet
    facet normal 0.62914 0.775746 -0.04901
        outer loop
            vertex 0.039 0.0422437 0.0524175
            vertex 0.039 0.04357 0.0734106
            vertex 0.0427896 0.0399636 0.0649743
        endloop
    endfacet
    facet normal 0.555195 0.770857 -0.312309
        outer loop
            vertex 0.039 0.0422437 0.0524175
            vertex 0.034282 0.0284565 0.01
            vertex 0.0205042 0.0383797 0.01
        endloop
    endfacet
    facet normal 0.995836 0.0227441 0.0882759
        outer loop
            vertex 0.0449962 -0.0255393 0.0876661
            vertex 0.0436954 0.0334433 0.0871436
            vertex 0.0427897 0.00203128 0.105454
        endloop
    endfacet
    facet normal 0.0542491 0 0.998527
        outer loop
            vertex 0.039 0.0116127 0.106827
            vertex 0.00491148 0.00740138 0.108679
            vertex 0.039 -0.00819438 0.106827
        endloop
    endfacet
    facet normal 0.340631 0 0.940197
        outer loop
            vertex 0.039 0.0116127 0.106827
            vertex 0.039 -0.00819438 0.106827
            vertex 0.0427897 0.00203128 0.105454
        endloop
    endfacet
    facet normal -0.519827 0.363594 -0.773032
        outer loop
            vertex -0.100342 0.0246446 0.0198341
            vertex -0.107328 0.00287295 0.0142916
            vertex -0.113141 0.015634 0.0242027
        endloop
    endfacet
    facet normal -0.230504 0.755126 -0.61372
        outer loop
            vertex -0.100342 0.0246446 0.0198341
            vertex -0.0156159 0.0425149 0.01
            vertex -0.0187053 0.0330371 -0.00050123
        endloop
    endfacet
    facet normal 0.148282 0.986977 -0.0623552
        outer loop
            vertex 0.00214823 0.0452288 0.0120321
            vertex 0.039 0.04357 0.0734106
            vertex 0.039 0.0422437 0.0524175
        endloop
    endfacet
    facet normal -0.761408 -0.416072 0.497134
        outer loop
            vertex -0.113861 -0.0312796 0.075684
            vertex -0.106316 -0.0189006 0.0976004
            vertex -0.114462 -0.0122366 0.0907014
        endloop
    endfacet
    facet normal -0.615305 -0.576611 0.537513
        outer loop
            vertex -0.113861 -0.0312796 0.075684
            vertex -0.103848 -0.030021 0.0884963
            vertex -0.106316 -0.0189006 0.0976004
        endloop
    endfacet
    facet normal -0.0512248 -0.361265 0.931055
        outer loop
            vertex -0.106316 -0.0189006 0.0976004
            vertex 0.00250601 -0.0209458 0.102794
            vertex -0.104251 -0.00451724 0.103295
        endloop
    endfacet
    facet normal 0.0218259 -0.365836 0.930423
        outer loop
            vertex 0.039 -0.0258694 0.100002
            vertex 0.00609718 -0.00898922 0.107411
            vertex 0.00250601 -0.0209458 0.102794
        endloop
    endfacet
    facet normal -0.23297 0.801369 -0.550938
        outer loop
            vertex -0.100342 0.0246446 0.0198341
            vertex -0.103684 0.0360367 0.0378177
            vertex -0.0156159 0.0425149 0.01
        endloop
    endfacet
    facet normal 0.0860879 0.478171 0.874038
        outer loop
            vertex 0.039 0.0314185 0.0959916
            vertex 0.00930777 0.0197532 0.105298
            vertex 0.039 0.0116127 0.106827
        endloop
    endfacet
    facet normal 0.318571 0.454946 0.831587
        outer loop
            vertex 0.039 0.0314185 0.0959916
            vertex 0.039 0.0116127 0.106827
            vertex 0.0427897 0.0205313 0.100496
        endloop
    endfacet
    facet normal 0.995537 0.0244282 0.0911503
        outer loop
            vertex 0.0436954 0.0334433 0.0871436
            vertex 0.0427897 0.0205313 0.100496
            vertex 0.0427897 0.00203128 0.105454
        endloop
    endfacet
    facet normal -0.618507 0.44437 0.648062
        outer loop
            vertex -0.114633 0.0255151 0.0822178
            vertex -0.103484 0.0145223 0.100396
            vertex -0.103921 0.0245849 0.0930791
        endloop
    endfacet
    facet normal -0.062277 0.585188 0.808502
        outer loop
            vertex -0.103484 0.0145223 0.100396
            vertex 0.00930777 0.0197532 0.105298
            vertex -0.103921 0.0245849 0.0930791
        endloop
    endfacet
    facet normal -0.543194 0.659971 -0.519018
        outer loop
            vertex -0.100342 0.0246446 0.0198341
            vertex -0.113718 0.0266655 0.0364029
            vertex -0.103684 0.0360367 0.0378177
        endloop
    endfacet
    facet normal 0.719638 -0.0588611 -0.69185
        outer loop
            vertex 0.0335942 -0.00074572 -0.00179193
            vertex 0.046018 0.0125464 0.01
            vertex 0.044105 -0.010842 0.01
        endloop
    endfacet
endsolid D:/Users/Paul Maroldt/Documents/!StartUp_Repositories/module_type_database/0065_D86/D86-papa-proximal_convdec.stl_created_by_BoundingMesh