solid D:/Users/Paul Maroldt/Documents/!StartUp_Repositories/modrob-gen2/ModuleLibrary/L183-L-80-80/L183-L-80-80_convdec.stl_created_by_BoundingMesh
    facet normal 0.117564 0.532386 -0.838298
        outer loop
            vertex 0.173012 0.0293743 0.0207989
            vertex 0.173028 0.0177286 0.0134052
            vertex 0.0018132 0.0342617 -0.000106266
        endloop
    endfacet
    facet normal 0.62287 -0.214701 -0.752287
        outer loop
            vertex 0.183 -0.016604 0.021364
            vertex 0.172983 -0.0188593 0.0137139
            vertex 0.173003 -0.00471489 0.00969367
        endloop
    endfacet
    facet normal 0.952729 0.192568 0.235002
        outer loop
            vertex 0.183 0.0278384 0.0754933
            vertex 0.187007 0.0089868 0.074696
            vertex 0.187053 0.0213222 0.0644015
        endloop
    endfacet
    facet normal 0.954518 -0.285466 -0.0860474
        outer loop
            vertex 0.187236 -0.0250383 0.060652
            vertex 0.183 -0.032279 0.0376837
            vertex 0.187219 -0.016671 0.0327045
        endloop
    endfacet
    facet normal 0.6932 0.650907 -0.309504
        outer loop
            vertex 0.183 0.0257573 0.0282447
            vertex 0.172931 0.0385819 0.032664
            vertex 0.183 0.0333671 0.0442486
        endloop
    endfacet
    facet normal -0.825104 0.205324 0.526352
        outer loop
            vertex -0.0309204 0.015927 0.0520123
            vertex -0.0323245 0.0062006 0.0536054
            vertex -0.0251196 0.0099875 0.0634225
        endloop
    endfacet
    facet normal -0.381715 -0.671815 -0.63479
        outer loop
            vertex -0.0246933 -0.0257049 -8.61601e-005
            vertex -0.0145496 -0.0409987 0.01
            vertex -0.0277717 -0.0334861 0.01
        endloop
    endfacet
    facet normal -0.00990973 -0.00102597 -0.99995
        outer loop
            vertex -0.0338589 0.0113046 -3.32995e-005
            vertex -0.0246933 -0.0257049 -8.61601e-005
            vertex -0.0338781 -0.00835 -1.29432e-005
        endloop
    endfacet
    facet normal -0.81945 0.092894 0.565572
        outer loop
            vertex -0.0323165 -0.00217459 0.0549926
            vertex -0.0251196 0.0099875 0.0634225
            vertex -0.0323245 0.0062006 0.0536054
        endloop
    endfacet
    facet normal 0.999986 0.00118436 -0.00518976
        outer loop
            vertex 0.187236 -0.0250383 0.060652
            vertex 0.187038 0.00702958 0.0298203
            vertex 0.187089 0.0232868 0.0433557
        endloop
    endfacet
    facet normal 0.687356 0.723891 -0.0593545
        outer loop
            vertex 0.172997 0.0430467 0.0464616
            vertex 0.183 0.0344643 0.0576301
            vertex 0.183 0.0333671 0.0442486
        endloop
    endfacet
    facet normal -0.762881 -0.646132 -0.0229418
        outer loop
            vertex -0.03924 -0.0199456 0.01
            vertex -0.0277717 -0.0334861 0.01
            vertex -0.0321194 -0.0289017 0.0254587
        endloop
    endfacet
    facet normal -0.622453 -0.326422 -0.711338
        outer loop
            vertex -0.03924 -0.0199456 0.01
            vertex -0.0338781 -0.00835 -1.29432e-005
            vertex -0.0246933 -0.0257049 -8.61601e-005
        endloop
    endfacet
    facet normal 0.941288 -0.220388 0.255747
        outer loop
            vertex 0.187236 -0.0250383 0.060652
            vertex 0.183 -0.013853 0.0858816
            vertex 0.183 -0.028697 0.0730899
        endloop
    endfacet
    facet normal 0.0699538 -0.0297783 -0.997106
        outer loop
            vertex 0.173003 -0.00471489 0.00969367
            vertex 0.0238252 -0.0296871 -2.63928e-005
            vertex 0.0381427 0.00308007 -5.05772e-007
        endloop
    endfacet
    facet normal 0.950619 0.308862 0.0304581
        outer loop
            vertex 0.187089 0.0232868 0.0433557
            vertex 0.183 0.0344643 0.0576301
            vertex 0.187053 0.0213222 0.0644015
        endloop
    endfacet
    facet normal 0.076973 0.0588597 -0.995294
        outer loop
            vertex 0.173003 -0.00471489 0.00969367
            vertex 0.0210394 0.0299358 -9.56164e-006
            vertex 0.173 0.00720744 0.0103985
        endloop
    endfacet
    facet normal 0.0655536 0.949289 -0.307496
        outer loop
            vertex -0.00619679 0.0432322 0.00883283
            vertex 0.172997 0.0430467 0.0464616
            vertex 0.172931 0.0385819 0.032664
        endloop
    endfacet
    facet normal 0.879765 -0.342869 -0.329324
        outer loop
            vertex 0.187219 -0.016671 0.0327045
            vertex 0.183 -0.032279 0.0376837
            vertex 0.183 -0.016604 0.021364
        endloop
    endfacet
    facet normal 0.00080532 0.939361 0.342928
        outer loop
            vertex 0.0109771 0.0426092 0.0619894
            vertex 0.173028 0.0391227 0.0711592
            vertex 0.17305 0.0428999 0.0608125
        endloop
    endfacet
    facet normal 0.949003 -0.0309336 -0.313745
        outer loop
            vertex 0.187219 -0.016671 0.0327045
            vertex 0.183 0.00573141 0.0177343
            vertex 0.187038 0.00702958 0.0298203
        endloop
    endfacet
    facet normal -0.292149 0.956353 0.00609918
        outer loop
            vertex -0.00619679 0.0432322 0.00883283
            vertex -0.0178442 0.039519 0.0331555
            vertex -0.00497184 0.0433692 0.0460258
        endloop
    endfacet
    facet normal 0.692962 -0.47065 0.546161
        outer loop
            vertex 0.183 -0.013853 0.0858816
            vertex 0.173 -0.0286762 0.0857957
            vertex 0.183 -0.028697 0.0730899
        endloop
    endfacet
    facet normal 0.674044 0.693436 0.254581
        outer loop
            vertex 0.183 0.0278384 0.0754933
            vertex 0.17305 0.0428999 0.0608125
            vertex 0.173028 0.0391227 0.0711592
        endloop
    endfacet
    facet normal -0.081774 0.665917 -0.741531
        outer loop
            vertex -0.00619679 0.0432322 0.00883283
            vertex 0.0018132 0.0342617 -0.000106266
            vertex -0.0123728 0.0326113 -2.39814e-005
        endloop
    endfacet
    facet normal -0.502947 0.0596175 0.862259
        outer loop
            vertex -0.000948297 0.0112166 0.0846521
            vertex -0.00961783 0.000786495 0.0803164
            vertex 0.00451624 -0.0029658 0.0888201
        endloop
    endfacet
    facet normal 0.597953 0.21877 -0.771098
        outer loop
            vertex 0.183 0.00573141 0.0177343
            vertex 0.173 0.00720744 0.0103985
            vertex 0.173028 0.0177286 0.0134052
        endloop
    endfacet
    facet normal -0.299056 0.70769 -0.64011
        outer loop
            vertex -0.00619679 0.0432322 0.00883283
            vertex -0.0123728 0.0326113 -2.39814e-005
            vertex -0.0214912 0.0378248 0.01
        endloop
    endfacet
    facet normal 0.000636617 0.00158596 -0.999999
        outer loop
            vertex -0.0338589 0.0113046 -3.32995e-005
            vertex 0.0381427 0.00308007 -5.05772e-007
            vertex -0.0246933 -0.0257049 -8.61601e-005
        endloop
    endfacet
    facet normal -0.284027 -0.908873 0.305416
        outer loop
            vertex 0.00940935 -0.0427366 0.0607583
            vertex -0.00103345 -0.0404414 0.057877
            vertex -0.00536927 -0.0432058 0.0456184
        endloop
    endfacet
    facet normal 0.955559 0.18685 -0.228024
        outer loop
            vertex 0.183 0.0257573 0.0282447
            vertex 0.187089 0.0232868 0.0433557
            vertex 0.187038 0.00702958 0.0298203
        endloop
    endfacet
    facet normal 0.10783 -0.271946 -0.956252
        outer loop
            vertex 0.173003 -0.00471489 0.00969367
            vertex 0.172983 -0.0188593 0.0137139
            vertex 0.0238252 -0.0296871 -2.63928e-005
        endloop
    endfacet
    facet normal 0.106313 0.272957 -0.956134
        outer loop
            vertex 0.0210394 0.0299358 -9.56164e-006
            vertex 0.173028 0.0177286 0.0134052
            vertex 0.173 0.00720744 0.0103985
        endloop
    endfacet
    facet normal 0.000737456 -0.999924 0.0122725
        outer loop
            vertex 0.173054 -0.0428873 0.0608474
            vertex -0.00536927 -0.0432058 0.0456184
            vertex 0.172967 -0.0430636 0.0464883
        endloop
    endfacet
    facet normal 0.929961 -0.0295861 0.366465
        outer loop
            vertex 0.183 -0.013853 0.0858816
            vertex 0.187029 -0.00704271 0.0762072
            vertex 0.183 0.00855032 0.0876903
        endloop
    endfacet
    facet normal 0.595378 0.0475655 -0.802036
        outer loop
            vertex 0.183 0.00573141 0.0177343
            vertex 0.173003 -0.00471489 0.00969367
            vertex 0.173 0.00720744 0.0103985
        endloop
    endfacet
    facet normal -0.504586 0.674065 0.539472
        outer loop
            vertex -0.0133712 0.0283258 0.0645581
            vertex -0.00573461 0.0297694 0.0698971
            vertex -0.00548961 0.0356929 0.0627249
        endloop
    endfacet
    facet normal -0.807123 0.534473 0.250781
        outer loop
            vertex -0.0353767 0.0250514 0.025323
            vertex -0.0321587 0.0221948 0.041768
            vertex -0.026797 0.030409 0.0415179
        endloop
    endfacet
    facet normal -0.907466 0.0678071 0.414618
        outer loop
            vertex -0.0323165 -0.00217459 0.0549926
            vertex -0.0323245 0.0062006 0.0536054
            vertex -0.0388745 0.00360779 0.0396936
        endloop
    endfacet
    facet normal -0.363641 0.822037 0.438201
        outer loop
            vertex -0.00548961 0.0356929 0.0627249
            vertex 0.00657206 0.0399577 0.0647338
            vertex -0.00161033 0.0407344 0.0564866
        endloop
    endfacet
    facet normal 0.101633 0.746278 -0.65783
        outer loop
            vertex -0.00619679 0.0432322 0.00883283
            vertex 0.173012 0.0293743 0.0207989
            vertex 0.0018132 0.0342617 -0.000106266
        endloop
    endfacet
    facet normal 0.693096 -0.115627 -0.711512
        outer loop
            vertex 0.183 -0.016604 0.021364
            vertex 0.173003 -0.00471489 0.00969367
            vertex 0.183 0.00573141 0.0177343
        endloop
    endfacet
    facet normal 0.00182126 0.999991 -0.00374348
        outer loop
            vertex -0.00619679 0.0432322 0.00883283
            vertex -0.00497184 0.0433692 0.0460258
            vertex 0.172997 0.0430467 0.0464616
        endloop
    endfacet
    facet normal -0.00440261 0.218448 0.975839
        outer loop
            vertex 0.0282155 0.00574277 0.0957579
            vertex 0.173007 0.00881457 0.0957235
            vertex 0.0332523 0.0148094 0.093751
        endloop
    endfacet
    facet normal 0.999996 -0.00249594 0.00147761
        outer loop
            vertex 0.187089 0.0232868 0.0433557
            vertex 0.187053 0.0213222 0.0644015
            vertex 0.187007 0.0089868 0.074696
        endloop
    endfacet
    facet normal -0.933299 0.306066 0.187819
        outer loop
            vertex -0.037741 0.0126821 0.0384354
            vertex -0.0378044 0.0193832 0.0272004
            vertex -0.0411001 0.0129607 0.0212896
        endloop
    endfacet
    facet normal -0.741426 0.425576 0.518818
        outer loop
            vertex -0.0309204 0.015927 0.0520123
            vertex -0.0213084 0.0152304 0.0663199
            vertex -0.0232779 0.0251016 0.0554082
        endloop
    endfacet
    facet normal -0.669333 0.716457 0.19668
        outer loop
            vertex -0.026797 0.030409 0.0415179
            vertex -0.024104 0.0351348 0.0334677
            vertex -0.0287887 0.0325234 0.0270376
        endloop
    endfacet
    facet normal -0.389352 0.855777 0.340663
        outer loop
            vertex -0.00497184 0.0433692 0.0460258
            vertex -0.0123291 0.0396566 0.0469434
            vertex -0.00161033 0.0407344 0.0564866
        endloop
    endfacet
    facet normal 0.115771 0.495292 -0.860978
        outer loop
            vertex 0.0210394 0.0299358 -9.56164e-006
            vertex 0.0018132 0.0342617 -0.000106266
            vertex 0.173028 0.0177286 0.0134052
        endloop
    endfacet
    facet normal -0.833676 -0.54643 0.0799923
        outer loop
            vertex -0.0369485 -0.022457 0.019154
            vertex -0.0321194 -0.0289017 0.0254587
            vertex -0.0361839 -0.0222339 0.0286466
        endloop
    endfacet
    facet normal -0.417148 -0.811787 0.408643
        outer loop
            vertex -0.00103345 -0.0404414 0.057877
            vertex -0.00355083 -0.0361146 0.0639026
            vertex -0.0100929 -0.0382721 0.0529384
        endloop
    endfacet
    facet normal 0.627374 -0.61398 -0.478989
        outer loop
            vertex 0.183 -0.032279 0.0376837
            vertex 0.172937 -0.0385222 0.032506
            vertex 0.173031 -0.0298362 0.0214952
        endloop
    endfacet
    facet normal 0.101894 -0.781453 -0.615588
        outer loop
            vertex 0.172937 -0.0385222 0.032506
            vertex -0.00161029 -0.0431542 0.00949445
            vertex 0.173031 -0.0298362 0.0214952
        endloop
    endfacet
    facet normal -0.61589 -0.521635 -0.590404
        outer loop
            vertex -0.03924 -0.0199456 0.01
            vertex -0.0246933 -0.0257049 -8.61601e-005
            vertex -0.0277717 -0.0334861 0.01
        endloop
    endfacet
    facet normal -0.765779 0.511711 0.389531
        outer loop
            vertex -0.026797 0.030409 0.0415179
            vertex -0.0321587 0.0221948 0.041768
            vertex -0.0232779 0.0251016 0.0554082
        endloop
    endfacet
    facet normal 0.999961 0.00551908 0.00692147
        outer loop
            vertex 0.187236 -0.0250383 0.060652
            vertex 0.187089 0.0232868 0.0433557
            vertex 0.187029 -0.00704271 0.0762072
        endloop
    endfacet
    facet normal 0.102087 -0.754488 -0.648325
        outer loop
            vertex -0.0044231 -0.0352016 -0.000203291
            vertex 0.173031 -0.0298362 0.0214952
            vertex -0.00161029 -0.0431542 0.00949445
        endloop
    endfacet
    facet normal -0.429699 0.814076 0.39069
        outer loop
            vertex -0.0123291 0.0396566 0.0469434
            vertex -0.00548961 0.0356929 0.0627249
            vertex -0.00161033 0.0407344 0.0564866
        endloop
    endfacet
    facet normal 0.101497 0.786279 -0.609478
        outer loop
            vertex -0.00619679 0.0432322 0.00883283
            vertex 0.172931 0.0385819 0.032664
            vertex 0.173012 0.0293743 0.0207989
        endloop
    endfacet
    facet normal -0.590792 0.766375 0.252259
        outer loop
            vertex -0.026797 0.030409 0.0415179
            vertex -0.0176861 0.0341305 0.0515496
            vertex -0.024104 0.0351348 0.0334677
        endloop
    endfacet
    facet normal 0.00266628 -0.198721 0.980053
        outer loop
            vertex 0.0330944 -0.01093 0.0950191
            vertex 0.173 -0.0159732 0.0936159
            vertex 0.173 -0.00365202 0.0961142
        endloop
    endfacet
    facet normal 0.946346 -0.205028 0.249787
        outer loop
            vertex 0.187236 -0.0250383 0.060652
            vertex 0.187029 -0.00704271 0.0762072
            vertex 0.183 -0.013853 0.0858816
        endloop
    endfacet
    facet normal -0.391595 -0.91139 0.126575
        outer loop
            vertex -0.00536927 -0.0432058 0.0456184
            vertex -0.0113202 -0.0407689 0.0447542
            vertex -0.0162628 -0.0400364 0.0347372
        endloop
    endfacet
    facet normal 0.0658374 -0.948986 -0.308368
        outer loop
            vertex 0.172937 -0.0385222 0.032506
            vertex 0.172967 -0.0430636 0.0464883
            vertex -0.00161029 -0.0431542 0.00949445
        endloop
    endfacet
    facet normal -0.522281 -0.695425 0.493565
        outer loop
            vertex -0.00689951 -0.028837 0.0706131
            vertex -0.0169593 -0.0297662 0.0586588
            vertex -0.00355083 -0.0361146 0.0639026
        endloop
    endfacet
    facet normal -0.307879 -0.840048 0.446688
        outer loop
            vertex 0.00983892 -0.0367057 0.0723962
            vertex -0.00103345 -0.0404414 0.057877
            vertex 0.00940935 -0.0427366 0.0607583
        endloop
    endfacet
    facet normal 0.635629 0.414402 -0.651342
        outer loop
            vertex 0.183 0.0257573 0.0282447
            vertex 0.173028 0.0177286 0.0134052
            vertex 0.173012 0.0293743 0.0207989
        endloop
    endfacet
    facet normal 0.595701 0.636516 -0.489885
        outer loop
            vertex 0.183 0.0257573 0.0282447
            vertex 0.173012 0.0293743 0.0207989
            vertex 0.172931 0.0385819 0.032664
        endloop
    endfacet
    facet normal -0.839615 0.543074 -0.0108018
        outer loop
            vertex -0.0399912 0.0176169 0.0102255
            vertex -0.0353767 0.0250514 0.025323
            vertex -0.0331967 0.028117 0.01
        endloop
    endfacet
    facet normal -0.676219 0.471601 0.565969
        outer loop
            vertex -0.0133712 0.0283258 0.0645581
            vertex -0.0232779 0.0251016 0.0554082
            vertex -0.0144383 0.0193648 0.07075
        endloop
    endfacet
    facet normal -0.0020681 0.452636 0.891693
        outer loop
            vertex 0.0332523 0.0148094 0.093751
            vertex 0.173 0.0208729 0.0909972
            vertex 0.0340682 0.0244746 0.0888467
        endloop
    endfacet
    facet normal -0.661273 0.493027 0.565369
        outer loop
            vertex -0.0213084 0.0152304 0.0663199
            vertex -0.0144383 0.0193648 0.07075
            vertex -0.0232779 0.0251016 0.0554082
        endloop
    endfacet
    facet normal -0.468022 0.787669 0.400666
        outer loop
            vertex -0.0176861 0.0341305 0.0515496
            vertex -0.00548961 0.0356929 0.0627249
            vertex -0.0123291 0.0396566 0.0469434
        endloop
    endfacet
    facet normal 0.639702 0.457069 0.617956
        outer loop
            vertex 0.173 0.0328443 0.0821426
            vertex 0.173 0.0208729 0.0909972
            vertex 0.183 0.0278384 0.0754933
        endloop
    endfacet
    facet normal -0.638 0.76929 -0.0338954
        outer loop
            vertex -0.0287887 0.0325234 0.0270376
            vertex -0.0214912 0.0378248 0.01
            vertex -0.0331967 0.028117 0.01
        endloop
    endfacet
    facet normal -0.568971 0.818237 0.0822253
        outer loop
            vertex -0.0287887 0.0325234 0.0270376
            vertex -0.024104 0.0351348 0.0334677
            vertex -0.0178442 0.039519 0.0331555
        endloop
    endfacet
    facet normal -0.690208 0.600199 0.404196
        outer loop
            vertex -0.026797 0.030409 0.0415179
            vertex -0.0232779 0.0251016 0.0554082
            vertex -0.0176861 0.0341305 0.0515496
        endloop
    endfacet
    facet normal -0.00104396 -0.951205 0.308558
        outer loop
            vertex 0.00940935 -0.0427366 0.0607583
            vertex 0.173054 -0.0428873 0.0608474
            vertex 0.0187046 -0.0397824 0.0698968
        endloop
    endfacet
    facet normal 0.116302 -0.569665 -0.813606
        outer loop
            vertex -0.0044231 -0.0352016 -0.000203291
            vertex 0.0238252 -0.0296871 -2.63928e-005
            vertex 0.172983 -0.0188593 0.0137139
        endloop
    endfacet
    facet normal 0.693021 -0.715662 -0.0868918
        outer loop
            vertex 0.183 -0.032279 0.0376837
            vertex 0.183 -0.034644 0.0571624
            vertex 0.172967 -0.0430636 0.0464883
        endloop
    endfacet
    facet normal -0.689084 -0.643902 0.332496
        outer loop
            vertex -0.0307434 -0.0249375 0.042374
            vertex -0.0287704 -0.0292105 0.038188
            vertex -0.0195666 -0.0337337 0.048503
        endloop
    endfacet
    facet normal -0.748075 -0.200377 -0.63264
        outer loop
            vertex -0.03924 -0.0199456 0.01
            vertex -0.0433912 -0.00444774 0.01
            vertex -0.0338781 -0.00835 -1.29432e-005
        endloop
    endfacet
    facet normal -0.949584 0.249312 0.190088
        outer loop
            vertex -0.0429201 0.00332935 0.0248299
            vertex -0.037741 0.0126821 0.0384354
            vertex -0.0411001 0.0129607 0.0212896
        endloop
    endfacet
    facet normal -0.913868 0.39879 0.076234
        outer loop
            vertex -0.0399912 0.0176169 0.0102255
            vertex -0.0411001 0.0129607 0.0212896
            vertex -0.0378044 0.0193832 0.0272004
        endloop
    endfacet
    facet normal -0.79515 -0.0969001 0.598621
        outer loop
            vertex -0.026708 -0.0124567 0.060778
            vertex -0.0226583 -0.000572196 0.068081
            vertex -0.0323165 -0.00217459 0.0549926
        endloop
    endfacet
    facet normal -0.988539 -0.11849 0.0935411
        outer loop
            vertex -0.0429201 0.00332935 0.0248299
            vertex -0.0433912 -0.00444774 0.01
            vertex -0.0413448 -0.0131712 0.0205762
        endloop
    endfacet
    facet normal -0.912922 0.0394139 0.406226
        outer loop
            vertex -0.0323165 -0.00217459 0.0549926
            vertex -0.0388745 0.00360779 0.0396936
            vertex -0.0383049 -0.00267743 0.0415835
        endloop
    endfacet
    facet normal -0.858795 0.449337 0.246104
        outer loop
            vertex -0.0353767 0.0250514 0.025323
            vertex -0.0378044 0.0193832 0.0272004
            vertex -0.0321587 0.0221948 0.041768
        endloop
    endfacet
    facet normal -0.895806 -0.436737 0.0824186
        outer loop
            vertex -0.0369485 -0.022457 0.019154
            vertex -0.0361839 -0.0222339 0.0286466
            vertex -0.0413448 -0.0131712 0.0205762
        endloop
    endfacet
    facet normal -0.341331 0.0488831 0.938671
        outer loop
            vertex 0.00451624 -0.0029658 0.0888201
            vertex 0.0198181 -0.0005281 0.0942574
            vertex 0.0129041 0.00787193 0.0913058
        endloop
    endfacet
    facet normal -0.969227 0.246086 0.0064218
        outer loop
            vertex -0.0399912 0.0176169 0.0102255
            vertex -0.0428413 0.00640502 0.00971101
            vertex -0.0411001 0.0129607 0.0212896
        endloop
    endfacet
    facet normal -0.757445 0.623049 0.19516
        outer loop
            vertex -0.0353767 0.0250514 0.025323
            vertex -0.026797 0.030409 0.0415179
            vertex -0.0287887 0.0325234 0.0270376
        endloop
    endfacet
    facet normal -0.428301 0.888915 0.162447
        outer loop
            vertex -0.00497184 0.0433692 0.0460258
            vertex -0.0178442 0.039519 0.0331555
            vertex -0.0123291 0.0396566 0.0469434
        endloop
    endfacet
    facet normal 0.000449651 -5.08402e-005 -1
        outer loop
            vertex -0.0338589 0.0113046 -3.32995e-005
            vertex 0.0210394 0.0299358 -9.56164e-006
            vertex 0.0381427 0.00308007 -5.05772e-007
        endloop
    endfacet
    facet normal 0.937016 0.186681 0.295214
        outer loop
            vertex 0.183 0.0278384 0.0754933
            vertex 0.183 0.00855032 0.0876903
            vertex 0.187007 0.0089868 0.074696
        endloop
    endfacet
    facet normal 0.925258 0.37807 -0.0309993
        outer loop
            vertex 0.187089 0.0232868 0.0433557
            vertex 0.183 0.0333671 0.0442486
            vertex 0.183 0.0344643 0.0576301
        endloop
    endfacet
    facet normal 0.602014 -0.460022 -0.652656
        outer loop
            vertex 0.183 -0.016604 0.021364
            vertex 0.173031 -0.0298362 0.0214952
            vertex 0.172983 -0.0188593 0.0137139
        endloop
    endfacet
    facet normal 0.999968 0.00784816 0.00174135
        outer loop
            vertex 0.187236 -0.0250383 0.060652
            vertex 0.187219 -0.016671 0.0327045
            vertex 0.187038 0.00702958 0.0298203
        endloop
    endfacet
    facet normal -0.154477 -0.851792 0.500587
        outer loop
            vertex 0.00983892 -0.0367057 0.0723962
            vertex 0.0187046 -0.0397824 0.0698968
            vertex 0.0205071 -0.0369104 0.07534
        endloop
    endfacet
    facet normal 0.999993 0.0016925 0.00338871
        outer loop
            vertex 0.187089 0.0232868 0.0433557
            vertex 0.187007 0.0089868 0.074696
            vertex 0.187029 -0.00704271 0.0762072
        endloop
    endfacet
    facet normal -0.679542 -0.061347 0.731067
        outer loop
            vertex -0.00961783 0.000786495 0.0803164
            vertex -0.0226583 -0.000572196 0.068081
            vertex -0.0187403 -0.0105402 0.0708864
        endloop
    endfacet
    facet normal 0.604065 0.291124 0.741857
        outer loop
            vertex 0.183 0.00855032 0.0876903
            vertex 0.173 0.0208729 0.0909972
            vertex 0.173007 0.00881457 0.0957235
        endloop
    endfacet
    facet normal 0.878213 -0.448057 0.167295
        outer loop
            vertex 0.187236 -0.0250383 0.060652
            vertex 0.183 -0.028697 0.0730899
            vertex 0.183 -0.034644 0.0571624
        endloop
    endfacet
    facet normal 0.928519 0.172545 -0.328757
        outer loop
            vertex 0.183 0.0257573 0.0282447
            vertex 0.187038 0.00702958 0.0298203
            vertex 0.183 0.00573141 0.0177343
        endloop
    endfacet
    facet normal -0.294991 0.878657 0.375423
        outer loop
            vertex 0.0109771 0.0426092 0.0619894
            vertex -0.00161033 0.0407344 0.0564866
            vertex 0.00657206 0.0399577 0.0647338
        endloop
    endfacet
    facet normal -0.634867 0.285794 0.71782
        outer loop
            vertex -0.0213084 0.0152304 0.0663199
            vertex -0.00874615 0.0149017 0.0775613
            vertex -0.0144383 0.0193648 0.07075
        endloop
    endfacet
    facet normal -0.63981 -0.117073 0.759564
        outer loop
            vertex -0.00961783 0.000786495 0.0803164
            vertex -0.0187403 -0.0105402 0.0708864
            vertex -0.007642 -0.00625371 0.0808956
        endloop
    endfacet
    facet normal -0.499544 -0.39893 0.768967
        outer loop
            vertex 0.00332442 -0.0147219 0.0857111
            vertex -0.00920246 -0.0163969 0.0767043
            vertex -0.000993329 -0.0250145 0.0775665
        endloop
    endfacet
    facet normal -0.230085 0.441079 0.867473
        outer loop
            vertex 0.0117535 0.0257055 0.0837517
            vertex 0.0127729 0.0182727 0.0878014
            vertex 0.0249853 0.0239871 0.088135
        endloop
    endfacet
    facet normal -0.00336606 0.825402 0.564535
        outer loop
            vertex 0.173 0.0328443 0.0821426
            vertex 0.0217911 0.0382136 0.0733906
            vertex 0.025604 0.0328457 0.0812617
        endloop
    endfacet
    facet normal 0.00145992 -0.524241 0.851569
        outer loop
            vertex 0.173 -0.0159732 0.0936159
            vertex 0.0342304 -0.020514 0.0910584
            vertex 0.173 -0.0286762 0.0857957
        endloop
    endfacet
    facet normal -0.422388 0.705908 0.568579
        outer loop
            vertex -0.00548961 0.0356929 0.0627249
            vertex -0.00573461 0.0297694 0.0698971
            vertex 0.00445287 0.0337346 0.0725423
        endloop
    endfacet
    facet normal -0.582839 0.773234 0.249817
        outer loop
            vertex -0.0176861 0.0341305 0.0515496
            vertex -0.0123291 0.0396566 0.0469434
            vertex -0.024104 0.0351348 0.0334677
        endloop
    endfacet
    facet normal -0.0943554 0.614381 0.783347
        outer loop
            vertex 0.025604 0.0328457 0.0812617
            vertex 0.0249853 0.0239871 0.088135
            vertex 0.0340682 0.0244746 0.0888467
        endloop
    endfacet
    facet normal -0.639023 0.600945 0.480119
        outer loop
            vertex -0.0176861 0.0341305 0.0515496
            vertex -0.0232779 0.0251016 0.0554082
            vertex -0.0133712 0.0283258 0.0645581
        endloop
    endfacet
    facet normal -0.103507 0.797676 0.594137
        outer loop
            vertex 0.0151617 0.0347492 0.0768869
            vertex 0.025604 0.0328457 0.0812617
            vertex 0.0217911 0.0382136 0.0733906
        endloop
    endfacet
    facet normal 0.686261 0.338019 -0.644041
        outer loop
            vertex 0.183 0.0257573 0.0282447
            vertex 0.183 0.00573141 0.0177343
            vertex 0.173028 0.0177286 0.0134052
        endloop
    endfacet
    facet normal -0.633732 -0.343586 0.69306
        outer loop
            vertex -0.0187403 -0.0105402 0.0708864
            vertex -0.0176322 -0.0199347 0.0672423
            vertex -0.00920246 -0.0163969 0.0767043
        endloop
    endfacet
    facet normal -0.740902 0.181188 0.646711
        outer loop
            vertex -0.0213084 0.0152304 0.0663199
            vertex -0.0251196 0.0099875 0.0634225
            vertex -0.0170817 0.00854764 0.0730345
        endloop
    endfacet
    facet normal -0.366495 -0.648092 0.667576
        outer loop
            vertex 0.0100517 -0.024992 0.083652
            vertex -0.000993329 -0.0250145 0.0775665
            vertex -0.00689951 -0.028837 0.0706131
        endloop
    endfacet
    facet normal -0.338604 0.646528 0.683629
        outer loop
            vertex 0.0117535 0.0257055 0.0837517
            vertex 0.0151617 0.0347492 0.0768869
            vertex 0.00445287 0.0337346 0.0725423
        endloop
    endfacet
    facet normal -0.533853 0.69204 0.485883
        outer loop
            vertex -0.0176861 0.0341305 0.0515496
            vertex -0.0133712 0.0283258 0.0645581
            vertex -0.00548961 0.0356929 0.0627249
        endloop
    endfacet
    facet normal 0.684171 0.389796 0.616416
        outer loop
            vertex 0.183 0.0278384 0.0754933
            vertex 0.173 0.0208729 0.0909972
            vertex 0.183 0.00855032 0.0876903
        endloop
    endfacet
    facet normal -0.673397 -0.511826 0.533452
        outer loop
            vertex -0.0176322 -0.0199347 0.0672423
            vertex -0.0251472 -0.0234168 0.0544149
            vertex -0.0169593 -0.0297662 0.0586588
        endloop
    endfacet
    facet normal 0.00125179 0.000243062 -0.999999
        outer loop
            vertex -0.0246933 -0.0257049 -8.61601e-005
            vertex 0.0381427 0.00308007 -5.05772e-007
            vertex 0.0238252 -0.0296871 -2.63928e-005
        endloop
    endfacet
    facet normal -0.25525 -0.667507 0.699487
        outer loop
            vertex 0.0100517 -0.024992 0.083652
            vertex 0.00983892 -0.0367057 0.0723962
            vertex 0.0230114 -0.0329836 0.0807549
        endloop
    endfacet
    facet normal -0.312551 -0.658681 -0.684435
        outer loop
            vertex -0.0246933 -0.0257049 -8.61601e-005
            vertex -0.0044231 -0.0352016 -0.000203291
            vertex -0.0145496 -0.0409987 0.01
        endloop
    endfacet
    facet normal 0.074321 0.0469961 -0.996126
        outer loop
            vertex 0.173003 -0.00471489 0.00969367
            vertex 0.0381427 0.00308007 -5.05772e-007
            vertex 0.0210394 0.0299358 -9.56164e-006
        endloop
    endfacet
    facet normal -0.792 0.274304 0.545429
        outer loop
            vertex -0.0309204 0.015927 0.0520123
            vertex -0.0251196 0.0099875 0.0634225
            vertex -0.0213084 0.0152304 0.0663199
        endloop
    endfacet
    facet normal -0.540359 0.507067 0.671488
        outer loop
            vertex -0.0144383 0.0193648 0.07075
            vertex -0.00153641 0.0234206 0.0780697
            vertex -0.00573461 0.0297694 0.0698971
        endloop
    endfacet
    facet normal -0.80141 -0.420298 0.425549
        outer loop
            vertex -0.0347864 -0.0135937 0.0459639
            vertex -0.0307434 -0.0249375 0.042374
            vertex -0.0251472 -0.0234168 0.0544149
        endloop
    endfacet
    facet normal -0.000937788 -0.999491 0.0318906
        outer loop
            vertex 0.00940935 -0.0427366 0.0607583
            vertex -0.00536927 -0.0432058 0.0456184
            vertex 0.173054 -0.0428873 0.0608474
        endloop
    endfacet
    facet normal -0.564527 -0.469872 0.678623
        outer loop
            vertex -0.000993329 -0.0250145 0.0775665
            vertex -0.00920246 -0.0163969 0.0767043
            vertex -0.0176322 -0.0199347 0.0672423
        endloop
    endfacet
    facet normal -0.934542 -0.177444 0.308455
        outer loop
            vertex -0.0347864 -0.0135937 0.0459639
            vertex -0.0383049 -0.00267743 0.0415835
            vertex -0.0407414 -0.0101703 0.0298911
        endloop
    endfacet
    facet normal -0.998699 0.0507396 0.00511676
        outer loop
            vertex -0.0429201 0.00332935 0.0248299
            vertex -0.0428413 0.00640502 0.00971101
            vertex -0.0433912 -0.00444774 0.01
        endloop
    endfacet
    facet normal -0.130131 -0.0871477 0.987659
        outer loop
            vertex 0.0198181 -0.0005281 0.0942574
            vertex 0.0279343 -0.00935512 0.0945479
            vertex 0.0343481 -0.00120614 0.096112
        endloop
    endfacet
    facet normal -0.417029 0.415816 0.808198
        outer loop
            vertex -0.000948297 0.0112166 0.0846521
            vertex 0.0117535 0.0257055 0.0837517
            vertex -0.00153641 0.0234206 0.0780697
        endloop
    endfacet
    facet normal -0.000296944 0.932962 0.359974
        outer loop
            vertex 0.0109771 0.0426092 0.0619894
            vertex 0.0217911 0.0382136 0.0733906
            vertex 0.173028 0.0391227 0.0711592
        endloop
    endfacet
    facet normal -0.967772 -0.0649708 0.243303
        outer loop
            vertex -0.0429201 0.00332935 0.0248299
            vertex -0.0407414 -0.0101703 0.0298911
            vertex -0.0383049 -0.00267743 0.0415835
        endloop
    endfacet
    facet normal -0.979563 0.198037 0.0351815
        outer loop
            vertex -0.0429201 0.00332935 0.0248299
            vertex -0.0411001 0.0129607 0.0212896
            vertex -0.0428413 0.00640502 0.00971101
        endloop
    endfacet
    facet normal -0.55398 0.516914 0.652614
        outer loop
            vertex -0.0133712 0.0283258 0.0645581
            vertex -0.0144383 0.0193648 0.07075
            vertex -0.00573461 0.0297694 0.0698971
        endloop
    endfacet
    facet normal -0.412289 0.604635 0.681494
        outer loop
            vertex -0.00573461 0.0297694 0.0698971
            vertex -0.00153641 0.0234206 0.0780697
            vertex 0.00445287 0.0337346 0.0725423
        endloop
    endfacet
    facet normal -0.334394 0.942293 -0.016277
        outer loop
            vertex -0.00619679 0.0432322 0.00883283
            vertex -0.0214912 0.0378248 0.01
            vertex -0.0178442 0.039519 0.0331555
        endloop
    endfacet
    facet normal -0.154265 -0.785464 -0.599373
        outer loop
            vertex -0.0044231 -0.0352016 -0.000203291
            vertex -0.00161029 -0.0431542 0.00949445
            vertex -0.0145496 -0.0409987 0.01
        endloop
    endfacet
    facet normal -0.188882 -0.751388 0.63225
        outer loop
            vertex 0.00983892 -0.0367057 0.0723962
            vertex 0.0205071 -0.0369104 0.07534
            vertex 0.0230114 -0.0329836 0.0807549
        endloop
    endfacet
    facet normal 0.935629 -0.0566206 -0.348416
        outer loop
            vertex 0.187219 -0.016671 0.0327045
            vertex 0.183 -0.016604 0.021364
            vertex 0.183 0.00573141 0.0177343
        endloop
    endfacet
    facet normal 0.920178 -0.388645 -0.0471872
        outer loop
            vertex 0.187236 -0.0250383 0.060652
            vertex 0.183 -0.034644 0.0571624
            vertex 0.183 -0.032279 0.0376837
        endloop
    endfacet
    facet normal -0.00143577 0.998798 0.0489856
        outer loop
            vertex 0.0109771 0.0426092 0.0619894
            vertex 0.17305 0.0428999 0.0608125
            vertex -0.00497184 0.0433692 0.0460258
        endloop
    endfacet
    facet normal -0.273717 0.908173 0.316702
        outer loop
            vertex 0.0109771 0.0426092 0.0619894
            vertex -0.00497184 0.0433692 0.0460258
            vertex -0.00161033 0.0407344 0.0564866
        endloop
    endfacet
    facet normal -0.295479 0.784581 0.545092
        outer loop
            vertex 0.0151617 0.0347492 0.0768869
            vertex 0.00657206 0.0399577 0.0647338
            vertex 0.00445287 0.0337346 0.0725423
        endloop
    endfacet
    facet normal -0.512779 0.38828 0.7657
        outer loop
            vertex -0.000948297 0.0112166 0.0846521
            vertex -0.00153641 0.0234206 0.0780697
            vertex -0.00874615 0.0149017 0.0775613
        endloop
    endfacet
    facet normal -0.360448 0.774679 0.519567
        outer loop
            vertex -0.00548961 0.0356929 0.0627249
            vertex 0.00445287 0.0337346 0.0725423
            vertex 0.00657206 0.0399577 0.0647338
        endloop
    endfacet
    facet normal -0.894325 0.195057 0.402661
        outer loop
            vertex -0.0309204 0.015927 0.0520123
            vertex -0.037741 0.0126821 0.0384354
            vertex -0.0323245 0.0062006 0.0536054
        endloop
    endfacet
    facet normal -0.412919 0.598221 -0.686752
        outer loop
            vertex -0.0123728 0.0326113 -2.39814e-005
            vertex -0.0237827 0.0247601 -2.70149e-006
            vertex -0.0214912 0.0378248 0.01
        endloop
    endfacet
    facet normal -0.754345 0.109711 0.647245
        outer loop
            vertex -0.0170817 0.00854764 0.0730345
            vertex -0.0251196 0.0099875 0.0634225
            vertex -0.0226583 -0.000572196 0.068081
        endloop
    endfacet
    facet normal -0.594193 0.166815 0.786834
        outer loop
            vertex -0.000948297 0.0112166 0.0846521
            vertex -0.0170817 0.00854764 0.0730345
            vertex -0.00961783 0.000786495 0.0803164
        endloop
    endfacet
    facet normal -0.196127 0.843462 0.500106
        outer loop
            vertex 0.0151617 0.0347492 0.0768869
            vertex 0.0109771 0.0426092 0.0619894
            vertex 0.00657206 0.0399577 0.0647338
        endloop
    endfacet
    facet normal -0.65122 0.407651 -0.640104
        outer loop
            vertex -0.0399912 0.0176169 0.0102255
            vertex -0.0331967 0.028117 0.01
            vertex -0.0338589 0.0113046 -3.32995e-005
        endloop
    endfacet
    facet normal -0.770074 0.22318 -0.597643
        outer loop
            vertex -0.0399912 0.0176169 0.0102255
            vertex -0.0338589 0.0113046 -3.32995e-005
            vertex -0.0428413 0.00640502 0.00971101
        endloop
    endfacet
    facet normal -0.701417 -0.712613 0.0140603
        outer loop
            vertex -0.0276536 -0.0332449 0.0281163
            vertex -0.0321194 -0.0289017 0.0254587
            vertex -0.0277717 -0.0334861 0.01
        endloop
    endfacet
    facet normal -0.682071 -0.604644 0.41132
        outer loop
            vertex -0.0169593 -0.0297662 0.0586588
            vertex -0.0251472 -0.0234168 0.0544149
            vertex -0.0195666 -0.0337337 0.048503
        endloop
    endfacet
    facet normal -0.372296 -0.63954 0.672595
        outer loop
            vertex 0.0100517 -0.024992 0.083652
            vertex -0.00689951 -0.028837 0.0706131
            vertex 0.00983892 -0.0367057 0.0723962
        endloop
    endfacet
    facet normal -0.294716 -0.955438 0.0167566
        outer loop
            vertex -0.00536927 -0.0432058 0.0456184
            vertex -0.0162628 -0.0400364 0.0347372
            vertex -0.0145496 -0.0409987 0.01
        endloop
    endfacet
    facet normal -0.645695 -0.717405 0.261549
        outer loop
            vertex -0.0218451 -0.0371808 0.0334229
            vertex -0.0195666 -0.0337337 0.048503
            vertex -0.0287704 -0.0292105 0.038188
        endloop
    endfacet
    facet normal -0.721317 0.0181121 -0.692368
        outer loop
            vertex -0.0433912 -0.00444774 0.01
            vertex -0.0428413 0.00640502 0.00971101
            vertex -0.0338781 -0.00835 -1.29432e-005
        endloop
    endfacet
    facet normal -0.8702 0.420972 0.255998
        outer loop
            vertex -0.037741 0.0126821 0.0384354
            vertex -0.0321587 0.0221948 0.041768
            vertex -0.0378044 0.0193832 0.0272004
        endloop
    endfacet
    facet normal -0.432435 -0.440947 0.786489
        outer loop
            vertex 0.0100517 -0.024992 0.083652
            vertex 0.00332442 -0.0147219 0.0857111
            vertex -0.000993329 -0.0250145 0.0775665
        endloop
    endfacet
    facet normal -0.987335 -0.120779 0.102868
        outer loop
            vertex -0.0429201 0.00332935 0.0248299
            vertex -0.0413448 -0.0131712 0.0205762
            vertex -0.0407414 -0.0101703 0.0298911
        endloop
    endfacet
    facet normal -0.548364 0.835859 0.0252109
        outer loop
            vertex -0.0287887 0.0325234 0.0270376
            vertex -0.0178442 0.039519 0.0331555
            vertex -0.0214912 0.0378248 0.01
        endloop
    endfacet
    facet normal -0.858369 0.384869 0.339233
        outer loop
            vertex -0.0309204 0.015927 0.0520123
            vertex -0.0321587 0.0221948 0.041768
            vertex -0.037741 0.0126821 0.0384354
        endloop
    endfacet
    facet normal -0.772117 0.49625 0.396953
        outer loop
            vertex -0.0309204 0.015927 0.0520123
            vertex -0.0232779 0.0251016 0.0554082
            vertex -0.0321587 0.0221948 0.041768
        endloop
    endfacet
    facet normal -0.173375 -0.871791 0.458172
        outer loop
            vertex 0.00983892 -0.0367057 0.0723962
            vertex 0.00940935 -0.0427366 0.0607583
            vertex 0.0187046 -0.0397824 0.0698968
        endloop
    endfacet
    facet normal 0.627953 -0.60037 0.495208
        outer loop
            vertex 0.173019 -0.0378469 0.0746534
            vertex 0.183 -0.028697 0.0730899
            vertex 0.173 -0.0286762 0.0857957
        endloop
    endfacet
    facet normal 0.926338 0.353179 0.131003
        outer loop
            vertex 0.183 0.0278384 0.0754933
            vertex 0.187053 0.0213222 0.0644015
            vertex 0.183 0.0344643 0.0576301
        endloop
    endfacet
    facet normal 0.62476 -0.155165 0.765244
        outer loop
            vertex 0.183 -0.013853 0.0858816
            vertex 0.173 -0.00365202 0.0961142
            vertex 0.173 -0.0159732 0.0936159
        endloop
    endfacet
    facet normal -0.297846 0.301431 0.905774
        outer loop
            vertex 0.0129041 0.00787193 0.0913058
            vertex 0.0209649 0.0161061 0.0912162
            vertex 0.0127729 0.0182727 0.0878014
        endloop
    endfacet
    facet normal 0.609983 -0.415416 0.674796
        outer loop
            vertex 0.183 -0.013853 0.0858816
            vertex 0.173 -0.0159732 0.0936159
            vertex 0.173 -0.0286762 0.0857957
        endloop
    endfacet
    facet normal -0.544127 0.41706 0.728002
        outer loop
            vertex -0.0144383 0.0193648 0.07075
            vertex -0.00874615 0.0149017 0.0775613
            vertex -0.00153641 0.0234206 0.0780697
        endloop
    endfacet
    facet normal -0.162518 0.29846 0.940484
        outer loop
            vertex 0.0282155 0.00574277 0.0957579
            vertex 0.0332523 0.0148094 0.093751
            vertex 0.0209649 0.0161061 0.0912162
        endloop
    endfacet
    facet normal -0.176283 0.611067 0.771701
        outer loop
            vertex 0.0117535 0.0257055 0.0837517
            vertex 0.0249853 0.0239871 0.088135
            vertex 0.025604 0.0328457 0.0812617
        endloop
    endfacet
    facet normal -0.129278 -0.0636661 0.989562
        outer loop
            vertex 0.0282155 0.00574277 0.0957579
            vertex 0.0198181 -0.0005281 0.0942574
            vertex 0.0343481 -0.00120614 0.096112
        endloop
    endfacet
    facet normal 0.905401 0.383418 -0.182314
        outer loop
            vertex 0.183 0.0257573 0.0282447
            vertex 0.183 0.0333671 0.0442486
            vertex 0.187089 0.0232868 0.0433557
        endloop
    endfacet
    facet normal 0.00210353 0.868165 0.496271
        outer loop
            vertex 0.173 0.0328443 0.0821426
            vertex 0.173028 0.0391227 0.0711592
            vertex 0.0217911 0.0382136 0.0733906
        endloop
    endfacet
    facet normal -0.000826948 0.0501631 0.998741
        outer loop
            vertex 0.0282155 0.00574277 0.0957579
            vertex 0.0343481 -0.00120614 0.096112
            vertex 0.173007 0.00881457 0.0957235
        endloop
    endfacet
    facet normal -0.90385 -0.127434 0.408431
        outer loop
            vertex -0.0347864 -0.0135937 0.0459639
            vertex -0.0323165 -0.00217459 0.0549926
            vertex -0.0383049 -0.00267743 0.0415835
        endloop
    endfacet
    facet normal -0.11944 -0.0956699 0.988221
        outer loop
            vertex 0.0330944 -0.01093 0.0950191
            vertex 0.0343481 -0.00120614 0.096112
            vertex 0.0279343 -0.00935512 0.0945479
        endloop
    endfacet
    facet normal -0.553309 0.805207 0.213285
        outer loop
            vertex -0.0123291 0.0396566 0.0469434
            vertex -0.0178442 0.039519 0.0331555
            vertex -0.024104 0.0351348 0.0334677
        endloop
    endfacet
    facet normal -0.398333 -0.854437 0.33357
        outer loop
            vertex -0.00536927 -0.0432058 0.0456184
            vertex -0.00103345 -0.0404414 0.057877
            vertex -0.0113202 -0.0407689 0.0447542
        endloop
    endfacet
    facet normal -0.217553 -0.168394 0.961413
        outer loop
            vertex 0.0161302 -0.0128938 0.091257
            vertex 0.0279343 -0.00935512 0.0945479
            vertex 0.0198181 -0.0005281 0.0942574
        endloop
    endfacet
    facet normal -0.16035 -0.33018 0.930198
        outer loop
            vertex 0.0232585 -0.0223662 0.0891235
            vertex 0.0279343 -0.00935512 0.0945479
            vertex 0.0161302 -0.0128938 0.091257
        endloop
    endfacet
    facet normal -0.793383 -0.576731 0.194743
        outer loop
            vertex -0.0361839 -0.0222339 0.0286466
            vertex -0.0321194 -0.0289017 0.0254587
            vertex -0.0287704 -0.0292105 0.038188
        endloop
    endfacet
    facet normal -0.00707559 0.00757247 -0.999946
        outer loop
            vertex -0.0338589 0.0113046 -3.32995e-005
            vertex -0.0237827 0.0247601 -2.70149e-006
            vertex -0.0123728 0.0326113 -2.39814e-005
        endloop
    endfacet
    facet normal -0.877071 -0.397803 0.269257
        outer loop
            vertex -0.0347864 -0.0135937 0.0459639
            vertex -0.0361839 -0.0222339 0.0286466
            vertex -0.0307434 -0.0249375 0.042374
        endloop
    endfacet
    facet normal -0.822242 -0.566911 0.0502978
        outer loop
            vertex -0.0369485 -0.022457 0.019154
            vertex -0.03924 -0.0199456 0.01
            vertex -0.0321194 -0.0289017 0.0254587
        endloop
    endfacet
    facet normal -0.914639 -0.363742 0.176432
        outer loop
            vertex -0.0413448 -0.0131712 0.0205762
            vertex -0.0361839 -0.0222339 0.0286466
            vertex -0.0407414 -0.0101703 0.0298911
        endloop
    endfacet
    facet normal -0.854621 -0.195495 0.481045
        outer loop
            vertex -0.0347864 -0.0135937 0.0459639
            vertex -0.026708 -0.0124567 0.060778
            vertex -0.0323165 -0.00217459 0.0549926
        endloop
    endfacet
    facet normal 0.647905 0.723809 -0.237318
        outer loop
            vertex 0.172931 0.0385819 0.032664
            vertex 0.172997 0.0430467 0.0464616
            vertex 0.183 0.0333671 0.0442486
        endloop
    endfacet
    facet normal -0.133423 -0.611575 0.779856
        outer loop
            vertex 0.0232585 -0.0223662 0.0891235
            vertex 0.0230114 -0.0329836 0.0807549
            vertex 0.0312222 -0.0274871 0.0864701
        endloop
    endfacet
    facet normal 0.684078 -0.0586969 0.727043
        outer loop
            vertex 0.183 -0.013853 0.0858816
            vertex 0.183 0.00855032 0.0876903
            vertex 0.173 -0.00365202 0.0961142
        endloop
    endfacet
    facet normal -0.408958 0.108703 0.906056
        outer loop
            vertex -0.000948297 0.0112166 0.0846521
            vertex 0.00451624 -0.0029658 0.0888201
            vertex 0.0129041 0.00787193 0.0913058
        endloop
    endfacet
    facet normal -0.312613 -0.134909 0.940251
        outer loop
            vertex 0.00451624 -0.0029658 0.0888201
            vertex 0.0161302 -0.0128938 0.091257
            vertex 0.0198181 -0.0005281 0.0942574
        endloop
    endfacet
    facet normal -0.00443571 0.668982 0.743265
        outer loop
            vertex 0.173 0.0328443 0.0821426
            vertex 0.025604 0.0328457 0.0812617
            vertex 0.0340682 0.0244746 0.0888467
        endloop
    endfacet
    facet normal 0.626744 0.0240571 0.778854
        outer loop
            vertex 0.183 0.00855032 0.0876903
            vertex 0.173007 0.00881457 0.0957235
            vertex 0.173 -0.00365202 0.0961142
        endloop
    endfacet
    facet normal 0.671462 0.694783 0.257712
        outer loop
            vertex 0.183 0.0278384 0.0754933
            vertex 0.183 0.0344643 0.0576301
            vertex 0.17305 0.0428999 0.0608125
        endloop
    endfacet
    facet normal 0.000536674 0.0313242 0.999509
        outer loop
            vertex 0.173007 0.00881457 0.0957235
            vertex 0.0343481 -0.00120614 0.096112
            vertex 0.173 -0.00365202 0.0961142
        endloop
    endfacet
    facet normal -0.180476 0.848098 0.498155
        outer loop
            vertex 0.0151617 0.0347492 0.0768869
            vertex 0.0217911 0.0382136 0.0733906
            vertex 0.0109771 0.0426092 0.0619894
        endloop
    endfacet
    facet normal 0.647669 0.761903 0.0054018
        outer loop
            vertex 0.17305 0.0428999 0.0608125
            vertex 0.183 0.0344643 0.0576301
            vertex 0.172997 0.0430467 0.0464616
        endloop
    endfacet
    facet normal 0.00272035 0.0181382 -0.999832
        outer loop
            vertex -0.0246933 -0.0257049 -8.61601e-005
            vertex 0.0238252 -0.0296871 -2.63928e-005
            vertex -0.0044231 -0.0352016 -0.000203291
        endloop
    endfacet
    facet normal 0.599726 -0.760689 -0.248356
        outer loop
            vertex 0.183 -0.032279 0.0376837
            vertex 0.172967 -0.0430636 0.0464883
            vertex 0.172937 -0.0385222 0.032506
        endloop
    endfacet
    facet normal 0.116462 -0.57404 -0.810503
        outer loop
            vertex -0.0044231 -0.0352016 -0.000203291
            vertex 0.172983 -0.0188593 0.0137139
            vertex 0.173031 -0.0298362 0.0214952
        endloop
    endfacet
    facet normal -0.798153 -0.38344 0.464677
        outer loop
            vertex -0.0347864 -0.0135937 0.0459639
            vertex -0.0251472 -0.0234168 0.0544149
            vertex -0.026708 -0.0124567 0.060778
        endloop
    endfacet
    facet normal -0.567784 -0.415441 0.710654
        outer loop
            vertex -0.00689951 -0.028837 0.0706131
            vertex -0.000993329 -0.0250145 0.0775665
            vertex -0.0176322 -0.0199347 0.0672423
        endloop
    endfacet
    facet normal -0.397141 -0.714196 0.576371
        outer loop
            vertex -0.00689951 -0.028837 0.0706131
            vertex -0.00355083 -0.0361146 0.0639026
            vertex 0.00983892 -0.0367057 0.0723962
        endloop
    endfacet
    facet normal -0.895774 -0.364639 0.25422
        outer loop
            vertex -0.0347864 -0.0135937 0.0459639
            vertex -0.0407414 -0.0101703 0.0298911
            vertex -0.0361839 -0.0222339 0.0286466
        endloop
    endfacet
    facet normal -0.672526 -0.709735 0.209724
        outer loop
            vertex -0.0218451 -0.0371808 0.0334229
            vertex -0.0287704 -0.0292105 0.038188
            vertex -0.0276536 -0.0332449 0.0281163
        endloop
    endfacet
    facet normal -0.806744 0.0707657 0.586649
        outer loop
            vertex -0.0323165 -0.00217459 0.0549926
            vertex -0.0226583 -0.000572196 0.068081
            vertex -0.0251196 0.0099875 0.0634225
        endloop
    endfacet
    facet normal -0.68536 0.0237655 0.727816
        outer loop
            vertex -0.00961783 0.000786495 0.0803164
            vertex -0.0170817 0.00854764 0.0730345
            vertex -0.0226583 -0.000572196 0.068081
        endloop
    endfacet
    facet normal -0.455983 -0.889983 0.00304171
        outer loop
            vertex -0.0218451 -0.0371808 0.0334229
            vertex -0.0145496 -0.0409987 0.01
            vertex -0.0162628 -0.0400364 0.0347372
        endloop
    endfacet
    facet normal -0.627796 0.317155 0.710834
        outer loop
            vertex -0.0213084 0.0152304 0.0663199
            vertex -0.0170817 0.00854764 0.0730345
            vertex -0.00874615 0.0149017 0.0775613
        endloop
    endfacet
    facet normal -0.892792 -0.438491 0.103191
        outer loop
            vertex -0.0369485 -0.022457 0.019154
            vertex -0.0413448 -0.0131712 0.0205762
            vertex -0.03924 -0.0199456 0.01
        endloop
    endfacet
    facet normal -0.484212 0.583854 -0.651655
        outer loop
            vertex -0.0331967 0.028117 0.01
            vertex -0.0214912 0.0378248 0.01
            vertex -0.0237827 0.0247601 -2.70149e-006
        endloop
    endfacet
    facet normal -0.0957069 -0.389847 0.915893
        outer loop
            vertex 0.0232585 -0.0223662 0.0891235
            vertex 0.0342304 -0.020514 0.0910584
            vertex 0.0330944 -0.01093 0.0950191
        endloop
    endfacet
    facet normal -0.32667 -0.827075 0.457421
        outer loop
            vertex 0.00983892 -0.0367057 0.0723962
            vertex -0.00355083 -0.0361146 0.0639026
            vertex -0.00103345 -0.0404414 0.057877
        endloop
    endfacet
    facet normal -0.199727 -0.603683 0.771801
        outer loop
            vertex 0.0100517 -0.024992 0.083652
            vertex 0.0230114 -0.0329836 0.0807549
            vertex 0.0232585 -0.0223662 0.0891235
        endloop
    endfacet
    facet normal 0.00178698 0.999946 0.0102223
        outer loop
            vertex -0.00497184 0.0433692 0.0460258
            vertex 0.17305 0.0428999 0.0608125
            vertex 0.172997 0.0430467 0.0464616
        endloop
    endfacet
    facet normal -0.00232174 -0.809027 0.587767
        outer loop
            vertex 0.0230114 -0.0329836 0.0807549
            vertex 0.0205071 -0.0369104 0.07534
            vertex 0.173019 -0.0378469 0.0746534
        endloop
    endfacet
    facet normal -0.0938319 0.456789 0.884612
        outer loop
            vertex 0.0332523 0.0148094 0.093751
            vertex 0.0340682 0.0244746 0.0888467
            vertex 0.0249853 0.0239871 0.088135
        endloop
    endfacet
    facet normal -0.000634348 -0.549487 0.835502
        outer loop
            vertex 0.0342304 -0.020514 0.0910584
            vertex 0.0312222 -0.0274871 0.0864701
            vertex 0.173 -0.0286762 0.0857957
        endloop
    endfacet
    facet normal -0.399128 0.602274 0.691349
        outer loop
            vertex 0.0117535 0.0257055 0.0837517
            vertex 0.00445287 0.0337346 0.0725423
            vertex -0.00153641 0.0234206 0.0780697
        endloop
    endfacet
    facet normal -0.00198161 -0.111437 0.993769
        outer loop
            vertex 0.0330944 -0.01093 0.0950191
            vertex 0.173 -0.00365202 0.0961142
            vertex 0.0343481 -0.00120614 0.096112
        endloop
    endfacet
    facet normal -0.752646 0.657967 0.0245573
        outer loop
            vertex -0.0353767 0.0250514 0.025323
            vertex -0.0287887 0.0325234 0.0270376
            vertex -0.0331967 0.028117 0.01
        endloop
    endfacet
    facet normal -0.529241 -0.0790305 0.844783
        outer loop
            vertex 0.00451624 -0.0029658 0.0888201
            vertex -0.00961783 0.000786495 0.0803164
            vertex -0.007642 -0.00625371 0.0808956
        endloop
    endfacet
    facet normal -0.544846 -0.724155 0.422779
        outer loop
            vertex -0.0100929 -0.0382721 0.0529384
            vertex -0.0169593 -0.0297662 0.0586588
            vertex -0.0195666 -0.0337337 0.048503
        endloop
    endfacet
    facet normal 0.000816157 -0.77211 0.635489
        outer loop
            vertex 0.0230114 -0.0329836 0.0807549
            vertex 0.173019 -0.0378469 0.0746534
            vertex 0.173 -0.0286762 0.0857957
        endloop
    endfacet
    facet normal -0.320374 -0.383522 0.866182
        outer loop
            vertex 0.0100517 -0.024992 0.083652
            vertex 0.0161302 -0.0128938 0.091257
            vertex 0.00332442 -0.0147219 0.0857111
        endloop
    endfacet
    facet normal -0.624058 -0.537696 0.566952
        outer loop
            vertex -0.00689951 -0.028837 0.0706131
            vertex -0.0176322 -0.0199347 0.0672423
            vertex -0.0169593 -0.0297662 0.0586588
        endloop
    endfacet
    facet normal -0.18298 -0.321565 0.92904
        outer loop
            vertex 0.0232585 -0.0223662 0.0891235
            vertex 0.0330944 -0.01093 0.0950191
            vertex 0.0279343 -0.00935512 0.0945479
        endloop
    endfacet
    facet normal -0.965609 -0.258645 -0.0264983
        outer loop
            vertex -0.03924 -0.0199456 0.01
            vertex -0.0413448 -0.0131712 0.0205762
            vertex -0.0433912 -0.00444774 0.01
        endloop
    endfacet
    facet normal -0.738539 -0.650143 0.178533
        outer loop
            vertex -0.0287704 -0.0292105 0.038188
            vertex -0.0321194 -0.0289017 0.0254587
            vertex -0.0276536 -0.0332449 0.0281163
        endloop
    endfacet
    facet normal -0.964823 -0.00842731 0.262763
        outer loop
            vertex -0.0429201 0.00332935 0.0248299
            vertex -0.0383049 -0.00267743 0.0415835
            vertex -0.0388745 0.00360779 0.0396936
        endloop
    endfacet
    facet normal 0.000803939 -0.999999 -0.00134483
        outer loop
            vertex -0.00536927 -0.0432058 0.0456184
            vertex -0.00161029 -0.0431542 0.00949445
            vertex 0.172967 -0.0430636 0.0464883
        endloop
    endfacet
    facet normal -0.797271 -0.56807 0.204097
        outer loop
            vertex -0.0307434 -0.0249375 0.042374
            vertex -0.0361839 -0.0222339 0.0286466
            vertex -0.0287704 -0.0292105 0.038188
        endloop
    endfacet
    facet normal -0.578413 0.434716 -0.690261
        outer loop
            vertex -0.0338589 0.0113046 -3.32995e-005
            vertex -0.0331967 0.028117 0.01
            vertex -0.0237827 0.0247601 -2.70149e-006
        endloop
    endfacet
    facet normal -0.954002 0.154768 0.256761
        outer loop
            vertex -0.0429201 0.00332935 0.0248299
            vertex -0.0388745 0.00360779 0.0396936
            vertex -0.037741 0.0126821 0.0384354
        endloop
    endfacet
    facet normal -0.907624 0.413223 0.0739279
        outer loop
            vertex -0.0399912 0.0176169 0.0102255
            vertex -0.0378044 0.0193832 0.0272004
            vertex -0.0353767 0.0250514 0.025323
        endloop
    endfacet
    facet normal -0.735272 1.63006e-005 -0.677773
        outer loop
            vertex -0.0338589 0.0113046 -3.32995e-005
            vertex -0.0338781 -0.00835 -1.29432e-005
            vertex -0.0428413 0.00640502 0.00971101
        endloop
    endfacet
    facet normal 0.639337 -0.768907 0.0055672
        outer loop
            vertex 0.173054 -0.0428873 0.0608474
            vertex 0.172967 -0.0430636 0.0464883
            vertex 0.183 -0.034644 0.0571624
        endloop
    endfacet
    facet normal -0.355072 0.294468 0.88725
        outer loop
            vertex -0.000948297 0.0112166 0.0846521
            vertex 0.0129041 0.00787193 0.0913058
            vertex 0.0127729 0.0182727 0.0878014
        endloop
    endfacet
    facet normal -0.0595213 -0.530658 0.845494
        outer loop
            vertex 0.0232585 -0.0223662 0.0891235
            vertex 0.0312222 -0.0274871 0.0864701
            vertex 0.0342304 -0.020514 0.0910584
        endloop
    endfacet
    facet normal 0.671436 -0.694247 0.259218
        outer loop
            vertex 0.173054 -0.0428873 0.0608474
            vertex 0.183 -0.034644 0.0571624
            vertex 0.183 -0.028697 0.0730899
        endloop
    endfacet
    facet normal 0.00121082 -0.939353 0.342949
        outer loop
            vertex 0.173019 -0.0378469 0.0746534
            vertex 0.0187046 -0.0397824 0.0698968
            vertex 0.173054 -0.0428873 0.0608474
        endloop
    endfacet
    facet normal 0.688051 -0.523354 -0.502679
        outer loop
            vertex 0.183 -0.032279 0.0376837
            vertex 0.173031 -0.0298362 0.0214952
            vertex 0.183 -0.016604 0.021364
        endloop
    endfacet
    facet normal 0.674852 -0.692647 0.254587
        outer loop
            vertex 0.173019 -0.0378469 0.0746534
            vertex 0.173054 -0.0428873 0.0608474
            vertex 0.183 -0.028697 0.0730899
        endloop
    endfacet
    facet normal -0.00272175 -0.718803 0.695208
        outer loop
            vertex 0.0230114 -0.0329836 0.0807549
            vertex 0.173 -0.0286762 0.0857957
            vertex 0.0312222 -0.0274871 0.0864701
        endloop
    endfacet
    facet normal -0.236898 0.456206 0.857762
        outer loop
            vertex 0.0209649 0.0161061 0.0912162
            vertex 0.0249853 0.0239871 0.088135
            vertex 0.0127729 0.0182727 0.0878014
        endloop
    endfacet
    facet normal -0.164999 -0.986119 -0.0185781
        outer loop
            vertex -0.00536927 -0.0432058 0.0456184
            vertex -0.0145496 -0.0409987 0.01
            vertex -0.00161029 -0.0431542 0.00949445
        endloop
    endfacet
    facet normal -0.519998 -0.724281 0.452792
        outer loop
            vertex -0.00355083 -0.0361146 0.0639026
            vertex -0.0169593 -0.0297662 0.0586588
            vertex -0.0100929 -0.0382721 0.0529384
        endloop
    endfacet
    facet normal -0.767586 -0.124767 0.628686
        outer loop
            vertex -0.026708 -0.0124567 0.060778
            vertex -0.0187403 -0.0105402 0.0708864
            vertex -0.0226583 -0.000572196 0.068081
        endloop
    endfacet
    facet normal -0.00332335 -0.883979 0.467515
        outer loop
            vertex 0.173019 -0.0378469 0.0746534
            vertex 0.0205071 -0.0369104 0.07534
            vertex 0.0187046 -0.0397824 0.0698968
        endloop
    endfacet
    facet normal -0.382706 -0.866084 0.321611
        outer loop
            vertex -0.0113202 -0.0407689 0.0447542
            vertex -0.00103345 -0.0404414 0.057877
            vertex -0.0100929 -0.0382721 0.0529384
        endloop
    endfacet
    facet normal 0.000431729 1.9676e-006 -1
        outer loop
            vertex -0.0338589 0.0113046 -3.32995e-005
            vertex -0.0123728 0.0326113 -2.39814e-005
            vertex 0.0210394 0.0299358 -9.56164e-006
        endloop
    endfacet
    facet normal -0.493975 -0.869391 -0.0121482
        outer loop
            vertex -0.0218451 -0.0371808 0.0334229
            vertex -0.0277717 -0.0334861 0.01
            vertex -0.0145496 -0.0409987 0.01
        endloop
    endfacet
    facet normal -0.480666 -0.859401 0.174326
        outer loop
            vertex -0.0218451 -0.0371808 0.0334229
            vertex -0.0162628 -0.0400364 0.0347372
            vertex -0.0113202 -0.0407689 0.0447542
        endloop
    endfacet
    facet normal 0.00251288 0.364924 0.931034
        outer loop
            vertex 0.0332523 0.0148094 0.093751
            vertex 0.173007 0.00881457 0.0957235
            vertex 0.173 0.0208729 0.0909972
        endloop
    endfacet
    facet normal 0.00297145 0.594656 0.803974
        outer loop
            vertex 0.173 0.0328443 0.0821426
            vertex 0.0340682 0.0244746 0.0888467
            vertex 0.173 0.0208729 0.0909972
        endloop
    endfacet
    facet normal 0.954915 0.0291643 0.295443
        outer loop
            vertex 0.183 0.00855032 0.0876903
            vertex 0.187029 -0.00704271 0.0762072
            vertex 0.187007 0.0089868 0.074696
        endloop
    endfacet
    facet normal -0.140282 0.421782 0.895779
        outer loop
            vertex 0.0332523 0.0148094 0.093751
            vertex 0.0249853 0.0239871 0.088135
            vertex 0.0209649 0.0161061 0.0912162
        endloop
    endfacet
    facet normal -0.729769 -0.418021 0.541014
        outer loop
            vertex -0.026708 -0.0124567 0.060778
            vertex -0.0251472 -0.0234168 0.0544149
            vertex -0.0176322 -0.0199347 0.0672423
        endloop
    endfacet
    facet normal -0.603854 -0.223285 0.765182
        outer loop
            vertex -0.0187403 -0.0105402 0.0708864
            vertex -0.00920246 -0.0163969 0.0767043
            vertex -0.007642 -0.00625371 0.0808956
        endloop
    endfacet
    facet normal -0.364515 -0.203365 0.90872
        outer loop
            vertex 0.00332442 -0.0147219 0.0857111
            vertex 0.0161302 -0.0128938 0.091257
            vertex 0.00451624 -0.0029658 0.0888201
        endloop
    endfacet
    facet normal -0.543505 -0.247783 0.802001
        outer loop
            vertex 0.00332442 -0.0147219 0.0857111
            vertex -0.007642 -0.00625371 0.0808956
            vertex -0.00920246 -0.0163969 0.0767043
        endloop
    endfacet
    facet normal -0.195412 0.638618 0.744299
        outer loop
            vertex 0.0117535 0.0257055 0.0837517
            vertex 0.025604 0.0328457 0.0812617
            vertex 0.0151617 0.0347492 0.0768869
        endloop
    endfacet
    facet normal -0.526846 -0.7877 0.319314
        outer loop
            vertex -0.0113202 -0.0407689 0.0447542
            vertex -0.0100929 -0.0382721 0.0529384
            vertex -0.0195666 -0.0337337 0.048503
        endloop
    endfacet
    facet normal -0.00210804 -0.0317125 -0.999495
        outer loop
            vertex -0.0123728 0.0326113 -2.39814e-005
            vertex 0.0018132 0.0342617 -0.000106266
            vertex 0.0210394 0.0299358 -9.56164e-006
        endloop
    endfacet
    facet normal -0.261578 0.12116 0.957547
        outer loop
            vertex 0.0282155 0.00574277 0.0957579
            vertex 0.0129041 0.00787193 0.0913058
            vertex 0.0198181 -0.0005281 0.0942574
        endloop
    endfacet
    facet normal -0.239244 0.244432 0.939689
        outer loop
            vertex 0.0282155 0.00574277 0.0957579
            vertex 0.0209649 0.0161061 0.0912162
            vertex 0.0129041 0.00787193 0.0913058
        endloop
    endfacet
    facet normal -0.504676 -0.17254 0.845891
        outer loop
            vertex 0.00332442 -0.0147219 0.0857111
            vertex 0.00451624 -0.0029658 0.0888201
            vertex -0.007642 -0.00625371 0.0808956
        endloop
    endfacet
    facet normal -0.0045166 -0.382386 0.923992
        outer loop
            vertex 0.0330944 -0.01093 0.0950191
            vertex 0.0342304 -0.020514 0.0910584
            vertex 0.173 -0.0159732 0.0936159
        endloop
    endfacet
    facet normal -0.903617 0.167534 0.39422
        outer loop
            vertex -0.037741 0.0126821 0.0384354
            vertex -0.0388745 0.00360779 0.0396936
            vertex -0.0323245 0.0062006 0.0536054
        endloop
    endfacet
    facet normal -0.711628 -0.325454 0.622628
        outer loop
            vertex -0.026708 -0.0124567 0.060778
            vertex -0.0176322 -0.0199347 0.0672423
            vertex -0.0187403 -0.0105402 0.0708864
        endloop
    endfacet
    facet normal -0.394495 0.397327 0.828556
        outer loop
            vertex -0.000948297 0.0112166 0.0846521
            vertex 0.0127729 0.0182727 0.0878014
            vertex 0.0117535 0.0257055 0.0837517
        endloop
    endfacet
    facet normal -0.553649 -0.789737 0.264175
        outer loop
            vertex -0.0218451 -0.0371808 0.0334229
            vertex -0.0113202 -0.0407689 0.0447542
            vertex -0.0195666 -0.0337337 0.048503
        endloop
    endfacet
    facet normal -0.570037 -0.821489 0.0146534
        outer loop
            vertex -0.0218451 -0.0371808 0.0334229
            vertex -0.0276536 -0.0332449 0.0281163
            vertex -0.0277717 -0.0334861 0.01
        endloop
    endfacet
    facet normal -0.593496 0.228858 0.771613
        outer loop
            vertex -0.000948297 0.0112166 0.0846521
            vertex -0.00874615 0.0149017 0.0775613
            vertex -0.0170817 0.00854764 0.0730345
        endloop
    endfacet
    facet normal -0.692123 -0.602301 0.397743
        outer loop
            vertex -0.0307434 -0.0249375 0.042374
            vertex -0.0195666 -0.0337337 0.048503
            vertex -0.0251472 -0.0234168 0.0544149
        endloop
    endfacet
    facet normal 0.607666 0.688825 0.3953
        outer loop
            vertex 0.173 0.0328443 0.0821426
            vertex 0.183 0.0278384 0.0754933
            vertex 0.173028 0.0391227 0.0711592
        endloop
    endfacet
    facet normal -0.279602 -0.406338 0.869892
        outer loop
            vertex 0.0100517 -0.024992 0.083652
            vertex 0.0232585 -0.0223662 0.0891235
            vertex 0.0161302 -0.0128938 0.091257
        endloop
    endfacet
endsolid D:/Users/Paul Maroldt/Documents/!StartUp_Repositories/modrob-gen2/ModuleLibrary/L183-L-80-80/L183-L-80-80_convdec.stl_created_by_BoundingMesh