solid D:/Users/Paul Maroldt/Documents/!StartUp_Repositories/gen2_robot_data/ModuleLibrary/L148-550/L148-550_convdec.stl_created_by_BoundingMesh
    facet normal 0.56719 -0.813997 0.125316
        outer loop
            vertex 0.55 -0.0675008 0.0835225
            vertex 0.539079 -0.0706988 0.112179
            vertex 0.538986 -0.0765176 0.0748036
        endloop
    endfacet
    facet normal 0.990794 0.111413 -0.076903
        outer loop
            vertex 0.55 0.0633812 0.0666413
            vertex 0.556076 0.0206632 0.0830348
            vertex 0.55 0.0427472 0.0367479
        endloop
    endfacet
    facet normal 0.991765 -0.117969 -0.0498621
        outer loop
            vertex 0.557612 -0.00457451 0.086049
            vertex 0.55 -0.0675008 0.0835225
            vertex 0.55 -0.0513898 0.0454055
        endloop
    endfacet
    facet normal -0.00375616 -0.999984 -0.00430461
        outer loop
            vertex 0.538986 -0.0765176 0.0748036
            vertex -5.19191e-005 -0.0745516 0.0884502
            vertex -0.0106204 -0.0741748 0.0101399
        endloop
    endfacet
    facet normal 0.758181 -0.394476 -0.519182
        outer loop
            vertex 0.55 -0.0513898 0.0454055
            vertex 0.538985 -0.0420974 0.0222595
            vertex 0.55 -0.0254969 0.025732
        endloop
    endfacet
    facet normal 0.992755 -0.0192749 -0.118599
        outer loop
            vertex 0.557612 -0.00457451 0.086049
            vertex 0.55 -0.0254969 0.025732
            vertex 0.55 0.0105847 0.019868
        endloop
    endfacet
    facet normal 0.00314239 0.649902 0.760011
        outer loop
            vertex 0.539 0.0314527 0.155511
            vertex 0.539 0.0601983 0.13093
            vertex 0.0476437 0.0537508 0.138475
        endloop
    endfacet
    facet normal 0.672207 -0.440257 0.595241
        outer loop
            vertex 0.55 -0.0511143 0.126731
            vertex 0.539 -0.0314157 0.153723
            vertex 0.539 -0.0548288 0.136406
        endloop
    endfacet
    facet normal 0.660107 -0.533843 -0.528461
        outer loop
            vertex 0.55 -0.0513898 0.0454055
            vertex 0.539033 -0.0618116 0.0422344
            vertex 0.538985 -0.0420974 0.0222595
        endloop
    endfacet
    facet normal 0.0287172 0.05878 -0.997858
        outer loop
            vertex -0.00802615 0.0626174 -0.00115732
            vertex 0.539 0.0203698 0.0120968
            vertex 0.539007 -0.012255 0.0101752
        endloop
    endfacet
    facet normal 0.0568703 -0.708716 -0.703198
        outer loop
            vertex -0.00190917 -0.0614897 -0.00194022
            vertex 0.538985 -0.0420974 0.0222595
            vertex -0.0106204 -0.0741748 0.0101399
        endloop
    endfacet
    facet normal 0.728127 -0.631362 -0.266859
        outer loop
            vertex 0.55 -0.0675008 0.0835225
            vertex 0.538986 -0.0765176 0.0748036
            vertex 0.55 -0.0513898 0.0454055
        endloop
    endfacet
    facet normal -0.988424 -0.123177 0.0885766
        outer loop
            vertex -0.076565 0.00559174 0.011
            vertex -0.0724468 -0.0258026 0.0132972
            vertex -0.0737842 0.000522268 0.0349811
        endloop
    endfacet
    facet normal 0.993491 0.048135 -0.103243
        outer loop
            vertex 0.557612 -0.00457451 0.086049
            vertex 0.55 0.0105847 0.019868
            vertex 0.556076 0.0206632 0.0830348
        endloop
    endfacet
    facet normal 0.989709 0.142982 0.00576184
        outer loop
            vertex 0.55 0.0633812 0.0666413
            vertex 0.55 0.0617112 0.108083
            vertex 0.556076 0.0206632 0.0830348
        endloop
    endfacet
    facet normal -0.000422147 -0.157204 0.987566
        outer loop
            vertex 0.0626874 0.00092219 0.160645
            vertex 0.0592886 -0.0277965 0.156072
            vertex 0.539 -0.004057 0.160056
        endloop
    endfacet
    facet normal -0.196241 0.109883 0.974379
        outer loop
            vertex 0.0296044 -0.00857061 0.155109
            vertex 0.051661 0.0235492 0.155929
            vertex 0.0284795 0.0214318 0.151499
        endloop
    endfacet
    facet normal 0.993045 0.0547138 -0.10425
        outer loop
            vertex 0.55 0.0105847 0.019868
            vertex 0.55 0.0427472 0.0367479
            vertex 0.556076 0.0206632 0.0830348
        endloop
    endfacet
    facet normal -0.481095 -0.876496 0.017412
        outer loop
            vertex -0.0220652 -0.0723168 0.061523
            vertex -0.0396341 -0.0629035 0.0499451
            vertex -0.03603 -0.0656554 0.011
        endloop
    endfacet
    facet normal -0.697214 -0.378532 0.608775
        outer loop
            vertex -0.038603 -0.043606 0.0918558
            vertex -0.0210695 -0.0395668 0.114448
            vertex -0.0453478 -0.0230787 0.0968949
        endloop
    endfacet
    facet normal 0.992527 0.00979865 0.121629
        outer loop
            vertex 0.550001 0.0321277 0.1452
            vertex 0.55 -0.0157948 0.149069
            vertex 0.557612 -0.00457451 0.086049
        endloop
    endfacet
    facet normal 0.991989 0.0987995 0.0787195
        outer loop
            vertex 0.550001 0.0321277 0.1452
            vertex 0.556076 0.0206632 0.0830348
            vertex 0.55 0.0617112 0.108083
        endloop
    endfacet
    facet normal -0.643267 -0.716487 0.269915
        outer loop
            vertex -0.0526562 -0.0475599 0.05964
            vertex -0.0396341 -0.0629035 0.0499451
            vertex -0.0275777 -0.0617898 0.0816345
        endloop
    endfacet
    facet normal -0.736305 -0.0407485 0.675422
        outer loop
            vertex -0.0333524 0.0116735 0.116211
            vertex -0.0465058 -0.00369108 0.100945
            vertex -0.0278143 0.000712224 0.121587
        endloop
    endfacet
    facet normal -0.0746723 -0.898772 0.43201
        outer loop
            vertex 0.0283866 -0.0629481 0.124705
            vertex 0.0241626 -0.0723148 0.104488
            vertex 0.037531 -0.0636069 0.124915
        endloop
    endfacet
    facet normal -0.304666 -0.329246 0.893743
        outer loop
            vertex 0.0296044 -0.00857061 0.155109
            vertex 0.00907816 -0.0245126 0.142239
            vertex 0.0365207 -0.0390755 0.146229
        endloop
    endfacet
    facet normal -0.480991 0.520103 0.705791
        outer loop
            vertex -0.000612546 0.0562666 0.116812
            vertex -0.0128967 0.0409817 0.119704
            vertex 0.00216022 0.0350341 0.134348
        endloop
    endfacet
    facet normal 0.00127084 0.996396 0.0848095
        outer loop
            vertex 0.539 0.0755872 0.0687098
            vertex 0.0167801 0.0735239 0.100776
            vertex 0.539 0.0725104 0.104858
        endloop
    endfacet
    facet normal 0.769162 -0.102514 -0.630778
        outer loop
            vertex 0.55 0.0105847 0.019868
            vertex 0.55 -0.0254969 0.025732
            vertex 0.539007 -0.012255 0.0101752
        endloop
    endfacet
    facet normal 0.00255373 0.126957 0.991905
        outer loop
            vertex 0.0626874 0.00092219 0.160645
            vertex 0.539 -0.004057 0.160056
            vertex 0.539 0.0314527 0.155511
        endloop
    endfacet
    facet normal -0.242285 0.649787 -0.720468
        outer loop
            vertex -0.00802615 0.0626174 -0.00115732
            vertex -0.03603 0.0656554 0.011
            vertex -0.0106213 0.0741744 0.0101386
        endloop
    endfacet
    facet normal -0.0573643 -0.0242434 -0.998059
        outer loop
            vertex -0.00190917 -0.0614897 -0.00194022
            vertex -0.0336269 -0.0564902 -0.000238656
            vertex -0.0637787 0.015751 -0.000260431
        endloop
    endfacet
    facet normal 0.690019 0.721183 0.0613844
        outer loop
            vertex 0.539 0.0755872 0.0687098
            vertex 0.539 0.0725104 0.104858
            vertex 0.55 0.0617112 0.108083
        endloop
    endfacet
    facet normal -0.461923 -0.831493 0.308619
        outer loop
            vertex -0.0220652 -0.0723168 0.061523
            vertex -5.19191e-005 -0.0745516 0.0884502
            vertex -0.0275777 -0.0617898 0.0816345
        endloop
    endfacet
    facet normal -0.0205342 0.00529476 -0.999775
        outer loop
            vertex -0.00190917 -0.0614897 -0.00194022
            vertex -0.0637787 0.015751 -0.000260431
            vertex -0.00802615 0.0626174 -0.00115732
        endloop
    endfacet
    facet normal -0.599876 -0.564941 0.56656
        outer loop
            vertex -0.00710411 -0.055874 0.112974
            vertex -0.0210695 -0.0395668 0.114448
            vertex -0.038603 -0.043606 0.0918558
        endloop
    endfacet
    facet normal -0.464966 -0.763666 0.447908
        outer loop
            vertex -0.00710411 -0.055874 0.112974
            vertex -0.0275777 -0.0617898 0.0816345
            vertex -5.19191e-005 -0.0745516 0.0884502
        endloop
    endfacet
    facet normal -0.61362 0.457652 0.643448
        outer loop
            vertex -0.023196 0.0504905 0.103119
            vertex -0.0347494 0.029051 0.10735
            vertex -0.0128967 0.0409817 0.119704
        endloop
    endfacet
    facet normal -0.434801 -0.423036 0.794977
        outer loop
            vertex 0.00907816 -0.0245126 0.142239
            vertex -0.0052767 -0.0375033 0.127475
            vertex 0.0160617 -0.0430972 0.136169
        endloop
    endfacet
    facet normal 0.0496664 0.871937 -0.487093
        outer loop
            vertex 0.539 0.0755872 0.0687098
            vertex 0.539 0.0537108 0.0295492
            vertex -0.0106213 0.0741744 0.0101386
        endloop
    endfacet
    facet normal -0.430204 -0.162901 0.887912
        outer loop
            vertex 0.0296044 -0.00857061 0.155109
            vertex 0.0128195 -0.00273043 0.148048
            vertex 0.00907816 -0.0245126 0.142239
        endloop
    endfacet
    facet normal -0.529777 0.335716 -0.778865
        outer loop
            vertex -0.0620387 0.0446211 0.011
            vertex -0.0416804 0.0510485 -7.71165e-005
            vertex -0.0637787 0.015751 -0.000260431
        endloop
    endfacet
    facet normal -0.140343 -0.630562 -0.763345
        outer loop
            vertex -0.00190917 -0.0614897 -0.00194022
            vertex -0.0106204 -0.0741748 0.0101399
            vertex -0.0336269 -0.0564902 -0.000238656
        endloop
    endfacet
    facet normal -0.694668 -0.35971 0.622933
        outer loop
            vertex -0.0291885 -0.0172254 0.118295
            vertex -0.0453478 -0.0230787 0.0968949
            vertex -0.0210695 -0.0395668 0.114448
        endloop
    endfacet
    facet normal -0.685787 0.543628 0.483905
        outer loop
            vertex -0.0488692 0.0368687 0.0820381
            vertex -0.023196 0.0504905 0.103119
            vertex -0.0327826 0.0568512 0.0823872
        endloop
    endfacet
    facet normal -0.447822 0.0519994 0.892609
        outer loop
            vertex -0.00314702 0.020505 0.138684
            vertex -0.00427109 0.00414706 0.139073
            vertex 0.0128195 -0.00273043 0.148048
        endloop
    endfacet
    facet normal -0.435203 0.900318 0.00510526
        outer loop
            vertex -0.0393942 0.063817 0.0484194
            vertex -0.0261237 0.0701672 0.0598116
            vertex -0.03603 0.0656554 0.011
        endloop
    endfacet
    facet normal -0.862702 -0.448082 0.234453
        outer loop
            vertex -0.0675202 -0.0208943 0.0559087
            vertex -0.0641298 -0.0388551 0.0340578
            vertex -0.0526562 -0.0475599 0.05964
        endloop
    endfacet
    facet normal -0.466883 -0.152127 0.871136
        outer loop
            vertex 0.00907816 -0.0245126 0.142239
            vertex 0.0128195 -0.00273043 0.148048
            vertex -0.00998709 -0.0156198 0.133574
        endloop
    endfacet
    facet normal 0.659363 0.656354 -0.366661
        outer loop
            vertex 0.539 0.0755872 0.0687098
            vertex 0.55 0.0633812 0.0666413
            vertex 0.539 0.0537108 0.0295492
        endloop
    endfacet
    facet normal 0.991851 -0.0681013 0.107678
        outer loop
            vertex 0.557612 -0.00457451 0.086049
            vertex 0.55 -0.0157948 0.149069
            vertex 0.55 -0.0511143 0.126731
        endloop
    endfacet
    facet normal -0.408097 0.549085 0.729357
        outer loop
            vertex -0.000612546 0.0562666 0.116812
            vertex 0.00216022 0.0350341 0.134348
            vertex 0.0191247 0.0509209 0.13188
        endloop
    endfacet
    facet normal -0.123674 -0.141754 0.982146
        outer loop
            vertex 0.0296044 -0.00857061 0.155109
            vertex 0.0592886 -0.0277965 0.156072
            vertex 0.0626874 0.00092219 0.160645
        endloop
    endfacet
    facet normal 0.734206 0.0546196 0.676726
        outer loop
            vertex 0.550001 0.0321277 0.1452
            vertex 0.539 -0.004057 0.160056
            vertex 0.55 -0.0157948 0.149069
        endloop
    endfacet
    facet normal -0.00299729 -0.919189 0.393806
        outer loop
            vertex 0.037531 -0.0636069 0.124915
            vertex 0.0241626 -0.0723148 0.104488
            vertex 0.539079 -0.0706988 0.112179
        endloop
    endfacet
    facet normal -0.911686 -0.136104 0.387692
        outer loop
            vertex -0.0675202 -0.0208943 0.0559087
            vertex -0.0593271 -0.0219134 0.0748176
            vertex -0.0651649 -0.000189819 0.0687159
        endloop
    endfacet
    facet normal 0.0571893 0.462999 -0.884512
        outer loop
            vertex 0.539 0.0537108 0.0295492
            vertex 0.539 0.0203698 0.0120968
            vertex -0.00802615 0.0626174 -0.00115732
        endloop
    endfacet
    facet normal -0.00188679 0.999978 -0.00641529
        outer loop
            vertex 0.539 0.0755872 0.0687098
            vertex -0.0106213 0.0741744 0.0101386
            vertex -0.00346365 0.0746713 0.0854876
        endloop
    endfacet
    facet normal 0.651433 -0.285179 -0.70307
        outer loop
            vertex 0.539007 -0.012255 0.0101752
            vertex 0.55 -0.0254969 0.025732
            vertex 0.538985 -0.0420974 0.0222595
        endloop
    endfacet
    facet normal -0.0148668 -0.00650645 -0.999868
        outer loop
            vertex -0.0637787 0.015751 -0.000260431
            vertex -0.0336269 -0.0564902 -0.000238656
            vertex -0.0606936 -0.0255375 -3.76256e-005
        endloop
    endfacet
    facet normal -0.865959 -0.094784 0.491051
        outer loop
            vertex -0.0651649 -0.000189819 0.0687159
            vertex -0.0593271 -0.0219134 0.0748176
            vertex -0.0465058 -0.00369108 0.100945
        endloop
    endfacet
    facet normal -0.000235811 -0.566226 0.82425
        outer loop
            vertex 0.0592886 -0.0277965 0.156072
            vertex 0.0506949 -0.0498801 0.140899
            vertex 0.539 -0.0314157 0.153723
        endloop
    endfacet
    facet normal 0.677813 0.0933433 0.729285
        outer loop
            vertex 0.550001 0.0321277 0.1452
            vertex 0.539 0.0314527 0.155511
            vertex 0.539 -0.004057 0.160056
        endloop
    endfacet
    facet normal 0.764765 0.50386 0.401572
        outer loop
            vertex 0.550001 0.0321277 0.1452
            vertex 0.55 0.0617112 0.108083
            vertex 0.539 0.0601983 0.13093
        endloop
    endfacet
    facet normal -0.237495 -0.320758 0.916903
        outer loop
            vertex 0.0296044 -0.00857061 0.155109
            vertex 0.0365207 -0.0390755 0.146229
            vertex 0.0592886 -0.0277965 0.156072
        endloop
    endfacet
    facet normal 0.991481 -0.121791 0.0461882
        outer loop
            vertex 0.557612 -0.00457451 0.086049
            vertex 0.55 -0.0511143 0.126731
            vertex 0.55 -0.0675008 0.0835225
        endloop
    endfacet
    facet normal -0.356349 0.384331 0.851649
        outer loop
            vertex -0.00314702 0.020505 0.138684
            vertex 0.0284795 0.0214318 0.151499
            vertex 0.00216022 0.0350341 0.134348
        endloop
    endfacet
    facet normal -0.095387 -0.538225 0.837386
        outer loop
            vertex 0.0592886 -0.0277965 0.156072
            vertex 0.0365207 -0.0390755 0.146229
            vertex 0.0506949 -0.0498801 0.140899
        endloop
    endfacet
    facet normal -0.318503 0.947644 -0.0229534
        outer loop
            vertex -0.0261237 0.0701672 0.0598116
            vertex -0.0106213 0.0741744 0.0101386
            vertex -0.03603 0.0656554 0.011
        endloop
    endfacet
    facet normal -0.49859 -0.616501 -0.609372
        outer loop
            vertex -0.0336269 -0.0564902 -0.000238656
            vertex -0.03603 -0.0656554 0.011
            vertex -0.0566681 -0.0489645 0.011
        endloop
    endfacet
    facet normal 0.603916 0.0469946 -0.795662
        outer loop
            vertex 0.55 0.0105847 0.019868
            vertex 0.539007 -0.012255 0.0101752
            vertex 0.539 0.0203698 0.0120968
        endloop
    endfacet
    facet normal 0.992225 -0.0752965 -0.0991001
        outer loop
            vertex 0.557612 -0.00457451 0.086049
            vertex 0.55 -0.0513898 0.0454055
            vertex 0.55 -0.0254969 0.025732
        endloop
    endfacet
    facet normal -0.544134 0.416174 0.728504
        outer loop
            vertex -0.00314702 0.020505 0.138684
            vertex 0.00216022 0.0350341 0.134348
            vertex -0.0128967 0.0409817 0.119704
        endloop
    endfacet
    facet normal -0.327354 -0.794722 0.511133
        outer loop
            vertex -0.00710411 -0.055874 0.112974
            vertex -5.19191e-005 -0.0745516 0.0884502
            vertex 0.0283866 -0.0629481 0.124705
        endloop
    endfacet
    facet normal 0.590896 -0.181935 0.785965
        outer loop
            vertex 0.55 -0.0157948 0.149069
            vertex 0.539 -0.004057 0.160056
            vertex 0.539 -0.0314157 0.153723
        endloop
    endfacet
    facet normal 0.701832 -0.649607 -0.292305
        outer loop
            vertex 0.538986 -0.0765176 0.0748036
            vertex 0.539033 -0.0618116 0.0422344
            vertex 0.55 -0.0513898 0.0454055
        endloop
    endfacet
    facet normal 0.00306912 -0.225516 0.974235
        outer loop
            vertex 0.0592886 -0.0277965 0.156072
            vertex 0.539 -0.0314157 0.153723
            vertex 0.539 -0.004057 0.160056
        endloop
    endfacet
    facet normal -0.837881 -0.159123 0.522145
        outer loop
            vertex -0.0593271 -0.0219134 0.0748176
            vertex -0.0453478 -0.0230787 0.0968949
            vertex -0.0465058 -0.00369108 0.100945
        endloop
    endfacet
    facet normal -0.798811 -0.446421 0.403248
        outer loop
            vertex -0.0526562 -0.0475599 0.05964
            vertex -0.038603 -0.043606 0.0918558
            vertex -0.0593271 -0.0219134 0.0748176
        endloop
    endfacet
    facet normal -0.493274 -0.0978177 0.864357
        outer loop
            vertex -0.00427109 0.00414706 0.139073
            vertex -0.00998709 -0.0156198 0.133574
            vertex 0.0128195 -0.00273043 0.148048
        endloop
    endfacet
    facet normal 0.0548437 -0.374802 -0.925481
        outer loop
            vertex -0.00190917 -0.0614897 -0.00194022
            vertex 0.539007 -0.012255 0.0101752
            vertex 0.538985 -0.0420974 0.0222595
        endloop
    endfacet
    facet normal -0.35659 0.0984183 0.929063
        outer loop
            vertex 0.0296044 -0.00857061 0.155109
            vertex 0.0284795 0.0214318 0.151499
            vertex 0.0128195 -0.00273043 0.148048
        endloop
    endfacet
    facet normal 0.744942 -0.356595 0.563827
        outer loop
            vertex 0.55 -0.0511143 0.126731
            vertex 0.55 -0.0157948 0.149069
            vertex 0.539 -0.0314157 0.153723
        endloop
    endfacet
    facet normal -0.0431114 0.0321762 -0.998552
        outer loop
            vertex -0.0637787 0.015751 -0.000260431
            vertex -0.0416804 0.0510485 -7.71165e-005
            vertex -0.00802615 0.0626174 -0.00115732
        endloop
    endfacet
    facet normal 0.00080335 -0.988097 0.15383
        outer loop
            vertex 0.538986 -0.0765176 0.0748036
            vertex 0.539079 -0.0706988 0.112179
            vertex 0.0241626 -0.0723148 0.104488
        endloop
    endfacet
    facet normal 0.0569351 -0.710513 -0.701377
        outer loop
            vertex -0.0106204 -0.0741748 0.0101399
            vertex 0.538985 -0.0420974 0.0222595
            vertex 0.539033 -0.0618116 0.0422344
        endloop
    endfacet
    facet normal -0.00167948 -0.757956 0.652303
        outer loop
            vertex 0.037531 -0.0636069 0.124915
            vertex 0.539 -0.0548288 0.136406
            vertex 0.0506949 -0.0498801 0.140899
        endloop
    endfacet
    facet normal 0.766113 0.528936 -0.365099
        outer loop
            vertex 0.539 0.0537108 0.0295492
            vertex 0.55 0.0633812 0.0666413
            vertex 0.55 0.0427472 0.0367479
        endloop
    endfacet
    facet normal -0.749939 0.279119 -0.599737
        outer loop
            vertex -0.076565 0.00559174 0.011
            vertex -0.0620387 0.0446211 0.011
            vertex -0.0637787 0.015751 -0.000260431
        endloop
    endfacet
    facet normal -0.798122 0.498363 0.33858
        outer loop
            vertex -0.0488692 0.0368687 0.0820381
            vertex -0.0464751 0.051262 0.0664958
            vertex -0.0616452 0.0387726 0.0491193
        endloop
    endfacet
    facet normal -0.682154 -0.404279 -0.609282
        outer loop
            vertex -0.0724468 -0.0258026 0.0132972
            vertex -0.0606936 -0.0255375 -3.76256e-005
            vertex -0.0566681 -0.0489645 0.011
        endloop
    endfacet
    facet normal -0.694632 0.480055 0.535755
        outer loop
            vertex -0.0488692 0.0368687 0.0820381
            vertex -0.0347494 0.029051 0.10735
            vertex -0.023196 0.0504905 0.103119
        endloop
    endfacet
    facet normal -0.804469 -0.593994 9.61082e-005
        outer loop
            vertex -0.0549971 -0.0512228 0.0406433
            vertex -0.0641298 -0.0388551 0.0340578
            vertex -0.0566681 -0.0489645 0.011
        endloop
    endfacet
    facet normal -0.0024506 0.202893 0.979198
        outer loop
            vertex 0.0626874 0.00092219 0.160645
            vertex 0.539 0.0314527 0.155511
            vertex 0.051661 0.0235492 0.155929
        endloop
    endfacet
    facet normal -0.113793 -0.993448 0.0105771
        outer loop
            vertex -0.0220652 -0.0723168 0.061523
            vertex -0.0106204 -0.0741748 0.0101399
            vertex -5.19191e-005 -0.0745516 0.0884502
        endloop
    endfacet
    facet normal -0.0681357 -0.728454 0.681698
        outer loop
            vertex 0.0283866 -0.0629481 0.124705
            vertex 0.037531 -0.0636069 0.124915
            vertex 0.0506949 -0.0498801 0.140899
        endloop
    endfacet
    facet normal -0.854631 0.380158 0.353675
        outer loop
            vertex -0.0488692 0.0368687 0.0820381
            vertex -0.0616452 0.0387726 0.0491193
            vertex -0.0662244 0.0185143 0.0598292
        endloop
    endfacet
    facet normal -0.60716 0.0605626 0.792268
        outer loop
            vertex -0.00314702 0.020505 0.138684
            vertex -0.0333524 0.0116735 0.116211
            vertex -0.00427109 0.00414706 0.139073
        endloop
    endfacet
    facet normal -0.732243 -0.0682619 0.677614
        outer loop
            vertex -0.0465058 -0.00369108 0.100945
            vertex -0.0291885 -0.0172254 0.118295
            vertex -0.0278143 0.000712224 0.121587
        endloop
    endfacet
    facet normal -0.71236 0.56623 0.41464
        outer loop
            vertex -0.0488692 0.0368687 0.0820381
            vertex -0.0327826 0.0568512 0.0823872
            vertex -0.0464751 0.051262 0.0664958
        endloop
    endfacet
    facet normal -0.624104 0.314535 0.715235
        outer loop
            vertex -0.00314702 0.020505 0.138684
            vertex -0.0347494 0.029051 0.10735
            vertex -0.0333524 0.0116735 0.116211
        endloop
    endfacet
    facet normal 0.607885 -0.663297 0.436479
        outer loop
            vertex 0.55 -0.0511143 0.126731
            vertex 0.539 -0.0548288 0.136406
            vertex 0.539079 -0.0706988 0.112179
        endloop
    endfacet
    facet normal -0.19428 0.108522 0.974925
        outer loop
            vertex 0.0296044 -0.00857061 0.155109
            vertex 0.0626874 0.00092219 0.160645
            vertex 0.051661 0.0235492 0.155929
        endloop
    endfacet
    facet normal 0.558027 0.539306 0.630677
        outer loop
            vertex 0.550001 0.0321277 0.1452
            vertex 0.539 0.0601983 0.13093
            vertex 0.539 0.0314527 0.155511
        endloop
    endfacet
    facet normal -0.344337 0.402945 0.847978
        outer loop
            vertex 0.0429907 0.0354044 0.150752
            vertex 0.00216022 0.0350341 0.134348
            vertex 0.0284795 0.0214318 0.151499
        endloop
    endfacet
    facet normal -0.625485 0.78003 -0.0179118
        outer loop
            vertex -0.0594115 0.0473379 0.029791
            vertex -0.0393942 0.063817 0.0484194
            vertex -0.03603 0.0656554 0.011
        endloop
    endfacet
    facet normal -0.746955 0.635539 0.195315
        outer loop
            vertex -0.0594115 0.0473379 0.029791
            vertex -0.0616452 0.0387726 0.0491193
            vertex -0.0464751 0.051262 0.0664958
        endloop
    endfacet
    facet normal -0.924464 0.344075 -0.164252
        outer loop
            vertex -0.076565 0.00559174 0.011
            vertex -0.0710767 0.0270084 0.0249737
            vertex -0.0620387 0.0446211 0.011
        endloop
    endfacet
    facet normal -0.614786 -0.0965574 0.782761
        outer loop
            vertex -0.0291885 -0.0172254 0.118295
            vertex -0.00998709 -0.0156198 0.133574
            vertex -0.0278143 0.000712224 0.121587
        endloop
    endfacet
    facet normal -0.923595 -0.353841 0.147541
        outer loop
            vertex -0.0675202 -0.0208943 0.0559087
            vertex -0.0724468 -0.0258026 0.0132972
            vertex -0.0641298 -0.0388551 0.0340578
        endloop
    endfacet
    facet normal -0.590379 -0.0533262 0.805363
        outer loop
            vertex -0.00427109 0.00414706 0.139073
            vertex -0.0278143 0.000712224 0.121587
            vertex -0.00998709 -0.0156198 0.133574
        endloop
    endfacet
    facet normal -0.477853 0.737696 0.476928
        outer loop
            vertex -0.000612546 0.0562666 0.116812
            vertex -0.00346365 0.0746713 0.0854876
            vertex -0.023196 0.0504905 0.103119
        endloop
    endfacet
    facet normal 0.0512276 0.703925 -0.708425
        outer loop
            vertex 0.539 0.0537108 0.0295492
            vertex -0.00802615 0.0626174 -0.00115732
            vertex -0.0106213 0.0741744 0.0101386
        endloop
    endfacet
    facet normal -0.22493 0.708896 0.668486
        outer loop
            vertex 0.0254365 0.0681228 0.115762
            vertex 0.0191247 0.0509209 0.13188
            vertex 0.0476437 0.0537508 0.138475
        endloop
    endfacet
    facet normal -0.313804 0.820901 0.477125
        outer loop
            vertex 0.0254365 0.0681228 0.115762
            vertex 0.0167801 0.0735239 0.100776
            vertex -0.00346365 0.0746713 0.0854876
        endloop
    endfacet
    facet normal 0.000606245 0.997255 0.0740414
        outer loop
            vertex 0.539 0.0755872 0.0687098
            vertex -0.00346365 0.0746713 0.0854876
            vertex 0.0167801 0.0735239 0.100776
        endloop
    endfacet
    facet normal 0.606364 0.719044 0.339557
        outer loop
            vertex 0.55 0.0617112 0.108083
            vertex 0.539 0.0725104 0.104858
            vertex 0.539 0.0601983 0.13093
        endloop
    endfacet
    facet normal 0.993955 0.0705409 0.0841231
        outer loop
            vertex 0.550001 0.0321277 0.1452
            vertex 0.557612 -0.00457451 0.086049
            vertex 0.556076 0.0206632 0.0830348
        endloop
    endfacet
    facet normal -0.244708 0.644201 -0.724654
        outer loop
            vertex -0.00802615 0.0626174 -0.00115732
            vertex -0.0416804 0.0510485 -7.71165e-005
            vertex -0.03603 0.0656554 0.011
        endloop
    endfacet
    facet normal -0.894728 0.149304 0.420916
        outer loop
            vertex -0.0651649 -0.000189819 0.0687159
            vertex -0.0530677 0.015673 0.0888038
            vertex -0.0662244 0.0185143 0.0598292
        endloop
    endfacet
    facet normal -0.605328 -0.795976 0.00022553
        outer loop
            vertex -0.0549971 -0.0512228 0.0406433
            vertex -0.03603 -0.0656554 0.011
            vertex -0.0396341 -0.0629035 0.0499451
        endloop
    endfacet
    facet normal -0.000110964 -0.990391 0.138298
        outer loop
            vertex 0.538986 -0.0765176 0.0748036
            vertex 0.0241626 -0.0723148 0.104488
            vertex -5.19191e-005 -0.0745516 0.0884502
        endloop
    endfacet
    facet normal -0.204199 0.26249 0.943081
        outer loop
            vertex 0.0429907 0.0354044 0.150752
            vertex 0.0284795 0.0214318 0.151499
            vertex 0.051661 0.0235492 0.155929
        endloop
    endfacet
    facet normal -0.827253 -0.561416 -0.0215606
        outer loop
            vertex -0.0724468 -0.0258026 0.0132972
            vertex -0.0566681 -0.0489645 0.011
            vertex -0.0641298 -0.0388551 0.0340578
        endloop
    endfacet
    facet normal -0.209589 0.977697 0.0134619
        outer loop
            vertex -0.0261237 0.0701672 0.0598116
            vertex -0.00346365 0.0746713 0.0854876
            vertex -0.0106213 0.0741744 0.0101386
        endloop
    endfacet
    facet normal -0.779516 0.325278 0.535303
        outer loop
            vertex -0.0488692 0.0368687 0.0820381
            vertex -0.0530677 0.015673 0.0888038
            vertex -0.0347494 0.029051 0.10735
        endloop
    endfacet
    facet normal -0.584825 -0.636935 0.502288
        outer loop
            vertex -0.00710411 -0.055874 0.112974
            vertex -0.038603 -0.043606 0.0918558
            vertex -0.0275777 -0.0617898 0.0816345
        endloop
    endfacet
    facet normal -0.771467 0.238721 0.589789
        outer loop
            vertex -0.0530677 0.015673 0.0888038
            vertex -0.0333524 0.0116735 0.116211
            vertex -0.0347494 0.029051 0.10735
        endloop
    endfacet
    facet normal -0.609317 0.748476 0.261757
        outer loop
            vertex -0.0327826 0.0568512 0.0823872
            vertex -0.0261237 0.0701672 0.0598116
            vertex -0.0464751 0.051262 0.0664958
        endloop
    endfacet
    facet normal -0.187887 -0.62162 0.760452
        outer loop
            vertex 0.0283866 -0.0629481 0.124705
            vertex 0.0506949 -0.0498801 0.140899
            vertex 0.0365207 -0.0390755 0.146229
        endloop
    endfacet
    facet normal -0.237655 0.581123 0.778342
        outer loop
            vertex 0.0429907 0.0354044 0.150752
            vertex 0.0476437 0.0537508 0.138475
            vertex 0.0191247 0.0509209 0.13188
        endloop
    endfacet
    facet normal 0.00137118 -0.594649 0.803984
        outer loop
            vertex 0.539 -0.0314157 0.153723
            vertex 0.0506949 -0.0498801 0.140899
            vertex 0.539 -0.0548288 0.136406
        endloop
    endfacet
    facet normal -0.00283094 0.84378 0.536682
        outer loop
            vertex 0.0254365 0.0681228 0.115762
            vertex 0.0476437 0.0537508 0.138475
            vertex 0.539 0.0601983 0.13093
        endloop
    endfacet
    facet normal 0.721712 0.321674 -0.612909
        outer loop
            vertex 0.539 0.0537108 0.0295492
            vertex 0.55 0.0427472 0.0367479
            vertex 0.55 0.0105847 0.019868
        endloop
    endfacet
    facet normal 0.720314 0.321685 -0.614546
        outer loop
            vertex 0.539 0.0537108 0.0295492
            vertex 0.55 0.0105847 0.019868
            vertex 0.539 0.0203698 0.0120968
        endloop
    endfacet
    facet normal -0.87141 0.487865 0.0512978
        outer loop
            vertex -0.0594115 0.0473379 0.029791
            vertex -0.0620387 0.0446211 0.011
            vertex -0.0710767 0.0270084 0.0249737
        endloop
    endfacet
    facet normal -0.970483 0.16549 0.175432
        outer loop
            vertex -0.0662244 0.0185143 0.0598292
            vertex -0.0710767 0.0270084 0.0249737
            vertex -0.0737842 0.000522268 0.0349811
        endloop
    endfacet
    facet normal -0.966616 0.0632211 0.248307
        outer loop
            vertex -0.0651649 -0.000189819 0.0687159
            vertex -0.0662244 0.0185143 0.0598292
            vertex -0.0737842 0.000522268 0.0349811
        endloop
    endfacet
    facet normal -0.601944 0.369539 0.707887
        outer loop
            vertex -0.00314702 0.020505 0.138684
            vertex -0.0128967 0.0409817 0.119704
            vertex -0.0347494 0.029051 0.10735
        endloop
    endfacet
    facet normal -0.342269 0.79618 0.498949
        outer loop
            vertex 0.0254365 0.0681228 0.115762
            vertex -0.00346365 0.0746713 0.0854876
            vertex -0.000612546 0.0562666 0.116812
        endloop
    endfacet
    facet normal -0.601008 0.747245 0.283573
        outer loop
            vertex -0.0393942 0.063817 0.0484194
            vertex -0.0464751 0.051262 0.0664958
            vertex -0.0261237 0.0701672 0.0598116
        endloop
    endfacet
    facet normal -0.00564649 0.396716 0.917924
        outer loop
            vertex 0.0429907 0.0354044 0.150752
            vertex 0.051661 0.0235492 0.155929
            vertex 0.539 0.0314527 0.155511
        endloop
    endfacet
    facet normal -0.330871 0.479573 0.812732
        outer loop
            vertex 0.0429907 0.0354044 0.150752
            vertex 0.0191247 0.0509209 0.13188
            vertex 0.00216022 0.0350341 0.134348
        endloop
    endfacet
    facet normal -0.531494 0.549174 0.64492
        outer loop
            vertex -0.000612546 0.0562666 0.116812
            vertex -0.023196 0.0504905 0.103119
            vertex -0.0128967 0.0409817 0.119704
        endloop
    endfacet
    facet normal -0.296744 0.708661 0.640112
        outer loop
            vertex 0.0254365 0.0681228 0.115762
            vertex -0.000612546 0.0562666 0.116812
            vertex 0.0191247 0.0509209 0.13188
        endloop
    endfacet
    facet normal -0.262963 -0.719396 -0.6429
        outer loop
            vertex -0.0336269 -0.0564902 -0.000238656
            vertex -0.0106204 -0.0741748 0.0101399
            vertex -0.03603 -0.0656554 0.011
        endloop
    endfacet
    facet normal -0.628653 -0.777322 -0.0237811
        outer loop
            vertex -0.0549971 -0.0512228 0.0406433
            vertex -0.0566681 -0.0489645 0.011
            vertex -0.03603 -0.0656554 0.011
        endloop
    endfacet
    facet normal -0.968221 -0.042328 0.246489
        outer loop
            vertex -0.0675202 -0.0208943 0.0559087
            vertex -0.0651649 -0.000189819 0.0687159
            vertex -0.0737842 0.000522268 0.0349811
        endloop
    endfacet
    facet normal 0.0444823 -0.910521 -0.411064
        outer loop
            vertex 0.538986 -0.0765176 0.0748036
            vertex -0.0106204 -0.0741748 0.0101399
            vertex 0.539033 -0.0618116 0.0422344
        endloop
    endfacet
    facet normal -0.216053 -0.86792 0.447255
        outer loop
            vertex 0.0283866 -0.0629481 0.124705
            vertex -5.19191e-005 -0.0745516 0.0884502
            vertex 0.0241626 -0.0723148 0.104488
        endloop
    endfacet
    facet normal -0.97868 -0.157906 0.131341
        outer loop
            vertex -0.0675202 -0.0208943 0.0559087
            vertex -0.0737842 0.000522268 0.0349811
            vertex -0.0724468 -0.0258026 0.0132972
        endloop
    endfacet
    facet normal -0.628642 0.777309 -0.0244919
        outer loop
            vertex -0.0594115 0.0473379 0.029791
            vertex -0.03603 0.0656554 0.011
            vertex -0.0620387 0.0446211 0.011
        endloop
    endfacet
    facet normal -0.636567 -0.051717 -0.769486
        outer loop
            vertex -0.076565 0.00559174 0.011
            vertex -0.0637787 0.015751 -0.000260431
            vertex -0.0606936 -0.0255375 -3.76256e-005
        endloop
    endfacet
    facet normal -0.72052 0.66901 0.18242
        outer loop
            vertex -0.0594115 0.0473379 0.029791
            vertex -0.0464751 0.051262 0.0664958
            vertex -0.0393942 0.063817 0.0484194
        endloop
    endfacet
    facet normal -0.800912 0.0988759 0.590563
        outer loop
            vertex -0.0530677 0.015673 0.0888038
            vertex -0.0465058 -0.00369108 0.100945
            vertex -0.0333524 0.0116735 0.116211
        endloop
    endfacet
    facet normal -0.761909 -0.175735 0.623387
        outer loop
            vertex -0.0465058 -0.00369108 0.100945
            vertex -0.0453478 -0.0230787 0.0968949
            vertex -0.0291885 -0.0172254 0.118295
        endloop
    endfacet
    facet normal -0.864152 0.0223771 0.502733
        outer loop
            vertex -0.0651649 -0.000189819 0.0687159
            vertex -0.0465058 -0.00369108 0.100945
            vertex -0.0530677 0.015673 0.0888038
        endloop
    endfacet
    facet normal 0.00208642 -0.836502 0.547961
        outer loop
            vertex 0.037531 -0.0636069 0.124915
            vertex 0.539079 -0.0706988 0.112179
            vertex 0.539 -0.0548288 0.136406
        endloop
    endfacet
    facet normal -0.338245 -0.404606 0.849638
        outer loop
            vertex 0.00907816 -0.0245126 0.142239
            vertex 0.0160617 -0.0430972 0.136169
            vertex 0.0365207 -0.0390755 0.146229
        endloop
    endfacet
    facet normal -0.00353422 0.556759 0.830666
        outer loop
            vertex 0.0429907 0.0354044 0.150752
            vertex 0.539 0.0314527 0.155511
            vertex 0.0476437 0.0537508 0.138475
        endloop
    endfacet
    facet normal -0.514058 0.635627 -0.575954
        outer loop
            vertex -0.0620387 0.0446211 0.011
            vertex -0.03603 0.0656554 0.011
            vertex -0.0416804 0.0510485 -7.71165e-005
        endloop
    endfacet
    facet normal -0.873118 0.475028 0.109605
        outer loop
            vertex -0.0594115 0.0473379 0.029791
            vertex -0.0710767 0.0270084 0.0249737
            vertex -0.0616452 0.0387726 0.0491193
        endloop
    endfacet
    facet normal -0.856134 0.303165 0.41848
        outer loop
            vertex -0.0488692 0.0368687 0.0820381
            vertex -0.0662244 0.0185143 0.0598292
            vertex -0.0530677 0.015673 0.0888038
        endloop
    endfacet
    facet normal -0.000828124 0.940611 0.339484
        outer loop
            vertex 0.0254365 0.0681228 0.115762
            vertex 0.539 0.0725104 0.104858
            vertex 0.0167801 0.0735239 0.100776
        endloop
    endfacet
    facet normal -0.496913 0.738178 0.456257
        outer loop
            vertex -0.023196 0.0504905 0.103119
            vertex -0.00346365 0.0746713 0.0854876
            vertex -0.0327826 0.0568512 0.0823872
        endloop
    endfacet
    facet normal -0.740816 -0.145167 -0.655834
        outer loop
            vertex -0.076565 0.00559174 0.011
            vertex -0.0606936 -0.0255375 -3.76256e-005
            vertex -0.0724468 -0.0258026 0.0132972
        endloop
    endfacet
    facet normal -0.375989 0.112315 0.919792
        outer loop
            vertex -0.00314702 0.020505 0.138684
            vertex 0.0128195 -0.00273043 0.148048
            vertex 0.0284795 0.0214318 0.151499
        endloop
    endfacet
    facet normal -0.925274 0.318248 0.206364
        outer loop
            vertex -0.0662244 0.0185143 0.0598292
            vertex -0.0616452 0.0387726 0.0491193
            vertex -0.0710767 0.0270084 0.0249737
        endloop
    endfacet
    facet normal -0.570142 -0.332143 0.751412
        outer loop
            vertex -0.0291885 -0.0172254 0.118295
            vertex -0.0052767 -0.0375033 0.127475
            vertex -0.00998709 -0.0156198 0.133574
        endloop
    endfacet
    facet normal -0.602065 0.0851783 0.793891
        outer loop
            vertex -0.0333524 0.0116735 0.116211
            vertex -0.0278143 0.000712224 0.121587
            vertex -0.00427109 0.00414706 0.139073
        endloop
    endfacet
    facet normal 0.744843 0.666699 0.0268664
        outer loop
            vertex 0.539 0.0755872 0.0687098
            vertex 0.55 0.0617112 0.108083
            vertex 0.55 0.0633812 0.0666413
        endloop
    endfacet
    facet normal -0.684006 -0.625612 0.37516
        outer loop
            vertex -0.0526562 -0.0475599 0.05964
            vertex -0.0275777 -0.0617898 0.0816345
            vertex -0.038603 -0.043606 0.0918558
        endloop
    endfacet
    facet normal -0.435401 -0.530692 0.727181
        outer loop
            vertex -0.00710411 -0.055874 0.112974
            vertex 0.0160617 -0.0430972 0.136169
            vertex -0.0052767 -0.0375033 0.127475
        endloop
    endfacet
    facet normal 0.769336 -0.597331 0.226533
        outer loop
            vertex 0.55 -0.0675008 0.0835225
            vertex 0.55 -0.0511143 0.126731
            vertex 0.539079 -0.0706988 0.112179
        endloop
    endfacet
    facet normal -0.256065 -0.597721 0.759711
        outer loop
            vertex 0.0283866 -0.0629481 0.124705
            vertex 0.0365207 -0.0390755 0.146229
            vertex 0.0160617 -0.0430972 0.136169
        endloop
    endfacet
    facet normal -0.514081 -0.331173 0.79123
        outer loop
            vertex 0.00907816 -0.0245126 0.142239
            vertex -0.00998709 -0.0156198 0.133574
            vertex -0.0052767 -0.0375033 0.127475
        endloop
    endfacet
    facet normal -0.671162 -0.708147 0.219248
        outer loop
            vertex -0.0526562 -0.0475599 0.05964
            vertex -0.0549971 -0.0512228 0.0406433
            vertex -0.0396341 -0.0629035 0.0499451
        endloop
    endfacet
    facet normal -0.318794 -0.947111 -0.0367593
        outer loop
            vertex -0.0220652 -0.0723168 0.061523
            vertex -0.03603 -0.0656554 0.011
            vertex -0.0106204 -0.0741748 0.0101399
        endloop
    endfacet
    facet normal -0.572573 -0.336787 0.747486
        outer loop
            vertex -0.0291885 -0.0172254 0.118295
            vertex -0.0210695 -0.0395668 0.114448
            vertex -0.0052767 -0.0375033 0.127475
        endloop
    endfacet
    facet normal -0.510936 -0.50072 0.69873
        outer loop
            vertex -0.00710411 -0.055874 0.112974
            vertex -0.0052767 -0.0375033 0.127475
            vertex -0.0210695 -0.0395668 0.114448
        endloop
    endfacet
    facet normal -0.579307 -0.776564 0.247692
        outer loop
            vertex -0.0220652 -0.0723168 0.061523
            vertex -0.0275777 -0.0617898 0.0816345
            vertex -0.0396341 -0.0629035 0.0499451
        endloop
    endfacet
    facet normal -0.505597 -0.43729 -0.74374
        outer loop
            vertex -0.0336269 -0.0564902 -0.000238656
            vertex -0.0566681 -0.0489645 0.011
            vertex -0.0606936 -0.0255375 -3.76256e-005
        endloop
    endfacet
    facet normal -0.51689 0.795332 0.316657
        outer loop
            vertex -0.0327826 0.0568512 0.0823872
            vertex -0.00346365 0.0746713 0.0854876
            vertex -0.0261237 0.0701672 0.0598116
        endloop
    endfacet
    facet normal -0.840467 -0.42071 0.341495
        outer loop
            vertex -0.0675202 -0.0208943 0.0559087
            vertex -0.0526562 -0.0475599 0.05964
            vertex -0.0593271 -0.0219134 0.0748176
        endloop
    endfacet
    facet normal 0.00134104 0.904244 0.427015
        outer loop
            vertex 0.0254365 0.0681228 0.115762
            vertex 0.539 0.0601983 0.13093
            vertex 0.539 0.0725104 0.104858
        endloop
    endfacet
    facet normal -0.977044 0.15507 0.146077
        outer loop
            vertex -0.076565 0.00559174 0.011
            vertex -0.0737842 0.000522268 0.0349811
            vertex -0.0710767 0.0270084 0.0249737
        endloop
    endfacet
    facet normal -0.791076 -0.377996 0.480956
        outer loop
            vertex -0.0593271 -0.0219134 0.0748176
            vertex -0.038603 -0.043606 0.0918558
            vertex -0.0453478 -0.0230787 0.0968949
        endloop
    endfacet
    facet normal 0.0217206 0.00737716 -0.999737
        outer loop
            vertex -0.00190917 -0.0614897 -0.00194022
            vertex -0.00802615 0.0626174 -0.00115732
            vertex 0.539007 -0.012255 0.0101752
        endloop
    endfacet
    facet normal -0.354642 -0.622888 0.697309
        outer loop
            vertex -0.00710411 -0.055874 0.112974
            vertex 0.0283866 -0.0629481 0.124705
            vertex 0.0160617 -0.0430972 0.136169
        endloop
    endfacet
    facet normal -0.836146 -0.510191 0.201409
        outer loop
            vertex -0.0526562 -0.0475599 0.05964
            vertex -0.0641298 -0.0388551 0.0340578
            vertex -0.0549971 -0.0512228 0.0406433
        endloop
    endfacet
endsolid D:/Users/Paul Maroldt/Documents/!StartUp_Repositories/gen2_robot_data/ModuleLibrary/L148-550/L148-550_convdec.stl_created_by_BoundingMesh