solid D:/Users/Paul Maroldt/Documents/!StartUp_Repositories/modrob-gen2/ModuleLibrary/L141-I-80-80/L141-I-80-80_convdec.stl_created_by_BoundingMesh
    facet normal 0.430987 -0.622169 0.653572
        outer loop
            vertex 0.0305317 -0.0311342 0.131
            vertex 0.01946 -0.028299 0.141
            vertex 0.0184269 -0.0395194 0.131
        endloop
    endfacet
    facet normal 0.363488 0.668548 0.648783
        outer loop
            vertex 0.0247553 0.0257573 0.141
            vertex 0.0270041 0.034239 0.131
            vertex 0.014055 0.0412794 0.131
        endloop
    endfacet
    facet normal 0.119266 0.746864 0.654194
        outer loop
            vertex 0.014055 0.0412794 0.131
            vertex -0.000499468 0.0436036 0.131
            vertex 0.00875144 0.0333671 0.141
        endloop
    endfacet
    facet normal 0.586751 0.470835 -0.658815
        outer loop
            vertex 0.0381333 0.0211507 0.0100001
            vertex 0.0309145 0.0161362 -1.27842e-005
            vertex 0.0312314 0.0297518 0.0100001
        endloop
    endfacet
    facet normal 0.639485 0.335627 0.691675
        outer loop
            vertex 0.0247553 0.0257573 0.141
            vertex 0.0352657 0.00573141 0.141
            vertex 0.036868 0.0232869 0.131
        endloop
    endfacet
    facet normal 0.241495 -0.251427 0.937265
        outer loop
            vertex 0.031636 -0.016604 0.141
            vertex 0.0130395 -0.0195175 0.14501
            vertex 0.01946 -0.028299 0.141
        endloop
    endfacet
    facet normal 0.720641 0.252157 -0.645828
        outer loop
            vertex 0.0381333 0.0211507 0.0100001
            vertex 0.043001 0.00723929 0.0100001
            vertex 0.0309145 0.0161362 -1.27842e-005
        endloop
    endfacet
    facet normal -0.300772 0.953695 -0.00115967
        outer loop
            vertex -0.0197606 0.0388149 0.0100001
            vertex -0.0113463 0.0416157 0.131
            vertex -0.00908444 0.0421819 0.0100001
        endloop
    endfacet
    facet normal 0.149924 -0.317891 0.936199
        outer loop
            vertex 0.00695333 -0.0341974 0.141
            vertex 0.01946 -0.028299 0.141
            vertex 0.0130395 -0.0195175 0.14501
        endloop
    endfacet
    facet normal -0.505413 -0.526185 -0.683877
        outer loop
            vertex -0.0153085 -0.0322625 -1.90028e-005
            vertex -0.0260356 -0.0349806 0.0100001
            vertex -0.0316042 -0.0165887 -3.54734e-005
        endloop
    endfacet
    facet normal -0.452905 -0.891554 -0.00289316
        outer loop
            vertex -0.0260356 -0.0349806 0.0100001
            vertex -0.016204 -0.039975 0.0100001
            vertex -0.024003 -0.0364058 0.131
        endloop
    endfacet
    facet normal -0.240911 -0.970543 0.00288488
        outer loop
            vertex -0.00566924 -0.0432361 0.0100001
            vertex -0.00346012 -0.0434242 0.131198
            vertex -0.0139027 -0.0408327 0.131
        endloop
    endfacet
    facet normal -0.373417 -0.092039 0.923086
        outer loop
            vertex -0.0309318 -0.0161157 0.141
            vertex -0.0232047 -0.00703766 0.145031
            vertex -0.034223 -0.00276277 0.141
        endloop
    endfacet
    facet normal 0.000777619 -0.000242363 -1
        outer loop
            vertex -0.0153085 -0.0322625 -1.90028e-005
            vertex -0.0316042 -0.0165887 -3.54734e-005
            vertex 0.0204185 0.0282778 -5.89354e-006
        endloop
    endfacet
    facet normal 0.80491 -0.00243563 -0.593391
        outer loop
            vertex 0.0355568 -0.00287376 -5.61294e-005
            vertex 0.043001 0.00723929 0.0100001
            vertex 0.0429564 -0.00749951 0.0100001
        endloop
    endfacet
    facet normal 0.287829 -0.719509 -0.632029
        outer loop
            vertex 0.00878841 -0.0427622 0.00997261
            vertex 0.0149563 -0.0315202 -1.65285e-005
            vertex 0.0227503 -0.0372011 0.0100001
        endloop
    endfacet
    facet normal 0.263763 -0.964575 0.00483894
        outer loop
            vertex 0.00878841 -0.0427622 0.00997261
            vertex 0.0184269 -0.0395194 0.131
            vertex 0.00765676 -0.0424645 0.131
        endloop
    endfacet
    facet normal -0.748185 0.0231994 0.663084
        outer loop
            vertex -0.043187 -0.00603394 0.131
            vertex -0.034223 -0.00276277 0.141
            vertex -0.0427302 0.00869794 0.131
        endloop
    endfacet
    facet normal -0.366367 -0.721203 -0.587913
        outer loop
            vertex -0.0153085 -0.0322625 -1.90028e-005
            vertex -0.016204 -0.039975 0.0100001
            vertex -0.0260356 -0.0349806 0.0100001
        endloop
    endfacet
    facet normal 0.336852 -0.0547414 0.939965
        outer loop
            vertex 0.031636 -0.016604 0.141
            vertex 0.0352657 0.00573141 0.141
            vertex 0.0216903 -0.00898377 0.145008
        endloop
    endfacet
    facet normal -0.0305556 0.308803 0.950635
        outer loop
            vertex 0.00962187 0.023233 0.145107
            vertex -0.00463917 0.0344651 0.141
            vertex -0.0114163 0.0213514 0.145042
        endloop
    endfacet
    facet normal 0.569431 -0.822026 0.0045965
        outer loop
            vertex 0.0227503 -0.0372011 0.0100001
            vertex 0.0305317 -0.0311342 0.131
            vertex 0.0184269 -0.0395194 0.131
        endloop
    endfacet
    facet normal -0.401428 -0.91589 0.00114256
        outer loop
            vertex -0.024003 -0.0364058 0.131
            vertex -0.016204 -0.039975 0.0100001
            vertex -0.0139027 -0.0408327 0.131
        endloop
    endfacet
    facet normal -0.442369 0.61392 -0.653768
        outer loop
            vertex -0.0312408 0.0304875 0.00994829
            vertex -0.0197606 0.0388149 0.0100001
            vertex -0.0191082 0.0286303 -5.18183e-006
        endloop
    endfacet
    facet normal -0.573468 0.493177 0.654149
        outer loop
            vertex -0.0373917 0.0224364 0.131
            vertex -0.0256998 0.0227678 0.141
            vertex -0.0302014 0.0307973 0.131
        endloop
    endfacet
    facet normal -0.996639 -0.0817879 -0.00460229
        outer loop
            vertex -0.0434377 0.00382981 0.0100001
            vertex -0.0422322 -0.01086 0.0100001
            vertex -0.043187 -0.00603394 0.131
        endloop
    endfacet
    facet normal -0.766527 -0.062904 -0.639124
        outer loop
            vertex -0.0351972 0.00571885 -6.89889e-005
            vertex -0.0422322 -0.01086 0.0100001
            vertex -0.0434377 0.00382981 0.0100001
        endloop
    endfacet
    facet normal 0.000755424 -0.00229837 -0.999997
        outer loop
            vertex -0.0153085 -0.0322625 -1.90028e-005
            vertex 0.0278944 -0.0209612 -1.23408e-005
            vertex 0.00138263 -0.0343049 -1.69968e-006
        endloop
    endfacet
    facet normal 0.213656 0.976905 -0.00289411
        outer loop
            vertex 0.014055 0.0412794 0.131
            vertex 0.0127557 0.0412051 0.0100001
            vertex 0.00199655 0.0435582 0.0100001
        endloop
    endfacet
    facet normal -0.146563 -0.273935 0.950515
        outer loop
            vertex -0.0201808 -0.0285915 0.141
            vertex -0.00236686 -0.0240869 0.145045
            vertex -0.0145394 -0.0177165 0.145004
        endloop
    endfacet
    facet normal 0.0774761 -0.765726 0.638483
        outer loop
            vertex -0.00346012 -0.0434242 0.131198
            vertex 0.00765676 -0.0424645 0.131
            vertex 0.00695333 -0.0341974 0.141
        endloop
    endfacet
    facet normal -0.251568 -0.216788 0.943248
        outer loop
            vertex -0.0201808 -0.0285915 0.141
            vertex -0.0145394 -0.0177165 0.145004
            vertex -0.0309318 -0.0161157 0.141
        endloop
    endfacet
    facet normal -0.525616 -0.561153 0.639402
        outer loop
            vertex -0.024003 -0.0364058 0.131
            vertex -0.0201808 -0.0285915 0.141
            vertex -0.0320515 -0.028867 0.131
        endloop
    endfacet
    facet normal -0.683616 -0.729836 0.00288722
        outer loop
            vertex -0.0260356 -0.0349806 0.0100001
            vertex -0.024003 -0.0364058 0.131
            vertex -0.0320515 -0.028867 0.131
        endloop
    endfacet
    facet normal 0.0234616 -0.753856 -0.656621
        outer loop
            vertex 0.00878841 -0.0427622 0.00997261
            vertex -0.00566924 -0.0432361 0.0100001
            vertex 0.00138263 -0.0343049 -1.69968e-006
        endloop
    endfacet
    facet normal -0.0287072 -0.712448 0.701138
        outer loop
            vertex -0.00346012 -0.0434242 0.131198
            vertex 0.00695333 -0.0341974 0.141
            vertex -0.0068677 -0.0336405 0.141
        endloop
    endfacet
    facet normal 0.00282993 -0.00201292 0.999994
        outer loop
            vertex 0.00962187 0.023233 0.145107
            vertex 0.0216903 -0.00898377 0.145008
            vertex 0.0231886 0.00703235 0.145036
        endloop
    endfacet
    facet normal -0.00156799 0.00231788 -0.999996
        outer loop
            vertex 0.0278944 -0.0209612 -1.23408e-005
            vertex 0.0149563 -0.0315202 -1.65285e-005
            vertex 0.00138263 -0.0343049 -1.69968e-006
        endloop
    endfacet
    facet normal 0.00292922 -0.00221606 0.999993
        outer loop
            vertex -0.00236686 -0.0240869 0.145045
            vertex 0.0130395 -0.0195175 0.14501
            vertex 0.0216903 -0.00898377 0.145008
        endloop
    endfacet
    facet normal 0.0902733 -0.297087 0.950573
        outer loop
            vertex 0.00695333 -0.0341974 0.141
            vertex 0.0130395 -0.0195175 0.14501
            vertex -0.00236686 -0.0240869 0.145045
        endloop
    endfacet
    facet normal 0.204364 -0.747352 0.632219
        outer loop
            vertex 0.0184269 -0.0395194 0.131
            vertex 0.00695333 -0.0341974 0.141
            vertex 0.00765676 -0.0424645 0.131
        endloop
    endfacet
    facet normal -0.247875 0.203383 0.947203
        outer loop
            vertex -0.0114163 0.0213514 0.145042
            vertex -0.0256998 0.0227678 0.141
            vertex -0.021687 0.00898297 0.14501
        endloop
    endfacet
    facet normal -0.32593 0.0321159 0.944848
        outer loop
            vertex -0.0331077 0.011053 0.141
            vertex -0.0232047 -0.00703766 0.145031
            vertex -0.021687 0.00898297 0.14501
        endloop
    endfacet
    facet normal 0.00038552 -0.00292861 0.999996
        outer loop
            vertex 0.00962187 0.023233 0.145107
            vertex -0.0232047 -0.00703766 0.145031
            vertex 0.0216903 -0.00898377 0.145008
        endloop
    endfacet
    facet normal -0.606527 0.38354 0.696435
        outer loop
            vertex -0.0373917 0.0224364 0.131
            vertex -0.0331077 0.011053 0.141
            vertex -0.0256998 0.0227678 0.141
        endloop
    endfacet
    facet normal 0.0594087 0.724517 0.686692
        outer loop
            vertex -0.000499468 0.0436036 0.131
            vertex -0.00463917 0.0344651 0.141
            vertex 0.00875144 0.0333671 0.141
        endloop
    endfacet
    facet normal -0.79713 -0.60379 0.00459748
        outer loop
            vertex -0.036202 -0.0243088 0.0100001
            vertex -0.0320515 -0.028867 0.131
            vertex -0.0387099 -0.0200765 0.131
        endloop
    endfacet
    facet normal -0.00815272 -0.00914375 0.999925
        outer loop
            vertex -0.0232047 -0.00703766 0.145031
            vertex -0.0145394 -0.0177165 0.145004
            vertex -0.00236686 -0.0240869 0.145045
        endloop
    endfacet
    facet normal -0.127172 -0.335323 0.93348
        outer loop
            vertex -0.0201808 -0.0285915 0.141
            vertex -0.0068677 -0.0336405 0.141
            vertex -0.00236686 -0.0240869 0.145045
        endloop
    endfacet
    facet normal -0.260712 -0.68744 0.677831
        outer loop
            vertex -0.0201808 -0.0285915 0.141
            vertex -0.0139027 -0.0408327 0.131
            vertex -0.0068677 -0.0336405 0.141
        endloop
    endfacet
    facet normal 0.959452 -0.281857 0.00288698
        outer loop
            vertex 0.0429564 -0.00749951 0.0100001
            vertex 0.0433139 -0.00504321 0.131
            vertex 0.0391596 -0.0191846 0.131
        endloop
    endfacet
    facet normal 0.0860655 -0.996284 0.0032554
        outer loop
            vertex 0.00878841 -0.0427622 0.00997261
            vertex 0.00765676 -0.0424645 0.131
            vertex -0.00346012 -0.0434242 0.131198
        endloop
    endfacet
    facet normal -0.302984 -0.691282 0.655995
        outer loop
            vertex -0.024003 -0.0364058 0.131
            vertex -0.0139027 -0.0408327 0.131
            vertex -0.0201808 -0.0285915 0.141
        endloop
    endfacet
    facet normal -0.952739 -0.303756 0.00459726
        outer loop
            vertex -0.0387099 -0.0200765 0.131
            vertex -0.043187 -0.00603394 0.131
            vertex -0.0422322 -0.01086 0.0100001
        endloop
    endfacet
    facet normal 0.810752 -0.585383 0.00288762
        outer loop
            vertex 0.0380042 -0.0213817 0.0100001
            vertex 0.0391596 -0.0191846 0.131
            vertex 0.0305317 -0.0311342 0.131
        endloop
    endfacet
    facet normal -0.472208 0.5713 0.671294
        outer loop
            vertex -0.0217016 0.0378228 0.131
            vertex -0.0302014 0.0307973 0.131
            vertex -0.0256998 0.0227678 0.141
        endloop
    endfacet
    facet normal -0.34393 0.938993 0.00218184
        outer loop
            vertex -0.0217016 0.0378228 0.131
            vertex -0.0113463 0.0416157 0.131
            vertex -0.0197606 0.0388149 0.0100001
        endloop
    endfacet
    facet normal -0.587154 0.809471 -0.00278176
        outer loop
            vertex -0.0312408 0.0304875 0.00994829
            vertex -0.0217016 0.0378228 0.131
            vertex -0.0197606 0.0388149 0.0100001
        endloop
    endfacet
    facet normal -0.235232 -0.759902 -0.605982
        outer loop
            vertex -0.0153085 -0.0322625 -1.90028e-005
            vertex -0.00566924 -0.0432361 0.0100001
            vertex -0.016204 -0.039975 0.0100001
        endloop
    endfacet
    facet normal -0.00386176 0.0016773 0.999991
        outer loop
            vertex 0.00962187 0.023233 0.145107
            vertex -0.021687 0.00898297 0.14501
            vertex -0.0232047 -0.00703766 0.145031
        endloop
    endfacet
    facet normal 0.142855 -0.700057 -0.699652
        outer loop
            vertex 0.00878841 -0.0427622 0.00997261
            vertex 0.00138263 -0.0343049 -1.69968e-006
            vertex 0.0149563 -0.0315202 -1.65285e-005
        endloop
    endfacet
    facet normal 0.493639 -0.564328 -0.661706
        outer loop
            vertex 0.0227503 -0.0372011 0.0100001
            vertex 0.0278944 -0.0209612 -1.23408e-005
            vertex 0.0310506 -0.0299405 0.0100001
        endloop
    endfacet
    facet normal 0.658386 -0.752666 -0.00460182
        outer loop
            vertex 0.0227503 -0.0372011 0.0100001
            vertex 0.0310506 -0.0299405 0.0100001
            vertex 0.0305317 -0.0311342 0.131
        endloop
    endfacet
    facet normal -0.295712 -0.955277 -0.00114726
        outer loop
            vertex -0.00566924 -0.0432361 0.0100001
            vertex -0.0139027 -0.0408327 0.131
            vertex -0.016204 -0.039975 0.0100001
        endloop
    endfacet
    facet normal 0.235662 -0.193356 0.952406
        outer loop
            vertex 0.031636 -0.016604 0.141
            vertex 0.0216903 -0.00898377 0.145008
            vertex 0.0130395 -0.0195175 0.14501
        endloop
    endfacet
    facet normal -0.999509 0.0309923 0.00459734
        outer loop
            vertex -0.0434377 0.00382981 0.0100001
            vertex -0.043187 -0.00603394 0.131
            vertex -0.0427302 0.00869794 0.131
        endloop
    endfacet
    facet normal 0.709479 -0.115297 0.695231
        outer loop
            vertex 0.031636 -0.016604 0.141
            vertex 0.0433139 -0.00504321 0.131
            vertex 0.0352657 0.00573141 0.141
        endloop
    endfacet
    facet normal 0.645168 -0.465827 0.60561
        outer loop
            vertex 0.031636 -0.016604 0.141
            vertex 0.0305317 -0.0311342 0.131
            vertex 0.0391596 -0.0191846 0.131
        endloop
    endfacet
    facet normal -0.912463 -0.409132 -0.00460165
        outer loop
            vertex -0.036202 -0.0243088 0.0100001
            vertex -0.0387099 -0.0200765 0.131
            vertex -0.0422322 -0.01086 0.0100001
        endloop
    endfacet
    facet normal -0.0154591 -0.383661 0.923345
        outer loop
            vertex 0.00695333 -0.0341974 0.141
            vertex -0.00236686 -0.0240869 0.145045
            vertex -0.0068677 -0.0336405 0.141
        endloop
    endfacet
    facet normal -0.736014 -0.330016 -0.591077
        outer loop
            vertex -0.0316042 -0.0165887 -3.54734e-005
            vertex -0.036202 -0.0243088 0.0100001
            vertex -0.0422322 -0.01086 0.0100001
        endloop
    endfacet
    facet normal -0.721871 -0.230149 0.652636
        outer loop
            vertex -0.0387099 -0.0200765 0.131
            vertex -0.0309318 -0.0161157 0.141
            vertex -0.043187 -0.00603394 0.131
        endloop
    endfacet
    facet normal -0.714273 -0.116082 -0.690174
        outer loop
            vertex -0.0351972 0.00571885 -6.89889e-005
            vertex -0.0316042 -0.0165887 -3.54734e-005
            vertex -0.0422322 -0.01086 0.0100001
        endloop
    endfacet
    facet normal 0.477657 0.878534 0.00459671
        outer loop
            vertex 0.014055 0.0412794 0.131
            vertex 0.0270041 0.034239 0.131
            vertex 0.0229754 0.0370625 0.0100001
        endloop
    endfacet
    facet normal 0.181977 0.382707 0.90577
        outer loop
            vertex 0.0247553 0.0257573 0.141
            vertex 0.00875144 0.0333671 0.141
            vertex 0.00962187 0.023233 0.145107
        endloop
    endfacet
    facet normal -0.704412 -0.173622 0.688229
        outer loop
            vertex -0.043187 -0.00603394 0.131
            vertex -0.0309318 -0.0161157 0.141
            vertex -0.034223 -0.00276277 0.141
        endloop
    endfacet
    facet normal -0.234371 0.287051 0.928801
        outer loop
            vertex -0.0114163 0.0213514 0.145042
            vertex -0.0170927 0.0297953 0.141
            vertex -0.0256998 0.0227678 0.141
        endloop
    endfacet
    facet normal -0.966954 0.254911 -0.00460182
        outer loop
            vertex -0.0396805 0.018082 0.0100001
            vertex -0.0434377 0.00382981 0.0100001
            vertex -0.0427302 0.00869794 0.131
        endloop
    endfacet
    facet normal 0.59881 0.539312 0.592089
        outer loop
            vertex 0.0247553 0.0257573 0.141
            vertex 0.036868 0.0232869 0.131
            vertex 0.0270041 0.034239 0.131
        endloop
    endfacet
    facet normal -0.139105 0.759015 0.63604
        outer loop
            vertex -0.000499468 0.0436036 0.131
            vertex -0.0113463 0.0416157 0.131
            vertex -0.00463917 0.0344651 0.141
        endloop
    endfacet
    facet normal -0.826804 0.562471 -0.00460196
        outer loop
            vertex -0.0312408 0.0304875 0.00994829
            vertex -0.0396805 0.018082 0.0100001
            vertex -0.0373917 0.0224364 0.131
        endloop
    endfacet
    facet normal -0.25114 -0.206178 0.945738
        outer loop
            vertex -0.0309318 -0.0161157 0.141
            vertex -0.0145394 -0.0177165 0.145004
            vertex -0.0232047 -0.00703766 0.145031
        endloop
    endfacet
    facet normal 0.779935 0.625854 -0.00289335
        outer loop
            vertex 0.0381333 0.0211507 0.0100001
            vertex 0.0312314 0.0297518 0.0100001
            vertex 0.036868 0.0232869 0.131
        endloop
    endfacet
    facet normal -0.000606576 -0.00268269 -0.999996
        outer loop
            vertex 0.00501838 0.034753 -1.39232e-005
            vertex 0.0204185 0.0282778 -5.89354e-006
            vertex -0.00935919 0.0330018 -5.04129e-007
        endloop
    endfacet
    facet normal -0.775972 0.204564 -0.596675
        outer loop
            vertex -0.0351972 0.00571885 -6.89889e-005
            vertex -0.0434377 0.00382981 0.0100001
            vertex -0.0396805 0.018082 0.0100001
        endloop
    endfacet
    facet normal 0.462802 -0.566809 -0.681573
        outer loop
            vertex 0.0227503 -0.0372011 0.0100001
            vertex 0.0149563 -0.0315202 -1.65285e-005
            vertex 0.0278944 -0.0209612 -1.23408e-005
        endloop
    endfacet
    facet normal 0.370037 -0.929006 -0.00457765
        outer loop
            vertex 0.00878841 -0.0427622 0.00997261
            vertex 0.0227503 -0.0372011 0.0100001
            vertex 0.0184269 -0.0395194 0.131
        endloop
    endfacet
    facet normal 0.700639 0.172677 -0.692306
        outer loop
            vertex 0.0355568 -0.00287376 -5.61294e-005
            vertex 0.0309145 0.0161362 -1.27842e-005
            vertex 0.043001 0.00723929 0.0100001
        endloop
    endfacet
    facet normal 0.000578706 0.001528 0.999999
        outer loop
            vertex -0.0232047 -0.00703766 0.145031
            vertex -0.00236686 -0.0240869 0.145045
            vertex 0.0216903 -0.00898377 0.145008
        endloop
    endfacet
    facet normal 0.751187 -0.220675 0.62211
        outer loop
            vertex 0.031636 -0.016604 0.141
            vertex 0.0391596 -0.0191846 0.131
            vertex 0.0433139 -0.00504321 0.131
        endloop
    endfacet
    facet normal -0.724043 -0.689754 -0.00114789
        outer loop
            vertex -0.036202 -0.0243088 0.0100001
            vertex -0.0260356 -0.0349806 0.0100001
            vertex -0.0320515 -0.028867 0.131
        endloop
    endfacet
    facet normal 0.289309 0.687244 -0.66633
        outer loop
            vertex 0.00501838 0.034753 -1.39232e-005
            vertex 0.0127557 0.0412051 0.0100001
            vertex 0.0204185 0.0282778 -5.89354e-006
        endloop
    endfacet
    facet normal -0.558261 -0.481081 0.675948
        outer loop
            vertex -0.0201808 -0.0285915 0.141
            vertex -0.0309318 -0.0161157 0.141
            vertex -0.0320515 -0.028867 0.131
        endloop
    endfacet
    facet normal -0.254083 0.693694 0.673967
        outer loop
            vertex -0.0217016 0.0378228 0.131
            vertex -0.0170927 0.0297953 0.141
            vertex -0.0113463 0.0416157 0.131
        endloop
    endfacet
    facet normal 0.0309703 0.377697 0.925411
        outer loop
            vertex 0.00962187 0.023233 0.145107
            vertex 0.00875144 0.0333671 0.141
            vertex -0.00463917 0.0344651 0.141
        endloop
    endfacet
    facet normal -0.227232 0.720512 -0.655155
        outer loop
            vertex -0.0197606 0.0388149 0.0100001
            vertex -0.00908444 0.0421819 0.0100001
            vertex -0.00935919 0.0330018 -5.04129e-007
        endloop
    endfacet
    facet normal 0.000115369 0.000148454 -1
        outer loop
            vertex -0.0153085 -0.0322625 -1.90028e-005
            vertex 0.0204185 0.0282778 -5.89354e-006
            vertex 0.0278944 -0.0209612 -1.23408e-005
        endloop
    endfacet
    facet normal 0.941861 -0.33599 -0.00289273
        outer loop
            vertex 0.0380042 -0.0213817 0.0100001
            vertex 0.0429564 -0.00749951 0.0100001
            vertex 0.0391596 -0.0191846 0.131
        endloop
    endfacet
    facet normal 0.800526 0.043193 0.59774
        outer loop
            vertex 0.0352657 0.00573141 0.141
            vertex 0.0433139 -0.00504321 0.131
            vertex 0.0425198 0.00967436 0.131
        endloop
    endfacet
    facet normal 0.00276108 0.00295438 -0.999992
        outer loop
            vertex 0.0355568 -0.00287376 -5.61294e-005
            vertex 0.0204185 0.0282778 -5.89354e-006
            vertex 0.0309145 0.0161362 -1.27842e-005
        endloop
    endfacet
    facet normal 0.496871 -0.517307 0.696787
        outer loop
            vertex 0.031636 -0.016604 0.141
            vertex 0.01946 -0.028299 0.141
            vertex 0.0305317 -0.0311342 0.131
        endloop
    endfacet
    facet normal -0.295176 0.186655 0.937033
        outer loop
            vertex -0.0331077 0.011053 0.141
            vertex -0.021687 0.00898297 0.14501
            vertex -0.0256998 0.0227678 0.141
        endloop
    endfacet
    facet normal -0.637089 0.770782 0.0034977
        outer loop
            vertex -0.0312408 0.0304875 0.00994829
            vertex -0.0302014 0.0307973 0.131
            vertex -0.0217016 0.0378228 0.131
        endloop
    endfacet
    facet normal -0.0045475 0.00681674 -0.999966
        outer loop
            vertex -0.0351972 0.00571885 -6.89889e-005
            vertex -0.0274464 0.0206249 -2.62271e-006
            vertex -0.00935919 0.0330018 -5.04129e-007
        endloop
    endfacet
    facet normal 0.943882 0.330271 -0.00289287
        outer loop
            vertex 0.0381333 0.0211507 0.0100001
            vertex 0.0425198 0.00967436 0.131
            vertex 0.043001 0.00723929 0.0100001
        endloop
    endfacet
    facet normal -0.0911712 0.734048 -0.67295
        outer loop
            vertex 0.00199655 0.0435582 0.0100001
            vertex 0.00501838 0.034753 -1.39232e-005
            vertex -0.00908444 0.0421819 0.0100001
        endloop
    endfacet
    facet normal -0.637215 0.334428 -0.694345
        outer loop
            vertex -0.0351972 0.00571885 -6.89889e-005
            vertex -0.0396805 0.018082 0.0100001
            vertex -0.0274464 0.0206249 -2.62271e-006
        endloop
    endfacet
    facet normal -0.123256 0.992371 -0.0029149
        outer loop
            vertex -0.000499468 0.0436036 0.131
            vertex 0.00199655 0.0435582 0.0100001
            vertex -0.00908444 0.0421819 0.0100001
        endloop
    endfacet
    facet normal -0.0030874 -2.4076e-005 0.999995
        outer loop
            vertex 0.00962187 0.023233 0.145107
            vertex -0.0114163 0.0213514 0.145042
            vertex -0.021687 0.00898297 0.14501
        endloop
    endfacet
    facet normal 0.662939 0.748659 -0.00460285
        outer loop
            vertex 0.0270041 0.034239 0.131
            vertex 0.0312314 0.0297518 0.0100001
            vertex 0.0229754 0.0370625 0.0100001
        endloop
    endfacet
    facet normal 0.375661 0.926746 -0.00460293
        outer loop
            vertex 0.014055 0.0412794 0.131
            vertex 0.0229754 0.0370625 0.0100001
            vertex 0.0127557 0.0412051 0.0100001
        endloop
    endfacet
    facet normal -0.0901405 0.734915 -0.672142
        outer loop
            vertex 0.00501838 0.034753 -1.39232e-005
            vertex -0.00935919 0.0330018 -5.04129e-007
            vertex -0.00908444 0.0421819 0.0100001
        endloop
    endfacet
    facet normal -0.49501 0.515365 -0.699545
        outer loop
            vertex -0.0312408 0.0304875 0.00994829
            vertex -0.0191082 0.0286303 -5.18183e-006
            vertex -0.0274464 0.0206249 -2.62271e-006
        endloop
    endfacet
    facet normal 0.277894 0.685558 -0.672893
        outer loop
            vertex 0.0229754 0.0370625 0.0100001
            vertex 0.0204185 0.0282778 -5.89354e-006
            vertex 0.0127557 0.0412051 0.0100001
        endloop
    endfacet
    facet normal 0.998543 0.0538772 0.00288681
        outer loop
            vertex 0.043001 0.00723929 0.0100001
            vertex 0.0425198 0.00967436 0.131
            vertex 0.0433139 -0.00504321 0.131
        endloop
    endfacet
    facet normal 0.999991 -0.00302594 -0.00289307
        outer loop
            vertex 0.0429564 -0.00749951 0.0100001
            vertex 0.043001 0.00723929 0.0100001
            vertex 0.0433139 -0.00504321 0.131
        endloop
    endfacet
    facet normal 0.668514 -0.284867 -0.686979
        outer loop
            vertex 0.0355568 -0.00287376 -5.61294e-005
            vertex 0.0380042 -0.0213817 0.0100001
            vertex 0.0278944 -0.0209612 -1.23408e-005
        endloop
    endfacet
    facet normal -0.192956 -0.727193 0.658756
        outer loop
            vertex -0.00346012 -0.0434242 0.131198
            vertex -0.0068677 -0.0336405 0.141
            vertex -0.0139027 -0.0408327 0.131
        endloop
    endfacet
    facet normal 0.306064 -0.648963 0.696543
        outer loop
            vertex 0.0184269 -0.0395194 0.131
            vertex 0.01946 -0.028299 0.141
            vertex 0.00695333 -0.0341974 0.141
        endloop
    endfacet
    facet normal -0.0864094 -0.712069 -0.696772
        outer loop
            vertex -0.0153085 -0.0322625 -1.90028e-005
            vertex 0.00138263 -0.0343049 -1.69968e-006
            vertex -0.00566924 -0.0432361 0.0100001
        endloop
    endfacet
    facet normal -0.932092 0.362193 0.00459702
        outer loop
            vertex -0.0396805 0.018082 0.0100001
            vertex -0.0427302 0.00869794 0.131
            vertex -0.0373917 0.0224364 0.131
        endloop
    endfacet
    facet normal -0.548327 -0.522359 -0.653053
        outer loop
            vertex -0.0316042 -0.0165887 -3.54734e-005
            vertex -0.0260356 -0.0349806 0.0100001
            vertex -0.036202 -0.0243088 0.0100001
        endloop
    endfacet
    facet normal 0.558322 0.483034 -0.674503
        outer loop
            vertex 0.0309145 0.0161362 -1.27842e-005
            vertex 0.0204185 0.0282778 -5.89354e-006
            vertex 0.0312314 0.0297518 0.0100001
        endloop
    endfacet
    facet normal 0.77613 -0.630567 -0.00289234
        outer loop
            vertex 0.0380042 -0.0213817 0.0100001
            vertex 0.0305317 -0.0311342 0.131
            vertex 0.0310506 -0.0299405 0.0100001
        endloop
    endfacet
    facet normal 0.00116925 -0.00153753 -0.999998
        outer loop
            vertex -0.0191082 0.0286303 -5.18183e-006
            vertex -0.00935919 0.0330018 -5.04129e-007
            vertex -0.0274464 0.0206249 -2.62271e-006
        endloop
    endfacet
    facet normal -0.466993 0.57196 0.674373
        outer loop
            vertex -0.0217016 0.0378228 0.131
            vertex -0.0256998 0.0227678 0.141
            vertex -0.0170927 0.0297953 0.141
        endloop
    endfacet
    facet normal 0.718495 -0.256309 -0.646584
        outer loop
            vertex 0.0355568 -0.00287376 -5.61294e-005
            vertex 0.0429564 -0.00749951 0.0100001
            vertex 0.0380042 -0.0213817 0.0100001
        endloop
    endfacet
    facet normal -6.45279e-005 0.000734106 -1
        outer loop
            vertex -0.0316042 -0.0165887 -3.54734e-005
            vertex -0.00935919 0.0330018 -5.04129e-007
            vertex 0.0204185 0.0282778 -5.89354e-006
        endloop
    endfacet
    facet normal -0.604626 -0.457976 0.651679
        outer loop
            vertex -0.0387099 -0.0200765 0.131
            vertex -0.0320515 -0.028867 0.131
            vertex -0.0309318 -0.0161157 0.141
        endloop
    endfacet
    facet normal 0.743057 0.669227 0.0011419
        outer loop
            vertex 0.0270041 0.034239 0.131
            vertex 0.036868 0.0232869 0.131
            vertex 0.0312314 0.0297518 0.0100001
        endloop
    endfacet
    facet normal 0.713755 0.296345 0.634612
        outer loop
            vertex 0.0352657 0.00573141 0.141
            vertex 0.0425198 0.00967436 0.131
            vertex 0.036868 0.0232869 0.131
        endloop
    endfacet
    facet normal 0.328873 0.172606 0.928466
        outer loop
            vertex 0.0247553 0.0257573 0.141
            vertex 0.0231886 0.00703235 0.145036
            vertex 0.0352657 0.00573141 0.141
        endloop
    endfacet
    facet normal -0.624757 0.422291 -0.656771
        outer loop
            vertex -0.0312408 0.0304875 0.00994829
            vertex -0.0274464 0.0206249 -2.62271e-006
            vertex -0.0396805 0.018082 0.0100001
        endloop
    endfacet
    facet normal -0.180268 0.983617 0.00123295
        outer loop
            vertex -0.000499468 0.0436036 0.131
            vertex -0.00908444 0.0421819 0.0100001
            vertex -0.0113463 0.0416157 0.131
        endloop
    endfacet
    facet normal 0.0327566 -0.999461 -0.00214825
        outer loop
            vertex 0.00878841 -0.0427622 0.00997261
            vertex -0.00346012 -0.0434242 0.131198
            vertex -0.00566924 -0.0432361 0.0100001
        endloop
    endfacet
    facet normal -0.334202 0.026979 0.942115
        outer loop
            vertex -0.0331077 0.011053 0.141
            vertex -0.034223 -0.00276277 0.141
            vertex -0.0232047 -0.00703766 0.145031
        endloop
    endfacet
    facet normal -0.295525 0.659798 -0.690892
        outer loop
            vertex -0.0197606 0.0388149 0.0100001
            vertex -0.00935919 0.0330018 -5.04129e-007
            vertex -0.0191082 0.0286303 -5.18183e-006
        endloop
    endfacet
    facet normal 0.228146 0.186866 0.955526
        outer loop
            vertex 0.0247553 0.0257573 0.141
            vertex 0.00962187 0.023233 0.145107
            vertex 0.0231886 0.00703235 0.145036
        endloop
    endfacet
    facet normal -0.260323 0.694235 0.671021
        outer loop
            vertex -0.00463917 0.0344651 0.141
            vertex -0.0113463 0.0416157 0.131
            vertex -0.0170927 0.0297953 0.141
        endloop
    endfacet
    facet normal 0.157691 0.987484 0.00288238
        outer loop
            vertex 0.014055 0.0412794 0.131
            vertex 0.00199655 0.0435582 0.0100001
            vertex -0.000499468 0.0436036 0.131
        endloop
    endfacet
    facet normal 0.923556 0.383452 0.002888
        outer loop
            vertex 0.0381333 0.0211507 0.0100001
            vertex 0.036868 0.0232869 0.131
            vertex 0.0425198 0.00967436 0.131
        endloop
    endfacet
    facet normal -0.132723 0.353948 0.9258
        outer loop
            vertex -0.00463917 0.0344651 0.141
            vertex -0.0170927 0.0297953 0.141
            vertex -0.0114163 0.0213514 0.145042
        endloop
    endfacet
    facet normal 0.510953 0.577022 -0.63716
        outer loop
            vertex 0.0229754 0.0370625 0.0100001
            vertex 0.0312314 0.0297518 0.0100001
            vertex 0.0204185 0.0282778 -5.89354e-006
        endloop
    endfacet
    facet normal -0.723731 0.281228 0.630179
        outer loop
            vertex -0.0373917 0.0224364 0.131
            vertex -0.0427302 0.00869794 0.131
            vertex -0.0331077 0.011053 0.141
        endloop
    endfacet
    facet normal 0.167285 0.764882 -0.622071
        outer loop
            vertex 0.00199655 0.0435582 0.0100001
            vertex 0.0127557 0.0412051 0.0100001
            vertex 0.00501838 0.034753 -1.39232e-005
        endloop
    endfacet
    facet normal 0.603057 -0.489954 -0.629498
        outer loop
            vertex 0.0380042 -0.0213817 0.0100001
            vertex 0.0310506 -0.0299405 0.0100001
            vertex 0.0278944 -0.0209612 -1.23408e-005
        endloop
    endfacet
    facet normal 0.313796 -0.0310145 0.948984
        outer loop
            vertex 0.0352657 0.00573141 0.141
            vertex 0.0231886 0.00703235 0.145036
            vertex 0.0216903 -0.00898377 0.145008
        endloop
    endfacet
    facet normal -0.75818 0.652028 0.00484135
        outer loop
            vertex -0.0312408 0.0304875 0.00994829
            vertex -0.0373917 0.0224364 0.131
            vertex -0.0302014 0.0307973 0.131
        endloop
    endfacet
    facet normal -0.7262 0.0586236 0.684979
        outer loop
            vertex -0.0427302 0.00869794 0.131
            vertex -0.034223 -0.00276277 0.141
            vertex -0.0331077 0.011053 0.141
        endloop
    endfacet
    facet normal -0.00443446 -0.000542342 -0.99999
        outer loop
            vertex 0.0355568 -0.00287376 -5.61294e-005
            vertex 0.0278944 -0.0209612 -1.23408e-005
            vertex 0.0204185 0.0282778 -5.89354e-006
        endloop
    endfacet
    facet normal 0.31253 0.657268 0.685802
        outer loop
            vertex 0.0247553 0.0257573 0.141
            vertex 0.014055 0.0412794 0.131
            vertex 0.00875144 0.0333671 0.141
        endloop
    endfacet
    facet normal 0.00362111 -0.000919179 -0.999993
        outer loop
            vertex -0.0351972 0.00571885 -6.89889e-005
            vertex -0.00935919 0.0330018 -5.04129e-007
            vertex -0.0316042 -0.0165887 -3.54734e-005
        endloop
    endfacet
endsolid D:/Users/Paul Maroldt/Documents/!StartUp_Repositories/modrob-gen2/ModuleLibrary/L141-I-80-80/L141-I-80-80_convdec.stl_created_by_BoundingMesh