solid D:/Users/Paul Maroldt/Documents/!StartUp_Repositories/module_type_database/L116-650_convdec.stl_created_by_BoundingMesh
    facet normal -0.729993 -0.374646 0.571621
        outer loop
            vertex -0.0192063 -0.036768 0.0855393
            vertex -0.0293012 -0.0106819 0.0897446
            vertex -0.0396043 -0.0270058 0.0658881
        endloop
    endfacet
    facet normal -0.712131 -0.699079 0.0644847
        outer loop
            vertex -0.0297996 -0.0520738 0.0372182
            vertex -0.0457174 -0.0360773 0.0348495
            vertex -0.049327 -0.034698 0.00994017
        endloop
    endfacet
    facet normal 0.563496 0.826119 0
        outer loop
            vertex 0.65 0.0511267 0.0779162
            vertex 0.64 0.0579477 0.0586281
            vertex 0.64 0.0579477 0.0779362
        endloop
    endfacet
    facet normal -0.576721 0.814778 0.0594107
        outer loop
            vertex -0.0409739 0.0424567 0.0365887
            vertex -0.0226604 0.0548677 0.0441559
            vertex -0.032641 0.0502937 0.01
        endloop
    endfacet
    facet normal -0.0156178 -0.00173046 -0.999877
        outer loop
            vertex -0.045941 0.0240253 -0.000340009
            vertex -0.0124294 0.0463945 -0.000902164
            vertex -0.00408509 -0.0459949 -0.000872604
        endloop
    endfacet
    facet normal -0.00568582 -0.204711 0.978806
        outer loop
            vertex 0.64 -0.0129488 0.128078
            vertex 0.0482304 -4.58988e-005 0.127339
            vertex 0.045717 -0.0239501 0.122325
        endloop
    endfacet
    facet normal 0.03747 0.449891 -0.892297
        outer loop
            vertex -0.0124294 0.0463945 -0.000902164
            vertex 0.64 0.0349611 0.0207305
            vertex 0.64 0.0152675 0.0108011
        endloop
    endfacet
    facet normal -0.69724 -0.239572 -0.67562
        outer loop
            vertex -0.049327 -0.034698 0.00994017
            vertex -0.0582092 -0.00868384 0.00988207
            vertex -0.0461956 -0.0154172 -0.000128339
        endloop
    endfacet
    facet normal -0.894499 -0.19009 0.404645
        outer loop
            vertex -0.0532591 -0.00121117 0.05148
            vertex -0.0521468 -0.0181778 0.0459684
            vertex -0.0418724 -0.00944242 0.0727844
        endloop
    endfacet
    facet normal 0.978476 0.123554 -0.165284
        outer loop
            vertex 0.65 0.00833677 0.0163526
            vertex 0.65 0.040192 0.0401652
            vertex 0.655239 0.00934262 0.0481192
        endloop
    endfacet
    facet normal -0.707433 -0.524484 0.473768
        outer loop
            vertex -0.0192063 -0.036768 0.0855393
            vertex -0.0396043 -0.0270058 0.0658881
            vertex -0.0309888 -0.0435948 0.060388
        endloop
    endfacet
    facet normal 0.00123168 -0.999851 -0.0172391
        outer loop
            vertex -0.0195243 -0.0580491 0.00901352
            vertex 0.64 -0.0579477 0.0502534
            vertex -0.00393085 -0.0590119 0.0659689
        endloop
    endfacet
    facet normal -0.44177 -0.670146 0.596442
        outer loop
            vertex -0.0192063 -0.036768 0.0855393
            vertex -0.0115546 -0.0464856 0.0802883
            vertex 0.00833736 -0.0493671 0.0917842
        endloop
    endfacet
    facet normal 0.0351211 -0.827995 -0.559635
        outer loop
            vertex -0.0195243 -0.0580491 0.00901352
            vertex 0.64 -0.0365449 0.0185874
            vertex 0.64 -0.0579477 0.0502534
        endloop
    endfacet
    facet normal -0.565592 -0.68968 0.452159
        outer loop
            vertex -0.0192063 -0.036768 0.0855393
            vertex -0.0309888 -0.0435948 0.060388
            vertex -0.0115546 -0.0464856 0.0802883
        endloop
    endfacet
    facet normal -0.220747 -0.777042 0.589472
        outer loop
            vertex 0.0310664 -0.0423392 0.10956
            vertex 0.00833736 -0.0493671 0.0917842
            vertex 0.0226027 -0.0560617 0.0883015
        endloop
    endfacet
    facet normal -0.747843 0.662727 -0.0390358
        outer loop
            vertex -0.0583792 0.0212546 0.0100804
            vertex -0.0409739 0.0424567 0.0365887
            vertex -0.032641 0.0502937 0.01
        endloop
    endfacet
    facet normal 0.546761 0.497933 0.673138
        outer loop
            vertex 0.65 0.0212775 0.116217
            vertex 0.64 0.0487265 0.104035
            vertex 0.64 0.0223273 0.123563
        endloop
    endfacet
    facet normal 0.000145656 0.590655 0.806924
        outer loop
            vertex 0.0335397 0.0430675 0.108491
            vertex 0.0418842 0.023177 0.123049
            vertex 0.64 0.0223273 0.123563
        endloop
    endfacet
    facet normal 0.676177 -0.73674 0
        outer loop
            vertex 0.650361 -0.0484384 0.0863894
            vertex 0.64 -0.0579477 0.0857456
            vertex 0.64 -0.0579477 0.0502534
        endloop
    endfacet
    facet normal 0.00165266 -0.999999 0
        outer loop
            vertex 0.64 -0.0579477 0.0857456
            vertex -0.00393085 -0.0590119 0.0659689
            vertex 0.64 -0.0579477 0.0502534
        endloop
    endfacet
    facet normal 0.977336 -0.209201 -0.0324055
        outer loop
            vertex 0.650361 -0.0484384 0.0863894
            vertex 0.65 -0.0445613 0.0504715
            vertex 0.656484 -0.0162271 0.0631093
        endloop
    endfacet
    facet normal -0.336489 -0.938594 0.0762589
        outer loop
            vertex -0.0195243 -0.0580491 0.00901352
            vertex -0.00393085 -0.0590119 0.0659689
            vertex -0.0297996 -0.0520738 0.0372182
        endloop
    endfacet
    facet normal 0.032381 -0.658281 -0.752076
        outer loop
            vertex -0.0195243 -0.0580491 0.00901352
            vertex -0.00408509 -0.0459949 -0.000872604
            vertex 0.64 -0.0365449 0.0185874
        endloop
    endfacet
    facet normal -0.9408 -0.321464 -0.1075
        outer loop
            vertex -0.049327 -0.034698 0.00994017
            vertex -0.0560223 -0.0206157 0.0264237
            vertex -0.0582092 -0.00868384 0.00988207
        endloop
    endfacet
    facet normal 0.628357 0.350228 -0.694628
        outer loop
            vertex 0.65 0.00833677 0.0163526
            vertex 0.64 0.0152675 0.0108011
            vertex 0.64 0.0349611 0.0207305
        endloop
    endfacet
    facet normal 0.99899 0.0443228 -0.00736772
        outer loop
            vertex 0.656484 -0.0162271 0.0631093
            vertex 0.655239 0.00934262 0.0481192
            vertex 0.654742 0.025969 0.0807543
        endloop
    endfacet
    facet normal -0.645527 0.594054 0.479995
        outer loop
            vertex -0.0302202 0.0466124 0.0560074
            vertex -0.0403596 0.0302595 0.0626101
            vertex -0.0230887 0.0312021 0.0846705
        endloop
    endfacet
    facet normal -0.950177 0.245169 0.192497
        outer loop
            vertex -0.0583792 0.0212546 0.0100804
            vertex -0.0575925 0.00664691 0.0325683
            vertex -0.0554265 0.0235094 0.0217833
        endloop
    endfacet
    facet normal -0.442156 0.406528 0.799521
        outer loop
            vertex 0.0142915 0.0316836 0.110749
            vertex -0.00501763 0.0327939 0.099506
            vertex 0.00931239 0.0164818 0.115725
        endloop
    endfacet
    facet normal -0.659836 -0.00122433 0.751409
        outer loop
            vertex -0.0293012 -0.0106819 0.0897446
            vertex -0.00871109 -0.00357767 0.107837
            vertex -0.0164176 0.0125804 0.101096
        endloop
    endfacet
    facet normal -0.211321 -0.357504 0.909689
        outer loop
            vertex 0.0226155 -0.0298395 0.114644
            vertex 0.045717 -0.0239501 0.122325
            vertex 0.0268524 -0.0135066 0.122047
        endloop
    endfacet
    facet normal 0.766056 0.617396 -0.178831
        outer loop
            vertex 0.65 0.0511267 0.0779162
            vertex 0.65 0.040192 0.0401652
            vertex 0.64 0.0579477 0.0586281
        endloop
    endfacet
    facet normal -0.00396518 0.845451 0.534038
        outer loop
            vertex 0.0335397 0.0430675 0.108491
            vertex 0.64 0.0487265 0.104035
            vertex 0.0218952 0.0542353 0.0907245
        endloop
    endfacet
    facet normal -0.286259 -0.844982 0.451731
        outer loop
            vertex 0.0226027 -0.0560617 0.0883015
            vertex 0.00833736 -0.0493671 0.0917842
            vertex -0.00393085 -0.0590119 0.0659689
        endloop
    endfacet
    facet normal 0.997131 0.00977598 0.0750637
        outer loop
            vertex 0.652981 -0.0185632 0.109947
            vertex 0.656484 -0.0162271 0.0631093
            vertex 0.654742 0.025969 0.0807543
        endloop
    endfacet
    facet normal 0.746317 -0.551446 -0.372718
        outer loop
            vertex 0.64 -0.0365449 0.0185874
            vertex 0.65 -0.0445613 0.0504715
            vertex 0.64 -0.0579477 0.0502534
        endloop
    endfacet
    facet normal 0.977977 -0.169456 -0.121844
        outer loop
            vertex 0.656484 -0.0162271 0.0631093
            vertex 0.65 -0.0445613 0.0504715
            vertex 0.65 -0.028989 0.0288142
        endloop
    endfacet
    facet normal 0.807932 -0.0321482 0.588399
        outer loop
            vertex 0.652981 -0.0185632 0.109947
            vertex 0.65 0.0212775 0.116217
            vertex 0.64 -0.0129488 0.128078
        endloop
    endfacet
    facet normal 0.740101 -0.196918 -0.643019
        outer loop
            vertex 0.65 0.00833677 0.0163526
            vertex 0.64 -0.0365449 0.0185874
            vertex 0.64 -0.00696498 0.00952884
        endloop
    endfacet
    facet normal -0.228656 0.701636 -0.67485
        outer loop
            vertex -0.0124294 0.0463945 -0.000902164
            vertex -0.032641 0.0502937 0.01
            vertex -0.00802492 0.0580206 0.00969305
        endloop
    endfacet
    facet normal -0.339442 0.488319 -0.803943
        outer loop
            vertex -0.045941 0.0240253 -0.000340009
            vertex -0.032641 0.0502937 0.01
            vertex -0.0124294 0.0463945 -0.000902164
        endloop
    endfacet
    facet normal -0.502835 0.345899 0.792156
        outer loop
            vertex -0.0164176 0.0125804 0.101096
            vertex 0.00931239 0.0164818 0.115725
            vertex -0.00501763 0.0327939 0.099506
        endloop
    endfacet
    facet normal 0.00152943 0.126955 0.991907
        outer loop
            vertex 0.64 -0.0129488 0.128078
            vertex 0.64 0.0223273 0.123563
            vertex 0.0482304 -4.58988e-005 0.127339
        endloop
    endfacet
    facet normal -0.852119 0.465855 0.23848
        outer loop
            vertex -0.0497753 0.0170996 0.0546736
            vertex -0.0403596 0.0302595 0.0626101
            vertex -0.0409739 0.0424567 0.0365887
        endloop
    endfacet
    facet normal -0.978146 -0.0977026 0.183534
        outer loop
            vertex -0.0532591 -0.00121117 0.05148
            vertex -0.0575925 0.00664691 0.0325683
            vertex -0.0560223 -0.0206157 0.0264237
        endloop
    endfacet
    facet normal -0.518116 -0.811456 0.27036
        outer loop
            vertex -0.0297996 -0.0520738 0.0372182
            vertex -0.00393085 -0.0590119 0.0659689
            vertex -0.0309888 -0.0435948 0.060388
        endloop
    endfacet
    facet normal -0.464633 -0.349427 -0.813644
        outer loop
            vertex -0.049327 -0.034698 0.00994017
            vertex -0.0461956 -0.0154172 -0.000128339
            vertex -0.0277284 -0.0401605 -4.78159e-005
        endloop
    endfacet
    facet normal -0.821792 0.293415 0.488432
        outer loop
            vertex -0.0497753 0.0170996 0.0546736
            vertex -0.0406704 0.0130455 0.0724281
            vertex -0.0403596 0.0302595 0.0626101
        endloop
    endfacet
    facet normal -0.798539 -0.51696 0.308363
        outer loop
            vertex -0.0309888 -0.0435948 0.060388
            vertex -0.0396043 -0.0270058 0.0658881
            vertex -0.0457174 -0.0360773 0.0348495
        endloop
    endfacet
    facet normal 0.0235785 0.950175 -0.310824
        outer loop
            vertex 0.64 0.051038 0.0375055
            vertex -0.00802492 0.0580206 0.00969305
            vertex 0.64 0.0579477 0.0586281
        endloop
    endfacet
    facet normal -0.474689 0.834852 0.278733
        outer loop
            vertex -0.0302202 0.0466124 0.0560074
            vertex -0.00128677 0.0585369 0.0695658
            vertex -0.0226604 0.0548677 0.0441559
        endloop
    endfacet
    facet normal -0.312679 0.80386 0.506005
        outer loop
            vertex -0.0116899 0.0486146 0.0789003
            vertex 0.0218952 0.0542353 0.0907245
            vertex -0.00128677 0.0585369 0.0695658
        endloop
    endfacet
    facet normal -0.999498 -0.00588178 0.031145
        outer loop
            vertex -0.0583792 0.0212546 0.0100804
            vertex -0.0582092 -0.00868384 0.00988207
            vertex -0.0575925 0.00664691 0.0325683
        endloop
    endfacet
    facet normal 0.02063 0.0571197 -0.998154
        outer loop
            vertex -0.0124294 0.0463945 -0.000902164
            vertex 0.64 0.0152675 0.0108011
            vertex 0.64 -0.00696498 0.00952884
        endloop
    endfacet
    facet normal -0.608587 0.537793 -0.583438
        outer loop
            vertex -0.0583792 0.0212546 0.0100804
            vertex -0.032641 0.0502937 0.01
            vertex -0.045941 0.0240253 -0.000340009
        endloop
    endfacet
    facet normal -0.00280572 -0.00534834 -0.999982
        outer loop
            vertex -0.045941 0.0240253 -0.000340009
            vertex -0.0277284 -0.0401605 -4.78159e-005
            vertex -0.0461956 -0.0154172 -0.000128339
        endloop
    endfacet
    facet normal -0.640146 9.27946e-006 -0.768253
        outer loop
            vertex -0.045941 0.0240253 -0.000340009
            vertex -0.0461956 -0.0154172 -0.000128339
            vertex -0.0582092 -0.00868384 0.00988207
        endloop
    endfacet
    facet normal -0.94293 0.256744 0.212049
        outer loop
            vertex -0.0497753 0.0170996 0.0546736
            vertex -0.0554265 0.0235094 0.0217833
            vertex -0.0575925 0.00664691 0.0325683
        endloop
    endfacet
    facet normal -0.485841 0.812495 0.322197
        outer loop
            vertex -0.0302202 0.0466124 0.0560074
            vertex -0.0116899 0.0486146 0.0789003
            vertex -0.00128677 0.0585369 0.0695658
        endloop
    endfacet
    facet normal 0.770954 -0.517096 -0.371809
        outer loop
            vertex 0.64 -0.0365449 0.0185874
            vertex 0.65 -0.028989 0.0288142
            vertex 0.65 -0.0445613 0.0504715
        endloop
    endfacet
    facet normal 0.987968 -0.139424 0.0669368
        outer loop
            vertex 0.652981 -0.0185632 0.109947
            vertex 0.650361 -0.0484384 0.0863894
            vertex 0.656484 -0.0162271 0.0631093
        endloop
    endfacet
    facet normal -0.276539 0.379565 0.882868
        outer loop
            vertex 0.0418842 0.023177 0.123049
            vertex 0.0142915 0.0316836 0.110749
            vertex 0.00931239 0.0164818 0.115725
        endloop
    endfacet
    facet normal -0.260878 0.248797 0.932761
        outer loop
            vertex 0.0270886 0.00489608 0.123787
            vertex 0.0418842 0.023177 0.123049
            vertex 0.00931239 0.0164818 0.115725
        endloop
    endfacet
    facet normal -0.381407 0.588198 0.713129
        outer loop
            vertex 0.0142915 0.0316836 0.110749
            vertex 0.0106878 0.0456355 0.0973139
            vertex -0.00501763 0.0327939 0.099506
        endloop
    endfacet
    facet normal -0.217066 0.756028 0.617498
        outer loop
            vertex 0.0335397 0.0430675 0.108491
            vertex 0.0218952 0.0542353 0.0907245
            vertex 0.0106878 0.0456355 0.0973139
        endloop
    endfacet
    facet normal -0.504322 0.11904 0.855271
        outer loop
            vertex 0.00550048 -0.00675178 0.116711
            vertex 0.00931239 0.0164818 0.115725
            vertex -0.0164176 0.0125804 0.101096
        endloop
    endfacet
    facet normal -0.438554 -0.652362 0.618138
        outer loop
            vertex -0.0192063 -0.036768 0.0855393
            vertex 0.00833736 -0.0493671 0.0917842
            vertex 0.00645178 -0.0363957 0.104136
        endloop
    endfacet
    facet normal -0.000431147 -0.570007 0.82164
        outer loop
            vertex 0.0310664 -0.0423392 0.10956
            vertex 0.64 -0.0410167 0.110797
            vertex 0.045717 -0.0239501 0.122325
        endloop
    endfacet
    facet normal -0.96916 -0.131284 0.20855
        outer loop
            vertex -0.0532591 -0.00121117 0.05148
            vertex -0.0560223 -0.0206157 0.0264237
            vertex -0.0521468 -0.0181778 0.0459684
        endloop
    endfacet
    facet normal -0.616826 -0.784928 -0.058426
        outer loop
            vertex -0.0195243 -0.0580491 0.00901352
            vertex -0.0297996 -0.0520738 0.0372182
            vertex -0.049327 -0.034698 0.00994017
        endloop
    endfacet
    facet normal -0.460208 -0.56002 -0.688902
        outer loop
            vertex -0.0195243 -0.0580491 0.00901352
            vertex -0.049327 -0.034698 0.00994017
            vertex -0.0277284 -0.0401605 -4.78159e-005
        endloop
    endfacet
    facet normal 0.967347 0.199913 0.1558
        outer loop
            vertex 0.65 0.0212775 0.116217
            vertex 0.654742 0.025969 0.0807543
            vertex 0.65 0.0511267 0.0779162
        endloop
    endfacet
    facet normal 0.0160785 0.00113225 -0.99987
        outer loop
            vertex -0.0124294 0.0463945 -0.000902164
            vertex 0.64 -0.00696498 0.00952884
            vertex -0.00408509 -0.0459949 -0.000872604
        endloop
    endfacet
    facet normal -0.827954 0.551316 0.102675
        outer loop
            vertex -0.0583792 0.0212546 0.0100804
            vertex -0.0554265 0.0235094 0.0217833
            vertex -0.0409739 0.0424567 0.0365887
        endloop
    endfacet
    facet normal -0.524799 -0.433212 0.732744
        outer loop
            vertex -0.0192063 -0.036768 0.0855393
            vertex 0.00645178 -0.0363957 0.104136
            vertex -0.0200613 -0.0219947 0.0936612
        endloop
    endfacet
    facet normal -0.185468 -0.0901388 0.978507
        outer loop
            vertex 0.0270886 0.00489608 0.123787
            vertex 0.0268524 -0.0135066 0.122047
            vertex 0.0482304 -4.58988e-005 0.127339
        endloop
    endfacet
    facet normal 0.775927 -0.431153 0.460483
        outer loop
            vertex 0.652981 -0.0185632 0.109947
            vertex 0.64 -0.0410167 0.110797
            vertex 0.650361 -0.0484384 0.0863894
        endloop
    endfacet
    facet normal -0.515122 -0.762039 0.39236
        outer loop
            vertex -0.0309888 -0.0435948 0.060388
            vertex -0.00393085 -0.0590119 0.0659689
            vertex -0.0115546 -0.0464856 0.0802883
        endloop
    endfacet
    facet normal -0.852842 0.465188 0.237193
        outer loop
            vertex -0.0497753 0.0170996 0.0546736
            vertex -0.0409739 0.0424567 0.0365887
            vertex -0.0554265 0.0235094 0.0217833
        endloop
    endfacet
    facet normal 0.0363806 0.665568 -0.74545
        outer loop
            vertex -0.0124294 0.0463945 -0.000902164
            vertex -0.00802492 0.0580206 0.00969305
            vertex 0.64 0.0349611 0.0207305
        endloop
    endfacet
    facet normal 0.985842 -0.0464515 -0.161116
        outer loop
            vertex 0.65 0.00833677 0.0163526
            vertex 0.655239 0.00934262 0.0481192
            vertex 0.656484 -0.0162271 0.0631093
        endloop
    endfacet
    facet normal -0.642378 0.00142937 -0.766387
        outer loop
            vertex -0.0583792 0.0212546 0.0100804
            vertex -0.045941 0.0240253 -0.000340009
            vertex -0.0582092 -0.00868384 0.00988207
        endloop
    endfacet
    facet normal 0.0331671 -0.292656 -0.955642
        outer loop
            vertex 0.64 -0.0365449 0.0185874
            vertex -0.00408509 -0.0459949 -0.000872604
            vertex 0.64 -0.00696498 0.00952884
        endloop
    endfacet
    facet normal 0.000357836 0.594697 0.80395
        outer loop
            vertex 0.0335397 0.0430675 0.108491
            vertex 0.64 0.0223273 0.123563
            vertex 0.64 0.0487265 0.104035
        endloop
    endfacet
    facet normal -0.593259 0.437582 0.675696
        outer loop
            vertex -0.00501763 0.0327939 0.099506
            vertex -0.0230887 0.0312021 0.0846705
            vertex -0.0227528 0.019553 0.0925094
        endloop
    endfacet
    facet normal 0.770651 -0.201805 -0.604459
        outer loop
            vertex 0.65 0.00833677 0.0163526
            vertex 0.65 -0.028989 0.0288142
            vertex 0.64 -0.0365449 0.0185874
        endloop
    endfacet
    facet normal -0.863705 -0.276892 0.421122
        outer loop
            vertex -0.0521468 -0.0181778 0.0459684
            vertex -0.0396043 -0.0270058 0.0658881
            vertex -0.0418724 -0.00944242 0.0727844
        endloop
    endfacet
    facet normal -0.676447 0.0153327 0.736332
        outer loop
            vertex -0.0293012 -0.0106819 0.0897446
            vertex -0.0164176 0.0125804 0.101096
            vertex -0.0298501 0.00280041 0.0889596
        endloop
    endfacet
    facet normal -0.754315 0.335481 0.564324
        outer loop
            vertex -0.0403596 0.0302595 0.0626101
            vertex -0.0406704 0.0130455 0.0724281
            vertex -0.0227528 0.019553 0.0925094
        endloop
    endfacet
    facet normal -0.598937 -0.222904 0.769148
        outer loop
            vertex -0.0293012 -0.0106819 0.0897446
            vertex -0.0200613 -0.0219947 0.0936612
            vertex -0.00871109 -0.00357767 0.107837
        endloop
    endfacet
    facet normal -0.213277 0.885118 0.413617
        outer loop
            vertex -0.00128677 0.0585369 0.0695658
            vertex 0.0218952 0.0542353 0.0907245
            vertex 0.0171299 0.0568365 0.0827009
        endloop
    endfacet
    facet normal -0.32368 -0.319673 0.890528
        outer loop
            vertex 0.00550048 -0.00675178 0.116711
            vertex 0.0226155 -0.0298395 0.114644
            vertex 0.0268524 -0.0135066 0.122047
        endloop
    endfacet
    facet normal -0.12045 -0.191645 0.974045
        outer loop
            vertex 0.0482304 -4.58988e-005 0.127339
            vertex 0.0268524 -0.0135066 0.122047
            vertex 0.045717 -0.0239501 0.122325
        endloop
    endfacet
    facet normal -0.357341 0.0980458 0.928814
        outer loop
            vertex 0.00550048 -0.00675178 0.116711
            vertex 0.0270886 0.00489608 0.123787
            vertex 0.00931239 0.0164818 0.115725
        endloop
    endfacet
    facet normal 0.00186139 0.951581 0.307392
        outer loop
            vertex 0.64 0.0487265 0.104035
            vertex 0.0171299 0.0568365 0.0827009
            vertex 0.0218952 0.0542353 0.0907245
        endloop
    endfacet
    facet normal -0.000320804 -0.840106 0.542422
        outer loop
            vertex 0.0310664 -0.0423392 0.10956
            vertex 0.0226027 -0.0560617 0.0883015
            vertex 0.64 -0.0579477 0.0857456
        endloop
    endfacet
    facet normal 0.77926 0.375225 -0.501956
        outer loop
            vertex 0.65 0.00833677 0.0163526
            vertex 0.64 0.0349611 0.0207305
            vertex 0.65 0.040192 0.0401652
        endloop
    endfacet
    facet normal -0.724723 0.16529 0.668922
        outer loop
            vertex -0.0164176 0.0125804 0.101096
            vertex -0.0227528 0.019553 0.0925094
            vertex -0.0298501 0.00280041 0.0889596
        endloop
    endfacet
    facet normal -0.267433 -0.0873004 0.959614
        outer loop
            vertex 0.00550048 -0.00675178 0.116711
            vertex 0.0268524 -0.0135066 0.122047
            vertex 0.0270886 0.00489608 0.123787
        endloop
    endfacet
    facet normal -0.390839 -0.785808 0.479323
        outer loop
            vertex -0.00393085 -0.0590119 0.0659689
            vertex 0.00833736 -0.0493671 0.0917842
            vertex -0.0115546 -0.0464856 0.0802883
        endloop
    endfacet
    facet normal -0.610057 -0.211737 0.763543
        outer loop
            vertex -0.000970894 -0.0231561 0.108592
            vertex -0.00871109 -0.00357767 0.107837
            vertex -0.0200613 -0.0219947 0.0936612
        endloop
    endfacet
    facet normal -0.169337 -0.467397 0.867678
        outer loop
            vertex 0.0310664 -0.0423392 0.10956
            vertex 0.045717 -0.0239501 0.122325
            vertex 0.0226155 -0.0298395 0.114644
        endloop
    endfacet
    facet normal 0.0374497 0.721463 -0.691439
        outer loop
            vertex 0.64 0.051038 0.0375055
            vertex 0.64 0.0349611 0.0207305
            vertex -0.00802492 0.0580206 0.00969305
        endloop
    endfacet
    facet normal -0.00247314 -0.990998 0.133852
        outer loop
            vertex 0.64 -0.0579477 0.0857456
            vertex 0.0226027 -0.0560617 0.0883015
            vertex -0.00393085 -0.0590119 0.0659689
        endloop
    endfacet
    facet normal -0.310537 -0.678793 0.665438
        outer loop
            vertex 0.0310664 -0.0423392 0.10956
            vertex 0.00645178 -0.0363957 0.104136
            vertex 0.00833736 -0.0493671 0.0917842
        endloop
    endfacet
    facet normal 0.988903 0.0520975 0.139127
        outer loop
            vertex 0.652981 -0.0185632 0.109947
            vertex 0.654742 0.025969 0.0807543
            vertex 0.65 0.0212775 0.116217
        endloop
    endfacet
    facet normal 0.541321 0.792787 0.280107
        outer loop
            vertex 0.65 0.0511267 0.0779162
            vertex 0.64 0.0579477 0.0779362
            vertex 0.64 0.0487265 0.104035
        endloop
    endfacet
    facet normal -0.543855 -0.525196 0.654516
        outer loop
            vertex -0.000970894 -0.0231561 0.108592
            vertex -0.0200613 -0.0219947 0.0936612
            vertex 0.00645178 -0.0363957 0.104136
        endloop
    endfacet
    facet normal -0.153487 -0.501639 -0.851352
        outer loop
            vertex -0.0195243 -0.0580491 0.00901352
            vertex -0.0277284 -0.0401605 -4.78159e-005
            vertex -0.00408509 -0.0459949 -0.000872604
        endloop
    endfacet
    facet normal -0.820211 0.0528661 0.569613
        outer loop
            vertex -0.0418724 -0.00944242 0.0727844
            vertex -0.0298501 0.00280041 0.0889596
            vertex -0.0406704 0.0130455 0.0724281
        endloop
    endfacet
    facet normal -0.598941 0.783833 0.163938
        outer loop
            vertex -0.0409739 0.0424567 0.0365887
            vertex -0.0302202 0.0466124 0.0560074
            vertex -0.0226604 0.0548677 0.0441559
        endloop
    endfacet
    facet normal -0.183183 0.983004 0.0121389
        outer loop
            vertex -0.0226604 0.0548677 0.0441559
            vertex -0.00128677 0.0585369 0.0695658
            vertex -0.00802492 0.0580206 0.00969305
        endloop
    endfacet
    facet normal -0.82137 -0.483256 0.303009
        outer loop
            vertex -0.0521468 -0.0181778 0.0459684
            vertex -0.0457174 -0.0360773 0.0348495
            vertex -0.0396043 -0.0270058 0.0658881
        endloop
    endfacet
    facet normal -0.803303 0.00197206 0.595567
        outer loop
            vertex -0.0293012 -0.0106819 0.0897446
            vertex -0.0298501 0.00280041 0.0889596
            vertex -0.0418724 -0.00944242 0.0727844
        endloop
    endfacet
    facet normal -0.313795 0.800361 0.510838
        outer loop
            vertex -0.0116899 0.0486146 0.0789003
            vertex 0.0106878 0.0456355 0.0973139
            vertex 0.0218952 0.0542353 0.0907245
        endloop
    endfacet
    facet normal -0.318892 -0.316383 0.893426
        outer loop
            vertex 0.00550048 -0.00675178 0.116711
            vertex -0.000970894 -0.0231561 0.108592
            vertex 0.0226155 -0.0298395 0.114644
        endloop
    endfacet
    facet normal -0.878551 0.0851813 0.469991
        outer loop
            vertex -0.0497753 0.0170996 0.0546736
            vertex -0.0532591 -0.00121117 0.05148
            vertex -0.0406704 0.0130455 0.0724281
        endloop
    endfacet
    facet normal -0.762368 0.192029 0.617997
        outer loop
            vertex -0.0298501 0.00280041 0.0889596
            vertex -0.0227528 0.019553 0.0925094
            vertex -0.0406704 0.0130455 0.0724281
        endloop
    endfacet
    facet normal -0.13077 0.145428 0.980688
        outer loop
            vertex 0.0270886 0.00489608 0.123787
            vertex 0.0482304 -4.58988e-005 0.127339
            vertex 0.0418842 0.023177 0.123049
        endloop
    endfacet
    facet normal 0.000661892 -0.828522 0.559957
        outer loop
            vertex 0.0310664 -0.0423392 0.10956
            vertex 0.64 -0.0579477 0.0857456
            vertex 0.64 -0.0410167 0.110797
        endloop
    endfacet
    facet normal -0.708397 -0.673784 0.210213
        outer loop
            vertex -0.0297996 -0.0520738 0.0372182
            vertex -0.0309888 -0.0435948 0.060388
            vertex -0.0457174 -0.0360773 0.0348495
        endloop
    endfacet
    facet normal 0.693515 -0.377716 0.613489
        outer loop
            vertex 0.652981 -0.0185632 0.109947
            vertex 0.64 -0.0129488 0.128078
            vertex 0.64 -0.0410167 0.110797
        endloop
    endfacet
    facet normal 0.000866267 0.942878 0.333137
        outer loop
            vertex 0.64 0.0487265 0.104035
            vertex 0.64 0.0579477 0.0779362
            vertex 0.0171299 0.0568365 0.0827009
        endloop
    endfacet
    facet normal -0.28487 0.625704 0.726184
        outer loop
            vertex 0.0335397 0.0430675 0.108491
            vertex 0.0106878 0.0456355 0.0973139
            vertex 0.0142915 0.0316836 0.110749
        endloop
    endfacet
    facet normal -0.862953 -0.451224 0.227397
        outer loop
            vertex -0.0521468 -0.0181778 0.0459684
            vertex -0.0560223 -0.0206157 0.0264237
            vertex -0.0457174 -0.0360773 0.0348495
        endloop
    endfacet
    facet normal 0.510596 0.0491231 -0.858416
        outer loop
            vertex 0.65 0.00833677 0.0163526
            vertex 0.64 -0.00696498 0.00952884
            vertex 0.64 0.0152675 0.0108011
        endloop
    endfacet
    facet normal -0.341499 -0.466145 0.816142
        outer loop
            vertex -0.000970894 -0.0231561 0.108592
            vertex 0.00645178 -0.0363957 0.104136
            vertex 0.0226155 -0.0298395 0.114644
        endloop
    endfacet
    facet normal -0.000587245 0.181503 0.98339
        outer loop
            vertex 0.0482304 -4.58988e-005 0.127339
            vertex 0.64 0.0223273 0.123563
            vertex 0.0418842 0.023177 0.123049
        endloop
    endfacet
    facet normal 0.00146204 -0.524283 0.851543
        outer loop
            vertex 0.64 -0.0129488 0.128078
            vertex 0.045717 -0.0239501 0.122325
            vertex 0.64 -0.0410167 0.110797
        endloop
    endfacet
    facet normal -0.549959 -0.186024 0.814212
        outer loop
            vertex 0.00550048 -0.00675178 0.116711
            vertex -0.00871109 -0.00357767 0.107837
            vertex -0.000970894 -0.0231561 0.108592
        endloop
    endfacet
    facet normal -0.871758 0.0543111 0.486918
        outer loop
            vertex -0.0532591 -0.00121117 0.05148
            vertex -0.0418724 -0.00944242 0.0727844
            vertex -0.0406704 0.0130455 0.0724281
        endloop
    endfacet
    facet normal 0.695176 0.518981 -0.497383
        outer loop
            vertex 0.65 0.040192 0.0401652
            vertex 0.64 0.0349611 0.0207305
            vertex 0.64 0.051038 0.0375055
        endloop
    endfacet
    facet normal -0.552745 0.564879 0.612687
        outer loop
            vertex -0.0116899 0.0486146 0.0789003
            vertex -0.0230887 0.0312021 0.0846705
            vertex -0.00501763 0.0327939 0.099506
        endloop
    endfacet
    facet normal -0.952502 0.133483 0.273719
        outer loop
            vertex -0.0497753 0.0170996 0.0546736
            vertex -0.0575925 0.00664691 0.0325683
            vertex -0.0532591 -0.00121117 0.05148
        endloop
    endfacet
    facet normal -0.742211 0.359282 0.56572
        outer loop
            vertex -0.0403596 0.0302595 0.0626101
            vertex -0.0227528 0.019553 0.0925094
            vertex -0.0230887 0.0312021 0.0846705
        endloop
    endfacet
    facet normal 0.000770191 0.999962 -0.00870962
        outer loop
            vertex -0.00128677 0.0585369 0.0695658
            vertex 0.64 0.0579477 0.0586281
            vertex -0.00802492 0.0580206 0.00969305
        endloop
    endfacet
    facet normal -0.708617 -0.37098 0.600196
        outer loop
            vertex -0.0192063 -0.036768 0.0855393
            vertex -0.0200613 -0.0219947 0.0936612
            vertex -0.0293012 -0.0106819 0.0897446
        endloop
    endfacet
    facet normal 0.587297 -0.670582 0.453213
        outer loop
            vertex 0.650361 -0.0484384 0.0863894
            vertex 0.64 -0.0410167 0.110797
            vertex 0.64 -0.0579477 0.0857456
        endloop
    endfacet
    facet normal 0.984644 -0.055284 -0.16559
        outer loop
            vertex 0.65 0.00833677 0.0163526
            vertex 0.656484 -0.0162271 0.0631093
            vertex 0.65 -0.028989 0.0288142
        endloop
    endfacet
    facet normal 0.74402 0.635043 -0.207737
        outer loop
            vertex 0.65 0.040192 0.0401652
            vertex 0.64 0.051038 0.0375055
            vertex 0.64 0.0579477 0.0586281
        endloop
    endfacet
    facet normal 0.595872 0.101955 0.796581
        outer loop
            vertex 0.65 0.0212775 0.116217
            vertex 0.64 0.0223273 0.123563
            vertex 0.64 -0.0129488 0.128078
        endloop
    endfacet
    facet normal 0.982419 0.179319 -0.0519402
        outer loop
            vertex 0.65 0.0511267 0.0779162
            vertex 0.654742 0.025969 0.0807543
            vertex 0.65 0.040192 0.0401652
        endloop
    endfacet
    facet normal -0.435353 0.640444 0.632692
        outer loop
            vertex -0.0116899 0.0486146 0.0789003
            vertex -0.00501763 0.0327939 0.099506
            vertex 0.0106878 0.0456355 0.0973139
        endloop
    endfacet
    facet normal 0.9865 0.151505 -0.0621633
        outer loop
            vertex 0.654742 0.025969 0.0807543
            vertex 0.655239 0.00934262 0.0481192
            vertex 0.65 0.040192 0.0401652
        endloop
    endfacet
    facet normal -0.299703 0.953191 -0.0400716
        outer loop
            vertex -0.0226604 0.0548677 0.0441559
            vertex -0.00802492 0.0580206 0.00969305
            vertex -0.032641 0.0502937 0.01
        endloop
    endfacet
    facet normal -0.75523 0.586463 0.292726
        outer loop
            vertex -0.0409739 0.0424567 0.0365887
            vertex -0.0403596 0.0302595 0.0626101
            vertex -0.0302202 0.0466124 0.0560074
        endloop
    endfacet
    facet normal -0.994185 -0.0747344 0.0775293
        outer loop
            vertex -0.0560223 -0.0206157 0.0264237
            vertex -0.0575925 0.00664691 0.0325683
            vertex -0.0582092 -0.00868384 0.00988207
        endloop
    endfacet
    facet normal 0.816883 0.454958 0.354565
        outer loop
            vertex 0.65 0.0212775 0.116217
            vertex 0.65 0.0511267 0.0779162
            vertex 0.64 0.0487265 0.104035
        endloop
    endfacet
    facet normal -0.507729 0.114093 0.853929
        outer loop
            vertex 0.00550048 -0.00675178 0.116711
            vertex -0.0164176 0.0125804 0.101096
            vertex -0.00871109 -0.00357767 0.107837
        endloop
    endfacet
    facet normal -0.302309 -0.52735 0.794047
        outer loop
            vertex 0.0310664 -0.0423392 0.10956
            vertex 0.0226155 -0.0298395 0.114644
            vertex 0.00645178 -0.0363957 0.104136
        endloop
    endfacet
    facet normal -0.773157 -0.315802 0.549998
        outer loop
            vertex -0.0293012 -0.0106819 0.0897446
            vertex -0.0418724 -0.00944242 0.0727844
            vertex -0.0396043 -0.0270058 0.0658881
        endloop
    endfacet
    facet normal -0.209559 0.518731 0.828856
        outer loop
            vertex 0.0335397 0.0430675 0.108491
            vertex 0.0142915 0.0316836 0.110749
            vertex 0.0418842 0.023177 0.123049
        endloop
    endfacet
    facet normal -0.653898 0.586462 0.477996
        outer loop
            vertex -0.0302202 0.0466124 0.0560074
            vertex -0.0230887 0.0312021 0.0846705
            vertex -0.0116899 0.0486146 0.0789003
        endloop
    endfacet
    facet normal -0.0386854 -0.0155253 -0.999131
        outer loop
            vertex -0.045941 0.0240253 -0.000340009
            vertex -0.00408509 -0.0459949 -0.000872604
            vertex -0.0277284 -0.0401605 -4.78159e-005
        endloop
    endfacet
    facet normal 0.000918776 1 0
        outer loop
            vertex -0.00128677 0.0585369 0.0695658
            vertex 0.64 0.0579477 0.0779362
            vertex 0.64 0.0579477 0.0586281
        endloop
    endfacet
    facet normal 0.799606 -0.596147 -0.0723873
        outer loop
            vertex 0.650361 -0.0484384 0.0863894
            vertex 0.64 -0.0579477 0.0502534
            vertex 0.65 -0.0445613 0.0504715
        endloop
    endfacet
    facet normal -0.570438 0.37903 0.728654
        outer loop
            vertex -0.0164176 0.0125804 0.101096
            vertex -0.00501763 0.0327939 0.099506
            vertex -0.0227528 0.019553 0.0925094
        endloop
    endfacet
    facet normal -0.851445 -0.515801 0.0948212
        outer loop
            vertex -0.049327 -0.034698 0.00994017
            vertex -0.0457174 -0.0360773 0.0348495
            vertex -0.0560223 -0.0206157 0.0264237
        endloop
    endfacet
    facet normal -0.000778692 0.991585 0.129457
        outer loop
            vertex -0.00128677 0.0585369 0.0695658
            vertex 0.0171299 0.0568365 0.0827009
            vertex 0.64 0.0579477 0.0779362
        endloop
    endfacet
endsolid D:/Users/Paul Maroldt/Documents/!StartUp_Repositories/module_type_database/L116-650_convdec.stl_created_by_BoundingMesh