solid D:/Users/Paul Maroldt/Documents/!StartUp_Repositories/gen2_robot_data/ModuleLibrary/L148-1000/L148-1000_convdec.stl_created_by_BoundingMesh
    facet normal -0.846295 0.451708 0.282391
        outer loop
            vertex -0.0669662 0.0165637 0.063479
            vertex -0.0472889 0.040433 0.0842688
            vertex -0.0630298 0.0411061 0.0360183
        endloop
    endfacet
    facet normal -0.318114 -0.947382 -0.0356369
        outer loop
            vertex -0.0494063 -0.0611665 0.0109661
            vertex -0.0111179 -0.0740124 0.0106828
            vertex -0.0216832 -0.0723681 0.0612818
        endloop
    endfacet
    facet normal -0.0012066 0.201101 0.97957
        outer loop
            vertex 0.046999 0.0325374 0.154128
            vertex 0.0622314 0.00163441 0.160491
            vertex 0.989 0.0314527 0.155511
        endloop
    endfacet
    facet normal -0.213115 0.788205 0.577335
        outer loop
            vertex 0.033365 0.0515473 0.139571
            vertex 0.036146 0.0640568 0.123519
            vertex 0.0158679 0.0729604 0.103878
        endloop
    endfacet
    facet normal -0.0230074 -0.0028436 -0.999731
        outer loop
            vertex -0.0262654 0.0630595 -0.00109559
            vertex -0.0141889 -0.0627696 -0.00101561
            vertex -0.0570323 0.0295629 -0.000292257
        endloop
    endfacet
    facet normal -0.586247 0.809789 0.0235628
        outer loop
            vertex -0.0256201 0.0740492 0.0101434
            vertex -0.051322 0.0543553 0.0475004
            vertex -0.0293088 0.0699929 0.0577717
        endloop
    endfacet
    facet normal 0.831265 -0.336801 -0.442227
        outer loop
            vertex 0.989 -0.0551831 0.0275318
            vertex 1.00037 -0.0164155 0.0193788
            vertex 1.00018 -0.0587255 0.051245
        endloop
    endfacet
    facet normal -0.433308 0.766913 0.47338
        outer loop
            vertex -0.0017379 0.0568437 0.115192
            vertex -0.0029639 0.074757 0.0850488
            vertex -0.0200397 0.0576089 0.0971998
        endloop
    endfacet
    facet normal -0.690957 -0.316291 0.65003
        outer loop
            vertex -0.0295366 -0.0080363 0.12127
            vertex -0.0450267 -0.0229229 0.0975611
            vertex -0.0218638 -0.0383518 0.114675
        endloop
    endfacet
    facet normal -0.47744 0.420023 -0.771772
        outer loop
            vertex -0.0262654 0.0630595 -0.00109559
            vertex -0.0570323 0.0295629 -0.000292257
            vertex -0.0620387 0.0446211 0.011
        endloop
    endfacet
    facet normal -0.924463 0.344075 -0.164257
        outer loop
            vertex -0.076565 0.00559168 0.011
            vertex -0.0722522 0.0239426 0.0251672
            vertex -0.0620387 0.0446211 0.011
        endloop
    endfacet
    facet normal 0.0154266 0.0585115 -0.998168
        outer loop
            vertex -0.0262654 0.0630595 -0.00109559
            vertex 0.989 0.0269309 0.0124774
            vertex 0.989 -0.0121725 0.0101852
        endloop
    endfacet
    facet normal -0.241171 0.968384 0.0637949
        outer loop
            vertex -0.0256201 0.0740492 0.0101434
            vertex -0.0293088 0.0699929 0.0577717
            vertex -0.0029639 0.074757 0.0850488
        endloop
    endfacet
    facet normal -0.842163 0.309941 0.441247
        outer loop
            vertex -0.0669662 0.0165637 0.063479
            vertex -0.05847 0.0107406 0.0837851
            vertex -0.0472889 0.040433 0.0842688
        endloop
    endfacet
    facet normal 0.617032 -0.785034 0.0547066
        outer loop
            vertex 0.989 -0.075142 0.0717489
            vertex 1 -0.0646529 0.0981985
            vertex 0.989 -0.0729578 0.103092
        endloop
    endfacet
    facet normal 0.670653 0.675928 0.305525
        outer loop
            vertex 1.00046 0.048692 0.13162
            vertex 0.989 0.0766255 0.094977
            vertex 0.989 0.0604852 0.130685
        endloop
    endfacet
    facet normal 0.777553 -0.62423 -0.0758217
        outer loop
            vertex 1.00018 -0.0587255 0.051245
            vertex 1 -0.0646529 0.0981985
            vertex 0.989 -0.075142 0.0717489
        endloop
    endfacet
    facet normal -0.700356 -0.384025 0.601686
        outer loop
            vertex -0.04396 -0.0450344 0.0846901
            vertex -0.0218638 -0.0383518 0.114675
            vertex -0.0450267 -0.0229229 0.0975611
        endloop
    endfacet
    facet normal 0.0292073 -0.373876 -0.927019
        outer loop
            vertex 0.989 -0.0551831 0.0275318
            vertex -0.0141889 -0.0627696 -0.00101561
            vertex 0.989 -0.0121725 0.0101852
        endloop
    endfacet
    facet normal 0.63823 0.0450502 -0.768527
        outer loop
            vertex 1.00037 -0.0164155 0.0193788
            vertex 0.989 -0.0121725 0.0101852
            vertex 0.989 0.0269309 0.0124774
        endloop
    endfacet
    facet normal -0.621144 0.0746139 0.780137
        outer loop
            vertex -0.0337073 0.0202075 0.115248
            vertex -0.0295366 -0.0080363 0.12127
            vertex -0.0123134 -0.002703 0.134473
        endloop
    endfacet
    facet normal 0.000311324 0.910908 0.412609
        outer loop
            vertex 0.0158679 0.0729604 0.103878
            vertex 0.036146 0.0640568 0.123519
            vertex 0.989 0.0604852 0.130685
        endloop
    endfacet
    facet normal -0.992576 -0.114745 0.0403186
        outer loop
            vertex -0.0742539 -0.00344061 0.0421897
            vertex -0.076565 0.00559168 0.011
            vertex -0.0731407 -0.0235127 0.0124703
        endloop
    endfacet
    facet normal 0.00124522 0.126958 0.991907
        outer loop
            vertex 0.0622314 0.00163441 0.160491
            vertex 0.989 -0.00405681 0.160056
            vertex 0.989 0.0314527 0.155511
        endloop
    endfacet
    facet normal -0.677289 0.44388 0.586728
        outer loop
            vertex -0.0337073 0.0202075 0.115248
            vertex -0.0210343 0.044184 0.111738
            vertex -0.0472889 0.040433 0.0842688
        endloop
    endfacet
    facet normal -0.764572 0.0244237 0.644075
        outer loop
            vertex -0.0337073 0.0202075 0.115248
            vertex -0.0465638 -0.00357297 0.100888
            vertex -0.0295366 -0.0080363 0.12127
        endloop
    endfacet
    facet normal -0.917717 -0.372248 0.138662
        outer loop
            vertex -0.0597329 -0.0473581 0.0371935
            vertex -0.0637615 -0.0303685 0.0561406
            vertex -0.0731407 -0.0235127 0.0124703
        endloop
    endfacet
    facet normal 0.000335434 0.911235 0.411886
        outer loop
            vertex 0.0158679 0.0729604 0.103878
            vertex 0.989 0.0604852 0.130685
            vertex 0.989 0.0766255 0.094977
        endloop
    endfacet
    facet normal -0.647228 -0.699099 0.303902
        outer loop
            vertex -0.04396 -0.0450344 0.0846901
            vertex -0.0407218 -0.0620756 0.0523849
            vertex -0.0282127 -0.0596093 0.0846993
        endloop
    endfacet
    facet normal 0.656866 -0.687216 0.31026
        outer loop
            vertex 1 -0.0646529 0.0981985
            vertex 0.989016 -0.0608033 0.12998
            vertex 0.989 -0.0729578 0.103092
        endloop
    endfacet
    facet normal 0.0111426 0.000433834 -0.999938
        outer loop
            vertex -0.0262654 0.0630595 -0.00109559
            vertex 0.989 -0.0121725 0.0101852
            vertex -0.0141889 -0.0627696 -0.00101561
        endloop
    endfacet
    facet normal 0.991163 0.0446382 0.124917
        outer loop
            vertex 1.00876 -0.00284372 0.0841794
            vertex 1.00046 0.048692 0.13162
            vertex 1 0.00531102 0.150772
        endloop
    endfacet
    facet normal 0.752671 -0.570189 0.329196
        outer loop
            vertex 1 -0.0408706 0.139391
            vertex 0.989016 -0.0608033 0.12998
            vertex 1 -0.0646529 0.0981985
        endloop
    endfacet
    facet normal -0.845717 -0.530948 -0.0534497
        outer loop
            vertex -0.0597329 -0.0473581 0.0371935
            vertex -0.0731407 -0.0235127 0.0124703
            vertex -0.0494063 -0.0611665 0.0109661
        endloop
    endfacet
    facet normal -0.579602 -0.625896 0.521838
        outer loop
            vertex -0.04396 -0.0450344 0.0846901
            vertex -0.0282127 -0.0596093 0.0846993
            vertex -0.0116559 -0.0568578 0.106389
        endloop
    endfacet
    facet normal -0.174986 0.115084 0.977822
        outer loop
            vertex 0.046999 0.0325374 0.154128
            vertex 0.0334026 -0.00288625 0.155864
            vertex 0.0622314 0.00163441 0.160491
        endloop
    endfacet
    facet normal -0.64683 0.581836 0.493029
        outer loop
            vertex -0.0210343 0.044184 0.111738
            vertex -0.0200397 0.0576089 0.0971998
            vertex -0.039269 0.0549429 0.0751181
        endloop
    endfacet
    facet normal -0.484838 -0.817697 0.310327
        outer loop
            vertex 0.00601867 -0.0751571 0.0972128
            vertex -0.0282127 -0.0596093 0.0846993
            vertex -0.0216832 -0.0723681 0.0612818
        endloop
    endfacet
    facet normal -0.000325637 -0.999913 -0.0131633
        outer loop
            vertex 0.00601867 -0.0751571 0.0972128
            vertex -0.0111179 -0.0740124 0.0106828
            vertex 0.989 -0.075142 0.0717489
        endloop
    endfacet
    facet normal -0.416838 -0.465813 0.780554
        outer loop
            vertex 0.0123519 -0.0528805 0.128347
            vertex 0.0213364 -0.0315256 0.145889
            vertex -0.0126897 -0.0313062 0.127849
        endloop
    endfacet
    facet normal -0.690791 -0.316288 0.650207
        outer loop
            vertex -0.0295366 -0.0080363 0.12127
            vertex -0.0218638 -0.0383518 0.114675
            vertex -0.0126897 -0.0313062 0.127849
        endloop
    endfacet
    facet normal -0.983128 0.142871 0.114222
        outer loop
            vertex -0.0742539 -0.00344061 0.0421897
            vertex -0.0722522 0.0239426 0.0251672
            vertex -0.076565 0.00559168 0.011
        endloop
    endfacet
    facet normal -0.543015 0.301734 0.783639
        outer loop
            vertex -0.0337073 0.0202075 0.115248
            vertex 0.00396012 0.0122896 0.144398
            vertex 0.00172018 0.0352296 0.134013
        endloop
    endfacet
    facet normal -0.888108 0.458702 0.0292638
        outer loop
            vertex -0.0620387 0.0446211 0.011
            vertex -0.0722522 0.0239426 0.0251672
            vertex -0.0630298 0.0411061 0.0360183
        endloop
    endfacet
    facet normal -0.77258 0.632242 0.0582223
        outer loop
            vertex -0.051322 0.0543553 0.0475004
            vertex -0.0620387 0.0446211 0.011
            vertex -0.0630298 0.0411061 0.0360183
        endloop
    endfacet
    facet normal -0.598819 0.637065 0.485349
        outer loop
            vertex -0.0472889 0.040433 0.0842688
            vertex -0.0210343 0.044184 0.111738
            vertex -0.039269 0.0549429 0.0751181
        endloop
    endfacet
    facet normal -0.736597 0.601791 0.308664
        outer loop
            vertex -0.0472889 0.040433 0.0842688
            vertex -0.039269 0.0549429 0.0751181
            vertex -0.051322 0.0543553 0.0475004
        endloop
    endfacet
    facet normal 0.793722 0.584263 -0.169237
        outer loop
            vertex 0.989 0.06819 0.0438588
            vertex 1 0.0659329 0.0876565
            vertex 1 0.0558272 0.0527682
        endloop
    endfacet
    facet normal -0.384343 0.349327 0.854547
        outer loop
            vertex 0.00396012 0.0122896 0.144398
            vertex 0.0270633 0.0227619 0.150508
            vertex 0.00172018 0.0352296 0.134013
        endloop
    endfacet
    facet normal -0.353048 0.395927 0.847702
        outer loop
            vertex 0.046999 0.0325374 0.154128
            vertex 0.033365 0.0515473 0.139571
            vertex 0.00172018 0.0352296 0.134013
        endloop
    endfacet
    facet normal -0.637244 0.724509 0.262693
        outer loop
            vertex -0.0293088 0.0699929 0.0577717
            vertex -0.051322 0.0543553 0.0475004
            vertex -0.039269 0.0549429 0.0751181
        endloop
    endfacet
    facet normal -0.414405 0.559044 0.718149
        outer loop
            vertex 0.033365 0.0515473 0.139571
            vertex -0.0017379 0.0568437 0.115192
            vertex 0.00172018 0.0352296 0.134013
        endloop
    endfacet
    facet normal 0.647971 0.751501 -0.124012
        outer loop
            vertex 0.989 0.06819 0.0438588
            vertex 0.989 0.0766255 0.094977
            vertex 1 0.0659329 0.0876565
        endloop
    endfacet
    facet normal -0.826347 0.490652 0.276426
        outer loop
            vertex -0.0472889 0.040433 0.0842688
            vertex -0.051322 0.0543553 0.0475004
            vertex -0.0630298 0.0411061 0.0360183
        endloop
    endfacet
    facet normal -0.667418 -0.734316 0.123824
        outer loop
            vertex -0.0597329 -0.0473581 0.0371935
            vertex -0.0494063 -0.0611665 0.0109661
            vertex -0.0407218 -0.0620756 0.0523849
        endloop
    endfacet
    facet normal 0.504192 -0.78712 -0.355293
        outer loop
            vertex 0.989 -0.0551831 0.0275318
            vertex 1.00018 -0.0587255 0.051245
            vertex 0.989 -0.075142 0.0717489
        endloop
    endfacet
    facet normal -0.0276207 -0.00498521 -0.999606
        outer loop
            vertex -0.0141889 -0.0627696 -0.00101561
            vertex -0.0492613 -0.0436589 -0.000141812
            vertex -0.0570323 0.0295629 -0.000292257
        endloop
    endfacet
    facet normal -0.0014401 -0.564463 0.825457
        outer loop
            vertex 0.0379293 -0.0542352 0.137934
            vertex 0.989 -0.0346748 0.152969
            vertex 0.0612458 -0.0267201 0.15679
        endloop
    endfacet
    facet normal -0.462681 -0.0821384 0.882711
        outer loop
            vertex 0.00396012 0.0122896 0.144398
            vertex -0.0123134 -0.002703 0.134473
            vertex 0.012841 -0.0151788 0.146497
        endloop
    endfacet
    facet normal -0.00645308 -0.00273946 -0.999975
        outer loop
            vertex -0.0492613 -0.0436589 -0.000141812
            vertex -0.065523 -0.00549368 -0.000141426
            vertex -0.0570323 0.0295629 -0.000292257
        endloop
    endfacet
    facet normal 0.991496 0.124345 0.0383886
        outer loop
            vertex 1.00876 -0.00284372 0.0841794
            vertex 1 0.0659329 0.0876565
            vertex 1.00046 0.048692 0.13162
        endloop
    endfacet
    facet normal 0.0321669 0.605069 -0.795523
        outer loop
            vertex 0.989 0.06819 0.0438588
            vertex 0.989 0.0269309 0.0124774
            vertex -0.0262654 0.0630595 -0.00109559
        endloop
    endfacet
    facet normal 0.0252356 -0.71746 -0.696142
        outer loop
            vertex 0.989 -0.0551831 0.0275318
            vertex -0.0111179 -0.0740124 0.0106828
            vertex -0.0141889 -0.0627696 -0.00101561
        endloop
    endfacet
    facet normal 0.485256 -0.57741 0.656601
        outer loop
            vertex 1 -0.0408706 0.139391
            vertex 0.989 -0.0346748 0.152969
            vertex 0.989016 -0.0608033 0.12998
        endloop
    endfacet
    facet normal -0.452764 -0.266942 0.850733
        outer loop
            vertex -0.0126897 -0.0313062 0.127849
            vertex 0.0213364 -0.0315256 0.145889
            vertex 0.012841 -0.0151788 0.146497
        endloop
    endfacet
    facet normal -0.324626 -0.515075 0.793294
        outer loop
            vertex 0.0379293 -0.0542352 0.137934
            vertex 0.0213364 -0.0315256 0.145889
            vertex 0.0123519 -0.0528805 0.128347
        endloop
    endfacet
    facet normal -0.243101 0.140344 0.959794
        outer loop
            vertex 0.046999 0.0325374 0.154128
            vertex 0.0270633 0.0227619 0.150508
            vertex 0.0334026 -0.00288625 0.155864
        endloop
    endfacet
    facet normal -0.271091 -0.737036 0.619102
        outer loop
            vertex 0.0379293 -0.0542352 0.137934
            vertex 0.0123519 -0.0528805 0.128347
            vertex 0.0269604 -0.0665872 0.118426
        endloop
    endfacet
    facet normal -0.000466053 0.607767 0.794115
        outer loop
            vertex 0.046999 0.0325374 0.154128
            vertex 0.989 0.0314527 0.155511
            vertex 0.033365 0.0515473 0.139571
        endloop
    endfacet
    facet normal 0.798856 0.23583 0.553365
        outer loop
            vertex 1.00046 0.048692 0.13162
            vertex 0.989 0.0314527 0.155511
            vertex 1 0.00531102 0.150772
        endloop
    endfacet
    facet normal -0.79341 0.0633818 0.605378
        outer loop
            vertex -0.0337073 0.0202075 0.115248
            vertex -0.05847 0.0107406 0.0837851
            vertex -0.0465638 -0.00357297 0.100888
        endloop
    endfacet
    facet normal -0.230177 -0.23218 0.945046
        outer loop
            vertex 0.0334026 -0.00288625 0.155864
            vertex 0.0213364 -0.0315256 0.145889
            vertex 0.0612458 -0.0267201 0.15679
        endloop
    endfacet
    facet normal -0.792547 0.289704 0.536601
        outer loop
            vertex -0.0337073 0.0202075 0.115248
            vertex -0.0472889 0.040433 0.0842688
            vertex -0.05847 0.0107406 0.0837851
        endloop
    endfacet
    facet normal 0.991066 0.128107 -0.0371072
        outer loop
            vertex 1.00876 -0.00284372 0.0841794
            vertex 1 0.0558272 0.0527682
            vertex 1 0.0659329 0.0876565
        endloop
    endfacet
    facet normal -0.351306 0.403594 0.844806
        outer loop
            vertex 0.046999 0.0325374 0.154128
            vertex 0.00172018 0.0352296 0.134013
            vertex 0.0270633 0.0227619 0.150508
        endloop
    endfacet
    facet normal -0.553349 -0.786512 0.274233
        outer loop
            vertex -0.0216832 -0.0723681 0.0612818
            vertex -0.0282127 -0.0596093 0.0846993
            vertex -0.0407218 -0.0620756 0.0523849
        endloop
    endfacet
    facet normal -0.838222 -0.390246 0.380909
        outer loop
            vertex -0.04396 -0.0450344 0.0846901
            vertex -0.0590041 -0.0213813 0.0758172
            vertex -0.0637615 -0.0303685 0.0561406
        endloop
    endfacet
    facet normal -0.249654 -0.730088 -0.636116
        outer loop
            vertex -0.0494063 -0.0611665 0.0109661
            vertex -0.0141889 -0.0627696 -0.00101561
            vertex -0.0111179 -0.0740124 0.0106828
        endloop
    endfacet
    facet normal -0.624856 0.148042 -0.766576
        outer loop
            vertex -0.076565 0.00559168 0.011
            vertex -0.0570323 0.0295629 -0.000292257
            vertex -0.065523 -0.00549368 -0.000141426
        endloop
    endfacet
    facet normal -0.590149 -0.577914 0.563684
        outer loop
            vertex -0.04396 -0.0450344 0.0846901
            vertex -0.0116559 -0.0568578 0.106389
            vertex -0.0218638 -0.0383518 0.114675
        endloop
    endfacet
    facet normal 0.00171699 -0.66056 0.750771
        outer loop
            vertex 0.0379293 -0.0542352 0.137934
            vertex 0.989016 -0.0608033 0.12998
            vertex 0.989 -0.0346748 0.152969
        endloop
    endfacet
    facet normal -0.835801 -0.156856 0.526148
        outer loop
            vertex -0.0590041 -0.0213813 0.0758172
            vertex -0.0450267 -0.0229229 0.0975611
            vertex -0.0465638 -0.00357297 0.100888
        endloop
    endfacet
    facet normal -0.921961 -0.0695776 0.380981
        outer loop
            vertex -0.0669662 0.0165637 0.063479
            vertex -0.0742539 -0.00344061 0.0421897
            vertex -0.0590041 -0.0213813 0.0758172
        endloop
    endfacet
    facet normal -0.927397 -0.0754633 0.366388
        outer loop
            vertex -0.0669662 0.0165637 0.063479
            vertex -0.0590041 -0.0213813 0.0758172
            vertex -0.05847 0.0107406 0.0837851
        endloop
    endfacet
    facet normal 0.989548 -0.143493 -0.0143209
        outer loop
            vertex 1.00876 -0.00284372 0.0841794
            vertex 1 -0.0646529 0.0981985
            vertex 1.00018 -0.0587255 0.051245
        endloop
    endfacet
    facet normal -0.525613 0.768474 0.364936
        outer loop
            vertex -0.0293088 0.0699929 0.0577717
            vertex -0.039269 0.0549429 0.0751181
            vertex -0.0200397 0.0576089 0.0971998
        endloop
    endfacet
    facet normal -0.555703 0.400387 0.728618
        outer loop
            vertex -0.0337073 0.0202075 0.115248
            vertex 0.00172018 0.0352296 0.134013
            vertex -0.0210343 0.044184 0.111738
        endloop
    endfacet
    facet normal -0.762929 -0.121837 -0.634897
        outer loop
            vertex -0.076565 0.00559168 0.011
            vertex -0.065523 -0.00549368 -0.000141426
            vertex -0.0731407 -0.0235127 0.0124703
        endloop
    endfacet
    facet normal -0.628667 0.777342 -0.0227277
        outer loop
            vertex -0.0256201 0.0740492 0.0101434
            vertex -0.0620387 0.0446211 0.011
            vertex -0.051322 0.0543553 0.0475004
        endloop
    endfacet
    facet normal 0.728596 -0.163894 0.665046
        outer loop
            vertex 1 -0.0408706 0.139391
            vertex 1 0.00531102 0.150772
            vertex 0.989 -0.0346748 0.152969
        endloop
    endfacet
    facet normal 0.990105 -0.0872353 -0.109922
        outer loop
            vertex 1.00876 -0.00284372 0.0841794
            vertex 1.00018 -0.0587255 0.051245
            vertex 1.00037 -0.0164155 0.0193788
        endloop
    endfacet
    facet normal -0.5225 0.643933 0.558877
        outer loop
            vertex -0.0017379 0.0568437 0.115192
            vertex -0.0200397 0.0576089 0.0971998
            vertex -0.0210343 0.044184 0.111738
        endloop
    endfacet
    facet normal 0.631433 0.469432 -0.617192
        outer loop
            vertex 0.989 0.06819 0.0438588
            vertex 1 0.0306659 0.026572
            vertex 0.989 0.0269309 0.0124774
        endloop
    endfacet
    facet normal -0.614022 -0.261619 -0.744669
        outer loop
            vertex -0.0731407 -0.0235127 0.0124703
            vertex -0.065523 -0.00549368 -0.000141426
            vertex -0.0492613 -0.0436589 -0.000141812
        endloop
    endfacet
    facet normal -0.186153 -0.443182 0.87689
        outer loop
            vertex 0.0379293 -0.0542352 0.137934
            vertex 0.0612458 -0.0267201 0.15679
            vertex 0.0213364 -0.0315256 0.145889
        endloop
    endfacet
    facet normal 0.00181617 -0.997579 0.0695182
        outer loop
            vertex 0.00601867 -0.0751571 0.0972128
            vertex 0.989 -0.075142 0.0717489
            vertex 0.989 -0.0729578 0.103092
        endloop
    endfacet
    facet normal 0.589111 0.102589 0.801513
        outer loop
            vertex 0.989 0.0314527 0.155511
            vertex 0.989 -0.00405681 0.160056
            vertex 1 0.00531102 0.150772
        endloop
    endfacet
    facet normal 0.989692 -0.124024 0.0716049
        outer loop
            vertex 1.00876 -0.00284372 0.0841794
            vertex 1 -0.0408706 0.139391
            vertex 1 -0.0646529 0.0981985
        endloop
    endfacet
    facet normal 0.770909 0.102114 -0.628707
        outer loop
            vertex 1.00037 -0.0164155 0.0193788
            vertex 0.989 0.0269309 0.0124774
            vertex 1 0.0306659 0.026572
        endloop
    endfacet
    facet normal -0.297821 -0.509662 -0.807185
        outer loop
            vertex -0.0494063 -0.0611665 0.0109661
            vertex -0.0492613 -0.0436589 -0.000141812
            vertex -0.0141889 -0.0627696 -0.00101561
        endloop
    endfacet
    facet normal -0.856724 -0.110712 0.503753
        outer loop
            vertex -0.05847 0.0107406 0.0837851
            vertex -0.0590041 -0.0213813 0.0758172
            vertex -0.0465638 -0.00357297 0.100888
        endloop
    endfacet
    facet normal 0.990383 -0.0331054 0.134335
        outer loop
            vertex 1.00876 -0.00284372 0.0841794
            vertex 1 0.00531102 0.150772
            vertex 1 -0.0408706 0.139391
        endloop
    endfacet
    facet normal -0.000329304 -0.129417 0.99159
        outer loop
            vertex 0.0622314 0.00163441 0.160491
            vertex 0.0612458 -0.0267201 0.15679
            vertex 0.989 -0.00405681 0.160056
        endloop
    endfacet
    facet normal -0.386693 -0.0546763 0.920586
        outer loop
            vertex 0.00396012 0.0122896 0.144398
            vertex 0.012841 -0.0151788 0.146497
            vertex 0.0334026 -0.00288625 0.155864
        endloop
    endfacet
    facet normal 0.000531374 -0.911224 0.411911
        outer loop
            vertex 0.0269604 -0.0665872 0.118426
            vertex 0.989 -0.0729578 0.103092
            vertex 0.989016 -0.0608033 0.12998
        endloop
    endfacet
    facet normal -0.000166828 -0.927139 0.374718
        outer loop
            vertex 0.00601867 -0.0751571 0.0972128
            vertex 0.989 -0.0729578 0.103092
            vertex 0.0269604 -0.0665872 0.118426
        endloop
    endfacet
    facet normal -0.504925 -0.858765 0.0870212
        outer loop
            vertex -0.0494063 -0.0611665 0.0109661
            vertex -0.0216832 -0.0723681 0.0612818
            vertex -0.0407218 -0.0620756 0.0523849
        endloop
    endfacet
    facet normal -0.805393 -0.326733 0.494558
        outer loop
            vertex -0.04396 -0.0450344 0.0846901
            vertex -0.0450267 -0.0229229 0.0975611
            vertex -0.0590041 -0.0213813 0.0758172
        endloop
    endfacet
    facet normal 0.71211 -0.158318 0.683984
        outer loop
            vertex 0.989 -0.0346748 0.152969
            vertex 1 0.00531102 0.150772
            vertex 0.989 -0.00405681 0.160056
        endloop
    endfacet
    facet normal -0.592616 0.115535 0.797156
        outer loop
            vertex -0.0337073 0.0202075 0.115248
            vertex -0.0123134 -0.002703 0.134473
            vertex 0.00396012 0.0122896 0.144398
        endloop
    endfacet
    facet normal -0.910097 0.365167 0.1959
        outer loop
            vertex -0.0669662 0.0165637 0.063479
            vertex -0.0630298 0.0411061 0.0360183
            vertex -0.0722522 0.0239426 0.0251672
        endloop
    endfacet
    facet normal -0.714722 -0.645636 0.268935
        outer loop
            vertex -0.04396 -0.0450344 0.0846901
            vertex -0.0597329 -0.0473581 0.0371935
            vertex -0.0407218 -0.0620756 0.0523849
        endloop
    endfacet
    facet normal -0.667004 -0.395203 -0.631601
        outer loop
            vertex -0.0494063 -0.0611665 0.0109661
            vertex -0.0731407 -0.0235127 0.0124703
            vertex -0.0492613 -0.0436589 -0.000141812
        endloop
    endfacet
    facet normal -0.00285356 0.995201 0.0978119
        outer loop
            vertex 0.0158679 0.0729604 0.103878
            vertex 0.989 0.0766255 0.094977
            vertex -0.0029639 0.074757 0.0850488
        endloop
    endfacet
    facet normal -0.501881 -0.568648 0.651732
        outer loop
            vertex 0.0123519 -0.0528805 0.128347
            vertex -0.0218638 -0.0383518 0.114675
            vertex -0.0116559 -0.0568578 0.106389
        endloop
    endfacet
    facet normal -0.501807 -0.567383 0.652891
        outer loop
            vertex 0.0123519 -0.0528805 0.128347
            vertex -0.0126897 -0.0313062 0.127849
            vertex -0.0218638 -0.0383518 0.114675
        endloop
    endfacet
    facet normal -0.138357 -0.123453 0.982658
        outer loop
            vertex 0.0622314 0.00163441 0.160491
            vertex 0.0334026 -0.00288625 0.155864
            vertex 0.0612458 -0.0267201 0.15679
        endloop
    endfacet
    facet normal -0.970184 0.175097 0.167583
        outer loop
            vertex -0.0669662 0.0165637 0.063479
            vertex -0.0722522 0.0239426 0.0251672
            vertex -0.0742539 -0.00344061 0.0421897
        endloop
    endfacet
    facet normal -0.300484 0.745707 0.594668
        outer loop
            vertex 0.033365 0.0515473 0.139571
            vertex 0.0158679 0.0729604 0.103878
            vertex -0.0017379 0.0568437 0.115192
        endloop
    endfacet
    facet normal -0.404881 0.778718 0.479239
        outer loop
            vertex 0.0158679 0.0729604 0.103878
            vertex -0.0029639 0.074757 0.0850488
            vertex -0.0017379 0.0568437 0.115192
        endloop
    endfacet
    facet normal 0.0111074 0.986595 -0.162808
        outer loop
            vertex -0.0256201 0.0740492 0.0101434
            vertex 0.989 0.0766255 0.094977
            vertex 0.989 0.06819 0.0438588
        endloop
    endfacet
    facet normal -0.517643 0.773939 0.364779
        outer loop
            vertex -0.0293088 0.0699929 0.0577717
            vertex -0.0200397 0.0576089 0.0971998
            vertex -0.0029639 0.074757 0.0850488
        endloop
    endfacet
    facet normal 0.00207896 -0.225503 0.97424
        outer loop
            vertex 0.0612458 -0.0267201 0.15679
            vertex 0.989 -0.0346748 0.152969
            vertex 0.989 -0.00405681 0.160056
        endloop
    endfacet
    facet normal -0.804522 -0.516925 0.292459
        outer loop
            vertex -0.04396 -0.0450344 0.0846901
            vertex -0.0637615 -0.0303685 0.0561406
            vertex -0.0597329 -0.0473581 0.0371935
        endloop
    endfacet
    facet normal -0.49834 -0.189373 0.846047
        outer loop
            vertex -0.0126897 -0.0313062 0.127849
            vertex 0.012841 -0.0151788 0.146497
            vertex -0.0123134 -0.002703 0.134473
        endloop
    endfacet
    facet normal 0.75316 0.615068 0.233326
        outer loop
            vertex 1.00046 0.048692 0.13162
            vertex 1 0.0659329 0.0876565
            vertex 0.989 0.0766255 0.094977
        endloop
    endfacet
    facet normal -0.47518 0.533354 0.699813
        outer loop
            vertex -0.0017379 0.0568437 0.115192
            vertex -0.0210343 0.044184 0.111738
            vertex 0.00172018 0.0352296 0.134013
        endloop
    endfacet
    facet normal -0.00179442 0.999959 -0.00890618
        outer loop
            vertex -0.0256201 0.0740492 0.0101434
            vertex -0.0029639 0.074757 0.0850488
            vertex 0.989 0.0766255 0.094977
        endloop
    endfacet
    facet normal 0.990554 0.0282845 -0.134174
        outer loop
            vertex 1.00876 -0.00284372 0.0841794
            vertex 1.00037 -0.0164155 0.0193788
            vertex 1 0.0306659 0.026572
        endloop
    endfacet
    facet normal -0.562916 -0.179435 0.806801
        outer loop
            vertex -0.0295366 -0.0080363 0.12127
            vertex -0.0126897 -0.0313062 0.127849
            vertex -0.0123134 -0.002703 0.134473
        endloop
    endfacet
    facet normal 0.518756 0.555615 0.649757
        outer loop
            vertex 1.00046 0.048692 0.13162
            vertex 0.989 0.0604852 0.130685
            vertex 0.989 0.0314527 0.155511
        endloop
    endfacet
    facet normal 0.024084 -0.911184 -0.411294
        outer loop
            vertex 0.989 -0.0551831 0.0275318
            vertex 0.989 -0.075142 0.0717489
            vertex -0.0111179 -0.0740124 0.0106828
        endloop
    endfacet
    facet normal -0.00135384 -0.844534 0.5355
        outer loop
            vertex 0.0379293 -0.0542352 0.137934
            vertex 0.0269604 -0.0665872 0.118426
            vertex 0.989016 -0.0608033 0.12998
        endloop
    endfacet
    facet normal -0.774362 -0.16647 0.610451
        outer loop
            vertex -0.0295366 -0.0080363 0.12127
            vertex -0.0465638 -0.00357297 0.100888
            vertex -0.0450267 -0.0229229 0.0975611
        endloop
    endfacet
    facet normal -0.307891 -0.194649 0.931297
        outer loop
            vertex 0.0334026 -0.00288625 0.155864
            vertex 0.012841 -0.0151788 0.146497
            vertex 0.0213364 -0.0315256 0.145889
        endloop
    endfacet
    facet normal -0.945004 -0.286359 0.158006
        outer loop
            vertex -0.0742539 -0.00344061 0.0421897
            vertex -0.0731407 -0.0235127 0.0124703
            vertex -0.0637615 -0.0303685 0.0561406
        endloop
    endfacet
    facet normal -0.00166442 0.788904 0.614514
        outer loop
            vertex 0.033365 0.0515473 0.139571
            vertex 0.989 0.0604852 0.130685
            vertex 0.036146 0.0640568 0.123519
        endloop
    endfacet
    facet normal 0.520953 -0.319271 -0.791627
        outer loop
            vertex 0.989 -0.0551831 0.0275318
            vertex 0.989 -0.0121725 0.0101852
            vertex 1.00037 -0.0164155 0.0193788
        endloop
    endfacet
    facet normal 0.808048 0.424876 -0.408091
        outer loop
            vertex 0.989 0.06819 0.0438588
            vertex 1 0.0558272 0.0527682
            vertex 1 0.0306659 0.026572
        endloop
    endfacet
    facet normal 0.0273727 0.713938 -0.699674
        outer loop
            vertex -0.0256201 0.0740492 0.0101434
            vertex 0.989 0.06819 0.0438588
            vertex -0.0262654 0.0630595 -0.00109559
        endloop
    endfacet
    facet normal 0.990783 0.0976938 -0.0938343
        outer loop
            vertex 1.00876 -0.00284372 0.0841794
            vertex 1 0.0306659 0.026572
            vertex 1 0.0558272 0.0527682
        endloop
    endfacet
    facet normal -0.358972 -0.767262 0.531458
        outer loop
            vertex 0.0123519 -0.0528805 0.128347
            vertex -0.0116559 -0.0568578 0.106389
            vertex 0.0269604 -0.0665872 0.118426
        endloop
    endfacet
    facet normal -0.111683 -0.993703 0.00897221
        outer loop
            vertex 0.00601867 -0.0751571 0.0972128
            vertex -0.0216832 -0.0723681 0.0612818
            vertex -0.0111179 -0.0740124 0.0106828
        endloop
    endfacet
    facet normal 0.00098864 0.6499 0.760019
        outer loop
            vertex 0.033365 0.0515473 0.139571
            vertex 0.989 0.0314527 0.155511
            vertex 0.989 0.0604852 0.130685
        endloop
    endfacet
    facet normal -0.305024 0.121849 0.944517
        outer loop
            vertex 0.00396012 0.0122896 0.144398
            vertex 0.0334026 -0.00288625 0.155864
            vertex 0.0270633 0.0227619 0.150508
        endloop
    endfacet
    facet normal -0.703339 0.261775 -0.6609
        outer loop
            vertex -0.076565 0.00559168 0.011
            vertex -0.0620387 0.0446211 0.011
            vertex -0.0570323 0.0295629 -0.000292257
        endloop
    endfacet
    facet normal -0.369108 -0.676215 0.637568
        outer loop
            vertex 0.00601867 -0.0751571 0.0972128
            vertex 0.0269604 -0.0665872 0.118426
            vertex -0.0116559 -0.0568578 0.106389
        endloop
    endfacet
    facet normal -0.928108 -0.198425 0.315028
        outer loop
            vertex -0.0742539 -0.00344061 0.0421897
            vertex -0.0637615 -0.0303685 0.0561406
            vertex -0.0590041 -0.0213813 0.0758172
        endloop
    endfacet
    facet normal -0.519316 0.625734 -0.582038
        outer loop
            vertex -0.0256201 0.0740492 0.0101434
            vertex -0.0262654 0.0630595 -0.00109559
            vertex -0.0620387 0.0446211 0.011
        endloop
    endfacet
    facet normal -0.501925 -0.722903 0.47485
        outer loop
            vertex 0.00601867 -0.0751571 0.0972128
            vertex -0.0116559 -0.0568578 0.106389
            vertex -0.0282127 -0.0596093 0.0846993
        endloop
    endfacet
endsolid D:/Users/Paul Maroldt/Documents/!StartUp_Repositories/gen2_robot_data/ModuleLibrary/L148-1000/L148-1000_convdec.stl_created_by_BoundingMesh