solid D:/Users/Paul Maroldt/Documents/!StartUp_Repositories/module_type_database/0816_E-profile-clamp/0816_E-profile-clamp_convdec.stl_created_by_BoundingMesh
    facet normal 0.451125 0.892439 0.00626097
        outer loop
            vertex 0.0122891 0.0419816 0.038
            vertex 0.0221581 0.0370017 0.0367382
            vertex 0.0237622 0.0363714 0.011
        endloop
    endfacet
    facet normal -0.628935 0.758056 0.1726
        outer loop
            vertex -0.0188541 0.0394422 0.0380595
            vertex -0.0292396 0.031901 0.0333367
            vertex -0.023796 0.028525 0.068
        endloop
    endfacet
    facet normal 2.03231e-008 -0.330984 0.943637
        outer loop
            vertex -0.023796 -0.028525 0.068
            vertex 0.020379 -0.022819 0.0700014
            vertex -0.0203791 -0.0228193 0.0700013
        endloop
    endfacet
    facet normal -0.373486 -0.19029 0.907908
        outer loop
            vertex -0.023796 -0.028525 0.068
            vertex -0.0229168 -0.0206978 0.0700022
            vertex -0.0254 -0.0253768 0.068
        endloop
    endfacet
    facet normal 0.789346 0 -0.613948
        outer loop
            vertex 0.0342848 -0.00785796 -1.61709e-005
            vertex 0.0428531 0.00355091 0.011
            vertex 0.0428531 -0.00715094 0.011
        endloop
    endfacet
    facet normal 0.451423 -0.892202 0.0138886
        outer loop
            vertex 0.0122812 -0.0419823 0.038
            vertex 0.0174521 -0.0397863 0.011
            vertex 0.0221454 -0.0370109 0.0367443
        endloop
    endfacet
    facet normal 0.186713 -0.223719 0.956602
        outer loop
            vertex 0.023796 -0.028525 0.068
            vertex 0.0229171 -0.0206986 0.0700019
            vertex 0.020379 -0.022819 0.0700014
        endloop
    endfacet
    facet normal -0.00149109 0.00120172 -0.999998
        outer loop
            vertex -0.0343806 -0.00766563 -2.66157e-005
            vertex -0.0333659 0.0085818 -8.60383e-006
            vertex -0.0278701 0.0202616 -2.76272e-006
        endloop
    endfacet
    facet normal 0.1968 -0.777143 -0.59776
        outer loop
            vertex 0.0042648 -0.0346607 -5.40259e-006
            vertex 0.0174521 -0.0397863 0.011
            vertex 0.00358756 -0.0432973 0.011
        endloop
    endfacet
    facet normal 0.712734 0.385711 -0.585865
        outer loop
            vertex 0.0333762 0.0116138 -2.76436e-005
            vertex 0.0342849 0.0266848 0.011
            vertex 0.0410917 0.0141069 0.011
        endloop
    endfacet
    facet normal 0.660594 -0.362632 -0.657354
        outer loop
            vertex 0.0342848 -0.00785796 -1.61709e-005
            vertex 0.0382094 -0.020678 0.011
            vertex 0.0265644 -0.0219437 -4.16951e-006
        endloop
    endfacet
    facet normal 0.677019 0.735456 -0.0273885
        outer loop
            vertex 0.0304455 0.0310298 0.0327686
            vertex 0.0342849 0.0266848 0.011
            vertex 0.0237622 0.0363714 0.011
        endloop
    endfacet
    facet normal -0.592244 0.805599 0.0160002
        outer loop
            vertex -0.0188541 0.0394422 0.0380595
            vertex -0.0237622 0.0363714 0.011
            vertex -0.0292396 0.031901 0.0333367
        endloop
    endfacet
    facet normal -0.528238 -0.57383 -0.625846
        outer loop
            vertex -0.0237622 -0.0363714 0.011
            vertex -0.0316361 -0.0291231 0.011
            vertex -0.0267368 -0.0216348 -1.11849e-006
        endloop
    endfacet
    facet normal 0.000787262 -0.00128352 -0.999999
        outer loop
            vertex 0.0342848 -0.00785796 -1.61709e-005
            vertex 0.0265644 -0.0219437 -4.16951e-006
            vertex 0.0042648 -0.0346607 -5.40259e-006
        endloop
    endfacet
    facet normal -0.789085 -0.61419 -0.010795
        outer loop
            vertex -0.0304344 -0.0310489 0.0327289
            vertex -0.0382094 -0.020678 0.011
            vertex -0.0316361 -0.0291231 0.011
        endloop
    endfacet
    facet normal 0.610146 0.443568 -0.656482
        outer loop
            vertex 0.0333762 0.0116138 -2.76436e-005
            vertex 0.0235794 0.0251221 -5.75606e-006
            vertex 0.0342849 0.0266848 0.011
        endloop
    endfacet
    facet normal 0.00111991 0.0024325 -0.999996
        outer loop
            vertex 0.0333762 0.0116138 -2.76436e-005
            vertex 0.013028 0.0318197 -1.2807e-006
            vertex 0.0235794 0.0251221 -5.75606e-006
        endloop
    endfacet
    facet normal 0.0762668 -0.920355 0.383576
        outer loop
            vertex 0.0122812 -0.0419823 0.038
            vertex 0.023796 -0.028525 0.068
            vertex -0.00357679 -0.0432964 0.038
        endloop
    endfacet
    facet normal 0.759324 -0.650662 0.00813489
        outer loop
            vertex 0.029425 -0.0319639 0.011
            vertex 0.0349079 -0.025346 0.0285438
            vertex 0.0292396 -0.031901 0.0333367
        endloop
    endfacet
    facet normal 0.00343367 5.36362e-005 -0.999994
        outer loop
            vertex -0.0343806 -0.00766563 -2.66157e-005
            vertex -0.0278701 0.0202616 -2.76272e-006
            vertex -0.0267368 -0.0216348 -1.11849e-006
        endloop
    endfacet
    facet normal -0.789043 0.614157 -0.014926
        outer loop
            vertex -0.0382094 0.020678 0.011
            vertex -0.0349079 0.025346 0.0285438
            vertex -0.0316361 0.0291231 0.011
        endloop
    endfacet
    facet normal -0.677155 0.7356 -0.0188309
        outer loop
            vertex -0.0237622 0.0363714 0.011
            vertex -0.0316361 0.0291231 0.011
            vertex -0.0292396 0.031901 0.0333367
        endloop
    endfacet
    facet normal 3.23492e-006 0.758592 -0.651566
        outer loop
            vertex 0.00358756 0.0432973 0.011
            vertex 0.00436434 0.0338485 -8.47617e-007
            vertex -0.00744186 0.0338455 -4.40202e-006
        endloop
    endfacet
    facet normal -0.959552 0.281114 0.0153454
        outer loop
            vertex -0.0432229 0.0053877 0.0201771
            vertex -0.039648 0.0173951 0.023752
            vertex -0.0428531 0.00715094 0.011
        endloop
    endfacet
    facet normal -0.317007 -0.722707 -0.614166
        outer loop
            vertex -0.0237622 -0.0363714 0.011
            vertex -0.0106768 -0.0327596 -4.24577e-006
            vertex -0.0106653 -0.0421162 0.011
        endloop
    endfacet
    facet normal -0.186695 -0.223728 0.956604
        outer loop
            vertex -0.023796 -0.028525 0.068
            vertex -0.0203791 -0.0228193 0.0700013
            vertex -0.0229168 -0.0206978 0.0700022
        endloop
    endfacet
    facet normal -4.00726e-010 0.000169039 1
        outer loop
            vertex -0.0212145 0.0228354 0.0700004
            vertex 0.0229184 0.0198824 0.0700009
            vertex 0.0212145 0.0228355 0.0700004
        endloop
    endfacet
    facet normal 0.945568 -0.324603 -0.0231063
        outer loop
            vertex 0.0382094 -0.020678 0.011
            vertex 0.0428531 -0.00715094 0.011
            vertex 0.039648 -0.0173951 0.023752
        endloop
    endfacet
    facet normal -0.000106254 7.60075e-005 -1
        outer loop
            vertex 0.0042648 -0.0346607 -5.40259e-006
            vertex -0.0267368 -0.0216348 -1.11849e-006
            vertex 0.013028 0.0318197 -1.2807e-006
        endloop
    endfacet
    facet normal 0.871144 0.443845 0.210024
        outer loop
            vertex 0.023796 0.028525 0.068
            vertex 0.0254 0.0253768 0.068
            vertex 0.0367721 0.0226038 0.0266907
        endloop
    endfacet
    facet normal -0.941924 -0.0251123 0.334887
        outer loop
            vertex -0.0432229 0.0053877 0.0201771
            vertex -0.0427052 -0.00712661 0.0206948
            vertex -0.0254 -0.0253768 0.068
        endloop
    endfacet
    facet normal -0.792954 0 -0.609281
        outer loop
            vertex -0.0343806 -0.00766563 -2.66157e-005
            vertex -0.0428531 -0.00715094 0.011
            vertex -0.0428531 0.00715094 0.011
        endloop
    endfacet
    facet normal -0.660581 -0.362663 -0.65735
        outer loop
            vertex -0.0343806 -0.00766563 -2.66157e-005
            vertex -0.0267368 -0.0216348 -1.11849e-006
            vertex -0.0382094 -0.020678 0.011
        endloop
    endfacet
    facet normal -0.756338 0.654181 -0.00020973
        outer loop
            vertex -0.0292396 0.031901 0.0333367
            vertex -0.0316361 0.0291231 0.011
            vertex -0.0349079 0.025346 0.0285438
        endloop
    endfacet
    facet normal -0.591546 -0.806116 0.0158147
        outer loop
            vertex -0.0188543 -0.0394421 0.0380576
            vertex -0.0304344 -0.0310489 0.0327289
            vertex -0.0237622 -0.0363714 0.011
        endloop
    endfacet
    facet normal 0.999054 -0.0406939 0.0153431
        outer loop
            vertex 0.0428531 -0.00715094 0.011
            vertex 0.0431479 0.00357494 0.0202521
            vertex 0.0427052 -0.00712661 0.0206948
        endloop
    endfacet
    facet normal 0.626934 -0.487975 -0.607317
        outer loop
            vertex 0.029425 -0.0319639 0.011
            vertex 0.0265644 -0.0219437 -4.16951e-006
            vertex 0.0382094 -0.020678 0.011
        endloop
    endfacet
    facet normal 0.942437 -0.201035 0.267204
        outer loop
            vertex 0.0427052 -0.00712661 0.0206948
            vertex 0.0254 -0.0253768 0.068
            vertex 0.039648 -0.0173951 0.023752
        endloop
    endfacet
    facet normal 0.0825638 -0.996344 0.0219411
        outer loop
            vertex 0.0122812 -0.0419823 0.038
            vertex -0.00357679 -0.0432964 0.038
            vertex 0.00358756 -0.0432973 0.011
        endloop
    endfacet
    facet normal -0.683791 0.322078 -0.654748
        outer loop
            vertex -0.0382094 0.020678 0.011
            vertex -0.0278701 0.0202616 -2.76272e-006
            vertex -0.0333659 0.0085818 -8.60383e-006
        endloop
    endfacet
    facet normal 0.0762697 0.920355 0.383574
        outer loop
            vertex 0.0122891 0.0419816 0.038
            vertex -0.00357675 0.0432964 0.038
            vertex 0.023796 0.028525 0.068
        endloop
    endfacet
    facet normal 0.627668 0 0.778481
        outer loop
            vertex 0.0229171 -0.0206986 0.0700019
            vertex 0.0254 -0.0253768 0.068
            vertex 0.0254 0.0253768 0.068
        endloop
    endfacet
    facet normal -0.0648921 -0.783082 -0.618524
        outer loop
            vertex 0.0042648 -0.0346607 -5.40259e-006
            vertex 0.00358756 -0.0432973 0.011
            vertex -0.0106653 -0.0421162 0.011
        endloop
    endfacet
    facet normal 0.191626 0.75671 -0.625035
        outer loop
            vertex 0.00358756 0.0432973 0.011
            vertex 0.0139621 0.0406701 0.011
            vertex 0.013028 0.0318197 -1.2807e-006
        endloop
    endfacet
    facet normal -0.759719 0.0481655 -0.648465
        outer loop
            vertex -0.0343806 -0.00766563 -2.66157e-005
            vertex -0.0428531 0.00715094 0.011
            vertex -0.0333659 0.0085818 -8.60383e-006
        endloop
    endfacet
    facet normal -0.93704 0 0.349221
        outer loop
            vertex -0.0432229 0.0053877 0.0201771
            vertex -0.0254 -0.0253768 0.068
            vertex -0.0254 0.0253768 0.068
        endloop
    endfacet
    facet normal -0.627704 -2.21597e-006 0.778452
        outer loop
            vertex -0.0229168 -0.0206978 0.0700022
            vertex -0.0229188 0.019883 0.0700007
            vertex -0.0254 0.0253768 0.068
        endloop
    endfacet
    facet normal -0.0965362 -0.758329 -0.644685
        outer loop
            vertex 0.0042648 -0.0346607 -5.40259e-006
            vertex -0.0106653 -0.0421162 0.011
            vertex -0.0106768 -0.0327596 -4.24577e-006
        endloop
    endfacet
    facet normal 0.000595969 -0.000948085 -0.999999
        outer loop
            vertex 0.0042648 -0.0346607 -5.40259e-006
            vertex 0.0265644 -0.0219437 -4.16951e-006
            vertex 0.0169596 -0.0299041 -2.34654e-006
        endloop
    endfacet
    facet normal -0.4015 -0.915333 -0.031052
        outer loop
            vertex -0.0188543 -0.0394421 0.0380576
            vertex -0.0237622 -0.0363714 0.011
            vertex -0.0106653 -0.0421162 0.011
        endloop
    endfacet
    facet normal 0.985862 0.164503 -0.0318399
        outer loop
            vertex 0.0410917 0.0141069 0.011
            vertex 0.0431479 0.00357494 0.0202521
            vertex 0.0428531 0.00355091 0.011
        endloop
    endfacet
    facet normal 0.79769 0.133104 -0.588196
        outer loop
            vertex 0.0333762 0.0116138 -2.76436e-005
            vertex 0.0410917 0.0141069 0.011
            vertex 0.0428531 0.00355091 0.011
        endloop
    endfacet
    facet normal 0.900844 0.433948 0.0130059
        outer loop
            vertex 0.0410917 0.0141069 0.011
            vertex 0.0367721 0.0226038 0.0266907
            vertex 0.0409498 0.0140583 0.0224502
        endloop
    endfacet
    facet normal 0.401617 0.915598 -0.019589
        outer loop
            vertex 0.0122891 0.0419816 0.038
            vertex 0.0237622 0.0363714 0.011
            vertex 0.0139621 0.0406701 0.011
        endloop
    endfacet
    facet normal -0.317226 0.183215 0.930484
        outer loop
            vertex -0.023796 0.028525 0.068
            vertex -0.0229188 0.019883 0.0700007
            vertex -0.0212145 0.0228354 0.0700004
        endloop
    endfacet
    facet normal 0.348673 0.177648 0.920255
        outer loop
            vertex 0.023796 0.028525 0.068
            vertex 0.0229184 0.0198824 0.0700009
            vertex 0.0254 0.0253768 0.068
        endloop
    endfacet
    facet normal 0.373485 -0.19029 0.907909
        outer loop
            vertex 0.023796 -0.028525 0.068
            vertex 0.0254 -0.0253768 0.068
            vertex 0.0229171 -0.0206986 0.0700019
        endloop
    endfacet
    facet normal -0.870388 -0.44346 0.213935
        outer loop
            vertex -0.023796 -0.028525 0.068
            vertex -0.0254 -0.0253768 0.068
            vertex -0.0389638 -0.0196835 0.0246177
        endloop
    endfacet
    facet normal -0.999189 0 -0.0402635
        outer loop
            vertex -0.0432229 0.0053877 0.0201771
            vertex -0.0428531 0.00715094 0.011
            vertex -0.0428531 -0.00715094 0.011
        endloop
    endfacet
    facet normal -0.890362 0.401692 0.21424
        outer loop
            vertex -0.039648 0.0173951 0.023752
            vertex -0.0254 0.0253768 0.068
            vertex -0.0349079 0.025346 0.0285438
        endloop
    endfacet
    facet normal 0.999493 0 -0.031847
        outer loop
            vertex 0.0428531 -0.00715094 0.011
            vertex 0.0428531 0.00355091 0.011
            vertex 0.0431479 0.00357494 0.0202521
        endloop
    endfacet
    facet normal 0.586705 -0.809769 0.00715016
        outer loop
            vertex 0.029425 -0.0319639 0.011
            vertex 0.0292396 -0.031901 0.0333367
            vertex 0.0221454 -0.0370109 0.0367443
        endloop
    endfacet
    facet normal 0.86652 -0.49821 0.0305049
        outer loop
            vertex 0.0382094 -0.020678 0.011
            vertex 0.039648 -0.0173951 0.023752
            vertex 0.0349079 -0.025346 0.0285438
        endloop
    endfacet
    facet normal 0 -0.897145 0.441736
        outer loop
            vertex 0.023796 -0.028525 0.068
            vertex -0.023796 -0.028525 0.068
            vertex -0.00357679 -0.0432964 0.038
        endloop
    endfacet
    facet normal 0.40371 0.636445 -0.657234
        outer loop
            vertex 0.0237622 0.0363714 0.011
            vertex 0.0235794 0.0251221 -5.75606e-006
            vertex 0.013028 0.0318197 -1.2807e-006
        endloop
    endfacet
    facet normal 0.959551 -0.281115 0.0153438
        outer loop
            vertex 0.0428531 -0.00715094 0.011
            vertex 0.0427052 -0.00712661 0.0206948
            vertex 0.039648 -0.0173951 0.023752
        endloop
    endfacet
    facet normal 0.461208 -0.862152 0.209717
        outer loop
            vertex 0.0122812 -0.0419823 0.038
            vertex 0.0221454 -0.0370109 0.0367443
            vertex 0.023796 -0.028525 0.068
        endloop
    endfacet
    facet normal -0.315389 0.709198 -0.63053
        outer loop
            vertex -0.0237622 0.0363714 0.011
            vertex -0.00744186 0.0338455 -4.40202e-006
            vertex -0.0187585 0.0288156 -1.31761e-006
        endloop
    endfacet
    facet normal -0.365596 -0.663691 -0.652574
        outer loop
            vertex -0.0237622 -0.0363714 0.011
            vertex -0.0202951 -0.0274651 -4.17004e-007
            vertex -0.0106768 -0.0327596 -4.24577e-006
        endloop
    endfacet
    facet normal 0.266589 -0.711076 -0.650615
        outer loop
            vertex 0.0042648 -0.0346607 -5.40259e-006
            vertex 0.0169596 -0.0299041 -2.34654e-006
            vertex 0.0174521 -0.0397863 0.011
        endloop
    endfacet
    facet normal -0.748349 0.2569 -0.611535
        outer loop
            vertex -0.0382094 0.020678 0.011
            vertex -0.0333659 0.0085818 -8.60383e-006
            vertex -0.0428531 0.00715094 0.011
        endloop
    endfacet
    facet normal -0.959553 -0.281111 0.0153438
        outer loop
            vertex -0.0389638 -0.0196835 0.0246177
            vertex -0.0427052 -0.00712661 0.0206948
            vertex -0.0428531 -0.00715094 0.011
        endloop
    endfacet
    facet normal -0.999054 -0.0406948 0.0153431
        outer loop
            vertex -0.0432229 0.0053877 0.0201771
            vertex -0.0428531 -0.00715094 0.011
            vertex -0.0427052 -0.00712661 0.0206948
        endloop
    endfacet
    facet normal -0.677014 -0.735447 -0.0277398
        outer loop
            vertex -0.0304344 -0.0310489 0.0327289
            vertex -0.0316361 -0.0291231 0.011
            vertex -0.0237622 -0.0363714 0.011
        endloop
    endfacet
    facet normal -0.77063 -0.264549 -0.579779
        outer loop
            vertex -0.0343806 -0.00766563 -2.66157e-005
            vertex -0.0382094 -0.020678 0.011
            vertex -0.0428531 -0.00715094 0.011
        endloop
    endfacet
    facet normal -5.10287e-005 0.000207443 -1
        outer loop
            vertex 0.0042648 -0.0346607 -5.40259e-006
            vertex -0.0106768 -0.0327596 -4.24577e-006
            vertex -0.0267368 -0.0216348 -1.11849e-006
        endloop
    endfacet
    facet normal 0.000160655 -0.0005817 -1
        outer loop
            vertex 0.0333762 0.0116138 -2.76436e-005
            vertex 0.0342848 -0.00785796 -1.61709e-005
            vertex 0.0042648 -0.0346607 -5.40259e-006
        endloop
    endfacet
    facet normal 0.769454 -0.264145 -0.581523
        outer loop
            vertex 0.0342848 -0.00785796 -1.61709e-005
            vertex 0.0428531 -0.00715094 0.011
            vertex 0.0382094 -0.020678 0.011
        endloop
    endfacet
    facet normal -0.4015 0.915333 -0.0310502
        outer loop
            vertex -0.0188541 0.0394422 0.0380595
            vertex -0.0106653 0.0421162 0.011
            vertex -0.0237622 0.0363714 0.011
        endloop
    endfacet
    facet normal 0.176262 0.752832 -0.634173
        outer loop
            vertex 0.00358756 0.0432973 0.011
            vertex 0.013028 0.0318197 -1.2807e-006
            vertex 0.00436434 0.0338485 -8.47617e-007
        endloop
    endfacet
    facet normal 0.879367 0.475888 -0.0156182
        outer loop
            vertex 0.0342849 0.0266848 0.011
            vertex 0.0367721 0.0226038 0.0266907
            vertex 0.0410917 0.0141069 0.011
        endloop
    endfacet
    facet normal 0.770652 0.0355857 -0.636262
        outer loop
            vertex 0.0333762 0.0116138 -2.76436e-005
            vertex 0.0428531 0.00355091 0.011
            vertex 0.0342848 -0.00785796 -1.61709e-005
        endloop
    endfacet
    facet normal -0.626826 0.487894 -0.607493
        outer loop
            vertex -0.0382094 0.020678 0.011
            vertex -0.0316361 0.0291231 0.011
            vertex -0.0278701 0.0202616 -2.76272e-006
        endloop
    endfacet
    facet normal -0 0.33169 0.943388
        outer loop
            vertex -0.023796 0.028525 0.068
            vertex 0.0212145 0.0228355 0.0700004
            vertex 0.023796 0.028525 0.068
        endloop
    endfacet
    facet normal -0.232323 0.925502 0.299119
        outer loop
            vertex -0.0188541 0.0394422 0.0380595
            vertex -0.023796 0.028525 0.068
            vertex -0.00357675 0.0432964 0.038
        endloop
    endfacet
    facet normal -0.312761 0.713028 -0.627513
        outer loop
            vertex -0.0237622 0.0363714 0.011
            vertex -0.0106653 0.0421162 0.011
            vertex -0.00744186 0.0338455 -4.40202e-006
        endloop
    endfacet
    facet normal 0.890362 -0.401692 0.21424
        outer loop
            vertex 0.039648 -0.0173951 0.023752
            vertex 0.0254 -0.0253768 0.068
            vertex 0.0349079 -0.025346 0.0285438
        endloop
    endfacet
    facet normal 0.546929 -0.837125 -0.00946015
        outer loop
            vertex 0.029425 -0.0319639 0.011
            vertex 0.0221454 -0.0370109 0.0367443
            vertex 0.0174521 -0.0397863 0.011
        endloop
    endfacet
    facet normal 0.245362 -0.968909 -0.031814
        outer loop
            vertex 0.0122812 -0.0419823 0.038
            vertex 0.00358756 -0.0432973 0.011
            vertex 0.0174521 -0.0397863 0.011
        endloop
    endfacet
    facet normal 0.432024 -0.661253 -0.61327
        outer loop
            vertex 0.029425 -0.0319639 0.011
            vertex 0.0174521 -0.0397863 0.011
            vertex 0.0169596 -0.0299041 -2.34654e-006
        endloop
    endfacet
    facet normal -0.00109119 0.000205838 -0.999999
        outer loop
            vertex 0.0333762 0.0116138 -2.76436e-005
            vertex 0.0042648 -0.0346607 -5.40259e-006
            vertex 0.013028 0.0318197 -1.2807e-006
        endloop
    endfacet
    facet normal 0.628931 -0.75806 0.172599
        outer loop
            vertex 0.023796 -0.028525 0.068
            vertex 0.0221454 -0.0370109 0.0367443
            vertex 0.0292396 -0.031901 0.0333367
        endloop
    endfacet
    facet normal 0.979179 0.202585 0.0129946
        outer loop
            vertex 0.0410917 0.0141069 0.011
            vertex 0.0409498 0.0140583 0.0224502
            vertex 0.0431479 0.00357494 0.0202521
        endloop
    endfacet
    facet normal -2.55749e-006 -0.000232361 1
        outer loop
            vertex 0.0229171 -0.0206986 0.0700019
            vertex -0.0203791 -0.0228193 0.0700013
            vertex 0.020379 -0.022819 0.0700014
        endloop
    endfacet
    facet normal 0.318145 0.725301 -0.610509
        outer loop
            vertex 0.0237622 0.0363714 0.011
            vertex 0.013028 0.0318197 -1.2807e-006
            vertex 0.0139621 0.0406701 0.011
        endloop
    endfacet
    facet normal 0.482061 -0.581792 -0.655084
        outer loop
            vertex 0.029425 -0.0319639 0.011
            vertex 0.0169596 -0.0299041 -2.34654e-006
            vertex 0.0265644 -0.0219437 -4.16951e-006
        endloop
    endfacet
    facet normal 0.941924 -0.0251117 0.334887
        outer loop
            vertex 0.0427052 -0.00712661 0.0206948
            vertex 0.0431479 0.00357494 0.0202521
            vertex 0.0254 -0.0253768 0.068
        endloop
    endfacet
    facet normal -0.871225 0.443887 0.209596
        outer loop
            vertex -0.023796 0.028525 0.068
            vertex -0.0349079 0.025346 0.0285438
            vertex -0.0254 0.0253768 0.068
        endloop
    endfacet
    facet normal -0.348683 0.177653 0.92025
        outer loop
            vertex -0.023796 0.028525 0.068
            vertex -0.0254 0.0253768 0.068
            vertex -0.0229188 0.019883 0.0700007
        endloop
    endfacet
    facet normal 0.000300681 0.00149748 -0.999999
        outer loop
            vertex -0.00744186 0.0338455 -4.40202e-006
            vertex 0.00436434 0.0338485 -8.47617e-007
            vertex 0.013028 0.0318197 -1.2807e-006
        endloop
    endfacet
    facet normal -0.942817 -0.196899 0.268938
        outer loop
            vertex -0.0389638 -0.0196835 0.0246177
            vertex -0.0254 -0.0253768 0.068
            vertex -0.0427052 -0.00712661 0.0206948
        endloop
    endfacet
    facet normal 4.69688e-005 -3.79746e-005 -1
        outer loop
            vertex -0.0267368 -0.0216348 -1.11849e-006
            vertex -0.0278701 0.0202616 -2.76272e-006
            vertex 0.013028 0.0318197 -1.2807e-006
        endloop
    endfacet
    facet normal -0.86652 0.49821 0.0305049
        outer loop
            vertex -0.0382094 0.020678 0.011
            vertex -0.039648 0.0173951 0.023752
            vertex -0.0349079 0.025346 0.0285438
        endloop
    endfacet
    facet normal 0.461717 0.861927 0.209522
        outer loop
            vertex 0.0122891 0.0419816 0.038
            vertex 0.023796 0.028525 0.068
            vertex 0.0221581 0.0370017 0.0367382
        endloop
    endfacet
    facet normal 0.805615 -0.563971 0.181443
        outer loop
            vertex 0.023796 -0.028525 0.068
            vertex 0.0292396 -0.031901 0.0333367
            vertex 0.0349079 -0.025346 0.0285438
        endloop
    endfacet
    facet normal -0.0653328 0.7884 -0.611684
        outer loop
            vertex 0.00358756 0.0432973 0.011
            vertex -0.00744186 0.0338455 -4.40202e-006
            vertex -0.0106653 0.0421162 0.011
        endloop
    endfacet
    facet normal 0.808008 0.58864 0.0250189
        outer loop
            vertex 0.0304455 0.0310298 0.0327686
            vertex 0.0367721 0.0226038 0.0266907
            vertex 0.0342849 0.0266848 0.011
        endloop
    endfacet
    facet normal -0.528823 0.563403 -0.634762
        outer loop
            vertex -0.0278701 0.0202616 -2.76272e-006
            vertex -0.0316361 0.0291231 0.011
            vertex -0.0187585 0.0288156 -1.31761e-006
        endloop
    endfacet
    facet normal 0.000122334 -0.000304652 -1
        outer loop
            vertex -0.00744186 0.0338455 -4.40202e-006
            vertex 0.013028 0.0318197 -1.2807e-006
            vertex -0.0278701 0.0202616 -2.76272e-006
        endloop
    endfacet
    facet normal -0.00066022 0.000872196 -0.999999
        outer loop
            vertex -0.00744186 0.0338455 -4.40202e-006
            vertex -0.0278701 0.0202616 -2.76272e-006
            vertex -0.0187585 0.0288156 -1.31761e-006
        endloop
    endfacet
    facet normal -0.945568 0.324603 -0.0231063
        outer loop
            vertex -0.0382094 0.020678 0.011
            vertex -0.0428531 0.00715094 0.011
            vertex -0.039648 0.0173951 0.023752
        endloop
    endfacet
    facet normal 0.937342 0 0.34841
        outer loop
            vertex 0.0431479 0.00357494 0.0202521
            vertex 0.0254 0.0253768 0.068
            vertex 0.0254 -0.0253768 0.068
        endloop
    endfacet
    facet normal 0.627679 -9.57415e-007 0.778472
        outer loop
            vertex 0.0229171 -0.0206986 0.0700019
            vertex 0.0254 0.0253768 0.068
            vertex 0.0229184 0.0198824 0.0700009
        endloop
    endfacet
    facet normal -0.0825647 -0.996346 -0.0218751
        outer loop
            vertex -0.00357679 -0.0432964 0.038
            vertex -0.0106653 -0.0421162 0.011
            vertex 0.00358756 -0.0432973 0.011
        endloop
    endfacet
    facet normal 0.914507 0.333255 0.229385
        outer loop
            vertex 0.0409498 0.0140583 0.0224502
            vertex 0.0367721 0.0226038 0.0266907
            vertex 0.0254 0.0253768 0.068
        endloop
    endfacet
    facet normal 0.000110927 3.69088e-005 1
        outer loop
            vertex -0.0212145 0.0228354 0.0700004
            vertex -0.0229188 0.019883 0.0700007
            vertex -0.0229168 -0.0206978 0.0700022
        endloop
    endfacet
    facet normal -0.846177 -0.496039 0.194755
        outer loop
            vertex -0.023796 -0.028525 0.068
            vertex -0.0389638 -0.0196835 0.0246177
            vertex -0.0304344 -0.0310489 0.0327289
        endloop
    endfacet
    facet normal 0.789045 -0.614154 -0.0149249
        outer loop
            vertex 0.029425 -0.0319639 0.011
            vertex 0.0382094 -0.020678 0.011
            vertex 0.0349079 -0.025346 0.0285438
        endloop
    endfacet
    facet normal 0.871225 -0.443887 0.209596
        outer loop
            vertex 0.023796 -0.028525 0.068
            vertex 0.0349079 -0.025346 0.0285438
            vertex 0.0254 -0.0253768 0.068
        endloop
    endfacet
    facet normal -0.001185 -0.00142958 -0.999998
        outer loop
            vertex -0.0267368 -0.0216348 -1.11849e-006
            vertex -0.0106768 -0.0327596 -4.24577e-006
            vertex -0.0202951 -0.0274651 -4.17004e-007
        endloop
    endfacet
    facet normal -0.244486 -0.969408 0.0218127
        outer loop
            vertex -0.0188543 -0.0394421 0.0380576
            vertex -0.0106653 -0.0421162 0.011
            vertex -0.00357679 -0.0432964 0.038
        endloop
    endfacet
    facet normal 0.9473 0.138009 0.289096
        outer loop
            vertex 0.0409498 0.0140583 0.0224502
            vertex 0.0254 0.0253768 0.068
            vertex 0.0431479 0.00357494 0.0202521
        endloop
    endfacet
    facet normal 0.589886 0.807308 0.0169938
        outer loop
            vertex 0.0304455 0.0310298 0.0327686
            vertex 0.0237622 0.0363714 0.011
            vertex 0.0221581 0.0370017 0.0367382
        endloop
    endfacet
    facet normal 0.846688 0.495071 0.194999
        outer loop
            vertex 0.023796 0.028525 0.068
            vertex 0.0367721 0.0226038 0.0266907
            vertex 0.0304455 0.0310298 0.0327686
        endloop
    endfacet
    facet normal 0.538372 0.584842 -0.606726
        outer loop
            vertex 0.0342849 0.0266848 0.011
            vertex 0.0235794 0.0251221 -5.75606e-006
            vertex 0.0237622 0.0363714 0.011
        endloop
    endfacet
    facet normal 0.0825668 0.996344 0.0219418
        outer loop
            vertex 0.0122891 0.0419816 0.038
            vertex 0.00358756 0.0432973 0.011
            vertex -0.00357675 0.0432964 0.038
        endloop
    endfacet
    facet normal -1.00129e-005 1.94001e-005 1
        outer loop
            vertex -0.0212145 0.0228354 0.0700004
            vertex -0.0203791 -0.0228193 0.0700013
            vertex 0.0229184 0.0198824 0.0700009
        endloop
    endfacet
    facet normal -0 0.897145 0.441736
        outer loop
            vertex -0.023796 0.028525 0.068
            vertex 0.023796 0.028525 0.068
            vertex -0.00357675 0.0432964 0.038
        endloop
    endfacet
    facet normal -0.625393 -0.486779 -0.60986
        outer loop
            vertex -0.0382094 -0.020678 0.011
            vertex -0.0267368 -0.0216348 -1.11849e-006
            vertex -0.0316361 -0.0291231 0.011
        endloop
    endfacet
    facet normal -0.52095 -0.575656 -0.630263
        outer loop
            vertex -0.0237622 -0.0363714 0.011
            vertex -0.0267368 -0.0216348 -1.11849e-006
            vertex -0.0202951 -0.0274651 -4.17004e-007
        endloop
    endfacet
    facet normal -0.942437 0.201034 0.267204
        outer loop
            vertex -0.0432229 0.0053877 0.0201771
            vertex -0.0254 0.0253768 0.068
            vertex -0.039648 0.0173951 0.023752
        endloop
    endfacet
    facet normal -0.525424 0.570773 -0.630989
        outer loop
            vertex -0.0237622 0.0363714 0.011
            vertex -0.0187585 0.0288156 -1.31761e-006
            vertex -0.0316361 0.0291231 0.011
        endloop
    endfacet
    facet normal -0.24448 0.969409 0.0218114
        outer loop
            vertex -0.0188541 0.0394422 0.0380595
            vertex -0.00357675 0.0432964 0.038
            vertex -0.0106653 0.0421162 0.011
        endloop
    endfacet
    facet normal -0.799665 -0.600446 -0.000449546
        outer loop
            vertex -0.0389638 -0.0196835 0.0246177
            vertex -0.0382094 -0.020678 0.011
            vertex -0.0304344 -0.0310489 0.0327289
        endloop
    endfacet
    facet normal 0.245361 0.968908 -0.0318605
        outer loop
            vertex 0.0122891 0.0419816 0.038
            vertex 0.0139621 0.0406701 0.011
            vertex 0.00358756 0.0432973 0.011
        endloop
    endfacet
    facet normal -0.0825647 0.996346 -0.021875
        outer loop
            vertex -0.00357675 0.0432964 0.038
            vertex 0.00358756 0.0432973 0.011
            vertex -0.0106653 0.0421162 0.011
        endloop
    endfacet
    facet normal -0.232363 -0.925501 0.299091
        outer loop
            vertex -0.0188543 -0.0394421 0.0380576
            vertex -0.00357679 -0.0432964 0.038
            vertex -0.023796 -0.028525 0.068
        endloop
    endfacet
    facet normal 0.628931 0.75806 0.172598
        outer loop
            vertex 0.023796 0.028525 0.068
            vertex 0.0304455 0.0310298 0.0327686
            vertex 0.0221581 0.0370017 0.0367382
        endloop
    endfacet
    facet normal -7.86297e-007 0.331685 0.94339
        outer loop
            vertex -0.023796 0.028525 0.068
            vertex -0.0212145 0.0228354 0.0700004
            vertex 0.0212145 0.0228355 0.0700004
        endloop
    endfacet
    facet normal -0.627679 0 0.778472
        outer loop
            vertex -0.0229168 -0.0206978 0.0700022
            vertex -0.0254 0.0253768 0.068
            vertex -0.0254 -0.0253768 0.068
        endloop
    endfacet
    facet normal -0.945432 -0.324557 -0.0286729
        outer loop
            vertex -0.0389638 -0.0196835 0.0246177
            vertex -0.0428531 -0.00715094 0.011
            vertex -0.0382094 -0.020678 0.011
        endloop
    endfacet
    facet normal 0 -0.330983 0.943637
        outer loop
            vertex 0.023796 -0.028525 0.068
            vertex 0.020379 -0.022819 0.0700014
            vertex -0.023796 -0.028525 0.068
        endloop
    endfacet
    facet normal 0.000377396 2.6489e-005 1
        outer loop
            vertex -0.0212145 0.0228354 0.0700004
            vertex -0.0229168 -0.0206978 0.0700022
            vertex -0.0203791 -0.0228193 0.0700013
        endloop
    endfacet
    facet normal -1.51439e-005 2.46026e-005 1
        outer loop
            vertex 0.0229171 -0.0206986 0.0700019
            vertex 0.0229184 0.0198824 0.0700009
            vertex -0.0203791 -0.0228193 0.0700013
        endloop
    endfacet
    facet normal -0.62889 -0.758092 0.172611
        outer loop
            vertex -0.0188543 -0.0394421 0.0380576
            vertex -0.023796 -0.028525 0.068
            vertex -0.0304344 -0.0310489 0.0327289
        endloop
    endfacet
    facet normal 0.317249 0.183206 0.930478
        outer loop
            vertex 0.023796 0.028525 0.068
            vertex 0.0212145 0.0228355 0.0700004
            vertex 0.0229184 0.0198824 0.0700009
        endloop
    endfacet
    facet normal -0.805615 0.563971 0.181443
        outer loop
            vertex -0.023796 0.028525 0.068
            vertex -0.0292396 0.031901 0.0333367
            vertex -0.0349079 0.025346 0.0285438
        endloop
    endfacet
endsolid D:/Users/Paul Maroldt/Documents/!StartUp_Repositories/module_type_database/0816_E-profile-clamp/0816_E-profile-clamp_convdec.stl_created_by_BoundingMesh