solid C:/Users/felix/Documents/Solidworks/Connector Clamps/C116/C116_convdec.stl_created_by_BoundingMesh
    facet normal -0.0860066 -0.996294 0.00115042
        outer loop
            vertex -0.00742252 -0.0616246 -0.0090875
            vertex -0.000778719 -0.0621776 0.0087
            vertex -0.0074701 -0.0615995 0.0090934
        endloop
    endfacet
    facet normal 0.00500629 -0.573534 -0.819166
        outer loop
            vertex -0.00742252 -0.0616246 -0.0090875
            vertex 0.00743541 -0.0616177 -0.00900153
            vertex -0.00111161 -0.0622026 -0.00864425
        endloop
    endfacet
    facet normal -0.400557 0.271047 -0.875264
        outer loop
            vertex -0.0542235 0.0222074 -0.00915808
            vertex -0.0481871 0.0326073 -0.0087
            vertex -0.0424671 0.0399675 -0.00903844
        endloop
    endfacet
    facet normal -0.00729996 0.00328663 0.999968
        outer loop
            vertex -0.0542344 -0.0222226 0.00914848
            vertex -0.0581095 6.12239e-005 0.00904695
            vertex -0.0575707 -0.00905599 0.00908085
        endloop
    endfacet
    facet normal 0.0145451 -0.000942267 0.999894
        outer loop
            vertex 0.0541388 -0.0226248 0.00908382
            vertex 0.0581088 6.27589e-005 0.00904745
            vertex 0.0575848 0.00911195 0.0090636
        endloop
    endfacet
    facet normal -0.00464556 0.52551 0.850774
        outer loop
            vertex 0.00748239 0.0615931 0.00909764
            vertex 0.000778719 0.0621776 0.0087
            vertex -0.00743601 0.0616174 0.00900117
        endloop
    endfacet
    facet normal -0.00399528 0.00938082 -0.999948
        outer loop
            vertex -0.0542235 0.0222074 -0.00915808
            vertex -0.0424671 0.0399675 -0.00903844
            vertex -0.0339425 0.0476764 -0.00900018
        endloop
    endfacet
    facet normal -0.998258 -0.0589941 1.53249e-008
        outer loop
            vertex -0.0575707 -0.00905599 0.00908085
            vertex -0.0581095 6.12239e-005 0.00904695
            vertex -0.0581095 6.12192e-005 -0.00904695
        endloop
    endfacet
    facet normal -0.969315 0.245815 0.00180502
        outer loop
            vertex -0.0543497 0.0217619 0.0090803
            vertex -0.0575826 0.00914693 -0.00905863
            vertex -0.0576099 0.00890603 0.00908635
        endloop
    endfacet
    facet normal -0.572391 0.819342 0.0323755
        outer loop
            vertex -0.0339425 0.0476764 -0.00900018
            vertex -0.0399494 0.0427687 0.00900079
            vertex -0.029745 0.0498975 0.00900018
        endloop
    endfacet
    facet normal 0.86088 -0.50871 -0.00995939
        outer loop
            vertex 0.0542959 -0.0220012 -0.0091889
            vertex 0.0541388 -0.0226248 0.00908382
            vertex 0.0474296 -0.0339771 0.00900472
        endloop
    endfacet
    facet normal 0.998424 0.0561159 3.47002e-005
        outer loop
            vertex 0.0576016 0.00909811 -0.00905719
            vertex 0.0581088 6.27589e-005 0.00904745
            vertex 0.0581095 6.14871e-005 -0.00904704
        endloop
    endfacet
    facet normal -0.00832234 -0.00306911 -0.999961
        outer loop
            vertex 0.0543319 0.0217959 -0.00906895
            vertex 0.0576016 0.00909811 -0.00905719
            vertex 0.0395205 0.0430683 -0.00901097
        endloop
    endfacet
    facet normal 0.000471988 -0.000234832 -1
        outer loop
            vertex 0.0395205 0.0430683 -0.00901097
            vertex 0.00743541 -0.0616177 -0.00900153
            vertex -0.0581095 6.12192e-005 -0.00904695
        endloop
    endfacet
    facet normal 0.0682789 -0.997666 0.000127573
        outer loop
            vertex 0.00743541 -0.0616177 -0.00900153
            vertex -0.000778719 -0.0621776 0.0087
            vertex -0.00111161 -0.0622026 -0.00864425
        endloop
    endfacet
    facet normal -0.465073 0.885272 1.332e-006
        outer loop
            vertex -0.029745 0.0498975 0.00900018
            vertex -0.00743601 0.0616174 0.00900117
            vertex -0.00743492 0.061618 -0.00900142
        endloop
    endfacet
    facet normal 0.754184 0.656663 0.000591147
        outer loop
            vertex 0.0395205 0.0430683 -0.00901097
            vertex 0.0473824 0.0340226 0.00900594
            vertex 0.0474168 0.0339993 -0.00900064
        endloop
    endfacet
    facet normal 0.000959326 -0.00134114 -0.999999
        outer loop
            vertex 0.0395205 0.0430683 -0.00901097
            vertex -0.0581095 6.12192e-005 -0.00904695
            vertex -0.0575826 0.00914693 -0.00905863
        endloop
    endfacet
    facet normal -0.0680315 0.997683 0.000132346
        outer loop
            vertex -0.00743601 0.0616174 0.00900117
            vertex 0.000778719 0.0621776 0.0087
            vertex 0.00111161 0.0622026 -0.00864425
        endloop
    endfacet
    facet normal 0.0221479 0.0181455 -0.99959
        outer loop
            vertex 0.0543319 0.0217959 -0.00906895
            vertex 0.0395205 0.0430683 -0.00901097
            vertex 0.0474168 0.0339993 -0.00900064
        endloop
    endfacet
    facet normal 0.998327 0.0578072 0.000881467
        outer loop
            vertex 0.0576016 0.00909811 -0.00905719
            vertex 0.0575848 0.00911195 0.0090636
            vertex 0.0581088 6.27589e-005 0.00904745
        endloop
    endfacet
    facet normal 0.572516 -0.819526 0.024543
        outer loop
            vertex 0.0399602 -0.0427612 0.00900056
            vertex 0.029745 -0.0498975 0.00900013
            vertex 0.0329448 -0.0482012 -0.00899998
        endloop
    endfacet
    facet normal 0.0265857 0.0412545 0.998795
        outer loop
            vertex 0.0395205 0.0430683 0.00901001
            vertex 0.0298231 0.049843 0.00898831
            vertex 0.00748239 0.0615931 0.00909764
        endloop
    endfacet
    facet normal 0.998258 -0.0589916 -5.17496e-006
        outer loop
            vertex 0.057575 -0.00898496 0.00909105
            vertex 0.0575529 -0.00935732 -0.00903765
            vertex 0.0581095 6.14871e-005 -0.00904704
        endloop
    endfacet
    facet normal -0.465491 0.885052 -0.000660574
        outer loop
            vertex -0.0339425 0.0476764 -0.00900018
            vertex -0.029745 0.0498975 0.00900018
            vertex -0.00743492 0.061618 -0.00900142
        endloop
    endfacet
    facet normal 0.000192024 -5.77271e-005 1
        outer loop
            vertex 0.0541388 -0.0226248 0.00908382
            vertex 0.00748239 0.0615931 0.00909764
            vertex -0.0074701 -0.0615995 0.0090934
        endloop
    endfacet
    facet normal 0.465493 0.885052 -7.58876e-007
        outer loop
            vertex 0.00739927 0.0616368 -0.00907877
            vertex 0.00748239 0.0615931 0.00909764
            vertex 0.0298231 0.049843 -0.00900009
        endloop
    endfacet
    facet normal -0.00450012 0.00652718 0.999969
        outer loop
            vertex -0.0399494 0.0427687 0.00900079
            vertex -0.0474889 0.0338724 0.00902493
            vertex -0.029745 0.0498975 0.00900018
        endloop
    endfacet
    facet normal -0.998322 0.0578941 -0.000733547
        outer loop
            vertex -0.0576099 0.00890603 0.00908635
            vertex -0.0575826 0.00914693 -0.00905863
            vertex -0.0581095 6.12192e-005 -0.00904695
        endloop
    endfacet
    facet normal 0.465488 -0.885054 -0.000658177
        outer loop
            vertex 0.0329448 -0.0482012 -0.00899998
            vertex 0.029745 -0.0498975 0.00900013
            vertex 0.00743541 -0.0616177 -0.00900153
        endloop
    endfacet
    facet normal -0.969364 -0.245628 1.3927e-006
        outer loop
            vertex -0.054352 -0.0217586 -0.00906982
            vertex -0.0542344 -0.0222226 0.00914848
            vertex -0.0575707 -0.00905599 0.00908085
        endloop
    endfacet
    facet normal 0.0155319 -0.00422762 0.99987
        outer loop
            vertex -0.0543497 0.0217619 0.0090803
            vertex -0.0581095 6.12239e-005 0.00904695
            vertex -0.0474889 0.0338724 0.00902493
        endloop
    endfacet
    facet normal 0.00110101 -0.00174673 -0.999998
        outer loop
            vertex 0.0395205 0.0430683 -0.00901097
            vertex -0.0575826 0.00914693 -0.00905863
            vertex 0.00739927 0.0616368 -0.00907877
        endloop
    endfacet
    facet normal -0.0277151 0.00645217 0.999595
        outer loop
            vertex 0.0541388 -0.0226248 0.00908382
            vertex 0.057575 -0.00898496 0.00909105
            vertex 0.0581088 6.27589e-005 0.00904745
        endloop
    endfacet
    facet normal 0.400537 -0.271044 -0.875274
        outer loop
            vertex 0.0542959 -0.0220012 -0.0091889
            vertex 0.0481871 -0.0326073 -0.0087
            vertex 0.0425302 -0.0399131 -0.0090263
        endloop
    endfacet
    facet normal -0.968482 0.249085 -0.000617201
        outer loop
            vertex -0.0543497 0.0217619 0.0090803
            vertex -0.0542235 0.0222074 -0.00915808
            vertex -0.0575826 0.00914693 -0.00905863
        endloop
    endfacet
    facet normal -0.0116345 -0.0141914 0.999832
        outer loop
            vertex -0.0074701 -0.0615995 0.0090934
            vertex -0.0474273 -0.0339437 0.00902098
            vertex -0.0298231 -0.049843 0.00900016
        endloop
    endfacet
    facet normal -0.00146911 0.000796631 0.999999
        outer loop
            vertex 0.0541388 -0.0226248 0.00908382
            vertex 0.0575848 0.00911195 0.0090636
            vertex 0.0395205 0.0430683 0.00901001
        endloop
    endfacet
    facet normal 0.869998 0.49302 -0.00586673
        outer loop
            vertex 0.0543319 0.0217959 -0.00906895
            vertex 0.0474168 0.0339993 -0.00900064
            vertex 0.0542303 0.0221921 0.00915972
        endloop
    endfacet
    facet normal 0.00482923 -0.00738796 0.999961
        outer loop
            vertex 0.0541388 -0.0226248 0.00908382
            vertex -0.0074701 -0.0615995 0.0090934
            vertex 0.029745 -0.0498975 0.00900013
        endloop
    endfacet
    facet normal 0.0249784 -0.00586398 0.999671
        outer loop
            vertex -0.0543497 0.0217619 0.0090803
            vertex -0.0576099 0.00890603 0.00908635
            vertex -0.0581095 6.12239e-005 0.00904695
        endloop
    endfacet
    facet normal -0.00522647 0.00984833 -0.999938
        outer loop
            vertex -0.0339425 0.0476764 -0.00900018
            vertex -0.00743492 0.061618 -0.00900142
            vertex 0.00739927 0.0616368 -0.00907877
        endloop
    endfacet
    facet normal 0.004601 -0.525646 0.850691
        outer loop
            vertex -0.0074701 -0.0615995 0.0090934
            vertex -0.000778719 -0.0621776 0.0087
            vertex 0.00743872 -0.061616 0.00900257
        endloop
    endfacet
    facet normal -0.00499828 0.573549 -0.819156
        outer loop
            vertex 0.00739927 0.0616368 -0.00907877
            vertex -0.00743492 0.061618 -0.00900142
            vertex 0.00111161 0.0622026 -0.00864425
        endloop
    endfacet
    facet normal 0.653796 -0.756215 -0.0262676
        outer loop
            vertex 0.0399602 -0.0427612 0.00900056
            vertex 0.0329448 -0.0482012 -0.00899998
            vertex 0.0425302 -0.0399131 -0.0090263
        endloop
    endfacet
    facet normal 0.0681803 -0.997673 8.15968e-005
        outer loop
            vertex 0.00743541 -0.0616177 -0.00900153
            vertex 0.00743872 -0.061616 0.00900257
            vertex -0.000778719 -0.0621776 0.0087
        endloop
    endfacet
    facet normal 0.00577896 0.0140651 -0.999884
        outer loop
            vertex -0.0395398 -0.0430549 -0.00901191
            vertex 0.00743541 -0.0616177 -0.00900153
            vertex -0.00742252 -0.0616246 -0.0090875
        endloop
    endfacet
    facet normal -0.00546329 0.0105497 -0.999929
        outer loop
            vertex -0.0542235 0.0222074 -0.00915808
            vertex -0.0339425 0.0476764 -0.00900018
            vertex 0.00739927 0.0616368 -0.00907877
        endloop
    endfacet
    facet normal 0.00607929 -0.0113638 0.999917
        outer loop
            vertex -0.0074701 -0.0615995 0.0090934
            vertex 0.00743872 -0.061616 0.00900257
            vertex 0.029745 -0.0498975 0.00900013
        endloop
    endfacet
    facet normal 0.037905 0.0111442 0.999219
        outer loop
            vertex -0.0542344 -0.0222226 0.00914848
            vertex -0.0474273 -0.0339437 0.00902098
            vertex -0.0581095 6.12239e-005 0.00904695
        endloop
    endfacet
    facet normal 0.000181584 0.000594231 1
        outer loop
            vertex -0.0474889 0.0338724 0.00902493
            vertex -0.0581095 6.12239e-005 0.00904695
            vertex -0.00743601 0.0616174 0.00900117
        endloop
    endfacet
    facet normal 0.00737199 -0.0095101 -0.999928
        outer loop
            vertex -0.0542235 0.0222074 -0.00915808
            vertex 0.00739927 0.0616368 -0.00907877
            vertex -0.0575826 0.00914693 -0.00905863
        endloop
    endfacet
    facet normal 0.0867434 0.996229 0.00199855
        outer loop
            vertex 0.00739927 0.0616368 -0.00907877
            vertex 0.000778719 0.0621776 0.0087
            vertex 0.00748239 0.0615931 0.00909764
        endloop
    endfacet
    facet normal -0.0064564 0.00605864 0.999961
        outer loop
            vertex 0.00748239 0.0615931 0.00909764
            vertex -0.00743601 0.0616174 0.00900117
            vertex -0.0581095 6.12239e-005 0.00904695
        endloop
    endfacet
    facet normal -0.00299142 -0.00170342 0.999994
        outer loop
            vertex -0.0074701 -0.0615995 0.0090934
            vertex -0.0581095 6.12239e-005 0.00904695
            vertex -0.0474273 -0.0339437 0.00902098
        endloop
    endfacet
    facet normal 0.00140553 -0.00106248 -0.999998
        outer loop
            vertex 0.0425302 -0.0399131 -0.0090263
            vertex 0.0576016 0.00909811 -0.00905719
            vertex 0.0575529 -0.00935732 -0.00903765
        endloop
    endfacet
    facet normal 0.761702 -0.647691 -0.0175217
        outer loop
            vertex 0.0399602 -0.0427612 0.00900056
            vertex 0.0481871 -0.0326073 -0.0087
            vertex 0.0474296 -0.0339771 0.00900472
        endloop
    endfacet
    facet normal -0.864835 0.502053 -0.00176712
        outer loop
            vertex -0.0542235 0.0222074 -0.00915808
            vertex -0.0474889 0.0338724 0.00902493
            vertex -0.0481871 0.0326073 -0.0087
        endloop
    endfacet
    facet normal 0.572697 0.819767 -0
        outer loop
            vertex 0.0395205 0.0430683 -0.00901097
            vertex 0.0298231 0.049843 0.00898831
            vertex 0.0395205 0.0430683 0.00901001
        endloop
    endfacet
    facet normal 0.968653 0.248418 -4.49093e-007
        outer loop
            vertex 0.0543319 0.0217959 -0.00906895
            vertex 0.0542303 0.0221921 0.00915972
            vertex 0.0575848 0.00911195 0.0090636
        endloop
    endfacet
    facet normal 0.00109595 -0.00106166 -0.999999
        outer loop
            vertex 0.0576016 0.00909811 -0.00905719
            vertex 0.0581095 6.14871e-005 -0.00904704
            vertex 0.0575529 -0.00935732 -0.00903765
        endloop
    endfacet
    facet normal -0.0020457 0.00380955 0.999991
        outer loop
            vertex -0.0474889 0.0338724 0.00902493
            vertex -0.00743601 0.0616174 0.00900117
            vertex -0.029745 0.0498975 0.00900018
        endloop
    endfacet
    facet normal -0.000835671 6.70093e-005 1
        outer loop
            vertex 0.00748239 0.0615931 0.00909764
            vertex -0.0581095 6.12239e-005 0.00904695
            vertex -0.0074701 -0.0615995 0.0090934
        endloop
    endfacet
    facet normal -0.756053 -0.654511 5.67018e-007
        outer loop
            vertex -0.0395398 -0.0430549 -0.00901191
            vertex -0.0395397 -0.043055 0.00900055
            vertex -0.0474273 -0.0339437 0.00902098
        endloop
    endfacet
    facet normal -0.572692 -0.81977 -1.3797e-006
        outer loop
            vertex -0.0395398 -0.0430549 -0.00901191
            vertex -0.0298231 -0.049843 -0.00900006
            vertex -0.0395397 -0.043055 0.00900055
        endloop
    endfacet
    facet normal -0.000120709 -0.000864679 -1
        outer loop
            vertex -0.0395398 -0.0430549 -0.00901191
            vertex -0.0581095 6.12192e-005 -0.00904695
            vertex 0.00743541 -0.0616177 -0.00900153
        endloop
    endfacet
    facet normal -0.0228584 -0.0186167 -0.999565
        outer loop
            vertex -0.054352 -0.0217586 -0.00906982
            vertex -0.0395398 -0.0430549 -0.00901191
            vertex -0.0474168 -0.0339996 -0.00900043
        endloop
    endfacet
    facet normal -0.870051 0.492926 0.00602008
        outer loop
            vertex -0.0543497 0.0217619 0.0090803
            vertex -0.0474889 0.0338724 0.00902493
            vertex -0.0542235 0.0222074 -0.00915808
        endloop
    endfacet
    facet normal -0.465493 -0.885051 3.70406e-006
        outer loop
            vertex -0.00742252 -0.0616246 -0.0090875
            vertex -0.0074701 -0.0615995 0.0090934
            vertex -0.0298231 -0.049843 -0.00900006
        endloop
    endfacet
    facet normal -0.789175 0.61399 0.014801
        outer loop
            vertex -0.0399494 0.0427687 0.00900079
            vertex -0.0424671 0.0399675 -0.00903844
            vertex -0.0481871 0.0326073 -0.0087
        endloop
    endfacet
    facet normal -0.465491 -0.885053 0
        outer loop
            vertex -0.0074701 -0.0615995 0.0090934
            vertex -0.0298231 -0.049843 0.00900016
            vertex -0.0298231 -0.049843 -0.00900006
        endloop
    endfacet
    facet normal 0.00441854 -0.00828567 -0.999956
        outer loop
            vertex 0.0329448 -0.0482012 -0.00899998
            vertex 0.00743541 -0.0616177 -0.00900153
            vertex 0.0425302 -0.0399131 -0.0090263
        endloop
    endfacet
    facet normal 0.000711066 -0.00107814 0.999999
        outer loop
            vertex 0.0399602 -0.0427612 0.00900056
            vertex 0.0474296 -0.0339771 0.00900472
            vertex 0.029745 -0.0498975 0.00900013
        endloop
    endfacet
    facet normal 0.969702 -0.244291 1.65779e-007
        outer loop
            vertex 0.0542959 -0.0220012 -0.0091889
            vertex 0.057575 -0.00898496 0.00909105
            vertex 0.0541388 -0.0226248 0.00908382
        endloop
    endfacet
    facet normal 0.866511 -0.499156 -0.00154545
        outer loop
            vertex 0.0542959 -0.0220012 -0.0091889
            vertex 0.0474296 -0.0339771 0.00900472
            vertex 0.0481871 -0.0326073 -0.0087
        endloop
    endfacet
    facet normal 0.046241 0.0397403 0.99814
        outer loop
            vertex 0.0542303 0.0221921 0.00915972
            vertex 0.0473824 0.0340226 0.00900594
            vertex 0.0395205 0.0430683 0.00901001
        endloop
    endfacet
    facet normal 0.998264 -0.0588957 4.27778e-005
        outer loop
            vertex 0.057575 -0.00898496 0.00909105
            vertex 0.0581095 6.14871e-005 -0.00904704
            vertex 0.0581088 6.27589e-005 0.00904745
        endloop
    endfacet
    facet normal 0.465074 -0.885272 -1.9847e-006
        outer loop
            vertex 0.029745 -0.0498975 0.00900013
            vertex 0.00743872 -0.061616 0.00900257
            vertex 0.00743541 -0.0616177 -0.00900153
        endloop
    endfacet
    facet normal -0.0194977 -0.0296542 -0.99937
        outer loop
            vertex -0.0395398 -0.0430549 -0.00901191
            vertex -0.00742252 -0.0616246 -0.0090875
            vertex -0.0298231 -0.049843 -0.00900006
        endloop
    endfacet
    facet normal -0.870026 -0.492957 -0.00693906
        outer loop
            vertex -0.054352 -0.0217586 -0.00906982
            vertex -0.0474168 -0.0339996 -0.00900043
            vertex -0.0542344 -0.0222226 0.00914848
        endloop
    endfacet
    facet normal -0.968641 -0.248456 0.00210861
        outer loop
            vertex -0.054352 -0.0217586 -0.00906982
            vertex -0.0575707 -0.00905599 0.00908085
            vertex -0.0575589 -0.00925588 -0.00905227
        endloop
    endfacet
    facet normal -0.998409 0.0563951 -1.46498e-008
        outer loop
            vertex -0.0576099 0.00890603 0.00908635
            vertex -0.0581095 6.12192e-005 -0.00904695
            vertex -0.0581095 6.12239e-005 0.00904695
        endloop
    endfacet
    facet normal -0.754487 -0.656313 0.00159606
        outer loop
            vertex -0.0395398 -0.0430549 -0.00901191
            vertex -0.0474273 -0.0339437 0.00902098
            vertex -0.0474168 -0.0339996 -0.00900043
        endloop
    endfacet
    facet normal 0.0898394 0.995951 0.00315989
        outer loop
            vertex 0.00739927 0.0616368 -0.00907877
            vertex 0.00111161 0.0622026 -0.00864425
            vertex 0.000778719 0.0621776 0.0087
        endloop
    endfacet
    facet normal 0.754768 0.655992 -0
        outer loop
            vertex 0.0395205 0.0430683 -0.00901097
            vertex 0.0395205 0.0430683 0.00901001
            vertex 0.0473824 0.0340226 0.00900594
        endloop
    endfacet
    facet normal 0.790239 -0.612593 0.0158757
        outer loop
            vertex 0.0399602 -0.0427612 0.00900056
            vertex 0.0425302 -0.0399131 -0.0090263
            vertex 0.0481871 -0.0326073 -0.0087
        endloop
    endfacet
    facet normal 0.968368 -0.249494 0.00394415
        outer loop
            vertex 0.0542959 -0.0220012 -0.0091889
            vertex 0.0575529 -0.00935732 -0.00903765
            vertex 0.057575 -0.00898496 0.00909105
        endloop
    endfacet
    facet normal 0.0128473 -0.0145592 0.999811
        outer loop
            vertex 0.0541388 -0.0226248 0.00908382
            vertex 0.029745 -0.0498975 0.00900013
            vertex 0.0474296 -0.0339771 0.00900472
        endloop
    endfacet
    facet normal 0.865463 0.500973 0.00100517
        outer loop
            vertex 0.0542303 0.0221921 0.00915972
            vertex 0.0474168 0.0339993 -0.00900064
            vertex 0.0473824 0.0340226 0.00900594
        endloop
    endfacet
    facet normal 0.00388461 0.00198795 0.99999
        outer loop
            vertex 0.0541388 -0.0226248 0.00908382
            vertex 0.0395205 0.0430683 0.00901001
            vertex 0.00748239 0.0615931 0.00909764
        endloop
    endfacet
    facet normal -0.998258 -0.0589925 8.02443e-007
        outer loop
            vertex -0.0575707 -0.00905599 0.00908085
            vertex -0.0581095 6.12192e-005 -0.00904695
            vertex -0.0575589 -0.00925588 -0.00905227
        endloop
    endfacet
    facet normal -0.864742 -0.502216 0.00105384
        outer loop
            vertex -0.0542344 -0.0222226 0.00914848
            vertex -0.0474168 -0.0339996 -0.00900043
            vertex -0.0474273 -0.0339437 0.00902098
        endloop
    endfacet
    facet normal -0.0017297 0.000439962 -0.999998
        outer loop
            vertex 0.0395205 0.0430683 -0.00901097
            vertex 0.0576016 0.00909811 -0.00905719
            vertex 0.00743541 -0.0616177 -0.00900153
        endloop
    endfacet
    facet normal -0.572691 -0.819771 0
        outer loop
            vertex -0.0395397 -0.043055 0.00900055
            vertex -0.0298231 -0.049843 -0.00900006
            vertex -0.0298231 -0.049843 0.00900016
        endloop
    endfacet
    facet normal 0.0176055 0.0268059 -0.999486
        outer loop
            vertex 0.0395205 0.0430683 -0.00901097
            vertex 0.00739927 0.0616368 -0.00907877
            vertex 0.0298231 0.049843 -0.00900009
        endloop
    endfacet
    facet normal -0.091427 -0.995807 0.00319015
        outer loop
            vertex -0.00742252 -0.0616246 -0.0090875
            vertex -0.00111161 -0.0622026 -0.00864425
            vertex -0.000778719 -0.0621776 0.0087
        endloop
    endfacet
    facet normal -0.00421838 0.00032167 -0.999991
        outer loop
            vertex -0.054352 -0.0217586 -0.00906982
            vertex -0.0575589 -0.00925588 -0.00905227
            vertex -0.0581095 6.12192e-005 -0.00904695
        endloop
    endfacet
    facet normal 0.572697 0.819767 0
        outer loop
            vertex 0.0395205 0.0430683 -0.00901097
            vertex 0.0298231 0.049843 -0.00900009
            vertex 0.0298231 0.049843 0.00898831
        endloop
    endfacet
    facet normal 0.968409 0.249367 0.000707417
        outer loop
            vertex 0.0543319 0.0217959 -0.00906895
            vertex 0.0575848 0.00911195 0.0090636
            vertex 0.0576016 0.00909811 -0.00905719
        endloop
    endfacet
    facet normal -0.00386178 -0.00558539 0.999977
        outer loop
            vertex -0.0395397 -0.043055 0.00900055
            vertex -0.0298231 -0.049843 0.00900016
            vertex -0.0474273 -0.0339437 0.00902098
        endloop
    endfacet
    facet normal -0.0682436 0.997669 2.91058e-005
        outer loop
            vertex -0.00743492 0.061618 -0.00900142
            vertex -0.00743601 0.0616174 0.00900117
            vertex 0.00111161 0.0622026 -0.00864425
        endloop
    endfacet
    facet normal -0.670521 0.741577 -0.0215716
        outer loop
            vertex -0.0339425 0.0476764 -0.00900018
            vertex -0.0424671 0.0399675 -0.00903844
            vertex -0.0399494 0.0427687 0.00900079
        endloop
    endfacet
    facet normal -0.0323776 -0.0156472 0.999353
        outer loop
            vertex 0.0542303 0.0221921 0.00915972
            vertex 0.0395205 0.0430683 0.00901001
            vertex 0.0575848 0.00911195 0.0090636
        endloop
    endfacet
    facet normal -0.762807 0.646426 -0.0160906
        outer loop
            vertex -0.0399494 0.0427687 0.00900079
            vertex -0.0481871 0.0326073 -0.0087
            vertex -0.0474889 0.0338724 0.00902493
        endloop
    endfacet
    facet normal -0.000390237 -0.000510264 -1
        outer loop
            vertex 0.0425302 -0.0399131 -0.0090263
            vertex 0.00743541 -0.0616177 -0.00900153
            vertex 0.0576016 0.00909811 -0.00905719
        endloop
    endfacet
    facet normal 0.00719868 0.00228773 -0.999971
        outer loop
            vertex -0.054352 -0.0217586 -0.00906982
            vertex -0.0581095 6.12192e-005 -0.00904695
            vertex -0.0395398 -0.0430549 -0.00901191
        endloop
    endfacet
    facet normal 0.465493 0.885052 0
        outer loop
            vertex 0.00748239 0.0615931 0.00909764
            vertex 0.0298231 0.049843 0.00898831
            vertex 0.0298231 0.049843 -0.00900009
        endloop
    endfacet
    facet normal -0.0526061 0.0254929 -0.99829
        outer loop
            vertex 0.0542959 -0.0220012 -0.0091889
            vertex 0.0425302 -0.0399131 -0.0090263
            vertex 0.0575529 -0.00935732 -0.00903765
        endloop
    endfacet
endsolid C:/Users/felix/Documents/Solidworks/Connector Clamps/C116/C116_convdec.stl_created_by_BoundingMesh