solid D:/Users/Paul Maroldt/Documents/!StartUp_Repositories/module_type_database/0090_L148-710/0090_L148-710_convdec.stl_created_by_BoundingMesh
    facet normal 0.992659 0.106905 0.056563
        outer loop
            vertex 0.71011 0.0659017 0.0919774
            vertex 0.710013 0.0461026 0.131101
            vertex 0.715664 0.00936856 0.101355
        endloop
    endfacet
    facet normal 0.746831 -0.104029 -0.656827
        outer loop
            vertex 0.713174 0.0147552 0.0234781
            vertex 0.710028 -0.0295917 0.0269247
            vertex 0.699 -0.00557692 0.0105821
        endloop
    endfacet
    facet normal 0.718508 -0.161592 0.676487
        outer loop
            vertex 0.710392 -0.0414972 0.139027
            vertex 0.71 0.00701729 0.151032
            vertex 0.699 -0.0328424 0.153194
        endloop
    endfacet
    facet normal 0.649001 -0.760787 0
        outer loop
            vertex 0.699 -0.0737931 0.0681572
            vertex 0.71 -0.0644094 0.0952009
            vertex 0.699 -0.0737931 0.0961234
        endloop
    endfacet
    facet normal -0.040454 -0.622982 0.78119
        outer loop
            vertex 0.699 -0.063805 0.128502
            vertex 0.699 -0.0328424 0.153194
            vertex 0.192209 -0.026309 0.13216
        endloop
    endfacet
    facet normal -0.0427432 -0.923789 -0.380509
        outer loop
            vertex 0.699 -0.0737931 0.0681572
            vertex 0.192209 -0.0538815 0.076745
            vertex 0.192209 -0.0450128 0.0552138
        endloop
    endfacet
    facet normal -0.0434169 -0.306561 0.95086
        outer loop
            vertex 0.699 -0.0328424 0.153194
            vertex 0.192209 -0.0040791 0.139327
            vertex 0.192209 -0.026309 0.13216
        endloop
    endfacet
    facet normal 0.770887 0.567567 0.289138
        outer loop
            vertex 0.71011 0.0659017 0.0919774
            vertex 0.699 0.0704588 0.112653
            vertex 0.710013 0.0461026 0.131101
        endloop
    endfacet
    facet normal -0.0400518 -0.900245 -0.433537
        outer loop
            vertex 0.699 -0.0737931 0.0681572
            vertex 0.192209 -0.0450128 0.0552138
            vertex 0.699 -0.0616595 0.0429616
        endloop
    endfacet
    facet normal -0.0400196 0.622988 0.781207
        outer loop
            vertex 0.699 0.0282156 0.156884
            vertex 0.699 0.0547044 0.13576
            vertex 0.192209 0.0413235 0.120469
        endloop
    endfacet
    facet normal -0.0426487 -0.994727 0.0932668
        outer loop
            vertex 0.192201 -0.050732 0.110332
            vertex 0.192209 -0.0538815 0.076745
            vertex 0.699 -0.0737931 0.0961234
        endloop
    endfacet
    facet normal 0.70639 -0.157511 0.690075
        outer loop
            vertex 0.71 0.00701729 0.151032
            vertex 0.699 -0.00557427 0.159418
            vertex 0.699 -0.0328424 0.153194
        endloop
    endfacet
    facet normal 0.993591 -0.0769229 -0.082824
        outer loop
            vertex 0.713174 0.0147552 0.0234781
            vertex 0.71507 -0.0209438 0.0793791
            vertex 0.710028 -0.0295917 0.0269247
        endloop
    endfacet
    facet normal -0.0344652 0.0746842 -0.996611
        outer loop
            vertex 0.192202 0.0116017 0.0293957
            vertex 0.699 0.0223101 0.0126719
            vertex 0.699 -0.00557692 0.0105821
        endloop
    endfacet
    facet normal 0.679836 0.368679 -0.633955
        outer loop
            vertex 0.713174 0.0147552 0.0234781
            vertex 0.699 0.0223101 0.0126719
            vertex 0.710069 0.0542768 0.0431323
        endloop
    endfacet
    facet normal -0.0447868 0.969622 -0.240473
        outer loop
            vertex 0.1922 0.0561134 0.0915982
            vertex 0.699 0.0695764 0.0514941
            vertex 0.1922 0.0463251 0.0521303
        endloop
    endfacet
    facet normal -0.0447834 0.167343 0.984881
        outer loop
            vertex 0.699 0.0282156 0.156884
            vertex 0.192208 0.0200685 0.135224
            vertex 0.192209 -0.0040791 0.139327
        endloop
    endfacet
    facet normal 0.446206 -0.557982 0.699683
        outer loop
            vertex 0.710392 -0.0414972 0.139027
            vertex 0.699 -0.0328424 0.153194
            vertex 0.699 -0.063805 0.128502
        endloop
    endfacet
    facet normal -0.0392757 -0.222357 0.974174
        outer loop
            vertex 0.699 -0.0328424 0.153194
            vertex 0.699 -0.00557427 0.159418
            vertex 0.192209 -0.0040791 0.139327
        endloop
    endfacet
    facet normal 0.624741 0.0583505 -0.778649
        outer loop
            vertex 0.713174 0.0147552 0.0234781
            vertex 0.699 -0.00557692 0.0105821
            vertex 0.699 0.0223101 0.0126719
        endloop
    endfacet
    facet normal -0.0380345 0.988115 -0.148935
        outer loop
            vertex 0.1922 0.0561134 0.0915982
            vertex 0.699 0.0746266 0.0849999
            vertex 0.699 0.0695764 0.0514941
        endloop
    endfacet
    facet normal -0.0391127 0.499615 -0.865364
        outer loop
            vertex 0.192202 0.0116017 0.0293957
            vertex 0.699 0.0465288 0.0266545
            vertex 0.699 0.0223101 0.0126719
        endloop
    endfacet
    facet normal 0.662169 0.619142 0.422132
        outer loop
            vertex 0.699 0.0704588 0.112653
            vertex 0.699 0.0547044 0.13576
            vertex 0.710013 0.0461026 0.131101
        endloop
    endfacet
    facet normal 0.692608 -0.160507 -0.70323
        outer loop
            vertex 0.699 -0.038612 0.0181221
            vertex 0.699 -0.00557692 0.0105821
            vertex 0.710028 -0.0295917 0.0269247
        endloop
    endfacet
    facet normal 0.775163 -0.62399 -0.0987824
        outer loop
            vertex 0.699 -0.0737931 0.0681572
            vertex 0.710031 -0.0580715 0.0554088
            vertex 0.71 -0.0644094 0.0952009
        endloop
    endfacet
    facet normal -0.0392593 -0.999229 0
        outer loop
            vertex 0.699 -0.0737931 0.0681572
            vertex 0.699 -0.0737931 0.0961234
            vertex 0.192209 -0.0538815 0.076745
        endloop
    endfacet
    facet normal 0.616325 -0.709505 -0.341681
        outer loop
            vertex 0.699 -0.0737931 0.0681572
            vertex 0.699 -0.0616595 0.0429616
            vertex 0.710031 -0.0580715 0.0554088
        endloop
    endfacet
    facet normal 0.709195 -0.516813 -0.479528
        outer loop
            vertex 0.699 -0.038612 0.0181221
            vertex 0.710031 -0.0580715 0.0554088
            vertex 0.699 -0.0616595 0.0429616
        endloop
    endfacet
    facet normal 0.992283 -0.122569 -0.0187494
        outer loop
            vertex 0.710031 -0.0580715 0.0554088
            vertex 0.71507 -0.0209438 0.0793791
            vertex 0.71 -0.0644094 0.0952009
        endloop
    endfacet
    facet normal 0.994025 -0.100129 0.043456
        outer loop
            vertex 0.710392 -0.0414972 0.139027
            vertex 0.71 -0.0644094 0.0952009
            vertex 0.71507 -0.0209438 0.0793791
        endloop
    endfacet
    facet normal 0.993265 -0.0818833 -0.0819748
        outer loop
            vertex 0.710031 -0.0580715 0.0554088
            vertex 0.710028 -0.0295917 0.0269247
            vertex 0.71507 -0.0209438 0.0793791
        endloop
    endfacet
    facet normal -1 -0.000356777 -0.000204789
        outer loop
            vertex 0.192201 -0.050732 0.110332
            vertex 0.192207 -0.0245947 0.0355456
            vertex 0.192209 -0.0538815 0.076745
        endloop
    endfacet
    facet normal 0.798271 -0.536659 0.273424
        outer loop
            vertex 0.710392 -0.0414972 0.139027
            vertex 0.699 -0.063805 0.128502
            vertex 0.71 -0.0644094 0.0952009
        endloop
    endfacet
    facet normal 0.995308 0.0939357 -0.0231918
        outer loop
            vertex 0.710069 0.0542768 0.0431323
            vertex 0.71011 0.0659017 0.0919774
            vertex 0.715664 0.00936856 0.101355
        endloop
    endfacet
    facet normal -0.0351956 -0.954976 0.294589
        outer loop
            vertex 0.192201 -0.050732 0.110332
            vertex 0.699 -0.0737931 0.0961234
            vertex 0.699 -0.063805 0.128502
        endloop
    endfacet
    facet normal 0.759826 0.632317 -0.151126
        outer loop
            vertex 0.710069 0.0542768 0.0431323
            vertex 0.699 0.0695764 0.0514941
            vertex 0.71011 0.0659017 0.0919774
        endloop
    endfacet
    facet normal 0.993473 -0.0197704 0.112338
        outer loop
            vertex 0.710392 -0.0414972 0.139027
            vertex 0.715664 0.00936856 0.101355
            vertex 0.71 0.00701729 0.151032
        endloop
    endfacet
    facet normal 0.991531 0.0587373 0.115832
        outer loop
            vertex 0.715664 0.00936856 0.101355
            vertex 0.710013 0.0461026 0.131101
            vertex 0.71 0.00701729 0.151032
        endloop
    endfacet
    facet normal 0.803305 0.270343 0.530675
        outer loop
            vertex 0.699 0.0282156 0.156884
            vertex 0.71 0.00701729 0.151032
            vertex 0.710013 0.0461026 0.131101
        endloop
    endfacet
    facet normal -0.0404894 -0.732454 -0.679612
        outer loop
            vertex 0.699 -0.038612 0.0181221
            vertex 0.699 -0.0616595 0.0429616
            vertex 0.192209 -0.0450128 0.0552138
        endloop
    endfacet
    facet normal -0.0396414 -0.222345 -0.974162
        outer loop
            vertex 0.699 -0.038612 0.0181221
            vertex 0.192207 -0.0245947 0.0355456
            vertex 0.699 -0.00557692 0.0105821
        endloop
    endfacet
    facet normal 0.656431 0.74596 -0.112436
        outer loop
            vertex 0.699 0.0695764 0.0514941
            vertex 0.699 0.0746266 0.0849999
            vertex 0.71011 0.0659017 0.0919774
        endloop
    endfacet
    facet normal -0.0422382 -0.167359 -0.984991
        outer loop
            vertex 0.192202 0.0116017 0.0293957
            vertex 0.699 -0.00557692 0.0105821
            vertex 0.192207 -0.0245947 0.0355456
        endloop
    endfacet
    facet normal -1 9.2197e-005 -4.78762e-005
        outer loop
            vertex 0.192201 -0.050732 0.110332
            vertex 0.192209 0.0413235 0.120469
            vertex 0.192207 -0.0245947 0.0355456
        endloop
    endfacet
    facet normal -1 -6.99674e-005 -0.000168454
        outer loop
            vertex 0.192209 -0.0040791 0.139327
            vertex 0.192208 0.0200685 0.135224
            vertex 0.192209 0.0413235 0.120469
        endloop
    endfacet
    facet normal 0.559261 0.0619945 0.826671
        outer loop
            vertex 0.699 0.0282156 0.156884
            vertex 0.699 -0.00557427 0.159418
            vertex 0.71 0.00701729 0.151032
        endloop
    endfacet
    facet normal -0.0387828 0.825612 0.562904
        outer loop
            vertex 0.699 0.0704588 0.112653
            vertex 0.192209 0.0413235 0.120469
            vertex 0.699 0.0547044 0.13576
        endloop
    endfacet
    facet normal 0.999491 0.00341113 -0.0317219
        outer loop
            vertex 0.713174 0.0147552 0.0234781
            vertex 0.715664 0.00936856 0.101355
            vertex 0.71507 -0.0209438 0.0793791
        endloop
    endfacet
    facet normal 0.996503 -0.0609591 0.0571476
        outer loop
            vertex 0.710392 -0.0414972 0.139027
            vertex 0.71507 -0.0209438 0.0793791
            vertex 0.715664 0.00936856 0.101355
        endloop
    endfacet
    facet normal -1 6.87088e-005 0.000165424
        outer loop
            vertex 0.192201 -0.050732 0.110332
            vertex 0.192209 -0.0040791 0.139327
            vertex 0.192209 0.0413235 0.120469
        endloop
    endfacet
    facet normal 0.752558 -0.465644 -0.465653
        outer loop
            vertex 0.699 -0.038612 0.0181221
            vertex 0.710028 -0.0295917 0.0269247
            vertex 0.710031 -0.0580715 0.0554088
        endloop
    endfacet
    facet normal -1 -0.000121345 9.75053e-005
        outer loop
            vertex 0.192202 0.0116017 0.0293957
            vertex 0.192207 -0.0245947 0.0355456
            vertex 0.1922 0.0463251 0.0521303
        endloop
    endfacet
    facet normal 0.563975 0.81657 0.123071
        outer loop
            vertex 0.71011 0.0659017 0.0919774
            vertex 0.699 0.0746266 0.0849999
            vertex 0.699 0.0704588 0.112653
        endloop
    endfacet
    facet normal -0.0341613 0.988255 0.148947
        outer loop
            vertex 0.1922 0.0561134 0.0915982
            vertex 0.699 0.0704588 0.112653
            vertex 0.699 0.0746266 0.0849999
        endloop
    endfacet
    facet normal -1 -0.000127165 0.000122394
        outer loop
            vertex 0.1922 0.0463251 0.0521303
            vertex 0.192207 -0.0245947 0.0355456
            vertex 0.192209 0.0413235 0.120469
        endloop
    endfacet
    facet normal -0.0392816 0.0747252 0.99643
        outer loop
            vertex 0.699 0.0282156 0.156884
            vertex 0.192209 -0.0040791 0.139327
            vertex 0.699 -0.00557427 0.159418
        endloop
    endfacet
    facet normal -1 -0.000184884 0.000573453
        outer loop
            vertex 0.192201 -0.050732 0.110332
            vertex 0.192209 -0.026309 0.13216
            vertex 0.192209 -0.0040791 0.139327
        endloop
    endfacet
    facet normal -0.0344649 0.732619 -0.679766
        outer loop
            vertex 0.1922 0.0463251 0.0521303
            vertex 0.699 0.0695764 0.0514941
            vertex 0.699 0.0465288 0.0266545
        endloop
    endfacet
    facet normal 0.995531 0.0909156 -0.0255427
        outer loop
            vertex 0.713174 0.0147552 0.0234781
            vertex 0.710069 0.0542768 0.0431323
            vertex 0.715664 0.00936856 0.101355
        endloop
    endfacet
    facet normal -0.0422381 0.547279 -0.835884
        outer loop
            vertex 0.192202 0.0116017 0.0293957
            vertex 0.1922 0.0463251 0.0521303
            vertex 0.699 0.0465288 0.0266545
        endloop
    endfacet
    facet normal 0.684608 0.364454 -0.631257
        outer loop
            vertex 0.710069 0.0542768 0.0431323
            vertex 0.699 0.0223101 0.0126719
            vertex 0.699 0.0465288 0.0266545
        endloop
    endfacet
    facet normal 0.446793 0.655818 -0.608505
        outer loop
            vertex 0.710069 0.0542768 0.0431323
            vertex 0.699 0.0465288 0.0266545
            vertex 0.699 0.0695764 0.0514941
        endloop
    endfacet
    facet normal -0.0440916 0.889142 0.455502
        outer loop
            vertex 0.1922 0.0561134 0.0915982
            vertex 0.192209 0.0413235 0.120469
            vertex 0.699 0.0704588 0.112653
        endloop
    endfacet
    facet normal -0.0438792 -0.665735 0.744897
        outer loop
            vertex 0.192201 -0.050732 0.110332
            vertex 0.699 -0.063805 0.128502
            vertex 0.192209 -0.026309 0.13216
        endloop
    endfacet
    facet normal -0.0439068 -0.693091 -0.719512
        outer loop
            vertex 0.699 -0.038612 0.0181221
            vertex 0.192209 -0.0450128 0.0552138
            vertex 0.192207 -0.0245947 0.0355456
        endloop
    endfacet
    facet normal 0.63303 0.482659 0.605238
        outer loop
            vertex 0.699 0.0282156 0.156884
            vertex 0.710013 0.0461026 0.131101
            vertex 0.699 0.0547044 0.13576
        endloop
    endfacet
    facet normal -0.044233 0.569698 0.820663
        outer loop
            vertex 0.699 0.0282156 0.156884
            vertex 0.192209 0.0413235 0.120469
            vertex 0.192208 0.0200685 0.135224
        endloop
    endfacet
    facet normal -1 -0.000163327 -6.72743e-005
        outer loop
            vertex 0.192207 -0.0245947 0.0355456
            vertex 0.192209 -0.0450128 0.0552138
            vertex 0.192209 -0.0538815 0.076745
        endloop
    endfacet
    facet normal 0.643139 -0.731725 0.225721
        outer loop
            vertex 0.699 -0.063805 0.128502
            vertex 0.699 -0.0737931 0.0961234
            vertex 0.71 -0.0644094 0.0952009
        endloop
    endfacet
    facet normal -1 -0.000410036 0.000101692
        outer loop
            vertex 0.1922 0.0561134 0.0915982
            vertex 0.1922 0.0463251 0.0521303
            vertex 0.192209 0.0413235 0.120469
        endloop
    endfacet
    facet normal -0.454473 0.831913 0.318396
        outer loop
            vertex 0.00422182 0.0743006 0.0933574
            vertex -0.0141719 0.0736402 0.0688281
            vertex -0.0310127 0.0619245 0.0754009
        endloop
    endfacet
    facet normal 0.194435 -0.952073 0.236119
        outer loop
            vertex 0.0771982 -0.0759026 0.0933186
            vertex 0.192211 -0.0534118 0.0892966
            vertex 0.192231 -0.0473439 0.113747
        endloop
    endfacet
    facet normal 0.281231 -0.668741 -0.688255
        outer loop
            vertex 0.00727641 -0.065599 -0.000179269
            vertex 0.19221 -0.0245947 0.0355456
            vertex 0.0231822 -0.0704155 0.011
        endloop
    endfacet
    facet normal 0.00963086 0.517326 0.855734
        outer loop
            vertex 0.0487812 0.0333406 0.152067
            vertex 0.0694679 0.0261652 0.156172
            vertex 0.0745445 0.0489178 0.14236
        endloop
    endfacet
    facet normal 0.181075 0.875292 0.448414
        outer loop
            vertex 0.192259 0.0561039 0.0915982
            vertex 0.074 0.0654973 0.121017
            vertex 0.192219 0.0413221 0.120468
        endloop
    endfacet
    facet normal 0.198536 -0.928322 -0.314327
        outer loop
            vertex 0.192227 -0.0512798 0.0612577
            vertex -0.00431786 -0.0762968 0.011
            vertex 0.0231822 -0.0704155 0.011
        endloop
    endfacet
    facet normal -0.970464 -0.104738 0.217326
        outer loop
            vertex -0.0728331 0.00769965 0.0433663
            vertex -0.0732458 -0.0070289 0.0344251
            vertex -0.0666137 -0.00982659 0.0626923
        endloop
    endfacet
    facet normal 0.158399 0.926678 0.34085
        outer loop
            vertex 0.192259 0.0561039 0.0915982
            vertex 0.0751897 0.076094 0.0916546
            vertex 0.074 0.0654973 0.121017
        endloop
    endfacet
    facet normal -0.144656 -0.98895 0.0324511
        outer loop
            vertex -0.00431786 -0.0762968 0.011
            vertex -0.00179814 -0.0742089 0.085861
            vertex -0.0205833 -0.0722607 0.0614946
        endloop
    endfacet
    facet normal 0.236685 0.038466 -0.970825
        outer loop
            vertex 0.0559757 0.0441969 -6.17368e-005
            vertex 0.192215 -0.000161907 0.0313956
            vertex 0.065132 -0.0105847 -1.04647e-017
        endloop
    endfacet
    facet normal -0.822575 -0.418903 0.384566
        outer loop
            vertex -0.0461311 -0.0459186 0.0762758
            vertex -0.0518318 -0.0265361 0.0851953
            vertex -0.060035 -0.0341351 0.0593714
        endloop
    endfacet
    facet normal -0.156234 0.682289 0.714194
        outer loop
            vertex 0.0175958 0.0478173 0.135887
            vertex 0.0485404 0.0499635 0.140606
            vertex 0.0354932 0.0626417 0.12564
        endloop
    endfacet
    facet normal 0.194605 0.952039 -0.236116
        outer loop
            vertex 0.192259 0.0561039 0.0915982
            vertex 0.192211 0.0463253 0.0521305
            vertex -0.00431786 0.0762968 0.011
        endloop
    endfacet
    facet normal -0.00589469 -0.00207612 -0.99998
        outer loop
            vertex -0.0384892 0.055767 -0.00024363
            vertex -0.0341342 -0.0565917 -3.60276e-005
            vertex -0.0611086 0.0204024 -3.68705e-005
        endloop
    endfacet
    facet normal -0.00108744 0.0109024 -0.99994
        outer loop
            vertex 0.00727641 -0.065599 -0.000179269
            vertex -0.0341342 -0.0565917 -3.60276e-005
            vertex 0.0456055 -0.047608 -2.47947e-005
        endloop
    endfacet
    facet normal 6.95514e-005 0.000633023 -1
        outer loop
            vertex -0.0341342 -0.0565917 -3.60276e-005
            vertex 0.065132 -0.0105847 -1.04647e-017
            vertex 0.0456055 -0.047608 -2.47947e-005
        endloop
    endfacet
    facet normal -0.605436 0.794674 -0.0440554
        outer loop
            vertex -0.037994 0.0652782 0.0486366
            vertex -0.0566681 0.0489645 0.011
            vertex -0.0508299 0.0550768 0.0410219
        endloop
    endfacet
    facet normal -0.727657 0.302994 0.615394
        outer loop
            vertex -0.0500993 0.0277753 0.0882724
            vertex -0.0474978 0.016218 0.0970388
            vertex -0.0274595 0.0181202 0.119796
        endloop
    endfacet
    facet normal -0.727281 -0.0320645 0.685591
        outer loop
            vertex -0.0335577 -0.0212671 0.113645
            vertex -0.0254626 0.000213707 0.123237
            vertex -0.0464867 -0.00152761 0.100853
        endloop
    endfacet
    facet normal 0.277817 0.647512 -0.709609
        outer loop
            vertex 0.0559757 0.0441969 -6.17368e-005
            vertex 0.00694486 0.0652482 -4.85548e-005
            vertex 0.023062 0.0704412 0.011
        endloop
    endfacet
    facet normal -0.993174 0.102519 0.0556389
        outer loop
            vertex -0.072673 0.025772 0.0129244
            vertex -0.0754265 0.000304795 0.0106988
            vertex -0.0728331 0.00769965 0.0433663
        endloop
    endfacet
    facet normal -0.905652 -0.287658 0.311524
        outer loop
            vertex -0.0666137 -0.00982659 0.0626923
            vertex -0.0664219 -0.030365 0.0442849
            vertex -0.060035 -0.0341351 0.0593714
        endloop
    endfacet
    facet normal -0.478486 0.585843 0.654094
        outer loop
            vertex 0.0175958 0.0478173 0.135887
            vertex 0.00165728 0.0605896 0.112788
            vertex -0.0219489 0.0389635 0.114889
        endloop
    endfacet
    facet normal -0.0699712 -0.146117 0.98679
        outer loop
            vertex 0.0782736 -0.00208816 0.16052
            vertex 0.0540691 0.00134449 0.159312
            vertex 0.0670986 -0.0285791 0.155805
        endloop
    endfacet
    facet normal 0.162555 0.781223 0.602716
        outer loop
            vertex 0.0745445 0.0489178 0.14236
            vertex 0.192219 0.0413221 0.120468
            vertex 0.074 0.0654973 0.121017
        endloop
    endfacet
    facet normal -0.0290669 0.143182 0.989269
        outer loop
            vertex 0.0782736 -0.00208816 0.16052
            vertex 0.0694679 0.0261652 0.156172
            vertex 0.0540691 0.00134449 0.159312
        endloop
    endfacet
    facet normal 0.169812 -0.794013 -0.583701
        outer loop
            vertex -0.00431786 -0.0762968 0.011
            vertex 0.00727641 -0.065599 -0.000179269
            vertex 0.0231822 -0.0704155 0.011
        endloop
    endfacet
    facet normal 0.247841 -0.130071 -0.960029
        outer loop
            vertex 0.0456055 -0.047608 -2.47947e-005
            vertex 0.065132 -0.0105847 -1.04647e-017
            vertex 0.192215 -0.000161907 0.0313956
        endloop
    endfacet
    facet normal -0.551855 0.682362 -0.479414
        outer loop
            vertex -0.0384892 0.055767 -0.00024363
            vertex -0.0566681 0.0489645 0.011
            vertex -0.03603 0.0656554 0.011
        endloop
    endfacet
    facet normal 0.1487 0.195523 0.96936
        outer loop
            vertex 0.19226 0.0132584 0.139939
            vertex 0.0694679 0.0261652 0.156172
            vertex 0.0782736 -0.00208816 0.16052
        endloop
    endfacet
    facet normal 0.266582 0.638598 -0.721891
        outer loop
            vertex 0.0559757 0.0441969 -6.17368e-005
            vertex 0.023062 0.0704412 0.011
            vertex 0.192211 0.0463253 0.0521305
        endloop
    endfacet
    facet normal -0.0176781 0.961137 0.275504
        outer loop
            vertex 0.0751897 0.076094 0.0916546
            vertex 0.00422182 0.0743006 0.0933574
            vertex 0.023952 0.0697706 0.110427
        endloop
    endfacet
    facet normal -0.646519 0.66543 0.373117
        outer loop
            vertex -0.0270656 0.0542278 0.0959668
            vertex -0.0310127 0.0619245 0.0754009
            vertex -0.0412342 0.0472384 0.0838813
        endloop
    endfacet
    facet normal -0.743542 -0.382555 0.54845
        outer loop
            vertex -0.0335577 -0.0212671 0.113645
            vertex -0.0518318 -0.0265361 0.0851953
            vertex -0.0280782 -0.0455526 0.104134
        endloop
    endfacet
    facet normal -0.188203 -0.846027 0.498816
        outer loop
            vertex 0.00385922 -0.0653809 0.109418
            vertex 0.0219874 -0.0730756 0.103207
            vertex 0.0332821 -0.065111 0.120977
        endloop
    endfacet
    facet normal -0.000273416 -1.06329e-005 -1
        outer loop
            vertex 0.0559757 0.0441969 -6.17368e-005
            vertex -0.0341342 -0.0565917 -3.60276e-005
            vertex 0.00694486 0.0652482 -4.85548e-005
        endloop
    endfacet
    facet normal -0.822737 0.568374 0.00736836
        outer loop
            vertex -0.072673 0.025772 0.0129244
            vertex -0.0641678 0.0378091 0.0340927
            vertex -0.0566681 0.0489645 0.011
        endloop
    endfacet
    facet normal -0.614068 0.365729 -0.699402
        outer loop
            vertex -0.072673 0.025772 0.0129244
            vertex -0.0566681 0.0489645 0.011
            vertex -0.0611086 0.0204024 -3.68705e-005
        endloop
    endfacet
    facet normal -0.244402 -0.728335 -0.640153
        outer loop
            vertex -0.00431786 -0.0762968 0.011
            vertex -0.03603 -0.0656554 0.011
            vertex -0.0341342 -0.0565917 -3.60276e-005
        endloop
    endfacet
    facet normal 1 0.000594809 0.000616
        outer loop
            vertex 0.192227 -0.0512798 0.0612577
            vertex 0.192215 -0.000161907 0.0313956
            vertex 0.192211 -0.0534118 0.0892966
        endloop
    endfacet
    facet normal -0.0246114 0.999338 0.0267742
        outer loop
            vertex 0.0751897 0.076094 0.0916546
            vertex -0.00431786 0.0762968 0.011
            vertex 0.00422182 0.0743006 0.0933574
        endloop
    endfacet
    facet normal -0.0315117 -0.993637 0.108129
        outer loop
            vertex 0.0771982 -0.0759026 0.0933186
            vertex 0.0219874 -0.0730756 0.103207
            vertex -0.00179814 -0.0742089 0.085861
        endloop
    endfacet
    facet normal 0.00841099 0.940477 0.339753
        outer loop
            vertex 0.0751897 0.076094 0.0916546
            vertex 0.023952 0.0697706 0.110427
            vertex 0.074 0.0654973 0.121017
        endloop
    endfacet
    facet normal -0.125941 -0.586171 0.800339
        outer loop
            vertex 0.0664248 -0.048302 0.144272
            vertex 0.0376814 -0.040193 0.145688
            vertex 0.042274 -0.0550478 0.135531
        endloop
    endfacet
    facet normal 0.166525 -0.240449 0.956271
        outer loop
            vertex 0.0782736 -0.00208816 0.16052
            vertex 0.0670986 -0.0285791 0.155805
            vertex 0.192233 -0.0219738 0.135675
        endloop
    endfacet
    facet normal -0.175672 0.0884582 0.980467
        outer loop
            vertex 0.0317257 0.0185767 0.153754
            vertex 0.0303657 0.0046366 0.154768
            vertex 0.0540691 0.00134449 0.159312
        endloop
    endfacet
    facet normal -0.252023 -0.355063 0.90023
        outer loop
            vertex 0.018123 -0.0344872 0.142463
            vertex 0.0376814 -0.040193 0.145688
            vertex 0.0418324 -0.0221538 0.153965
        endloop
    endfacet
    facet normal -0.640254 -0.640992 0.423324
        outer loop
            vertex -0.0280782 -0.0455526 0.104134
            vertex -0.0461311 -0.0459186 0.0762758
            vertex -0.0241521 -0.0611267 0.0864899
        endloop
    endfacet
    facet normal 0.276842 -0.583243 -0.763666
        outer loop
            vertex 0.00727641 -0.065599 -0.000179269
            vertex 0.0456055 -0.047608 -2.47947e-005
            vertex 0.19221 -0.0245947 0.0355456
        endloop
    endfacet
    facet normal -0.496378 0.434122 0.751762
        outer loop
            vertex 0.0175958 0.0478173 0.135887
            vertex -0.0219489 0.0389635 0.114889
            vertex -0.00185553 0.0243574 0.136591
        endloop
    endfacet
    facet normal 0.16235 -0.916128 0.36654
        outer loop
            vertex 0.0771982 -0.0759026 0.0933186
            vertex 0.192231 -0.0473439 0.113747
            vertex 0.074 -0.0648244 0.122424
        endloop
    endfacet
    facet normal 0.0161631 -0.933876 0.357231
        outer loop
            vertex 0.0771982 -0.0759026 0.0933186
            vertex 0.074 -0.0648244 0.122424
            vertex 0.0219874 -0.0730756 0.103207
        endloop
    endfacet
    facet normal -0.792074 -0.547569 0.26979
        outer loop
            vertex -0.0532697 -0.0528451 0.0412595
            vertex -0.0461311 -0.0459186 0.0762758
            vertex -0.060035 -0.0341351 0.0593714
        endloop
    endfacet
    facet normal -0.698367 -0.656632 0.284812
        outer loop
            vertex -0.0398844 -0.0625411 0.0532698
            vertex -0.0327064 -0.0638467 0.0678604
            vertex -0.0461311 -0.0459186 0.0762758
        endloop
    endfacet
    facet normal -0.964801 -0.223721 0.138232
        outer loop
            vertex -0.072639 -0.0236012 0.0118389
            vertex -0.0664219 -0.030365 0.0442849
            vertex -0.0732458 -0.0070289 0.0344251
        endloop
    endfacet
    facet normal -0.447218 -0.352755 0.821924
        outer loop
            vertex -0.0140266 -0.038905 0.123074
            vertex 0.018123 -0.0344872 0.142463
            vertex -0.00570319 -0.0165645 0.137191
        endloop
    endfacet
    facet normal -0.405202 0.0159068 0.914089
        outer loop
            vertex 0.0303657 0.0046366 0.154768
            vertex -0.00363072 0.00342475 0.139719
            vertex 0.0180163 -0.0132525 0.149605
        endloop
    endfacet
    facet normal -0.262179 0.782057 0.565375
        outer loop
            vertex 0.0354932 0.0626417 0.12564
            vertex 0.023952 0.0697706 0.110427
            vertex 0.00165728 0.0605896 0.112788
        endloop
    endfacet
    facet normal -0.128719 0.63254 -0.763757
        outer loop
            vertex -0.0384892 0.055767 -0.00024363
            vertex -0.00431786 0.0762968 0.011
            vertex 0.00694486 0.0652482 -4.85548e-005
        endloop
    endfacet
    facet normal -0.492243 0.838562 0.233475
        outer loop
            vertex -0.037994 0.0652782 0.0486366
            vertex -0.0310127 0.0619245 0.0754009
            vertex -0.0141719 0.0736402 0.0688281
        endloop
    endfacet
    facet normal -0.0146673 -0.818176 0.574781
        outer loop
            vertex 0.042274 -0.0550478 0.135531
            vertex 0.0332821 -0.065111 0.120977
            vertex 0.074 -0.0648244 0.122424
        endloop
    endfacet
    facet normal -0.855008 0.177235 0.48739
        outer loop
            vertex -0.0590217 0.00107803 0.0823284
            vertex -0.0474978 0.016218 0.0970388
            vertex -0.0500993 0.0277753 0.0882724
        endloop
    endfacet
    facet normal -0.698074 0.444591 0.561277
        outer loop
            vertex -0.0270656 0.0542278 0.0959668
            vertex -0.0412342 0.0472384 0.0838813
            vertex -0.0500993 0.0277753 0.0882724
        endloop
    endfacet
    facet normal -0.514999 -0.696268 0.499987
        outer loop
            vertex -0.0280782 -0.0455526 0.104134
            vertex -0.0241521 -0.0611267 0.0864899
            vertex 0.00385922 -0.0653809 0.109418
        endloop
    endfacet
    facet normal -0.905242 -0.415947 0.086747
        outer loop
            vertex -0.0618263 -0.0468594 0.0131522
            vertex -0.0664219 -0.030365 0.0442849
            vertex -0.072639 -0.0236012 0.0118389
        endloop
    endfacet
    facet normal -0.923154 0.15205 0.353083
        outer loop
            vertex -0.0728331 0.00769965 0.0433663
            vertex -0.0590217 0.00107803 0.0823284
            vertex -0.0648886 0.0250484 0.0566666
        endloop
    endfacet
    facet normal -0.274304 0.802404 0.530004
        outer loop
            vertex 0.00422182 0.0743006 0.0933574
            vertex 0.00165728 0.0605896 0.112788
            vertex 0.023952 0.0697706 0.110427
        endloop
    endfacet
    facet normal -0.674356 0.69467 0.250355
        outer loop
            vertex -0.0540928 0.0453757 0.059151
            vertex -0.0310127 0.0619245 0.0754009
            vertex -0.0508299 0.0550768 0.0410219
        endloop
    endfacet
    facet normal -0.0147817 0.901055 0.433453
        outer loop
            vertex 0.0354932 0.0626417 0.12564
            vertex 0.074 0.0654973 0.121017
            vertex 0.023952 0.0697706 0.110427
        endloop
    endfacet
    facet normal -0.920471 0.352076 0.169632
        outer loop
            vertex -0.072673 0.025772 0.0129244
            vertex -0.0648886 0.0250484 0.0566666
            vertex -0.0641678 0.0378091 0.0340927
        endloop
    endfacet
    facet normal 0.268071 0.148265 -0.951922
        outer loop
            vertex 0.0559757 0.0441969 -6.17368e-005
            vertex 0.19221 0.0192791 0.0344222
            vertex 0.192215 -0.000161907 0.0313956
        endloop
    endfacet
    facet normal -0.318016 -0.94771 -0.0266883
        outer loop
            vertex -0.00431786 -0.0762968 0.011
            vertex -0.0205833 -0.0722607 0.0614946
            vertex -0.03603 -0.0656554 0.011
        endloop
    endfacet
    facet normal 0.201036 0.940014 -0.275605
        outer loop
            vertex 0.192211 0.0463253 0.0521305
            vertex 0.023062 0.0704412 0.011
            vertex -0.00431786 0.0762968 0.011
        endloop
    endfacet
    facet normal 0.297804 0.522913 -0.798671
        outer loop
            vertex 0.0559757 0.0441969 -6.17368e-005
            vertex 0.192211 0.0463253 0.0521305
            vertex 0.19221 0.0192791 0.0344222
        endloop
    endfacet
    facet normal -0.584885 0.369875 -0.721874
        outer loop
            vertex -0.0384892 0.055767 -0.00024363
            vertex -0.0611086 0.0204024 -3.68705e-005
            vertex -0.0566681 0.0489645 0.011
        endloop
    endfacet
    facet normal -0.992003 -0.112987 0.0562516
        outer loop
            vertex -0.072639 -0.0236012 0.0118389
            vertex -0.0732458 -0.0070289 0.0344251
            vertex -0.0754265 0.000304795 0.0106988
        endloop
    endfacet
    facet normal -0.387731 -0.519671 0.761319
        outer loop
            vertex -0.0140266 -0.038905 0.123074
            vertex 0.0132788 -0.0545444 0.126305
            vertex 0.018123 -0.0344872 0.142463
        endloop
    endfacet
    facet normal 0.185283 -0.642604 0.743458
        outer loop
            vertex 0.0664248 -0.048302 0.144272
            vertex 0.192231 -0.0473439 0.113747
            vertex 0.192233 -0.0219738 0.135675
        endloop
    endfacet
    facet normal -0.162776 0.55846 0.813404
        outer loop
            vertex 0.0175958 0.0478173 0.135887
            vertex 0.0487812 0.0333406 0.152067
            vertex 0.0485404 0.0499635 0.140606
        endloop
    endfacet
    facet normal 0.191813 -0.118063 0.974304
        outer loop
            vertex 0.19226 0.0132584 0.139939
            vertex 0.0782736 -0.00208816 0.16052
            vertex 0.192233 -0.0219738 0.135675
        endloop
    endfacet
    facet normal 0.999999 -0.000878336 0.000925152
        outer loop
            vertex 0.19226 0.0132584 0.139939
            vertex 0.192233 -0.0219738 0.135675
            vertex 0.192231 -0.0473439 0.113747
        endloop
    endfacet
    facet normal 0.163123 -0.50217 0.849244
        outer loop
            vertex 0.0664248 -0.048302 0.144272
            vertex 0.192233 -0.0219738 0.135675
            vertex 0.0670986 -0.0285791 0.155805
        endloop
    endfacet
    facet normal -0.217155 -0.73499 0.642366
        outer loop
            vertex 0.042274 -0.0550478 0.135531
            vertex 0.0132788 -0.0545444 0.126305
            vertex 0.0332821 -0.065111 0.120977
        endloop
    endfacet
    facet normal -0.024133 -0.999297 0.028683
        outer loop
            vertex 0.0771982 -0.0759026 0.0933186
            vertex -0.00179814 -0.0742089 0.085861
            vertex -0.00431786 -0.0762968 0.011
        endloop
    endfacet
    facet normal 0.00397193 -0.796934 0.604053
        outer loop
            vertex 0.0664248 -0.048302 0.144272
            vertex 0.042274 -0.0550478 0.135531
            vertex 0.074 -0.0648244 0.122424
        endloop
    endfacet
    facet normal 0.18888 -0.979182 -0.0743465
        outer loop
            vertex 0.0771982 -0.0759026 0.0933186
            vertex 0.192227 -0.0512798 0.0612577
            vertex 0.192211 -0.0534118 0.0892966
        endloop
    endfacet
    facet normal 1 -0.000140029 -0.000783123
        outer loop
            vertex 0.19226 0.0132584 0.139939
            vertex 0.192231 -0.0473439 0.113747
            vertex 0.192211 -0.0534118 0.0892966
        endloop
    endfacet
    facet normal -0.598288 -0.256733 0.759039
        outer loop
            vertex -0.0140266 -0.038905 0.123074
            vertex -0.00570319 -0.0165645 0.137191
            vertex -0.0335577 -0.0212671 0.113645
        endloop
    endfacet
    facet normal -0.796041 -0.121101 -0.593003
        outer loop
            vertex -0.0638834 -0.02076 -0.000494742
            vertex -0.072639 -0.0236012 0.0118389
            vertex -0.0754265 0.000304795 0.0106988
        endloop
    endfacet
    facet normal -0.162994 -0.380225 0.910419
        outer loop
            vertex 0.0670986 -0.0285791 0.155805
            vertex 0.0418324 -0.0221538 0.153965
            vertex 0.0376814 -0.040193 0.145688
        endloop
    endfacet
    facet normal -0.828255 -0.514466 0.222079
        outer loop
            vertex -0.0532697 -0.0528451 0.0412595
            vertex -0.060035 -0.0341351 0.0593714
            vertex -0.0664219 -0.030365 0.0442849
        endloop
    endfacet
    facet normal -0.712912 -0.645889 0.2731
        outer loop
            vertex -0.0532697 -0.0528451 0.0412595
            vertex -0.0398844 -0.0625411 0.0532698
            vertex -0.0461311 -0.0459186 0.0762758
        endloop
    endfacet
    facet normal -0.588495 -0.808471 0.00698217
        outer loop
            vertex -0.0618263 -0.0468594 0.0131522
            vertex -0.03603 -0.0656554 0.011
            vertex -0.0532697 -0.0528451 0.0412595
        endloop
    endfacet
    facet normal -0.701437 0.450015 0.552695
        outer loop
            vertex -0.0270656 0.0542278 0.0959668
            vertex -0.0500993 0.0277753 0.0882724
            vertex -0.0219489 0.0389635 0.114889
        endloop
    endfacet
    facet normal -0.25277 0.753274 -0.607194
        outer loop
            vertex -0.0384892 0.055767 -0.00024363
            vertex -0.03603 0.0656554 0.011
            vertex -0.00431786 0.0762968 0.011
        endloop
    endfacet
    facet normal -0.271324 0.412788 0.869477
        outer loop
            vertex 0.0317257 0.0185767 0.153754
            vertex 0.0487812 0.0333406 0.152067
            vertex 0.019637 0.0400945 0.139766
        endloop
    endfacet
    facet normal 0.166129 0.776794 -0.607448
        outer loop
            vertex -0.00431786 0.0762968 0.011
            vertex 0.023062 0.0704412 0.011
            vertex 0.00694486 0.0652482 -4.85548e-005
        endloop
    endfacet
    facet normal -0.474843 0.790438 0.386952
        outer loop
            vertex -0.0270656 0.0542278 0.0959668
            vertex 0.00422182 0.0743006 0.0933574
            vertex -0.0310127 0.0619245 0.0754009
        endloop
    endfacet
    facet normal -0.84487 -0.514177 0.147702
        outer loop
            vertex -0.0618263 -0.0468594 0.0131522
            vertex -0.0532697 -0.0528451 0.0412595
            vertex -0.0664219 -0.030365 0.0442849
        endloop
    endfacet
    facet normal -0.425342 0.168934 0.889126
        outer loop
            vertex 0.0317257 0.0185767 0.153754
            vertex -0.00185553 0.0243574 0.136591
            vertex -0.00363072 0.00342475 0.139719
        endloop
    endfacet
    facet normal -0.892489 0.209315 0.399563
        outer loop
            vertex -0.0590217 0.00107803 0.0823284
            vertex -0.0500993 0.0277753 0.0882724
            vertex -0.0648886 0.0250484 0.0566666
        endloop
    endfacet
    facet normal -0.813711 -0.173437 0.554792
        outer loop
            vertex -0.0335577 -0.0212671 0.113645
            vertex -0.0464867 -0.00152761 0.100853
            vertex -0.0518318 -0.0265361 0.0851953
        endloop
    endfacet
    facet normal -0.455573 -0.0650471 0.887819
        outer loop
            vertex -0.00570319 -0.0165645 0.137191
            vertex 0.0180163 -0.0132525 0.149605
            vertex -0.00363072 0.00342475 0.139719
        endloop
    endfacet
    facet normal 0.186315 0.560249 0.807099
        outer loop
            vertex 0.19226 0.0132584 0.139939
            vertex 0.192219 0.0413221 0.120468
            vertex 0.0745445 0.0489178 0.14236
        endloop
    endfacet
    facet normal -0.710223 0.137131 -0.690491
        outer loop
            vertex -0.072673 0.025772 0.0129244
            vertex -0.0611086 0.0204024 -3.68705e-005
            vertex -0.0754265 0.000304795 0.0106988
        endloop
    endfacet
    facet normal -0.457696 -0.888792 0.0237481
        outer loop
            vertex -0.0398844 -0.0625411 0.0532698
            vertex -0.03603 -0.0656554 0.011
            vertex -0.0205833 -0.0722607 0.0614946
        endloop
    endfacet
    facet normal -0.996163 -0.0232971 0.0843568
        outer loop
            vertex -0.0728331 0.00769965 0.0433663
            vertex -0.0754265 0.000304795 0.0106988
            vertex -0.0732458 -0.0070289 0.0344251
        endloop
    endfacet
    facet normal -0.468935 -0.817373 0.334666
        outer loop
            vertex -0.0327064 -0.0638467 0.0678604
            vertex -0.00179814 -0.0742089 0.085861
            vertex -0.0241521 -0.0611267 0.0864899
        endloop
    endfacet
    facet normal -0.60823 0.0838507 0.789319
        outer loop
            vertex -0.0274595 0.0181202 0.119796
            vertex -0.0254626 0.000213707 0.123237
            vertex -0.00363072 0.00342475 0.139719
        endloop
    endfacet
    facet normal 1 -0.000390056 -0.000366368
        outer loop
            vertex 0.192259 0.0561039 0.0915982
            vertex 0.19226 0.0132584 0.139939
            vertex 0.192215 -0.000161907 0.0313956
        endloop
    endfacet
    facet normal -0.572699 0.328256 0.751175
        outer loop
            vertex -0.0274595 0.0181202 0.119796
            vertex -0.00185553 0.0243574 0.136591
            vertex -0.0219489 0.0389635 0.114889
        endloop
    endfacet
    facet normal 0.166041 0.972849 -0.161233
        outer loop
            vertex 0.192259 0.0561039 0.0915982
            vertex -0.00431786 0.0762968 0.011
            vertex 0.0751897 0.076094 0.0916546
        endloop
    endfacet
    facet normal 0.999999 0.000433659 -0.00113622
        outer loop
            vertex 0.192259 0.0561039 0.0915982
            vertex 0.192215 -0.000161907 0.0313956
            vertex 0.19221 0.0192791 0.0344222
        endloop
    endfacet
    facet normal -0.938914 0.298077 0.172021
        outer loop
            vertex -0.072673 0.025772 0.0129244
            vertex -0.0728331 0.00769965 0.0433663
            vertex -0.0648886 0.0250484 0.0566666
        endloop
    endfacet
    facet normal 0.00464156 -0.00166775 -0.999988
        outer loop
            vertex -0.0384892 0.055767 -0.00024363
            vertex 0.00694486 0.0652482 -4.85548e-005
            vertex -0.0341342 -0.0565917 -3.60276e-005
        endloop
    endfacet
    facet normal -0.598388 -0.0391653 0.800249
        outer loop
            vertex -0.00570319 -0.0165645 0.137191
            vertex -0.00363072 0.00342475 0.139719
            vertex -0.0254626 0.000213707 0.123237
        endloop
    endfacet
    facet normal -0.820961 0.0748897 0.566052
        outer loop
            vertex -0.0590217 0.00107803 0.0823284
            vertex -0.0464867 -0.00152761 0.100853
            vertex -0.0474978 0.016218 0.0970388
        endloop
    endfacet
    facet normal 0.999999 0.000906345 -0.00144066
        outer loop
            vertex 0.192259 0.0561039 0.0915982
            vertex 0.19221 0.0192791 0.0344222
            vertex 0.192211 0.0463253 0.0521305
        endloop
    endfacet
    facet normal -0.202499 -0.115819 0.972409
        outer loop
            vertex 0.0303657 0.0046366 0.154768
            vertex 0.0418324 -0.0221538 0.153965
            vertex 0.0540691 0.00134449 0.159312
        endloop
    endfacet
    facet normal -0.242854 -0.887767 0.391014
        outer loop
            vertex 0.00385922 -0.0653809 0.109418
            vertex -0.00179814 -0.0742089 0.085861
            vertex 0.0219874 -0.0730756 0.103207
        endloop
    endfacet
    facet normal -0.589971 -0.807405 0.00569015
        outer loop
            vertex -0.0532697 -0.0528451 0.0412595
            vertex -0.03603 -0.0656554 0.011
            vertex -0.0398844 -0.0625411 0.0532698
        endloop
    endfacet
    facet normal -0.252408 -0.598115 0.760624
        outer loop
            vertex 0.042274 -0.0550478 0.135531
            vertex 0.0376814 -0.040193 0.145688
            vertex 0.0132788 -0.0545444 0.126305
        endloop
    endfacet
    facet normal -0.435663 -0.627276 0.64554
        outer loop
            vertex -0.0140266 -0.038905 0.123074
            vertex 0.00385922 -0.0653809 0.109418
            vertex 0.0132788 -0.0545444 0.126305
        endloop
    endfacet
    facet normal -0.113093 -0.164091 0.979941
        outer loop
            vertex 0.0670986 -0.0285791 0.155805
            vertex 0.0540691 0.00134449 0.159312
            vertex 0.0418324 -0.0221538 0.153965
        endloop
    endfacet
    facet normal -0.223563 -0.124664 0.966684
        outer loop
            vertex 0.0303657 0.0046366 0.154768
            vertex 0.0180163 -0.0132525 0.149605
            vertex 0.0418324 -0.0221538 0.153965
        endloop
    endfacet
    facet normal 0.164355 -0.97365 -0.15809
        outer loop
            vertex 0.0771982 -0.0759026 0.0933186
            vertex -0.00431786 -0.0762968 0.011
            vertex 0.192227 -0.0512798 0.0612577
        endloop
    endfacet
    facet normal -0.234407 -0.75348 0.614265
        outer loop
            vertex 0.00385922 -0.0653809 0.109418
            vertex 0.0332821 -0.065111 0.120977
            vertex 0.0132788 -0.0545444 0.126305
        endloop
    endfacet
    facet normal -0.405661 0.105618 0.907901
        outer loop
            vertex 0.0317257 0.0185767 0.153754
            vertex -0.00363072 0.00342475 0.139719
            vertex 0.0303657 0.0046366 0.154768
        endloop
    endfacet
    facet normal 0.256605 -0.161899 -0.95286
        outer loop
            vertex 0.19221 -0.0245947 0.0355456
            vertex 0.0456055 -0.047608 -2.47947e-005
            vertex 0.192215 -0.000161907 0.0313956
        endloop
    endfacet
    facet normal 0.158637 -0.760264 0.629947
        outer loop
            vertex 0.0664248 -0.048302 0.144272
            vertex 0.074 -0.0648244 0.122424
            vertex 0.192231 -0.0473439 0.113747
        endloop
    endfacet
    facet normal 0.999999 -0.000384388 -0.00106019
        outer loop
            vertex 0.192227 -0.0512798 0.0612577
            vertex 0.19221 -0.0245947 0.0355456
            vertex 0.192215 -0.000161907 0.0313956
        endloop
    endfacet
    facet normal 0.000821607 -0.000989637 -0.999999
        outer loop
            vertex 0.0559757 0.0441969 -6.17368e-005
            vertex 0.065132 -0.0105847 -1.04647e-017
            vertex -0.0341342 -0.0565917 -3.60276e-005
        endloop
    endfacet
    facet normal -0.0136155 0.757061 0.653202
        outer loop
            vertex 0.0354932 0.0626417 0.12564
            vertex 0.0485404 0.0499635 0.140606
            vertex 0.0745445 0.0489178 0.14236
        endloop
    endfacet
    facet normal -0.628634 0.777299 -0.025014
        outer loop
            vertex -0.037994 0.0652782 0.0486366
            vertex -0.03603 0.0656554 0.011
            vertex -0.0566681 0.0489645 0.011
        endloop
    endfacet
    facet normal 0.015042 0.789818 0.613157
        outer loop
            vertex 0.0354932 0.0626417 0.12564
            vertex 0.0745445 0.0489178 0.14236
            vertex 0.074 0.0654973 0.121017
        endloop
    endfacet
    facet normal -0.639613 -0.662191 0.390381
        outer loop
            vertex -0.0461311 -0.0459186 0.0762758
            vertex -0.0327064 -0.0638467 0.0678604
            vertex -0.0241521 -0.0611267 0.0864899
        endloop
    endfacet
    facet normal -0.748422 -0.446007 0.490858
        outer loop
            vertex -0.0280782 -0.0455526 0.104134
            vertex -0.0518318 -0.0265361 0.0851953
            vertex -0.0461311 -0.0459186 0.0762758
        endloop
    endfacet
    facet normal -0.10945 0.236748 0.965387
        outer loop
            vertex 0.0317257 0.0185767 0.153754
            vertex 0.0694679 0.0261652 0.156172
            vertex 0.0487812 0.0333406 0.152067
        endloop
    endfacet
    facet normal -0.498095 0.604132 0.622034
        outer loop
            vertex -0.0270656 0.0542278 0.0959668
            vertex -0.0219489 0.0389635 0.114889
            vertex 0.00165728 0.0605896 0.112788
        endloop
    endfacet
    facet normal -0.631607 -0.104984 0.768148
        outer loop
            vertex -0.0335577 -0.0212671 0.113645
            vertex -0.00570319 -0.0165645 0.137191
            vertex -0.0254626 0.000213707 0.123237
        endloop
    endfacet
    facet normal -0.750967 0.0975854 0.653089
        outer loop
            vertex -0.0274595 0.0181202 0.119796
            vertex -0.0474978 0.016218 0.0970388
            vertex -0.0464867 -0.00152761 0.100853
        endloop
    endfacet
    facet normal -0.797219 0.602826 0.0322987
        outer loop
            vertex -0.0508299 0.0550768 0.0410219
            vertex -0.0566681 0.0489645 0.011
            vertex -0.0641678 0.0378091 0.0340927
        endloop
    endfacet
    facet normal -0.373508 0.335638 0.864777
        outer loop
            vertex 0.0175958 0.0478173 0.135887
            vertex -0.00185553 0.0243574 0.136591
            vertex 0.019637 0.0400945 0.139766
        endloop
    endfacet
    facet normal -0.0327156 0.567005 0.823064
        outer loop
            vertex 0.0487812 0.0333406 0.152067
            vertex 0.0745445 0.0489178 0.14236
            vertex 0.0485404 0.0499635 0.140606
        endloop
    endfacet
    facet normal -0.939466 0.0416462 0.340102
        outer loop
            vertex -0.0728331 0.00769965 0.0433663
            vertex -0.0666137 -0.00982659 0.0626923
            vertex -0.0590217 0.00107803 0.0823284
        endloop
    endfacet
    facet normal -0.503885 -0.623048 -0.598257
        outer loop
            vertex -0.0618263 -0.0468594 0.0131522
            vertex -0.0341342 -0.0565917 -3.60276e-005
            vertex -0.03603 -0.0656554 0.011
        endloop
    endfacet
    facet normal -0.446492 0.757798 0.475802
        outer loop
            vertex -0.0270656 0.0542278 0.0959668
            vertex 0.00165728 0.0605896 0.112788
            vertex 0.00422182 0.0743006 0.0933574
        endloop
    endfacet
    facet normal -0.959249 -0.193502 0.205909
        outer loop
            vertex -0.0666137 -0.00982659 0.0626923
            vertex -0.0732458 -0.0070289 0.0344251
            vertex -0.0664219 -0.030365 0.0442849
        endloop
    endfacet
    facet normal -0.664554 -0.397696 0.632618
        outer loop
            vertex -0.0140266 -0.038905 0.123074
            vertex -0.0335577 -0.0212671 0.113645
            vertex -0.0280782 -0.0455526 0.104134
        endloop
    endfacet
    facet normal -0.453007 -0.793594 0.406192
        outer loop
            vertex 0.00385922 -0.0653809 0.109418
            vertex -0.0241521 -0.0611267 0.0864899
            vertex -0.00179814 -0.0742089 0.085861
        endloop
    endfacet
    facet normal -0.729927 0.049603 0.681723
        outer loop
            vertex -0.0274595 0.0181202 0.119796
            vertex -0.0464867 -0.00152761 0.100853
            vertex -0.0254626 0.000213707 0.123237
        endloop
    endfacet
    facet normal -0.500059 -0.849136 0.170027
        outer loop
            vertex -0.0398844 -0.0625411 0.0532698
            vertex -0.0205833 -0.0722607 0.0614946
            vertex -0.0327064 -0.0638467 0.0678604
        endloop
    endfacet
    facet normal -0.29072 -0.556691 0.778188
        outer loop
            vertex 0.0132788 -0.0545444 0.126305
            vertex 0.0376814 -0.040193 0.145688
            vertex 0.018123 -0.0344872 0.142463
        endloop
    endfacet
    facet normal -0.141368 -0.637894 -0.757038
        outer loop
            vertex -0.00431786 -0.0762968 0.011
            vertex -0.0341342 -0.0565917 -3.60276e-005
            vertex 0.00727641 -0.065599 -0.000179269
        endloop
    endfacet
    facet normal -0.098614 -0.499811 0.860502
        outer loop
            vertex 0.0664248 -0.048302 0.144272
            vertex 0.0670986 -0.0285791 0.155805
            vertex 0.0376814 -0.040193 0.145688
        endloop
    endfacet
    facet normal -0.287893 0.367991 0.884138
        outer loop
            vertex 0.0175958 0.0478173 0.135887
            vertex 0.019637 0.0400945 0.139766
            vertex 0.0487812 0.0333406 0.152067
        endloop
    endfacet
    facet normal -0.446088 -0.851423 0.275834
        outer loop
            vertex -0.0327064 -0.0638467 0.0678604
            vertex -0.0205833 -0.0722607 0.0614946
            vertex -0.00179814 -0.0742089 0.085861
        endloop
    endfacet
    facet normal -0.506944 -0.430449 -0.746807
        outer loop
            vertex -0.0618263 -0.0468594 0.0131522
            vertex -0.0638834 -0.02076 -0.000494742
            vertex -0.0341342 -0.0565917 -3.60276e-005
        endloop
    endfacet
    facet normal -0.878535 -0.182933 0.441261
        outer loop
            vertex -0.0590217 0.00107803 0.0823284
            vertex -0.0666137 -0.00982659 0.0626923
            vertex -0.0518318 -0.0265361 0.0851953
        endloop
    endfacet
    facet normal -0.41105 -0.292467 0.863424
        outer loop
            vertex -0.00570319 -0.0165645 0.137191
            vertex 0.018123 -0.0344872 0.142463
            vertex 0.0180163 -0.0132525 0.149605
        endloop
    endfacet
    facet normal -0.0788871 0.996359 0.0323298
        outer loop
            vertex 0.00422182 0.0743006 0.0933574
            vertex -0.00431786 0.0762968 0.011
            vertex -0.0141719 0.0736402 0.0688281
        endloop
    endfacet
    facet normal -0.644743 0.051946 -0.762632
        outer loop
            vertex -0.0638834 -0.02076 -0.000494742
            vertex -0.0754265 0.000304795 0.0106988
            vertex -0.0611086 0.0204024 -3.68705e-005
        endloop
    endfacet
    facet normal 0.164518 0.484769 0.859031
        outer loop
            vertex 0.19226 0.0132584 0.139939
            vertex 0.0745445 0.0489178 0.14236
            vertex 0.0694679 0.0261652 0.156172
        endloop
    endfacet
    facet normal -0.811003 0.563917 0.155793
        outer loop
            vertex -0.0540928 0.0453757 0.059151
            vertex -0.0508299 0.0550768 0.0410219
            vertex -0.0641678 0.0378091 0.0340927
        endloop
    endfacet
    facet normal -0.379402 0.34495 0.858524
        outer loop
            vertex 0.0317257 0.0185767 0.153754
            vertex 0.019637 0.0400945 0.139766
            vertex -0.00185553 0.0243574 0.136591
        endloop
    endfacet
    facet normal -0.493947 -0.638246 0.590473
        outer loop
            vertex -0.0140266 -0.038905 0.123074
            vertex -0.0280782 -0.0455526 0.104134
            vertex 0.00385922 -0.0653809 0.109418
        endloop
    endfacet
    facet normal 1 -0.000463491 -0.000357288
        outer loop
            vertex 0.19226 0.0132584 0.139939
            vertex 0.192211 -0.0534118 0.0892966
            vertex 0.192215 -0.000161907 0.0313956
        endloop
    endfacet
    facet normal 0.999987 0.00375624 0.00330859
        outer loop
            vertex 0.192259 0.0561039 0.0915982
            vertex 0.192219 0.0413221 0.120468
            vertex 0.19226 0.0132584 0.139939
        endloop
    endfacet
    facet normal -0.0999582 0.185676 0.977514
        outer loop
            vertex 0.0317257 0.0185767 0.153754
            vertex 0.0540691 0.00134449 0.159312
            vertex 0.0694679 0.0261652 0.156172
        endloop
    endfacet
    facet normal -0.827857 -0.159724 0.537718
        outer loop
            vertex -0.0590217 0.00107803 0.0823284
            vertex -0.0518318 -0.0265361 0.0851953
            vertex -0.0464867 -0.00152761 0.100853
        endloop
    endfacet
    facet normal -0.569013 0.168528 0.804874
        outer loop
            vertex -0.0274595 0.0181202 0.119796
            vertex -0.00363072 0.00342475 0.139719
            vertex -0.00185553 0.0243574 0.136591
        endloop
    endfacet
    facet normal -0.00828111 -0.910527 0.413366
        outer loop
            vertex 0.0219874 -0.0730756 0.103207
            vertex 0.074 -0.0648244 0.122424
            vertex 0.0332821 -0.065111 0.120977
        endloop
    endfacet
    facet normal 0.280872 -0.665833 -0.691215
        outer loop
            vertex 0.192227 -0.0512798 0.0612577
            vertex 0.0231822 -0.0704155 0.011
            vertex 0.19221 -0.0245947 0.0355456
        endloop
    endfacet
    facet normal -0.716674 -0.366678 -0.593233
        outer loop
            vertex -0.0618263 -0.0468594 0.0131522
            vertex -0.072639 -0.0236012 0.0118389
            vertex -0.0638834 -0.02076 -0.000494742
        endloop
    endfacet
    facet normal -0.884439 -0.289374 0.366102
        outer loop
            vertex -0.0666137 -0.00982659 0.0626923
            vertex -0.060035 -0.0341351 0.0593714
            vertex -0.0518318 -0.0265361 0.0851953
        endloop
    endfacet
    facet normal 0.0266425 0.0093231 -0.999602
        outer loop
            vertex -0.0638834 -0.02076 -0.000494742
            vertex -0.0611086 0.0204024 -3.68705e-005
            vertex -0.0341342 -0.0565917 -3.60276e-005
        endloop
    endfacet
    facet normal -0.714286 0.333674 0.615188
        outer loop
            vertex -0.0500993 0.0277753 0.0882724
            vertex -0.0274595 0.0181202 0.119796
            vertex -0.0219489 0.0389635 0.114889
        endloop
    endfacet
    facet normal -0.841736 0.403157 0.35909
        outer loop
            vertex -0.0540928 0.0453757 0.059151
            vertex -0.0648886 0.0250484 0.0566666
            vertex -0.0500993 0.0277753 0.0882724
        endloop
    endfacet
    facet normal -0.691322 0.672364 0.264578
        outer loop
            vertex -0.037994 0.0652782 0.0486366
            vertex -0.0508299 0.0550768 0.0410219
            vertex -0.0310127 0.0619245 0.0754009
        endloop
    endfacet
    facet normal -0.274608 0.748639 0.603432
        outer loop
            vertex 0.0175958 0.0478173 0.135887
            vertex 0.0354932 0.0626417 0.12564
            vertex 0.00165728 0.0605896 0.112788
        endloop
    endfacet
    facet normal -0.281248 -0.30719 0.909139
        outer loop
            vertex 0.0180163 -0.0132525 0.149605
            vertex 0.018123 -0.0344872 0.142463
            vertex 0.0418324 -0.0221538 0.153965
        endloop
    endfacet
    facet normal -0.688065 0.656908 0.308283
        outer loop
            vertex -0.0540928 0.0453757 0.059151
            vertex -0.0412342 0.0472384 0.0838813
            vertex -0.0310127 0.0619245 0.0754009
        endloop
    endfacet
    facet normal -0.804452 0.453083 0.384151
        outer loop
            vertex -0.0540928 0.0453757 0.059151
            vertex -0.0500993 0.0277753 0.0882724
            vertex -0.0412342 0.0472384 0.0838813
        endloop
    endfacet
    facet normal -0.318111 0.947994 -0.0106563
        outer loop
            vertex -0.00431786 0.0762968 0.011
            vertex -0.03603 0.0656554 0.011
            vertex -0.0141719 0.0736402 0.0688281
        endloop
    endfacet
    facet normal -0.872571 0.436658 0.218975
        outer loop
            vertex -0.0540928 0.0453757 0.059151
            vertex -0.0641678 0.0378091 0.0340927
            vertex -0.0648886 0.0250484 0.0566666
        endloop
    endfacet
    facet normal -0.325523 0.945504 -0.00751087
        outer loop
            vertex -0.037994 0.0652782 0.0486366
            vertex -0.0141719 0.0736402 0.0688281
            vertex -0.03603 0.0656554 0.011
        endloop
    endfacet
endsolid D:/Users/Paul Maroldt/Documents/!StartUp_Repositories/module_type_database/0090_L148-710/0090_L148-710_convdec.stl_created_by_BoundingMesh