solid D:/Users/Paul Maroldt/Documents/!StartUp_Repositories/module_type_database/0110_B148-90deg/B148-90deg_convdec.stl_created_by_BoundingMesh
    facet normal -0.99391 0.0879602 0.0663794
        outer loop
            vertex -0.07 0.0328496 0.0625911
            vertex -0.0704178 0.0619364 0.017792
            vertex -0.0741343 0.0186037 0.019565
        endloop
    endfacet
    facet normal 0 0 -1
        outer loop
            vertex 0.121 -0.095 -0.126
            vertex 0.096 0.12 -0.126
            vertex 0.121 0.095 -0.126
        endloop
    endfacet
    facet normal 1 0 0
        outer loop
            vertex 0.121 -0.095 -0.126
            vertex 0.121 0.095 -0.116
            vertex 0.121 -0.095 -0.116
        endloop
    endfacet
    facet normal -0.961803 0.273507 -0.0113682
        outer loop
            vertex -0.0704178 0.0619364 0.017792
            vertex -0.059 0.0961111 -0.126
            vertex -0.0698772 0.0618329 -0.0304353
        endloop
    endfacet
    facet normal 0.733732 -0.118169 0.669084
        outer loop
            vertex 0.0798941 0.0224181 -0.0501848
            vertex -0.049 -0.0747619 0.074
            vertex 0.121 -0.095 -0.116
        endloop
    endfacet
    facet normal 0 -0 -1
        outer loop
            vertex -0.0326998 0.122381 -0.126
            vertex 0.121 -0.095 -0.126
            vertex -0.059 0.0961111 -0.126
        endloop
    endfacet
    facet normal -0.993142 -0.0702353 0.0934664
        outer loop
            vertex -0.07 -0.0208959 0.0625906
            vertex -0.0741657 -0.0147198 0.0229683
            vertex -0.07 -0.0511413 0.0398627
        endloop
    endfacet
    facet normal -0.994614 -0.0895498 0.0521906
        outer loop
            vertex -0.070613 -0.0624454 0.00878479
            vertex -0.07 -0.0511413 0.0398627
            vertex -0.0741657 -0.0147198 0.0229683
        endloop
    endfacet
    facet normal 0.707107 0.707107 0
        outer loop
            vertex 0.096 0.12 -0.126
            vertex 0.121 0.095 -0.116
            vertex 0.121 0.095 -0.126
        endloop
    endfacet
    facet normal 1 0 0
        outer loop
            vertex 0.121 0.095 -0.116
            vertex 0.121 -0.095 -0.126
            vertex 0.121 0.095 -0.126
        endloop
    endfacet
    facet normal -0.964581 -0.158467 0.210882
        outer loop
            vertex -0.07 -0.0208959 0.0625906
            vertex -0.07 -0.0511413 0.0398627
            vertex -0.0586562 -0.0747619 0.074
        endloop
    endfacet
    facet normal 0.707107 -0.707107 0
        outer loop
            vertex 0.096 -0.12 -0.116
            vertex 0.121 -0.095 -0.126
            vertex 0.121 -0.095 -0.116
        endloop
    endfacet
    facet normal -0.994715 -0.0990168 -0.0271549
        outer loop
            vertex -0.070613 -0.0624454 0.00878479
            vertex -0.0740115 -0.0247909 -0.00402639
            vertex -0.07 -0.057146 -0.0329935
        endloop
    endfacet
    facet normal 0.577109 0.577109 0.577832
        outer loop
            vertex -0.049 0.0747619 0.074
            vertex 0.121 0.095 -0.116
            vertex 0.096 0.12 -0.116
        endloop
    endfacet
    facet normal -0.963828 0.219346 0.151404
        outer loop
            vertex -0.07 0.0328496 0.0625911
            vertex -0.0586594 0.0748064 0.074
            vertex -0.0704178 0.0619364 0.017792
        endloop
    endfacet
    facet normal 3.60025e-007 0.972806 0.231621
        outer loop
            vertex -0.0326998 0.122381 -0.126
            vertex -0.049 0.0747619 0.074
            vertex 0.096 0.12 -0.116
        endloop
    endfacet
    facet normal 0.707107 -0.707107 0
        outer loop
            vertex 0.096 -0.12 -0.126
            vertex 0.121 -0.095 -0.126
            vertex 0.096 -0.12 -0.116
        endloop
    endfacet
    facet normal -0.996365 -0.0815162 0.0247202
        outer loop
            vertex -0.070613 -0.0624454 0.00878479
            vertex -0.0741657 -0.0147198 0.0229683
            vertex -0.0740115 -0.0247909 -0.00402639
        endloop
    endfacet
    facet normal 0.0184973 0.999829 0
        outer loop
            vertex -0.0326998 0.122381 -0.126
            vertex 0.096 0.12 -0.116
            vertex 0.096 0.12 -0.126
        endloop
    endfacet
    facet normal -0.984362 0 -0.17616
        outer loop
            vertex -0.073176 -1.51447e-005 -0.0467863
            vertex -0.059 0.0961111 -0.126
            vertex -0.059 -0.0961111 -0.126
        endloop
    endfacet
    facet normal -0.994996 0.071516 -0.0697714
        outer loop
            vertex -0.073176 -1.51447e-005 -0.0467863
            vertex -0.0740304 0.0236534 -0.0103415
            vertex -0.0698772 0.0618329 -0.0304353
        endloop
    endfacet
    facet normal 0 0 -1
        outer loop
            vertex -0.0326998 0.122381 -0.126
            vertex 0.096 0.12 -0.126
            vertex 0.121 -0.095 -0.126
        endloop
    endfacet
    facet normal 0 0 1
        outer loop
            vertex -0.0586594 0.0748064 0.074
            vertex -0.049 -0.0747619 0.074
            vertex -0.049 0.0747619 0.074
        endloop
    endfacet
    facet normal 0 0 1
        outer loop
            vertex -0.0586594 0.0748064 0.074
            vertex -0.0586562 -0.0747619 0.074
            vertex -0.049 -0.0747619 0.074
        endloop
    endfacet
    facet normal 0.707107 0.707107 0
        outer loop
            vertex 0.121 0.095 -0.116
            vertex 0.096 0.12 -0.126
            vertex 0.096 0.12 -0.116
        endloop
    endfacet
    facet normal -0.849086 0.525129 0.0573846
        outer loop
            vertex -0.0704178 0.0619364 0.017792
            vertex -0.0586594 0.0748064 0.074
            vertex -0.059 0.0961111 -0.126
        endloop
    endfacet
    facet normal -0.709199 -1.51734e-005 0.705009
        outer loop
            vertex -0.07 0.0328496 0.0625911
            vertex -0.0586562 -0.0747619 0.074
            vertex -0.0586594 0.0748064 0.074
        endloop
    endfacet
    facet normal -0.704637 0.705449 0.0763469
        outer loop
            vertex -0.0326998 0.122381 -0.126
            vertex -0.059 0.0961111 -0.126
            vertex -0.0586594 0.0748064 0.074
        endloop
    endfacet
    facet normal -0.99988 0.00162097 0.0154275
        outer loop
            vertex -0.0743488 -0.00469898 -0.0279985
            vertex -0.0740115 -0.0247909 -0.00402639
            vertex -0.0740304 0.0236534 -0.0103415
        endloop
    endfacet
    facet normal -0.981747 -0.186348 -0.0380422
        outer loop
            vertex -0.070613 -0.0624454 0.00878479
            vertex -0.07 -0.057146 -0.0329935
            vertex -0.059 -0.0961111 -0.126
        endloop
    endfacet
    facet normal -0.709158 -6.54851e-006 0.70505
        outer loop
            vertex -0.07 0.0328496 0.0625911
            vertex -0.07 -0.0208959 0.0625906
            vertex -0.0586562 -0.0747619 0.074
        endloop
    endfacet
    facet normal 0.848164 0 0.529734
        outer loop
            vertex 0.0798941 0.0224181 -0.0501848
            vertex 0.121 -0.095 -0.116
            vertex 0.121 0.095 -0.116
        endloop
    endfacet
    facet normal 0.720448 0.195368 0.665421
        outer loop
            vertex 0.0798941 0.0224181 -0.0501848
            vertex 0.121 0.095 -0.116
            vertex -0.049 0.0747619 0.074
        endloop
    endfacet
    facet normal 0 0 -1
        outer loop
            vertex -0.0327302 -0.122381 -0.126
            vertex -0.059 -0.0961111 -0.126
            vertex 0.096 -0.12 -0.126
        endloop
    endfacet
    facet normal -0.993422 0.0757008 -0.0859184
        outer loop
            vertex -0.073176 -1.51447e-005 -0.0467863
            vertex -0.0698772 0.0618329 -0.0304353
            vertex -0.059 0.0961111 -0.126
        endloop
    endfacet
    facet normal -0.993426 -0.0759137 -0.0856897
        outer loop
            vertex -0.073176 -1.51447e-005 -0.0467863
            vertex -0.059 -0.0961111 -0.126
            vertex -0.07 -0.057146 -0.0329935
        endloop
    endfacet
    facet normal -0.995667 -0.0776913 -0.0511063
        outer loop
            vertex -0.0743488 -0.00469898 -0.0279985
            vertex -0.07 -0.057146 -0.0329935
            vertex -0.0740115 -0.0247909 -0.00402639
        endloop
    endfacet
    facet normal 0 0 -1
        outer loop
            vertex -0.059 0.0961111 -0.126
            vertex 0.121 -0.095 -0.126
            vertex -0.059 -0.0961111 -0.126
        endloop
    endfacet
    facet normal 3.59945e-007 -0.972806 0.231621
        outer loop
            vertex -0.0327302 -0.122381 -0.126
            vertex 0.096 -0.12 -0.116
            vertex -0.049 -0.0747619 0.074
        endloop
    endfacet
    facet normal 0.693829 0 0.72014
        outer loop
            vertex 0.0798941 0.0224181 -0.0501848
            vertex -0.049 0.0747619 0.074
            vertex -0.049 -0.0747619 0.074
        endloop
    endfacet
    facet normal -0.850629 -0.52264 0.057252
        outer loop
            vertex -0.070613 -0.0624454 0.00878479
            vertex -0.059 -0.0961111 -0.126
            vertex -0.0586562 -0.0747619 0.074
        endloop
    endfacet
    facet normal -0.999983 0.000345818 -0.00584133
        outer loop
            vertex -0.0741657 -0.0147198 0.0229683
            vertex -0.0741343 0.0186037 0.019565
            vertex -0.0740115 -0.0247909 -0.00402639
        endloop
    endfacet
    facet normal -0.995683 0.0103591 0.0922434
        outer loop
            vertex -0.07 0.0328496 0.0625911
            vertex -0.0741343 0.0186037 0.019565
            vertex -0.0741657 -0.0147198 0.0229683
        endloop
    endfacet
    facet normal 0.0184929 -0.999829 0
        outer loop
            vertex -0.0327302 -0.122381 -0.126
            vertex 0.096 -0.12 -0.126
            vertex 0.096 -0.12 -0.116
        endloop
    endfacet
    facet normal -0.951773 -0.281814 0.121279
        outer loop
            vertex -0.070613 -0.0624454 0.00878479
            vertex -0.0586562 -0.0747619 0.074
            vertex -0.07 -0.0511413 0.0398627
        endloop
    endfacet
    facet normal -0.993935 -0.0747316 -0.0806758
        outer loop
            vertex -0.073176 -1.51447e-005 -0.0467863
            vertex -0.07 -0.057146 -0.0329935
            vertex -0.0743488 -0.00469898 -0.0279985
        endloop
    endfacet
    facet normal -0.999993 -0.000862029 -0.00361964
        outer loop
            vertex -0.0741343 0.0186037 0.019565
            vertex -0.0740304 0.0236534 -0.0103415
            vertex -0.0740115 -0.0247909 -0.00402639
        endloop
    endfacet
    facet normal -0.996243 0.0858962 0.0110425
        outer loop
            vertex -0.0704178 0.0619364 0.017792
            vertex -0.0740304 0.0236534 -0.0103415
            vertex -0.0741343 0.0186037 0.019565
        endloop
    endfacet
    facet normal -0.705038 -0.705035 0.0764716
        outer loop
            vertex -0.0327302 -0.122381 -0.126
            vertex -0.0586562 -0.0747619 0.074
            vertex -0.059 -0.0961111 -0.126
        endloop
    endfacet
    facet normal 0.577109 -0.577109 0.577832
        outer loop
            vertex -0.049 -0.0747619 0.074
            vertex 0.096 -0.12 -0.116
            vertex 0.121 -0.095 -0.116
        endloop
    endfacet
    facet normal -0.997735 0.0432736 -0.0514941
        outer loop
            vertex -0.073176 -1.51447e-005 -0.0467863
            vertex -0.0743488 -0.00469898 -0.0279985
            vertex -0.0740304 0.0236534 -0.0103415
        endloop
    endfacet
    facet normal 0 0 -1
        outer loop
            vertex -0.059 -0.0961111 -0.126
            vertex 0.121 -0.095 -0.126
            vertex 0.096 -0.12 -0.126
        endloop
    endfacet
    facet normal 0.00448144 0.972714 0.231964
        outer loop
            vertex -0.0326998 0.122381 -0.126
            vertex -0.0586594 0.0748064 0.074
            vertex -0.049 0.0747619 0.074
        endloop
    endfacet
    facet normal 0 -0.972806 0.231621
        outer loop
            vertex -0.0327302 -0.122381 -0.126
            vertex -0.049 -0.0747619 0.074
            vertex -0.0586562 -0.0747619 0.074
        endloop
    endfacet
    facet normal -0.994519 -9.71144e-007 0.104559
        outer loop
            vertex -0.07 0.0328496 0.0625911
            vertex -0.0741657 -0.0147198 0.0229683
            vertex -0.07 -0.0208959 0.0625906
        endloop
    endfacet
    facet normal -0.994697 0.10222 -0.0113693
        outer loop
            vertex -0.0704178 0.0619364 0.017792
            vertex -0.0698772 0.0618329 -0.0304353
            vertex -0.0740304 0.0236534 -0.0103415
        endloop
    endfacet
endsolid D:/Users/Paul Maroldt/Documents/!StartUp_Repositories/module_type_database/0110_B148-90deg/B148-90deg_convdec.stl_created_by_BoundingMesh