solid D:/Users/Paul Maroldt/Documents/!StartUp_Repositories/gen2_robot_data/ModuleLibrary/L148-600/L148-600_convdec.stl_created_by_BoundingMesh
    facet normal 0.633849 0.0453315 -0.772127
        outer loop
            vertex 0.600163 -0.016448 0.0190956
            vertex 0.589003 -0.0121667 0.0101856
            vertex 0.589 0.0140111 0.01172
        endloop
    endfacet
    facet normal -0.751256 0.279609 -0.597858
        outer loop
            vertex -0.076565 0.00559169 0.011
            vertex -0.0620387 0.0446211 0.011
            vertex -0.0639069 0.0157547 -0.000152825
        endloop
    endfacet
    facet normal 0.991695 0.0927537 -0.0890893
        outer loop
            vertex 0.608101 0.0075908 0.0927237
            vertex 0.6 0.0306659 0.026572
            vertex 0.6 0.0558272 0.0527682
        endloop
    endfacet
    facet normal 0.512628 -0.321033 -0.796335
        outer loop
            vertex 0.600163 -0.016448 0.0190956
            vertex 0.588992 -0.0420845 0.0222395
            vertex 0.589003 -0.0121667 0.0101856
        endloop
    endfacet
    facet normal 0.000956064 -0.99758 0.0695196
        outer loop
            vertex 0.589 -0.075142 0.0717495
            vertex 0.589 -0.0729578 0.103092
            vertex -0.000120879 -0.0745454 0.0884124
        endloop
    endfacet
    facet normal 0.992393 -0.106616 0.0615545
        outer loop
            vertex 0.608101 0.0075908 0.0927237
            vertex 0.6 -0.0408706 0.139391
            vertex 0.6 -0.0646529 0.0981985
        endloop
    endfacet
    facet normal 0.496363 -0.79124 -0.357159
        outer loop
            vertex 0.6 -0.0589392 0.0511416
            vertex 0.589 -0.075142 0.0717495
            vertex 0.589017 -0.0618213 0.0422628
        endloop
    endfacet
    facet normal -0.376589 0.112697 0.9195
        outer loop
            vertex -0.00266352 0.0210922 0.138787
            vertex 0.0128195 -0.00273043 0.148048
            vertex 0.0284632 0.0214285 0.151494
        endloop
    endfacet
    facet normal 0.0451502 0.307135 -0.950594
        outer loop
            vertex 0.589 0.0435669 0.0212694
            vertex 0.589 0.0140111 0.01172
            vertex -0.00765543 0.0632314 -0.000716259
        endloop
    endfacet
    facet normal 0.000551149 0.911237 0.411882
        outer loop
            vertex 0.0219068 0.0730924 0.103552
            vertex 0.589 0.0604852 0.130685
            vertex 0.589 0.0737976 0.101233
        endloop
    endfacet
    facet normal -0.527261 0.572688 0.627713
        outer loop
            vertex -0.00170007 0.0406151 0.130178
            vertex -0.000612546 0.0562666 0.116812
            vertex -0.0249831 0.0500424 0.10202
        endloop
    endfacet
    facet normal 0.0520484 -0.711186 -0.701075
        outer loop
            vertex -0.0107678 -0.074126 0.0102164
            vertex 0.588992 -0.0420845 0.0222395
            vertex 0.589017 -0.0618213 0.0422628
        endloop
    endfacet
    facet normal -0.602064 0.0851533 0.793894
        outer loop
            vertex -0.0333515 0.011674 0.116212
            vertex -0.0278143 0.000712224 0.121587
            vertex -0.00427109 0.00414706 0.139073
        endloop
    endfacet
    facet normal 0.798808 0.235797 0.553449
        outer loop
            vertex 0.6 0.0490665 0.13213
            vertex 0.589 0.0314527 0.155511
            vertex 0.6 0.00531102 0.150772
        endloop
    endfacet
    facet normal -0.43021 -0.162893 0.887911
        outer loop
            vertex 0.0296055 -0.00856908 0.15511
            vertex 0.0128195 -0.00273043 0.148048
            vertex 0.00907785 -0.0245127 0.142239
        endloop
    endfacet
    facet normal 0.0487666 -0.37328 -0.926436
        outer loop
            vertex 0.589003 -0.0121667 0.0101856
            vertex 0.588992 -0.0420845 0.0222395
            vertex -0.00304306 -0.0629676 -0.000510395
        endloop
    endfacet
    facet normal 0.681689 0.569246 -0.459628
        outer loop
            vertex 0.589 0.0744437 0.0595101
            vertex 0.6 0.0558272 0.0527682
            vertex 0.589 0.0435669 0.0212694
        endloop
    endfacet
    facet normal 0.00230368 0.126958 0.991905
        outer loop
            vertex 0.0626717 0.000977701 0.160634
            vertex 0.589 -0.00405681 0.160056
            vertex 0.589 0.0314527 0.155511
        endloop
    endfacet
    facet normal 0.993778 -0.11022 0.016057
        outer loop
            vertex 0.608101 0.0075908 0.0927237
            vertex 0.6 -0.0646529 0.0981985
            vertex 0.605682 -0.0171831 0.072382
        endloop
    endfacet
    facet normal -0.00222316 0.203 0.979176
        outer loop
            vertex 0.0626717 0.000977701 0.160634
            vertex 0.589 0.0314527 0.155511
            vertex 0.051663 0.0235374 0.155932
        endloop
    endfacet
    facet normal -0.607298 0.345455 0.715436
        outer loop
            vertex -0.00170007 0.0406151 0.130178
            vertex -0.0342745 0.0325697 0.106412
            vertex -0.00266352 0.0210922 0.138787
        endloop
    endfacet
    facet normal -0.434789 -0.423061 0.794971
        outer loop
            vertex -0.0157512 -0.0383417 0.1213
            vertex 0.0160628 -0.0430974 0.136169
            vertex 0.00907785 -0.0245127 0.142239
        endloop
    endfacet
    facet normal -0.020946 0.0129532 -0.999697
        outer loop
            vertex -0.0415945 0.0509816 -0.00016388
            vertex -0.00765543 0.0632314 -0.000716259
            vertex -0.0639069 0.0157547 -0.000152825
        endloop
    endfacet
    facet normal 0.988414 0.141919 0.0538223
        outer loop
            vertex 0.608101 0.0075908 0.0927237
            vertex 0.6 0.0659329 0.0876565
            vertex 0.6 0.0490665 0.13213
        endloop
    endfacet
    facet normal 0.752671 -0.570189 0.329196
        outer loop
            vertex 0.6 -0.0408706 0.139391
            vertex 0.589016 -0.0608033 0.12998
            vertex 0.6 -0.0646529 0.0981985
        endloop
    endfacet
    facet normal 0.485255 -0.577409 0.656602
        outer loop
            vertex 0.6 -0.0408706 0.139391
            vertex 0.589 -0.0346748 0.152969
            vertex 0.589016 -0.0608033 0.12998
        endloop
    endfacet
    facet normal 0.633748 0.237823 -0.736073
        outer loop
            vertex 0.589 0.0435669 0.0212694
            vertex 0.6 0.0306659 0.026572
            vertex 0.589 0.0140111 0.01172
        endloop
    endfacet
    facet normal 0.990019 -0.0337225 0.136839
        outer loop
            vertex 0.608101 0.0075908 0.0927237
            vertex 0.6 0.00531102 0.150772
            vertex 0.6 -0.0408706 0.139391
        endloop
    endfacet
    facet normal 0.762834 0.46633 -0.447907
        outer loop
            vertex 0.589 0.0435669 0.0212694
            vertex 0.6 0.0558272 0.0527682
            vertex 0.6 0.0306659 0.026572
        endloop
    endfacet
    facet normal -0.477956 0.737498 0.477132
        outer loop
            vertex -0.000612546 0.0562666 0.116812
            vertex -0.00308886 0.0747412 0.0857754
            vertex -0.0249831 0.0500424 0.10202
        endloop
    endfacet
    facet normal 0.991769 -0.127105 -0.0154332
        outer loop
            vertex 0.6 -0.0589392 0.0511416
            vertex 0.605682 -0.0171831 0.072382
            vertex 0.6 -0.0646529 0.0981985
        endloop
    endfacet
    facet normal 0.602371 -0.568101 -0.560723
        outer loop
            vertex 0.6 -0.0589392 0.0511416
            vertex 0.589017 -0.0618213 0.0422628
            vertex 0.588992 -0.0420845 0.0222395
        endloop
    endfacet
    facet normal -0.498305 -0.616148 -0.609963
        outer loop
            vertex -0.0336007 -0.0564675 -0.00026567
            vertex -0.03603 -0.0656554 0.011
            vertex -0.0566681 -0.0489645 0.011
        endloop
    endfacet
    facet normal -0.00529856 0.0127368 -0.999905
        outer loop
            vertex -0.0336007 -0.0564675 -0.00026567
            vertex 0.0852238 -0.00845268 -0.000283716
            vertex -0.00304306 -0.0629676 -0.000510395
        endloop
    endfacet
    facet normal 0.61703 -0.785036 0.0547078
        outer loop
            vertex 0.589 -0.075142 0.0717495
            vertex 0.6 -0.0646529 0.0981985
            vertex 0.589 -0.0729578 0.103092
        endloop
    endfacet
    facet normal 0.656864 -0.687218 0.310259
        outer loop
            vertex 0.6 -0.0646529 0.0981985
            vertex 0.589016 -0.0608033 0.12998
            vertex 0.589 -0.0729578 0.103092
        endloop
    endfacet
    facet normal 0.992677 0.00224467 -0.120781
        outer loop
            vertex 0.608101 0.0075908 0.0927237
            vertex 0.605682 -0.0171831 0.072382
            vertex 0.6 0.0306659 0.026572
        endloop
    endfacet
    facet normal -0.338217 -0.404621 0.849642
        outer loop
            vertex 0.00907785 -0.0245127 0.142239
            vertex 0.0160628 -0.0430974 0.136169
            vertex 0.0365238 -0.039076 0.146229
        endloop
    endfacet
    facet normal -0.359037 -0.767358 0.531277
        outer loop
            vertex 0.0150631 -0.0546538 0.127622
            vertex -0.0118912 -0.0572572 0.105646
            vertex 0.0269655 -0.0665529 0.118479
        endloop
    endfacet
    facet normal -0.785699 0.352769 0.508164
        outer loop
            vertex -0.0342745 0.0325697 0.106412
            vertex -0.0531091 0.0349038 0.0756705
            vertex -0.0531884 0.0160312 0.0886493
        endloop
    endfacet
    facet normal -0.351297 0.392225 0.850147
        outer loop
            vertex -0.00170007 0.0406151 0.130178
            vertex -0.00266352 0.0210922 0.138787
            vertex 0.0284632 0.0214285 0.151494
        endloop
    endfacet
    facet normal -0.318444 0.947665 -0.0229151
        outer loop
            vertex -0.026095 0.0701751 0.0598504
            vertex -0.0106818 0.074155 0.0102486
            vertex -0.03603 0.0656554 0.011
        endloop
    endfacet
    facet normal 0.0511637 0.777021 -0.627392
        outer loop
            vertex 0.589 0.0744437 0.0595101
            vertex 0.589 0.0435669 0.0212694
            vertex -0.0106818 0.074155 0.0102486
        endloop
    endfacet
    facet normal -0.827256 -0.561411 -0.0215635
        outer loop
            vertex -0.0724469 -0.0258022 0.0132972
            vertex -0.0566681 -0.0489645 0.011
            vertex -0.0641298 -0.0388551 0.0340578
        endloop
    endfacet
    facet normal 0.0406581 -0.910578 -0.411333
        outer loop
            vertex 0.589 -0.075142 0.0717495
            vertex -0.0107678 -0.074126 0.0102164
            vertex 0.589017 -0.0618213 0.0422628
        endloop
    endfacet
    facet normal 0.728594 -0.163894 0.665048
        outer loop
            vertex 0.6 -0.0408706 0.139391
            vertex 0.6 0.00531102 0.150772
            vertex 0.589 -0.0346748 0.152969
        endloop
    endfacet
    facet normal -0.0126286 -0.00373692 -0.999913
        outer loop
            vertex -0.0336007 -0.0564675 -0.00026567
            vertex -0.0606919 -0.0255394 -3.91033e-005
            vertex -0.0639069 0.0157547 -0.000152825
        endloop
    endfacet
    facet normal -0.481106 -0.876489 0.0174105
        outer loop
            vertex -0.0220621 -0.0723188 0.061524
            vertex -0.0396341 -0.0629035 0.0499451
            vertex -0.03603 -0.0656554 0.011
        endloop
    endfacet
    facet normal -0.980476 -0.0673204 0.184758
        outer loop
            vertex -0.0686573 -0.0216537 0.0506141
            vertex -0.0699084 0.00476928 0.0536025
            vertex -0.0740574 -0.000149468 0.0297923
        endloop
    endfacet
    facet normal 0.0492654 0.714344 -0.698059
        outer loop
            vertex 0.589 0.0435669 0.0212694
            vertex -0.00765543 0.0632314 -0.000716259
            vertex -0.0106818 0.074155 0.0102486
        endloop
    endfacet
    facet normal -0.000855536 0.995614 0.0935473
        outer loop
            vertex 0.0219068 0.0730924 0.103552
            vertex 0.589 0.0737976 0.101233
            vertex -0.00308886 0.0747412 0.0857754
        endloop
    endfacet
    facet normal -0.682173 -0.40429 -0.609253
        outer loop
            vertex -0.0724469 -0.0258022 0.0132972
            vertex -0.0606919 -0.0255394 -3.91033e-005
            vertex -0.0566681 -0.0489645 0.011
        endloop
    endfacet
    facet normal -0.984045 -0.13574 0.115022
        outer loop
            vertex -0.0686573 -0.0216537 0.0506141
            vertex -0.0740574 -0.000149468 0.0297923
            vertex -0.0724469 -0.0258022 0.0132972
        endloop
    endfacet
    facet normal -0.00301037 0.571345 0.820705
        outer loop
            vertex 0.0430012 0.0354234 0.150744
            vertex 0.589 0.0314527 0.155511
            vertex 0.0462067 0.0516678 0.139447
        endloop
    endfacet
    facet normal -0.304644 -0.329268 0.893742
        outer loop
            vertex 0.0296055 -0.00856908 0.15511
            vertex 0.00907785 -0.0245127 0.142239
            vertex 0.0365238 -0.039076 0.146229
        endloop
    endfacet
    facet normal 0.741809 0.627034 0.2378
        outer loop
            vertex 0.6 0.0490665 0.13213
            vertex 0.6 0.0659329 0.0876565
            vertex 0.589 0.0737976 0.101233
        endloop
    endfacet
    facet normal -0.000797415 -0.990278 0.1391
        outer loop
            vertex 0.0222641 -0.0723517 0.104158
            vertex -0.000120879 -0.0745454 0.0884124
            vertex 0.589 -0.0729578 0.103092
        endloop
    endfacet
    facet normal -0.850188 -0.410096 0.330153
        outer loop
            vertex -0.0686573 -0.0216537 0.0506141
            vertex -0.0526562 -0.0475599 0.05964
            vertex -0.059002 -0.0213752 0.0758237
        endloop
    endfacet
    facet normal 0.0205536 -0.0291236 -0.999364
        outer loop
            vertex 0.589003 -0.0121667 0.0101856
            vertex -0.00304306 -0.0629676 -0.000510395
            vertex 0.0852238 -0.00845268 -0.000283716
        endloop
    endfacet
    facet normal -0.244283 0.644119 -0.72487
        outer loop
            vertex -0.0415945 0.0509816 -0.00016388
            vertex -0.03603 0.0656554 0.011
            vertex -0.00765543 0.0632314 -0.000716259
        endloop
    endfacet
    facet normal -0.684038 -0.625572 0.375169
        outer loop
            vertex -0.0526562 -0.0475599 0.05964
            vertex -0.0275908 -0.061779 0.0816317
            vertex -0.038603 -0.043606 0.0918558
        endloop
    endfacet
    facet normal -0.857674 0.293807 0.421987
        outer loop
            vertex -0.0531884 0.0160312 0.0886493
            vertex -0.0531091 0.0349038 0.0756705
            vertex -0.0647563 0.0224744 0.0606519
        endloop
    endfacet
    facet normal -0.732145 -0.0682883 0.677717
        outer loop
            vertex -0.0465468 -0.00357561 0.100918
            vertex -0.0291885 -0.0172254 0.118295
            vertex -0.0278143 0.000712224 0.121587
        endloop
    endfacet
    facet normal -0.505498 -0.437338 -0.743779
        outer loop
            vertex -0.0336007 -0.0564675 -0.00026567
            vertex -0.0566681 -0.0489645 0.011
            vertex -0.0606919 -0.0255394 -3.91033e-005
        endloop
    endfacet
    facet normal 0.758598 -0.394178 -0.5188
        outer loop
            vertex 0.600163 -0.016448 0.0190956
            vertex 0.6 -0.0589392 0.0511416
            vertex 0.588992 -0.0420845 0.0222395
        endloop
    endfacet
    facet normal -0.692311 0.499139 0.52112
        outer loop
            vertex -0.0358166 0.054527 0.0833322
            vertex -0.0342745 0.0325697 0.106412
            vertex -0.0249831 0.0500424 0.10202
        endloop
    endfacet
    facet normal -0.924463 0.344075 -0.164257
        outer loop
            vertex -0.076565 0.00559169 0.011
            vertex -0.0722522 0.0239426 0.0251672
            vertex -0.0620387 0.0446211 0.011
        endloop
    endfacet
    facet normal -0.140888 -0.633692 -0.760648
        outer loop
            vertex -0.0336007 -0.0564675 -0.00026567
            vertex -0.00304306 -0.0629676 -0.000510395
            vertex -0.0107678 -0.074126 0.0102164
        endloop
    endfacet
    facet normal 0.991206 -0.0820811 -0.103795
        outer loop
            vertex 0.600163 -0.016448 0.0190956
            vertex 0.605682 -0.0171831 0.072382
            vertex 0.6 -0.0589392 0.0511416
        endloop
    endfacet
    facet normal -0.343635 0.402442 0.848502
        outer loop
            vertex -0.00170007 0.0406151 0.130178
            vertex 0.0284632 0.0214285 0.151494
            vertex 0.0430012 0.0354234 0.150744
        endloop
    endfacet
    facet normal -0.671162 -0.708147 0.219248
        outer loop
            vertex -0.0526562 -0.0475599 0.05964
            vertex -0.0549971 -0.0512228 0.0406433
            vertex -0.0396341 -0.0629035 0.0499451
        endloop
    endfacet
    facet normal -0.740815 -0.145166 -0.655836
        outer loop
            vertex -0.076565 0.00559169 0.011
            vertex -0.0606919 -0.0255394 -3.91033e-005
            vertex -0.0724469 -0.0258022 0.0132972
        endloop
    endfacet
    facet normal -0.822194 0.493928 0.2829
        outer loop
            vertex -0.0630404 0.0410842 0.0360164
            vertex -0.0531091 0.0349038 0.0756705
            vertex -0.0466626 0.051196 0.0659607
        endloop
    endfacet
    facet normal -0.836146 -0.510191 0.201409
        outer loop
            vertex -0.0526562 -0.0475599 0.05964
            vertex -0.0641298 -0.0388551 0.0340578
            vertex -0.0549971 -0.0512228 0.0406433
        endloop
    endfacet
    facet normal -0.983331 0.10251 0.150172
        outer loop
            vertex -0.0699084 0.00476928 0.0536025
            vertex -0.0722522 0.0239426 0.0251672
            vertex -0.0740574 -0.000149468 0.0297923
        endloop
    endfacet
    facet normal -0.768554 0.243522 0.591626
        outer loop
            vertex -0.0342745 0.0325697 0.106412
            vertex -0.0531884 0.0160312 0.0886493
            vertex -0.0333515 0.011674 0.116212
        endloop
    endfacet
    facet normal 0.736822 0.108446 -0.667332
        outer loop
            vertex 0.600163 -0.016448 0.0190956
            vertex 0.589 0.0140111 0.01172
            vertex 0.6 0.0306659 0.026572
        endloop
    endfacet
    facet normal -0.330144 0.66609 0.668827
        outer loop
            vertex 0.0284077 0.064461 0.122976
            vertex -0.000612546 0.0562666 0.116812
            vertex 0.0194335 0.050975 0.131977
        endloop
    endfacet
    facet normal -0.332111 0.798632 0.501886
        outer loop
            vertex 0.0284077 0.064461 0.122976
            vertex -0.00308886 0.0747412 0.0857754
            vertex -0.000612546 0.0562666 0.116812
        endloop
    endfacet
    facet normal 0.00303712 -0.660558 0.750769
        outer loop
            vertex 0.0491103 -0.0537101 0.138405
            vertex 0.589016 -0.0608033 0.12998
            vertex 0.589 -0.0346748 0.152969
        endloop
    endfacet
    facet normal 0.498339 0.563452 0.658923
        outer loop
            vertex 0.6 0.0490665 0.13213
            vertex 0.589 0.0604852 0.130685
            vertex 0.589 0.0314527 0.155511
        endloop
    endfacet
    facet normal 0.0520282 -0.710573 -0.701697
        outer loop
            vertex -0.0107678 -0.074126 0.0102164
            vertex -0.00304306 -0.0629676 -0.000510395
            vertex 0.588992 -0.0420845 0.0222395
        endloop
    endfacet
    facet normal 0.589109 0.102589 0.801515
        outer loop
            vertex 0.589 0.0314527 0.155511
            vertex 0.589 -0.00405681 0.160056
            vertex 0.6 0.00531102 0.150772
        endloop
    endfacet
    facet normal -0.52974 0.335288 -0.779075
        outer loop
            vertex -0.0620387 0.0446211 0.011
            vertex -0.0415945 0.0509816 -0.00016388
            vertex -0.0639069 0.0157547 -0.000152825
        endloop
    endfacet
    facet normal -0.9104 0.358145 0.207134
        outer loop
            vertex -0.0630404 0.0410842 0.0360164
            vertex -0.0722522 0.0239426 0.0251672
            vertex -0.0647563 0.0224744 0.0606519
        endloop
    endfacet
    facet normal 0.59171 0.806054 0.0124821
        outer loop
            vertex 0.589 0.0744437 0.0595101
            vertex 0.589 0.0737976 0.101233
            vertex 0.6 0.0659329 0.0876565
        endloop
    endfacet
    facet normal 0.00118926 0.999879 0.0154836
        outer loop
            vertex 0.589 0.0744437 0.0595101
            vertex -0.00308886 0.0747412 0.0857754
            vertex 0.589 0.0737976 0.101233
        endloop
    endfacet
    facet normal 0.994513 0.0197422 -0.102732
        outer loop
            vertex 0.600163 -0.016448 0.0190956
            vertex 0.6 0.0306659 0.026572
            vertex 0.605682 -0.0171831 0.072382
        endloop
    endfacet
    facet normal -0.462464 -0.831221 0.308543
        outer loop
            vertex -0.0220621 -0.0723188 0.061524
            vertex -0.000120879 -0.0745454 0.0884124
            vertex -0.0275908 -0.061779 0.0816317
        endloop
    endfacet
    facet normal -0.225599 -0.603091 0.765106
        outer loop
            vertex 0.0150631 -0.0546538 0.127622
            vertex 0.0491103 -0.0537101 0.138405
            vertex 0.0365238 -0.039076 0.146229
        endloop
    endfacet
    facet normal -0.6969 -0.354775 0.623269
        outer loop
            vertex -0.0157512 -0.0383417 0.1213
            vertex -0.0291885 -0.0172254 0.118295
            vertex -0.0453478 -0.0230787 0.0968949
        endloop
    endfacet
    facet normal -0.00115992 -0.999986 -0.00520545
        outer loop
            vertex 0.589 -0.075142 0.0717495
            vertex -0.000120879 -0.0745454 0.0884124
            vertex -0.0107678 -0.074126 0.0102164
        endloop
    endfacet
    facet normal -0.00254109 -0.839249 0.543741
        outer loop
            vertex 0.0491103 -0.0537101 0.138405
            vertex 0.0269655 -0.0665529 0.118479
            vertex 0.589016 -0.0608033 0.12998
        endloop
    endfacet
    facet normal 0.0209278 0.0210843 -0.999559
        outer loop
            vertex 0.589003 -0.0121667 0.0101856
            vertex 0.0852238 -0.00845268 -0.000283716
            vertex -0.00765543 0.0632314 -0.000716259
        endloop
    endfacet
    facet normal -0.425034 -0.514191 0.744952
        outer loop
            vertex -0.0157512 -0.0383417 0.1213
            vertex 0.0150631 -0.0546538 0.127622
            vertex 0.0160628 -0.0430974 0.136169
        endloop
    endfacet
    facet normal -0.586832 -0.264524 0.765281
        outer loop
            vertex -0.0157512 -0.0383417 0.1213
            vertex -0.00998709 -0.0156198 0.133574
            vertex -0.0291885 -0.0172254 0.118295
        endloop
    endfacet
    facet normal -0.732388 0.657017 0.178708
        outer loop
            vertex -0.0630404 0.0410842 0.0360164
            vertex -0.0466626 0.051196 0.0659607
            vertex -0.0513858 0.0539822 0.0363604
        endloop
    endfacet
    facet normal -0.000669683 0.00128145 -0.999999
        outer loop
            vertex -0.0336007 -0.0564675 -0.00026567
            vertex -0.0639069 0.0157547 -0.000152825
            vertex 0.0852238 -0.00845268 -0.000283716
        endloop
    endfacet
    facet normal -0.761994 -0.175434 0.623369
        outer loop
            vertex -0.0465468 -0.00357561 0.100918
            vertex -0.0453478 -0.0230787 0.0968949
            vertex -0.0291885 -0.0172254 0.118295
        endloop
    endfacet
    facet normal -0.98795 -0.122691 0.0943468
        outer loop
            vertex -0.076565 0.00559169 0.011
            vertex -0.0724469 -0.0258022 0.0132972
            vertex -0.0740574 -0.000149468 0.0297923
        endloop
    endfacet
    facet normal -0.741266 0.668079 0.0647736
        outer loop
            vertex -0.0620387 0.0446211 0.011
            vertex -0.0630404 0.0410842 0.0360164
            vertex -0.0513858 0.0539822 0.0363604
        endloop
    endfacet
    facet normal -0.00235167 -0.00908075 -0.999956
        outer loop
            vertex -0.0639069 0.0157547 -0.000152825
            vertex -0.00765543 0.0632314 -0.000716259
            vertex 0.0852238 -0.00845268 -0.000283716
        endloop
    endfacet
    facet normal -0.445969 0.0573841 0.893207
        outer loop
            vertex -0.00266352 0.0210922 0.138787
            vertex -0.00427109 0.00414706 0.139073
            vertex 0.0128195 -0.00273043 0.148048
        endloop
    endfacet
    facet normal 0.824135 0.54403 -0.157583
        outer loop
            vertex 0.589 0.0744437 0.0595101
            vertex 0.6 0.0659329 0.0876565
            vertex 0.6 0.0558272 0.0527682
        endloop
    endfacet
    facet normal -0.4908 0.73881 0.461817
        outer loop
            vertex -0.0358166 0.054527 0.0833322
            vertex -0.0249831 0.0500424 0.10202
            vertex -0.00308886 0.0747412 0.0857754
        endloop
    endfacet
    facet normal 0.000901101 0.913949 0.405828
        outer loop
            vertex 0.0284077 0.064461 0.122976
            vertex 0.589 0.0604852 0.130685
            vertex 0.0219068 0.0730924 0.103552
        endloop
    endfacet
    facet normal -0.930202 -0.0844431 0.357201
        outer loop
            vertex -0.0686573 -0.0216537 0.0506141
            vertex -0.059002 -0.0213752 0.0758237
            vertex -0.0699084 0.00476928 0.0536025
        endloop
    endfacet
    facet normal -0.313567 0.499414 0.807627
        outer loop
            vertex -0.00170007 0.0406151 0.130178
            vertex 0.0430012 0.0354234 0.150744
            vertex 0.0194335 0.050975 0.131977
        endloop
    endfacet
    facet normal -0.213549 -0.879122 0.426076
        outer loop
            vertex 0.0269655 -0.0665529 0.118479
            vertex -0.000120879 -0.0745454 0.0884124
            vertex 0.0222641 -0.0723517 0.104158
        endloop
    endfacet
    facet normal 0.712109 -0.158319 0.683986
        outer loop
            vertex 0.589 -0.0346748 0.152969
            vertex 0.6 0.00531102 0.150772
            vertex 0.589 -0.00405681 0.160056
        endloop
    endfacet
    facet normal -0.000404566 -0.155703 0.987804
        outer loop
            vertex 0.0626717 0.000977701 0.160634
            vertex 0.0593546 -0.0277401 0.156106
            vertex 0.589 -0.00405681 0.160056
        endloop
    endfacet
    facet normal -0.515391 0.79611 0.317147
        outer loop
            vertex -0.0358166 0.054527 0.0833322
            vertex -0.00308886 0.0747412 0.0857754
            vertex -0.026095 0.0701751 0.0598504
        endloop
    endfacet
    facet normal -0.591713 0.477852 0.649255
        outer loop
            vertex -0.00170007 0.0406151 0.130178
            vertex -0.0249831 0.0500424 0.10202
            vertex -0.0342745 0.0325697 0.106412
        endloop
    endfacet
    facet normal -0.275904 0.840709 0.465925
        outer loop
            vertex 0.0284077 0.064461 0.122976
            vertex 0.0219068 0.0730924 0.103552
            vertex -0.00308886 0.0747412 0.0857754
        endloop
    endfacet
    facet normal -0.00287156 0.788252 0.615346
        outer loop
            vertex 0.0284077 0.064461 0.122976
            vertex 0.0462067 0.0516678 0.139447
            vertex 0.589 0.0604852 0.130685
        endloop
    endfacet
    facet normal -0.0983868 -0.533687 0.839939
        outer loop
            vertex 0.0593546 -0.0277401 0.156106
            vertex 0.0365238 -0.039076 0.146229
            vertex 0.0491103 -0.0537101 0.138405
        endloop
    endfacet
    facet normal -0.866152 0.019102 0.499415
        outer loop
            vertex -0.0531884 0.0160312 0.0886493
            vertex -0.0598542 -0.00150482 0.0777593
            vertex -0.0465468 -0.00357561 0.100918
        endloop
    endfacet
    facet normal -0.237409 -0.320768 0.916921
        outer loop
            vertex 0.0296055 -0.00856908 0.15511
            vertex 0.0365238 -0.039076 0.146229
            vertex 0.0593546 -0.0277401 0.156106
        endloop
    endfacet
    facet normal 0.000157454 0.99997 -0.00777704
        outer loop
            vertex 0.589 0.0744437 0.0595101
            vertex -0.0106818 0.074155 0.0102486
            vertex -0.00308886 0.0747412 0.0857754
        endloop
    endfacet
    facet normal 0.665582 0.680079 0.307398
        outer loop
            vertex 0.6 0.0490665 0.13213
            vertex 0.589 0.0737976 0.101233
            vertex 0.589 0.0604852 0.130685
        endloop
    endfacet
    facet normal 0.990203 0.134119 -0.0388487
        outer loop
            vertex 0.608101 0.0075908 0.0927237
            vertex 0.6 0.0558272 0.0527682
            vertex 0.6 0.0659329 0.0876565
        endloop
    endfacet
    facet normal -0.00512728 0.396887 0.917853
        outer loop
            vertex 0.0430012 0.0354234 0.150744
            vertex 0.051663 0.0235374 0.155932
            vertex 0.589 0.0314527 0.155511
        endloop
    endfacet
    facet normal -0.123507 -0.14062 0.98233
        outer loop
            vertex 0.0296055 -0.00856908 0.15511
            vertex 0.0593546 -0.0277401 0.156106
            vertex 0.0626717 0.000977701 0.160634
        endloop
    endfacet
    facet normal -0.725003 0.665265 0.178305
        outer loop
            vertex -0.0393295 0.06385 0.048565
            vertex -0.0513858 0.0539822 0.0363604
            vertex -0.0466626 0.051196 0.0659607
        endloop
    endfacet
    facet normal -0.601742 0.744887 0.288184
        outer loop
            vertex -0.0393295 0.06385 0.048565
            vertex -0.0466626 0.051196 0.0659607
            vertex -0.026095 0.0701751 0.0598504
        endloop
    endfacet
    facet normal -0.622849 0.782155 -0.0171166
        outer loop
            vertex -0.0393295 0.06385 0.048565
            vertex -0.03603 0.0656554 0.011
            vertex -0.0513858 0.0539822 0.0363604
        endloop
    endfacet
    facet normal -0.221984 0.63917 0.736332
        outer loop
            vertex 0.0284077 0.064461 0.122976
            vertex 0.0194335 0.050975 0.131977
            vertex 0.0462067 0.0516678 0.139447
        endloop
    endfacet
    facet normal -0.800353 -0.44338 0.403547
        outer loop
            vertex -0.0526562 -0.0475599 0.05964
            vertex -0.038603 -0.043606 0.0918558
            vertex -0.059002 -0.0213752 0.0758237
        endloop
    endfacet
    facet normal -0.362966 0.619571 0.69598
        outer loop
            vertex -0.00170007 0.0406151 0.130178
            vertex 0.0194335 0.050975 0.131977
            vertex -0.000612546 0.0562666 0.116812
        endloop
    endfacet
    facet normal -0.434737 0.900543 0.00509588
        outer loop
            vertex -0.0393295 0.06385 0.048565
            vertex -0.026095 0.0701751 0.0598504
            vertex -0.03603 0.0656554 0.011
        endloop
    endfacet
    facet normal -0.697207 -0.378532 0.608783
        outer loop
            vertex -0.0157512 -0.0383417 0.1213
            vertex -0.0453478 -0.0230787 0.0968949
            vertex -0.038603 -0.043606 0.0918558
        endloop
    endfacet
    facet normal -0.957967 0.194979 0.210432
        outer loop
            vertex -0.0699084 0.00476928 0.0536025
            vertex -0.0647563 0.0224744 0.0606519
            vertex -0.0722522 0.0239426 0.0251672
        endloop
    endfacet
    facet normal -0.628666 0.777339 -0.0228558
        outer loop
            vertex -0.0620387 0.0446211 0.011
            vertex -0.0513858 0.0539822 0.0363604
            vertex -0.03603 0.0656554 0.011
        endloop
    endfacet
    facet normal 0.0256264 0.0584979 -0.997959
        outer loop
            vertex 0.589003 -0.0121667 0.0101856
            vertex -0.00765543 0.0632314 -0.000716259
            vertex 0.589 0.0140111 0.01172
        endloop
    endfacet
    facet normal -0.240453 0.653663 -0.71757
        outer loop
            vertex -0.00765543 0.0632314 -0.000716259
            vertex -0.03603 0.0656554 0.011
            vertex -0.0106818 0.074155 0.0102486
        endloop
    endfacet
    facet normal -0.58482 -0.636956 0.502268
        outer loop
            vertex -0.0275908 -0.061779 0.0816317
            vertex -0.0118912 -0.0572572 0.105646
            vertex -0.038603 -0.043606 0.0918558
        endloop
    endfacet
    facet normal -0.318722 -0.947134 -0.0367993
        outer loop
            vertex -0.0220621 -0.0723188 0.061524
            vertex -0.03603 -0.0656554 0.011
            vertex -0.0107678 -0.074126 0.0102164
        endloop
    endfacet
    facet normal -0.113177 -0.993524 0.0100811
        outer loop
            vertex -0.0220621 -0.0723188 0.061524
            vertex -0.0107678 -0.074126 0.0102164
            vertex -0.000120879 -0.0745454 0.0884124
        endloop
    endfacet
    facet normal 0.000892778 -0.911224 0.411911
        outer loop
            vertex 0.0269655 -0.0665529 0.118479
            vertex 0.589 -0.0729578 0.103092
            vertex 0.589016 -0.0608033 0.12998
        endloop
    endfacet
    facet normal -0.000285139 -0.926865 0.375396
        outer loop
            vertex 0.0269655 -0.0665529 0.118479
            vertex 0.0222641 -0.0723517 0.104158
            vertex 0.589 -0.0729578 0.103092
        endloop
    endfacet
    facet normal -0.261265 -0.719674 -0.643281
        outer loop
            vertex -0.0336007 -0.0564675 -0.00026567
            vertex -0.0107678 -0.074126 0.0102164
            vertex -0.03603 -0.0656554 0.011
        endloop
    endfacet
    facet normal -0.981058 0.104787 0.162923
        outer loop
            vertex -0.076565 0.00559169 0.011
            vertex -0.0740574 -0.000149468 0.0297923
            vertex -0.0722522 0.0239426 0.0251672
        endloop
    endfacet
    facet normal -0.909998 0.0953287 0.403506
        outer loop
            vertex -0.0531884 0.0160312 0.0886493
            vertex -0.0699084 0.00476928 0.0536025
            vertex -0.0598542 -0.00150482 0.0777593
        endloop
    endfacet
    facet normal -0.636524 -0.0516765 -0.769524
        outer loop
            vertex -0.076565 0.00559169 0.011
            vertex -0.0639069 0.0157547 -0.000152825
            vertex -0.0606919 -0.0255394 -3.91033e-005
        endloop
    endfacet
    facet normal -0.00246867 -0.562544 0.826764
        outer loop
            vertex 0.0593546 -0.0277401 0.156106
            vertex 0.0491103 -0.0537101 0.138405
            vertex 0.589 -0.0346748 0.152969
        endloop
    endfacet
    facet normal -0.358501 -0.770088 0.527676
        outer loop
            vertex 0.0269655 -0.0665529 0.118479
            vertex -0.0118912 -0.0572572 0.105646
            vertex -0.000120879 -0.0745454 0.0884124
        endloop
    endfacet
    facet normal -0.193901 -0.712284 0.674577
        outer loop
            vertex 0.0150631 -0.0546538 0.127622
            vertex 0.0269655 -0.0665529 0.118479
            vertex 0.0491103 -0.0537101 0.138405
        endloop
    endfacet
    facet normal -0.50849 -0.305816 0.804931
        outer loop
            vertex -0.0157512 -0.0383417 0.1213
            vertex 0.00907785 -0.0245127 0.142239
            vertex -0.00998709 -0.0156198 0.133574
        endloop
    endfacet
    facet normal -0.867176 -0.0849906 0.490695
        outer loop
            vertex -0.059002 -0.0213752 0.0758237
            vertex -0.0465468 -0.00357561 0.100918
            vertex -0.0598542 -0.00150482 0.0777593
        endloop
    endfacet
    facet normal -0.736151 -0.0405837 0.675599
        outer loop
            vertex -0.0333515 0.011674 0.116212
            vertex -0.0465468 -0.00357561 0.100918
            vertex -0.0278143 0.000712224 0.121587
        endloop
    endfacet
    facet normal -0.618032 0.747825 0.242476
        outer loop
            vertex -0.0358166 0.054527 0.0833322
            vertex -0.026095 0.0701751 0.0598504
            vertex -0.0466626 0.051196 0.0659607
        endloop
    endfacet
    facet normal 0.00171125 0.6499 0.760018
        outer loop
            vertex 0.589 0.0314527 0.155511
            vertex 0.589 0.0604852 0.130685
            vertex 0.0462067 0.0516678 0.139447
        endloop
    endfacet
    facet normal -0.356628 0.0984102 0.929049
        outer loop
            vertex 0.0296055 -0.00856908 0.15511
            vertex 0.0284632 0.0214285 0.151494
            vertex 0.0128195 -0.00273043 0.148048
        endloop
    endfacet
    facet normal -0.209212 0.977778 0.0134438
        outer loop
            vertex -0.026095 0.0701751 0.0598504
            vertex -0.00308886 0.0747412 0.0857754
            vertex -0.0106818 0.074155 0.0102486
        endloop
    endfacet
    facet normal -0.80016 0.0991041 0.591542
        outer loop
            vertex -0.0531884 0.0160312 0.0886493
            vertex -0.0465468 -0.00357561 0.100918
            vertex -0.0333515 0.011674 0.116212
        endloop
    endfacet
    facet normal -0.846249 0.451814 0.28236
        outer loop
            vertex -0.0630404 0.0410842 0.0360164
            vertex -0.0647563 0.0224744 0.0606519
            vertex -0.0531091 0.0349038 0.0756705
        endloop
    endfacet
    facet normal -0.740352 0.461631 0.488647
        outer loop
            vertex -0.0358166 0.054527 0.0833322
            vertex -0.0531091 0.0349038 0.0756705
            vertex -0.0342745 0.0325697 0.106412
        endloop
    endfacet
    facet normal -0.888099 0.458718 0.0292942
        outer loop
            vertex -0.0620387 0.0446211 0.011
            vertex -0.0722522 0.0239426 0.0251672
            vertex -0.0630404 0.0410842 0.0360164
        endloop
    endfacet
    facet normal -0.614786 -0.0965574 0.782761
        outer loop
            vertex -0.0291885 -0.0172254 0.118295
            vertex -0.00998709 -0.0156198 0.133574
            vertex -0.0278143 0.000712224 0.121587
        endloop
    endfacet
    facet normal -0.918695 -0.371335 0.134576
        outer loop
            vertex -0.0686573 -0.0216537 0.0506141
            vertex -0.0724469 -0.0258022 0.0132972
            vertex -0.0641298 -0.0388551 0.0340578
        endloop
    endfacet
    facet normal -0.579326 -0.776533 0.247745
        outer loop
            vertex -0.0220621 -0.0723188 0.061524
            vertex -0.0275908 -0.061779 0.0816317
            vertex -0.0396341 -0.0629035 0.0499451
        endloop
    endfacet
    facet normal -0.643266 -0.716487 0.269917
        outer loop
            vertex -0.0526562 -0.0475599 0.05964
            vertex -0.0396341 -0.0629035 0.0499451
            vertex -0.0275908 -0.061779 0.0816317
        endloop
    endfacet
    facet normal -0.605328 -0.795976 0.00022553
        outer loop
            vertex -0.0549971 -0.0512228 0.0406433
            vertex -0.03603 -0.0656554 0.011
            vertex -0.0396341 -0.0629035 0.0499451
        endloop
    endfacet
    facet normal -0.927397 -0.0754644 0.366388
        outer loop
            vertex -0.059002 -0.0213752 0.0758237
            vertex -0.0598542 -0.00150482 0.0777593
            vertex -0.0699084 0.00476928 0.0536025
        endloop
    endfacet
    facet normal -0.465356 -0.763389 0.447975
        outer loop
            vertex -0.0275908 -0.061779 0.0816317
            vertex -0.000120879 -0.0745454 0.0884124
            vertex -0.0118912 -0.0572572 0.105646
        endloop
    endfacet
    facet normal -0.790584 -0.378026 0.481739
        outer loop
            vertex -0.059002 -0.0213752 0.0758237
            vertex -0.038603 -0.043606 0.0918558
            vertex -0.0453478 -0.0230787 0.0968949
        endloop
    endfacet
    facet normal -0.196383 0.109972 0.974341
        outer loop
            vertex 0.0296055 -0.00856908 0.15511
            vertex 0.051663 0.0235374 0.155932
            vertex 0.0284632 0.0214285 0.151494
        endloop
    endfacet
    facet normal -0.834237 -0.160129 0.527643
        outer loop
            vertex -0.059002 -0.0213752 0.0758237
            vertex -0.0453478 -0.0230787 0.0968949
            vertex -0.0465468 -0.00357561 0.100918
        endloop
    endfacet
    facet normal -0.231833 0.585813 0.77658
        outer loop
            vertex 0.0430012 0.0354234 0.150744
            vertex 0.0462067 0.0516678 0.139447
            vertex 0.0194335 0.050975 0.131977
        endloop
    endfacet
    facet normal -0.605085 0.0707882 0.793008
        outer loop
            vertex -0.00266352 0.0210922 0.138787
            vertex -0.0333515 0.011674 0.116212
            vertex -0.00427109 0.00414706 0.139073
        endloop
    endfacet
    facet normal -0.590379 -0.0533262 0.805363
        outer loop
            vertex -0.00427109 0.00414706 0.139073
            vertex -0.0278143 0.000712224 0.121587
            vertex -0.00998709 -0.0156198 0.133574
        endloop
    endfacet
    facet normal -0.513084 0.634423 -0.578145
        outer loop
            vertex -0.0620387 0.0446211 0.011
            vertex -0.03603 0.0656554 0.011
            vertex -0.0415945 0.0509816 -0.00016388
        endloop
    endfacet
    facet normal -0.194184 0.108446 0.974952
        outer loop
            vertex 0.0296055 -0.00856908 0.15511
            vertex 0.0626717 0.000977701 0.160634
            vertex 0.051663 0.0235374 0.155932
        endloop
    endfacet
    facet normal -0.466887 -0.152119 0.871135
        outer loop
            vertex 0.00907785 -0.0245127 0.142239
            vertex 0.0128195 -0.00273043 0.148048
            vertex -0.00998709 -0.0156198 0.133574
        endloop
    endfacet
    facet normal -0.204273 0.262736 0.942996
        outer loop
            vertex 0.0430012 0.0354234 0.150744
            vertex 0.0284632 0.0214285 0.151494
            vertex 0.051663 0.0235374 0.155932
        endloop
    endfacet
    facet normal -0.623278 0.309314 0.718226
        outer loop
            vertex -0.00266352 0.0210922 0.138787
            vertex -0.0342745 0.0325697 0.106412
            vertex -0.0333515 0.011674 0.116212
        endloop
    endfacet
    facet normal -0.458846 -0.620188 0.636261
        outer loop
            vertex -0.0157512 -0.0383417 0.1213
            vertex -0.0118912 -0.0572572 0.105646
            vertex 0.0150631 -0.0546538 0.127622
        endloop
    endfacet
    facet normal -0.763144 0.525836 0.375644
        outer loop
            vertex -0.0358166 0.054527 0.0833322
            vertex -0.0466626 0.051196 0.0659607
            vertex -0.0531091 0.0349038 0.0756705
        endloop
    endfacet
    facet normal 0.00281771 -0.225502 0.974239
        outer loop
            vertex 0.0593546 -0.0277401 0.156106
            vertex 0.589 -0.0346748 0.152969
            vertex 0.589 -0.00405681 0.160056
        endloop
    endfacet
    facet normal -0.276199 -0.555941 0.783992
        outer loop
            vertex 0.0150631 -0.0546538 0.127622
            vertex 0.0365238 -0.039076 0.146229
            vertex 0.0160628 -0.0430974 0.136169
        endloop
    endfacet
    facet normal -0.628653 -0.777322 -0.0237811
        outer loop
            vertex -0.0549971 -0.0512228 0.0406433
            vertex -0.0566681 -0.0489645 0.011
            vertex -0.03603 -0.0656554 0.011
        endloop
    endfacet
    facet normal 0.777525 -0.624267 -0.0757991
        outer loop
            vertex 0.6 -0.0589392 0.0511416
            vertex 0.6 -0.0646529 0.0981985
            vertex 0.589 -0.075142 0.0717495
        endloop
    endfacet
    facet normal -0.587601 -0.583679 0.560396
        outer loop
            vertex -0.0157512 -0.0383417 0.1213
            vertex -0.038603 -0.043606 0.0918558
            vertex -0.0118912 -0.0572572 0.105646
        endloop
    endfacet
    facet normal -0.910262 0.105471 0.400373
        outer loop
            vertex -0.0531884 0.0160312 0.0886493
            vertex -0.0647563 0.0224744 0.0606519
            vertex -0.0699084 0.00476928 0.0536025
        endloop
    endfacet
    facet normal -0.861586 -0.450998 0.232961
        outer loop
            vertex -0.0686573 -0.0216537 0.0506141
            vertex -0.0641298 -0.0388551 0.0340578
            vertex -0.0526562 -0.0475599 0.05964
        endloop
    endfacet
    facet normal -0.804469 -0.593994 9.61082e-005
        outer loop
            vertex -0.0549971 -0.0512228 0.0406433
            vertex -0.0641298 -0.0388551 0.0340578
            vertex -0.0566681 -0.0489645 0.011
        endloop
    endfacet
    facet normal 0.988308 0.0597626 0.140271
        outer loop
            vertex 0.608101 0.0075908 0.0927237
            vertex 0.6 0.0490665 0.13213
            vertex 0.6 0.00531102 0.150772
        endloop
    endfacet
    facet normal -0.493274 -0.0978177 0.864357
        outer loop
            vertex -0.00427109 0.00414706 0.139073
            vertex -0.00998709 -0.0156198 0.133574
            vertex 0.0128195 -0.00273043 0.148048
        endloop
    endfacet
endsolid D:/Users/Paul Maroldt/Documents/!StartUp_Repositories/gen2_robot_data/ModuleLibrary/L148-600/L148-600_convdec.stl_created_by_BoundingMesh