solid C:/Users/felix/Documents/Gitlab/robot/module_type_database/0940_E-EoPTestLoadDevice-4000g/0940_E-EoPTestLoadDevice-4000g_convdec.stl_created_by_BoundingMesh
    facet normal -0.686326 0.396248 -0.609872
        outer loop
            vertex -0.0411955 0.0142579 0.011
            vertex -0.0330041 0.0284459 0.011
            vertex -0.0300207 0.016679 -2.64799e-006
        endloop
    endfacet
    facet normal 0.369244 0.0119334 0.929256
        outer loop
            vertex 0.02671 0.0353707 0.116669
            vertex 0.00845369 0.0304056 0.123987
            vertex 0.0162098 -0.0304056 0.121686
        endloop
    endfacet
    facet normal 0.813826 -0.231475 0.533017
        outer loop
            vertex 0.00562872 -0.136528 0.103403
            vertex 0.036667 -0.023905 0.104922
            vertex 0.0289148 -0.0311891 0.113595
        endloop
    endfacet
    facet normal 0.649798 -0.717724 0.250271
        outer loop
            vertex 0.00569475 -0.138251 0.0978351
            vertex 0.0031957 -0.138776 0.102818
            vertex 0.0036671 -0.139717 0.0988955
        endloop
    endfacet
    facet normal -0.639624 -0.34028 0.689268
        outer loop
            vertex -0.00609897 -0.137134 0.102234
            vertex -0.00415959 -0.137103 0.104049
            vertex -0.00544528 -0.129203 0.106756
        endloop
    endfacet
    facet normal -0.000182929 -1.23134e-005 -1
        outer loop
            vertex 0.0349422 -0.00200865 -7.58627e-006
            vertex -0.00282389 -0.0344321 -2.78522e-007
            vertex -0.00835754 0.0334843 -1.02542e-007
        endloop
    endfacet
    facet normal 0.958997 0.00861954 0.283286
        outer loop
            vertex 0.0443061 0.00186464 0.0831146
            vertex 0.0386803 0.0203478 0.101597
            vertex 0.0411995 -0.0128283 0.0940783
        endloop
    endfacet
    facet normal -0.312255 0.171366 0.934415
        outer loop
            vertex -0.0263227 0.0356798 0.116931
            vertex -0.00765044 0.0304056 0.124138
            vertex -0.00544529 0.129203 0.106756
        endloop
    endfacet
    facet normal 0.00925114 0.162733 0.986627
        outer loop
            vertex -0.00765044 0.0304056 0.124138
            vertex 0.00845369 0.0304056 0.123987
            vertex 0.00372371 0.129232 0.107731
        endloop
    endfacet
    facet normal -0.0569968 -0.752225 0.656437
        outer loop
            vertex 0.000358299 -0.136497 0.106329
            vertex -0.00195728 -0.137134 0.105398
            vertex 0.00071205 -0.139483 0.102938
        endloop
    endfacet
    facet normal 0.602793 -0.284753 0.745356
        outer loop
            vertex 0.00562872 -0.136528 0.103403
            vertex 0.00372368 -0.129232 0.107731
            vertex 0.00367117 -0.136298 0.105074
        endloop
    endfacet
    facet normal 0.964648 0.261587 0.0320283
        outer loop
            vertex 0.0443061 0.00186464 0.0831146
            vertex 0.00752758 0.135378 0.100379
            vertex 0.0386803 0.0203478 0.101597
        endloop
    endfacet
    facet normal 0.494495 -0.84146 -0.217758
        outer loop
            vertex 0.00569475 -0.138251 0.0978351
            vertex 0.0036671 -0.139717 0.0988955
            vertex 0.002957 -0.139406 0.0960812
        endloop
    endfacet
    facet normal -0.0828692 0.733657 0.674448
        outer loop
            vertex 0.000270314 0.136509 0.106312
            vertex 0.00181457 0.138659 0.104163
            vertex -0.00197735 0.137088 0.105406
        endloop
    endfacet
    facet normal 0.956755 -0.255682 0.138733
        outer loop
            vertex 0.00757423 -0.135142 0.100549
            vertex 0.0411995 -0.0128283 0.0940783
            vertex 0.036667 -0.023905 0.104922
        endloop
    endfacet
    facet normal -0.294113 0.285522 0.912126
        outer loop
            vertex 0.000270314 0.136509 0.106312
            vertex -0.00197735 0.137088 0.105406
            vertex -0.00544529 0.129203 0.106756
        endloop
    endfacet
    facet normal -0.601146 0.791204 -0.112338
        outer loop
            vertex -0.00263968 0.140051 0.0991457
            vertex -0.00570046 0.13747 0.0973465
            vertex -0.00468876 0.138687 0.100504
        endloop
    endfacet
    facet normal 0.316036 0.547486 0.774842
        outer loop
            vertex 0.000270314 0.136509 0.106312
            vertex 0.0036711 0.136298 0.105074
            vertex 0.00181457 0.138659 0.104163
        endloop
    endfacet
    facet normal -0.989763 0.142306 -0.0108211
        outer loop
            vertex -0.0433088 0.00530486 0.0865549
            vertex -0.0411955 0.0142579 0.011
            vertex -0.0435437 -0.00207419 0.011
        endloop
    endfacet
    facet normal -0.808686 0.239003 0.537499
        outer loop
            vertex -0.0263227 0.0356798 0.116931
            vertex -0.00544529 0.129203 0.106756
            vertex -0.00628812 0.136224 0.102366
        endloop
    endfacet
    facet normal -0.650702 -0.467379 -0.598451
        outer loop
            vertex -0.0396144 -0.0182708 0.011
            vertex -0.0298946 -0.0177088 -7.3496e-006
            vertex -0.0307807 -0.0305694 0.011
        endloop
    endfacet
    facet normal 0.860856 0.238351 0.449574
        outer loop
            vertex 0.02671 0.0353707 0.116669
            vertex 0.00752758 0.135378 0.100379
            vertex 0.00594557 0.135122 0.103544
        endloop
    endfacet
    facet normal 0.757065 0.437094 -0.485593
        outer loop
            vertex 0.0304072 0.0205307 -0.000173215
            vertex 0.0330857 0.0283044 0.011
            vertex 0.0411955 0.0142579 0.011
        endloop
    endfacet
    facet normal -0.815098 -0.234787 0.529613
        outer loop
            vertex -0.00609897 -0.137134 0.102234
            vertex -0.00544528 -0.129203 0.106756
            vertex -0.0312783 -0.029811 0.11106
        endloop
    endfacet
    facet normal 0.815142 0.470626 -0.33772
        outer loop
            vertex 0.00566597 0.137818 0.0974294
            vertex 0.0411955 0.0142579 0.011
            vertex 0.0330857 0.0283044 0.011
        endloop
    endfacet
    facet normal -0.0412902 0.669281 -0.741862
        outer loop
            vertex 0.000699642 0.139076 0.0947568
            vertex 0.00894607 0.0345519 -2.85165e-008
            vertex -0.00835754 0.0334843 -1.02542e-007
        endloop
    endfacet
    facet normal 0.790701 0.612158 0.00735131
        outer loop
            vertex 0.00752758 0.135378 0.100379
            vertex 0.00566597 0.137818 0.0974294
            vertex 0.00508703 0.138544 0.0992443
        endloop
    endfacet
    facet normal 0.862102 0.238212 0.447252
        outer loop
            vertex 0.02671 0.0353707 0.116669
            vertex 0.0386803 0.0203478 0.101597
            vertex 0.00752758 0.135378 0.100379
        endloop
    endfacet
    facet normal 0.519942 0.846932 0.111204
        outer loop
            vertex 0.00214172 0.140158 0.100723
            vertex 0.00481571 0.138383 0.101739
            vertex 0.00508703 0.138544 0.0992443
        endloop
    endfacet
    facet normal 0.989657 0.142291 -0.0182345
        outer loop
            vertex 0.0443061 0.00186464 0.0831146
            vertex 0.0435437 -0.00207419 0.011
            vertex 0.0411955 0.0142579 0.011
        endloop
    endfacet
    facet normal -0.780098 -0.189252 -0.596348
        outer loop
            vertex -0.0357606 0.000579884 -2.35441e-005
            vertex -0.0396144 -0.0182708 0.011
            vertex -0.0435437 -0.00207419 0.011
        endloop
    endfacet
    facet normal -0.171451 -0.167281 0.970887
        outer loop
            vertex -0.0191777 -0.0305941 0.121321
            vertex -0.00544528 -0.129203 0.106756
            vertex 0.000412729 -0.0304056 0.124813
        endloop
    endfacet
    facet normal 0.235799 -0.717009 0.655971
        outer loop
            vertex 0.000358299 -0.136497 0.106329
            vertex 0.00071205 -0.139483 0.102938
            vertex 0.0031957 -0.138776 0.102818
        endloop
    endfacet
    facet normal -0.354136 0.0237481 0.934892
        outer loop
            vertex -0.0263227 0.0356798 0.116931
            vertex -0.0191777 -0.0305941 0.121321
            vertex -0.00765044 0.0304056 0.124138
        endloop
    endfacet
    facet normal -0.345703 -0.76252 0.546857
        outer loop
            vertex -0.00195728 -0.137134 0.105398
            vertex -0.00415959 -0.137103 0.104049
            vertex -0.00201924 -0.139294 0.102347
        endloop
    endfacet
    facet normal -0.661318 0.56046 -0.498541
        outer loop
            vertex -0.00294752 0.138966 0.0953765
            vertex -0.0330041 0.0284459 0.011
            vertex -0.00570046 0.13747 0.0973465
        endloop
    endfacet
    facet normal 0.885501 0.408931 -0.220597
        outer loop
            vertex 0.00752758 0.135378 0.100379
            vertex 0.0411955 0.0142579 0.011
            vertex 0.00566597 0.137818 0.0974294
        endloop
    endfacet
    facet normal -0.964346 0.261254 0.0422365
        outer loop
            vertex -0.00751476 0.135364 0.099324
            vertex -0.0433088 0.00530486 0.0865549
            vertex -0.0384628 0.0207031 0.101953
        endloop
    endfacet
    facet normal -0.0148163 -0.0103283 -0.999837
        outer loop
            vertex 0.0304072 0.0205307 -0.000173215
            vertex 0.0349422 -0.00200865 -7.58627e-006
            vertex 0.00894607 0.0345519 -2.85165e-008
        endloop
    endfacet
    facet normal 0.773424 -0.187631 -0.605483
        outer loop
            vertex 0.0349422 -0.00200865 -7.58627e-006
            vertex 0.0435437 -0.00207419 0.011
            vertex 0.0396536 -0.0181094 0.011
        endloop
    endfacet
    facet normal 0.0720264 0.994141 -0.0805935
        outer loop
            vertex 0.00214172 0.140158 0.100723
            vertex 0.00160142 0.139889 0.096922
            vertex -8.14891e-005 0.140268 0.100093
        endloop
    endfacet
    facet normal -0.177385 0.948704 0.261717
        outer loop
            vertex -0.00263968 0.140051 0.0991457
            vertex -0.00194038 0.139228 0.102603
            vertex -8.14891e-005 0.140268 0.100093
        endloop
    endfacet
    facet normal 0.340715 0.333127 0.87917
        outer loop
            vertex 0.000270314 0.136509 0.106312
            vertex 0.00372371 0.129232 0.107731
            vertex 0.0036711 0.136298 0.105074
        endloop
    endfacet
    facet normal -0.567929 0.802128 -0.184519
        outer loop
            vertex -0.00263968 0.140051 0.0991457
            vertex -0.00294752 0.138966 0.0953765
            vertex -0.00570046 0.13747 0.0973465
        endloop
    endfacet
    facet normal 0.00429535 -0.0028648 -0.999987
        outer loop
            vertex -0.0357606 0.000579884 -2.35441e-005
            vertex -0.0213993 0.0274926 -3.8957e-005
            vertex -0.00835754 0.0334843 -1.02542e-007
        endloop
    endfacet
    facet normal -0.449817 -0.624665 -0.638324
        outer loop
            vertex -0.00275327 -0.139577 0.0961052
            vertex -0.00522682 -0.138043 0.0963471
            vertex -0.0186082 -0.0299075 -4.48066e-005
        endloop
    endfacet
    facet normal -0.856986 0.23705 0.457582
        outer loop
            vertex -0.0263227 0.0356798 0.116931
            vertex -0.00628812 0.136224 0.102366
            vertex -0.0384628 0.0207031 0.101953
        endloop
    endfacet
    facet normal -0.039894 -0.171485 0.984379
        outer loop
            vertex 0.000358299 -0.136497 0.106329
            vertex 0.00372368 -0.129232 0.107731
            vertex 0.000412729 -0.0304056 0.124813
        endloop
    endfacet
    facet normal 0.194166 -0.0123507 0.980891
        outer loop
            vertex 0.000412729 -0.0304056 0.124813
            vertex 0.0162098 -0.0304056 0.121686
            vertex 0.00845369 0.0304056 0.123987
        endloop
    endfacet
    facet normal -0.175356 -0.012324 0.984428
        outer loop
            vertex -0.0191777 -0.0305941 0.121321
            vertex 0.000412729 -0.0304056 0.124813
            vertex -0.00765044 0.0304056 0.124138
        endloop
    endfacet
    facet normal -0.141702 -0.169839 0.975231
        outer loop
            vertex 0.000358299 -0.136497 0.106329
            vertex 0.000412729 -0.0304056 0.124813
            vertex -0.00544528 -0.129203 0.106756
        endloop
    endfacet
    facet normal -0.920472 -0.253522 0.297419
        outer loop
            vertex -0.00609897 -0.137134 0.102234
            vertex -0.0393615 -0.0188593 0.100109
            vertex -0.00752879 -0.135344 0.0993347
        endloop
    endfacet
    facet normal -0.0260338 0.917337 0.397258
        outer loop
            vertex 0.00214172 0.140158 0.100723
            vertex -0.00194038 0.139228 0.102603
            vertex 0.00181457 0.138659 0.104163
        endloop
    endfacet
    facet normal 0.598223 -0.582725 -0.550055
        outer loop
            vertex 0.00569475 -0.138251 0.0978351
            vertex 0.002957 -0.139406 0.0960812
            vertex 0.0308822 -0.0304269 0.011
        endloop
    endfacet
    facet normal 0.686011 -0.488515 -0.539205
        outer loop
            vertex 0.0286932 -0.0212901 -6.28533e-005
            vertex 0.0396536 -0.0181094 0.011
            vertex 0.0308822 -0.0304269 0.011
        endloop
    endfacet
    facet normal 0.296934 -0.673372 0.677053
        outer loop
            vertex 0.000358299 -0.136497 0.106329
            vertex 0.0031957 -0.138776 0.102818
            vertex 0.00367117 -0.136298 0.105074
        endloop
    endfacet
    facet normal 0.00158365 -0.962131 -0.272583
        outer loop
            vertex -0.00275327 -0.139577 0.0961052
            vertex 0.000121159 -0.13929 0.0951089
            vertex 2.71755e-005 -0.140276 0.0985886
        endloop
    endfacet
    facet normal -0.601779 0.692093 0.398584
        outer loop
            vertex -0.00628812 0.136224 0.102366
            vertex -0.00419106 0.137096 0.104018
            vertex -0.00468876 0.138687 0.100504
        endloop
    endfacet
    facet normal -0.76062 0.649165 -0.00649539
        outer loop
            vertex -0.00751476 0.135364 0.099324
            vertex -0.00468876 0.138687 0.100504
            vertex -0.00570046 0.13747 0.0973465
        endloop
    endfacet
    facet normal -0.472149 0.775998 0.418213
        outer loop
            vertex -0.00468876 0.138687 0.100504
            vertex -0.00419106 0.137096 0.104018
            vertex -0.00194038 0.139228 0.102603
        endloop
    endfacet
    facet normal 0.46451 0.863337 -0.197179
        outer loop
            vertex 0.00160142 0.139889 0.096922
            vertex 0.00508703 0.138544 0.0992443
            vertex 0.00566597 0.137818 0.0974294
        endloop
    endfacet
    facet normal 0.964212 -0.265129 -0.00108818
        outer loop
            vertex 0.00757423 -0.135142 0.100549
            vertex 0.0396536 -0.0181094 0.011
            vertex 0.0411995 -0.0128283 0.0940783
        endloop
    endfacet
    facet normal 0.964214 0.265096 0.00396759
        outer loop
            vertex 0.0443061 0.00186464 0.0831146
            vertex 0.0411955 0.0142579 0.011
            vertex 0.00752758 0.135378 0.100379
        endloop
    endfacet
    facet normal 0.428161 0.895126 -0.12421
        outer loop
            vertex 0.00214172 0.140158 0.100723
            vertex 0.00508703 0.138544 0.0992443
            vertex 0.00160142 0.139889 0.096922
        endloop
    endfacet
    facet normal 0.74801 -0.00587267 0.663662
        outer loop
            vertex 0.02671 0.0353707 0.116669
            vertex 0.0289148 -0.0311891 0.113595
            vertex 0.036667 -0.023905 0.104922
        endloop
    endfacet
    facet normal 0.644724 0.528878 0.551923
        outer loop
            vertex 0.00481571 0.138383 0.101739
            vertex 0.0036711 0.136298 0.105074
            vertex 0.00594557 0.135122 0.103544
        endloop
    endfacet
    facet normal -8.11991e-006 0.000200945 -1
        outer loop
            vertex 0.00894607 0.0345519 -2.85165e-008
            vertex 0.0349422 -0.00200865 -7.58627e-006
            vertex -0.00835754 0.0334843 -1.02542e-007
        endloop
    endfacet
    facet normal 0.598656 0.583091 -0.549195
        outer loop
            vertex 0.0304072 0.0205307 -0.000173215
            vertex 0.00309277 0.138287 0.0950765
            vertex 0.0330857 0.0283044 0.011
        endloop
    endfacet
    facet normal -0.185279 -0.662834 -0.725481
        outer loop
            vertex -0.00275327 -0.139577 0.0961052
            vertex -0.0186082 -0.0299075 -4.48066e-005
            vertex 0.000121159 -0.13929 0.0951089
        endloop
    endfacet
    facet normal -0.997884 -0.0643386 0.00938605
        outer loop
            vertex -0.0433088 0.00530486 0.0865549
            vertex -0.0435437 -0.00207419 0.011
            vertex -0.0424951 -0.00705951 0.0883095
        endloop
    endfacet
    facet normal -0.423982 -0.776407 0.466295
        outer loop
            vertex -0.00609897 -0.137134 0.102234
            vertex -0.00201924 -0.139294 0.102347
            vertex -0.00415959 -0.137103 0.104049
        endloop
    endfacet
    facet normal -0.647357 -0.0193205 0.761942
        outer loop
            vertex -0.0263227 0.0356798 0.116931
            vertex -0.0312783 -0.029811 0.11106
            vertex -0.0191777 -0.0305941 0.121321
        endloop
    endfacet
    facet normal -0.0525418 0.935724 0.348797
        outer loop
            vertex 0.00214172 0.140158 0.100723
            vertex -8.14891e-005 0.140268 0.100093
            vertex -0.00194038 0.139228 0.102603
        endloop
    endfacet
    facet normal -0.14752 0.174572 0.973531
        outer loop
            vertex 0.000270314 0.136509 0.106312
            vertex -0.00544529 0.129203 0.106756
            vertex -0.00765044 0.0304056 0.124138
        endloop
    endfacet
    facet normal 0.521522 0.63149 0.573791
        outer loop
            vertex 0.00181457 0.138659 0.104163
            vertex 0.0036711 0.136298 0.105074
            vertex 0.00481571 0.138383 0.101739
        endloop
    endfacet
    facet normal -0.964254 0.264942 0.00442427
        outer loop
            vertex -0.00751476 0.135364 0.099324
            vertex -0.0411955 0.0142579 0.011
            vertex -0.0433088 0.00530486 0.0865549
        endloop
    endfacet
    facet normal 0.519962 -0.183496 0.834247
        outer loop
            vertex 0.0162098 -0.0304056 0.121686
            vertex 0.00372368 -0.129232 0.107731
            vertex 0.0289148 -0.0311891 0.113595
        endloop
    endfacet
    facet normal 0.751447 0.146466 -0.643331
        outer loop
            vertex 0.0304072 0.0205307 -0.000173215
            vertex 0.0411955 0.0142579 0.011
            vertex 0.0349422 -0.00200865 -7.58627e-006
        endloop
    endfacet
    facet normal -0.00752872 0.00530622 -0.999958
        outer loop
            vertex 0.0286932 -0.0212901 -6.28533e-005
            vertex 0.0122956 -0.032698 6.94556e-008
            vertex 0.0349422 -0.00200865 -7.58627e-006
        endloop
    endfacet
    facet normal 5.63997e-005 -0.000291078 -1
        outer loop
            vertex 0.0122956 -0.032698 6.94556e-008
            vertex -0.00282389 -0.0344321 -2.78522e-007
            vertex 0.0349422 -0.00200865 -7.58627e-006
        endloop
    endfacet
    facet normal 0.699705 -0.220428 0.679577
        outer loop
            vertex 0.00562872 -0.136528 0.103403
            vertex 0.0289148 -0.0311891 0.113595
            vertex 0.00372368 -0.129232 0.107731
        endloop
    endfacet
    facet normal 0.136994 -0.97809 0.156757
        outer loop
            vertex 0.0036671 -0.139717 0.0988955
            vertex 0.00071205 -0.139483 0.102938
            vertex 2.71755e-005 -0.140276 0.0985886
        endloop
    endfacet
    facet normal 0.763916 0.6333 0.123952
        outer loop
            vertex 0.00752758 0.135378 0.100379
            vertex 0.00508703 0.138544 0.0992443
            vertex 0.00481571 0.138383 0.101739
        endloop
    endfacet
    facet normal -0.296046 0.648929 -0.700891
        outer loop
            vertex -0.00294752 0.138966 0.0953765
            vertex -0.00835754 0.0334843 -1.02542e-007
            vertex -0.0213993 0.0274926 -3.8957e-005
        endloop
    endfacet
    facet normal -0.144226 0.667732 -0.730297
        outer loop
            vertex -0.00294752 0.138966 0.0953765
            vertex 0.000699642 0.139076 0.0947568
            vertex -0.00835754 0.0334843 -1.02542e-007
        endloop
    endfacet
    facet normal -0.880143 -0.240167 0.409473
        outer loop
            vertex -0.00609897 -0.137134 0.102234
            vertex -0.0312783 -0.029811 0.11106
            vertex -0.0393615 -0.0188593 0.100109
        endloop
    endfacet
    facet normal -0.191901 -0.979526 -0.0608507
        outer loop
            vertex -0.00275327 -0.139577 0.0961052
            vertex 2.71755e-005 -0.140276 0.0985886
            vertex -0.000948565 -0.140172 0.0999917
        endloop
    endfacet
    facet normal -0.96676 -0.255682 0.00105519
        outer loop
            vertex -0.0393615 -0.0188593 0.100109
            vertex -0.0424951 -0.00705951 0.0883095
            vertex -0.0396144 -0.0182708 0.011
        endloop
    endfacet
    facet normal -0.641297 -0.198772 0.741099
        outer loop
            vertex -0.0191777 -0.0305941 0.121321
            vertex -0.0312783 -0.029811 0.11106
            vertex -0.00544528 -0.129203 0.106756
        endloop
    endfacet
    facet normal 0.788054 0.0103949 0.615518
        outer loop
            vertex 0.02671 0.0353707 0.116669
            vertex 0.036667 -0.023905 0.104922
            vertex 0.0386803 0.0203478 0.101597
        endloop
    endfacet
    facet normal -0.314107 -0.949387 0.000509912
        outer loop
            vertex -0.00275327 -0.139577 0.0961052
            vertex -0.000948565 -0.140172 0.0999917
            vertex -0.0042988 -0.139063 0.101055
        endloop
    endfacet
    facet normal -0.728933 -0.52357 -0.441056
        outer loop
            vertex -0.00522682 -0.138043 0.0963471
            vertex -0.0396144 -0.0182708 0.011
            vertex -0.0307807 -0.0305694 0.011
        endloop
    endfacet
    facet normal -0.187935 -0.662756 -0.724869
        outer loop
            vertex 0.000121159 -0.13929 0.0951089
            vertex -0.0186082 -0.0299075 -4.48066e-005
            vertex -0.00282389 -0.0344321 -2.78522e-007
        endloop
    endfacet
    facet normal 0.852404 -0.241175 0.463942
        outer loop
            vertex 0.00562872 -0.136528 0.103403
            vertex 0.00757423 -0.135142 0.100549
            vertex 0.036667 -0.023905 0.104922
        endloop
    endfacet
    facet normal -0.843194 0.449539 -0.294853
        outer loop
            vertex -0.00751476 0.135364 0.099324
            vertex -0.00570046 0.13747 0.0973465
            vertex -0.0411955 0.0142579 0.011
        endloop
    endfacet
    facet normal -0.103567 0.958026 -0.267321
        outer loop
            vertex -0.00263968 0.140051 0.0991457
            vertex 0.00160142 0.139889 0.096922
            vertex -0.00294752 0.138966 0.0953765
        endloop
    endfacet
    facet normal -0.0335665 0.990119 -0.136153
        outer loop
            vertex -0.00263968 0.140051 0.0991457
            vertex -8.14891e-005 0.140268 0.100093
            vertex 0.00160142 0.139889 0.096922
        endloop
    endfacet
    facet normal 0.326893 0.168605 0.9299
        outer loop
            vertex 0.02671 0.0353707 0.116669
            vertex 0.00372371 0.129232 0.107731
            vertex 0.00845369 0.0304056 0.123987
        endloop
    endfacet
    facet normal -0.351645 0.7463 0.565139
        outer loop
            vertex -0.00197735 0.137088 0.105406
            vertex -0.00194038 0.139228 0.102603
            vertex -0.00419106 0.137096 0.104018
        endloop
    endfacet
    facet normal -0.778306 0.611882 0.140855
        outer loop
            vertex -0.00628812 0.136224 0.102366
            vertex -0.00468876 0.138687 0.100504
            vertex -0.00751476 0.135364 0.099324
        endloop
    endfacet
    facet normal 0.783274 0.112618 -0.611392
        outer loop
            vertex 0.0411955 0.0142579 0.011
            vertex 0.0435437 -0.00207419 0.011
            vertex 0.0349422 -0.00200865 -7.58627e-006
        endloop
    endfacet
    facet normal 0.406118 0.62979 -0.662143
        outer loop
            vertex 0.0304072 0.0205307 -0.000173215
            vertex 0.00894607 0.0345519 -2.85165e-008
            vertex 0.00309277 0.138287 0.0950765
        endloop
    endfacet
    facet normal -0.517123 -0.604302 -0.606137
        outer loop
            vertex -0.00522682 -0.138043 0.0963471
            vertex -0.0307807 -0.0305694 0.011
            vertex -0.0186082 -0.0299075 -4.48066e-005
        endloop
    endfacet
    facet normal -0.233912 -0.941023 0.244461
        outer loop
            vertex -0.0042988 -0.139063 0.101055
            vertex -0.000948565 -0.140172 0.0999917
            vertex -0.00201924 -0.139294 0.102347
        endloop
    endfacet
    facet normal 0.191649 -0.160928 0.96818
        outer loop
            vertex 0.000412729 -0.0304056 0.124813
            vertex 0.00372368 -0.129232 0.107731
            vertex 0.0162098 -0.0304056 0.121686
        endloop
    endfacet
    facet normal -0.964627 -0.263618 0.000996725
        outer loop
            vertex -0.00752879 -0.135344 0.0993347
            vertex -0.0393615 -0.0188593 0.100109
            vertex -0.0396144 -0.0182708 0.011
        endloop
    endfacet
    facet normal 0.723515 -0.232624 -0.649932
        outer loop
            vertex 0.0286932 -0.0212901 -6.28533e-005
            vertex 0.0349422 -0.00200865 -7.58627e-006
            vertex 0.0396536 -0.0181094 0.011
        endloop
    endfacet
    facet normal -0.743883 -0.666805 -0.0448257
        outer loop
            vertex -0.00609897 -0.137134 0.102234
            vertex -0.00752879 -0.135344 0.0993347
            vertex -0.0042988 -0.139063 0.101055
        endloop
    endfacet
    facet normal 0.68398 0.233322 0.691181
        outer loop
            vertex 0.02671 0.0353707 0.116669
            vertex 0.00594557 0.135122 0.103544
            vertex 0.00372371 0.129232 0.107731
        endloop
    endfacet
    facet normal 0.12426 -0.979427 0.159006
        outer loop
            vertex 0.00071205 -0.139483 0.102938
            vertex -0.000948565 -0.140172 0.0999917
            vertex 2.71755e-005 -0.140276 0.0985886
        endloop
    endfacet
    facet normal 0.627987 -0.741307 0.236847
        outer loop
            vertex 0.00569475 -0.138251 0.0978351
            vertex 0.00562872 -0.136528 0.103403
            vertex 0.0031957 -0.138776 0.102818
        endloop
    endfacet
    facet normal 0.978508 -0.206206 0.000917916
        outer loop
            vertex 0.0443061 0.00186464 0.0831146
            vertex 0.0411995 -0.0128283 0.0940783
            vertex 0.0435437 -0.00207419 0.011
        endloop
    endfacet
    facet normal -0.808825 -0.00903238 0.58798
        outer loop
            vertex -0.0384628 0.0207031 0.101953
            vertex -0.0393615 -0.0188593 0.100109
            vertex -0.0312783 -0.029811 0.11106
        endloop
    endfacet
    facet normal -0.391484 0.87419 0.287284
        outer loop
            vertex -0.00263968 0.140051 0.0991457
            vertex -0.00468876 0.138687 0.100504
            vertex -0.00194038 0.139228 0.102603
        endloop
    endfacet
    facet normal 0.333276 0.828555 -0.449916
        outer loop
            vertex 0.000699642 0.139076 0.0947568
            vertex 0.00160142 0.139889 0.096922
            vertex 0.00309277 0.138287 0.0950765
        endloop
    endfacet
    facet normal -0.0483815 0.169001 0.984428
        outer loop
            vertex 0.000270314 0.136509 0.106312
            vertex -0.00765044 0.0304056 0.124138
            vertex 0.00372371 0.129232 0.107731
        endloop
    endfacet
    facet normal 0.60423 0.581346 -0.544925
        outer loop
            vertex 0.00566597 0.137818 0.0974294
            vertex 0.0330857 0.0283044 0.011
            vertex 0.00309277 0.138287 0.0950765
        endloop
    endfacet
    facet normal 0.460302 0.820103 -0.33993
        outer loop
            vertex 0.00160142 0.139889 0.096922
            vertex 0.00566597 0.137818 0.0974294
            vertex 0.00309277 0.138287 0.0950765
        endloop
    endfacet
    facet normal 0.536107 -0.0212153 0.843884
        outer loop
            vertex 0.02671 0.0353707 0.116669
            vertex 0.0162098 -0.0304056 0.121686
            vertex 0.0289148 -0.0311891 0.113595
        endloop
    endfacet
    facet normal 0.431717 -0.624138 -0.651208
        outer loop
            vertex 0.002957 -0.139406 0.0960812
            vertex 0.0122956 -0.032698 6.94556e-008
            vertex 0.0286932 -0.0212901 -6.28533e-005
        endloop
    endfacet
    facet normal -0.971809 -0.235761 -0.00202182
        outer loop
            vertex -0.0396144 -0.0182708 0.011
            vertex -0.0424951 -0.00705951 0.0883095
            vertex -0.0435437 -0.00207419 0.011
        endloop
    endfacet
    facet normal 0.218233 -0.663484 -0.715656
        outer loop
            vertex 0.002957 -0.139406 0.0960812
            vertex 0.000121159 -0.13929 0.0951089
            vertex 0.0122956 -0.032698 6.94556e-008
        endloop
    endfacet
    facet normal 0.927615 -0.0141562 0.373269
        outer loop
            vertex 0.036667 -0.023905 0.104922
            vertex 0.0411995 -0.0128283 0.0940783
            vertex 0.0386803 0.0203478 0.101597
        endloop
    endfacet
    facet normal 0.971807 -0.235758 -0.00309657
        outer loop
            vertex 0.0396536 -0.0181094 0.011
            vertex 0.0435437 -0.00207419 0.011
            vertex 0.0411995 -0.0128283 0.0940783
        endloop
    endfacet
    facet normal 0.053567 -0.961118 -0.270892
        outer loop
            vertex 0.002957 -0.139406 0.0960812
            vertex 2.71755e-005 -0.140276 0.0985886
            vertex 0.000121159 -0.13929 0.0951089
        endloop
    endfacet
    facet normal -0.492359 -0.352781 0.795694
        outer loop
            vertex -0.00195728 -0.137134 0.105398
            vertex -0.00544528 -0.129203 0.106756
            vertex -0.00415959 -0.137103 0.104049
        endloop
    endfacet
    facet normal 0.397545 0.826742 0.398064
        outer loop
            vertex 0.00214172 0.140158 0.100723
            vertex 0.00181457 0.138659 0.104163
            vertex 0.00481571 0.138383 0.101739
        endloop
    endfacet
    facet normal -0.52362 0.602363 -0.602479
        outer loop
            vertex -0.00294752 0.138966 0.0953765
            vertex -0.0213993 0.0274926 -3.8957e-005
            vertex -0.0330041 0.0284459 0.011
        endloop
    endfacet
    facet normal -0.495924 0.353883 0.792986
        outer loop
            vertex -0.00197735 0.137088 0.105406
            vertex -0.00419106 0.137096 0.104018
            vertex -0.00544529 0.129203 0.106756
        endloop
    endfacet
    facet normal 0.00360179 0.0027238 -0.99999
        outer loop
            vertex -0.0357606 0.000579884 -2.35441e-005
            vertex -0.00282389 -0.0344321 -2.78522e-007
            vertex -0.0186082 -0.0299075 -4.48066e-005
        endloop
    endfacet
    facet normal -0.815489 0.47082 -0.336608
        outer loop
            vertex -0.00570046 0.13747 0.0973465
            vertex -0.0330041 0.0284459 0.011
            vertex -0.0411955 0.0142579 0.011
        endloop
    endfacet
    facet normal -0.723122 -0.232514 -0.650409
        outer loop
            vertex -0.0357606 0.000579884 -2.35441e-005
            vertex -0.0298946 -0.0177088 -7.3496e-006
            vertex -0.0396144 -0.0182708 0.011
        endloop
    endfacet
    facet normal -0.919625 0.255065 0.298716
        outer loop
            vertex -0.00628812 0.136224 0.102366
            vertex -0.00751476 0.135364 0.099324
            vertex -0.0384628 0.0207031 0.101953
        endloop
    endfacet
    facet normal -0.0828216 0.943824 -0.3199
        outer loop
            vertex -0.00294752 0.138966 0.0953765
            vertex 0.00160142 0.139889 0.096922
            vertex 0.000699642 0.139076 0.0947568
        endloop
    endfacet
    facet normal -0.778116 0.00257093 0.628115
        outer loop
            vertex -0.0263227 0.0356798 0.116931
            vertex -0.0384628 0.0207031 0.101953
            vertex -0.0312783 -0.029811 0.11106
        endloop
    endfacet
    facet normal -0.17898 -0.80127 0.570905
        outer loop
            vertex 0.00071205 -0.139483 0.102938
            vertex -0.00195728 -0.137134 0.105398
            vertex -0.00201924 -0.139294 0.102347
        endloop
    endfacet
    facet normal 0.733208 -0.522124 -0.435652
        outer loop
            vertex 0.00569475 -0.138251 0.0978351
            vertex 0.0308822 -0.0304269 0.011
            vertex 0.0396536 -0.0181094 0.011
        endloop
    endfacet
    facet normal -0.129203 -0.946949 0.294269
        outer loop
            vertex 0.00071205 -0.139483 0.102938
            vertex -0.00201924 -0.139294 0.102347
            vertex -0.000948565 -0.140172 0.0999917
        endloop
    endfacet
    facet normal 0.0767091 -0.668674 -0.739588
        outer loop
            vertex 0.000121159 -0.13929 0.0951089
            vertex -0.00282389 -0.0344321 -2.78522e-007
            vertex 0.0122956 -0.032698 6.94556e-008
        endloop
    endfacet
    facet normal 0.00937541 0.0123417 0.99988
        outer loop
            vertex -0.00765044 0.0304056 0.124138
            vertex 0.000412729 -0.0304056 0.124813
            vertex 0.00845369 0.0304056 0.123987
        endloop
    endfacet
    facet normal 0.630832 0.277207 0.724712
        outer loop
            vertex 0.0036711 0.136298 0.105074
            vertex 0.00372371 0.129232 0.107731
            vertex 0.00594557 0.135122 0.103544
        endloop
    endfacet
    facet normal -0.00654453 -0.00298459 -0.999974
        outer loop
            vertex -0.0357606 0.000579884 -2.35441e-005
            vertex -0.0186082 -0.0299075 -4.48066e-005
            vertex -0.0298946 -0.0177088 -7.3496e-006
        endloop
    endfacet
    facet normal 0.307602 0.652286 -0.692752
        outer loop
            vertex 0.000699642 0.139076 0.0947568
            vertex 0.00309277 0.138287 0.0950765
            vertex 0.00894607 0.0345519 -2.85165e-008
        endloop
    endfacet
    facet normal -0.858928 -0.436928 -0.26709
        outer loop
            vertex -0.00522682 -0.138043 0.0963471
            vertex -0.00752879 -0.135344 0.0993347
            vertex -0.0396144 -0.0182708 0.011
        endloop
    endfacet
    facet normal -0.973461 -0.0319046 0.226617
        outer loop
            vertex -0.0393615 -0.0188593 0.100109
            vertex -0.0433088 0.00530486 0.0865549
            vertex -0.0424951 -0.00705951 0.0883095
        endloop
    endfacet
    facet normal -0.559991 -0.516121 -0.648097
        outer loop
            vertex -0.0186082 -0.0299075 -4.48066e-005
            vertex -0.0307807 -0.0305694 0.011
            vertex -0.0298946 -0.0177088 -7.3496e-006
        endloop
    endfacet
    facet normal 0.449676 -0.646946 0.615835
        outer loop
            vertex 0.00562872 -0.136528 0.103403
            vertex 0.00367117 -0.136298 0.105074
            vertex 0.0031957 -0.138776 0.102818
        endloop
    endfacet
    facet normal -0.588889 0.467292 -0.65943
        outer loop
            vertex -0.0213993 0.0274926 -3.8957e-005
            vertex -0.0300207 0.016679 -2.64799e-006
            vertex -0.0330041 0.0284459 0.011
        endloop
    endfacet
    facet normal -0.82437 0.118526 -0.553504
        outer loop
            vertex -0.0357606 0.000579884 -2.35441e-005
            vertex -0.0435437 -0.00207419 0.011
            vertex -0.0411955 0.0142579 0.011
        endloop
    endfacet
    facet normal 0.903782 -0.387225 -0.182304
        outer loop
            vertex 0.00569475 -0.138251 0.0978351
            vertex 0.0396536 -0.0181094 0.011
            vertex 0.00757423 -0.135142 0.100549
        endloop
    endfacet
    facet normal 0.74869 -0.630731 0.204061
        outer loop
            vertex 0.00569475 -0.138251 0.0978351
            vertex 0.00757423 -0.135142 0.100549
            vertex 0.00562872 -0.136528 0.103403
        endloop
    endfacet
    facet normal 0.760079 0.49584 0.420028
        outer loop
            vertex 0.00752758 0.135378 0.100379
            vertex 0.00481571 0.138383 0.101739
            vertex 0.00594557 0.135122 0.103544
        endloop
    endfacet
    facet normal 0.276098 -0.926558 0.255459
        outer loop
            vertex 0.0036671 -0.139717 0.0988955
            vertex 0.0031957 -0.138776 0.102818
            vertex 0.00071205 -0.139483 0.102938
        endloop
    endfacet
    facet normal -0.530936 -0.8438 -0.0781573
        outer loop
            vertex -0.00275327 -0.139577 0.0961052
            vertex -0.0042988 -0.139063 0.101055
            vertex -0.00522682 -0.138043 0.0963471
        endloop
    endfacet
    facet normal -0.956128 0.00807037 0.292837
        outer loop
            vertex -0.0384628 0.0207031 0.101953
            vertex -0.0433088 0.00530486 0.0865549
            vertex -0.0393615 -0.0188593 0.100109
        endloop
    endfacet
    facet normal 0.000776369 6.58476e-005 -1
        outer loop
            vertex -0.0357606 0.000579884 -2.35441e-005
            vertex -0.00835754 0.0334843 -1.02542e-007
            vertex -0.00282389 -0.0344321 -2.78522e-007
        endloop
    endfacet
    facet normal -0.129972 0.788916 0.600598
        outer loop
            vertex 0.00181457 0.138659 0.104163
            vertex -0.00194038 0.139228 0.102603
            vertex -0.00197735 0.137088 0.105406
        endloop
    endfacet
    facet normal -0.0105626 0.00506383 -0.999931
        outer loop
            vertex -0.0357606 0.000579884 -2.35441e-005
            vertex -0.0300207 0.016679 -2.64799e-006
            vertex -0.0213993 0.0274926 -3.8957e-005
        endloop
    endfacet
    facet normal -0.289461 -0.283829 0.914141
        outer loop
            vertex 0.000358299 -0.136497 0.106329
            vertex -0.00544528 -0.129203 0.106756
            vertex -0.00195728 -0.137134 0.105398
        endloop
    endfacet
    facet normal 0.351554 -0.331786 0.875401
        outer loop
            vertex 0.000358299 -0.136497 0.106329
            vertex 0.00367117 -0.136298 0.105074
            vertex 0.00372368 -0.129232 0.107731
        endloop
    endfacet
    facet normal 0.162348 -0.975456 -0.148759
        outer loop
            vertex 0.002957 -0.139406 0.0960812
            vertex 0.0036671 -0.139717 0.0988955
            vertex 2.71755e-005 -0.140276 0.0985886
        endloop
    endfacet
    facet normal -0.665095 0.336873 0.666457
        outer loop
            vertex -0.00628812 0.136224 0.102366
            vertex -0.00544529 0.129203 0.106756
            vertex -0.00419106 0.137096 0.104018
        endloop
    endfacet
    facet normal -0.706081 0.252601 -0.661545
        outer loop
            vertex -0.0357606 0.000579884 -2.35441e-005
            vertex -0.0411955 0.0142579 0.011
            vertex -0.0300207 0.016679 -2.64799e-006
        endloop
    endfacet
    facet normal -0.7567 -0.653719 0.00752759
        outer loop
            vertex -0.00522682 -0.138043 0.0963471
            vertex -0.0042988 -0.139063 0.101055
            vertex -0.00752879 -0.135344 0.0993347
        endloop
    endfacet
    facet normal -0.396447 -0.718927 0.570941
        outer loop
            vertex -0.00609897 -0.137134 0.102234
            vertex -0.0042988 -0.139063 0.101055
            vertex -0.00201924 -0.139294 0.102347
        endloop
    endfacet
    facet normal 0.52228 -0.6039 -0.602104
        outer loop
            vertex 0.002957 -0.139406 0.0960812
            vertex 0.0286932 -0.0212901 -6.28533e-005
            vertex 0.0308822 -0.0304269 0.011
        endloop
    endfacet
endsolid C:/Users/felix/Documents/Gitlab/robot/module_type_database/0940_E-EoPTestLoadDevice-4000g/0940_E-EoPTestLoadDevice-4000g_convdec.stl_created_by_BoundingMesh