solid D:/Users/Paul Maroldt/Documents/!StartUp_Repositories/module_type_database/I116-450.stl_convdec.stl_created_by_BoundingMesh
    facet normal -0.533318 -0.84591 -0.00272765
        outer loop
            vertex -0.0436681 -0.0409719 0.01
            vertex -0.0181408 -0.057066 0.01
            vertex -0.0352896 -0.047641 0.440062
        endloop
    endfacet
    facet normal -0.0784498 -0.996918 0.000766089
        outer loop
            vertex -0.0181408 -0.057066 0.01
            vertex 0.010198 -0.0589656 0.440014
            vertex -0.014544 -0.0570186 0.440006
        endloop
    endfacet
    facet normal -0.196158 0.0835752 0.977004
        outer loop
            vertex -0.0503807 -9.81372e-018 0.45
            vertex -0.01951 0.0144964 0.454958
            vertex -0.0380378 0.0289698 0.45
        endloop
    endfacet
    facet normal -0.0318225 0.999487 -0.00354518
        outer loop
            vertex 0.00507829 0.0596641 0.44
            vertex 0.00838335 0.0582441 0.00999478
            vertex -0.0143719 0.0575194 0.00993749
        endloop
    endfacet
    facet normal -0.000854801 -0.00146311 -0.999999
        outer loop
            vertex -0.0487923 -2.21878e-007 -5.65805e-005
            vertex 0.00209533 -0.0487398 -2.87681e-005
            vertex -0.0403185 -0.0254963 -2.65204e-005
        endloop
    endfacet
    facet normal 0.204688 0 0.978827
        outer loop
            vertex 0.0170017 -0.00970689 0.456137
            vertex 0.0463492 -0.0154737 0.45
            vertex 0.0463492 0.014995 0.45
        endloop
    endfacet
    facet normal 0.517786 -0.389095 0.761907
        outer loop
            vertex 0.0251901 -0.0436311 0.45
            vertex 0.03756 -0.0466672 0.440043
            vertex 0.0463492 -0.0154737 0.45
        endloop
    endfacet
    facet normal -0.999122 -0.0418648 0.00165236
        outer loop
            vertex -0.0581047 -0.0144725 0.01
            vertex -0.057375 -0.0149143 0.440032
            vertex -0.0584203 0.010031 0.44
        endloop
    endfacet
    facet normal -0.927891 0.372849 0.00133893
        outer loop
            vertex -0.0481434 0.0356066 0.44
            vertex -0.057812 0.013089 0.01
            vertex -0.0584203 0.010031 0.44
        endloop
    endfacet
    facet normal -0.907049 0.421022 -0.00165238
        outer loop
            vertex -0.0481434 0.0356066 0.44
            vertex -0.0473004 0.035735 0.00996293
            vertex -0.057812 0.013089 0.01
        endloop
    endfacet
    facet normal -0.628215 0.77804 0.000482819
        outer loop
            vertex -0.0246643 0.0545644 0.44
            vertex -0.0322235 0.0487277 0.00999244
            vertex -0.0481434 0.0356066 0.44
        endloop
    endfacet
    facet normal -0.191705 -0.0816778 0.978048
        outer loop
            vertex -0.0503807 -9.81372e-018 0.45
            vertex -0.0365752 -0.0324027 0.45
            vertex -0.0139819 -0.0158474 0.455811
        endloop
    endfacet
    facet normal -0.00756469 0.187692 0.982199
        outer loop
            vertex -0.017131 0.0456964 0.45
            vertex 0.0124746 0.0235765 0.454455
            vertex 0.00899071 0.0467492 0.45
        endloop
    endfacet
    facet normal -0.000677072 0.000157105 -1
        outer loop
            vertex 0.0271065 -0.0392713 -1.52565e-005
            vertex 0.0332443 0.0343151 -7.85146e-006
            vertex 0.045266 0.0150007 -1.90254e-005
        endloop
    endfacet
    facet normal -0.110541 -0.191463 0.975255
        outer loop
            vertex -0.0365752 -0.0324027 0.45
            vertex -0.00977402 -0.0478764 0.45
            vertex -0.0139819 -0.0158474 0.455811
        endloop
    endfacet
    facet normal -0.285312 -0.635467 0.717481
        outer loop
            vertex -0.00977402 -0.0478764 0.45
            vertex -0.0352896 -0.047641 0.440062
            vertex -0.014544 -0.0570186 0.440006
        endloop
    endfacet
    facet normal -0.158095 -0.00104442 0.987423
        outer loop
            vertex -0.0503807 -9.81372e-018 0.45
            vertex -0.0139819 -0.0158474 0.455811
            vertex -0.01951 0.0144964 0.454958
        endloop
    endfacet
    facet normal -0.568852 -0.190005 -0.800191
        outer loop
            vertex -0.0581047 -0.0144725 0.01
            vertex -0.0487923 -2.21878e-007 -5.65805e-005
            vertex -0.0403185 -0.0254963 -2.65204e-005
        endloop
    endfacet
    facet normal 0.362993 -0.93179 -0.00162261
        outer loop
            vertex 0.0350934 -0.0485184 0.01
            vertex 0.010198 -0.0589656 0.440014
            vertex 0.00939782 -0.0585285 0.01
        endloop
    endfacet
    facet normal -0.0530325 -0.998592 -0.000916362
        outer loop
            vertex -0.0181408 -0.057066 0.01
            vertex 0.00939782 -0.0585285 0.01
            vertex 0.010198 -0.0589656 0.440014
        endloop
    endfacet
    facet normal -0.588783 0.196635 -0.784009
        outer loop
            vertex -0.0375289 0.0332712 -0.000170577
            vertex -0.0487923 -2.21878e-007 -5.65805e-005
            vertex -0.057812 0.013089 0.01
        endloop
    endfacet
    facet normal -0.373214 -0.591964 -0.714346
        outer loop
            vertex -0.0436681 -0.0409719 0.01
            vertex -0.0236874 -0.0414669 -2.88253e-005
            vertex -0.0181408 -0.057066 0.01
        endloop
    endfacet
    facet normal -0.294627 0.593562 -0.748919
        outer loop
            vertex -0.0375289 0.0332712 -0.000170577
            vertex -0.0322235 0.0487277 0.00999244
            vertex -0.0143719 0.0575194 0.00993749
        endloop
    endfacet
    facet normal -0.505825 0.588399 -0.630815
        outer loop
            vertex -0.0375289 0.0332712 -0.000170577
            vertex -0.0473004 0.035735 0.00996293
            vertex -0.0322235 0.0487277 0.00999244
        endloop
    endfacet
    facet normal 6.07849e-005 0.00020762 -1
        outer loop
            vertex 0.00209533 -0.0487398 -2.87681e-005
            vertex -0.0236874 -0.0414669 -2.88253e-005
            vertex -0.0403185 -0.0254963 -2.65204e-005
        endloop
    endfacet
    facet normal -0.579784 -0.247023 0.776421
        outer loop
            vertex -0.0503807 -9.81372e-018 0.45
            vertex -0.057375 -0.0149143 0.440032
            vertex -0.0365752 -0.0324027 0.45
        endloop
    endfacet
    facet normal -0.739318 0.00785147 -0.67331
        outer loop
            vertex -0.0581047 -0.0144725 0.01
            vertex -0.057812 0.013089 0.01
            vertex -0.0487923 -2.21878e-007 -5.65805e-005
        endloop
    endfacet
    facet normal 0.230297 -0.607248 -0.760403
        outer loop
            vertex 0.00209533 -0.0487398 -2.87681e-005
            vertex 0.0271065 -0.0392713 -1.52565e-005
            vertex 0.00939782 -0.0585285 0.01
        endloop
    endfacet
    facet normal -0.310342 -0.537526 0.784062
        outer loop
            vertex -0.0365752 -0.0324027 0.45
            vertex -0.0352896 -0.047641 0.440062
            vertex -0.00977402 -0.0478764 0.45
        endloop
    endfacet
    facet normal -0.407285 0.509071 0.758265
        outer loop
            vertex -0.0246643 0.0545644 0.44
            vertex -0.0380378 0.0289698 0.45
            vertex -0.017131 0.0456964 0.45
        endloop
    endfacet
    facet normal -0.441821 0.897092 -0.0044098
        outer loop
            vertex -0.0246643 0.0545644 0.44
            vertex -0.0143719 0.0575194 0.00993749
            vertex -0.0322235 0.0487277 0.00999244
        endloop
    endfacet
    facet normal 0.333135 0.942879 0.000915075
        outer loop
            vertex 0.00507829 0.0596641 0.44
            vertex 0.0310796 0.0504774 0.44
            vertex 0.0319789 0.050577 0.00998166
        endloop
    endfacet
    facet normal 0.759092 -0.20718 -0.617135
        outer loop
            vertex 0.0474109 -0.0158875 -0.000275947
            vertex 0.0598852 -0.000603468 0.00993673
            vertex 0.0526447 -0.0272478 0.00997555
        endloop
    endfacet
    facet normal 0.506605 0.47956 -0.716501
        outer loop
            vertex 0.052546 0.0287727 0.00992992
            vertex 0.0332443 0.0343151 -7.85146e-006
            vertex 0.0319789 0.050577 0.00998166
        endloop
    endfacet
    facet normal 0.0719702 -0.592744 0.802169
        outer loop
            vertex 0.0251901 -0.0436311 0.45
            vertex -0.00977402 -0.0478764 0.45
            vertex 0.010198 -0.0589656 0.440014
        endloop
    endfacet
    facet normal -0.411891 -0.911226 0.00354572
        outer loop
            vertex -0.0181408 -0.057066 0.01
            vertex -0.014544 -0.0570186 0.440006
            vertex -0.0352896 -0.047641 0.440062
        endloop
    endfacet
    facet normal -0.0387168 -0.729029 -0.683386
        outer loop
            vertex -0.0181408 -0.057066 0.01
            vertex 0.00209533 -0.0487398 -2.87681e-005
            vertex 0.00939782 -0.0585285 0.01
        endloop
    endfacet
    facet normal -0.59191 0.25219 0.765535
        outer loop
            vertex -0.0503807 -9.81372e-018 0.45
            vertex -0.0380378 0.0289698 0.45
            vertex -0.0481434 0.0356066 0.44
        endloop
    endfacet
    facet normal 0.524304 -0.389447 0.757256
        outer loop
            vertex 0.03756 -0.0466672 0.440043
            vertex 0.0544846 -0.0237828 0.440094
            vertex 0.0463492 -0.0154737 0.45
        endloop
    endfacet
    facet normal 0.596796 0.0481042 -0.80095
        outer loop
            vertex 0.0474109 -0.0158875 -0.000275947
            vertex 0.045266 0.0150007 -1.90254e-005
            vertex 0.0598852 -0.000603468 0.00993673
        endloop
    endfacet
    facet normal -0.751486 -0.659734 0.00440982
        outer loop
            vertex -0.0436681 -0.0409719 0.01
            vertex -0.0352896 -0.047641 0.440062
            vertex -0.0484175 -0.0326877 0.440007
        endloop
    endfacet
    facet normal -0.161839 -0.573734 -0.802893
        outer loop
            vertex -0.0181408 -0.057066 0.01
            vertex -0.0236874 -0.0414669 -2.88253e-005
            vertex 0.00209533 -0.0487398 -2.87681e-005
        endloop
    endfacet
    facet normal -0.999943 0.0106193 -0.00133905
        outer loop
            vertex -0.0581047 -0.0144725 0.01
            vertex -0.0584203 0.010031 0.44
            vertex -0.057812 0.013089 0.01
        endloop
    endfacet
    facet normal -0.556674 -0.486242 0.67356
        outer loop
            vertex -0.0365752 -0.0324027 0.45
            vertex -0.0484175 -0.0326877 0.440007
            vertex -0.0352896 -0.047641 0.440062
        endloop
    endfacet
    facet normal -0.617992 0.248324 0.745936
        outer loop
            vertex -0.0503807 -9.81372e-018 0.45
            vertex -0.0481434 0.0356066 0.44
            vertex -0.0584203 0.010031 0.44
        endloop
    endfacet
    facet normal -0.0202242 0.692068 -0.721549
        outer loop
            vertex 0.00975927 0.0477958 -6.52008e-005
            vertex -0.0143719 0.0575194 0.00993749
            vertex 0.00838335 0.0582441 0.00999478
        endloop
    endfacet
    facet normal 0.504347 0.314382 -0.804237
        outer loop
            vertex 0.052546 0.0287727 0.00992992
            vertex 0.045266 0.0150007 -1.90254e-005
            vertex 0.0332443 0.0343151 -7.85146e-006
        endloop
    endfacet
    facet normal 0.00215458 0.00980036 -0.99995
        outer loop
            vertex -0.0375289 0.0332712 -0.000170577
            vertex -0.0130637 0.0451012 -1.918e-006
            vertex 0.0332443 0.0343151 -7.85146e-006
        endloop
    endfacet
    facet normal -0.892999 -0.450058 0.00105292
        outer loop
            vertex -0.0581047 -0.0144725 0.01
            vertex -0.0484175 -0.0326877 0.440007
            vertex -0.057375 -0.0149143 0.440032
        endloop
    endfacet
    facet normal 0.0023083 -0.000613867 -0.999997
        outer loop
            vertex -0.0375289 0.0332712 -0.000170577
            vertex 0.0332443 0.0343151 -7.85146e-006
            vertex 0.00209533 -0.0487398 -2.87681e-005
        endloop
    endfacet
    facet normal 0.224182 0.691098 -0.687114
        outer loop
            vertex 0.0319789 0.050577 0.00998166
            vertex 0.00975927 0.0477958 -6.52008e-005
            vertex 0.00838335 0.0582441 0.00999478
        endloop
    endfacet
    facet normal 0.000518499 5.73828e-005 -1
        outer loop
            vertex 0.00209533 -0.0487398 -2.87681e-005
            vertex 0.0332443 0.0343151 -7.85146e-006
            vertex 0.0271065 -0.0392713 -1.52565e-005
        endloop
    endfacet
    facet normal 0.157423 0.112056 0.981153
        outer loop
            vertex 0.0463492 0.014995 0.45
            vertex 0.030391 0.0374141 0.45
            vertex 0.0124746 0.0235765 0.454455
        endloop
    endfacet
    facet normal 0.0213405 -0.17576 0.984202
        outer loop
            vertex 0.0251901 -0.0436311 0.45
            vertex -0.0139819 -0.0158474 0.455811
            vertex -0.00977402 -0.0478764 0.45
        endloop
    endfacet
    facet normal -0.0571114 -0.722922 0.688565
        outer loop
            vertex 0.010198 -0.0589656 0.440014
            vertex -0.00977402 -0.0478764 0.45
            vertex -0.014544 -0.0570186 0.440006
        endloop
    endfacet
    facet normal -0.611158 -0.332953 -0.718073
        outer loop
            vertex -0.0436681 -0.0409719 0.01
            vertex -0.0581047 -0.0144725 0.01
            vertex -0.0403185 -0.0254963 -2.65204e-005
        endloop
    endfacet
    facet normal 0.707696 -0.134089 0.693676
        outer loop
            vertex 0.0596456 0.00313012 0.440031
            vertex 0.0463492 -0.0154737 0.45
            vertex 0.0544846 -0.0237828 0.440094
        endloop
    endfacet
    facet normal -0.0207533 0.00687467 -0.999761
        outer loop
            vertex 0.0474109 -0.0158875 -0.000275947
            vertex 0.0271065 -0.0392713 -1.52565e-005
            vertex 0.045266 0.0150007 -1.90254e-005
        endloop
    endfacet
    facet normal -0.878141 -0.478402 -0.000482469
        outer loop
            vertex -0.0436681 -0.0409719 0.01
            vertex -0.0484175 -0.0326877 0.440007
            vertex -0.0581047 -0.0144725 0.01
        endloop
    endfacet
    facet normal 0.727441 0.686169 -0.00155235
        outer loop
            vertex 0.052546 0.0287727 0.00992992
            vertex 0.0319789 0.050577 0.00998166
            vertex 0.0509893 0.031396 0.44
        endloop
    endfacet
    facet normal 0.409961 -0.912102 0.0015749
        outer loop
            vertex 0.03756 -0.0466672 0.440043
            vertex 0.010198 -0.0589656 0.440014
            vertex 0.0350934 -0.0485184 0.01
        endloop
    endfacet
    facet normal 0.599873 0 0.800095
        outer loop
            vertex 0.0596456 0.00313012 0.440031
            vertex 0.0463492 0.014995 0.45
            vertex 0.0463492 -0.0154737 0.45
        endloop
    endfacet
    facet normal 0.0875699 0.20075 0.975721
        outer loop
            vertex 0.0124746 0.0235765 0.454455
            vertex 0.030391 0.0374141 0.45
            vertex 0.00899071 0.0467492 0.45
        endloop
    endfacet
    facet normal -0.00206539 -0.00272704 -0.999994
        outer loop
            vertex -0.0375289 0.0332712 -0.000170577
            vertex 0.00209533 -0.0487398 -2.87681e-005
            vertex -0.0487923 -2.21878e-007 -5.65805e-005
        endloop
    endfacet
    facet normal -0.0296409 0.159076 0.986821
        outer loop
            vertex -0.017131 0.0456964 0.45
            vertex -0.01951 0.0144964 0.454958
            vertex 0.0124746 0.0235765 0.454455
        endloop
    endfacet
    facet normal -0.609206 -0.308058 0.730732
        outer loop
            vertex -0.0365752 -0.0324027 0.45
            vertex -0.057375 -0.0149143 0.440032
            vertex -0.0484175 -0.0326877 0.440007
        endloop
    endfacet
    facet normal 0.309033 0.951051 -0.000765386
        outer loop
            vertex 0.00507829 0.0596641 0.44
            vertex 0.0319789 0.050577 0.00998166
            vertex 0.00838335 0.0582441 0.00999478
        endloop
    endfacet
    facet normal -0.649144 0.300169 -0.698935
        outer loop
            vertex -0.0375289 0.0332712 -0.000170577
            vertex -0.057812 0.013089 0.01
            vertex -0.0473004 0.035735 0.00996293
        endloop
    endfacet
    facet normal 0.956165 0.292823 0.00167484
        outer loop
            vertex 0.052546 0.0287727 0.00992992
            vertex 0.0509893 0.031396 0.44
            vertex 0.0596456 0.00313012 0.440031
        endloop
    endfacet
    facet normal -0.276448 0.58261 -0.764292
        outer loop
            vertex -0.0375289 0.0332712 -0.000170577
            vertex -0.0143719 0.0575194 0.00993749
            vertex -0.0130637 0.0451012 -1.918e-006
        endloop
    endfacet
    facet normal 0.476924 -0.42271 -0.770623
        outer loop
            vertex 0.0474109 -0.0158875 -0.000275947
            vertex 0.0350934 -0.0485184 0.01
            vertex 0.0271065 -0.0392713 -1.52565e-005
        endloop
    endfacet
    facet normal 0.147463 0.0699161 0.986593
        outer loop
            vertex 0.0170017 -0.00970689 0.456137
            vertex 0.0463492 0.014995 0.45
            vertex 0.0124746 0.0235765 0.454455
        endloop
    endfacet
    facet normal -0.132325 0.165394 0.97731
        outer loop
            vertex -0.017131 0.0456964 0.45
            vertex -0.0380378 0.0289698 0.45
            vertex -0.01951 0.0144964 0.454958
        endloop
    endfacet
    facet normal 0.965001 -0.262238 -0.00201537
        outer loop
            vertex 0.0598852 -0.000603468 0.00993673
            vertex 0.0544846 -0.0237828 0.440094
            vertex 0.0526447 -0.0272478 0.00997555
        endloop
    endfacet
    facet normal -0.794626 -0.03252 0.606228
        outer loop
            vertex -0.0503807 -9.81372e-018 0.45
            vertex -0.0584203 0.010031 0.44
            vertex -0.057375 -0.0149143 0.440032
        endloop
    endfacet
    facet normal 0.00132674 0.0506517 0.998715
        outer loop
            vertex 0.0170017 -0.00970689 0.456137
            vertex 0.0124746 0.0235765 0.454455
            vertex -0.01951 0.0144964 0.454958
        endloop
    endfacet
    facet normal 0.670746 0.167408 -0.722547
        outer loop
            vertex 0.052546 0.0287727 0.00992992
            vertex 0.0598852 -0.000603468 0.00993673
            vertex 0.045266 0.0150007 -1.90254e-005
        endloop
    endfacet
    facet normal 0.804005 -0.594621 0.00135096
        outer loop
            vertex 0.03756 -0.0466672 0.440043
            vertex 0.0526447 -0.0272478 0.00997555
            vertex 0.0544846 -0.0237828 0.440094
        endloop
    endfacet
    facet normal 0.0238053 -0.172397 0.98474
        outer loop
            vertex 0.0251901 -0.0436311 0.45
            vertex 0.0170017 -0.00970689 0.456137
            vertex -0.0139819 -0.0158474 0.455811
        endloop
    endfacet
    facet normal 0.298341 0.516331 -0.802742
        outer loop
            vertex 0.0319789 0.050577 0.00998166
            vertex 0.0332443 0.0343151 -7.85146e-006
            vertex 0.00975927 0.0477958 -6.52008e-005
        endloop
    endfacet
    facet normal 0.225503 0.638247 0.736064
        outer loop
            vertex 0.00507829 0.0596641 0.44
            vertex 0.00899071 0.0467492 0.45
            vertex 0.0310796 0.0504774 0.44
        endloop
    endfacet
    facet normal -0.0155255 0.0252704 0.99956
        outer loop
            vertex 0.0170017 -0.00970689 0.456137
            vertex -0.01951 0.0144964 0.454958
            vertex -0.0139819 -0.0158474 0.455811
        endloop
    endfacet
    facet normal -0.652805 0.757526 -0.00105352
        outer loop
            vertex -0.0481434 0.0356066 0.44
            vertex -0.0322235 0.0487277 0.00999244
            vertex -0.0473004 0.035735 0.00996293
        endloop
    endfacet
    facet normal 0.771317 -0.636449 -0.00168433
        outer loop
            vertex 0.03756 -0.0466672 0.440043
            vertex 0.0350934 -0.0485184 0.01
            vertex 0.0526447 -0.0272478 0.00997555
        endloop
    endfacet
    facet normal -0.411972 0.510225 0.75495
        outer loop
            vertex -0.0246643 0.0545644 0.44
            vertex -0.0481434 0.0356066 0.44
            vertex -0.0380378 0.0289698 0.45
        endloop
    endfacet
    facet normal -0.41341 -0.430392 -0.802405
        outer loop
            vertex -0.0436681 -0.0409719 0.01
            vertex -0.0403185 -0.0254963 -2.65204e-005
            vertex -0.0236874 -0.0414669 -2.88253e-005
        endloop
    endfacet
    facet normal 0.491531 0.512867 0.703822
        outer loop
            vertex 0.0509893 0.031396 0.44
            vertex 0.0310796 0.0504774 0.44
            vertex 0.030391 0.0374141 0.45
        endloop
    endfacet
    facet normal -0.0751661 0.618275 -0.78236
        outer loop
            vertex 0.00975927 0.0477958 -6.52008e-005
            vertex -0.0130637 0.0451012 -1.918e-006
            vertex -0.0143719 0.0575194 0.00993749
        endloop
    endfacet
    facet normal 0.701601 0.215607 0.679168
        outer loop
            vertex 0.0509893 0.031396 0.44
            vertex 0.0463492 0.014995 0.45
            vertex 0.0596456 0.00313012 0.440031
        endloop
    endfacet
    facet normal 0.982103 -0.18833 0.00218198
        outer loop
            vertex 0.0598852 -0.000603468 0.00993673
            vertex 0.0596456 0.00313012 0.440031
            vertex 0.0544846 -0.0237828 0.440094
        endloop
    endfacet
    facet normal 0.518533 -0.428714 -0.739816
        outer loop
            vertex 0.0474109 -0.0158875 -0.000275947
            vertex 0.0526447 -0.0272478 0.00997555
            vertex 0.0350934 -0.0485184 0.01
        endloop
    endfacet
    facet normal 0.321667 -0.717117 0.618283
        outer loop
            vertex 0.0251901 -0.0436311 0.45
            vertex 0.010198 -0.0589656 0.440014
            vertex 0.03756 -0.0466672 0.440043
        endloop
    endfacet
    facet normal -0.0244802 0.607395 0.794023
        outer loop
            vertex 0.00507829 0.0596641 0.44
            vertex -0.017131 0.0456964 0.45
            vertex 0.00899071 0.0467492 0.45
        endloop
    endfacet
    facet normal -0.119417 0.696464 0.707585
        outer loop
            vertex -0.0246643 0.0545644 0.44
            vertex -0.017131 0.0456964 0.45
            vertex 0.00507829 0.0596641 0.44
        endloop
    endfacet
    facet normal 0.177654 -0.133499 0.974996
        outer loop
            vertex 0.0251901 -0.0436311 0.45
            vertex 0.0463492 -0.0154737 0.45
            vertex 0.0170017 -0.00970689 0.456137
        endloop
    endfacet
    facet normal -0.0018831 -0.00753465 -0.99997
        outer loop
            vertex 0.00975927 0.0477958 -6.52008e-005
            vertex 0.0332443 0.0343151 -7.85146e-006
            vertex -0.0130637 0.0451012 -1.918e-006
        endloop
    endfacet
    facet normal 0.238212 -0.611482 -0.75455
        outer loop
            vertex 0.0350934 -0.0485184 0.01
            vertex 0.00939782 -0.0585285 0.01
            vertex 0.0271065 -0.0392713 -1.52565e-005
        endloop
    endfacet
    facet normal 0.691928 0.721964 0.00161426
        outer loop
            vertex 0.0509893 0.031396 0.44
            vertex 0.0319789 0.050577 0.00998166
            vertex 0.0310796 0.0504774 0.44
        endloop
    endfacet
    facet normal -0.168994 0.985613 0.0027278
        outer loop
            vertex -0.0246643 0.0545644 0.44
            vertex 0.00507829 0.0596641 0.44
            vertex -0.0143719 0.0575194 0.00993749
        endloop
    endfacet
    facet normal 0.252855 0.579658 0.774636
        outer loop
            vertex 0.0310796 0.0504774 0.44
            vertex 0.00899071 0.0467492 0.45
            vertex 0.030391 0.0374141 0.45
        endloop
    endfacet
    facet normal 0.4898 0.348646 0.799088
        outer loop
            vertex 0.0509893 0.031396 0.44
            vertex 0.030391 0.0374141 0.45
            vertex 0.0463492 0.014995 0.45
        endloop
    endfacet
    facet normal 0.970179 0.242385 -0.00156363
        outer loop
            vertex 0.052546 0.0287727 0.00992992
            vertex 0.0596456 0.00313012 0.440031
            vertex 0.0598852 -0.000603468 0.00993673
        endloop
    endfacet
endsolid D:/Users/Paul Maroldt/Documents/!StartUp_Repositories/module_type_database/I116-450.stl_convdec.stl_created_by_BoundingMesh