solid D:/Users/Paul Maroldt/Documents/!StartUp_Repositories/modrob-gen2/ModuleLibrary/L250-I-80-80/L250-I-80-80_convdec.stl_created_by_BoundingMesh
    facet normal -0.59846 0.514684 0.613959
        outer loop
            vertex -0.0225106 0.027811 0.25
            vertex -0.0302009 0.0307978 0.24
            vertex -0.0373913 0.022437 0.24
        endloop
    endfacet
    facet normal -0.000418465 -0.000254605 -1
        outer loop
            vertex 0.035589 -0.00287401 -2.38039e-005
            vertex 0.0278917 -0.0209591 -1.59783e-005
            vertex 0.00138264 -0.0343051 -1.48723e-006
        endloop
    endfacet
    facet normal -0.240917 -0.970544 0.00151728
        outer loop
            vertex -0.00566762 -0.0432364 0.0100001
            vertex -0.00346089 -0.0434243 0.240198
            vertex -0.0139033 -0.0408325 0.24
        endloop
    endfacet
    facet normal 0.340588 -0.178753 0.923064
        outer loop
            vertex 0.0247244 -0.0258163 0.25
            vertex 0.0352657 -0.00573141 0.25
            vertex 0.0178573 -0.017868 0.254073
        endloop
    endfacet
    facet normal 0.776944 0.0419049 0.628173
        outer loop
            vertex 0.0352657 -0.00573141 0.25
            vertex 0.0433138 -0.00504389 0.24
            vertex 0.04252 0.00967369 0.24
        endloop
    endfacet
    facet normal -0.00749234 0.0025699 0.999969
        outer loop
            vertex -0.00766637 -0.0252001 0.254199
            vertex -0.0216986 0.00898789 0.254006
            vertex -0.0231882 -0.00703244 0.254036
        endloop
    endfacet
    facet normal 0.00540353 -0.00162515 0.999984
        outer loop
            vertex 0.0124834 0.0233304 0.254169
            vertex -0.00766637 -0.0252001 0.254199
            vertex 0.0178573 -0.017868 0.254073
        endloop
    endfacet
    facet normal 0.700627 0.172682 -0.692317
        outer loop
            vertex 0.035589 -0.00287401 -2.38039e-005
            vertex 0.030918 0.0161376 -8.86821e-006
            vertex 0.0430009 0.00724134 0.0100001
        endloop
    endfacet
    facet normal -0.714277 -0.116076 -0.69017
        outer loop
            vertex -0.0352168 0.00572594 -4.97557e-005
            vertex -0.0315842 -0.0165786 -5.79616e-005
            vertex -0.0422318 -0.010862 0.0100001
        endloop
    endfacet
    facet normal -0.912453 -0.409174 -0.00242086
        outer loop
            vertex -0.036201 -0.0243106 0.0100001
            vertex -0.0387102 -0.0200759 0.24
            vertex -0.0422318 -0.010862 0.0100001
        endloop
    endfacet
    facet normal 0.805217 -0.00239829 -0.592975
        outer loop
            vertex 0.035589 -0.00287401 -2.38039e-005
            vertex 0.0430009 0.00724134 0.0100001
            vertex 0.042957 -0.00749752 0.0100001
        endloop
    endfacet
    facet normal 0.0327544 -0.999463 -0.00112981
        outer loop
            vertex 0.00878897 -0.0427626 0.00997374
            vertex -0.00346089 -0.0434243 0.240198
            vertex -0.00566762 -0.0432364 0.0100001
        endloop
    endfacet
    facet normal 0.959451 -0.281872 0.00151859
        outer loop
            vertex 0.042957 -0.00749752 0.0100001
            vertex 0.0433138 -0.00504389 0.24
            vertex 0.0391593 -0.0191852 0.24
        endloop
    endfacet
    facet normal 0.493661 -0.564308 -0.661707
        outer loop
            vertex 0.0227521 -0.0372001 0.0100001
            vertex 0.0278917 -0.0209591 -1.59783e-005
            vertex 0.0310521 -0.0299392 0.0100001
        endloop
    endfacet
    facet normal 0.569422 -0.822042 0.00241923
        outer loop
            vertex 0.0227521 -0.0372001 0.0100001
            vertex 0.0305312 -0.0311347 0.24
            vertex 0.0184264 -0.0395196 0.24
        endloop
    endfacet
    facet normal 0.810746 -0.585397 0.00151873
        outer loop
            vertex 0.0380054 -0.02138 0.0100001
            vertex 0.0391593 -0.0191852 0.24
            vertex 0.0305312 -0.0311347 0.24
        endloop
    endfacet
    facet normal -0.606525 0.383543 0.696436
        outer loop
            vertex -0.0225106 0.027811 0.25
            vertex -0.0373913 0.022437 0.24
            vertex -0.0331077 0.011053 0.25
        endloop
    endfacet
    facet normal 0.71862 -0.256317 -0.646442
        outer loop
            vertex 0.035589 -0.00287401 -2.38039e-005
            vertex 0.042957 -0.00749752 0.0100001
            vertex 0.0380054 -0.02138 0.0100001
        endloop
    endfacet
    facet normal -0.302994 -0.691281 0.655992
        outer loop
            vertex -0.0240035 -0.0364055 0.24
            vertex -0.0139033 -0.0408325 0.24
            vertex -0.0201808 -0.0285915 0.25
        endloop
    endfacet
    facet normal -0.72401 -0.689789 -0.000602682
        outer loop
            vertex -0.036201 -0.0243106 0.0100001
            vertex -0.026034 -0.034982 0.0100001
            vertex -0.0320519 -0.0288665 0.24
        endloop
    endfacet
    facet normal 0.658421 -0.752646 -0.00242095
        outer loop
            vertex 0.0227521 -0.0372001 0.0100001
            vertex 0.0310521 -0.0299392 0.0100001
            vertex 0.0305312 -0.0311347 0.24
        endloop
    endfacet
    facet normal 0.501971 0.522616 0.689129
        outer loop
            vertex 0.0146905 0.0328801 0.25
            vertex 0.031636 0.016604 0.25
            vertex 0.0270046 0.0342386 0.24
        endloop
    endfacet
    facet normal 0.462793 -0.5668 -0.681587
        outer loop
            vertex 0.0227521 -0.0372001 0.0100001
            vertex 0.0149563 -0.0315202 -1.65356e-005
            vertex 0.0278917 -0.0209591 -1.59783e-005
        endloop
    endfacet
    facet normal 0.142859 -0.700078 -0.69963
        outer loop
            vertex 0.00878897 -0.0427626 0.00997374
            vertex 0.00138264 -0.0343051 -1.48723e-006
            vertex 0.0149563 -0.0315202 -1.65356e-005
        endloop
    endfacet
    facet normal -0.0863631 -0.712085 -0.696762
        outer loop
            vertex -0.0153007 -0.032246 -3.79812e-005
            vertex 0.00138264 -0.0343051 -1.48723e-006
            vertex -0.00566762 -0.0432364 0.0100001
        endloop
    endfacet
    facet normal 0.668512 -0.284827 -0.686997
        outer loop
            vertex 0.035589 -0.00287401 -2.38039e-005
            vertex 0.0380054 -0.02138 0.0100001
            vertex 0.0278917 -0.0209591 -1.59783e-005
        endloop
    endfacet
    facet normal 0.0235098 -0.753859 -0.656615
        outer loop
            vertex 0.00878897 -0.0427626 0.00997374
            vertex -0.00566762 -0.0432364 0.0100001
            vertex 0.00138264 -0.0343051 -1.48723e-006
        endloop
    endfacet
    facet normal 0.37561 0.926774 -0.00242172
        outer loop
            vertex 0.0140556 0.0412792 0.24
            vertex 0.0229737 0.0370638 0.0100001
            vertex 0.0127538 0.0412058 0.0100001
        endloop
    endfacet
    facet normal 0.743067 0.669217 0.000601121
        outer loop
            vertex 0.0270046 0.0342386 0.24
            vertex 0.0368684 0.0232863 0.24
            vertex 0.0312301 0.0297534 0.0100001
        endloop
    endfacet
    facet normal -0.227289 0.720489 -0.655161
        outer loop
            vertex -0.0197633 0.0388135 0.0100001
            vertex -0.0090867 0.0421816 0.0100001
            vertex -0.00935916 0.0330017 -6.30173e-007
        endloop
    endfacet
    facet normal -0.587166 0.809465 -0.00146112
        outer loop
            vertex -0.0312415 0.0304874 0.00994942
            vertex -0.021701 0.0378231 0.24
            vertex -0.0197633 0.0388135 0.0100001
        endloop
    endfacet
    facet normal -0.776223 0.204588 -0.596341
        outer loop
            vertex -0.0352168 0.00572594 -4.97557e-005
            vertex -0.043438 0.00382778 0.0100001
            vertex -0.0396815 0.0180802 0.0100001
        endloop
    endfacet
    facet normal -0.683633 -0.729825 0.0015183
        outer loop
            vertex -0.026034 -0.034982 0.0100001
            vertex -0.0240035 -0.0364055 0.24
            vertex -0.0320519 -0.0288665 0.24
        endloop
    endfacet
    facet normal 0.077463 -0.76572 0.638493
        outer loop
            vertex -0.00346089 -0.0434243 0.240198
            vertex 0.00765583 -0.0424648 0.24
            vertex 0.00695327 -0.0341974 0.25
        endloop
    endfacet
    facet normal 0.263764 -0.964584 0.00254812
        outer loop
            vertex 0.00878897 -0.0427626 0.00997374
            vertex 0.0184264 -0.0395196 0.24
            vertex 0.00765583 -0.0424648 0.24
        endloop
    endfacet
    facet normal -0.0287071 -0.712443 0.701143
        outer loop
            vertex -0.00346089 -0.0434243 0.240198
            vertex 0.00695327 -0.0341974 0.25
            vertex -0.0068677 -0.0336405 0.25
        endloop
    endfacet
    facet normal 0.000582996 0.000787131 -1
        outer loop
            vertex 0.035589 -0.00287401 -2.38039e-005
            vertex 0.00508806 0.0347637 -1.196e-005
            vertex 0.0204172 0.0282763 -8.12961e-006
        endloop
    endfacet
    facet normal -0.00149521 0.00188412 -0.999997
        outer loop
            vertex 0.0278917 -0.0209591 -1.59783e-005
            vertex 0.0149563 -0.0315202 -1.65356e-005
            vertex 0.00138264 -0.0343051 -1.48723e-006
        endloop
    endfacet
    facet normal -0.295667 -0.955291 -0.000602584
        outer loop
            vertex -0.00566762 -0.0432364 0.0100001
            vertex -0.0139033 -0.0408325 0.24
            vertex -0.0162022 -0.0399759 0.0100001
        endloop
    endfacet
    facet normal 0.999994 -0.00297842 -0.00151953
        outer loop
            vertex 0.042957 -0.00749752 0.0100001
            vertex 0.0430009 0.00724134 0.0100001
            vertex 0.0433138 -0.00504389 0.24
        endloop
    endfacet
    facet normal 0.000524843 0.00130351 -0.999999
        outer loop
            vertex -0.0352168 0.00572594 -4.97557e-005
            vertex -0.00935916 0.0330017 -6.30173e-007
            vertex 0.035589 -0.00287401 -2.38039e-005
        endloop
    endfacet
    facet normal 0.283317 -0.0858282 0.955178
        outer loop
            vertex 0.0352657 -0.00573141 0.25
            vertex 0.024085 0.00237806 0.254045
            vertex 0.0178573 -0.017868 0.254073
        endloop
    endfacet
    facet normal -0.826832 0.562443 -0.00242105
        outer loop
            vertex -0.0312415 0.0304874 0.00994942
            vertex -0.0396815 0.0180802 0.0100001
            vertex -0.0373913 0.022437 0.24
        endloop
    endfacet
    facet normal 0.0322734 0.39361 0.918711
        outer loop
            vertex 0.0146905 0.0328801 0.25
            vertex -0.00463911 0.034465 0.25
            vertex 0.0124834 0.0233304 0.254169
        endloop
    endfacet
    facet normal 0.998547 0.0538571 0.00151826
        outer loop
            vertex 0.0430009 0.00724134 0.0100001
            vertex 0.04252 0.00967369 0.24
            vertex 0.0433138 -0.00504389 0.24
        endloop
    endfacet
    facet normal 0.510924 0.57704 -0.637167
        outer loop
            vertex 0.0229737 0.0370638 0.0100001
            vertex 0.0312301 0.0297534 0.0100001
            vertex 0.0204172 0.0282763 -8.12961e-006
        endloop
    endfacet
    facet normal -0.468906 0.650065 -0.597949
        outer loop
            vertex -0.0244577 0.0261528 -8.27648e-005
            vertex -0.0312415 0.0304874 0.00994942
            vertex -0.0197633 0.0388135 0.0100001
        endloop
    endfacet
    facet normal -0.758178 0.652043 0.00254972
        outer loop
            vertex -0.0312415 0.0304874 0.00994942
            vertex -0.0373913 0.022437 0.24
            vertex -0.0302009 0.0307978 0.24
        endloop
    endfacet
    facet normal -0.131579 0.353399 0.926173
        outer loop
            vertex -0.0225106 0.027811 0.25
            vertex -0.0114077 0.0213439 0.254045
            vertex -0.00463911 0.034465 0.25
        endloop
    endfacet
    facet normal -0.516973 0.625485 0.584387
        outer loop
            vertex -0.0225106 0.027811 0.25
            vertex -0.021701 0.0378231 0.24
            vertex -0.0302009 0.0307978 0.24
        endloop
    endfacet
    facet normal 0.157706 0.987485 0.00151557
        outer loop
            vertex 0.0140556 0.0412792 0.24
            vertex 0.00199455 0.0435584 0.0100001
            vertex -0.000498795 0.0436036 0.24
        endloop
    endfacet
    facet normal -0.260712 -0.687439 0.677832
        outer loop
            vertex -0.0201808 -0.0285915 0.25
            vertex -0.0139033 -0.0408325 0.24
            vertex -0.0068677 -0.0336405 0.25
        endloop
    endfacet
    facet normal -0.192978 -0.727182 0.658761
        outer loop
            vertex -0.00346089 -0.0434243 0.240198
            vertex -0.0068677 -0.0336405 0.25
            vertex -0.0139033 -0.0408325 0.24
        endloop
    endfacet
    facet normal -0.366253 -0.721065 -0.588154
        outer loop
            vertex -0.0153007 -0.032246 -3.79812e-005
            vertex -0.0162022 -0.0399759 0.0100001
            vertex -0.026034 -0.034982 0.0100001
        endloop
    endfacet
    facet normal 0.0860219 -0.996292 0.00171359
        outer loop
            vertex 0.00878897 -0.0427626 0.00997374
            vertex 0.00765583 -0.0424648 0.24
            vertex -0.00346089 -0.0434243 0.240198
        endloop
    endfacet
    facet normal 0.0594051 0.724512 0.686698
        outer loop
            vertex 0.0146905 0.0328801 0.25
            vertex -0.000498795 0.0436036 0.24
            vertex -0.00463911 0.034465 0.25
        endloop
    endfacet
    facet normal -0.256006 -0.220612 0.941165
        outer loop
            vertex -0.00766637 -0.0252001 0.254199
            vertex -0.0309318 -0.0161157 0.25
            vertex -0.0201808 -0.0285915 0.25
        endloop
    endfacet
    facet normal -0.0179995 -0.446706 0.8945
        outer loop
            vertex -0.00766637 -0.0252001 0.254199
            vertex -0.0068677 -0.0336405 0.25
            vertex 0.00695327 -0.0341974 0.25
        endloop
    endfacet
    facet normal 0.287829 -0.719521 -0.632015
        outer loop
            vertex 0.00878897 -0.0427626 0.00997374
            vertex 0.0149563 -0.0315202 -1.65356e-005
            vertex 0.0227521 -0.0372001 0.0100001
        endloop
    endfacet
    facet normal 0.0900806 -0.297243 0.950543
        outer loop
            vertex -0.00766637 -0.0252001 0.254199
            vertex 0.00695327 -0.0341974 0.25
            vertex 0.0178573 -0.017868 0.254073
        endloop
    endfacet
    facet normal -0.32595 0.0320774 0.944843
        outer loop
            vertex -0.0331077 0.011053 0.25
            vertex -0.0231882 -0.00703244 0.254036
            vertex -0.0216986 0.00898789 0.254006
        endloop
    endfacet
    facet normal 0.307482 0.320129 0.896087
        outer loop
            vertex 0.0146905 0.0328801 0.25
            vertex 0.0124834 0.0233304 0.254169
            vertex 0.031636 0.016604 0.25
        endloop
    endfacet
    facet normal 0.204362 -0.74735 0.632221
        outer loop
            vertex 0.0184264 -0.0395196 0.24
            vertex 0.00695327 -0.0341974 0.25
            vertex 0.00765583 -0.0424648 0.24
        endloop
    endfacet
    facet normal -0.0912007 0.734033 -0.672962
        outer loop
            vertex 0.00199455 0.0435584 0.0100001
            vertex 0.00508806 0.0347637 -1.196e-005
            vertex -0.0090867 0.0421816 0.0100001
        endloop
    endfacet
    facet normal 0.167443 0.765775 -0.620928
        outer loop
            vertex 0.00199455 0.0435584 0.0100001
            vertex 0.0127538 0.0412058 0.0100001
            vertex 0.00508806 0.0347637 -1.196e-005
        endloop
    endfacet
    facet normal -0.251168 -0.206104 0.945746
        outer loop
            vertex -0.00766637 -0.0252001 0.254199
            vertex -0.0231882 -0.00703244 0.254036
            vertex -0.0309318 -0.0161157 0.25
        endloop
    endfacet
    facet normal 0.742588 0.308303 0.594569
        outer loop
            vertex 0.031636 0.016604 0.25
            vertex 0.04252 0.00967369 0.24
            vertex 0.0368684 0.0232863 0.24
        endloop
    endfacet
    facet normal -0.295217 0.186683 0.937015
        outer loop
            vertex -0.0225106 0.027811 0.25
            vertex -0.0331077 0.011053 0.25
            vertex -0.0216986 0.00898789 0.254006
        endloop
    endfacet
    facet normal -0.721871 -0.230138 0.652639
        outer loop
            vertex -0.0387102 -0.0200759 0.24
            vertex -0.0309318 -0.0161157 0.25
            vertex -0.0431871 -0.00603326 0.24
        endloop
    endfacet
    facet normal -0.548229 -0.522316 -0.653169
        outer loop
            vertex -0.0315842 -0.0165786 -5.79616e-005
            vertex -0.026034 -0.034982 0.0100001
            vertex -0.036201 -0.0243106 0.0100001
        endloop
    endfacet
    facet normal -0.726202 0.0586238 0.684978
        outer loop
            vertex -0.0427301 0.00869861 0.24
            vertex -0.034223 -0.00276277 0.25
            vertex -0.0331077 0.011053 0.25
        endloop
    endfacet
    facet normal -0.646145 0.436984 -0.625733
        outer loop
            vertex -0.0244577 0.0261528 -8.27648e-005
            vertex -0.0396815 0.0180802 0.0100001
            vertex -0.0312415 0.0304874 0.00994942
        endloop
    endfacet
    facet normal -0.797144 -0.603784 0.00242023
        outer loop
            vertex -0.036201 -0.0243106 0.0100001
            vertex -0.0320519 -0.0288665 0.24
            vertex -0.0387102 -0.0200759 0.24
        endloop
    endfacet
    facet normal -0.525625 -0.561141 0.639406
        outer loop
            vertex -0.0240035 -0.0364055 0.24
            vertex -0.0201808 -0.0285915 0.25
            vertex -0.0320519 -0.0288665 0.24
        endloop
    endfacet
    facet normal -0.505436 -0.526184 -0.68386
        outer loop
            vertex -0.0153007 -0.032246 -3.79812e-005
            vertex -0.026034 -0.034982 0.0100001
            vertex -0.0315842 -0.0165786 -5.79616e-005
        endloop
    endfacet
    facet normal 0.370088 -0.928994 -0.0024083
        outer loop
            vertex 0.00878897 -0.0427626 0.00997374
            vertex 0.0227521 -0.0372001 0.0100001
            vertex 0.0184264 -0.0395196 0.24
        endloop
    endfacet
    facet normal 0.00117015 0.0010731 -0.999999
        outer loop
            vertex 0.035589 -0.00287401 -2.38039e-005
            vertex 0.0204172 0.0282763 -8.12961e-006
            vertex 0.030918 0.0161376 -8.86821e-006
        endloop
    endfacet
    facet normal 0.477674 0.878534 0.0024199
        outer loop
            vertex 0.0140556 0.0412792 0.24
            vertex 0.0270046 0.0342386 0.24
            vertex 0.0229737 0.0370638 0.0100001
        endloop
    endfacet
    facet normal 0.71093 0.115532 0.693708
        outer loop
            vertex 0.031636 0.016604 0.25
            vertex 0.0352657 -0.00573141 0.25
            vertex 0.04252 0.00967369 0.24
        endloop
    endfacet
    facet normal 0.923565 0.38344 0.00151826
        outer loop
            vertex 0.0381324 0.0211525 0.0100001
            vertex 0.0368684 0.0232863 0.24
            vertex 0.04252 0.00967369 0.24
        endloop
    endfacet
    facet normal 0.570094 0.513435 0.641388
        outer loop
            vertex 0.031636 0.016604 0.25
            vertex 0.0368684 0.0232863 0.24
            vertex 0.0270046 0.0342386 0.24
        endloop
    endfacet
    facet normal 0.256133 0.136162 0.957004
        outer loop
            vertex 0.0124834 0.0233304 0.254169
            vertex 0.024085 0.00237806 0.254045
            vertex 0.031636 0.016604 0.25
        endloop
    endfacet
    facet normal -0.171336 -0.451776 0.875524
        outer loop
            vertex -0.00766637 -0.0252001 0.254199
            vertex -0.0201808 -0.0285915 0.25
            vertex -0.0068677 -0.0336405 0.25
        endloop
    endfacet
    facet normal -0.30085 0.953671 -0.000609256
        outer loop
            vertex -0.0197633 0.0388135 0.0100001
            vertex -0.0113457 0.0416159 0.24
            vertex -0.0090867 0.0421816 0.0100001
        endloop
    endfacet
    facet normal -0.13909 0.759014 0.636044
        outer loop
            vertex -0.000498795 0.0436036 0.24
            vertex -0.0113457 0.0416159 0.24
            vertex -0.00463911 0.034465 0.25
        endloop
    endfacet
    facet normal 0.277848 0.685558 -0.672912
        outer loop
            vertex 0.0229737 0.0370638 0.0100001
            vertex 0.0204172 0.0282763 -8.12961e-006
            vertex 0.0127538 0.0412058 0.0100001
        endloop
    endfacet
    facet normal 0.77616 -0.630535 -0.00151958
        outer loop
            vertex 0.0380054 -0.02138 0.0100001
            vertex 0.0305312 -0.0311347 0.24
            vertex 0.0310521 -0.0299392 0.0100001
        endloop
    endfacet
    facet normal 0.941879 -0.335949 -0.00151954
        outer loop
            vertex 0.0380054 -0.02138 0.0100001
            vertex 0.042957 -0.00749752 0.0100001
            vertex 0.0391593 -0.0191852 0.24
        endloop
    endfacet
    facet normal 0.638618 -0.461112 0.61607
        outer loop
            vertex 0.0247244 -0.0258163 0.25
            vertex 0.0305312 -0.0311347 0.24
            vertex 0.0391593 -0.0191852 0.24
        endloop
    endfacet
    facet normal -0.723724 0.281242 0.63018
        outer loop
            vertex -0.0373913 0.022437 0.24
            vertex -0.0427301 0.00869861 0.24
            vertex -0.0331077 0.011053 0.25
        endloop
    endfacet
    facet normal -0.63722 0.33451 -0.694301
        outer loop
            vertex -0.0244577 0.0261528 -8.27648e-005
            vertex -0.0352168 0.00572594 -4.97557e-005
            vertex -0.0396815 0.0180802 0.0100001
        endloop
    endfacet
    facet normal 0.662911 0.748695 -0.00242137
        outer loop
            vertex 0.0270046 0.0342386 0.24
            vertex 0.0312301 0.0297534 0.0100001
            vertex 0.0229737 0.0370638 0.0100001
        endloop
    endfacet
    facet normal -0.637077 0.770798 0.00184171
        outer loop
            vertex -0.0312415 0.0304874 0.00994942
            vertex -0.0302009 0.0307978 0.24
            vertex -0.021701 0.0378231 0.24
        endloop
    endfacet
    facet normal -0.932091 0.362215 0.00241991
        outer loop
            vertex -0.0396815 0.0180802 0.0100001
            vertex -0.0427301 0.00869861 0.24
            vertex -0.0373913 0.022437 0.24
        endloop
    endfacet
    facet normal -0.123298 0.992369 -0.00153164
        outer loop
            vertex -0.000498795 0.0436036 0.24
            vertex 0.00199455 0.0435584 0.0100001
            vertex -0.0090867 0.0421816 0.0100001
        endloop
    endfacet
    facet normal -0.258818 0.69514 0.670666
        outer loop
            vertex -0.0225106 0.027811 0.25
            vertex -0.00463911 0.034465 0.25
            vertex -0.0113457 0.0416159 0.24
        endloop
    endfacet
    facet normal -0.604635 -0.457971 0.651674
        outer loop
            vertex -0.0387102 -0.0200759 0.24
            vertex -0.0320519 -0.0288665 0.24
            vertex -0.0309318 -0.0161157 0.25
        endloop
    endfacet
    facet normal -0.766616 -0.062948 -0.639013
        outer loop
            vertex -0.0352168 0.00572594 -4.97557e-005
            vertex -0.0422318 -0.010862 0.0100001
            vertex -0.043438 0.00382778 0.0100001
        endloop
    endfacet
    facet normal 0.00811039 -0.00588773 -0.99995
        outer loop
            vertex -0.0244577 0.0261528 -8.27648e-005
            vertex -0.00935916 0.0330017 -6.30173e-007
            vertex -0.0352168 0.00572594 -4.97557e-005
        endloop
    endfacet
    facet normal -0.748182 0.0232095 0.663087
        outer loop
            vertex -0.0431871 -0.00603326 0.24
            vertex -0.034223 -0.00276277 0.25
            vertex -0.0427301 0.00869861 0.24
        endloop
    endfacet
    facet normal 0.000419504 0.000436224 -1
        outer loop
            vertex -0.0352168 0.00572594 -4.97557e-005
            vertex 0.035589 -0.00287401 -2.38039e-005
            vertex -0.0315842 -0.0165786 -5.79616e-005
        endloop
    endfacet
    facet normal -0.0306134 0.308851 0.950618
        outer loop
            vertex 0.0124834 0.0233304 0.254169
            vertex -0.00463911 0.034465 0.25
            vertex -0.0114077 0.0213439 0.254045
        endloop
    endfacet
    facet normal 0.000634206 -0.000616139 -1
        outer loop
            vertex 0.035589 -0.00287401 -2.38039e-005
            vertex -0.0153007 -0.032246 -3.79812e-005
            vertex -0.0315842 -0.0165786 -5.79616e-005
        endloop
    endfacet
    facet normal -0.40144 -0.915885 0.000601403
        outer loop
            vertex -0.0240035 -0.0364055 0.24
            vertex -0.0162022 -0.0399759 0.0100001
            vertex -0.0139033 -0.0408325 0.24
        endloop
    endfacet
    facet normal -0.00529325 0.00125135 0.999985
        outer loop
            vertex 0.0124834 0.0233304 0.254169
            vertex -0.0114077 0.0213439 0.254045
            vertex -0.0216986 0.00898789 0.254006
        endloop
    endfacet
    facet normal 0.00185116 -0.00272462 -0.999995
        outer loop
            vertex 0.035589 -0.00287401 -2.38039e-005
            vertex 0.00138264 -0.0343051 -1.48723e-006
            vertex -0.0153007 -0.032246 -3.79812e-005
        endloop
    endfacet
    facet normal 0.389937 0.717167 0.577599
        outer loop
            vertex 0.0146905 0.0328801 0.25
            vertex 0.0270046 0.0342386 0.24
            vertex 0.0140556 0.0412792 0.24
        endloop
    endfacet
    facet normal 0.159286 -0.337748 0.927661
        outer loop
            vertex 0.0247244 -0.0258163 0.25
            vertex 0.0178573 -0.017868 0.254073
            vertex 0.00695327 -0.0341974 0.25
        endloop
    endfacet
    facet normal -0.558262 -0.481081 0.675947
        outer loop
            vertex -0.0201808 -0.0285915 0.25
            vertex -0.0309318 -0.0161157 0.25
            vertex -0.0320519 -0.0288665 0.24
        endloop
    endfacet
    facet normal 0.00847434 -0.00122455 0.999963
        outer loop
            vertex 0.0124834 0.0233304 0.254169
            vertex 0.0178573 -0.017868 0.254073
            vertex 0.024085 0.00237806 0.254045
        endloop
    endfacet
    facet normal 0.635578 -0.333575 0.696253
        outer loop
            vertex 0.0247244 -0.0258163 0.25
            vertex 0.0391593 -0.0191852 0.24
            vertex 0.0352657 -0.00573141 0.25
        endloop
    endfacet
    facet normal -0.254078 0.693697 0.673965
        outer loop
            vertex -0.0225106 0.027811 0.25
            vertex -0.0113457 0.0416159 0.24
            vertex -0.021701 0.0378231 0.24
        endloop
    endfacet
    facet normal -0.00608829 0.00314622 0.999977
        outer loop
            vertex 0.0124834 0.0233304 0.254169
            vertex -0.0216986 0.00898789 0.254006
            vertex -0.00766637 -0.0252001 0.254199
        endloop
    endfacet
    facet normal 0.291125 0.687508 -0.665266
        outer loop
            vertex 0.00508806 0.0347637 -1.196e-005
            vertex 0.0127538 0.0412058 0.0100001
            vertex 0.0204172 0.0282763 -8.12961e-006
        endloop
    endfacet
    facet normal 0.943866 0.330325 -0.00151985
        outer loop
            vertex 0.0381324 0.0211525 0.0100001
            vertex 0.04252 0.00967369 0.24
            vertex 0.0430009 0.00724134 0.0100001
        endloop
    endfacet
    facet normal 0.558325 0.48303 -0.674504
        outer loop
            vertex 0.030918 0.0161376 -8.86821e-006
            vertex 0.0204172 0.0282763 -8.12961e-006
            vertex 0.0312301 0.0297534 0.0100001
        endloop
    endfacet
    facet normal -0.343923 0.938997 0.00114593
        outer loop
            vertex -0.021701 0.0378231 0.24
            vertex -0.0113457 0.0416159 0.24
            vertex -0.0197633 0.0388135 0.0100001
        endloop
    endfacet
    facet normal -0.2349 0.192632 0.952741
        outer loop
            vertex -0.0225106 0.027811 0.25
            vertex -0.0216986 0.00898789 0.254006
            vertex -0.0114077 0.0213439 0.254045
        endloop
    endfacet
    facet normal -0.735793 -0.329954 -0.591388
        outer loop
            vertex -0.0315842 -0.0165786 -5.79616e-005
            vertex -0.036201 -0.0243106 0.0100001
            vertex -0.0422318 -0.010862 0.0100001
        endloop
    endfacet
    facet normal -0.952751 -0.303744 0.00241973
        outer loop
            vertex -0.0387102 -0.0200759 0.24
            vertex -0.0431871 -0.00603326 0.24
            vertex -0.0422318 -0.010862 0.0100001
        endloop
    endfacet
    facet normal -0.373244 -0.0919965 0.92316
        outer loop
            vertex -0.0309318 -0.0161157 0.25
            vertex -0.0231882 -0.00703244 0.254036
            vertex -0.034223 -0.00276277 0.25
        endloop
    endfacet
    facet normal -0.235151 -0.759767 -0.606183
        outer loop
            vertex -0.0153007 -0.032246 -3.79812e-005
            vertex -0.00566762 -0.0432364 0.0100001
            vertex -0.0162022 -0.0399759 0.0100001
        endloop
    endfacet
    facet normal 0.121985 0.763821 0.633796
        outer loop
            vertex 0.0146905 0.0328801 0.25
            vertex 0.0140556 0.0412792 0.24
            vertex -0.000498795 0.0436036 0.24
        endloop
    endfacet
    facet normal 0.378734 0.0615476 0.923457
        outer loop
            vertex 0.031636 0.016604 0.25
            vertex 0.024085 0.00237806 0.254045
            vertex 0.0352657 -0.00573141 0.25
        endloop
    endfacet
    facet normal 0.766531 -0.225195 0.601429
        outer loop
            vertex 0.0352657 -0.00573141 0.25
            vertex 0.0391593 -0.0191852 0.24
            vertex 0.0433138 -0.00504389 0.24
        endloop
    endfacet
    facet normal 0.213611 0.976918 -0.0015208
        outer loop
            vertex 0.0140556 0.0412792 0.24
            vertex 0.0127538 0.0412058 0.0100001
            vertex 0.00199455 0.0435584 0.0100001
        endloop
    endfacet
    facet normal -0.452863 -0.891579 -0.00152011
        outer loop
            vertex -0.026034 -0.034982 0.0100001
            vertex -0.0162022 -0.0399759 0.0100001
            vertex -0.0240035 -0.0364055 0.24
        endloop
    endfacet
    facet normal 0.45164 -0.652007 0.609022
        outer loop
            vertex 0.0247244 -0.0258163 0.25
            vertex 0.0184264 -0.0395196 0.24
            vertex 0.0305312 -0.0311347 0.24
        endloop
    endfacet
    facet normal 0.586726 0.470853 -0.658825
        outer loop
            vertex 0.0381324 0.0211525 0.0100001
            vertex 0.030918 0.0161376 -8.86821e-006
            vertex 0.0312301 0.0297534 0.0100001
        endloop
    endfacet
    facet normal -0.996643 -0.0818359 -0.00242144
        outer loop
            vertex -0.043438 0.00382778 0.0100001
            vertex -0.0422318 -0.010862 0.0100001
            vertex -0.0431871 -0.00603326 0.24
        endloop
    endfacet
    facet normal -0.999516 0.0310062 0.0024197
        outer loop
            vertex -0.043438 0.00382778 0.0100001
            vertex -0.0431871 -0.00603326 0.24
            vertex -0.0427301 0.00869861 0.24
        endloop
    endfacet
    facet normal -0.180249 0.983621 0.000648923
        outer loop
            vertex -0.000498795 0.0436036 0.24
            vertex -0.0090867 0.0421816 0.0100001
            vertex -0.0113457 0.0416159 0.24
        endloop
    endfacet
    facet normal -0.704414 -0.173622 0.688227
        outer loop
            vertex -0.0431871 -0.00603326 0.24
            vertex -0.0309318 -0.0161157 0.25
            vertex -0.034223 -0.00276277 0.25
        endloop
    endfacet
    facet normal -0.966974 0.254864 -0.00242123
        outer loop
            vertex -0.0396815 0.0180802 0.0100001
            vertex -0.043438 0.00382778 0.0100001
            vertex -0.0427301 0.00869861 0.24
        endloop
    endfacet
    facet normal -0.334151 0.0269748 0.942134
        outer loop
            vertex -0.0331077 0.011053 0.25
            vertex -0.034223 -0.00276277 0.25
            vertex -0.0231882 -0.00703244 0.254036
        endloop
    endfacet
    facet normal -0.000748611 -0.00029198 -1
        outer loop
            vertex 0.035589 -0.00287401 -2.38039e-005
            vertex -0.00935916 0.0330017 -6.30173e-007
            vertex 0.00508806 0.0347637 -1.196e-005
        endloop
    endfacet
    facet normal -0.0901584 0.734915 -0.672139
        outer loop
            vertex 0.00508806 0.0347637 -1.196e-005
            vertex -0.00935916 0.0330017 -6.30173e-007
            vertex -0.0090867 0.0421816 0.0100001
        endloop
    endfacet
    facet normal 0.603061 -0.489913 -0.629526
        outer loop
            vertex 0.0380054 -0.02138 0.0100001
            vertex 0.0310521 -0.0299392 0.0100001
            vertex 0.0278917 -0.0209591 -1.59783e-005
        endloop
    endfacet
    facet normal 0.720647 0.252205 -0.645803
        outer loop
            vertex 0.0381324 0.0211525 0.0100001
            vertex 0.0430009 0.00724134 0.0100001
            vertex 0.030918 0.0161376 -8.86821e-006
        endloop
    endfacet
    facet normal 0.306061 -0.648967 0.696541
        outer loop
            vertex 0.0247244 -0.0258163 0.25
            vertex 0.00695327 -0.0341974 0.25
            vertex 0.0184264 -0.0395196 0.24
        endloop
    endfacet
    facet normal -0.295534 0.659797 -0.690889
        outer loop
            vertex -0.0244577 0.0261528 -8.27648e-005
            vertex -0.0197633 0.0388135 0.0100001
            vertex -0.00935916 0.0330017 -6.30173e-007
        endloop
    endfacet
    facet normal 0.779912 0.625887 -0.00152047
        outer loop
            vertex 0.0381324 0.0211525 0.0100001
            vertex 0.0312301 0.0297534 0.0100001
            vertex 0.0368684 0.0232863 0.24
        endloop
    endfacet
endsolid D:/Users/Paul Maroldt/Documents/!StartUp_Repositories/modrob-gen2/ModuleLibrary/L250-I-80-80/L250-I-80-80_convdec.stl_created_by_BoundingMesh