solid C:/Users/felix/Documents/Gitlab/hardware/2nd_gen_modules/link_modules/L80/I86-220/I86-220_convdec.stl_created_by_BoundingMesh
    facet normal -0.563243 -0.536605 -0.628341
        outer loop
            vertex -0.0260343 -0.0349818 0.0100001
            vertex -0.0336407 -0.0269978 0.0100001
            vertex -0.026248 -0.0230296 -1.55461e-005
        endloop
    endfacet
    facet normal -0.297677 0.0312652 0.954154
        outer loop
            vertex -0.0355263 0.00582973 0.22
            vertex -0.02095 -0.00471397 0.224893
            vertex -0.0224692 0.00807424 0.224
        endloop
    endfacet
    facet normal 0.0394333 -0.999222 -0.000693782
        outer loop
            vertex 0.00905898 -0.042655 0.0100001
            vertex 0.000493298 -0.0431319 0.21
            vertex -0.00566839 -0.0432362 0.0100001
        endloop
    endfacet
    facet normal 0.0934077 -0.341464 0.935242
        outer loop
            vertex 0.00850073 -0.0206881 0.224813
            vertex -0.00984811 -0.0303362 0.223123
            vertex 0.00573159 -0.034628 0.22
        endloop
    endfacet
    facet normal -0.778604 -0.200238 -0.59471
        outer loop
            vertex -0.0353611 -0.00524852 -3.72872e-005
            vertex -0.0397889 -0.0178427 0.0100001
            vertex -0.04346 -0.00356799 0.0100001
        endloop
    endfacet
    facet normal 0.422291 -0.90646 0.000691171
        outer loop
            vertex 0.02483 -0.0358469 0.21
            vertex 0.01147 -0.0420709 0.21
            vertex 0.0193044 -0.0385736 0.0100001
        endloop
    endfacet
    facet normal 0.0719205 0.059024 0.995662
        outer loop
            vertex 0.0248841 0.00513172 0.224
            vertex 0.0123829 0.0203644 0.224
            vertex 8.80202e-005 0.0207037 0.224868
        endloop
    endfacet
    facet normal 0.506318 -0.513136 -0.693061
        outer loop
            vertex 0.0317848 -0.0161854 -7.09411e-005
            vertex 0.0287118 -0.0328199 0.0100001
            vertex 0.019392 -0.0285039 -4.03455e-006
        endloop
    endfacet
    facet normal -0.29567 -0.955286 -0.00278413
        outer loop
            vertex -0.0105044 -0.0423223 0.21
            vertex -0.0162025 -0.0399758 0.0100001
            vertex -0.00566839 -0.0432362 0.0100001
        endloop
    endfacet
    facet normal 0.075273 -0.778746 0.622807
        outer loop
            vertex 0.01147 -0.0420709 0.21
            vertex 0.00573159 -0.034628 0.22
            vertex 0.000493298 -0.0431319 0.21
        endloop
    endfacet
    facet normal -0.311247 -0.159955 0.936771
        outer loop
            vertex -0.0255276 -0.0244624 0.22
            vertex -0.02095 -0.00471397 0.224893
            vertex -0.03257 -0.010759 0.22
        endloop
    endfacet
    facet normal -0.408442 -0.590544 -0.696012
        outer loop
            vertex -0.0260343 -0.0349818 0.0100001
            vertex -0.026248 -0.0230296 -1.55461e-005
            vertex -0.0146749 -0.0310504 -1.61203e-006
        endloop
    endfacet
    facet normal 0.646591 0.359252 -0.672947
        outer loop
            vertex 0.0351623 0.00639752 -4.6651e-005
            vertex 0.0241479 0.0262475 -3.28024e-005
            vertex 0.0340157 0.0272807 0.0100001
        endloop
    endfacet
    facet normal -0.996137 0.087774 -0.00276946
        outer loop
            vertex -0.04346 -0.00356799 0.0100001
            vertex -0.0435837 0.00133861 0.21
            vertex -0.0424921 0.0074166 0.0100001
        endloop
    endfacet
    facet normal -0.452871 -0.891576 -0.000693284
        outer loop
            vertex -0.0260343 -0.0349818 0.0100001
            vertex -0.0162025 -0.0399758 0.0100001
            vertex -0.0206046 -0.0378953 0.21
        endloop
    endfacet
    facet normal -0.000696872 0.00837142 -0.999965
        outer loop
            vertex 0.00266672 -0.0359462 -5.46836e-005
            vertex -0.0146749 -0.0310504 -1.61203e-006
            vertex 0.019392 -0.0285039 -4.03455e-006
        endloop
    endfacet
    facet normal 0.604704 -0.491255 -0.626899
        outer loop
            vertex 0.0317848 -0.0161854 -7.09411e-005
            vertex 0.0380052 -0.0213803 0.0100001
            vertex 0.0287118 -0.0328199 0.0100001
        endloop
    endfacet
    facet normal -0.229623 0.188449 0.954861
        outer loop
            vertex -0.0241691 0.0262708 0.22
            vertex -0.0224692 0.00807424 0.224
            vertex -0.0123074 0.0204563 0.224
        endloop
    endfacet
    facet normal -0.054936 -0.746258 0.663387
        outer loop
            vertex -0.0105044 -0.0423223 0.21
            vertex 0.000493298 -0.0431319 0.21
            vertex 0.00573159 -0.034628 0.22
        endloop
    endfacet
    facet normal 0.156812 -0.350014 0.923526
        outer loop
            vertex 0.00850073 -0.0206881 0.224813
            vertex 0.00573159 -0.034628 0.22
            vertex 0.0203806 -0.028065 0.22
        endloop
    endfacet
    facet normal -0.146344 0.798582 0.583824
        outer loop
            vertex -0.00334483 0.0357713 0.22
            vertex -0.000498911 0.0436036 0.21
            vertex -0.0149962 0.0409469 0.21
        endloop
    endfacet
    facet normal 0.559942 0.477641 0.676996
        outer loop
            vertex 0.0188764 0.0302047 0.22
            vertex 0.0297407 0.0174684 0.22
            vertex 0.0368683 0.0232864 0.21
        endloop
    endfacet
    facet normal 0.47767 0.878538 0.00131776
        outer loop
            vertex 0.0140555 0.0412792 0.21
            vertex 0.0270045 0.0342387 0.21
            vertex 0.0160799 0.0404785 0.0100001
        endloop
    endfacet
    facet normal -0.637656 -0.428225 -0.640327
        outer loop
            vertex -0.0397889 -0.0178427 0.0100001
            vertex -0.026248 -0.0230296 -1.55461e-005
            vertex -0.0336407 -0.0269978 0.0100001
        endloop
    endfacet
    facet normal -0.550466 -0.834853 0.0027826
        outer loop
            vertex -0.0260343 -0.0349818 0.0100001
            vertex -0.0206046 -0.0378953 0.21
            vertex -0.029811 -0.031825 0.21
        endloop
    endfacet
    facet normal -0.724018 -0.689776 -0.00278457
        outer loop
            vertex -0.0260343 -0.0349818 0.0100001
            vertex -0.029811 -0.031825 0.21
            vertex -0.0336407 -0.0269978 0.0100001
        endloop
    endfacet
    facet normal -0.639773 -0.328744 -0.694707
        outer loop
            vertex -0.0353611 -0.00524852 -3.72872e-005
            vertex -0.026248 -0.0230296 -1.55461e-005
            vertex -0.0397889 -0.0178427 0.0100001
        endloop
    endfacet
    facet normal -0.758182 0.652043 0.000690928
        outer loop
            vertex -0.0277807 0.033612 0.21
            vertex -0.0334788 0.0271983 0.0100001
            vertex -0.0372218 0.022634 0.210087
        endloop
    endfacet
    facet normal 0.959449 -0.281878 0.00174615
        outer loop
            vertex 0.0391593 -0.0191851 0.21
            vertex 0.0429569 -0.00749786 0.0100001
            vertex 0.0433139 -0.00504378 0.21
        endloop
    endfacet
    facet normal -0.626723 -0.474707 0.617958
        outer loop
            vertex -0.0255276 -0.0244624 0.22
            vertex -0.0387102 -0.020076 0.21
            vertex -0.029811 -0.031825 0.21
        endloop
    endfacet
    facet normal -0.373186 -0.638116 0.673455
        outer loop
            vertex -0.0255276 -0.0244624 0.22
            vertex -0.0206046 -0.0378953 0.21
            vertex -0.00984811 -0.0303362 0.223123
        endloop
    endfacet
    facet normal 0.00055304 -0.000939267 -0.999999
        outer loop
            vertex -0.0353611 -0.00524852 -3.72872e-005
            vertex -0.0146749 -0.0310504 -1.61203e-006
            vertex -0.026248 -0.0230296 -1.55461e-005
        endloop
    endfacet
    facet normal 0.243069 -0.224284 0.943724
        outer loop
            vertex 0.00850073 -0.0206881 0.224813
            vertex 0.0203806 -0.028065 0.22
            vertex 0.0298936 -0.0176711 0.22002
        endloop
    endfacet
    facet normal -0.342546 -0.674377 -0.654124
        outer loop
            vertex -0.0260343 -0.0349818 0.0100001
            vertex -0.0146749 -0.0310504 -1.61203e-006
            vertex -0.0162025 -0.0399758 0.0100001
        endloop
    endfacet
    facet normal 0.544375 -0.499535 0.673885
        outer loop
            vertex 0.0203806 -0.028065 0.22
            vertex 0.0327038 -0.0281259 0.21
            vertex 0.0298936 -0.0176711 0.22002
        endloop
    endfacet
    facet normal 0.698314 -0.224517 0.679669
        outer loop
            vertex 0.035781 0.000579865 0.22
            vertex 0.0298936 -0.0176711 0.22002
            vertex 0.0391593 -0.0191851 0.21
        endloop
    endfacet
    facet normal 0.314935 -0.676017 0.666196
        outer loop
            vertex 0.02483 -0.0358469 0.21
            vertex 0.0203806 -0.028065 0.22
            vertex 0.01147 -0.0420709 0.21
        endloop
    endfacet
    facet normal 0.999994 -0.00298357 -0.00174837
        outer loop
            vertex 0.0429569 -0.00749786 0.0100001
            vertex 0.0429898 0.00352974 0.0100001
            vertex 0.0433139 -0.00504378 0.21
        endloop
    endfacet
    facet normal 0.809626 0.0436784 0.585319
        outer loop
            vertex 0.035781 0.000579865 0.22
            vertex 0.0433139 -0.00504378 0.21
            vertex 0.0425199 0.0096738 0.21
        endloop
    endfacet
    facet normal 0.647238 0.359042 -0.672437
        outer loop
            vertex 0.0351623 0.00639752 -4.6651e-005
            vertex 0.0340157 0.0272807 0.0100001
            vertex 0.0411585 0.0144045 0.0100001
        endloop
    endfacet
    facet normal -0.726906 -0.129543 0.674408
        outer loop
            vertex -0.0355263 0.00582973 0.22
            vertex -0.0420598 -0.00956929 0.21
            vertex -0.03257 -0.010759 0.22
        endloop
    endfacet
    facet normal 0.000423669 0.000932749 -0.999999
        outer loop
            vertex -0.0135371 0.0331251 -4.23533e-005
            vertex 0.0241479 0.0262475 -3.28024e-005
            vertex 0.0351623 0.00639752 -4.6651e-005
        endloop
    endfacet
    facet normal 0.692864 0.287659 0.661205
        outer loop
            vertex 0.0368683 0.0232864 0.21
            vertex 0.0297407 0.0174684 0.22
            vertex 0.0425199 0.0096738 0.21
        endloop
    endfacet
    facet normal -0.719888 0.694088 -0.00174841
        outer loop
            vertex -0.0258249 0.0351367 0.0100001
            vertex -0.0334788 0.0271983 0.0100001
            vertex -0.0277807 0.033612 0.21
        endloop
    endfacet
    facet normal 0.166627 0.762042 -0.625722
        outer loop
            vertex 0.00198126 0.0435613 0.0100001
            vertex 0.0160799 0.0404785 0.0100001
            vertex 0.00636499 0.0343823 -1.12646e-005
        endloop
    endfacet
    facet normal -0.745392 0.196474 -0.637016
        outer loop
            vertex -0.0311493 0.017889 -4.24591e-005
            vertex -0.0424921 0.0074166 0.0100001
            vertex -0.0396812 0.0180807 0.0100001
        endloop
    endfacet
    facet normal -0.220027 -0.710892 -0.667997
        outer loop
            vertex -0.00566839 -0.0432362 0.0100001
            vertex -0.0162025 -0.0399758 0.0100001
            vertex -0.0146749 -0.0310504 -1.61203e-006
        endloop
    endfacet
    facet normal -0.968485 -0.24907 -0.000693365
        outer loop
            vertex -0.04346 -0.00356799 0.0100001
            vertex -0.0397889 -0.0178427 0.0100001
            vertex -0.0420598 -0.00956929 0.21
        endloop
    endfacet
    facet normal -0.952752 -0.303743 0.00174694
        outer loop
            vertex -0.0397889 -0.0178427 0.0100001
            vertex -0.0387102 -0.020076 0.21
            vertex -0.0420598 -0.00956929 0.21
        endloop
    endfacet
    facet normal -0.000122477 -6.23647e-005 -1
        outer loop
            vertex -0.0135371 0.0331251 -4.23533e-005
            vertex 0.0351623 0.00639752 -4.6651e-005
            vertex -0.0353611 -0.00524852 -3.72872e-005
        endloop
    endfacet
    facet normal -0.802736 0.162789 0.573685
        outer loop
            vertex -0.0355263 0.00582973 0.22
            vertex -0.0413645 0.0122818 0.21
            vertex -0.0435837 0.00133861 0.21
        endloop
    endfacet
    facet normal 0.370079 -0.928999 -0.0017482
        outer loop
            vertex 0.00905898 -0.042655 0.0100001
            vertex 0.0193044 -0.0385736 0.0100001
            vertex 0.01147 -0.0420709 0.21
        endloop
    endfacet
    facet normal -0.0734163 -0.997297 0.00278194
        outer loop
            vertex -0.0105044 -0.0423223 0.21
            vertex -0.00566839 -0.0432362 0.0100001
            vertex 0.000493298 -0.0431319 0.21
        endloop
    endfacet
    facet normal -0.40144 -0.915885 0.000691602
        outer loop
            vertex -0.0105044 -0.0423223 0.21
            vertex -0.0206046 -0.0378953 0.21
            vertex -0.0162025 -0.0399758 0.0100001
        endloop
    endfacet
    facet normal 0.810753 -0.585386 0.00174674
        outer loop
            vertex 0.0380052 -0.0213803 0.0100001
            vertex 0.0391593 -0.0191851 0.21
            vertex 0.0327038 -0.0281259 0.21
        endloop
    endfacet
    facet normal 0.998548 0.0538705 0.000691172
        outer loop
            vertex 0.0433139 -0.00504378 0.21
            vertex 0.0429898 0.00352974 0.0100001
            vertex 0.0425199 0.0096738 0.21
        endloop
    endfacet
    facet normal 0.799929 0.134707 -0.58478
        outer loop
            vertex 0.0351623 0.00639752 -4.6651e-005
            vertex 0.0411585 0.0144045 0.0100001
            vertex 0.0429898 0.00352974 0.0100001
        endloop
    endfacet
    facet normal 0.743064 0.669214 0.00276689
        outer loop
            vertex 0.0368683 0.0232864 0.21
            vertex 0.0340157 0.0272807 0.0100001
            vertex 0.0270045 0.0342387 0.21
        endloop
    endfacet
    facet normal 0.941876 -0.335956 -0.00174766
        outer loop
            vertex 0.0380052 -0.0213803 0.0100001
            vertex 0.0429569 -0.00749786 0.0100001
            vertex 0.0391593 -0.0191851 0.21
        endloop
    endfacet
    facet normal -0.797143 -0.60379 0.000691016
        outer loop
            vertex -0.029811 -0.031825 0.21
            vertex -0.0387102 -0.020076 0.21
            vertex -0.0336407 -0.0269978 0.0100001
        endloop
    endfacet
    facet normal -0.0739865 0.0607197 0.995409
        outer loop
            vertex -0.02095 -0.00471397 0.224893
            vertex -0.0123074 0.0204563 0.224
            vertex -0.0224692 0.00807424 0.224
        endloop
    endfacet
    facet normal 0.776156 -0.63054 -0.000693292
        outer loop
            vertex 0.0287118 -0.0328199 0.0100001
            vertex 0.0380052 -0.0213803 0.0100001
            vertex 0.0327038 -0.0281259 0.21
        endloop
    endfacet
    facet normal 0.528965 -0.539433 0.655139
        outer loop
            vertex 0.02483 -0.0358469 0.21
            vertex 0.0327038 -0.0281259 0.21
            vertex 0.0203806 -0.028065 0.22
        endloop
    endfacet
    facet normal -0.966972 0.25488 -0.000748408
        outer loop
            vertex -0.0396812 0.0180807 0.0100001
            vertex -0.0424921 0.0074166 0.0100001
            vertex -0.0413645 0.0122818 0.21
        endloop
    endfacet
    facet normal 0.685801 0.245281 0.685211
        outer loop
            vertex 0.035781 0.000579865 0.22
            vertex 0.0425199 0.0096738 0.21
            vertex 0.0297407 0.0174684 0.22
        endloop
    endfacet
    facet normal 0.00122557 0.00532671 -0.999985
        outer loop
            vertex -0.0135371 0.0331251 -4.23533e-005
            vertex 0.00636499 0.0343823 -1.12646e-005
            vertex 0.0241479 0.0262475 -3.28024e-005
        endloop
    endfacet
    facet normal 0.253348 0.216111 0.942927
        outer loop
            vertex 0.0188764 0.0302047 0.22
            vertex 0.0123829 0.0203644 0.224
            vertex 0.0297407 0.0174684 0.22
        endloop
    endfacet
    facet normal 0.000633498 0.000459389 1
        outer loop
            vertex -0.02095 -0.00471397 0.224893
            vertex 0.0179137 -0.0103978 0.224871
            vertex 8.80202e-005 0.0207037 0.224868
        endloop
    endfacet
    facet normal -0.000227503 -0.00542773 0.999985
        outer loop
            vertex 0.00850073 -0.0206881 0.224813
            vertex 0.0179137 -0.0103978 0.224871
            vertex -0.02095 -0.00471397 0.224893
        endloop
    endfacet
    facet normal -0.47385 0.547753 -0.689516
        outer loop
            vertex -0.0135371 0.0331251 -4.23533e-005
            vertex -0.0311493 0.017889 -4.24591e-005
            vertex -0.0258249 0.0351367 0.0100001
        endloop
    endfacet
    facet normal 0.517136 0.855902 -0.00154423
        outer loop
            vertex 0.0270045 0.0342387 0.21
            vertex 0.025661 0.0346896 0.0100001
            vertex 0.0160799 0.0404785 0.0100001
        endloop
    endfacet
    facet normal 7.44182e-005 -0.00125468 -0.999999
        outer loop
            vertex 0.0351623 0.00639752 -4.6651e-005
            vertex 0.019392 -0.0285039 -4.03455e-006
            vertex -0.0353611 -0.00524852 -3.72872e-005
        endloop
    endfacet
    facet normal -0.304876 -0.695574 0.65056
        outer loop
            vertex -0.0105044 -0.0423223 0.21
            vertex -0.00984811 -0.0303362 0.223123
            vertex -0.0206046 -0.0378953 0.21
        endloop
    endfacet
    facet normal 0.301814 -0.673667 0.674597
        outer loop
            vertex 0.01147 -0.0420709 0.21
            vertex 0.0203806 -0.028065 0.22
            vertex 0.00573159 -0.034628 0.22
        endloop
    endfacet
    facet normal 0.281265 -0.706052 -0.649908
        outer loop
            vertex 0.00266672 -0.0359462 -5.46836e-005
            vertex 0.0193044 -0.0385736 0.0100001
            vertex 0.00905898 -0.042655 0.0100001
        endloop
    endfacet
    facet normal -0.0672322 -0.73502 0.674704
        outer loop
            vertex -0.0105044 -0.0423223 0.21
            vertex 0.00573159 -0.034628 0.22
            vertex -0.00984811 -0.0303362 0.223123
        endloop
    endfacet
    facet normal -0.722363 0.131342 -0.678926
        outer loop
            vertex -0.0311493 0.017889 -4.24591e-005
            vertex -0.0353611 -0.00524852 -3.72872e-005
            vertex -0.0424921 0.0074166 0.0100001
        endloop
    endfacet
    facet normal -0.980051 0.198747 0.000690804
        outer loop
            vertex -0.0435837 0.00133861 0.21
            vertex -0.0413645 0.0122818 0.21
            vertex -0.0424921 0.0074166 0.0100001
        endloop
    endfacet
    facet normal -0.255399 -0.176332 0.95062
        outer loop
            vertex -0.0255276 -0.0244624 0.22
            vertex -0.00984811 -0.0303362 0.223123
            vertex -0.02095 -0.00471397 0.224893
        endloop
    endfacet
    facet normal -0.750845 -0.104897 0.652096
        outer loop
            vertex -0.0355263 0.00582973 0.22
            vertex -0.0435837 0.00133861 0.21
            vertex -0.0420598 -0.00956929 0.21
        endloop
    endfacet
    facet normal 0.299886 0.657389 -0.691309
        outer loop
            vertex 0.0241479 0.0262475 -3.28024e-005
            vertex 0.00636499 0.0343823 -1.12646e-005
            vertex 0.0160799 0.0404785 0.0100001
        endloop
    endfacet
    facet normal -0.419328 -0.635966 0.647851
        outer loop
            vertex -0.0255276 -0.0244624 0.22
            vertex -0.029811 -0.031825 0.21
            vertex -0.0206046 -0.0378953 0.21
        endloop
    endfacet
    facet normal -0.830169 -0.557509 -0.00174789
        outer loop
            vertex -0.0397889 -0.0178427 0.0100001
            vertex -0.0336407 -0.0269978 0.0100001
            vertex -0.0387102 -0.020076 0.21
        endloop
    endfacet
    facet normal -0.637784 -0.327768 0.696993
        outer loop
            vertex -0.0255276 -0.0244624 0.22
            vertex -0.03257 -0.010759 0.22
            vertex -0.0387102 -0.020076 0.21
        endloop
    endfacet
    facet normal -0.201413 -0.706075 -0.678889
        outer loop
            vertex 0.00266672 -0.0359462 -5.46836e-005
            vertex -0.00566839 -0.0432362 0.0100001
            vertex -0.0146749 -0.0310504 -1.61203e-006
        endloop
    endfacet
    facet normal -0.0448207 0.72649 -0.685714
        outer loop
            vertex -0.0135371 0.0331251 -4.23533e-005
            vertex 0.00198126 0.0435613 0.0100001
            vertex 0.00636499 0.0343823 -1.12646e-005
        endloop
    endfacet
    facet normal 0.0962107 -0.995359 0.00174712
        outer loop
            vertex 0.00905898 -0.042655 0.0100001
            vertex 0.01147 -0.0420709 0.21
            vertex 0.000493298 -0.0431319 0.21
        endloop
    endfacet
    facet normal -0.0726088 0.291602 0.95378
        outer loop
            vertex -0.00334483 0.0357713 0.22
            vertex -0.0123074 0.0204563 0.224
            vertex 8.80202e-005 0.0207037 0.224868
        endloop
    endfacet
    facet normal 0.52176 -0.853087 -0.00278463
        outer loop
            vertex 0.02483 -0.0358469 0.21
            vertex 0.0193044 -0.0385736 0.0100001
            vertex 0.0287118 -0.0328199 0.0100001
        endloop
    endfacet
    facet normal 0.24337 -0.227934 0.942771
        outer loop
            vertex 0.00850073 -0.0206881 0.224813
            vertex 0.0298936 -0.0176711 0.22002
            vertex 0.0179137 -0.0103978 0.224871
        endloop
    endfacet
    facet normal -0.826821 0.562459 -0.00263666
        outer loop
            vertex -0.0396812 0.0180807 0.0100001
            vertex -0.0372218 0.022634 0.210087
            vertex -0.0334788 0.0271983 0.0100001
        endloop
    endfacet
    facet normal -0.626566 0.348124 0.697298
        outer loop
            vertex -0.0355263 0.00582973 0.22
            vertex -0.0241691 0.0262708 0.22
            vertex -0.0372218 0.022634 0.210087
        endloop
    endfacet
    facet normal -0.151364 0.331777 0.931135
        outer loop
            vertex -0.00334483 0.0357713 0.22
            vertex -0.0241691 0.0262708 0.22
            vertex -0.0123074 0.0204563 0.224
        endloop
    endfacet
    facet normal -0.770867 0.0679245 -0.633364
        outer loop
            vertex -0.0353611 -0.00524852 -3.72872e-005
            vertex -0.04346 -0.00356799 0.0100001
            vertex -0.0424921 0.0074166 0.0100001
        endloop
    endfacet
    facet normal 0.986112 0.16606 -0.00278455
        outer loop
            vertex 0.0411585 0.0144045 0.0100001
            vertex 0.0425199 0.0096738 0.21
            vertex 0.0429898 0.00352974 0.0100001
        endloop
    endfacet
    facet normal 0.404174 0.66894 -0.623829
        outer loop
            vertex 0.0241479 0.0262475 -3.28024e-005
            vertex 0.0160799 0.0404785 0.0100001
            vertex 0.025661 0.0346896 0.0100001
        endloop
    endfacet
    facet normal -0.673165 0.457931 -0.580645
        outer loop
            vertex -0.0311493 0.017889 -4.24591e-005
            vertex -0.0396812 0.0180807 0.0100001
            vertex -0.0334788 0.0271983 0.0100001
        endloop
    endfacet
    facet normal 0.0755114 0.32209 0.943693
        outer loop
            vertex -0.00334483 0.0357713 0.22
            vertex 8.80202e-005 0.0207037 0.224868
            vertex 0.0123829 0.0203644 0.224
        endloop
    endfacet
    facet normal -0.095006 0.759979 -0.642966
        outer loop
            vertex -0.0135371 0.0331251 -4.23533e-005
            vertex -0.0126438 0.041733 0.0100001
            vertex 0.00198126 0.0435613 0.0100001
        endloop
    endfacet
    facet normal -0.497645 0.867379 0.00174599
        outer loop
            vertex -0.0258249 0.0351367 0.0100001
            vertex -0.0277807 0.033612 0.21
            vertex -0.0149962 0.0409469 0.21
        endloop
    endfacet
    facet normal -0.300251 0.658123 0.690451
        outer loop
            vertex -0.00334483 0.0357713 0.22
            vertex -0.0149962 0.0409469 0.21
            vertex -0.0241691 0.0262708 0.22
        endloop
    endfacet
    facet normal 0.157705 0.987485 0.00174683
        outer loop
            vertex 0.00198126 0.0435613 0.0100001
            vertex -0.000498911 0.0436036 0.21
            vertex 0.0140555 0.0412792 0.21
        endloop
    endfacet
    facet normal 0.535988 0.604411 -0.589411
        outer loop
            vertex 0.0241479 0.0262475 -3.28024e-005
            vertex 0.025661 0.0346896 0.0100001
            vertex 0.0340157 0.0272807 0.0100001
        endloop
    endfacet
    facet normal 0.663485 0.748184 -0.00277018
        outer loop
            vertex 0.0270045 0.0342387 0.21
            vertex 0.0340157 0.0272807 0.0100001
            vertex 0.025661 0.0346896 0.0100001
        endloop
    endfacet
    facet normal -0.124046 0.992275 -0.00174814
        outer loop
            vertex -0.0126438 0.041733 0.0100001
            vertex -0.000498911 0.0436036 0.21
            vertex 0.00198126 0.0435613 0.0100001
        endloop
    endfacet
    facet normal 0.788516 -0.0023526 -0.61501
        outer loop
            vertex 0.0351623 0.00639752 -4.6651e-005
            vertex 0.0429898 0.00352974 0.0100001
            vertex 0.0429569 -0.00749786 0.0100001
        endloop
    endfacet
    facet normal -0.990378 -0.138362 0.00278189
        outer loop
            vertex -0.04346 -0.00356799 0.0100001
            vertex -0.0420598 -0.00956929 0.21
            vertex -0.0435837 0.00133861 0.21
        endloop
    endfacet
    facet normal -0.315818 0.175471 0.932453
        outer loop
            vertex -0.0355263 0.00582973 0.22
            vertex -0.0224692 0.00807424 0.224
            vertex -0.0241691 0.0262708 0.22
        endloop
    endfacet
    facet normal -0.719508 -0.229384 0.655508
        outer loop
            vertex -0.0387102 -0.020076 0.21
            vertex -0.03257 -0.010759 0.22
            vertex -0.0420598 -0.00956929 0.21
        endloop
    endfacet
    facet normal -0.734041 0.288579 0.61474
        outer loop
            vertex -0.0355263 0.00582973 0.22
            vertex -0.0372218 0.022634 0.210087
            vertex -0.0413645 0.0122818 0.21
        endloop
    endfacet
    facet normal -0.928425 0.371508 0.00295761
        outer loop
            vertex -0.0396812 0.0180807 0.0100001
            vertex -0.0413645 0.0122818 0.21
            vertex -0.0372218 0.022634 0.210087
        endloop
    endfacet
    facet normal 0.12205 0.764224 0.633297
        outer loop
            vertex -0.00334483 0.0357713 0.22
            vertex 0.0140555 0.0412792 0.21
            vertex -0.000498911 0.0436036 0.21
        endloop
    endfacet
    facet normal 0.923562 0.383439 0.00278299
        outer loop
            vertex 0.0368683 0.0232864 0.21
            vertex 0.0425199 0.0096738 0.21
            vertex 0.0411585 0.0144045 0.0100001
        endloop
    endfacet
    facet normal 0.39231 0.140312 0.909068
        outer loop
            vertex 0.035781 0.000579865 0.22
            vertex 0.0297407 0.0174684 0.22
            vertex 0.0248841 0.00513172 0.224
        endloop
    endfacet
    facet normal 0.383484 0.705309 0.596221
        outer loop
            vertex 0.0188764 0.0302047 0.22
            vertex 0.0270045 0.0342387 0.21
            vertex 0.0140555 0.0412792 0.21
        endloop
    endfacet
    facet normal 0.311217 -0.0866106 0.946384
        outer loop
            vertex 0.035781 0.000579865 0.22
            vertex 0.0248841 0.00513172 0.224
            vertex 0.0179137 -0.0103978 0.224871
        endloop
    endfacet
    facet normal 0.396745 -0.648685 -0.649462
        outer loop
            vertex 0.0287118 -0.0328199 0.0100001
            vertex 0.0193044 -0.0385736 0.0100001
            vertex 0.019392 -0.0285039 -4.03455e-006
        endloop
    endfacet
    facet normal -0.358847 -0.0639506 0.931203
        outer loop
            vertex -0.0355263 0.00582973 0.22
            vertex -0.03257 -0.010759 0.22
            vertex -0.02095 -0.00471397 0.224893
        endloop
    endfacet
    facet normal -0.362026 0.72342 -0.587878
        outer loop
            vertex -0.0135371 0.0331251 -4.23533e-005
            vertex -0.0258249 0.0351367 0.0100001
            vertex -0.0126438 0.041733 0.0100001
        endloop
    endfacet
    facet normal -0.447525 0.89427 -0.00174886
        outer loop
            vertex -0.0258249 0.0351367 0.0100001
            vertex -0.0149962 0.0409469 0.21
            vertex -0.0126438 0.041733 0.0100001
        endloop
    endfacet
    facet normal 0.213612 0.976917 -0.0017489
        outer loop
            vertex 0.00198126 0.0435613 0.0100001
            vertex 0.0140555 0.0412792 0.21
            vertex 0.0160799 0.0404785 0.0100001
        endloop
    endfacet
    facet normal 0.17555 0.700777 0.691444
        outer loop
            vertex -0.00334483 0.0357713 0.22
            vertex 0.0188764 0.0302047 0.22
            vertex 0.0140555 0.0412792 0.21
        endloop
    endfacet
    facet normal -0.0075972 0.0022118 -0.999969
        outer loop
            vertex 0.0351623 0.00639752 -4.6651e-005
            vertex 0.0317848 -0.0161854 -7.09411e-005
            vertex 0.019392 -0.0285039 -4.03455e-006
        endloop
    endfacet
    facet normal 0.751677 -0.268114 -0.602575
        outer loop
            vertex 0.0317848 -0.0161854 -7.09411e-005
            vertex 0.0429569 -0.00749786 0.0100001
            vertex 0.0380052 -0.0213803 0.0100001
        endloop
    endfacet
    facet normal 0.709799 -0.105408 -0.696473
        outer loop
            vertex 0.0351623 0.00639752 -4.6651e-005
            vertex 0.0429569 -0.00749786 0.0100001
            vertex 0.0317848 -0.0161854 -7.09411e-005
        endloop
    endfacet
    facet normal 0.31952 -0.102039 0.94207
        outer loop
            vertex 0.035781 0.000579865 0.22
            vertex 0.0179137 -0.0103978 0.224871
            vertex 0.0298936 -0.0176711 0.22002
        endloop
    endfacet
    facet normal 0.874461 0.485089 -0.00278449
        outer loop
            vertex 0.0368683 0.0232864 0.21
            vertex 0.0411585 0.0144045 0.0100001
            vertex 0.0340157 0.0272807 0.0100001
        endloop
    endfacet
    facet normal -0.603033 0.523381 0.602016
        outer loop
            vertex -0.0241691 0.0262708 0.22
            vertex -0.0277807 0.033612 0.21
            vertex -0.0372218 0.022634 0.210087
        endloop
    endfacet
    facet normal -0.559291 0.539247 -0.629608
        outer loop
            vertex -0.0311493 0.017889 -4.24591e-005
            vertex -0.0334788 0.0271983 0.0100001
            vertex -0.0258249 0.0351367 0.0100001
        endloop
    endfacet
    facet normal -0.180253 0.983619 0.00174598
        outer loop
            vertex -0.0149962 0.0409469 0.21
            vertex -0.000498911 0.0436036 0.21
            vertex -0.0126438 0.041733 0.0100001
        endloop
    endfacet
    facet normal 0.252373 0.207118 0.945204
        outer loop
            vertex 0.0248841 0.00513172 0.224
            vertex 0.0297407 0.0174684 0.22
            vertex 0.0123829 0.0203644 0.224
        endloop
    endfacet
    facet normal 0.000236645 -0.000266606 -1
        outer loop
            vertex -0.0135371 0.0331251 -4.23533e-005
            vertex -0.0353611 -0.00524852 -3.72872e-005
            vertex -0.0311493 0.017889 -4.24591e-005
        endloop
    endfacet
    facet normal -0.0452057 -0.0883271 0.995065
        outer loop
            vertex 0.00850073 -0.0206881 0.224813
            vertex -0.02095 -0.00471397 0.224893
            vertex -0.00984811 -0.0303362 0.223123
        endloop
    endfacet
    facet normal -0.0709149 0.0596753 0.995696
        outer loop
            vertex -0.02095 -0.00471397 0.224893
            vertex 8.80202e-005 0.0207037 0.224868
            vertex -0.0123074 0.0204563 0.224
        endloop
    endfacet
    facet normal 0.55951 0.503903 0.65805
        outer loop
            vertex 0.0188764 0.0302047 0.22
            vertex 0.0368683 0.0232864 0.21
            vertex 0.0270045 0.0342387 0.21
        endloop
    endfacet
    facet normal 3.04199e-005 -0.00135827 -0.999999
        outer loop
            vertex -0.0353611 -0.00524852 -3.72872e-005
            vertex 0.019392 -0.0285039 -4.03455e-006
            vertex -0.0146749 -0.0310504 -1.61203e-006
        endloop
    endfacet
    facet normal 0.700142 -0.713998 0.0027827
        outer loop
            vertex 0.02483 -0.0358469 0.21
            vertex 0.0287118 -0.0328199 0.0100001
            vertex 0.0327038 -0.0281259 0.21
        endloop
    endfacet
    facet normal 0.621358 -0.448637 0.64237
        outer loop
            vertex 0.0391593 -0.0191851 0.21
            vertex 0.0298936 -0.0176711 0.22002
            vertex 0.0327038 -0.0281259 0.21
        endloop
    endfacet
    facet normal 0.719822 -0.211477 0.661161
        outer loop
            vertex 0.035781 0.000579865 0.22
            vertex 0.0391593 -0.0191851 0.21
            vertex 0.0433139 -0.00504378 0.21
        endloop
    endfacet
    facet normal 0.0822292 0.328249 0.941005
        outer loop
            vertex -0.00334483 0.0357713 0.22
            vertex 0.0123829 0.0203644 0.224
            vertex 0.0188764 0.0302047 0.22
        endloop
    endfacet
    facet normal 0.0546757 0.0314332 0.998009
        outer loop
            vertex 0.0248841 0.00513172 0.224
            vertex 8.80202e-005 0.0207037 0.224868
            vertex 0.0179137 -0.0103978 0.224871
        endloop
    endfacet
    facet normal -0.385476 0.671872 0.632453
        outer loop
            vertex -0.0241691 0.0262708 0.22
            vertex -0.0149962 0.0409469 0.21
            vertex -0.0277807 0.033612 0.21
        endloop
    endfacet
    facet normal 0.301638 -0.673285 -0.675057
        outer loop
            vertex 0.00266672 -0.0359462 -5.46836e-005
            vertex 0.019392 -0.0285039 -4.03455e-006
            vertex 0.0193044 -0.0385736 0.0100001
        endloop
    endfacet
    facet normal 0.0324299 -0.821758 -0.568914
        outer loop
            vertex 0.00266672 -0.0359462 -5.46836e-005
            vertex 0.00905898 -0.042655 0.0100001
            vertex -0.00566839 -0.0432362 0.0100001
        endloop
    endfacet
endsolid C:/Users/felix/Documents/Gitlab/hardware/2nd_gen_modules/link_modules/L80/I86-220/I86-220_convdec.stl_created_by_BoundingMesh