solid D:/Users/Paul Maroldt/Documents/!StartUp_Repositories/modrob-gen2/ModuleLibrary/L500-I-80-80/L500-I-80-80_convdec.stl_created_by_BoundingMesh
    facet normal 0.586701 0.470862 -0.65884
        outer loop
            vertex 0.0265144 0.0356292 0.01
            vertex 0.0381319 0.0211536 0.01
            vertex 0.030918 0.0161376 -8.86927e-006
        endloop
    endfacet
    facet normal -0.952755 -0.303737 0.00115978
        outer loop
            vertex -0.0387104 -0.0200756 0.49
            vertex -0.0431872 -0.00603287 0.49
            vertex -0.0422316 -0.0108632 0.01
        endloop
    endfacet
    facet normal -0.309552 -0.686597 0.657847
        outer loop
            vertex -0.027504 -0.0348711 0.49
            vertex -0.00724537 -0.0437508 0.490265
            vertex -0.0201808 -0.0285915 0.5
        endloop
    endfacet
    facet normal -0.778954 0.0241747 0.626615
        outer loop
            vertex -0.0346903 0.00855032 0.5
            vertex -0.04273 0.008699 0.49
            vertex -0.0431872 -0.00603287 0.49
        endloop
    endfacet
    facet normal -0.366226 -0.721072 -0.588161
        outer loop
            vertex -0.00953264 -0.0433633 0.01
            vertex -0.0260332 -0.0349828 0.01
            vertex -0.0153007 -0.032246 -3.79826e-005
        endloop
    endfacet
    facet normal -0.54825 -0.522356 -0.65312
        outer loop
            vertex -0.0316003 -0.0165865 -3.9893e-005
            vertex -0.0260332 -0.0349828 0.01
            vertex -0.0362004 -0.0243116 0.01
        endloop
    endfacet
    facet normal -0.797152 -0.603778 0.0011599
        outer loop
            vertex -0.027504 -0.0348711 0.49
            vertex -0.0387104 -0.0200756 0.49
            vertex -0.0362004 -0.0243116 0.01
        endloop
    endfacet
    facet normal 0.550646 0.476382 -0.685455
        outer loop
            vertex 0.0265144 0.0356292 0.01
            vertex 0.030918 0.0161376 -8.86927e-006
            vertex 0.0204161 0.0282751 -9.94185e-006
        endloop
    endfacet
    facet normal 0.295859 -0.308029 0.904204
        outer loop
            vertex 0.031636 -0.016604 0.5
            vertex 0.0178755 -0.0178853 0.504066
            vertex 0.0194598 -0.0282991 0.5
        endloop
    endfacet
    facet normal -0.255928 -0.220544 0.941202
        outer loop
            vertex -0.00762559 -0.025045 0.504245
            vertex -0.0328816 -0.013853 0.5
            vertex -0.0201808 -0.0285915 0.5
        endloop
    endfacet
    facet normal -0.252654 -0.666193 0.701679
        outer loop
            vertex -0.00724537 -0.0437508 0.490265
            vertex 0.00144739 -0.036794 0.5
            vertex -0.0201808 -0.0285915 0.5
        endloop
    endfacet
    facet normal -0.646408 0.437175 -0.625328
        outer loop
            vertex -0.0244888 0.0261853 -3.83257e-005
            vertex -0.0396821 0.0180791 0.01
            vertex -0.0312419 0.0304874 0.00995008
        endloop
    endfacet
    facet normal 0.63948 0.335625 0.691679
        outer loop
            vertex 0.0247553 0.0257573 0.5
            vertex 0.0352657 0.00573141 0.5
            vertex 0.0368686 0.023286 0.49
        endloop
    endfacet
    facet normal -0.74397 0.289115 0.602429
        outer loop
            vertex -0.036007 0.0259991 0.49
            vertex -0.04273 0.008699 0.49
            vertex -0.0346903 0.00855032 0.5
        endloop
    endfacet
    facet normal 0.00800497 0.00683789 -0.999945
        outer loop
            vertex -0.0003377 0.0369075 -0.000117054
            vertex 0.0204161 0.0282751 -9.94185e-006
            vertex 0.030918 0.0161376 -8.86927e-006
        endloop
    endfacet
    facet normal 0.157718 0.98748 0.00294065
        outer loop
            vertex 0.00578544 0.0440297 0.00988719
            vertex -0.000498407 0.0436036 0.49
            vertex 0.014056 0.041279 0.49
        endloop
    endfacet
    facet normal 0.01045 -0.00221724 0.999943
        outer loop
            vertex 0.0124238 0.0231656 0.504214
            vertex 0.0178755 -0.0178853 0.504066
            vertex 0.0240845 0.00237306 0.504046
        endloop
    endfacet
    facet normal -0.0034986 -0.000556014 -0.999994
        outer loop
            vertex 0.0102204 -0.0352556 -0.000125598
            vertex -0.0153007 -0.032246 -3.79826e-005
            vertex -0.0244888 0.0261853 -3.83257e-005
        endloop
    endfacet
    facet normal -0.996643 -0.0818628 -0.00116035
        outer loop
            vertex -0.0434382 0.00382661 0.01
            vertex -0.0422316 -0.0108632 0.01
            vertex -0.0431872 -0.00603287 0.49
        endloop
    endfacet
    facet normal -0.766279 -0.062941 -0.639418
        outer loop
            vertex -0.0351584 0.00571205 -0.00010811
            vertex -0.0422316 -0.0108632 0.01
            vertex -0.0434382 0.00382661 0.01
        endloop
    endfacet
    facet normal -0.577774 -0.0466457 0.814863
        outer loop
            vertex -0.0279412 -5.1204e-005 0.504293
            vertex -0.0346903 0.00855032 0.5
            vertex -0.0328816 -0.013853 0.5
        endloop
    endfacet
    facet normal 0.37559 0.926785 -0.00116021
        outer loop
            vertex 0.00578544 0.0440297 0.00988719
            vertex 0.014056 0.041279 0.49
            vertex 0.0265144 0.0356292 0.01
        endloop
    endfacet
    facet normal -0.51697 0.625489 0.584385
        outer loop
            vertex -0.036007 0.0259991 0.49
            vertex -0.0225106 0.0278111 0.5
            vertex -0.0187547 0.0402582 0.49
        endloop
    endfacet
    facet normal -0.13153 0.35327 0.926229
        outer loop
            vertex 0.0015759 0.036779 0.5
            vertex -0.0225106 0.0278111 0.5
            vertex -0.0114009 0.0213315 0.504049
        endloop
    endfacet
    facet normal 0.999995 -0.00295137 -0.000727634
        outer loop
            vertex 0.0429573 -0.00749638 0.01
            vertex 0.0430008 0.00724253 0.01
            vertex 0.0433138 -0.00504428 0.49
        endloop
    endfacet
    facet normal 0.959448 -0.281885 0.000727423
        outer loop
            vertex 0.0429573 -0.00749638 0.01
            vertex 0.0433138 -0.00504428 0.49
            vertex 0.0391591 -0.0191856 0.49
        endloop
    endfacet
    facet normal 0.700615 0.172672 -0.692332
        outer loop
            vertex 0.0355687 -0.00287408 -4.41637e-005
            vertex 0.030918 0.0161376 -8.86927e-006
            vertex 0.0430008 0.00724253 0.01
        endloop
    endfacet
    facet normal 0.720638 0.252225 -0.645804
        outer loop
            vertex 0.0381319 0.0211536 0.01
            vertex 0.0430008 0.00724253 0.01
            vertex 0.030918 0.0161376 -8.86927e-006
        endloop
    endfacet
    facet normal 0.59882 0.539296 0.592093
        outer loop
            vertex 0.0247553 0.0257573 0.5
            vertex 0.0368686 0.023286 0.49
            vertex 0.0270049 0.0342384 0.49
        endloop
    endfacet
    facet normal 0.289296 0.68725 -0.66633
        outer loop
            vertex 0.00578544 0.0440297 0.00988719
            vertex 0.0204161 0.0282751 -9.94185e-006
            vertex -0.0003377 0.0369075 -0.000117054
        endloop
    endfacet
    facet normal 0.289792 -0.0878791 0.953047
        outer loop
            vertex 0.031636 -0.016604 0.5
            vertex 0.0240845 0.00237306 0.504046
            vertex 0.0178755 -0.0178853 0.504066
        endloop
    endfacet
    facet normal 0.312527 0.657265 0.685806
        outer loop
            vertex 0.0015759 0.036779 0.5
            vertex 0.0247553 0.0257573 0.5
            vertex 0.014056 0.041279 0.49
        endloop
    endfacet
    facet normal -0.714273 -0.116085 -0.690173
        outer loop
            vertex -0.0351584 0.00571205 -0.00010811
            vertex -0.0316003 -0.0165865 -3.9893e-005
            vertex -0.0422316 -0.0108632 0.01
        endloop
    endfacet
    facet normal -0.282799 0.631688 -0.721799
        outer loop
            vertex -0.0003377 0.0369075 -0.000117054
            vertex -0.0244888 0.0261853 -3.83257e-005
            vertex -0.0163679 0.0412768 0.00998737
        endloop
    endfacet
    facet normal -0.0017465 -0.00340862 -0.999993
        outer loop
            vertex -0.0003377 0.0369075 -0.000117054
            vertex 0.0355687 -0.00287408 -4.41637e-005
            vertex -0.0244888 0.0261853 -3.83257e-005
        endloop
    endfacet
    facet normal 0.430966 -0.622179 0.653576
        outer loop
            vertex 0.0151022 -0.0418221 0.49
            vertex 0.030531 -0.031135 0.49
            vertex 0.0194598 -0.0282991 0.5
        endloop
    endfacet
    facet normal -0.084003 -0.691449 -0.717525
        outer loop
            vertex -0.00953264 -0.0433633 0.01
            vertex -0.0153007 -0.032246 -3.79826e-005
            vertex 0.0102204 -0.0352556 -0.000125598
        endloop
    endfacet
    facet normal 0.668493 -0.284848 -0.687007
        outer loop
            vertex 0.0355687 -0.00287408 -4.41637e-005
            vertex 0.038006 -0.021379 0.01
            vertex 0.0278922 -0.0209597 -1.50966e-005
        endloop
    endfacet
    facet normal -0.12332 0.992367 -0.000733321
        outer loop
            vertex 0.00578544 0.0440297 0.00988719
            vertex -0.0163679 0.0412768 0.00998737
            vertex -0.000498407 0.0436036 0.49
        endloop
    endfacet
    facet normal -0.735943 -0.330048 -0.591148
        outer loop
            vertex -0.0316003 -0.0165865 -3.9893e-005
            vertex -0.0362004 -0.0243116 0.01
            vertex -0.0422316 -0.0108632 0.01
        endloop
    endfacet
    facet normal -0.505435 -0.526179 -0.683865
        outer loop
            vertex -0.0153007 -0.032246 -3.79826e-005
            vertex -0.0260332 -0.0349828 0.01
            vertex -0.0316003 -0.0165865 -3.9893e-005
        endloop
    endfacet
    facet normal -0.610277 -0.462236 0.64335
        outer loop
            vertex -0.027504 -0.0348711 0.49
            vertex -0.0328816 -0.013853 0.5
            vertex -0.0387104 -0.0200756 0.49
        endloop
    endfacet
    facet normal -0.999518 0.0310199 0.00115983
        outer loop
            vertex -0.0434382 0.00382661 0.01
            vertex -0.0431872 -0.00603287 0.49
            vertex -0.04273 0.008699 0.49
        endloop
    endfacet
    facet normal -0.452833 -0.891594 -0.00118008
        outer loop
            vertex -0.027504 -0.0348711 0.49
            vertex -0.0260332 -0.0349828 0.01
            vertex -0.00953264 -0.0433633 0.01
        endloop
    endfacet
    facet normal 0.4374 -0.535103 -0.722736
        outer loop
            vertex 0.0263035 -0.0357852 0.01
            vertex 0.0102204 -0.0352556 -0.000125598
            vertex 0.0278922 -0.0209597 -1.50966e-005
        endloop
    endfacet
    facet normal 0.207483 0.436351 0.875528
        outer loop
            vertex 0.0015759 0.036779 0.5
            vertex 0.0124238 0.0231656 0.504214
            vertex 0.0247553 0.0257573 0.5
        endloop
    endfacet
    facet normal 0.943858 0.330352 -0.000727708
        outer loop
            vertex 0.0381319 0.0211536 0.01
            vertex 0.0425201 0.00967331 0.49
            vertex 0.0430008 0.00724253 0.01
        endloop
    endfacet
    facet normal -0.826849 0.562416 -0.00294912
        outer loop
            vertex -0.036007 0.0259991 0.49
            vertex -0.0312419 0.0304874 0.00995008
            vertex -0.0396821 0.0180791 0.01
        endloop
    endfacet
    facet normal 0.645155 -0.465836 0.605617
        outer loop
            vertex 0.031636 -0.016604 0.5
            vertex 0.030531 -0.031135 0.49
            vertex 0.0391591 -0.0191856 0.49
        endloop
    endfacet
    facet normal -0.584681 0.369727 0.722115
        outer loop
            vertex -0.036007 0.0259991 0.49
            vertex -0.0346903 0.00855032 0.5
            vertex -0.0225106 0.0278111 0.5
        endloop
    endfacet
    facet normal 0.294756 0.1547 0.942967
        outer loop
            vertex 0.0247553 0.0257573 0.5
            vertex 0.0240845 0.00237306 0.504046
            vertex 0.0352657 0.00573141 0.5
        endloop
    endfacet
    facet normal 0.290115 0.155071 0.944344
        outer loop
            vertex 0.0124238 0.0231656 0.504214
            vertex 0.0240845 0.00237306 0.504046
            vertex 0.0247553 0.0257573 0.5
        endloop
    endfacet
    facet normal -0.775613 0.204405 -0.597196
        outer loop
            vertex -0.0351584 0.00571205 -0.00010811
            vertex -0.0434382 0.00382661 0.01
            vertex -0.0396821 0.0180791 0.01
        endloop
    endfacet
    facet normal 0.000131417 1.4793e-005 -1
        outer loop
            vertex -0.0244888 0.0261853 -3.83257e-005
            vertex -0.0153007 -0.032246 -3.79826e-005
            vertex -0.0316003 -0.0165865 -3.9893e-005
        endloop
    endfacet
    facet normal -0.401459 -0.915876 0.00117298
        outer loop
            vertex -0.027504 -0.0348711 0.49
            vertex -0.00953264 -0.0433633 0.01
            vertex -0.00724537 -0.0437508 0.490265
        endloop
    endfacet
    facet normal 0.00950107 -0.00154306 -0.999954
        outer loop
            vertex -0.0244888 0.0261853 -3.83257e-005
            vertex -0.0316003 -0.0165865 -3.9893e-005
            vertex -0.0351584 0.00571205 -0.00010811
        endloop
    endfacet
    facet normal -0.469843 0.649779 -0.597524
        outer loop
            vertex -0.0163679 0.0412768 0.00998737
            vertex -0.0244888 0.0261853 -3.83257e-005
            vertex -0.0312419 0.0304874 0.00995008
        endloop
    endfacet
    facet normal -0.249868 -0.204919 0.946348
        outer loop
            vertex -0.0279412 -5.1204e-005 0.504293
            vertex -0.0328816 -0.013853 0.5
            vertex -0.00762559 -0.025045 0.504245
        endloop
    endfacet
    facet normal 0.13277 0.831275 0.539772
        outer loop
            vertex 0.0015759 0.036779 0.5
            vertex 0.014056 0.041279 0.49
            vertex -0.000498407 0.0436036 0.49
        endloop
    endfacet
    facet normal -0.723996 -0.689801 -0.00205792
        outer loop
            vertex -0.027504 -0.0348711 0.49
            vertex -0.0362004 -0.0243116 0.01
            vertex -0.0260332 -0.0349828 0.01
        endloop
    endfacet
    facet normal -0.180245 0.983621 0.00119103
        outer loop
            vertex -0.0163679 0.0412768 0.00998737
            vertex -0.0187547 0.0402582 0.49
            vertex -0.000498407 0.0436036 0.49
        endloop
    endfacet
    facet normal -0.764274 -0.243649 0.597094
        outer loop
            vertex -0.0328816 -0.013853 0.5
            vertex -0.0431872 -0.00603287 0.49
            vertex -0.0387104 -0.0200756 0.49
        endloop
    endfacet
    facet normal -0.912443 -0.409203 -0.0011601
        outer loop
            vertex -0.0362004 -0.0243116 0.01
            vertex -0.0387104 -0.0200756 0.49
            vertex -0.0422316 -0.0108632 0.01
        endloop
    endfacet
    facet normal -0.717509 -0.057927 0.694137
        outer loop
            vertex -0.0328816 -0.013853 0.5
            vertex -0.0346903 0.00855032 0.5
            vertex -0.0431872 -0.00603287 0.49
        endloop
    endfacet
    facet normal 0.0327559 -0.999463 -0.000962415
        outer loop
            vertex -0.00953264 -0.0433633 0.01
            vertex 0.00878929 -0.0427628 0.00997439
            vertex -0.00724537 -0.0437508 0.490265
        endloop
    endfacet
    facet normal 0.496865 -0.517305 0.696793
        outer loop
            vertex 0.031636 -0.016604 0.5
            vertex 0.0194598 -0.0282991 0.5
            vertex 0.030531 -0.031135 0.49
        endloop
    endfacet
    facet normal 0.00374551 -0.00310778 0.999988
        outer loop
            vertex -0.0279412 -5.1204e-005 0.504293
            vertex 0.0178755 -0.0178853 0.504066
            vertex 0.0124238 0.0231656 0.504214
        endloop
    endfacet
    facet normal 0.000812044 0.00187916 -0.999998
        outer loop
            vertex 0.0102204 -0.0352556 -0.000125598
            vertex -0.0244888 0.0261853 -3.83257e-005
            vertex 0.0355687 -0.00287408 -4.41637e-005
        endloop
    endfacet
    facet normal 0.29606 -0.627759 0.719908
        outer loop
            vertex 0.0151022 -0.0418221 0.49
            vertex 0.0194598 -0.0282991 0.5
            vertex 0.00144739 -0.036794 0.5
        endloop
    endfacet
    facet normal 0.718562 -0.256278 -0.646521
        outer loop
            vertex 0.0355687 -0.00287408 -4.41637e-005
            vertex 0.0429573 -0.00749638 0.01
            vertex 0.038006 -0.021379 0.01
        endloop
    endfacet
    facet normal 0.709476 -0.115296 0.695234
        outer loop
            vertex 0.031636 -0.016604 0.5
            vertex 0.0433138 -0.00504428 0.49
            vertex 0.0352657 0.00573141 0.5
        endloop
    endfacet
    facet normal 0.00560614 0.00322781 -0.999979
        outer loop
            vertex -0.0003377 0.0369075 -0.000117054
            vertex 0.030918 0.0161376 -8.86927e-006
            vertex 0.0355687 -0.00287408 -4.41637e-005
        endloop
    endfacet
    facet normal 0.743073 0.669209 0.00117971
        outer loop
            vertex 0.0265144 0.0356292 0.01
            vertex 0.0270049 0.0342384 0.49
            vertex 0.0368686 0.023286 0.49
        endloop
    endfacet
    facet normal 0.477677 0.878533 0.00205742
        outer loop
            vertex 0.0265144 0.0356292 0.01
            vertex 0.014056 0.041279 0.49
            vertex 0.0270049 0.0342384 0.49
        endloop
    endfacet
    facet normal 0.805005 -0.00237588 -0.593264
        outer loop
            vertex 0.0355687 -0.00287408 -4.41637e-005
            vertex 0.0430008 0.00724253 0.01
            vertex 0.0429573 -0.00749638 0.01
        endloop
    endfacet
    facet normal -0.637072 0.770803 0.000882999
        outer loop
            vertex -0.036007 0.0259991 0.49
            vertex -0.0187547 0.0402582 0.49
            vertex -0.0312419 0.0304874 0.00995008
        endloop
    endfacet
    facet normal 0.280788 0.683825 -0.673455
        outer loop
            vertex 0.00578544 0.0440297 0.00988719
            vertex 0.0265144 0.0356292 0.01
            vertex 0.0204161 0.0282751 -9.94185e-006
        endloop
    endfacet
    facet normal 0.0115019 -0.00648906 -0.999913
        outer loop
            vertex 0.0102204 -0.0352556 -0.000125598
            vertex 0.0355687 -0.00287408 -4.41637e-005
            vertex 0.0278922 -0.0209597 -1.50966e-005
        endloop
    endfacet
    facet normal -0.966983 0.254838 -0.00116011
        outer loop
            vertex -0.0396821 0.0180791 0.01
            vertex -0.0434382 0.00382661 0.01
            vertex -0.04273 0.008699 0.49
        endloop
    endfacet
    facet normal 0.0852388 -0.279692 0.956298
        outer loop
            vertex 0.00144739 -0.036794 0.5
            vertex 0.0178755 -0.0178853 0.504066
            vertex -0.00762559 -0.025045 0.504245
        endloop
    endfacet
    facet normal 0.370108 -0.928984 -0.00304685
        outer loop
            vertex 0.0151022 -0.0418221 0.49
            vertex 0.00878929 -0.0427628 0.00997439
            vertex 0.0263035 -0.0357852 0.01
        endloop
    endfacet
    facet normal -0.58717 0.809463 -0.00120192
        outer loop
            vertex -0.0163679 0.0412768 0.00998737
            vertex -0.0312419 0.0304874 0.00995008
            vertex -0.0187547 0.0402582 0.49
        endloop
    endfacet
    facet normal 0.998549 0.0538506 0.000727299
        outer loop
            vertex 0.0430008 0.00724253 0.01
            vertex 0.0425201 0.00967331 0.49
            vertex 0.0433138 -0.00504428 0.49
        endloop
    endfacet
    facet normal -0.00829604 0.0178272 0.999807
        outer loop
            vertex -0.0279412 -5.1204e-005 0.504293
            vertex 0.0124238 0.0231656 0.504214
            vertex -0.0114009 0.0213315 0.504049
        endloop
    endfacet
    facet normal 0.800521 0.0431712 0.597748
        outer loop
            vertex 0.0352657 0.00573141 0.5
            vertex 0.0433138 -0.00504428 0.49
            vertex 0.0425201 0.00967331 0.49
        endloop
    endfacet
    facet normal -0.637201 0.334443 -0.694351
        outer loop
            vertex -0.0244888 0.0261853 -3.83257e-005
            vertex -0.0351584 0.00571205 -0.00010811
            vertex -0.0396821 0.0180791 0.01
        endloop
    endfacet
    facet normal -0.325122 0.205593 0.923053
        outer loop
            vertex -0.0279412 -5.1204e-005 0.504293
            vertex -0.0225106 0.0278111 0.5
            vertex -0.0346903 0.00855032 0.5
        endloop
    endfacet
    facet normal -0.242393 0.651032 0.719307
        outer loop
            vertex 0.0015759 0.036779 0.5
            vertex -0.0187547 0.0402582 0.49
            vertex -0.0225106 0.0278111 0.5
        endloop
    endfacet
    facet normal -0.106754 0.839698 -0.532457
        outer loop
            vertex 0.00578544 0.0440297 0.00988719
            vertex -0.0003377 0.0369075 -0.000117054
            vertex -0.0163679 0.0412768 0.00998737
        endloop
    endfacet
    facet normal 0.941887 -0.335928 -0.000727637
        outer loop
            vertex 0.038006 -0.021379 0.01
            vertex 0.0429573 -0.00749638 0.01
            vertex 0.0391591 -0.0191856 0.49
        endloop
    endfacet
    facet normal -0.147061 0.802531 0.578201
        outer loop
            vertex 0.0015759 0.036779 0.5
            vertex -0.000498407 0.0436036 0.49
            vertex -0.0187547 0.0402582 0.49
        endloop
    endfacet
    facet normal 0.56941 -0.822048 0.00294897
        outer loop
            vertex 0.0151022 -0.0418221 0.49
            vertex 0.0263035 -0.0357852 0.01
            vertex 0.030531 -0.031135 0.49
        endloop
    endfacet
    facet normal 0.0790718 -0.84311 0.531896
        outer loop
            vertex 0.0151022 -0.0418221 0.49
            vertex 0.00144739 -0.036794 0.5
            vertex -0.00724537 -0.0437508 0.490265
        endloop
    endfacet
    facet normal 0.776181 -0.63051 -0.000727723
        outer loop
            vertex 0.0263035 -0.0357852 0.01
            vertex 0.038006 -0.021379 0.01
            vertex 0.030531 -0.031135 0.49
        endloop
    endfacet
    facet normal 0.0859948 -0.996295 0.000821499
        outer loop
            vertex 0.0151022 -0.0418221 0.49
            vertex -0.00724537 -0.0437508 0.490265
            vertex 0.00878929 -0.0427628 0.00997439
        endloop
    endfacet
    facet normal 0.0255221 -0.804045 -0.594021
        outer loop
            vertex -0.00953264 -0.0433633 0.01
            vertex 0.0102204 -0.0352556 -0.000125598
            vertex 0.00878929 -0.0427628 0.00997439
        endloop
    endfacet
    facet normal 0.159369 -0.337922 0.927583
        outer loop
            vertex 0.00144739 -0.036794 0.5
            vertex 0.0194598 -0.0282991 0.5
            vertex 0.0178755 -0.0178853 0.504066
        endloop
    endfacet
    facet normal 0.00615408 0.00308011 0.999976
        outer loop
            vertex -0.0279412 -5.1204e-005 0.504293
            vertex -0.00762559 -0.025045 0.504245
            vertex 0.0178755 -0.0178853 0.504066
        endloop
    endfacet
    facet normal 0.779895 0.62591 -0.000728017
        outer loop
            vertex 0.0265144 0.0356292 0.01
            vertex 0.0368686 0.023286 0.49
            vertex 0.0381319 0.0211536 0.01
        endloop
    endfacet
    facet normal 0.713767 0.29633 0.634606
        outer loop
            vertex 0.0352657 0.00573141 0.5
            vertex 0.0425201 0.00967331 0.49
            vertex 0.0368686 0.023286 0.49
        endloop
    endfacet
    facet normal -0.932092 0.362221 0.00115989
        outer loop
            vertex -0.036007 0.0259991 0.49
            vertex -0.0396821 0.0180791 0.01
            vertex -0.04273 0.008699 0.49
        endloop
    endfacet
    facet normal 0.363503 0.668547 0.648776
        outer loop
            vertex 0.0247553 0.0257573 0.5
            vertex 0.0270049 0.0342384 0.49
            vertex 0.014056 0.041279 0.49
        endloop
    endfacet
    facet normal -0.170044 -0.448369 0.877525
        outer loop
            vertex 0.00144739 -0.036794 0.5
            vertex -0.00762559 -0.025045 0.504245
            vertex -0.0201808 -0.0285915 0.5
        endloop
    endfacet
    facet normal 0.603075 -0.489892 -0.629529
        outer loop
            vertex 0.0263035 -0.0357852 0.01
            vertex 0.0278922 -0.0209597 -1.50966e-005
            vertex 0.038006 -0.021379 0.01
        endloop
    endfacet
    facet normal -0.234912 0.192586 0.952747
        outer loop
            vertex -0.0279412 -5.1204e-005 0.504293
            vertex -0.0114009 0.0213315 0.504049
            vertex -0.0225106 0.0278111 0.5
        endloop
    endfacet
    facet normal 0.312732 -0.783003 -0.537685
        outer loop
            vertex 0.0263035 -0.0357852 0.01
            vertex 0.00878929 -0.0427628 0.00997439
            vertex 0.0102204 -0.0352556 -0.000125598
        endloop
    endfacet
    facet normal -0.545196 -0.469818 0.694286
        outer loop
            vertex -0.027504 -0.0348711 0.49
            vertex -0.0201808 -0.0285915 0.5
            vertex -0.0328816 -0.013853 0.5
        endloop
    endfacet
    facet normal 0.354976 -0.0576866 0.933094
        outer loop
            vertex 0.031636 -0.016604 0.5
            vertex 0.0352657 0.00573141 0.5
            vertex 0.0240845 0.00237306 0.504046
        endloop
    endfacet
    facet normal 0.923569 0.383433 0.000727322
        outer loop
            vertex 0.0381319 0.0211536 0.01
            vertex 0.0368686 0.023286 0.49
            vertex 0.0425201 0.00967331 0.49
        endloop
    endfacet
    facet normal -0.0278461 0.275274 0.960962
        outer loop
            vertex 0.0015759 0.036779 0.5
            vertex -0.0114009 0.0213315 0.504049
            vertex 0.0124238 0.0231656 0.504214
        endloop
    endfacet
    facet normal 0.810744 -0.5854 0.000727389
        outer loop
            vertex 0.038006 -0.021379 0.01
            vertex 0.0391591 -0.0191856 0.49
            vertex 0.030531 -0.031135 0.49
        endloop
    endfacet
    facet normal 0.751187 -0.220698 0.622102
        outer loop
            vertex 0.031636 -0.016604 0.5
            vertex 0.0391591 -0.0191856 0.49
            vertex 0.0433138 -0.00504428 0.49
        endloop
    endfacet
endsolid D:/Users/Paul Maroldt/Documents/!StartUp_Repositories/modrob-gen2/ModuleLibrary/L500-I-80-80/L500-I-80-80_convdec.stl_created_by_BoundingMesh