solid D:/Users/Paul Maroldt/Documents/!StartUp_Repositories/modrob-gen2/ModuleLibrary/L500-L-110-110/L500-L-110-110_convdec.stl_created_by_BoundingMesh
    facet normal 0.708248 0.665637 0.235183
        outer loop
            vertex 0.49 0.0496119 0.101529
            vertex 0.5 0.0419083 0.0932177
            vertex 0.49 0.0579477 0.0779362
        endloop
    endfacet
    facet normal -0.00330778 0.224639 0.974436
        outer loop
            vertex 0.49 0.0076094 0.127394
            vertex 0.0417532 0.0170198 0.123703
            vertex 0.0402908 0.00663097 0.126093
        endloop
    endfacet
    facet normal -0.00289437 0.742768 0.669542
        outer loop
            vertex 0.49 0.0496119 0.101529
            vertex 0.0321627 0.046848 0.102616
            vertex 0.0440045 0.0371192 0.11346
        endloop
    endfacet
    facet normal 0.70893 0.206518 -0.674366
        outer loop
            vertex 0.49 0.00502656 0.00893522
            vertex 0.49 0.0290341 0.0162873
            vertex 0.5 0.0122204 0.0216508
        endloop
    endfacet
    facet normal 0.00157371 0.660708 0.750641
        outer loop
            vertex 0.49 0.0496119 0.101529
            vertex 0.0440045 0.0371192 0.11346
            vertex 0.49 0.0308285 0.118062
        endloop
    endfacet
    facet normal -0.00154804 -0.0300342 -0.999548
        outer loop
            vertex -0.0176026 0.0470313 -0.00094656
            vertex 0.0535059 0.01398 -6.35698e-005
            vertex -0.0464505 0.0187311 -5.15233e-005
        endloop
    endfacet
    facet normal -0.485978 -0.779991 0.394257
        outer loop
            vertex -0.0245054 -0.042502 0.0719623
            vertex -0.0111195 -0.0540651 0.0655861
            vertex -0.0131917 -0.0460804 0.0788286
        endloop
    endfacet
    facet normal -0.376644 0.840432 0.389633
        outer loop
            vertex -0.0089917 0.0578812 0.0592378
            vertex -0.00817595 0.0475249 0.0823647
            vertex 0.00751593 0.0580992 0.0747249
        endloop
    endfacet
    facet normal 0.777357 -0.57545 -0.254115
        outer loop
            vertex 0.5 -0.05012 0.0665513
            vertex 0.49 -0.0535743 0.0437829
            vertex 0.5 -0.0376518 0.0383167
        endloop
    endfacet
    facet normal 0.69235 -0.324861 -0.644295
        outer loop
            vertex 0.49 -0.0395611 0.0230501
            vertex 0.49 -0.0172169 0.0117839
            vertex 0.5 -0.0154737 0.0216508
        endloop
    endfacet
    facet normal 0.983333 -0.17 0.0644734
        outer loop
            vertex 0.5 -0.05012 0.0665513
            vertex 0.504693 -0.0253263 0.0603499
            vertex 0.5 -0.0392857 0.0951186
        endloop
    endfacet
    facet normal -0.325154 0.460605 0.825904
        outer loop
            vertex 0.0308913 0.0331734 0.115337
            vertex 0.00351659 0.030555 0.10602
            vertex 0.022022 0.0229747 0.117533
        endloop
    endfacet
    facet normal 0.000590359 -0.372921 0.927863
        outer loop
            vertex 0.49 -0.0331943 0.117112
            vertex 0.49 -0.0147202 0.124537
            vertex 0.0476623 -0.0209067 0.122332
        endloop
    endfacet
    facet normal 0.967285 0.0204117 0.252869
        outer loop
            vertex 0.50552 -0.000229363 0.0934035
            vertex 0.5 0.019044 0.112963
            vertex 0.5 -0.0159533 0.115788
        endloop
    endfacet
    facet normal 0.977706 0.192085 -0.0848234
        outer loop
            vertex 0.5 0.0361061 0.0348163
            vertex 0.5 0.048643 0.0632065
            vertex 0.504215 0.0271965 0.0632239
        endloop
    endfacet
    facet normal 0.999477 0.0179692 -0.0268884
        outer loop
            vertex 0.50552 -0.000229363 0.0934035
            vertex 0.504074 0.00306009 0.0418517
            vertex 0.504215 0.0271965 0.0632239
        endloop
    endfacet
    facet normal 0.0489985 -0.449679 -0.891845
        outer loop
            vertex 0.49 -0.0395611 0.0230501
            vertex -0.00400273 -0.0461275 -0.00077986
            vertex 0.49 -0.0172169 0.0117839
        endloop
    endfacet
    facet normal 0.672224 -0.71646 -0.186547
        outer loop
            vertex 0.5 -0.05012 0.0665513
            vertex 0.49 -0.0592247 0.0654841
            vertex 0.49 -0.0535743 0.0437829
        endloop
    endfacet
    facet normal -0.864016 0.137077 0.484444
        outer loop
            vertex -0.0509886 0.00280822 0.0553764
            vertex -0.035803 0.00475682 0.0819089
            vertex -0.0421841 0.0200438 0.0662025
        endloop
    endfacet
    facet normal -0.868069 0.066883 0.491918
        outer loop
            vertex -0.0509886 0.00280822 0.0553764
            vertex -0.0425208 -0.00579851 0.0714894
            vertex -0.035803 0.00475682 0.0819089
        endloop
    endfacet
    facet normal -0.82595 0.426469 0.368688
        outer loop
            vertex -0.0356013 0.0361129 0.0623621
            vertex -0.0470995 0.0298926 0.0437985
            vertex -0.0421841 0.0200438 0.0662025
        endloop
    endfacet
    facet normal 0.0001588 0.942878 0.333137
        outer loop
            vertex 0.49 0.0496119 0.101529
            vertex 0.49 0.0579477 0.0779362
            vertex 0.0128062 0.0560593 0.0835084
        endloop
    endfacet
    facet normal -0.415011 0.899704 0.135273
        outer loop
            vertex -0.0197139 0.0529255 0.0593031
            vertex -0.0089917 0.0578812 0.0592378
            vertex -0.0267916 0.0529597 0.0373617
        endloop
    endfacet
    facet normal 0.000314 1 -0
        outer loop
            vertex 0.49 0.0579477 0.0502534
            vertex 0.00751593 0.0580992 0.0747249
            vertex 0.49 0.0579477 0.0779362
        endloop
    endfacet
    facet normal 0.808619 0.538193 -0.237662
        outer loop
            vertex 0.49 0.0579477 0.0502534
            vertex 0.5 0.048643 0.0632065
            vertex 0.5 0.0361061 0.0348163
        endloop
    endfacet
    facet normal 0.982858 -0.110755 -0.147387
        outer loop
            vertex 0.504693 -0.0253263 0.0603499
            vertex 0.5 -0.0376518 0.0383167
            vertex 0.5 -0.0154737 0.0216508
        endloop
    endfacet
    facet normal 0.766831 -0.600138 0.227606
        outer loop
            vertex 0.5 -0.05012 0.0665513
            vertex 0.5 -0.0392857 0.0951186
            vertex 0.49 -0.0558601 0.0851073
        endloop
    endfacet
    facet normal 0.042806 0.292549 -0.955292
        outer loop
            vertex -0.0176026 0.0470313 -0.00094656
            vertex 0.49 0.0290341 0.0162873
            vertex 0.49 0.00502656 0.00893522
        endloop
    endfacet
    facet normal 0.788339 0.296987 -0.538814
        outer loop
            vertex 0.5 0.0361061 0.0348163
            vertex 0.5 0.0122204 0.0216508
            vertex 0.49 0.0290341 0.0162873
        endloop
    endfacet
    facet normal 0.979997 -0.131965 0.148967
        outer loop
            vertex 0.50552 -0.000229363 0.0934035
            vertex 0.5 -0.0159533 0.115788
            vertex 0.5 -0.0392857 0.0951186
        endloop
    endfacet
    facet normal -0.00123592 -0.42836 0.903607
        outer loop
            vertex 0.0397823 -0.0305495 0.11775
            vertex 0.49 -0.0331943 0.117112
            vertex 0.0476623 -0.0209067 0.122332
        endloop
    endfacet
    facet normal 0.686888 0.602126 -0.406975
        outer loop
            vertex 0.49 0.0579477 0.0502534
            vertex 0.5 0.0361061 0.0348163
            vertex 0.49 0.0438545 0.0294023
        endloop
    endfacet
    facet normal -0.564239 0.695337 0.44513
        outer loop
            vertex -0.0197139 0.0529255 0.0593031
            vertex -0.0214259 0.0377282 0.0808727
            vertex -0.00817595 0.0475249 0.0823647
        endloop
    endfacet
    facet normal -0.625713 -0.288408 0.724778
        outer loop
            vertex -0.0179011 -0.00556183 0.101304
            vertex -0.0284805 -0.0190476 0.0868043
            vertex -0.00731597 -0.0226739 0.103633
        endloop
    endfacet
    facet normal -0.324122 -0.800195 0.504612
        outer loop
            vertex 0.0208284 -0.0540644 0.0909004
            vertex 0.00756446 -0.0466049 0.0942097
            vertex 0.00811877 -0.0580654 0.0763921
        endloop
    endfacet
    facet normal -0.808065 -0.228865 0.542819
        outer loop
            vertex -0.0307582 -0.0270536 0.0800381
            vertex -0.0284805 -0.0190476 0.0868043
            vertex -0.0425208 -0.00579851 0.0714894
        endloop
    endfacet
    facet normal -0.581442 0.118314 0.804939
        outer loop
            vertex -0.0220442 0.0152448 0.0951146
            vertex -0.0104141 -0.00388292 0.106327
            vertex -0.00156624 0.0147733 0.109976
        endloop
    endfacet
    facet normal -0.101828 0.682635 0.72363
        outer loop
            vertex 0.0308913 0.0331734 0.115337
            vertex 0.0440045 0.0371192 0.11346
            vertex 0.0321627 0.046848 0.102616
        endloop
    endfacet
    facet normal -0.487777 -0.821286 0.29591
        outer loop
            vertex -0.025947 -0.0497937 0.0529996
            vertex -0.0105965 -0.0579788 0.0555859
            vertex -0.0111195 -0.0540651 0.0655861
        endloop
    endfacet
    facet normal -0.691525 -0.722342 0.00382009
        outer loop
            vertex -0.0316533 -0.0506038 0.00999077
            vertex -0.04257 -0.0400414 0.0310615
            vertex -0.0441968 -0.0385953 0.0100158
        endloop
    endfacet
    facet normal 0.0326434 -0.126963 -0.99137
        outer loop
            vertex 0.49 0.00502656 0.00893522
            vertex 0.49 -0.0172169 0.0117839
            vertex -0.00400273 -0.0461275 -0.00077986
        endloop
    endfacet
    facet normal -0.757121 -0.10014 0.645554
        outer loop
            vertex -0.0179011 -0.00556183 0.101304
            vertex -0.035803 0.00475682 0.0819089
            vertex -0.0284805 -0.0190476 0.0868043
        endloop
    endfacet
    facet normal -0.807115 -0.589989 0.0218493
        outer loop
            vertex -0.04257 -0.0400414 0.0310615
            vertex -0.0503186 -0.0296715 0.0248424
            vertex -0.0441968 -0.0385953 0.0100158
        endloop
    endfacet
    facet normal 0.983449 0.08746 -0.158676
        outer loop
            vertex 0.5 0.0361061 0.0348163
            vertex 0.504074 0.00306009 0.0418517
            vertex 0.5 0.0122204 0.0216508
        endloop
    endfacet
    facet normal -0.458142 0.582885 -0.671082
        outer loop
            vertex -0.0176026 0.0470313 -0.00094656
            vertex -0.047669 0.0360023 0.01
            vertex -0.0273872 0.0519436 0.01
        endloop
    endfacet
    facet normal -0.99877 -0.0170368 0.0465708
        outer loop
            vertex -0.0574054 -0.00723553 0.0344421
            vertex -0.0579752 0.00759049 0.0276458
            vertex -0.0586965 0.0015571 0.00996941
        endloop
    endfacet
    facet normal 0.800397 -0.360129 -0.47924
        outer loop
            vertex 0.49 -0.0395611 0.0230501
            vertex 0.5 -0.0154737 0.0216508
            vertex 0.5 -0.0376518 0.0383167
        endloop
    endfacet
    facet normal -0.305772 -0.219139 0.926543
        outer loop
            vertex 0.0274317 -0.00700566 0.123409
            vertex 0.00814085 -0.0163699 0.114828
            vertex 0.0268551 -0.0233461 0.119354
        endloop
    endfacet
    facet normal -0.362438 0.835801 0.412403
        outer loop
            vertex 0.0128062 0.0560593 0.0835084
            vertex 0.00751593 0.0580992 0.0747249
            vertex -0.00817595 0.0475249 0.0823647
        endloop
    endfacet
    facet normal 0.64861 -0.0965958 0.754967
        outer loop
            vertex 0.5 -0.0159533 0.115788
            vertex 0.49 0.0076094 0.127394
            vertex 0.49 -0.0147202 0.124537
        endloop
    endfacet
    facet normal 0.0487747 0.661917 -0.747989
        outer loop
            vertex 0.49 0.0290341 0.0162873
            vertex -0.00781703 0.0580815 0.00953064
            vertex 0.49 0.0438545 0.0294023
        endloop
    endfacet
    facet normal 0.980264 0 -0.197693
        outer loop
            vertex 0.5 -0.0154737 0.0216508
            vertex 0.5 0.0122204 0.0216508
            vertex 0.504074 0.00306009 0.0418517
        endloop
    endfacet
    facet normal -0.00174636 0.506824 0.862048
        outer loop
            vertex 0.0440045 0.0371192 0.11346
            vertex 0.0494172 0.0245343 0.12087
            vertex 0.49 0.0308285 0.118062
        endloop
    endfacet
    facet normal 0.707404 -0.0897865 -0.701083
        outer loop
            vertex 0.49 0.00502656 0.00893522
            vertex 0.5 -0.0154737 0.0216508
            vertex 0.49 -0.0172169 0.0117839
        endloop
    endfacet
    facet normal -0.730246 -0.524449 0.437829
        outer loop
            vertex -0.0393333 -0.0378606 0.0527908
            vertex -0.0245054 -0.042502 0.0719623
            vertex -0.0307582 -0.0270536 0.0800381
        endloop
    endfacet
    facet normal 0.0261209 -0.967404 -0.251886
        outer loop
            vertex 0.49 -0.0592247 0.0654841
            vertex -0.00774505 -0.0581069 0.00957413
            vertex 0.49 -0.0535743 0.0437829
        endloop
    endfacet
    facet normal -0.803815 0.228699 0.549161
        outer loop
            vertex -0.035803 0.00475682 0.0819089
            vertex -0.0291398 0.0216381 0.0846317
            vertex -0.0421841 0.0200438 0.0662025
        endloop
    endfacet
    facet normal 0.739312 -0.613587 0.277359
        outer loop
            vertex 0.49 -0.0487105 0.100924
            vertex 0.49 -0.0558601 0.0851073
            vertex 0.5 -0.0392857 0.0951186
        endloop
    endfacet
    facet normal -0.893847 0.206677 0.397897
        outer loop
            vertex -0.0509886 0.00280822 0.0553764
            vertex -0.0421841 0.0200438 0.0662025
            vertex -0.0517942 0.0156528 0.0468949
        endloop
    endfacet
    facet normal -0.779113 -0.112851 0.616642
        outer loop
            vertex -0.035803 0.00475682 0.0819089
            vertex -0.0425208 -0.00579851 0.0714894
            vertex -0.0284805 -0.0190476 0.0868043
        endloop
    endfacet
    facet normal -0.616461 0.44698 0.648217
        outer loop
            vertex -0.0214259 0.0377282 0.0808727
            vertex -0.0291398 0.0216381 0.0846317
            vertex -0.0104004 0.032319 0.095088
        endloop
    endfacet
    facet normal -0.824732 -0.252985 0.505782
        outer loop
            vertex -0.0307582 -0.0270536 0.0800381
            vertex -0.0425208 -0.00579851 0.0714894
            vertex -0.0464502 -0.0189608 0.0584985
        endloop
    endfacet
    facet normal -0.340201 0.762682 0.550072
        outer loop
            vertex 0.0128062 0.0560593 0.0835084
            vertex -0.00817595 0.0475249 0.0823647
            vertex 0.0111628 0.0440186 0.0991866
        endloop
    endfacet
    facet normal -0.00252964 -0.619899 0.784677
        outer loop
            vertex 0.033137 -0.0441514 0.106983
            vertex 0.49 -0.0331943 0.117112
            vertex 0.0397823 -0.0305495 0.11775
        endloop
    endfacet
    facet normal -0.653999 -0.755445 0.0398562
        outer loop
            vertex -0.0297926 -0.0507025 0.0386521
            vertex -0.04257 -0.0400414 0.0310615
            vertex -0.0316533 -0.0506038 0.00999077
        endloop
    endfacet
    facet normal -0.620922 0.783781 -0.0119748
        outer loop
            vertex -0.047669 0.0360023 0.01
            vertex -0.0382719 0.0438711 0.0377708
            vertex -0.0267916 0.0529597 0.0373617
        endloop
    endfacet
    facet normal -0.313717 0.565353 0.762862
        outer loop
            vertex 0.0308913 0.0331734 0.115337
            vertex 0.0111628 0.0440186 0.0991866
            vertex 0.00351659 0.030555 0.10602
        endloop
    endfacet
    facet normal -0.717103 0.312091 -0.623187
        outer loop
            vertex -0.047669 0.0360023 0.01
            vertex -0.0464505 0.0187311 -5.15233e-005
            vertex -0.0555657 0.0182707 0.0102068
        endloop
    endfacet
    facet normal -0.00286963 -0.0106572 0.999939
        outer loop
            vertex 0.49 0.0076094 0.127394
            vertex 0.0402908 0.00663097 0.126093
            vertex 0.0442226 -0.00840775 0.125944
        endloop
    endfacet
    facet normal -0.00120445 0.973915 0.226909
        outer loop
            vertex 0.0128062 0.0560593 0.0835084
            vertex 0.49 0.0579477 0.0779362
            vertex 0.00751593 0.0580992 0.0747249
        endloop
    endfacet
    facet normal -0.204452 0.738015 0.643066
        outer loop
            vertex 0.0111628 0.0440186 0.0991866
            vertex 0.0321627 0.046848 0.102616
            vertex 0.0245552 0.052307 0.0939323
        endloop
    endfacet
    facet normal -0.897947 0.438123 0.0417125
        outer loop
            vertex -0.047669 0.0360023 0.01
            vertex -0.0552189 0.019198 0.0239753
            vertex -0.0479802 0.033487 0.02972
        endloop
    endfacet
    facet normal -0.68773 -0.078214 -0.721741
        outer loop
            vertex -0.0568473 -0.0155618 0.0100625
            vertex -0.0586965 0.0015571 0.00996941
            vertex -0.0462331 -0.0155194 -5.61083e-005
        endloop
    endfacet
    facet normal -0.51605 -0.785615 0.341323
        outer loop
            vertex -0.0245054 -0.042502 0.0719623
            vertex -0.025947 -0.0497937 0.0529996
            vertex -0.0111195 -0.0540651 0.0655861
        endloop
    endfacet
    facet normal -0.659576 -0.290816 -0.693099
        outer loop
            vertex -0.0568473 -0.0155618 0.0100625
            vertex -0.0462331 -0.0155194 -5.61083e-005
            vertex -0.0532783 -0.0235074 0.01
        endloop
    endfacet
    facet normal -0.0285088 -0.00743335 -0.999566
        outer loop
            vertex -0.0464505 0.0187311 -5.15233e-005
            vertex -0.00400273 -0.0461275 -0.00077986
            vertex -0.0276508 -0.0400649 -0.000150473
        endloop
    endfacet
    facet normal 0.608 -0.296076 0.736665
        outer loop
            vertex 0.5 -0.0159533 0.115788
            vertex 0.49 -0.0147202 0.124537
            vertex 0.49 -0.0331943 0.117112
        endloop
    endfacet
    facet normal -0.256909 0.774979 -0.577413
        outer loop
            vertex -0.0176026 0.0470313 -0.00094656
            vertex -0.0273872 0.0519436 0.01
            vertex -0.00781703 0.0580815 0.00953064
        endloop
    endfacet
    facet normal 0.681197 0.7321 -0
        outer loop
            vertex 0.49 0.0579477 0.0502534
            vertex 0.49 0.0579477 0.0779362
            vertex 0.5 0.048643 0.0632065
        endloop
    endfacet
    facet normal 0.756334 0.427574 0.495115
        outer loop
            vertex 0.5 0.0419083 0.0932177
            vertex 0.49 0.0308285 0.118062
            vertex 0.5 0.019044 0.112963
        endloop
    endfacet
    facet normal 0.676632 0.487964 -0.551416
        outer loop
            vertex 0.5 0.0361061 0.0348163
            vertex 0.49 0.0290341 0.0162873
            vertex 0.49 0.0438545 0.0294023
        endloop
    endfacet
    facet normal 0.674084 0.275458 0.685371
        outer loop
            vertex 0.49 0.0076094 0.127394
            vertex 0.5 0.019044 0.112963
            vertex 0.49 0.0308285 0.118062
        endloop
    endfacet
    facet normal -0.447194 -0.680674 0.580259
        outer loop
            vertex 0.00172873 -0.0362816 0.101822
            vertex -0.0131917 -0.0460804 0.0788286
            vertex 0.00756446 -0.0466049 0.0942097
        endloop
    endfacet
    facet normal 0.980305 0.129078 0.149467
        outer loop
            vertex 0.50552 -0.000229363 0.0934035
            vertex 0.5 0.0419083 0.0932177
            vertex 0.5 0.019044 0.112963
        endloop
    endfacet
    facet normal 0.660349 -0.740158 0.126908
        outer loop
            vertex 0.5 -0.05012 0.0665513
            vertex 0.49 -0.0558601 0.0851073
            vertex 0.49 -0.0592247 0.0654841
        endloop
    endfacet
    facet normal -0.406555 -0.809144 0.424263
        outer loop
            vertex 0.00811877 -0.0580654 0.0763921
            vertex -0.0131917 -0.0460804 0.0788286
            vertex -0.0111195 -0.0540651 0.0655861
        endloop
    endfacet
    facet normal 0.0449115 -0.661249 -0.748821
        outer loop
            vertex 0.49 -0.0395611 0.0230501
            vertex -0.00774505 -0.0581069 0.00957413
            vertex -0.00400273 -0.0461275 -0.00077986
        endloop
    endfacet
    facet normal 0.734424 -0.489966 0.469632
        outer loop
            vertex 0.49 -0.0331943 0.117112
            vertex 0.49 -0.0487105 0.100924
            vertex 0.5 -0.0392857 0.0951186
        endloop
    endfacet
    facet normal -0.383681 -0.782059 0.491093
        outer loop
            vertex 0.00811877 -0.0580654 0.0763921
            vertex 0.00756446 -0.0466049 0.0942097
            vertex -0.0131917 -0.0460804 0.0788286
        endloop
    endfacet
    facet normal 0.988234 -0.0677937 -0.137101
        outer loop
            vertex 0.504693 -0.0253263 0.0603499
            vertex 0.5 -0.0154737 0.0216508
            vertex 0.504074 0.00306009 0.0418517
        endloop
    endfacet
    facet normal -0.972283 0.233645 0.00875384
        outer loop
            vertex -0.0579752 0.00759049 0.0276458
            vertex -0.0552189 0.019198 0.0239753
            vertex -0.0555657 0.0182707 0.0102068
        endloop
    endfacet
    facet normal -0.619235 -0.396578 0.677698
        outer loop
            vertex -0.0307582 -0.0270536 0.0800381
            vertex -0.0140939 -0.0331206 0.0917145
            vertex -0.0284805 -0.0190476 0.0868043
        endloop
    endfacet
    facet normal -0.542238 -0.454466 0.70671
        outer loop
            vertex 0.00172873 -0.0362816 0.101822
            vertex -0.00731597 -0.0226739 0.103633
            vertex -0.0140939 -0.0331206 0.0917145
        endloop
    endfacet
    facet normal -0.613572 -0.387112 0.68824
        outer loop
            vertex -0.0284805 -0.0190476 0.0868043
            vertex -0.0140939 -0.0331206 0.0917145
            vertex -0.00731597 -0.0226739 0.103633
        endloop
    endfacet
    facet normal -0.86503 0.360963 0.348466
        outer loop
            vertex -0.0470995 0.0298926 0.0437985
            vertex -0.0517942 0.0156528 0.0468949
            vertex -0.0421841 0.0200438 0.0662025
        endloop
    endfacet
    facet normal 0.000296692 1 -0.000341257
        outer loop
            vertex 0.49 0.0579477 0.0502534
            vertex -0.00781703 0.0580815 0.00953064
            vertex 0.00751593 0.0580992 0.0747249
        endloop
    endfacet
    facet normal -0.212102 -0.634585 -0.743179
        outer loop
            vertex -0.0316533 -0.0506038 0.00999077
            vertex -0.0276508 -0.0400649 -0.000150473
            vertex -0.00774505 -0.0581069 0.00957413
        endloop
    endfacet
    facet normal -0.827852 -0.548714 0.11651
        outer loop
            vertex -0.0506812 -0.0265791 0.0368299
            vertex -0.0503186 -0.0296715 0.0248424
            vertex -0.04257 -0.0400414 0.0310615
        endloop
    endfacet
    facet normal -0.721756 0.465658 0.512085
        outer loop
            vertex -0.0214259 0.0377282 0.0808727
            vertex -0.0356013 0.0361129 0.0623621
            vertex -0.0291398 0.0216381 0.0846317
        endloop
    endfacet
    facet normal -0.443561 0.427228 -0.787864
        outer loop
            vertex -0.0176026 0.0470313 -0.00094656
            vertex -0.0464505 0.0187311 -5.15233e-005
            vertex -0.047669 0.0360023 0.01
        endloop
    endfacet
    facet normal -0.153164 -0.0498221 0.986944
        outer loop
            vertex 0.0402908 0.00663097 0.126093
            vertex 0.0274317 -0.00700566 0.123409
            vertex 0.0442226 -0.00840775 0.125944
        endloop
    endfacet
    facet normal 0.0459821 0.827627 -0.559391
        outer loop
            vertex 0.49 0.0579477 0.0502534
            vertex 0.49 0.0438545 0.0294023
            vertex -0.00781703 0.0580815 0.00953064
        endloop
    endfacet
    facet normal -0.34555 -0.0232382 0.938113
        outer loop
            vertex 0.0274317 -0.00700566 0.123409
            vertex 0.0182044 0.00893359 0.120405
            vertex 0.00762133 0.00135316 0.116319
        endloop
    endfacet
    facet normal 0.988675 0.129847 0.0752483
        outer loop
            vertex 0.50552 -0.000229363 0.0934035
            vertex 0.504215 0.0271965 0.0632239
            vertex 0.5 0.0419083 0.0932177
        endloop
    endfacet
    facet normal -0.0261047 0.498849 0.866296
        outer loop
            vertex 0.0308913 0.0331734 0.115337
            vertex 0.0494172 0.0245343 0.12087
            vertex 0.0440045 0.0371192 0.11346
        endloop
    endfacet
    facet normal 0.0488751 0.664088 -0.746056
        outer loop
            vertex -0.0176026 0.0470313 -0.00094656
            vertex -0.00781703 0.0580815 0.00953064
            vertex 0.49 0.0290341 0.0162873
        endloop
    endfacet
    facet normal -0.755547 0.65122 0.0711404
        outer loop
            vertex -0.047669 0.0360023 0.01
            vertex -0.0479802 0.033487 0.02972
            vertex -0.0382719 0.0438711 0.0377708
        endloop
    endfacet
    facet normal -0.994128 -0.107311 0.0138919
        outer loop
            vertex -0.0574054 -0.00723553 0.0344421
            vertex -0.0586965 0.0015571 0.00996941
            vertex -0.0568473 -0.0155618 0.0100625
        endloop
    endfacet
    facet normal -0.299644 -0.953918 -0.0159139
        outer loop
            vertex -0.0316533 -0.0506038 0.00999077
            vertex -0.00774505 -0.0581069 0.00957413
            vertex -0.0105965 -0.0579788 0.0555859
        endloop
    endfacet
    facet normal -0.370393 -0.928641 0.020848
        outer loop
            vertex -0.0297926 -0.0507025 0.0386521
            vertex -0.0316533 -0.0506038 0.00999077
            vertex -0.0105965 -0.0579788 0.0555859
        endloop
    endfacet
    facet normal -0.000402679 -0.963924 0.266177
        outer loop
            vertex 0.0208284 -0.0540644 0.0909004
            vertex 0.00811877 -0.0580654 0.0763921
            vertex 0.49 -0.0558601 0.0851073
        endloop
    endfacet
    facet normal -0.322512 -0.479596 0.816072
        outer loop
            vertex 0.00172873 -0.0362816 0.101822
            vertex 0.0223192 -0.0377473 0.109098
            vertex 0.0268551 -0.0233461 0.119354
        endloop
    endfacet
    facet normal -0.26381 0.964572 -0.00234743
        outer loop
            vertex -0.0089917 0.0578812 0.0592378
            vertex -0.00781703 0.0580815 0.00953064
            vertex -0.0267916 0.0529597 0.0373617
        endloop
    endfacet
    facet normal -0.513416 -0.204145 0.833504
        outer loop
            vertex -0.0179011 -0.00556183 0.101304
            vertex -0.00731597 -0.0226739 0.103633
            vertex -0.0104141 -0.00388292 0.106327
        endloop
    endfacet
    facet normal -0.380572 0.283515 0.880218
        outer loop
            vertex 0.022022 0.0229747 0.117533
            vertex -0.00156624 0.0147733 0.109976
            vertex 0.0182044 0.00893359 0.120405
        endloop
    endfacet
    facet normal -0.97187 -0.228792 0.0558902
        outer loop
            vertex -0.0574054 -0.00723553 0.0344421
            vertex -0.0568473 -0.0155618 0.0100625
            vertex -0.0553915 -0.0183298 0.0240462
        endloop
    endfacet
    facet normal -0.912174 -0.402641 0.0762772
        outer loop
            vertex -0.0506812 -0.0265791 0.0368299
            vertex -0.0553915 -0.0183298 0.0240462
            vertex -0.0503186 -0.0296715 0.0248424
        endloop
    endfacet
    facet normal -0.486451 -0.85401 0.18448
        outer loop
            vertex -0.0297926 -0.0507025 0.0386521
            vertex -0.0105965 -0.0579788 0.0555859
            vertex -0.025947 -0.0497937 0.0529996
        endloop
    endfacet
    facet normal -0.508229 -0.381789 -0.771972
        outer loop
            vertex -0.0276508 -0.0400649 -0.000150473
            vertex -0.0441968 -0.0385953 0.0100158
            vertex -0.0462331 -0.0155194 -5.61083e-005
        endloop
    endfacet
    facet normal -0.0895198 -0.36684 0.925967
        outer loop
            vertex 0.0397823 -0.0305495 0.11775
            vertex 0.0476623 -0.0209067 0.122332
            vertex 0.0268551 -0.0233461 0.119354
        endloop
    endfacet
    facet normal -0.454309 0.60983 0.649393
        outer loop
            vertex -0.00817595 0.0475249 0.0823647
            vertex -0.0104004 0.032319 0.095088
            vertex 0.0111628 0.0440186 0.0991866
        endloop
    endfacet
    facet normal -0.925143 -0.142404 0.351898
        outer loop
            vertex -0.0574054 -0.00723553 0.0344421
            vertex -0.0464502 -0.0189608 0.0584985
            vertex -0.0509886 0.00280822 0.0553764
        endloop
    endfacet
    facet normal -0.541477 0.364321 0.757676
        outer loop
            vertex -0.0220442 0.0152448 0.0951146
            vertex -0.00156624 0.0147733 0.109976
            vertex 0.00351659 0.030555 0.10602
        endloop
    endfacet
    facet normal -0.787923 0.583024 0.198142
        outer loop
            vertex -0.0382719 0.0438711 0.0377708
            vertex -0.0479802 0.033487 0.02972
            vertex -0.0470995 0.0298926 0.0437985
        endloop
    endfacet
    facet normal -0.0166157 0.999855 0.00363639
        outer loop
            vertex -0.0089917 0.0578812 0.0592378
            vertex 0.00751593 0.0580992 0.0747249
            vertex -0.00781703 0.0580815 0.00953064
        endloop
    endfacet
    facet normal 0.0459821 -0.827628 -0.55939
        outer loop
            vertex 0.49 -0.0395611 0.0230501
            vertex 0.49 -0.0535743 0.0437829
            vertex -0.00774505 -0.0581069 0.00957413
        endloop
    endfacet
    facet normal 0.0209864 0.018446 -0.99961
        outer loop
            vertex -0.0176026 0.0470313 -0.00094656
            vertex 0.49 0.00502656 0.00893522
            vertex 0.0535059 0.01398 -6.35698e-005
        endloop
    endfacet
    facet normal -0.757354 0.59464 0.269849
        outer loop
            vertex -0.0382719 0.0438711 0.0377708
            vertex -0.0470995 0.0298926 0.0437985
            vertex -0.0356013 0.0361129 0.0623621
        endloop
    endfacet
    facet normal -0.742552 0.148372 -0.653148
        outer loop
            vertex -0.0464505 0.0187311 -5.15233e-005
            vertex -0.0586965 0.0015571 0.00996941
            vertex -0.0555657 0.0182707 0.0102068
        endloop
    endfacet
    facet normal 0.980304 0.1927 0.043243
        outer loop
            vertex 0.5 0.0419083 0.0932177
            vertex 0.504215 0.0271965 0.0632239
            vertex 0.5 0.048643 0.0632065
        endloop
    endfacet
    facet normal -8.13318e-005 0.940867 0.338777
        outer loop
            vertex 0.49 0.0496119 0.101529
            vertex 0.0128062 0.0560593 0.0835084
            vertex 0.0245552 0.052307 0.0939323
        endloop
    endfacet
    facet normal -0.982589 0.184384 -0.0228392
        outer loop
            vertex -0.0579752 0.00759049 0.0276458
            vertex -0.0555657 0.0182707 0.0102068
            vertex -0.0586965 0.0015571 0.00996941
        endloop
    endfacet
    facet normal -0.177242 -0.611285 -0.771308
        outer loop
            vertex -0.00400273 -0.0461275 -0.00077986
            vertex -0.00774505 -0.0581069 0.00957413
            vertex -0.0276508 -0.0400649 -0.000150473
        endloop
    endfacet
    facet normal 0.786043 0 -0.618172
        outer loop
            vertex 0.49 0.00502656 0.00893522
            vertex 0.5 0.0122204 0.0216508
            vertex 0.5 -0.0154737 0.0216508
        endloop
    endfacet
    facet normal -0.939764 -0.308512 0.147185
        outer loop
            vertex -0.0574054 -0.00723553 0.0344421
            vertex -0.0553915 -0.0183298 0.0240462
            vertex -0.0506812 -0.0265791 0.0368299
        endloop
    endfacet
    facet normal -0.913109 -0.407513 0.0128402
        outer loop
            vertex -0.0553915 -0.0183298 0.0240462
            vertex -0.0532783 -0.0235074 0.01
            vertex -0.0503186 -0.0296715 0.0248424
        endloop
    endfacet
    facet normal -0.941588 0.281865 0.184293
        outer loop
            vertex -0.0579752 0.00759049 0.0276458
            vertex -0.0517942 0.0156528 0.0468949
            vertex -0.0552189 0.019198 0.0239753
        endloop
    endfacet
    facet normal -0.572109 0.127112 0.810268
        outer loop
            vertex -0.0179011 -0.00556183 0.101304
            vertex -0.0104141 -0.00388292 0.106327
            vertex -0.0220442 0.0152448 0.0951146
        endloop
    endfacet
    facet normal -0.518115 -0.20449 0.830506
        outer loop
            vertex 0.00814085 -0.0163699 0.114828
            vertex -0.0104141 -0.00388292 0.106327
            vertex -0.00731597 -0.0226739 0.103633
        endloop
    endfacet
    facet normal -0.258043 0.779117 0.571306
        outer loop
            vertex 0.0128062 0.0560593 0.0835084
            vertex 0.0111628 0.0440186 0.0991866
            vertex 0.0245552 0.052307 0.0939323
        endloop
    endfacet
    facet normal -0.449101 0.593867 0.667555
        outer loop
            vertex 0.0111628 0.0440186 0.0991866
            vertex -0.0104004 0.032319 0.095088
            vertex 0.00351659 0.030555 0.10602
        endloop
    endfacet
    facet normal 0.988466 0.0971205 -0.116204
        outer loop
            vertex 0.5 0.0361061 0.0348163
            vertex 0.504215 0.0271965 0.0632239
            vertex 0.504074 0.00306009 0.0418517
        endloop
    endfacet
    facet normal -0.799356 -0.428278 0.421435
        outer loop
            vertex -0.0393333 -0.0378606 0.0527908
            vertex -0.0307582 -0.0270536 0.0800381
            vertex -0.0464502 -0.0189608 0.0584985
        endloop
    endfacet
    facet normal -0.220152 0.248025 0.943407
        outer loop
            vertex 0.0402908 0.00663097 0.126093
            vertex 0.0417532 0.0170198 0.123703
            vertex 0.022022 0.0229747 0.117533
        endloop
    endfacet
    facet normal 0.749702 0.437241 0.496756
        outer loop
            vertex 0.49 0.0496119 0.101529
            vertex 0.49 0.0308285 0.118062
            vertex 0.5 0.0419083 0.0932177
        endloop
    endfacet
    facet normal -0.4984 0.0673141 0.86433
        outer loop
            vertex -0.0104141 -0.00388292 0.106327
            vertex 0.00762133 0.00135316 0.116319
            vertex -0.00156624 0.0147733 0.109976
        endloop
    endfacet
    facet normal -0.289595 -0.668691 0.684826
        outer loop
            vertex 0.00172873 -0.0362816 0.101822
            vertex 0.00756446 -0.0466049 0.0942097
            vertex 0.0223192 -0.0377473 0.109098
        endloop
    endfacet
    facet normal -0.00237893 -0.999996 0.00118589
        outer loop
            vertex 0.00811877 -0.0580654 0.0763921
            vertex -0.00774505 -0.0581069 0.00957413
            vertex 0.49 -0.0592247 0.0654841
        endloop
    endfacet
    facet normal -0.597119 -0.586104 0.547659
        outer loop
            vertex -0.0307582 -0.0270536 0.0800381
            vertex -0.0131917 -0.0460804 0.0788286
            vertex -0.0140939 -0.0331206 0.0917145
        endloop
    endfacet
    facet normal -0.919221 0.344511 0.190641
        outer loop
            vertex -0.0470995 0.0298926 0.0437985
            vertex -0.0552189 0.019198 0.0239753
            vertex -0.0517942 0.0156528 0.0468949
        endloop
    endfacet
    facet normal -0.504745 -0.626091 0.594342
        outer loop
            vertex 0.00172873 -0.0362816 0.101822
            vertex -0.0140939 -0.0331206 0.0917145
            vertex -0.0131917 -0.0460804 0.0788286
        endloop
    endfacet
    facet normal 0.00197278 -0.721927 0.691967
        outer loop
            vertex 0.033137 -0.0441514 0.106983
            vertex 0.49 -0.0487105 0.100924
            vertex 0.49 -0.0331943 0.117112
        endloop
    endfacet
    facet normal -0.164128 -0.232126 0.958738
        outer loop
            vertex 0.0274317 -0.00700566 0.123409
            vertex 0.0268551 -0.0233461 0.119354
            vertex 0.0442226 -0.00840775 0.125944
        endloop
    endfacet
    facet normal -0.272482 -0.683817 0.676866
        outer loop
            vertex 0.033137 -0.0441514 0.106983
            vertex 0.0223192 -0.0377473 0.109098
            vertex 0.00756446 -0.0466049 0.0942097
        endloop
    endfacet
    facet normal 0.0204541 -0.00765576 -0.999761
        outer loop
            vertex 0.49 0.00502656 0.00893522
            vertex -0.00400273 -0.0461275 -0.00077986
            vertex 0.0535059 0.01398 -6.35698e-005
        endloop
    endfacet
    facet normal -0.543775 0.372001 0.752279
        outer loop
            vertex -0.0220442 0.0152448 0.0951146
            vertex 0.00351659 0.030555 0.10602
            vertex -0.0104004 0.032319 0.095088
        endloop
    endfacet
    facet normal -0.650965 -0.72638 0.22049
        outer loop
            vertex -0.0393333 -0.0378606 0.0527908
            vertex -0.0297926 -0.0507025 0.0386521
            vertex -0.025947 -0.0497937 0.0529996
        endloop
    endfacet
    facet normal -0.553419 -0.550668 0.624894
        outer loop
            vertex -0.0307582 -0.0270536 0.0800381
            vertex -0.0245054 -0.042502 0.0719623
            vertex -0.0131917 -0.0460804 0.0788286
        endloop
    endfacet
    facet normal 0.778995 -0.415783 0.469352
        outer loop
            vertex 0.5 -0.0159533 0.115788
            vertex 0.49 -0.0331943 0.117112
            vertex 0.5 -0.0392857 0.0951186
        endloop
    endfacet
    facet normal 0.000426485 0.011508 -0.999934
        outer loop
            vertex -0.0464505 0.0187311 -5.15233e-005
            vertex 0.0535059 0.01398 -6.35698e-005
            vertex -0.00400273 -0.0461275 -0.00077986
        endloop
    endfacet
    facet normal -0.384635 0.837321 0.388522
        outer loop
            vertex -0.0197139 0.0529255 0.0593031
            vertex -0.00817595 0.0475249 0.0823647
            vertex -0.0089917 0.0578812 0.0592378
        endloop
    endfacet
    facet normal -0.912073 -0.409793 0.0138367
        outer loop
            vertex -0.0568473 -0.0155618 0.0100625
            vertex -0.0532783 -0.0235074 0.01
            vertex -0.0553915 -0.0183298 0.0240462
        endloop
    endfacet
    facet normal -0.669096 0.684805 0.288709
        outer loop
            vertex -0.0197139 0.0529255 0.0593031
            vertex -0.0382719 0.0438711 0.0377708
            vertex -0.0356013 0.0361129 0.0623621
        endloop
    endfacet
    facet normal -0.630012 -0.00389496 -0.776576
        outer loop
            vertex -0.0464505 0.0187311 -5.15233e-005
            vertex -0.0462331 -0.0155194 -5.61083e-005
            vertex -0.0586965 0.0015571 0.00996941
        endloop
    endfacet
    facet normal -0.60434 0.772204 0.196147
        outer loop
            vertex -0.0197139 0.0529255 0.0593031
            vertex -0.0267916 0.0529597 0.0373617
            vertex -0.0382719 0.0438711 0.0377708
        endloop
    endfacet
    facet normal -0.180065 0.354189 0.917675
        outer loop
            vertex 0.0308913 0.0331734 0.115337
            vertex 0.022022 0.0229747 0.117533
            vertex 0.0417532 0.0170198 0.123703
        endloop
    endfacet
    facet normal -0.000292708 0.353029 0.935612
        outer loop
            vertex 0.49 0.0076094 0.127394
            vertex 0.0494172 0.0245343 0.12087
            vertex 0.0417532 0.0170198 0.123703
        endloop
    endfacet
    facet normal -0.716062 0.0641818 0.69508
        outer loop
            vertex -0.0179011 -0.00556183 0.101304
            vertex -0.0220442 0.0152448 0.0951146
            vertex -0.035803 0.00475682 0.0819089
        endloop
    endfacet
    facet normal -0.963162 0.0805928 0.256563
        outer loop
            vertex -0.0574054 -0.00723553 0.0344421
            vertex -0.0509886 0.00280822 0.0553764
            vertex -0.0579752 0.00759049 0.0276458
        endloop
    endfacet
    facet normal 0.71169 -0.58202 -0.393384
        outer loop
            vertex 0.49 -0.0395611 0.0230501
            vertex 0.5 -0.0376518 0.0383167
            vertex 0.49 -0.0535743 0.0437829
        endloop
    endfacet
    facet normal -0.602426 -0.363348 -0.710676
        outer loop
            vertex -0.0462331 -0.0155194 -5.61083e-005
            vertex -0.0441968 -0.0385953 0.0100158
            vertex -0.0532783 -0.0235074 0.01
        endloop
    endfacet
    facet normal -0.617879 0.786115 -0.0157433
        outer loop
            vertex -0.047669 0.0360023 0.01
            vertex -0.0267916 0.0529597 0.0373617
            vertex -0.0273872 0.0519436 0.01
        endloop
    endfacet
    facet normal -0.917193 -0.284385 0.279075
        outer loop
            vertex -0.0574054 -0.00723553 0.0344421
            vertex -0.0506812 -0.0265791 0.0368299
            vertex -0.0464502 -0.0189608 0.0584985
        endloop
    endfacet
    facet normal -0.621163 0.663004 0.41783
        outer loop
            vertex -0.0197139 0.0529255 0.0593031
            vertex -0.0356013 0.0361129 0.0623621
            vertex -0.0214259 0.0377282 0.0808727
        endloop
    endfacet
    facet normal -0.216653 0.251832 0.943208
        outer loop
            vertex 0.0402908 0.00663097 0.126093
            vertex 0.022022 0.0229747 0.117533
            vertex 0.0182044 0.00893359 0.120405
        endloop
    endfacet
    facet normal -0.249544 -0.727338 0.639302
        outer loop
            vertex 0.033137 -0.0441514 0.106983
            vertex 0.00756446 -0.0466049 0.0942097
            vertex 0.0208284 -0.0540644 0.0909004
        endloop
    endfacet
    facet normal -0.612698 0.418876 0.670182
        outer loop
            vertex -0.0220442 0.0152448 0.0951146
            vertex -0.0104004 0.032319 0.095088
            vertex -0.0291398 0.0216381 0.0846317
        endloop
    endfacet
    facet normal 0.000586092 0.372919 0.927864
        outer loop
            vertex 0.49 0.0076094 0.127394
            vertex 0.49 0.0308285 0.118062
            vertex 0.0494172 0.0245343 0.12087
        endloop
    endfacet
    facet normal -0.633383 -0.70493 0.319217
        outer loop
            vertex -0.0393333 -0.0378606 0.0527908
            vertex -0.025947 -0.0497937 0.0529996
            vertex -0.0245054 -0.042502 0.0719623
        endloop
    endfacet
    facet normal -0.171914 -0.558418 0.811551
        outer loop
            vertex 0.033137 -0.0441514 0.106983
            vertex 0.0397823 -0.0305495 0.11775
            vertex 0.0223192 -0.0377473 0.109098
        endloop
    endfacet
    facet normal 0.00145422 -0.985616 0.168994
        outer loop
            vertex 0.00811877 -0.0580654 0.0763921
            vertex 0.49 -0.0592247 0.0654841
            vertex 0.49 -0.0558601 0.0851073
        endloop
    endfacet
    facet normal -0.853796 -0.416024 0.312979
        outer loop
            vertex -0.0393333 -0.0378606 0.0527908
            vertex -0.0464502 -0.0189608 0.0584985
            vertex -0.0506812 -0.0265791 0.0368299
        endloop
    endfacet
    facet normal -0.000902549 -0.277854 0.960623
        outer loop
            vertex 0.0442226 -0.00840775 0.125944
            vertex 0.0476623 -0.0209067 0.122332
            vertex 0.49 -0.0147202 0.124537
        endloop
    endfacet
    facet normal -0.368585 -0.0886527 0.925357
        outer loop
            vertex 0.0274317 -0.00700566 0.123409
            vertex 0.00762133 0.00135316 0.116319
            vertex 0.00814085 -0.0163699 0.114828
        endloop
    endfacet
    facet normal -0.299768 0.953575 -0.0288865
        outer loop
            vertex -0.0267916 0.0529597 0.0373617
            vertex -0.00781703 0.0580815 0.00953064
            vertex -0.0273872 0.0519436 0.01
        endloop
    endfacet
    facet normal -0.00494276 0.000102491 -0.999988
        outer loop
            vertex -0.0464505 0.0187311 -5.15233e-005
            vertex -0.0276508 -0.0400649 -0.000150473
            vertex -0.0462331 -0.0155194 -5.61083e-005
        endloop
    endfacet
    facet normal -0.958826 0.112148 0.260912
        outer loop
            vertex -0.0579752 0.00759049 0.0276458
            vertex -0.0509886 0.00280822 0.0553764
            vertex -0.0517942 0.0156528 0.0468949
        endloop
    endfacet
    facet normal 0.00133362 -0.126912 0.991913
        outer loop
            vertex 0.49 0.0076094 0.127394
            vertex 0.0442226 -0.00840775 0.125944
            vertex 0.49 -0.0147202 0.124537
        endloop
    endfacet
    facet normal 0.987565 -0.136123 0.0786461
        outer loop
            vertex 0.50552 -0.000229363 0.0934035
            vertex 0.5 -0.0392857 0.0951186
            vertex 0.504693 -0.0253263 0.0603499
        endloop
    endfacet
    facet normal -0.913516 0.40678 -0.00438691
        outer loop
            vertex -0.047669 0.0360023 0.01
            vertex -0.0555657 0.0182707 0.0102068
            vertex -0.0552189 0.019198 0.0239753
        endloop
    endfacet
    facet normal -0.807741 -0.562414 0.176763
        outer loop
            vertex -0.0393333 -0.0378606 0.0527908
            vertex -0.0506812 -0.0265791 0.0368299
            vertex -0.04257 -0.0400414 0.0310615
        endloop
    endfacet
    facet normal -0.509734 0.594734 0.621662
        outer loop
            vertex -0.00817595 0.0475249 0.0823647
            vertex -0.0214259 0.0377282 0.0808727
            vertex -0.0104004 0.032319 0.095088
        endloop
    endfacet
    facet normal 0.776025 0.615397 0.138099
        outer loop
            vertex 0.5 0.0419083 0.0932177
            vertex 0.5 0.048643 0.0632065
            vertex 0.49 0.0579477 0.0779362
        endloop
    endfacet
    facet normal -0.392167 0.340515 0.854549
        outer loop
            vertex 0.022022 0.0229747 0.117533
            vertex 0.00351659 0.030555 0.10602
            vertex -0.00156624 0.0147733 0.109976
        endloop
    endfacet
    facet normal -0.428732 -0.393216 0.81337
        outer loop
            vertex 0.00172873 -0.0362816 0.101822
            vertex 0.00814085 -0.0163699 0.114828
            vertex -0.00731597 -0.0226739 0.103633
        endloop
    endfacet
    facet normal -0.00151985 -0.850759 0.525554
        outer loop
            vertex 0.033137 -0.0441514 0.106983
            vertex 0.0208284 -0.0540644 0.0909004
            vertex 0.49 -0.0487105 0.100924
        endloop
    endfacet
    facet normal 0.00159834 -0.911227 0.411901
        outer loop
            vertex 0.0208284 -0.0540644 0.0909004
            vertex 0.49 -0.0558601 0.0851073
            vertex 0.49 -0.0487105 0.100924
        endloop
    endfacet
    facet normal -0.463128 -0.087771 0.881935
        outer loop
            vertex 0.00814085 -0.0163699 0.114828
            vertex 0.00762133 0.00135316 0.116319
            vertex -0.0104141 -0.00388292 0.106327
        endloop
    endfacet
    facet normal -0.359656 -0.426322 0.829998
        outer loop
            vertex 0.00172873 -0.0362816 0.101822
            vertex 0.0268551 -0.0233461 0.119354
            vertex 0.00814085 -0.0163699 0.114828
        endloop
    endfacet
    facet normal -0.904632 -0.130405 0.405752
        outer loop
            vertex -0.0509886 0.00280822 0.0553764
            vertex -0.0464502 -0.0189608 0.0584985
            vertex -0.0425208 -0.00579851 0.0714894
        endloop
    endfacet
    facet normal 0.999607 0.00367886 -0.0278038
        outer loop
            vertex 0.50552 -0.000229363 0.0934035
            vertex 0.504693 -0.0253263 0.0603499
            vertex 0.504074 0.00306009 0.0418517
        endloop
    endfacet
    facet normal -0.754735 0.428004 0.49718
        outer loop
            vertex -0.0356013 0.0361129 0.0623621
            vertex -0.0421841 0.0200438 0.0662025
            vertex -0.0291398 0.0216381 0.0846317
        endloop
    endfacet
    facet normal -0.206581 0.676652 0.706729
        outer loop
            vertex 0.0308913 0.0331734 0.115337
            vertex 0.0321627 0.046848 0.102616
            vertex 0.0111628 0.0440186 0.0991866
        endloop
    endfacet
    facet normal -0.855948 -0.515246 -0.0433
        outer loop
            vertex -0.0503186 -0.0296715 0.0248424
            vertex -0.0532783 -0.0235074 0.01
            vertex -0.0441968 -0.0385953 0.0100158
        endloop
    endfacet
    facet normal -0.68962 -0.703132 0.173291
        outer loop
            vertex -0.0393333 -0.0378606 0.0527908
            vertex -0.04257 -0.0400414 0.0310615
            vertex -0.0297926 -0.0507025 0.0386521
        endloop
    endfacet
    facet normal -0.363166 -0.873934 0.323032
        outer loop
            vertex 0.00811877 -0.0580654 0.0763921
            vertex -0.0111195 -0.0540651 0.0655861
            vertex -0.0105965 -0.0579788 0.0555859
        endloop
    endfacet
    facet normal -0.00722426 -0.999971 0.00233624
        outer loop
            vertex 0.00811877 -0.0580654 0.0763921
            vertex -0.0105965 -0.0579788 0.0555859
            vertex -0.00774505 -0.0581069 0.00957413
        endloop
    endfacet
    facet normal -0.752602 0.195649 0.628738
        outer loop
            vertex -0.0220442 0.0152448 0.0951146
            vertex -0.0291398 0.0216381 0.0846317
            vertex -0.035803 0.00475682 0.0819089
        endloop
    endfacet
    facet normal -0.905013 0.395152 0.157501
        outer loop
            vertex -0.0479802 0.033487 0.02972
            vertex -0.0552189 0.019198 0.0239753
            vertex -0.0470995 0.0298926 0.0437985
        endloop
    endfacet
    facet normal -0.00383237 0.845084 0.534619
        outer loop
            vertex 0.49 0.0496119 0.101529
            vertex 0.0245552 0.052307 0.0939323
            vertex 0.0321627 0.046848 0.102616
        endloop
    endfacet
    facet normal -0.484152 -0.504231 -0.715086
        outer loop
            vertex -0.0316533 -0.0506038 0.00999077
            vertex -0.0441968 -0.0385953 0.0100158
            vertex -0.0276508 -0.0400649 -0.000150473
        endloop
    endfacet
    facet normal -0.191884 -0.528497 0.826965
        outer loop
            vertex 0.0397823 -0.0305495 0.11775
            vertex 0.0268551 -0.0233461 0.119354
            vertex 0.0223192 -0.0377473 0.109098
        endloop
    endfacet
    facet normal -0.24522 0.0405922 0.968617
        outer loop
            vertex 0.0402908 0.00663097 0.126093
            vertex 0.0182044 0.00893359 0.120405
            vertex 0.0274317 -0.00700566 0.123409
        endloop
    endfacet
    facet normal 0.973998 -0.20725 -0.0915202
        outer loop
            vertex 0.5 -0.05012 0.0665513
            vertex 0.5 -0.0376518 0.0383167
            vertex 0.504693 -0.0253263 0.0603499
        endloop
    endfacet
    facet normal -0.0753692 0.41815 0.905246
        outer loop
            vertex 0.0308913 0.0331734 0.115337
            vertex 0.0417532 0.0170198 0.123703
            vertex 0.0494172 0.0245343 0.12087
        endloop
    endfacet
    facet normal -0.10034 -0.30161 0.948137
        outer loop
            vertex 0.0268551 -0.0233461 0.119354
            vertex 0.0476623 -0.0209067 0.122332
            vertex 0.0442226 -0.00840775 0.125944
        endloop
    endfacet
    facet normal -0.433851 0.124729 0.892309
        outer loop
            vertex 0.0182044 0.00893359 0.120405
            vertex -0.00156624 0.0147733 0.109976
            vertex 0.00762133 0.00135316 0.116319
        endloop
    endfacet
    facet normal 0.802801 0.0479734 0.594314
        outer loop
            vertex 0.5 -0.0159533 0.115788
            vertex 0.5 0.019044 0.112963
            vertex 0.49 0.0076094 0.127394
        endloop
    endfacet
endsolid D:/Users/Paul Maroldt/Documents/!StartUp_Repositories/modrob-gen2/ModuleLibrary/L500-L-110-110/L500-L-110-110_convdec.stl_created_by_BoundingMesh