solid D:/Users/Paul Maroldt/Documents/!StartUp_Repositories/modrob-gen2/ModuleLibrary/L-L-80-80/L-L-80-80_convdec.stl_created_by_BoundingMesh
    facet normal 0.923016 -0.092081 0.373582
        outer loop
            vertex 0.0587233 -0.00704565 0.0762269
            vertex 0.0547 -0.00276277 0.087223
            vertex 0.0547 -0.0134581 0.0845868
        endloop
    endfacet
    facet normal 0.945138 0.207228 0.252528
        outer loop
            vertex 0.0587467 0.0213384 0.0644097
            vertex 0.0547 0.0183203 0.082032
            vertex 0.0587099 0.00898266 0.0746867
        endloop
    endfacet
    facet normal -0.170044 0.280784 0.944587
        outer loop
            vertex 0.0287145 0.00760176 0.0951381
            vertex 0.0300933 0.0150442 0.093174
            vertex 0.0209519 0.0161186 0.091209
        endloop
    endfacet
    facet normal 0.947216 -0.203418 0.247795
        outer loop
            vertex 0.0587233 -0.00704565 0.0762269
            vertex 0.0547 -0.0227678 0.0786998
            vertex 0.0587022 -0.0177215 0.0675436
        endloop
    endfacet
    facet normal -0.285143 -0.958463 0.00643412
        outer loop
            vertex -0.00546315 -0.0431768 0.0455369
            vertex -0.0162628 -0.0400364 0.0347372
            vertex -0.00715948 -0.0429107 0.01
        endloop
    endfacet
    facet normal -0.000600459 0.000442394 -1
        outer loop
            vertex 0.0346794 -0.00854844 -9.74562e-006
            vertex 0.0149598 -0.0315273 -8.07052e-006
            vertex 0.0331076 0.0110529 -1.30292e-007
        endloop
    endfacet
    facet normal 0.587789 -0.703401 0.399664
        outer loop
            vertex 0.043 -0.0334861 0.0807717
            vertex 0.043 -0.0391061 0.0708806
            vertex 0.0547 -0.0297343 0.0701675
        endloop
    endfacet
    facet normal 0.0103628 -0.999893 -0.0103627
        outer loop
            vertex -0.00715948 -0.0429107 0.01
            vertex 0.00804693 -0.0427531 0.01
            vertex 0.043 -0.0427928 0.0487843
        endloop
    endfacet
    facet normal -0.000152262 1.45761e-005 -1
        outer loop
            vertex 0.0149598 -0.0315273 -8.07052e-006
            vertex -0.0274472 -0.0206255 -1.45465e-006
            vertex -0.0237836 0.024761 -1.35092e-006
        endloop
    endfacet
    facet normal -0.137918 -0.861948 0.487878
        outer loop
            vertex 0.0111123 -0.0427071 0.0621123
            vertex 0.0214682 -0.0385025 0.0724682
            vertex 0.0181018 -0.0363837 0.0752599
        endloop
    endfacet
    facet normal 0.478008 -0.754544 -0.449635
        outer loop
            vertex 0.043 -0.0406886 0.0376046
            vertex 0.0222699 -0.0373716 0.01
            vertex 0.043 -0.0333273 0.0252514
        endloop
    endfacet
    facet normal 0.164859 0.705665 -0.6891
        outer loop
            vertex 0.0152388 0.0313014 -6.41962e-006
            vertex 0.00205307 0.0343848 -3.43037e-006
            vertex 0.00804693 0.0427531 0.01
        endloop
    endfacet
    facet normal 0.925667 0.060687 -0.37344
        outer loop
            vertex 0.0587355 0.00703203 0.0298115
            vertex 0.0547 7.00672e-018 0.0186657
            vertex 0.0547 0.0108727 0.0204326
        endloop
    endfacet
    facet normal 0.589085 0.755781 -0.285962
        outer loop
            vertex 0.043 0.0427531 0.0449531
            vertex 0.0547 0.0333671 0.0442486
            vertex 0.043 0.0387274 0.0343134
        endloop
    endfacet
    facet normal 0.466761 0.571679 -0.674772
        outer loop
            vertex 0.0152388 0.0313014 -6.41962e-006
            vertex 0.0222699 0.0373716 0.01
            vertex 0.0256875 0.0227638 -1.19441e-005
        endloop
    endfacet
    facet normal -0.0132148 0.999912 0.000631804
        outer loop
            vertex -0.00715948 0.0429107 0.01
            vertex -0.00654883 0.042897 0.0444511
            vertex 0.00605437 0.0430556 0.0570543
        endloop
    endfacet
    facet normal 0.491035 -0.567734 -0.660729
        outer loop
            vertex 0.0222699 -0.0373716 0.01
            vertex 0.0256864 -0.0227635 -1.30255e-005
            vertex 0.0315625 -0.0293344 0.01
        endloop
    endfacet
    facet normal 0.602572 -0.75211 0.266902
        outer loop
            vertex 0.043 -0.0429107 0.0601595
            vertex 0.0547 -0.0336405 0.0598677
            vertex 0.043 -0.0391061 0.0708806
        endloop
    endfacet
    facet normal 0.634821 -0.598503 0.488669
        outer loop
            vertex 0.043 -0.0334861 0.0807717
            vertex 0.0547 -0.0297343 0.0701675
            vertex 0.0547 -0.0227678 0.0786998
        endloop
    endfacet
    facet normal 0.627735 -0.467631 -0.62231
        outer loop
            vertex 0.0547 -0.0136811 0.020889
            vertex 0.0547 -0.0247619 0.0292156
            vertex 0.043 -0.0148961 0.01
        endloop
    endfacet
    facet normal 0.999941 -0.00798227 0.00738415
        outer loop
            vertex 0.0587233 -0.00704565 0.0762269
            vertex 0.0587022 -0.0177215 0.0675436
            vertex 0.0587412 -0.0240983 0.055369
        endloop
    endfacet
    facet normal -0.855131 0.518099 -0.0180107
        outer loop
            vertex -0.0331967 0.028117 0.01
            vertex -0.039024 0.0186956 0.0156568
            vertex -0.035891 0.0240313 0.0203928
        endloop
    endfacet
    facet normal -0.187304 -0.321488 0.928204
        outer loop
            vertex 0.0281123 -0.00934166 0.094562
            vertex 0.0162443 -0.0152568 0.0901184
            vertex 0.0251199 -0.0196102 0.0904016
        endloop
    endfacet
    facet normal -0.315957 -0.230693 0.9203
        outer loop
            vertex 0.00702081 -0.0114474 0.0879067
            vertex 0.0162443 -0.0152568 0.0901184
            vertex 0.0172265 -0.00785673 0.0923106
        endloop
    endfacet
    facet normal 0.538786 -0.622944 -0.567143
        outer loop
            vertex 0.0222699 -0.0373716 0.01
            vertex 0.0315625 -0.0293344 0.01
            vertex 0.043 -0.0333273 0.0252514
        endloop
    endfacet
    facet normal 0.000633771 0.0010661 -0.999999
        outer loop
            vertex -0.0274472 -0.0206255 -1.45465e-006
            vertex -0.00955165 -0.0329759 -3.2797e-006
            vertex -0.0195016 -0.0282533 -4.55094e-006
        endloop
    endfacet
    facet normal 0.933463 -0.335366 0.127188
        outer loop
            vertex 0.0587412 -0.0240983 0.055369
            vertex 0.0547 -0.0297343 0.0701675
            vertex 0.0547 -0.0336405 0.0598677
        endloop
    endfacet
    facet normal 0.613259 -0.485802 -0.622825
        outer loop
            vertex 0.0547 -0.0247619 0.0292156
            vertex 0.0315625 -0.0293344 0.01
            vertex 0.043 -0.0148961 0.01
        endloop
    endfacet
    facet normal 0.144212 -0.706506 -0.692858
        outer loop
            vertex 0.0149598 -0.0315273 -8.07052e-006
            vertex 0.00804693 -0.0427531 0.01
            vertex 0.00138265 -0.0343047 -1.91169e-006
        endloop
    endfacet
    facet normal 0.585373 -0.370164 -0.72133
        outer loop
            vertex 0.0346794 -0.00854844 -9.74562e-006
            vertex 0.043 -0.0148961 0.01
            vertex 0.0256864 -0.0227635 -1.30255e-005
        endloop
    endfacet
    facet normal -0.0268093 -0.550949 0.834108
        outer loop
            vertex 0.0302573 -0.027732 0.0863263
            vertex 0.043 -0.0218816 0.0906002
            vertex 0.0317742 -0.0235825 0.0891159
        endloop
    endfacet
    facet normal 0.610377 -0.740637 0.280887
        outer loop
            vertex 0.0547 -0.0297343 0.0701675
            vertex 0.043 -0.0391061 0.0708806
            vertex 0.0547 -0.0336405 0.0598677
        endloop
    endfacet
    facet normal 0.999998 -0.00176103 -0.000271267
        outer loop
            vertex 0.0587233 -0.00704565 0.0762269
            vertex 0.0587077 -0.00898562 0.0313075
            vertex 0.0587355 0.00703203 0.0298115
        endloop
    endfacet
    facet normal 0.94604 -0.0317616 -0.322489
        outer loop
            vertex 0.0587355 0.00703203 0.0298115
            vertex 0.0587077 -0.00898562 0.0313075
            vertex 0.0547 7.00672e-018 0.0186657
        endloop
    endfacet
    facet normal -0.316971 -0.668 -0.67328
        outer loop
            vertex -0.00955165 -0.0329759 -3.2797e-006
            vertex -0.0178806 -0.0391061 0.01
            vertex -0.0195016 -0.0282533 -4.55094e-006
        endloop
    endfacet
    facet normal -0.805476 -0.513089 0.296561
        outer loop
            vertex -0.0287704 -0.0292105 0.038188
            vertex -0.0285699 -0.0247951 0.0463718
            vertex -0.0329664 -0.0215778 0.039997
        endloop
    endfacet
    facet normal 0.331008 -0.874833 -0.353696
        outer loop
            vertex 0.00804693 -0.0427531 0.01
            vertex 0.0222699 -0.0373716 0.01
            vertex 0.043 -0.0406886 0.0376046
        endloop
    endfacet
    facet normal 0.94727 -0.2826 0.151054
        outer loop
            vertex 0.0587412 -0.0240983 0.055369
            vertex 0.0587022 -0.0177215 0.0675436
            vertex 0.0547 -0.0297343 0.0701675
        endloop
    endfacet
    facet normal 0.930925 0.263394 -0.252987
        outer loop
            vertex 0.0588067 0.023233 0.0433772
            vertex 0.0547 0.0206263 0.0255517
            vertex 0.0547 0.0282518 0.0334909
        endloop
    endfacet
    facet normal 0.942195 0.218732 0.253822
        outer loop
            vertex 0.0587467 0.0213384 0.0644097
            vertex 0.0547 0.0263819 0.0750849
            vertex 0.0547 0.0183203 0.082032
        endloop
    endfacet
    facet normal 0.601041 0.532309 -0.596152
        outer loop
            vertex 0.043 0.0331301 0.0249205
            vertex 0.0547 0.0206263 0.0255517
            vertex 0.0315625 0.0293344 0.01
        endloop
    endfacet
    facet normal 0.922981 0.333288 0.192417
        outer loop
            vertex 0.0587467 0.0213384 0.0644097
            vertex 0.0547 0.0320984 0.0651833
            vertex 0.0547 0.0263819 0.0750849
        endloop
    endfacet
    facet normal 0.708589 -0.156255 -0.688103
        outer loop
            vertex 0.0346794 -0.00854844 -9.74562e-006
            vertex 0.0547 7.00672e-018 0.0186657
            vertex 0.043 -0.0148961 0.01
        endloop
    endfacet
    facet normal 0.597432 -0.542927 -0.590174
        outer loop
            vertex 0.043 -0.0333273 0.0252514
            vertex 0.0315625 -0.0293344 0.01
            vertex 0.0547 -0.0247619 0.0292156
        endloop
    endfacet
    facet normal -0.657468 0.382627 -0.649102
        outer loop
            vertex -0.0331967 0.028117 0.01
            vertex -0.0303991 0.0159545 -3.09557e-006
            vertex -0.0402578 0.0159839 0.01
        endloop
    endfacet
    facet normal -0.334405 -0.942332 -0.0135686
        outer loop
            vertex -0.00715948 -0.0429107 0.01
            vertex -0.0162628 -0.0400364 0.0347372
            vertex -0.0178806 -0.0391061 0.01
        endloop
    endfacet
    facet normal -6.78036e-005 -0.000370442 -1
        outer loop
            vertex 0.0152388 0.0313014 -6.41962e-006
            vertex 0.0331076 0.0110529 -1.30292e-007
            vertex -0.0237836 0.024761 -1.35092e-006
        endloop
    endfacet
    facet normal 0.606573 0.480506 -0.63339
        outer loop
            vertex 0.0547 0.0206263 0.0255517
            vertex 0.043 0.0148961 0.01
            vertex 0.0315625 0.0293344 0.01
        endloop
    endfacet
    facet normal 0.668697 0.0539855 -0.741573
        outer loop
            vertex 0.0346794 -0.00854844 -9.74562e-006
            vertex 0.0331076 0.0110529 -1.30292e-007
            vertex 0.0547 7.00672e-018 0.0186657
        endloop
    endfacet
    facet normal -0.334392 0.942294 -0.0162771
        outer loop
            vertex -0.00715948 0.0429107 0.01
            vertex -0.0214912 0.0378248 0.01
            vertex -0.0178442 0.039519 0.0331558
        endloop
    endfacet
    facet normal -0.373723 0.878042 0.298955
        outer loop
            vertex -0.0127563 0.0392114 0.0475159
            vertex -0.00279724 0.0408921 0.0550294
            vertex -0.00654883 0.042897 0.0444511
        endloop
    endfacet
    facet normal 0.0212372 0.869258 0.493902
        outer loop
            vertex 0.043 0.0334861 0.0807717
            vertex 0.043 0.0391061 0.0708806
            vertex 0.0246514 0.0367989 0.0757302
        endloop
    endfacet
    facet normal -0.750404 -0.377986 0.542236
        outer loop
            vertex -0.0176322 -0.0199347 0.0672423
            vertex -0.0235871 -0.011706 0.0647374
            vertex -0.0251472 -0.0234168 0.0544149
        endloop
    endfacet
    facet normal -0.839958 -0.398186 0.368671
        outer loop
            vertex -0.0362169 -0.0127713 0.0421028
            vertex -0.0329664 -0.0215778 0.039997
            vertex -0.0321442 -0.0135595 0.0505305
        endloop
    endfacet
    facet normal -0.400406 0.594158 0.697603
        outer loop
            vertex 4.48256e-005 0.032404 0.071326
            vertex -0.00153641 0.0234206 0.0780697
            vertex 0.00651738 0.0248053 0.081513
        endloop
    endfacet
    facet normal -0.603253 -0.352949 0.715202
        outer loop
            vertex -0.0184914 -0.0106278 0.0711105
            vertex -0.0176322 -0.0199347 0.0672423
            vertex -0.00671969 -0.0231641 0.074853
        endloop
    endfacet
    facet normal -0.478168 -0.198656 0.855507
        outer loop
            vertex -0.00767603 -0.00655916 0.0808273
            vertex 0.00702081 -0.0114474 0.0879067
            vertex 0.00649013 -0.00570597 0.0889433
        endloop
    endfacet
    facet normal -0.502264 -0.52291 -0.688692
        outer loop
            vertex -0.0277717 -0.0334861 0.01
            vertex -0.0274472 -0.0206255 -1.45465e-006
            vertex -0.0195016 -0.0282533 -4.55094e-006
        endloop
    endfacet
    facet normal 0.999999 0.00155675 -0.000414555
        outer loop
            vertex 0.0587233 -0.00704565 0.0762269
            vertex 0.0587412 -0.0240983 0.055369
            vertex 0.0587077 -0.00898562 0.0313075
        endloop
    endfacet
    facet normal -0.000321739 -0.000644676 -1
        outer loop
            vertex 0.0149598 -0.0315273 -8.07052e-006
            vertex 0.00138265 -0.0343047 -1.91169e-006
            vertex -0.0274472 -0.0206255 -1.45465e-006
        endloop
    endfacet
    facet normal -0.570037 -0.821489 0.0146534
        outer loop
            vertex -0.0218451 -0.0371808 0.0334229
            vertex -0.0276536 -0.0332449 0.0281163
            vertex -0.0277717 -0.0334861 0.01
        endloop
    endfacet
    facet normal 0.622123 0.780301 -0.0639778
        outer loop
            vertex 0.043 0.0427531 0.0449531
            vertex 0.0547 0.0342316 0.0547924
            vertex 0.0547 0.0333671 0.0442486
        endloop
    endfacet
    facet normal -0.0757475 -0.28217 0.95637
        outer loop
            vertex 0.0361965 -0.0165023 0.0930896
            vertex 0.0281123 -0.00934166 0.094562
            vertex 0.0331275 -0.0157347 0.093073
        endloop
    endfacet
    facet normal -0.947239 -0.318651 0.0346328
        outer loop
            vertex -0.0394038 -0.0180794 0.015002
            vertex -0.0416525 -0.0108184 0.0203053
            vertex -0.0403381 -0.0158457 0.01
        endloop
    endfacet
    facet normal 0.000173647 0.000399385 -1
        outer loop
            vertex 0.00138265 -0.0343047 -1.91169e-006
            vertex -0.00955165 -0.0329759 -3.2797e-006
            vertex -0.0274472 -0.0206255 -1.45465e-006
        endloop
    endfacet
    facet normal -0.419835 -0.893377 0.160052
        outer loop
            vertex -0.0124613 -0.0398987 0.0454776
            vertex -0.0162628 -0.0400364 0.0347372
            vertex -0.00546315 -0.0431768 0.0455369
        endloop
    endfacet
    facet normal 0.947161 0.203468 -0.247964
        outer loop
            vertex 0.0588067 0.023233 0.0433772
            vertex 0.0587355 0.00703203 0.0298115
            vertex 0.0547 0.0206263 0.0255517
        endloop
    endfacet
    facet normal 0.945399 -0.206756 -0.251939
        outer loop
            vertex 0.0587077 -0.00898562 0.0313075
            vertex 0.0587129 -0.0195102 0.0399641
            vertex 0.0547 -0.0247619 0.0292156
        endloop
    endfacet
    facet normal 0.591039 -0.792724 -0.149203
        outer loop
            vertex 0.043 -0.0406886 0.0376046
            vertex 0.0547 -0.034084 0.0488613
            vertex 0.043 -0.0427928 0.0487843
        endloop
    endfacet
    facet normal 0.941055 -0.203203 -0.270416
        outer loop
            vertex 0.0547 -0.0136811 0.020889
            vertex 0.0587077 -0.00898562 0.0313075
            vertex 0.0547 -0.0247619 0.0292156
        endloop
    endfacet
    facet normal 0.928485 0.172584 -0.32883
        outer loop
            vertex 0.0587355 0.00703203 0.0298115
            vertex 0.0547 0.0108727 0.0204326
            vertex 0.0547 0.0206263 0.0255517
        endloop
    endfacet
    facet normal 0.683082 -0.11715 -0.720885
        outer loop
            vertex 0.0547 -0.0136811 0.020889
            vertex 0.043 -0.0148961 0.01
            vertex 0.0547 7.00672e-018 0.0186657
        endloop
    endfacet
    facet normal 0.942117 0.0269778 0.334198
        outer loop
            vertex 0.0587233 -0.00704565 0.0762269
            vertex 0.0547 0.0082166 0.0863367
            vertex 0.0547 -0.00276277 0.087223
        endloop
    endfacet
    facet normal 0.939378 -0.265598 0.216857
        outer loop
            vertex 0.0547 -0.0227678 0.0786998
            vertex 0.0547 -0.0297343 0.0701675
            vertex 0.0587022 -0.0177215 0.0675436
        endloop
    endfacet
    facet normal 0.939948 -0.0547487 -0.336897
        outer loop
            vertex 0.0547 -0.0136811 0.020889
            vertex 0.0547 7.00672e-018 0.0186657
            vertex 0.0587077 -0.00898562 0.0313075
        endloop
    endfacet
    facet normal -0.000282596 0.66823 0.743955
        outer loop
            vertex 0.043 0.0334861 0.0807717
            vertex 0.0293135 0.0318149 0.0822676
            vertex 0.0324316 0.0267751 0.0867956
        endloop
    endfacet
    facet normal 0.92542 0.377676 -0.0309661
        outer loop
            vertex 0.0588067 0.023233 0.0433772
            vertex 0.0547 0.0333671 0.0442486
            vertex 0.0547 0.0342316 0.0547924
        endloop
    endfacet
    facet normal 0.999987 -0.00505631 0.000790255
        outer loop
            vertex 0.0588067 0.023233 0.0433772
            vertex 0.0587099 0.00898266 0.0746867
            vertex 0.0587355 0.00703203 0.0298115
        endloop
    endfacet
    facet normal 0.59127 0.692793 -0.41284
        outer loop
            vertex 0.043 0.0331301 0.0249205
            vertex 0.043 0.0387274 0.0343134
            vertex 0.0547 0.0282518 0.0334909
        endloop
    endfacet
    facet normal 0.933251 0.140802 0.330481
        outer loop
            vertex 0.0587099 0.00898266 0.0746867
            vertex 0.0547 0.0183203 0.082032
            vertex 0.0547 0.0082166 0.0863367
        endloop
    endfacet
    facet normal 0.923312 -0.38374 0.0154627
        outer loop
            vertex 0.0587412 -0.0240983 0.055369
            vertex 0.0547 -0.0336405 0.0598677
            vertex 0.0547 -0.034084 0.0488613
        endloop
    endfacet
    facet normal 6.02049e-005 0.000160818 -1
        outer loop
            vertex 0.0149598 -0.0315273 -8.07052e-006
            vertex -0.0237836 0.024761 -1.35092e-006
            vertex 0.0331076 0.0110529 -1.30292e-007
        endloop
    endfacet
    facet normal 0.275709 -0.728681 -0.626903
        outer loop
            vertex 0.0149598 -0.0315273 -8.07052e-006
            vertex 0.0222699 -0.0373716 0.01
            vertex 0.00804693 -0.0427531 0.01
        endloop
    endfacet
    facet normal 0.274179 0.724637 -0.63224
        outer loop
            vertex 0.0152388 0.0313014 -6.41962e-006
            vertex 0.00804693 0.0427531 0.01
            vertex 0.0222699 0.0373716 0.01
        endloop
    endfacet
    facet normal 0.683081 0.11715 -0.720885
        outer loop
            vertex 0.0547 7.00672e-018 0.0186657
            vertex 0.043 0.0148961 0.01
            vertex 0.0547 0.0108727 0.0204326
        endloop
    endfacet
    facet normal 0.000636527 0.00369148 -0.999993
        outer loop
            vertex -0.0123693 0.0326193 -1.9128e-005
            vertex 0.00205307 0.0343848 -3.43037e-006
            vertex 0.0152388 0.0313014 -6.41962e-006
        endloop
    endfacet
    facet normal 0.999999 0.000887125 0.000531914
        outer loop
            vertex 0.0587233 -0.00704565 0.0762269
            vertex 0.0587355 0.00703203 0.0298115
            vertex 0.0587099 0.00898266 0.0746867
        endloop
    endfacet
    facet normal 0.933281 -0.295571 -0.20402
        outer loop
            vertex 0.0587129 -0.0195102 0.0399641
            vertex 0.0547 -0.0310195 0.0382812
            vertex 0.0547 -0.0247619 0.0292156
        endloop
    endfacet
    facet normal -0.553315 0.805201 0.213292
        outer loop
            vertex -0.0127563 0.0392114 0.0475159
            vertex -0.0178442 0.039519 0.0331558
            vertex -0.024104 0.0351348 0.0334677
        endloop
    endfacet
    facet normal 0.592111 -0.469049 -0.655284
        outer loop
            vertex 0.0256864 -0.0227635 -1.30255e-005
            vertex 0.043 -0.0148961 0.01
            vertex 0.0315625 -0.0293344 0.01
        endloop
    endfacet
    facet normal -0.57844 0.434664 -0.690271
        outer loop
            vertex -0.0331967 0.028117 0.01
            vertex -0.0237836 0.024761 -1.35092e-006
            vertex -0.0303991 0.0159545 -3.09557e-006
        endloop
    endfacet
    facet normal 0.585373 0.370168 -0.721328
        outer loop
            vertex 0.0331076 0.0110529 -1.30292e-007
            vertex 0.0256875 0.0227638 -1.19441e-005
            vertex 0.043 0.0148961 0.01
        endloop
    endfacet
    facet normal -0.748075 -0.200382 -0.632638
        outer loop
            vertex -0.0433912 -0.00444774 0.01
            vertex -0.0338781 -0.00835 -1.29432e-005
            vertex -0.0403381 -0.0158457 0.01
        endloop
    endfacet
    facet normal -0.977159 0.168837 0.129051
        outer loop
            vertex -0.0411001 0.0129607 0.0212896
            vertex -0.0430238 0.00161695 0.0215646
            vertex -0.0415608 0.00406836 0.0294351
        endloop
    endfacet
    facet normal 0.491035 0.567734 -0.660729
        outer loop
            vertex 0.0222699 0.0373716 0.01
            vertex 0.0315625 0.0293344 0.01
            vertex 0.0256875 0.0227638 -1.19441e-005
        endloop
    endfacet
    facet normal 0.537458 0.621409 -0.570079
        outer loop
            vertex 0.0222699 0.0373716 0.01
            vertex 0.043 0.0331301 0.0249205
            vertex 0.0315625 0.0293344 0.01
        endloop
    endfacet
    facet normal -0.00134633 0.00108247 -0.999999
        outer loop
            vertex 0.0346794 -0.00854844 -9.74562e-006
            vertex 0.0256864 -0.0227635 -1.30255e-005
            vertex 0.0149598 -0.0315273 -8.07052e-006
        endloop
    endfacet
    facet normal 0.0306696 0.532267 0.846021
        outer loop
            vertex 0.0426128 0.0181823 0.0923048
            vertex 0.043 0.0248054 0.0881239
            vertex 0.0351233 0.0216135 0.0904176
        endloop
    endfacet
    facet normal -0.231988 0.22512 0.94631
        outer loop
            vertex 0.0162301 0.00373637 0.0929971
            vertex 0.0287145 0.00760176 0.0951381
            vertex 0.0209519 0.0161186 0.091209
        endloop
    endfacet
    facet normal -0.363284 -0.460663 0.809824
        outer loop
            vertex 0.00534182 -0.0265511 0.0797659
            vertex 0.0138183 -0.020961 0.0867483
            vertex 0.00195744 -0.018282 0.0829515
        endloop
    endfacet
    facet normal -0.565505 -0.781335 0.264046
        outer loop
            vertex -0.0218451 -0.0371808 0.0334229
            vertex -0.0124613 -0.0398987 0.0454776
            vertex -0.0195666 -0.0337337 0.048503
        endloop
    endfacet
    facet normal -0.673397 -0.511826 0.533452
        outer loop
            vertex -0.0176322 -0.0199347 0.0672423
            vertex -0.0251472 -0.0234168 0.0544149
            vertex -0.0169593 -0.0297662 0.0586588
        endloop
    endfacet
    facet normal -0.96548 0.260467 -0.00228359
        outer loop
            vertex -0.0411001 0.0129607 0.0212896
            vertex -0.0402578 0.0159839 0.01
            vertex -0.0428413 0.00640502 0.00971101
        endloop
    endfacet
    facet normal -0.753321 -0.375532 0.539892
        outer loop
            vertex -0.0235871 -0.011706 0.0647374
            vertex -0.0282359 -0.0113747 0.0584813
            vertex -0.0251472 -0.0234168 0.0544149
        endloop
    endfacet
    facet normal -0.329128 -0.197152 0.923475
        outer loop
            vertex 0.00649013 -0.00570597 0.0889433
            vertex 0.00702081 -0.0114474 0.0879067
            vertex 0.0172265 -0.00785673 0.0923106
        endloop
    endfacet
    facet normal -0.489689 0.0450798 0.870731
        outer loop
            vertex -0.00961783 0.000786495 0.0803164
            vertex 0.00544193 0.000221278 0.0888151
            vertex -0.00246659 0.00779558 0.0839753
        endloop
    endfacet
    facet normal -0.425631 0.127984 0.895801
        outer loop
            vertex -0.00246659 0.00779558 0.0839753
            vertex 0.00544193 0.000221278 0.0888151
            vertex 0.00876031 0.00828726 0.0892394
        endloop
    endfacet
    facet normal -0.417169 0.412139 0.810008
        outer loop
            vertex -0.00153641 0.0234206 0.0780697
            vertex 0.0023028 0.0135677 0.0850602
            vertex 0.00651738 0.0248053 0.081513
        endloop
    endfacet
    facet normal -0.219883 -0.470915 0.854336
        outer loop
            vertex 0.0138183 -0.020961 0.0867483
            vertex 0.016979 -0.0258557 0.0848638
            vertex 0.0251199 -0.0196102 0.0904016
        endloop
    endfacet
    facet normal 0.933716 -0.191344 0.302592
        outer loop
            vertex 0.0587233 -0.00704565 0.0762269
            vertex 0.0547 -0.0134581 0.0845868
            vertex 0.0547 -0.0227678 0.0786998
        endloop
    endfacet
    facet normal 0.599465 -0.0697551 0.797356
        outer loop
            vertex 0.0428308 0.000620138 0.0964424
            vertex 0.043 -0.00845807 0.095521
            vertex 0.0547 -0.00276277 0.087223
        endloop
    endfacet
    facet normal -0.672526 -0.709735 0.209724
        outer loop
            vertex -0.0218451 -0.0371808 0.0334229
            vertex -0.0287704 -0.0292105 0.038188
            vertex -0.0276536 -0.0332449 0.0281163
        endloop
    endfacet
    facet normal -0.703773 0.234952 -0.670449
        outer loop
            vertex -0.0428413 0.00640502 0.00971101
            vertex -0.0303991 0.0159545 -3.09557e-006
            vertex -0.0338884 0.00550739 -1.45122e-006
        endloop
    endfacet
    facet normal 0.200002 -0.962889 -0.181231
        outer loop
            vertex 0.00804693 -0.0427531 0.01
            vertex 0.043 -0.0406886 0.0376046
            vertex 0.043 -0.0427928 0.0487843
        endloop
    endfacet
    facet normal 0.999996 -0.00065452 0.00279373
        outer loop
            vertex 0.0588067 0.023233 0.0433772
            vertex 0.0587467 0.0213384 0.0644097
            vertex 0.0587099 0.00898266 0.0746867
        endloop
    endfacet
    facet normal -0.166066 -0.52416 0.835271
        outer loop
            vertex 0.0302573 -0.027732 0.0863263
            vertex 0.0251199 -0.0196102 0.0904016
            vertex 0.016979 -0.0258557 0.0848638
        endloop
    endfacet
    facet normal 0.597106 -0.802119 -0.00831355
        outer loop
            vertex 0.043 -0.0429107 0.0601595
            vertex 0.043 -0.0427928 0.0487843
            vertex 0.0547 -0.034084 0.0488613
        endloop
    endfacet
    facet normal 0.621194 -0.783021 0.0315516
        outer loop
            vertex 0.043 -0.0429107 0.0601595
            vertex 0.0547 -0.034084 0.0488613
            vertex 0.0547 -0.0336405 0.0598677
        endloop
    endfacet
    facet normal -0.349335 -0.0415312 0.936077
        outer loop
            vertex 0.0162301 0.00373637 0.0929971
            vertex 0.00544193 0.000221278 0.0888151
            vertex 0.00649013 -0.00570597 0.0889433
        endloop
    endfacet
    facet normal 0.0103628 0.999893 -0.0103628
        outer loop
            vertex 0.043 0.0429107 0.0601595
            vertex 0.043 0.0427531 0.0449531
            vertex -0.00715948 0.0429107 0.01
        endloop
    endfacet
    facet normal 0.333609 0.881709 -0.333609
        outer loop
            vertex 0.043 0.0427531 0.0449531
            vertex 0.043 0.0387274 0.0343134
            vertex 0.0222699 0.0373716 0.01
        endloop
    endfacet
    facet normal 0.609532 0.686557 0.396371
        outer loop
            vertex 0.043 0.0334861 0.0807717
            vertex 0.0547 0.0263819 0.0750849
            vertex 0.0547 0.0320984 0.0651833
        endloop
    endfacet
    facet normal 0.942549 -0.320878 -0.0929416
        outer loop
            vertex 0.0587412 -0.0240983 0.055369
            vertex 0.0547 -0.034084 0.0488613
            vertex 0.0547 -0.0310195 0.0382812
        endloop
    endfacet
    facet normal -0.437803 0.882071 0.174012
        outer loop
            vertex -0.0127563 0.0392114 0.0475159
            vertex -0.00654883 0.042897 0.0444511
            vertex -0.0178442 0.039519 0.0331558
        endloop
    endfacet
    facet normal -0.998699 0.0507396 0.00511948
        outer loop
            vertex -0.0433912 -0.00444774 0.01
            vertex -0.0430238 0.00161695 0.0215646
            vertex -0.0428413 0.00640502 0.00971101
        endloop
    endfacet
    facet normal -0.442265 0.798967 0.407496
        outer loop
            vertex -0.0127563 0.0392114 0.0475159
            vertex -0.00838827 0.0355644 0.0594072
            vertex -0.00279724 0.0408921 0.0550294
        endloop
    endfacet
    facet normal 6.58385e-006 1.75403e-006 -1
        outer loop
            vertex -0.0338884 0.00550739 -1.45122e-006
            vertex -0.0237836 0.024761 -1.35092e-006
            vertex -0.0274472 -0.0206255 -1.45465e-006
        endloop
    endfacet
    facet normal -0.711123 -0.32481 0.62354
        outer loop
            vertex -0.0184914 -0.0106278 0.0711105
            vertex -0.0235871 -0.011706 0.0647374
            vertex -0.0176322 -0.0199347 0.0672423
        endloop
    endfacet
    facet normal 0.597542 0.120871 0.792675
        outer loop
            vertex 0.0427392 0.0123744 0.0947191
            vertex 0.0428308 0.000620138 0.0964424
            vertex 0.0547 0.0082166 0.0863367
        endloop
    endfacet
    facet normal -0.979014 -0.0500137 0.197561
        outer loop
            vertex -0.0430238 0.00161695 0.0215646
            vertex -0.0410479 -0.00858735 0.0287729
            vertex -0.0415608 0.00406836 0.0294351
        endloop
    endfacet
    facet normal 0.00565604 0.89453 0.446973
        outer loop
            vertex 0.0167839 0.0407457 0.067931
            vertex 0.0246514 0.0367989 0.0757302
            vertex 0.043 0.0391061 0.0708806
        endloop
    endfacet
    facet normal 0.628544 0.56094 -0.538776
        outer loop
            vertex 0.043 0.0331301 0.0249205
            vertex 0.0547 0.0282518 0.0334909
            vertex 0.0547 0.0206263 0.0255517
        endloop
    endfacet
    facet normal 0.944411 0.0322294 0.327183
        outer loop
            vertex 0.0587233 -0.00704565 0.0762269
            vertex 0.0587099 0.00898266 0.0746867
            vertex 0.0547 0.0082166 0.0863367
        endloop
    endfacet
    facet normal 0.683133 0.117225 -0.720825
        outer loop
            vertex 0.0331076 0.0110529 -1.30292e-007
            vertex 0.043 0.0148961 0.01
            vertex 0.0547 7.00672e-018 0.0186657
        endloop
    endfacet
    facet normal -0.0428102 -0.101674 0.993896
        outer loop
            vertex 0.0428308 0.000620138 0.0964424
            vertex 0.0271638 -0.0027863 0.0954191
            vertex 0.043 -0.00845807 0.095521
        endloop
    endfacet
    facet normal -0.228573 -0.248506 0.941275
        outer loop
            vertex 0.0281123 -0.00934166 0.094562
            vertex 0.0172265 -0.00785673 0.0923106
            vertex 0.0162443 -0.0152568 0.0901184
        endloop
    endfacet
    facet normal 0.633704 -0.413445 0.653821
        outer loop
            vertex 0.043 -0.0218816 0.0906002
            vertex 0.0547 -0.0227678 0.0786998
            vertex 0.0547 -0.0134581 0.0845868
        endloop
    endfacet
    facet normal 0.000852105 -0.000441998 -1
        outer loop
            vertex -0.0338884 0.00550739 -1.45122e-006
            vertex -0.0303991 0.0159545 -3.09557e-006
            vertex -0.0237836 0.024761 -1.35092e-006
        endloop
    endfacet
    facet normal -0.650896 -0.378797 -0.657911
        outer loop
            vertex -0.0403381 -0.0158457 0.01
            vertex -0.0274472 -0.0206255 -1.45465e-006
            vertex -0.0351239 -0.0248054 0.01
        endloop
    endfacet
    facet normal -0.68725 0.614658 0.387148
        outer loop
            vertex -0.0232779 0.0251016 0.0554082
            vertex -0.0191586 0.0305475 0.0540744
            vertex -0.0276687 0.0281582 0.042761
        endloop
    endfacet
    facet normal -0.357034 -0.357906 0.862804
        outer loop
            vertex 0.00195744 -0.018282 0.0829515
            vertex 0.0138183 -0.020961 0.0867483
            vertex 0.0162443 -0.0152568 0.0901184
        endloop
    endfacet
    facet normal -0.608638 -0.209672 0.765244
        outer loop
            vertex -0.0184914 -0.0106278 0.0711105
            vertex -0.00661699 -0.0128163 0.0799552
            vertex -0.00767603 -0.00655916 0.0808273
        endloop
    endfacet
    facet normal -0.35587 -0.361243 0.861893
        outer loop
            vertex 0.00195744 -0.018282 0.0829515
            vertex 0.0162443 -0.0152568 0.0901184
            vertex 0.00702081 -0.0114474 0.0879067
        endloop
    endfacet
    facet normal -0.553464 -0.65338 0.516501
        outer loop
            vertex -0.0109584 -0.0354616 0.0578844
            vertex -0.0101637 -0.0291399 0.066733
            vertex -0.0169593 -0.0297662 0.0586588
        endloop
    endfacet
    facet normal 0.00337423 0.000831806 -0.999994
        outer loop
            vertex -0.0338781 -0.00835 -1.29432e-005
            vertex -0.0338884 0.00550739 -1.45122e-006
            vertex -0.0274472 -0.0206255 -1.45465e-006
        endloop
    endfacet
    facet normal -0.865332 -0.16907 0.471822
        outer loop
            vertex -0.0282359 -0.0113747 0.0584813
            vertex -0.0340501 -0.0022534 0.0510864
            vertex -0.0321442 -0.0135595 0.0505305
        endloop
    endfacet
    facet normal -0.835602 -0.403714 0.372538
        outer loop
            vertex -0.0321442 -0.0135595 0.0505305
            vertex -0.0329664 -0.0215778 0.039997
            vertex -0.0285699 -0.0247951 0.0463718
        endloop
    endfacet
    facet normal -0.922653 -0.338228 0.185239
        outer loop
            vertex -0.0361839 -0.0222339 0.0286466
            vertex -0.0389881 -0.0118079 0.0337161
            vertex -0.0389003 -0.017387 0.0239665
        endloop
    endfacet
    facet normal -0.754345 0.109711 0.647245
        outer loop
            vertex -0.0170817 0.00854764 0.0730345
            vertex -0.0251196 0.0099875 0.0634225
            vertex -0.0226583 -0.000572196 0.068081
        endloop
    endfacet
    facet normal -0.292437 -0.832503 0.470552
        outer loop
            vertex 0.0111123 -0.0427071 0.0621123
            vertex 0.00950289 -0.0388942 0.0678579
            vertex 0.00347193 -0.0411083 0.0601926
        endloop
    endfacet
    facet normal 0.627122 -0.186411 0.756286
        outer loop
            vertex 0.043 -0.00845807 0.095521
            vertex 0.0547 -0.0134581 0.0845868
            vertex 0.0547 -0.00276277 0.087223
        endloop
    endfacet
    facet normal -0.00945641 -0.844849 0.534921
        outer loop
            vertex 0.0265243 -0.0337713 0.08003
            vertex 0.0214682 -0.0385025 0.0724682
            vertex 0.043 -0.0334861 0.0807717
        endloop
    endfacet
    facet normal -0.313321 -0.0829485 0.946018
        outer loop
            vertex 0.0162301 0.00373637 0.0929971
            vertex 0.00649013 -0.00570597 0.0889433
            vertex 0.0172265 -0.00785673 0.0923106
        endloop
    endfacet
    facet normal -0.679543 -0.0613406 0.731067
        outer loop
            vertex -0.00961783 0.000786495 0.0803164
            vertex -0.0226583 -0.000572196 0.068081
            vertex -0.0184914 -0.0106278 0.0711105
        endloop
    endfacet
    facet normal -0.189422 -0.841751 0.505544
        outer loop
            vertex 0.0111123 -0.0427071 0.0621123
            vertex 0.0181018 -0.0363837 0.0752599
            vertex 0.00950289 -0.0388942 0.0678579
        endloop
    endfacet
    facet normal -0.528578 -0.776985 0.341906
        outer loop
            vertex -0.0109584 -0.0354616 0.0578844
            vertex -0.0195666 -0.0337337 0.048503
            vertex -0.0124613 -0.0398987 0.0454776
        endloop
    endfacet
    facet normal -0.552546 0.699472 0.453247
        outer loop
            vertex -0.0133709 0.0283264 0.0645578
            vertex -0.017326 0.0351684 0.0491773
            vertex -0.0191586 0.0305475 0.0540744
        endloop
    endfacet
    facet normal -0.280637 -0.720534 0.634093
        outer loop
            vertex 0.0181018 -0.0363837 0.0752599
            vertex 0.0162876 -0.0314665 0.0800445
            vertex 0.00378702 -0.0351679 0.070306
        endloop
    endfacet
    facet normal -0.59551 -0.684606 0.420336
        outer loop
            vertex -0.0109584 -0.0354616 0.0578844
            vertex -0.0169593 -0.0297662 0.0586588
            vertex -0.0195666 -0.0337337 0.048503
        endloop
    endfacet
    facet normal -0.160729 -0.718133 0.677091
        outer loop
            vertex 0.0181018 -0.0363837 0.0752599
            vertex 0.0265243 -0.0337713 0.08003
            vertex 0.0162876 -0.0314665 0.0800445
        endloop
    endfacet
    facet normal 0.00164336 -0.927114 0.374775
        outer loop
            vertex 0.0111123 -0.0427071 0.0621123
            vertex 0.043 -0.0391061 0.0708806
            vertex 0.0214682 -0.0385025 0.0724682
        endloop
    endfacet
    facet normal -0.373974 -0.658188 -0.6534
        outer loop
            vertex -0.0277717 -0.0334861 0.01
            vertex -0.0195016 -0.0282533 -4.55094e-006
            vertex -0.0178806 -0.0391061 0.01
        endloop
    endfacet
    facet normal 0.622289 -0.644219 -0.444677
        outer loop
            vertex 0.043 -0.0333273 0.0252514
            vertex 0.0547 -0.0247619 0.0292156
            vertex 0.0547 -0.0310195 0.0382812
        endloop
    endfacet
    facet normal 0.944188 -0.315225 -0.0956191
        outer loop
            vertex 0.0587412 -0.0240983 0.055369
            vertex 0.0547 -0.0310195 0.0382812
            vertex 0.0587129 -0.0195102 0.0399641
        endloop
    endfacet
    facet normal 0.999997 -0.00134689 -0.00223829
        outer loop
            vertex 0.0587412 -0.0240983 0.055369
            vertex 0.0587129 -0.0195102 0.0399641
            vertex 0.0587077 -0.00898562 0.0313075
        endloop
    endfacet
    facet normal 0.588134 -0.522703 0.617155
        outer loop
            vertex 0.043 -0.0218816 0.0906002
            vertex 0.043 -0.0334861 0.0807717
            vertex 0.0547 -0.0227678 0.0786998
        endloop
    endfacet
    facet normal -0.255017 0.49657 0.82969
        outer loop
            vertex 0.0250064 0.0240121 0.0881265
            vertex 0.0159674 0.0276688 0.0831597
            vertex 0.0127729 0.0182727 0.0878014
        endloop
    endfacet
    facet normal 0.614249 0.712649 -0.338866
        outer loop
            vertex 0.0547 0.0333671 0.0442486
            vertex 0.0547 0.0282518 0.0334909
            vertex 0.043 0.0387274 0.0343134
        endloop
    endfacet
    facet normal 0.935296 0.346637 0.0711628
        outer loop
            vertex 0.0587467 0.0213384 0.0644097
            vertex 0.0547 0.0342316 0.0547924
            vertex 0.0547 0.0320984 0.0651833
        endloop
    endfacet
    facet normal 0.905774 0.382699 -0.181974
        outer loop
            vertex 0.0588067 0.023233 0.0433772
            vertex 0.0547 0.0282518 0.0334909
            vertex 0.0547 0.0333671 0.0442486
        endloop
    endfacet
    facet normal 0.00428186 0.999982 -0.00428186
        outer loop
            vertex 0.043 0.0429107 0.0601595
            vertex -0.00715948 0.0429107 0.01
            vertex 0.00605437 0.0430556 0.0570543
        endloop
    endfacet
    facet normal 0.333609 0.881708 -0.333609
        outer loop
            vertex 0.00804693 0.0427531 0.01
            vertex 0.043 0.0427531 0.0449531
            vertex 0.0222699 0.0373716 0.01
        endloop
    endfacet
    facet normal -0.291607 0.956522 0.00554909
        outer loop
            vertex -0.00715948 0.0429107 0.01
            vertex -0.0178442 0.039519 0.0331558
            vertex -0.00654883 0.042897 0.0444511
        endloop
    endfacet
    facet normal 0.688501 0.337034 -0.642164
        outer loop
            vertex 0.0547 0.0206263 0.0255517
            vertex 0.0547 0.0108727 0.0204326
            vertex 0.043 0.0148961 0.01
        endloop
    endfacet
    facet normal 0.592114 0.469052 -0.655279
        outer loop
            vertex 0.0256875 0.0227638 -1.19441e-005
            vertex 0.0315625 0.0293344 0.01
            vertex 0.043 0.0148961 0.01
        endloop
    endfacet
    facet normal 0.94666 0.320683 0.0315876
        outer loop
            vertex 0.0588067 0.023233 0.0433772
            vertex 0.0547 0.0342316 0.0547924
            vertex 0.0587467 0.0213384 0.0644097
        endloop
    endfacet
    facet normal 0.629366 -0.746429 -0.216201
        outer loop
            vertex 0.043 -0.0406886 0.0376046
            vertex 0.0547 -0.0310195 0.0382812
            vertex 0.0547 -0.034084 0.0488613
        endloop
    endfacet
    facet normal -0.756389 0.634801 0.157807
        outer loop
            vertex -0.0272141 0.0314044 0.0364725
            vertex -0.0315335 0.0292415 0.0244696
            vertex -0.0337251 0.0252121 0.0301738
        endloop
    endfacet
    facet normal -0.782201 0.621636 0.0415994
        outer loop
            vertex -0.0331967 0.028117 0.01
            vertex -0.035891 0.0240313 0.0203928
            vertex -0.0315335 0.0292415 0.0244696
        endloop
    endfacet
    facet normal -0.412921 0.59822 -0.686752
        outer loop
            vertex -0.0123693 0.0326193 -1.9128e-005
            vertex -0.0237836 0.024761 -1.35092e-006
            vertex -0.0214912 0.0378248 0.01
        endloop
    endfacet
    facet normal -0.00280539 -0.00278629 -0.999992
        outer loop
            vertex 0.0152388 0.0313014 -6.41962e-006
            vertex 0.0256875 0.0227638 -1.19441e-005
            vertex 0.0331076 0.0110529 -1.30292e-007
        endloop
    endfacet
    facet normal -0.792851 0.555068 0.251568
        outer loop
            vertex -0.0276687 0.0281582 0.042761
            vertex -0.0337251 0.0252121 0.0301738
            vertex -0.0321587 0.0221948 0.041768
        endloop
    endfacet
    facet normal -0.894327 0.195051 0.402659
        outer loop
            vertex -0.037741 0.0126821 0.0384354
            vertex -0.0323245 0.0062006 0.0536054
            vertex -0.0314378 0.0123434 0.0525992
        endloop
    endfacet
    facet normal 0.000329478 -0.00274077 -0.999996
        outer loop
            vertex -0.0123693 0.0326193 -1.9128e-005
            vertex 0.0152388 0.0313014 -6.41962e-006
            vertex -0.0237836 0.024761 -1.35092e-006
        endloop
    endfacet
    facet normal -0.802217 0.587416 0.106727
        outer loop
            vertex -0.035891 0.0240313 0.0203928
            vertex -0.0337251 0.0252121 0.0301738
            vertex -0.0315335 0.0292415 0.0244696
        endloop
    endfacet
    facet normal -0.721317 0.0181121 -0.692368
        outer loop
            vertex -0.0433912 -0.00444774 0.01
            vertex -0.0428413 0.00640502 0.00971101
            vertex -0.0338781 -0.00835 -1.29432e-005
        endloop
    endfacet
    facet normal 0.615663 0.313863 0.722806
        outer loop
            vertex 0.0427392 0.0123744 0.0947191
            vertex 0.0547 0.0082166 0.0863367
            vertex 0.0426128 0.0181823 0.0923048
        endloop
    endfacet
    facet normal -0.314052 0.625898 0.713879
        outer loop
            vertex 0.012505 0.0341518 0.0759525
            vertex 0.00651738 0.0248053 0.081513
            vertex 0.0159674 0.0276688 0.0831597
        endloop
    endfacet
    facet normal -0.695057 0.718552 0.0240509
        outer loop
            vertex -0.0331967 0.028117 0.01
            vertex -0.0315335 0.0292415 0.0244696
            vertex -0.0265257 0.0340854 0.0244743
        endloop
    endfacet
    facet normal -0.863098 0.502297 -0.0525364
        outer loop
            vertex -0.0331967 0.028117 0.01
            vertex -0.0402578 0.0159839 0.01
            vertex -0.039024 0.0186956 0.0156568
        endloop
    endfacet
    facet normal 0.47801 0.754542 -0.449637
        outer loop
            vertex 0.0222699 0.0373716 0.01
            vertex 0.043 0.0387274 0.0343134
            vertex 0.043 0.0331301 0.0249205
        endloop
    endfacet
    facet normal -0.309037 0.250343 0.91751
        outer loop
            vertex 0.0162301 0.00373637 0.0929971
            vertex 0.0209519 0.0161186 0.091209
            vertex 0.00876031 0.00828726 0.0892394
        endloop
    endfacet
    facet normal 0.623342 0.0629174 0.779414
        outer loop
            vertex 0.0428308 0.000620138 0.0964424
            vertex 0.0547 -0.00276277 0.087223
            vertex 0.0547 0.0082166 0.0863367
        endloop
    endfacet
    facet normal -0.142683 0.422771 0.894934
        outer loop
            vertex 0.0300933 0.0150442 0.093174
            vertex 0.0250064 0.0240121 0.0881265
            vertex 0.0209519 0.0161186 0.091209
        endloop
    endfacet
    facet normal -0.23354 -0.419058 0.877411
        outer loop
            vertex 0.0162443 -0.0152568 0.0901184
            vertex 0.0138183 -0.020961 0.0867483
            vertex 0.0251199 -0.0196102 0.0904016
        endloop
    endfacet
    facet normal -0.0472955 -0.252138 0.966535
        outer loop
            vertex 0.0361965 -0.0165023 0.0930896
            vertex 0.043 -0.00845807 0.095521
            vertex 0.0281123 -0.00934166 0.094562
        endloop
    endfacet
    facet normal -0.510129 -0.376287 0.773419
        outer loop
            vertex -0.00671969 -0.0231641 0.074853
            vertex 0.00195744 -0.018282 0.0829515
            vertex -0.00661699 -0.0128163 0.0799552
        endloop
    endfacet
    facet normal 0.040755 -0.645762 0.76245
        outer loop
            vertex 0.0302573 -0.027732 0.0863263
            vertex 0.043 -0.0334861 0.0807717
            vertex 0.043 -0.0218816 0.0906002
        endloop
    endfacet
    facet normal -0.478426 -0.200145 0.855015
        outer loop
            vertex -0.00767603 -0.00655916 0.0808273
            vertex -0.00661699 -0.0128163 0.0799552
            vertex 0.00702081 -0.0114474 0.0879067
        endloop
    endfacet
    facet normal 0.0712291 -0.343309 0.936518
        outer loop
            vertex 0.0361965 -0.0165023 0.0930896
            vertex 0.043 -0.0218816 0.0906002
            vertex 0.043 -0.00845807 0.095521
        endloop
    endfacet
    facet normal 0.0144621 -0.94232 0.334401
        outer loop
            vertex 0.0111123 -0.0427071 0.0621123
            vertex 0.043 -0.0429107 0.0601595
            vertex 0.043 -0.0391061 0.0708806
        endloop
    endfacet
    facet normal -0.0870681 -0.717169 -0.691438
        outer loop
            vertex -0.00715948 -0.0429107 0.01
            vertex -0.00955165 -0.0329759 -3.2797e-006
            vertex 0.00138265 -0.0343047 -1.91169e-006
        endloop
    endfacet
    facet normal -0.700064 -0.621139 0.352274
        outer loop
            vertex -0.0287704 -0.0292105 0.038188
            vertex -0.0195666 -0.0337337 0.048503
            vertex -0.0285699 -0.0247951 0.0463718
        endloop
    endfacet
    facet normal -0.651904 -0.342153 -0.676722
        outer loop
            vertex -0.0403381 -0.0158457 0.01
            vertex -0.0338781 -0.00835 -1.29432e-005
            vertex -0.0274472 -0.0206255 -1.45465e-006
        endloop
    endfacet
    facet normal -0.492268 -0.0682857 0.867761
        outer loop
            vertex -0.00961783 0.000786495 0.0803164
            vertex 0.00649013 -0.00570597 0.0889433
            vertex 0.00544193 0.000221278 0.0888151
        endloop
    endfacet
    facet normal -0.860381 0.327243 0.390714
        outer loop
            vertex -0.037741 0.0126821 0.0384354
            vertex -0.0314378 0.0123434 0.0525992
            vertex -0.0297991 0.0183192 0.0512027
        endloop
    endfacet
    facet normal -0.940038 -0.179535 0.289991
        outer loop
            vertex -0.0383049 -0.00267743 0.0415835
            vertex -0.0389881 -0.0118079 0.0337161
            vertex -0.0362169 -0.0127713 0.0421028
        endloop
    endfacet
    facet normal -0.372589 -0.654749 0.657633
        outer loop
            vertex 0.00534182 -0.0265511 0.0797659
            vertex -0.00114863 -0.0305491 0.0721082
            vertex 0.00378702 -0.0351679 0.070306
        endloop
    endfacet
    facet normal -0.481375 -0.857544 0.181374
        outer loop
            vertex -0.0218451 -0.0371808 0.0334229
            vertex -0.0162628 -0.0400364 0.0347372
            vertex -0.0124613 -0.0398987 0.0454776
        endloop
    endfacet
    facet normal 0.0120507 -0.869391 0.493977
        outer loop
            vertex 0.043 -0.0334861 0.0807717
            vertex 0.0214682 -0.0385025 0.0724682
            vertex 0.043 -0.0391061 0.0708806
        endloop
    endfacet
    facet normal -0.185047 0.0541659 0.981236
        outer loop
            vertex 0.0162301 0.00373637 0.0929971
            vertex 0.0271638 -0.0027863 0.0954191
            vertex 0.0287145 0.00760176 0.0951381
        endloop
    endfacet
    facet normal -0.402886 -0.854141 0.328824
        outer loop
            vertex -0.0124613 -0.0398987 0.0454776
            vertex -0.00546315 -0.0431768 0.0455369
            vertex -0.00380369 -0.0402431 0.0551906
        endloop
    endfacet
    facet normal 0.0078629 -0.999938 -0.00786289
        outer loop
            vertex -0.00546315 -0.0431768 0.0455369
            vertex -0.00715948 -0.0429107 0.01
            vertex 0.043 -0.0429107 0.0601595
        endloop
    endfacet
    facet normal -0.967445 -0.011657 0.252813
        outer loop
            vertex -0.0383049 -0.00267743 0.0415835
            vertex -0.0388745 0.00360779 0.0396936
            vertex -0.0415608 0.00406836 0.0294351
        endloop
    endfacet
    facet normal -0.682071 -0.604644 0.41132
        outer loop
            vertex -0.0169593 -0.0297662 0.0586588
            vertex -0.0251472 -0.0234168 0.0544149
            vertex -0.0195666 -0.0337337 0.048503
        endloop
    endfacet
    facet normal -0.388079 -0.818908 0.42283
        outer loop
            vertex -0.0109584 -0.0354616 0.0578844
            vertex -0.00380369 -0.0402431 0.0551906
            vertex 0.00347193 -0.0411083 0.0601926
        endloop
    endfacet
    facet normal 0.5946 -0.690689 -0.411583
        outer loop
            vertex 0.043 -0.0406886 0.0376046
            vertex 0.043 -0.0333273 0.0252514
            vertex 0.0547 -0.0310195 0.0382812
        endloop
    endfacet
    facet normal -0.254067 -0.715945 -0.650287
        outer loop
            vertex -0.00715948 -0.0429107 0.01
            vertex -0.0178806 -0.0391061 0.01
            vertex -0.00955165 -0.0329759 -3.2797e-006
        endloop
    endfacet
    facet normal -0.666691 0.650321 0.364152
        outer loop
            vertex -0.017326 0.0351684 0.0491773
            vertex -0.0276687 0.0281582 0.042761
            vertex -0.0191586 0.0305475 0.0540744
        endloop
    endfacet
    facet normal -0.806744 0.0707652 0.586648
        outer loop
            vertex -0.0226583 -0.000572196 0.068081
            vertex -0.0251196 0.0099875 0.0634225
            vertex -0.0297061 -0.000709512 0.0584056
        endloop
    endfacet
    facet normal -0.696268 0.20851 -0.68683
        outer loop
            vertex -0.0428413 0.00640502 0.00971101
            vertex -0.0402578 0.0159839 0.01
            vertex -0.0303991 0.0159545 -3.09557e-006
        endloop
    endfacet
    facet normal -0.853712 -0.51979 -0.0315265
        outer loop
            vertex -0.0394038 -0.0180794 0.015002
            vertex -0.0351239 -0.0248054 0.01
            vertex -0.036427 -0.0232175 0.0191065
        endloop
    endfacet
    facet normal -0.2619 0.738015 -0.621886
        outer loop
            vertex -0.0123693 0.0326193 -1.9128e-005
            vertex -0.0214912 0.0378248 0.01
            vertex -0.00715948 0.0429107 0.01
        endloop
    endfacet
    facet normal -0.818568 0.0845057 0.56816
        outer loop
            vertex -0.0251196 0.0099875 0.0634225
            vertex -0.0323245 0.0062006 0.0536054
            vertex -0.0297061 -0.000709512 0.0584056
        endloop
    endfacet
    facet normal -0.68536 0.0237655 0.727816
        outer loop
            vertex -0.0170817 0.00854764 0.0730345
            vertex -0.0226583 -0.000572196 0.068081
            vertex -0.00961783 0.000786495 0.0803164
        endloop
    endfacet
    facet normal -0.0402537 0.412647 0.910001
        outer loop
            vertex 0.0300933 0.0150442 0.093174
            vertex 0.0426128 0.0181823 0.0923048
            vertex 0.0351233 0.0216135 0.0904176
        endloop
    endfacet
    facet normal -0.0733343 0.037905 0.996587
        outer loop
            vertex 0.0287145 0.00760176 0.0951381
            vertex 0.0271638 -0.0027863 0.0954191
            vertex 0.0428308 0.000620138 0.0964424
        endloop
    endfacet
    facet normal -0.293816 0.501792 0.813558
        outer loop
            vertex 0.0127729 0.0182727 0.0878014
            vertex 0.0159674 0.0276688 0.0831597
            vertex 0.00651738 0.0248053 0.081513
        endloop
    endfacet
    facet normal -0.634178 0.335752 0.696483
        outer loop
            vertex -0.0170817 0.00854764 0.0730345
            vertex -0.00874615 0.0149017 0.0775613
            vertex -0.0197461 0.0190697 0.0655361
        endloop
    endfacet
    facet normal -0.422713 0.797432 0.4306
        outer loop
            vertex -0.00279724 0.0408921 0.0550294
            vertex -0.00838827 0.0355644 0.0594072
            vertex 0.00225959 0.0384617 0.0644945
        endloop
    endfacet
    facet normal -0.570754 0.819062 0.0581174
        outer loop
            vertex -0.0178442 0.039519 0.0331558
            vertex -0.0265257 0.0340854 0.0244743
            vertex -0.024104 0.0351348 0.0334677
        endloop
    endfacet
    facet normal -0.938874 -0.310428 0.148829
        outer loop
            vertex -0.0410479 -0.00858735 0.0287729
            vertex -0.0416525 -0.0108184 0.0203053
            vertex -0.0389003 -0.017387 0.0239665
        endloop
    endfacet
    facet normal -0.934394 -0.347301 0.0793059
        outer loop
            vertex -0.0394038 -0.0180794 0.015002
            vertex -0.0389003 -0.017387 0.0239665
            vertex -0.0416525 -0.0108184 0.0203053
        endloop
    endfacet
    facet normal 0.466761 -0.571681 -0.67477
        outer loop
            vertex 0.0149598 -0.0315273 -8.07052e-006
            vertex 0.0256864 -0.0227635 -1.30255e-005
            vertex 0.0222699 -0.0373716 0.01
        endloop
    endfacet
    facet normal -0.22059 -0.157765 0.962523
        outer loop
            vertex 0.0271638 -0.0027863 0.0954191
            vertex 0.0172265 -0.00785673 0.0923106
            vertex 0.0281123 -0.00934166 0.094562
        endloop
    endfacet
    facet normal -0.112834 -0.431776 0.894895
        outer loop
            vertex 0.0361965 -0.0165023 0.0930896
            vertex 0.0331275 -0.0157347 0.093073
            vertex 0.0317742 -0.0235825 0.0891159
        endloop
    endfacet
    facet normal -0.0588844 -0.828095 0.557487
        outer loop
            vertex 0.0181018 -0.0363837 0.0752599
            vertex 0.0214682 -0.0385025 0.0724682
            vertex 0.0265243 -0.0337713 0.08003
        endloop
    endfacet
    facet normal -0.49272 -0.0699218 0.867374
        outer loop
            vertex -0.00961783 0.000786495 0.0803164
            vertex -0.00767603 -0.00655916 0.0808273
            vertex 0.00649013 -0.00570597 0.0889433
        endloop
    endfacet
    facet normal -0.0460249 -0.466893 0.883115
        outer loop
            vertex 0.0361965 -0.0165023 0.0930896
            vertex 0.0317742 -0.0235825 0.0891159
            vertex 0.043 -0.0218816 0.0906002
        endloop
    endfacet
    facet normal -0.579755 -0.491029 -0.650211
        outer loop
            vertex -0.0277717 -0.0334861 0.01
            vertex -0.0351239 -0.0248054 0.01
            vertex -0.0274472 -0.0206255 -1.45465e-006
        endloop
    endfacet
    facet normal -0.265561 -0.918937 0.291602
        outer loop
            vertex 0.0111123 -0.0427071 0.0621123
            vertex 0.00347193 -0.0411083 0.0601926
            vertex -0.00546315 -0.0431768 0.0455369
        endloop
    endfacet
    facet normal -0.944069 -0.171852 0.281425
        outer loop
            vertex -0.0383049 -0.00267743 0.0415835
            vertex -0.0410479 -0.00858735 0.0287729
            vertex -0.0389881 -0.0118079 0.0337161
        endloop
    endfacet
    facet normal -0.583275 0.181841 0.791659
        outer loop
            vertex -0.0170817 0.00854764 0.0730345
            vertex -0.00961783 0.000786495 0.0803164
            vertex -0.00246659 0.00779558 0.0839753
        endloop
    endfacet
    facet normal -0.896864 -0.437061 0.0679153
        outer loop
            vertex -0.0361839 -0.0222339 0.0286466
            vertex -0.0389003 -0.017387 0.0239665
            vertex -0.036427 -0.0232175 0.0191065
        endloop
    endfacet
    facet normal -0.445015 -0.695608 0.563996
        outer loop
            vertex -0.0101637 -0.0291399 0.066733
            vertex 0.00378702 -0.0351679 0.070306
            vertex -0.00114863 -0.0305491 0.0721082
        endloop
    endfacet
    facet normal -0.80273 -0.1091 0.586277
        outer loop
            vertex -0.0226583 -0.000572196 0.068081
            vertex -0.0297061 -0.000709512 0.0584056
            vertex -0.0235871 -0.011706 0.0647374
        endloop
    endfacet
    facet normal -0.289645 -0.602855 0.743419
        outer loop
            vertex 0.00534182 -0.0265511 0.0797659
            vertex 0.0162876 -0.0314665 0.0800445
            vertex 0.016979 -0.0258557 0.0848638
        endloop
    endfacet
    facet normal -0.477098 -0.59895 0.643145
        outer loop
            vertex -0.00671969 -0.0231641 0.074853
            vertex -0.0101637 -0.0291399 0.066733
            vertex -0.00114863 -0.0305491 0.0721082
        endloop
    endfacet
    facet normal -0.843871 -0.112605 0.524596
        outer loop
            vertex -0.0282359 -0.0113747 0.0584813
            vertex -0.0297061 -0.000709512 0.0584056
            vertex -0.0340501 -0.0022534 0.0510864
        endloop
    endfacet
    facet normal -0.735272 1.55385e-005 -0.677772
        outer loop
            vertex -0.0428413 0.00640502 0.00971101
            vertex -0.0338884 0.00550739 -1.45122e-006
            vertex -0.0338781 -0.00835 -1.29432e-005
        endloop
    endfacet
    facet normal -0.929627 -0.323384 0.176682
        outer loop
            vertex -0.0410479 -0.00858735 0.0287729
            vertex -0.0389003 -0.017387 0.0239665
            vertex -0.0389881 -0.0118079 0.0337161
        endloop
    endfacet
    facet normal -0.77926 0.337147 0.528286
        outer loop
            vertex -0.0251196 0.0099875 0.0634225
            vertex -0.0297991 0.0183192 0.0512027
            vertex -0.0314378 0.0123434 0.0525992
        endloop
    endfacet
    facet normal -0.762882 -0.64613 -0.0229427
        outer loop
            vertex -0.0321194 -0.0289017 0.0254587
            vertex -0.0351239 -0.0248054 0.01
            vertex -0.0277717 -0.0334861 0.01
        endloop
    endfacet
    facet normal 0.00789028 -0.76132 -0.648328
        outer loop
            vertex -0.00715948 -0.0429107 0.01
            vertex 0.00138265 -0.0343047 -1.91169e-006
            vertex 0.00804693 -0.0427531 0.01
        endloop
    endfacet
    facet normal -0.318618 -0.512697 0.79726
        outer loop
            vertex 0.00534182 -0.0265511 0.0797659
            vertex 0.016979 -0.0258557 0.0848638
            vertex 0.0138183 -0.020961 0.0867483
        endloop
    endfacet
    facet normal -0.861989 0.0250844 0.506306
        outer loop
            vertex -0.0323245 0.0062006 0.0536054
            vertex -0.0340501 -0.0022534 0.0510864
            vertex -0.0297061 -0.000709512 0.0584056
        endloop
    endfacet
    facet normal -0.701417 -0.712613 0.0140603
        outer loop
            vertex -0.0276536 -0.0332449 0.0281163
            vertex -0.0321194 -0.0289017 0.0254587
            vertex -0.0277717 -0.0334861 0.01
        endloop
    endfacet
    facet normal -0.588171 -0.511847 0.626153
        outer loop
            vertex -0.00671969 -0.0231641 0.074853
            vertex -0.0176322 -0.0199347 0.0672423
            vertex -0.0101637 -0.0291399 0.066733
        endloop
    endfacet
    facet normal -0.385442 -0.790338 0.476236
        outer loop
            vertex -0.0109584 -0.0354616 0.0578844
            vertex 0.00347193 -0.0411083 0.0601926
            vertex 0.00378702 -0.0351679 0.070306
        endloop
    endfacet
    facet normal -0.738539 -0.650143 0.178533
        outer loop
            vertex -0.0287704 -0.0292105 0.038188
            vertex -0.0321194 -0.0289017 0.0254587
            vertex -0.0276536 -0.0332449 0.0281163
        endloop
    endfacet
    facet normal -0.810938 -0.41183 0.415663
        outer loop
            vertex -0.0251472 -0.0234168 0.0544149
            vertex -0.0321442 -0.0135595 0.0505305
            vertex -0.0285699 -0.0247951 0.0463718
        endloop
    endfacet
    facet normal -0.60033 -0.348878 0.719645
        outer loop
            vertex -0.0184914 -0.0106278 0.0711105
            vertex -0.00671969 -0.0231641 0.074853
            vertex -0.00661699 -0.0128163 0.0799552
        endloop
    endfacet
    facet normal -0.691612 0.714914 0.102814
        outer loop
            vertex -0.024104 0.0351348 0.0334677
            vertex -0.0265257 0.0340854 0.0244743
            vertex -0.0315335 0.0292415 0.0244696
        endloop
    endfacet
    facet normal -0.51188 0.750406 0.418174
        outer loop
            vertex -0.0127563 0.0392114 0.0475159
            vertex -0.017326 0.0351684 0.0491773
            vertex -0.00838827 0.0355644 0.0594072
        endloop
    endfacet
    facet normal -0.78103 0.576139 0.240949
        outer loop
            vertex -0.0276687 0.0281582 0.042761
            vertex -0.0272141 0.0314044 0.0364725
            vertex -0.0337251 0.0252121 0.0301738
        endloop
    endfacet
    facet normal -0.638196 0.769525 -0.0231745
        outer loop
            vertex -0.0331967 0.028117 0.01
            vertex -0.0265257 0.0340854 0.0244743
            vertex -0.0214912 0.0378248 0.01
        endloop
    endfacet
    facet normal -0.588185 0.768419 0.252132
        outer loop
            vertex -0.0127563 0.0392114 0.0475159
            vertex -0.024104 0.0351348 0.0334677
            vertex -0.017326 0.0351684 0.0491773
        endloop
    endfacet
    facet normal -0.954001 0.154769 0.256764
        outer loop
            vertex -0.037741 0.0126821 0.0384354
            vertex -0.0415608 0.00406836 0.0294351
            vertex -0.0388745 0.00360779 0.0396936
        endloop
    endfacet
    facet normal -0.772118 0.496247 0.396954
        outer loop
            vertex -0.0232779 0.0251016 0.0554082
            vertex -0.0321587 0.0221948 0.041768
            vertex -0.0297991 0.0183192 0.0512027
        endloop
    endfacet
    facet normal 0.613759 0.30945 0.72632
        outer loop
            vertex 0.0426128 0.0181823 0.0923048
            vertex 0.0547 0.0082166 0.0863367
            vertex 0.0547 0.0183203 0.082032
        endloop
    endfacet
    facet normal -0.1724 -0.629507 0.757628
        outer loop
            vertex 0.0302573 -0.027732 0.0863263
            vertex 0.016979 -0.0258557 0.0848638
            vertex 0.0162876 -0.0314665 0.0800445
        endloop
    endfacet
    facet normal -0.245564 0.875811 0.415517
        outer loop
            vertex 0.00225959 0.0384617 0.0644945
            vertex 0.00675611 0.0379278 0.0682772
            vertex 0.00605437 0.0430556 0.0570543
        endloop
    endfacet
    facet normal -0.423898 0.183558 0.886914
        outer loop
            vertex -0.00246659 0.00779558 0.0839753
            vertex 0.00876031 0.00828726 0.0892394
            vertex 0.0023028 0.0135677 0.0850602
        endloop
    endfacet
    facet normal -0.390858 0.112746 0.91352
        outer loop
            vertex 0.0162301 0.00373637 0.0929971
            vertex 0.00876031 0.00828726 0.0892394
            vertex 0.00544193 0.000221278 0.0888151
        endloop
    endfacet
    facet normal -0.0148069 0.975009 0.221671
        outer loop
            vertex 0.0167839 0.0407457 0.067931
            vertex 0.043 0.0429107 0.0601595
            vertex 0.00605437 0.0430556 0.0570543
        endloop
    endfacet
    facet normal -0.370285 0.751362 0.546209
        outer loop
            vertex 4.48256e-005 0.032404 0.071326
            vertex 0.00675611 0.0379278 0.0682772
            vertex 0.00225959 0.0384617 0.0644945
        endloop
    endfacet
    facet normal -0.301289 0.872367 0.384969
        outer loop
            vertex -0.00279724 0.0408921 0.0550294
            vertex 0.00225959 0.0384617 0.0644945
            vertex 0.00605437 0.0430556 0.0570543
        endloop
    endfacet
    facet normal -0.0870415 0.717191 -0.69142
        outer loop
            vertex -0.0123693 0.0326193 -1.9128e-005
            vertex -0.00715948 0.0429107 0.01
            vertex 0.00205307 0.0343848 -3.43037e-006
        endloop
    endfacet
    facet normal -0.639023 0.600948 0.480115
        outer loop
            vertex -0.0133709 0.0283264 0.0645578
            vertex -0.0191586 0.0305475 0.0540744
            vertex -0.0232779 0.0251016 0.0554082
        endloop
    endfacet
    facet normal -0.623232 0.734928 0.267325
        outer loop
            vertex -0.024104 0.0351348 0.0334677
            vertex -0.0272141 0.0314044 0.0364725
            vertex -0.017326 0.0351684 0.0491773
        endloop
    endfacet
    facet normal -0.0282449 0.785117 0.618703
        outer loop
            vertex 0.043 0.0334861 0.0807717
            vertex 0.0246514 0.0367989 0.0757302
            vertex 0.0293135 0.0318149 0.0822676
        endloop
    endfacet
    facet normal -0.425839 -0.83437 0.349984
        outer loop
            vertex -0.0109584 -0.0354616 0.0578844
            vertex -0.0124613 -0.0398987 0.0454776
            vertex -0.00380369 -0.0402431 0.0551906
        endloop
    endfacet
    facet normal -0.441375 -0.585647 0.679857
        outer loop
            vertex -0.00671969 -0.0231641 0.074853
            vertex -0.00114863 -0.0305491 0.0721082
            vertex 0.00534182 -0.0265511 0.0797659
        endloop
    endfacet
    facet normal -0.019028 -0.715892 0.697952
        outer loop
            vertex 0.0302573 -0.027732 0.0863263
            vertex 0.0265243 -0.0337713 0.08003
            vertex 0.043 -0.0334861 0.0807717
        endloop
    endfacet
    facet normal -0.624065 -0.537693 0.566948
        outer loop
            vertex -0.0176322 -0.0199347 0.0672423
            vertex -0.0169593 -0.0297662 0.0586588
            vertex -0.0101637 -0.0291399 0.066733
        endloop
    endfacet
    facet normal -0.645695 -0.717405 0.261549
        outer loop
            vertex -0.0218451 -0.0371808 0.0334229
            vertex -0.0195666 -0.0337337 0.048503
            vertex -0.0287704 -0.0292105 0.038188
        endloop
    endfacet
    facet normal -0.862575 -0.501985 -0.0630511
        outer loop
            vertex -0.0394038 -0.0180794 0.015002
            vertex -0.0403381 -0.0158457 0.01
            vertex -0.0351239 -0.0248054 0.01
        endloop
    endfacet
    facet normal -0.893284 -0.171022 0.415686
        outer loop
            vertex -0.0362169 -0.0127713 0.0421028
            vertex -0.0321442 -0.0135595 0.0505305
            vertex -0.0340501 -0.0022534 0.0510864
        endloop
    endfacet
    facet normal -0.930723 0.364635 0.0282044
        outer loop
            vertex -0.0411001 0.0129607 0.0212896
            vertex -0.039024 0.0186956 0.0156568
            vertex -0.0402578 0.0159839 0.01
        endloop
    endfacet
    facet normal -0.345873 0.6334 0.692225
        outer loop
            vertex 4.48256e-005 0.032404 0.071326
            vertex 0.00651738 0.0248053 0.081513
            vertex 0.012505 0.0341518 0.0759525
        endloop
    endfacet
    facet normal -0.790399 -0.368085 0.489676
        outer loop
            vertex -0.0251472 -0.0234168 0.0544149
            vertex -0.0282359 -0.0113747 0.0584813
            vertex -0.0321442 -0.0135595 0.0505305
        endloop
    endfacet
    facet normal -0.8702 0.420972 0.255998
        outer loop
            vertex -0.037741 0.0126821 0.0384354
            vertex -0.0321587 0.0221948 0.041768
            vertex -0.0378044 0.0193832 0.0272004
        endloop
    endfacet
    facet normal -0.97141 -0.0514947 0.231754
        outer loop
            vertex -0.0383049 -0.00267743 0.0415835
            vertex -0.0415608 0.00406836 0.0294351
            vertex -0.0410479 -0.00858735 0.0287729
        endloop
    endfacet
    facet normal -0.443059 -0.474386 0.760695
        outer loop
            vertex -0.00671969 -0.0231641 0.074853
            vertex 0.00534182 -0.0265511 0.0797659
            vertex 0.00195744 -0.018282 0.0829515
        endloop
    endfacet
    facet normal -0.90739 0.0613216 0.415792
        outer loop
            vertex -0.0388745 0.00360779 0.0396936
            vertex -0.0340501 -0.0022534 0.0510864
            vertex -0.0323245 0.0062006 0.0536054
        endloop
    endfacet
    facet normal -0.903617 0.167534 0.39422
        outer loop
            vertex -0.037741 0.0126821 0.0384354
            vertex -0.0388745 0.00360779 0.0396936
            vertex -0.0323245 0.0062006 0.0536054
        endloop
    endfacet
    facet normal 0.0103634 -0.999893 -0.0103634
        outer loop
            vertex -0.00715948 -0.0429107 0.01
            vertex 0.043 -0.0427928 0.0487843
            vertex 0.043 -0.0429107 0.0601595
        endloop
    endfacet
    facet normal -0.0043788 -0.999456 0.0327005
        outer loop
            vertex 0.0111123 -0.0427071 0.0621123
            vertex -0.00546315 -0.0431768 0.0455369
            vertex 0.043 -0.0429107 0.0601595
        endloop
    endfacet
    facet normal -0.79305 -0.609114 -0.00727065
        outer loop
            vertex -0.0321194 -0.0289017 0.0254587
            vertex -0.036427 -0.0232175 0.0191065
            vertex -0.0351239 -0.0248054 0.01
        endloop
    endfacet
    facet normal -0.454713 -0.89063 -0.00375614
        outer loop
            vertex -0.0218451 -0.0371808 0.0334229
            vertex -0.0178806 -0.0391061 0.01
            vertex -0.0162628 -0.0400364 0.0347372
        endloop
    endfacet
    facet normal -0.818298 -0.51184 0.26155
        outer loop
            vertex -0.0361839 -0.0222339 0.0286466
            vertex -0.0287704 -0.0292105 0.038188
            vertex -0.0329664 -0.0215778 0.039997
        endloop
    endfacet
    facet normal -0.446195 -0.708752 0.546426
        outer loop
            vertex -0.0109584 -0.0354616 0.0578844
            vertex 0.00378702 -0.0351679 0.070306
            vertex -0.0101637 -0.0291399 0.066733
        endloop
    endfacet
    facet normal -0.955635 0.224347 0.190867
        outer loop
            vertex -0.037741 0.0126821 0.0384354
            vertex -0.0411001 0.0129607 0.0212896
            vertex -0.0415608 0.00406836 0.0294351
        endloop
    endfacet
    facet normal -0.707779 0.694451 0.129565
        outer loop
            vertex -0.024104 0.0351348 0.0334677
            vertex -0.0315335 0.0292415 0.0244696
            vertex -0.0272141 0.0314044 0.0364725
        endloop
    endfacet
    facet normal -0.149025 -0.333705 0.930824
        outer loop
            vertex 0.0281123 -0.00934166 0.094562
            vertex 0.0251199 -0.0196102 0.0904016
            vertex 0.0331275 -0.0157347 0.093073
        endloop
    endfacet
    facet normal -0.232644 0.879019 0.416175
        outer loop
            vertex 0.0167839 0.0407457 0.067931
            vertex 0.00605437 0.0430556 0.0570543
            vertex 0.00675611 0.0379278 0.0682772
        endloop
    endfacet
    facet normal -0.756149 0.411547 0.508791
        outer loop
            vertex -0.0197461 0.0190697 0.0655361
            vertex -0.0232779 0.0251016 0.0554082
            vertex -0.0297991 0.0183192 0.0512027
        endloop
    endfacet
    facet normal -0.0569799 0.553394 0.830968
        outer loop
            vertex 0.0250064 0.0240121 0.0881265
            vertex 0.0351233 0.0216135 0.0904176
            vertex 0.0324316 0.0267751 0.0867956
        endloop
    endfacet
    facet normal -0.0319229 0.38306 0.923172
        outer loop
            vertex 0.0427392 0.0123744 0.0947191
            vertex 0.0426128 0.0181823 0.0923048
            vertex 0.0300933 0.0150442 0.093174
        endloop
    endfacet
    facet normal -0.237009 0.456609 0.857517
        outer loop
            vertex 0.0209519 0.0161186 0.091209
            vertex 0.0250064 0.0240121 0.0881265
            vertex 0.0127729 0.0182727 0.0878014
        endloop
    endfacet
    facet normal 0.0245385 0.646106 0.762853
        outer loop
            vertex 0.043 0.0334861 0.0807717
            vertex 0.0324316 0.0267751 0.0867956
            vertex 0.043 0.0248054 0.0881239
        endloop
    endfacet
    facet normal 0.0213079 0.942204 0.33436
        outer loop
            vertex 0.0167839 0.0407457 0.067931
            vertex 0.043 0.0391061 0.0708806
            vertex 0.043 0.0429107 0.0601595
        endloop
    endfacet
    facet normal -0.287283 0.917298 0.27574
        outer loop
            vertex -0.00279724 0.0408921 0.0550294
            vertex 0.00605437 0.0430556 0.0570543
            vertex -0.00654883 0.042897 0.0444511
        endloop
    endfacet
    facet normal -0.319536 -0.673792 0.666259
        outer loop
            vertex 0.00534182 -0.0265511 0.0797659
            vertex 0.00378702 -0.0351679 0.070306
            vertex 0.0162876 -0.0314665 0.0800445
        endloop
    endfacet
    facet normal -0.263338 -0.778364 0.569914
        outer loop
            vertex 0.0181018 -0.0363837 0.0752599
            vertex 0.00378702 -0.0351679 0.070306
            vertex 0.00950289 -0.0388942 0.0678579
        endloop
    endfacet
    facet normal -0.149338 -0.667866 0.729146
        outer loop
            vertex 0.0302573 -0.027732 0.0863263
            vertex 0.0162876 -0.0314665 0.0800445
            vertex 0.0265243 -0.0337713 0.08003
        endloop
    endfacet
    facet normal -0.144318 -0.515201 0.844831
        outer loop
            vertex 0.0302573 -0.027732 0.0863263
            vertex 0.0317742 -0.0235825 0.0891159
            vertex 0.0251199 -0.0196102 0.0904016
        endloop
    endfacet
    facet normal -0.98762 -0.119231 0.101933
        outer loop
            vertex -0.0430238 0.00161695 0.0215646
            vertex -0.0416525 -0.0108184 0.0203053
            vertex -0.0410479 -0.00858735 0.0287729
        endloop
    endfacet
    facet normal -0.965942 -0.258741 0.00302106
        outer loop
            vertex -0.0433912 -0.00444774 0.01
            vertex -0.0403381 -0.0158457 0.01
            vertex -0.0416525 -0.0108184 0.0203053
        endloop
    endfacet
    facet normal -0.834395 -0.545687 0.077523
        outer loop
            vertex -0.0361839 -0.0222339 0.0286466
            vertex -0.036427 -0.0232175 0.0191065
            vertex -0.0321194 -0.0289017 0.0254587
        endloop
    endfacet
    facet normal -0.493977 -0.86939 -0.0121476
        outer loop
            vertex -0.0218451 -0.0371808 0.0334229
            vertex -0.0277717 -0.0334861 0.01
            vertex -0.0178806 -0.0391061 0.01
        endloop
    endfacet
    facet normal -0.793383 -0.576731 0.194743
        outer loop
            vertex -0.0361839 -0.0222339 0.0286466
            vertex -0.0321194 -0.0289017 0.0254587
            vertex -0.0287704 -0.0292105 0.038188
        endloop
    endfacet
    facet normal -0.98854 -0.118483 0.0935403
        outer loop
            vertex -0.0433912 -0.00444774 0.01
            vertex -0.0416525 -0.0108184 0.0203053
            vertex -0.0430238 0.00161695 0.0215646
        endloop
    endfacet
    facet normal -0.800802 -0.106207 0.589437
        outer loop
            vertex -0.0235871 -0.011706 0.0647374
            vertex -0.0297061 -0.000709512 0.0584056
            vertex -0.0282359 -0.0113747 0.0584813
        endloop
    endfacet
    facet normal -0.484214 0.583857 -0.65165
        outer loop
            vertex -0.0331967 0.028117 0.01
            vertex -0.0214912 0.0378248 0.01
            vertex -0.0237836 0.024761 -1.35092e-006
        endloop
    endfacet
    facet normal -0.692123 -0.602301 0.397742
        outer loop
            vertex -0.0195666 -0.0337337 0.048503
            vertex -0.0251472 -0.0234168 0.0544149
            vertex -0.0285699 -0.0247951 0.0463718
        endloop
    endfacet
    facet normal -0.879842 -0.389778 0.27194
        outer loop
            vertex -0.0361839 -0.0222339 0.0286466
            vertex -0.0329664 -0.0215778 0.039997
            vertex -0.0362169 -0.0127713 0.0421028
        endloop
    endfacet
    facet normal -0.984337 0.168206 0.0527892
        outer loop
            vertex -0.0411001 0.0129607 0.0212896
            vertex -0.0428413 0.00640502 0.00971101
            vertex -0.0430238 0.00161695 0.0215646
        endloop
    endfacet
    facet normal -0.912634 0.0396282 0.406852
        outer loop
            vertex -0.0383049 -0.00267743 0.0415835
            vertex -0.0340501 -0.0022534 0.0510864
            vertex -0.0388745 0.00360779 0.0396936
        endloop
    endfacet
    facet normal -0.912892 0.401707 0.0725207
        outer loop
            vertex -0.0378044 0.0193832 0.0272004
            vertex -0.039024 0.0186956 0.0156568
            vertex -0.0411001 0.0129607 0.0212896
        endloop
    endfacet
    facet normal -0.0197483 0.144881 0.989252
        outer loop
            vertex 0.0427392 0.0123744 0.0947191
            vertex 0.0287145 0.00760176 0.0951381
            vertex 0.0428308 0.000620138 0.0964424
        endloop
    endfacet
    facet normal -0.49116 0.368578 0.789247
        outer loop
            vertex -0.00874615 0.0149017 0.0775613
            vertex 0.0023028 0.0135677 0.0850602
            vertex -0.00153641 0.0234206 0.0780697
        endloop
    endfacet
    facet normal -0.665862 0.515579 0.539264
        outer loop
            vertex -0.0133709 0.0283264 0.0645578
            vertex -0.0232779 0.0251016 0.0554082
            vertex -0.0197461 0.0190697 0.0655361
        endloop
    endfacet
    facet normal -0.356231 0.27189 0.893966
        outer loop
            vertex 0.0127729 0.0182727 0.0878014
            vertex 0.0023028 0.0135677 0.0850602
            vertex 0.00876031 0.00828726 0.0892394
        endloop
    endfacet
    facet normal -0.639269 -0.116118 0.760165
        outer loop
            vertex -0.00961783 0.000786495 0.0803164
            vertex -0.0184914 -0.0106278 0.0711105
            vertex -0.00767603 -0.00655916 0.0808273
        endloop
    endfacet
    facet normal -0.325909 0.728527 0.602521
        outer loop
            vertex 4.48256e-005 0.032404 0.071326
            vertex 0.012505 0.0341518 0.0759525
            vertex 0.00675611 0.0379278 0.0682772
        endloop
    endfacet
    facet normal -0.180599 0.605914 0.774759
        outer loop
            vertex 0.0250064 0.0240121 0.0881265
            vertex 0.0232237 0.0318877 0.0815517
            vertex 0.0159674 0.0276688 0.0831597
        endloop
    endfacet
    facet normal 0.0046156 0.576013 0.817428
        outer loop
            vertex 0.0351233 0.0216135 0.0904176
            vertex 0.043 0.0248054 0.0881239
            vertex 0.0324316 0.0267751 0.0867956
        endloop
    endfacet
    facet normal -0.0956143 0.446501 0.88966
        outer loop
            vertex 0.0300933 0.0150442 0.093174
            vertex 0.0351233 0.0216135 0.0904176
            vertex 0.0250064 0.0240121 0.0881265
        endloop
    endfacet
    facet normal -0.0938836 0.625424 0.774617
        outer loop
            vertex 0.0250064 0.0240121 0.0881265
            vertex 0.0324316 0.0267751 0.0867956
            vertex 0.0232237 0.0318877 0.0815517
        endloop
    endfacet
    facet normal -0.0653235 0.770542 0.634033
        outer loop
            vertex 0.0232237 0.0318877 0.0815517
            vertex 0.0293135 0.0318149 0.0822676
            vertex 0.0246514 0.0367989 0.0757302
        endloop
    endfacet
    facet normal 0.0103628 0.999893 -0.0103628
        outer loop
            vertex -0.00715948 0.0429107 0.01
            vertex 0.043 0.0427531 0.0449531
            vertex 0.00804693 0.0427531 0.01
        endloop
    endfacet
    facet normal -0.496578 0.611815 0.615705
        outer loop
            vertex -0.0133709 0.0283264 0.0645578
            vertex -0.00808827 0.0241896 0.072929
            vertex 4.48256e-005 0.032404 0.071326
        endloop
    endfacet
    facet normal -0.884939 0.461002 0.0660355
        outer loop
            vertex -0.0378044 0.0193832 0.0272004
            vertex -0.035891 0.0240313 0.0203928
            vertex -0.039024 0.0186956 0.0156568
        endloop
    endfacet
    facet normal -0.164572 0.803227 0.572488
        outer loop
            vertex 0.0167839 0.0407457 0.067931
            vertex 0.012505 0.0341518 0.0759525
            vertex 0.0246514 0.0367989 0.0757302
        endloop
    endfacet
    facet normal 0.593287 0.804948 -0.00834244
        outer loop
            vertex 0.043 0.0429107 0.0601595
            vertex 0.0547 0.0342316 0.0547924
            vertex 0.043 0.0427531 0.0449531
        endloop
    endfacet
    facet normal -0.444008 0.73701 0.509582
        outer loop
            vertex 4.48256e-005 0.032404 0.071326
            vertex 0.00225959 0.0384617 0.0644945
            vertex -0.00838827 0.0355644 0.0594072
        endloop
    endfacet
    facet normal -0.32945 -0.886136 0.325923
        outer loop
            vertex -0.00546315 -0.0431768 0.0455369
            vertex 0.00347193 -0.0411083 0.0601926
            vertex -0.00380369 -0.0402431 0.0551906
        endloop
    endfacet
    facet normal -0.889997 -0.448051 0.0845939
        outer loop
            vertex -0.0394038 -0.0180794 0.015002
            vertex -0.036427 -0.0232175 0.0191065
            vertex -0.0389003 -0.017387 0.0239665
        endloop
    endfacet
    facet normal -0.478812 0.70342 0.5253
        outer loop
            vertex -0.0133709 0.0283264 0.0645578
            vertex 4.48256e-005 0.032404 0.071326
            vertex -0.00838827 0.0355644 0.0594072
        endloop
    endfacet
    facet normal -0.580654 0.199367 0.789363
        outer loop
            vertex -0.0170817 0.00854764 0.0730345
            vertex -0.00246659 0.00779558 0.0839753
            vertex -0.00874615 0.0149017 0.0775613
        endloop
    endfacet
    facet normal -0.657218 0.688045 0.307666
        outer loop
            vertex -0.017326 0.0351684 0.0491773
            vertex -0.0272141 0.0314044 0.0364725
            vertex -0.0276687 0.0281582 0.042761
        endloop
    endfacet
    facet normal -0.765779 0.511711 0.389531
        outer loop
            vertex -0.0232779 0.0251016 0.0554082
            vertex -0.0276687 0.0281582 0.042761
            vertex -0.0321587 0.0221948 0.041768
        endloop
    endfacet
    facet normal -0.895845 -0.36452 0.254139
        outer loop
            vertex -0.0361839 -0.0222339 0.0286466
            vertex -0.0362169 -0.0127713 0.0421028
            vertex -0.0389881 -0.0118079 0.0337161
        endloop
    endfacet
    facet normal -0.320902 -0.812254 0.487099
        outer loop
            vertex 0.00347193 -0.0411083 0.0601926
            vertex 0.00950289 -0.0388942 0.0678579
            vertex 0.00378702 -0.0351679 0.070306
        endloop
    endfacet
    facet normal -0.550054 0.701317 0.453427
        outer loop
            vertex -0.0133709 0.0283264 0.0645578
            vertex -0.00838827 0.0355644 0.0594072
            vertex -0.017326 0.0351684 0.0491773
        endloop
    endfacet
    facet normal -0.848599 0.472654 0.237652
        outer loop
            vertex -0.0378044 0.0193832 0.0272004
            vertex -0.0321587 0.0221948 0.041768
            vertex -0.0337251 0.0252121 0.0301738
        endloop
    endfacet
    facet normal -0.517012 0.274829 0.810659
        outer loop
            vertex -0.00874615 0.0149017 0.0775613
            vertex -0.00246659 0.00779558 0.0839753
            vertex 0.0023028 0.0135677 0.0850602
        endloop
    endfacet
    facet normal -0.778809 0.337781 0.528546
        outer loop
            vertex -0.0197461 0.0190697 0.0655361
            vertex -0.0297991 0.0183192 0.0512027
            vertex -0.0251196 0.0099875 0.0634225
        endloop
    endfacet
    facet normal -0.207724 0.807106 0.552658
        outer loop
            vertex 0.0167839 0.0407457 0.067931
            vertex 0.00675611 0.0379278 0.0682772
            vertex 0.012505 0.0341518 0.0759525
        endloop
    endfacet
    facet normal 0.602831 0.515663 0.60884
        outer loop
            vertex 0.043 0.0334861 0.0807717
            vertex 0.043 0.0248054 0.0881239
            vertex 0.0547 0.0183203 0.082032
        endloop
    endfacet
    facet normal -0.0824479 0.637343 0.766157
        outer loop
            vertex 0.0232237 0.0318877 0.0815517
            vertex 0.0324316 0.0267751 0.0867956
            vertex 0.0293135 0.0318149 0.0822676
        endloop
    endfacet
    facet normal -0.3986 0.408659 0.821045
        outer loop
            vertex 0.0127729 0.0182727 0.0878014
            vertex 0.00651738 0.0248053 0.081513
            vertex 0.0023028 0.0135677 0.0850602
        endloop
    endfacet
    facet normal -0.313064 0.257453 0.914171
        outer loop
            vertex 0.0209519 0.0161186 0.091209
            vertex 0.0127729 0.0182727 0.0878014
            vertex 0.00876031 0.00828726 0.0892394
        endloop
    endfacet
    facet normal 0.605748 0.691787 0.393065
        outer loop
            vertex 0.043 0.0334861 0.0807717
            vertex 0.0547 0.0320984 0.0651833
            vertex 0.043 0.0391061 0.0708806
        endloop
    endfacet
    facet normal 0.00792472 0.764643 -0.644405
        outer loop
            vertex -0.00715948 0.0429107 0.01
            vertex 0.00804693 0.0427531 0.01
            vertex 0.00205307 0.0343848 -3.43037e-006
        endloop
    endfacet
    facet normal -0.548361 0.835862 0.0252098
        outer loop
            vertex -0.0214912 0.0378248 0.01
            vertex -0.0265257 0.0340854 0.0244743
            vertex -0.0178442 0.039519 0.0331558
        endloop
    endfacet
    facet normal -0.610197 0.486346 0.625401
        outer loop
            vertex -0.0133709 0.0283264 0.0645578
            vertex -0.0197461 0.0190697 0.0655361
            vertex -0.00808827 0.0241896 0.072929
        endloop
    endfacet
    facet normal -0.897484 -0.164601 0.409181
        outer loop
            vertex -0.0383049 -0.00267743 0.0415835
            vertex -0.0362169 -0.0127713 0.0421028
            vertex -0.0340501 -0.0022534 0.0510864
        endloop
    endfacet
    facet normal 0.607385 0.518591 0.601786
        outer loop
            vertex 0.043 0.0334861 0.0807717
            vertex 0.0547 0.0183203 0.082032
            vertex 0.0547 0.0263819 0.0750849
        endloop
    endfacet
    facet normal -0.764273 -0.126168 0.63243
        outer loop
            vertex -0.0184914 -0.0106278 0.0711105
            vertex -0.0226583 -0.000572196 0.068081
            vertex -0.0235871 -0.011706 0.0647374
        endloop
    endfacet
    facet normal -0.852863 0.372195 0.36619
        outer loop
            vertex -0.037741 0.0126821 0.0384354
            vertex -0.0297991 0.0183192 0.0512027
            vertex -0.0321587 0.0221948 0.041768
        endloop
    endfacet
    facet normal -0.0875132 -0.436433 0.895471
        outer loop
            vertex 0.0317742 -0.0235825 0.0891159
            vertex 0.0331275 -0.0157347 0.093073
            vertex 0.0251199 -0.0196102 0.0904016
        endloop
    endfacet
    facet normal 0.63357 0.757879 0.155589
        outer loop
            vertex 0.043 0.0429107 0.0601595
            vertex 0.0547 0.0320984 0.0651833
            vertex 0.0547 0.0342316 0.0547924
        endloop
    endfacet
    facet normal -0.157334 0.773497 0.613961
        outer loop
            vertex 0.0232237 0.0318877 0.0815517
            vertex 0.0246514 0.0367989 0.0757302
            vertex 0.012505 0.0341518 0.0759525
        endloop
    endfacet
    facet normal -0.457594 0.58392 0.670556
        outer loop
            vertex 4.48256e-005 0.032404 0.071326
            vertex -0.00808827 0.0241896 0.072929
            vertex -0.00153641 0.0234206 0.0780697
        endloop
    endfacet
    facet normal -0.609075 0.388107 0.691666
        outer loop
            vertex -0.0197461 0.0190697 0.0655361
            vertex -0.00874615 0.0149017 0.0775613
            vertex -0.00808827 0.0241896 0.072929
        endloop
    endfacet
    facet normal -0.46522 -0.267192 0.843907
        outer loop
            vertex -0.00661699 -0.0128163 0.0799552
            vertex 0.00195744 -0.018282 0.0829515
            vertex 0.00702081 -0.0114474 0.0879067
        endloop
    endfacet
    facet normal -0.825104 0.20532 0.526353
        outer loop
            vertex -0.0251196 0.0099875 0.0634225
            vertex -0.0314378 0.0123434 0.0525992
            vertex -0.0323245 0.0062006 0.0536054
        endloop
    endfacet
    facet normal 0.589802 -0.277944 0.758209
        outer loop
            vertex 0.043 -0.0218816 0.0906002
            vertex 0.0547 -0.0134581 0.0845868
            vertex 0.043 -0.00845807 0.095521
        endloop
    endfacet
    facet normal -0.841431 0.526226 0.122798
        outer loop
            vertex -0.0378044 0.0193832 0.0272004
            vertex -0.0337251 0.0252121 0.0301738
            vertex -0.035891 0.0240313 0.0203928
        endloop
    endfacet
    facet normal -0.260493 -0.0793669 0.962208
        outer loop
            vertex 0.0162301 0.00373637 0.0929971
            vertex 0.0172265 -0.00785673 0.0923106
            vertex 0.0271638 -0.0027863 0.0954191
        endloop
    endfacet
    facet normal 0.588193 0.762153 0.270465
        outer loop
            vertex 0.043 0.0429107 0.0601595
            vertex 0.043 0.0391061 0.0708806
            vertex 0.0547 0.0320984 0.0651833
        endloop
    endfacet
    facet normal -0.933299 0.306066 0.187819
        outer loop
            vertex -0.037741 0.0126821 0.0384354
            vertex -0.0378044 0.0193832 0.0272004
            vertex -0.0411001 0.0129607 0.0212896
        endloop
    endfacet
    facet normal -0.533656 0.407417 0.741095
        outer loop
            vertex -0.00808827 0.0241896 0.072929
            vertex -0.00874615 0.0149017 0.0775613
            vertex -0.00153641 0.0234206 0.0780697
        endloop
    endfacet
    facet normal -0.229989 0.666024 0.709589
        outer loop
            vertex 0.0232237 0.0318877 0.0815517
            vertex 0.012505 0.0341518 0.0759525
            vertex 0.0159674 0.0276688 0.0831597
        endloop
    endfacet
    facet normal -0.0615456 0.265329 0.962191
        outer loop
            vertex 0.0427392 0.0123744 0.0947191
            vertex 0.0300933 0.0150442 0.093174
            vertex 0.0287145 0.00760176 0.0951381
        endloop
    endfacet
    facet normal 0.588986 0.406485 0.698474
        outer loop
            vertex 0.0426128 0.0181823 0.0923048
            vertex 0.0547 0.0183203 0.082032
            vertex 0.043 0.0248054 0.0881239
        endloop
    endfacet
    facet normal -0.0555535 -0.137343 0.988964
        outer loop
            vertex 0.0271638 -0.0027863 0.0954191
            vertex 0.0281123 -0.00934166 0.094562
            vertex 0.043 -0.00845807 0.095521
        endloop
    endfacet
    facet normal -0.716866 0.275039 0.640669
        outer loop
            vertex -0.0170817 0.00854764 0.0730345
            vertex -0.0197461 0.0190697 0.0655361
            vertex -0.0251196 0.0099875 0.0634225
        endloop
    endfacet
endsolid D:/Users/Paul Maroldt/Documents/!StartUp_Repositories/modrob-gen2/ModuleLibrary/L-L-80-80/L-L-80-80_convdec.stl_created_by_BoundingMesh