solid D:/Users/Paul Maroldt/Documents/!StartUp_Repositories/gen2_robot_data/ModuleLibrary/I148-1000/I148-1000_convdec.stl_created_by_BoundingMesh
    facet normal -0.0823317 0.0751076 0.993771
        outer loop
            vertex -0.060616 0.0256991 1.00009
            vertex -0.0158617 -0.00582113 1.00618
            vertex -0.0368173 0.0529777 1
        endloop
    endfacet
    facet normal 0.18773 0.648564 0.737646
        outer loop
            vertex 0.0439092 0.0649652 0.989
            vertex -0.00265692 0.0659331 1
            vertex 0.0429257 0.0525911 1.00013
        endloop
    endfacet
    facet normal -0.133725 0.779919 0.611427
        outer loop
            vertex -0.0314686 0.0696166 0.989
            vertex -0.00265692 0.0659331 1
            vertex 0.00321049 0.0755627 0.989
        endloop
    endfacet
    facet normal -0.977553 0.210688 0.00110921
        outer loop
            vertex -0.0667702 0.0411124 0.989
            vertex -0.0753583 0.00641416 0.011
            vertex -0.075631 -2.70513e-017 0.989
        endloop
    endfacet
    facet normal -0.0730898 0.858726 -0.507196
        outer loop
            vertex -0.0129113 0.0664183 -0.000315468
            vertex -0.0254514 0.0720343 0.011
            vertex 0.00960616 0.0750182 0.011
        endloop
    endfacet
    facet normal 0.73661 0.453544 -0.501701
        outer loop
            vertex 0.0492602 0.0610079 0.011
            vertex 0.0730496 0.0223711 0.011
            vertex 0.0544099 0.0400422 -0.000392357
        endloop
    endfacet
    facet normal 0.00765195 -0.00499804 -0.999958
        outer loop
            vertex -0.0673961 -0.00466135 -0.000377127
            vertex -0.0129113 0.0664183 -0.000315468
            vertex 0.0230807 0.0590584 -3.26091e-006
        endloop
    endfacet
    facet normal 0.00170139 -0.0044187 -0.999989
        outer loop
            vertex 0.0544099 0.0400422 -0.000392357
            vertex 0.0655192 -0.00596998 -0.000170139
            vertex 0.0224344 -0.059663 -6.18783e-006
        endloop
    endfacet
    facet normal 0.956166 -0.292823 0.00110931
        outer loop
            vertex 0.0773226 -2.06653e-016 0.989
            vertex 0.0650555 -0.0400562 0.989
            vertex 0.074543 -0.0127813 0.011
        endloop
    endfacet
    facet normal 0 -0.784949 -0.61956
        outer loop
            vertex -0.0226418 -0.0739333 0.011
            vertex -0.00922828 -0.0651956 -7.02061e-005
            vertex 0.0126769 -0.0739333 0.011
        endloop
    endfacet
    facet normal -0.119629 -0.586281 0.801226
        outer loop
            vertex 0.0196196 -0.0667609 1.00082
            vertex -0.0329935 -0.057146 1
            vertex -0.0162902 -0.0755871 0.989
        endloop
    endfacet
    facet normal -0.520141 -0.460771 0.719127
        outer loop
            vertex -0.0643422 -0.0215084 1.00016
            vertex -0.0471241 -0.0583624 0.989
            vertex -0.0329935 -0.057146 1
        endloop
    endfacet
    facet normal -0.626544 -0.463387 -0.626671
        outer loop
            vertex -0.0708895 -0.0284853 0.011
            vertex -0.0461447 -0.0468548 -0.000156598
            vertex -0.0519038 -0.0541558 0.011
        endloop
    endfacet
    facet normal 0.300353 0.511307 -0.805204
        outer loop
            vertex 0.0492602 0.0610079 0.011
            vertex 0.0544099 0.0400422 -0.000392357
            vertex 0.0230807 0.0590584 -3.26091e-006
        endloop
    endfacet
    facet normal 0.61743 -0.100575 0.78017
        outer loop
            vertex 0.0773226 -2.06653e-016 0.989
            vertex 0.065044 0.01057 1.00008
            vertex 0.058428 -0.0306659 1
        endloop
    endfacet
    facet normal 0.117973 0.0609153 0.991147
        outer loop
            vertex 0.0429257 0.0525911 1.00013
            vertex 0.00862449 0.0062639 1.00706
            vertex 0.065044 0.01057 1.00008
        endloop
    endfacet
    facet normal -0.473627 0.586573 0.656969
        outer loop
            vertex -0.0667702 0.0411124 0.989
            vertex -0.0368173 0.0529777 1
            vertex -0.0314686 0.0696166 0.989
        endloop
    endfacet
    facet normal -0.0123628 9.19529e-005 -0.999924
        outer loop
            vertex 0.0544099 0.0400422 -0.000392357
            vertex 0.0224344 -0.059663 -6.18783e-006
            vertex 0.0230807 0.0590584 -3.26091e-006
        endloop
    endfacet
    facet normal 0.240358 0.680298 -0.692404
        outer loop
            vertex 0.0492602 0.0610079 0.011
            vertex 0.0230807 0.0590584 -3.26091e-006
            vertex 0.00960616 0.0750182 0.011
        endloop
    endfacet
    facet normal 0 -0.999999 -0.001691
        outer loop
            vertex -0.0162902 -0.0755871 0.989
            vertex -0.0226418 -0.0739333 0.011
            vertex 0.0126769 -0.0739333 0.011
        endloop
    endfacet
    facet normal 0.124396 -0.0218828 0.991991
        outer loop
            vertex 0.00862449 0.0062639 1.00706
            vertex 0.058428 -0.0306659 1
            vertex 0.065044 0.01057 1.00008
        endloop
    endfacet
    facet normal -0.389602 0.576763 -0.718021
        outer loop
            vertex -0.0129113 0.0664183 -0.000315468
            vertex -0.0522491 0.0400996 -0.000111557
            vertex -0.0254514 0.0720343 0.011
        endloop
    endfacet
    facet normal -0.0415819 0.109642 0.993101
        outer loop
            vertex 0.00862449 0.0062639 1.00706
            vertex -0.00265692 0.0659331 1
            vertex -0.0368173 0.0529777 1
        endloop
    endfacet
    facet normal 0.481761 -0.501653 0.718506
        outer loop
            vertex 0.0196196 -0.0667609 1.00082
            vertex 0.0650555 -0.0400562 0.989
            vertex 0.058428 -0.0306659 1
        endloop
    endfacet
    facet normal 0.0333635 0.123653 0.991764
        outer loop
            vertex 0.0429257 0.0525911 1.00013
            vertex -0.00265692 0.0659331 1
            vertex 0.00862449 0.0062639 1.00706
        endloop
    endfacet
    facet normal 0.956164 0.292821 0.00252049
        outer loop
            vertex 0.0773226 -2.06653e-016 0.989
            vertex 0.0730496 0.0223711 0.011
            vertex 0.0669804 0.0337709 0.989
        endloop
    endfacet
    facet normal 0.00578291 -0.0842744 0.996426
        outer loop
            vertex 0.0196196 -0.0667609 1.00082
            vertex 0.00862449 0.0062639 1.00706
            vertex -0.0158617 -0.00582113 1.00618
        endloop
    endfacet
    facet normal 0.92789 -0.372851 -0.00139685
        outer loop
            vertex 0.0650555 -0.0400562 0.989
            vertex 0.0638753 -0.0393293 0.011
            vertex 0.074543 -0.0127813 0.011
        endloop
    endfacet
    facet normal 0.737176 -0.225758 0.636871
        outer loop
            vertex 0.0773226 -2.06653e-016 0.989
            vertex 0.058428 -0.0306659 1
            vertex 0.0650555 -0.0400562 0.989
        endloop
    endfacet
    facet normal -0.524581 -0.461688 0.715303
        outer loop
            vertex -0.0643422 -0.0215084 1.00016
            vertex -0.0682179 -0.0343951 0.989
            vertex -0.0471241 -0.0583624 0.989
        endloop
    endfacet
    facet normal -0.559971 0.828511 -0.0013971
        outer loop
            vertex -0.0630432 0.0466269 0.011
            vertex -0.0314686 0.0696166 0.989
            vertex -0.0254514 0.0720343 0.011
        endloop
    endfacet
    facet normal 0.691942 -0.721951 0.00139686
        outer loop
            vertex 0.0322985 -0.0714516 0.989
            vertex 0.042781 -0.0632971 0.011
            vertex 0.0650555 -0.0400562 0.989
        endloop
    endfacet
    facet normal -0.389935 0.576933 -0.717704
        outer loop
            vertex -0.0630432 0.0466269 0.011
            vertex -0.0254514 0.0720343 0.011
            vertex -0.0522491 0.0400996 -0.000111557
        endloop
    endfacet
    facet normal -0.803998 -0.594631 -0.00139692
        outer loop
            vertex -0.0682179 -0.0343951 0.989
            vertex -0.0708895 -0.0284853 0.011
            vertex -0.0519038 -0.0541558 0.011
        endloop
    endfacet
    facet normal 0.0876804 -0.0716989 0.993565
        outer loop
            vertex 0.0196196 -0.0667609 1.00082
            vertex 0.058428 -0.0306659 1
            vertex 0.00862449 0.0062639 1.00706
        endloop
    endfacet
    facet normal -0.562848 -0.287537 -0.774935
        outer loop
            vertex -0.0673961 -0.00466135 -0.000377127
            vertex -0.0461447 -0.0468548 -0.000156598
            vertex -0.0708895 -0.0284853 0.011
        endloop
    endfacet
    facet normal 0.753845 0.230862 0.615159
        outer loop
            vertex 0.0773226 -2.06653e-016 0.989
            vertex 0.0669804 0.0337709 0.989
            vertex 0.065044 0.01057 1.00008
        endloop
    endfacet
    facet normal -0.750673 -0.660673 0.000827
        outer loop
            vertex -0.0682179 -0.0343951 0.989
            vertex -0.0519038 -0.0541558 0.011
            vertex -0.0471241 -0.0583624 0.989
        endloop
    endfacet
    facet normal 0.00201949 1.36599e-005 -0.999998
        outer loop
            vertex -0.00922828 -0.0651956 -7.02061e-005
            vertex 0.0230807 0.0590584 -3.26091e-006
            vertex 0.0224344 -0.059663 -6.18783e-006
        endloop
    endfacet
    facet normal 0.115981 -0.655112 -0.746577
        outer loop
            vertex -0.00922828 -0.0651956 -7.02061e-005
            vertex 0.0224344 -0.059663 -6.18783e-006
            vertex 0.0126769 -0.0739333 0.011
        endloop
    endfacet
    facet normal -0.559972 -0.828511 -0.00082691
        outer loop
            vertex -0.0226418 -0.0739333 0.011
            vertex -0.0471241 -0.0583624 0.989
            vertex -0.0519038 -0.0541558 0.011
        endloop
    endfacet
    facet normal -0.977552 -0.21069 0.00139723
        outer loop
            vertex -0.0682179 -0.0343951 0.989
            vertex -0.075631 -2.70513e-017 0.989
            vertex -0.0708895 -0.0284853 0.011
        endloop
    endfacet
    facet normal -0.000342077 -0.00539883 -0.999985
        outer loop
            vertex -0.0673961 -0.00466135 -0.000377127
            vertex -0.00922828 -0.0651956 -7.02061e-005
            vertex -0.0461447 -0.0468548 -0.000156598
        endloop
    endfacet
    facet normal -0.632673 0.218503 -0.742954
        outer loop
            vertex -0.0630432 0.0466269 0.011
            vertex -0.0522491 0.0400996 -0.000111557
            vertex -0.0673961 -0.00466135 -0.000377127
        endloop
    endfacet
    facet normal -0.0118304 0.00993575 -0.999881
        outer loop
            vertex -0.0673961 -0.00466135 -0.000377127
            vertex -0.0522491 0.0400996 -0.000111557
            vertex -0.0129113 0.0664183 -0.000315468
        endloop
    endfacet
    facet normal -0.0848076 0.996397 -0.00110935
        outer loop
            vertex -0.0254514 0.0720343 0.011
            vertex 0.00321049 0.0755627 0.989
            vertex 0.00960616 0.0750182 0.011
        endloop
    endfacet
    facet normal 0.611848 0.14397 -0.777763
        outer loop
            vertex 0.0544099 0.0400422 -0.000392357
            vertex 0.0730496 0.0223711 0.011
            vertex 0.0655192 -0.00596998 -0.000170139
        endloop
    endfacet
    facet normal 0.251986 0.96773 0.00110909
        outer loop
            vertex 0.0439092 0.0649652 0.989
            vertex 0.00960616 0.0750182 0.011
            vertex 0.00321049 0.0755627 0.989
        endloop
    endfacet
    facet normal -0.00582979 0.00162455 -0.999982
        outer loop
            vertex 0.0655192 -0.00596998 -0.000170139
            vertex 0.0491336 -0.0434709 -0.000135536
            vertex 0.0224344 -0.059663 -6.18783e-006
        endloop
    endfacet
    facet normal 0.663721 -0.266701 -0.698816
        outer loop
            vertex 0.0655192 -0.00596998 -0.000170139
            vertex 0.074543 -0.0127813 0.011
            vertex 0.0638753 -0.0393293 0.011
        endloop
    endfacet
    facet normal 0.6011 -0.529034 -0.599
        outer loop
            vertex 0.042781 -0.0632971 0.011
            vertex 0.0491336 -0.0434709 -0.000135536
            vertex 0.0638753 -0.0393293 0.011
        endloop
    endfacet
    facet normal -0.956164 0.292824 -0.00199269
        outer loop
            vertex -0.0667702 0.0411124 0.989
            vertex -0.0630432 0.0466269 0.011
            vertex -0.0753583 0.00641416 0.011
        endloop
    endfacet
    facet normal -0.649789 0.0524134 0.758306
        outer loop
            vertex -0.0643422 -0.0215084 1.00016
            vertex -0.060616 0.0256991 1.00009
            vertex -0.075631 -2.70513e-017 0.989
        endloop
    endfacet
    facet normal -0.628221 0.778033 0.00199292
        outer loop
            vertex -0.0667702 0.0411124 0.989
            vertex -0.0314686 0.0696166 0.989
            vertex -0.0630432 0.0466269 0.011
        endloop
    endfacet
    facet normal -0.844593 -0.182033 0.503514
        outer loop
            vertex -0.0643422 -0.0215084 1.00016
            vertex -0.075631 -2.70513e-017 0.989
            vertex -0.0682179 -0.0343951 0.989
        endloop
    endfacet
    facet normal -0.450642 0.395794 0.800168
        outer loop
            vertex -0.0667702 0.0411124 0.989
            vertex -0.060616 0.0256991 1.00009
            vertex -0.0368173 0.0529777 1
        endloop
    endfacet
    facet normal -0.168994 0.985616 0.00139678
        outer loop
            vertex -0.0254514 0.0720343 0.011
            vertex -0.0314686 0.0696166 0.989
            vertex 0.00321049 0.0755627 0.989
        endloop
    endfacet
    facet normal 0.851531 0.524304 -0.00082704
        outer loop
            vertex 0.0492602 0.0610079 0.011
            vertex 0.0669804 0.0337709 0.989
            vertex 0.0730496 0.0223711 0.011
        endloop
    endfacet
    facet normal 0.137051 0.638079 -0.757676
        outer loop
            vertex -0.0129113 0.0664183 -0.000315468
            vertex 0.00960616 0.0750182 0.011
            vertex 0.0230807 0.0590584 -3.26091e-006
        endloop
    endfacet
    facet normal 0.0762635 -0.896032 0.43739
        outer loop
            vertex 0.0196196 -0.0667609 1.00082
            vertex -0.0162902 -0.0755871 0.989
            vertex 0.0322985 -0.0714516 0.989
        endloop
    endfacet
    facet normal -0.0947308 -0.0877816 0.991625
        outer loop
            vertex -0.0643422 -0.0215084 1.00016
            vertex -0.0329935 -0.057146 1
            vertex -0.0158617 -0.00582113 1.00618
        endloop
    endfacet
    facet normal -0.12688 0.0114851 0.991852
        outer loop
            vertex -0.0643422 -0.0215084 1.00016
            vertex -0.0158617 -0.00582113 1.00618
            vertex -0.060616 0.0256991 1.00009
        endloop
    endfacet
    facet normal 0.482302 -0.503219 0.717047
        outer loop
            vertex 0.0196196 -0.0667609 1.00082
            vertex 0.0322985 -0.0714516 0.989
            vertex 0.0650555 -0.0400562 0.989
        endloop
    endfacet
    facet normal -0.861544 -0.110319 -0.495552
        outer loop
            vertex -0.0673961 -0.00466135 -0.000377127
            vertex -0.0708895 -0.0284853 0.011
            vertex -0.0753583 0.00641416 0.011
        endloop
    endfacet
    facet normal -0.691758 0.21185 -0.690356
        outer loop
            vertex -0.0630432 0.0466269 0.011
            vertex -0.0673961 -0.00466135 -0.000377127
            vertex -0.0753583 0.00641416 0.011
        endloop
    endfacet
    facet normal 0.58743 0.308309 0.748246
        outer loop
            vertex 0.0429257 0.0525911 1.00013
            vertex 0.065044 0.01057 1.00008
            vertex 0.0669804 0.0337709 0.989
        endloop
    endfacet
    facet normal 0.244288 -0.691418 -0.6799
        outer loop
            vertex 0.042781 -0.0632971 0.011
            vertex 0.0126769 -0.0739333 0.011
            vertex 0.0224344 -0.059663 -6.18783e-006
        endloop
    endfacet
    facet normal 0.333131 0.942878 -0.00199251
        outer loop
            vertex 0.0439092 0.0649652 0.989
            vertex 0.0492602 0.0610079 0.011
            vertex 0.00960616 0.0750182 0.011
        endloop
    endfacet
    facet normal 0.323767 -0.540066 -0.776855
        outer loop
            vertex 0.042781 -0.0632971 0.011
            vertex 0.0224344 -0.059663 -6.18783e-006
            vertex 0.0491336 -0.0434709 -0.000135536
        endloop
    endfacet
    facet normal 0.999093 0.0424451 -0.00339426
        outer loop
            vertex 0.0773226 -2.06653e-016 0.989
            vertex 0.074543 -0.0127813 0.011
            vertex 0.0730496 0.0223711 0.011
        endloop
    endfacet
    facet normal -0.991901 -0.127011 -0.00110957
        outer loop
            vertex -0.0708895 -0.0284853 0.011
            vertex -0.075631 -2.70513e-017 0.989
            vertex -0.0753583 0.00641416 0.011
        endloop
    endfacet
    facet normal 0.787318 0.0334481 -0.615639
        outer loop
            vertex 0.0730496 0.0223711 0.011
            vertex 0.074543 -0.0127813 0.011
            vertex 0.0655192 -0.00596998 -0.000170139
        endloop
    endfacet
    facet normal 0.648715 0.479787 0.590739
        outer loop
            vertex 0.0439092 0.0649652 0.989
            vertex 0.0429257 0.0525911 1.00013
            vertex 0.0669804 0.0337709 0.989
        endloop
    endfacet
    facet normal -0.0352008 -0.107883 0.99354
        outer loop
            vertex 0.0196196 -0.0667609 1.00082
            vertex -0.0158617 -0.00582113 1.00618
            vertex -0.0329935 -0.057146 1
        endloop
    endfacet
    facet normal -0.222398 0.586412 0.778884
        outer loop
            vertex -0.0314686 0.0696166 0.989
            vertex -0.0368173 0.0529777 1
            vertex -0.00265692 0.0659331 1
        endloop
    endfacet
    facet normal 0.00459397 -0.000655769 -0.999989
        outer loop
            vertex -0.0673961 -0.00466135 -0.000377127
            vertex 0.0230807 0.0590584 -3.26091e-006
            vertex -0.00922828 -0.0651956 -7.02061e-005
        endloop
    endfacet
    facet normal -0.430624 -0.637133 -0.639237
        outer loop
            vertex -0.0226418 -0.0739333 0.011
            vertex -0.0519038 -0.0541558 0.011
            vertex -0.0461447 -0.0468548 -0.000156598
        endloop
    endfacet
    facet normal 0.0848058 -0.996397 0.000826932
        outer loop
            vertex 0.0322985 -0.0714516 0.989
            vertex -0.0162902 -0.0755871 0.989
            vertex 0.0126769 -0.0739333 0.011
        endloop
    endfacet
    facet normal 0.803995 0.594632 0.00199288
        outer loop
            vertex 0.0439092 0.0649652 0.989
            vertex 0.0669804 0.0337709 0.989
            vertex 0.0492602 0.0610079 0.011
        endloop
    endfacet
    facet normal 0.750672 -0.660674 -0.00139691
        outer loop
            vertex 0.042781 -0.0632971 0.011
            vertex 0.0638753 -0.0393293 0.011
            vertex 0.0650555 -0.0400562 0.989
        endloop
    endfacet
    facet normal -0.27729 -0.561802 -0.779416
        outer loop
            vertex -0.0226418 -0.0739333 0.011
            vertex -0.0461447 -0.0468548 -0.000156598
            vertex -0.00922828 -0.0651956 -7.02061e-005
        endloop
    endfacet
    facet normal -0.39521 -0.707465 0.585921
        outer loop
            vertex -0.0162902 -0.0755871 0.989
            vertex -0.0329935 -0.057146 1
            vertex -0.0471241 -0.0583624 0.989
        endloop
    endfacet
    facet normal -0.487691 -0.873015 0.00169103
        outer loop
            vertex -0.0162902 -0.0755871 0.989
            vertex -0.0471241 -0.0583624 0.989
            vertex -0.0226418 -0.0739333 0.011
        endloop
    endfacet
    facet normal 0.17983 0.69062 0.700504
        outer loop
            vertex 0.0439092 0.0649652 0.989
            vertex 0.00321049 0.0755627 0.989
            vertex -0.00265692 0.0659331 1
        endloop
    endfacet
    facet normal -0.750251 0.161699 0.641075
        outer loop
            vertex -0.0667702 0.0411124 0.989
            vertex -0.075631 -2.70513e-017 0.989
            vertex -0.060616 0.0256991 1.00009
        endloop
    endfacet
    facet normal 0.33313 -0.942871 -0.00429101
        outer loop
            vertex 0.0322985 -0.0714516 0.989
            vertex 0.0126769 -0.0739333 0.011
            vertex 0.042781 -0.0632971 0.011
        endloop
    endfacet
    facet normal 0.627502 -0.274852 -0.72849
        outer loop
            vertex 0.0655192 -0.00596998 -0.000170139
            vertex 0.0638753 -0.0393293 0.011
            vertex 0.0491336 -0.0434709 -0.000135536
        endloop
    endfacet
    facet normal -0.0742428 0.0780337 0.994182
        outer loop
            vertex 0.00862449 0.0062639 1.00706
            vertex -0.0368173 0.0529777 1
            vertex -0.0158617 -0.00582113 1.00618
        endloop
    endfacet
endsolid D:/Users/Paul Maroldt/Documents/!StartUp_Repositories/gen2_robot_data/ModuleLibrary/I148-1000/I148-1000_convdec.stl_created_by_BoundingMesh