solid D:/Users/Paul Maroldt/Documents/!StartUp_Repositories/module_type_database/0100_BD116-KM/BD116_distal_part_convdec.stl_created_by_BoundingMesh
    facet normal -0.119756 -0.688031 0.715732
        outer loop
            vertex -0.000421524 -0.0586072 -0.0102726
            vertex -0.0141201 -0.0455367 2.68221e-010
            vertex -0.0193515 -0.0553142 -0.0102744
        endloop
    endfacet
    facet normal -0.959955 0.242035 0.141086
        outer loop
            vertex -0.0536969 0.0234737 -0.0102743
            vertex -0.0568224 0.0142984 -0.0158
            vertex -0.0584034 0.00480284 -0.0102674
        endloop
    endfacet
    facet normal -0.996582 -0.0826085 0.000421028
        outer loop
            vertex -0.0584034 0.00480284 -0.0102674
            vertex -0.0568224 -0.0142984 -0.0158
            vertex -0.0568148 -0.0143619 -0.0102708
        endloop
    endfacet
    facet normal 0.0100731 0.0602243 -0.998134
        outer loop
            vertex 3.27106e-005 0.0555005 -0.021092
            vertex 0.0180581 0.0524806 -0.0210923
            vertex 0.0165513 0.00844296 -0.0237646
        endloop
    endfacet
    facet normal 0.464841 0.88537 -0.00657382
        outer loop
            vertex 0.0185161 0.0556065 -0.0102744
            vertex 0.0353581 0.046723 -0.0158
            vertex 0.0183831 0.0556353 -0.0158
        endloop
    endfacet
    facet normal 0.71812 -0.680688 -0.144803
        outer loop
            vertex 0.042693 -0.0401585 -0.0102824
            vertex 0.0353581 -0.046723 -0.0158
            vertex 0.0485472 -0.0328086 -0.0158
        endloop
    endfacet
    facet normal -0.0315968 0.0584202 -0.997792
        outer loop
            vertex -0.0340742 0.0438093 -0.021092
            vertex -0.0179962 0.0525017 -0.0210922
            vertex -0.00804215 0.0157877 -0.023557
        endloop
    endfacet
    facet normal -0.419064 -0.762411 -0.493066
        outer loop
            vertex -0.0340741 -0.0438092 -0.0210922
            vertex -0.0194431 -0.0552738 -0.0158
            vertex -0.0362445 -0.0460388 -0.0158
        endloop
    endfacet
    facet normal 0.141804 -0.846434 -0.513264
        outer loop
            vertex 3.27039e-005 -0.0555004 -0.0210923
            vertex 0.0180581 -0.0524807 -0.0210921
            vertex 0.0183831 -0.0556353 -0.0158
        endloop
    endfacet
    facet normal 0.782625 -0.342334 -0.519909
        outer loop
            vertex 0.0464927 -0.0303111 -0.0210922
            vertex 0.0538139 -0.0135736 -0.0210923
            vertex 0.0565388 -0.0153816 -0.0158
        endloop
    endfacet
    facet normal 0.600656 -0.787444 0.138361
        outer loop
            vertex 0.042693 -0.0401585 -0.0102824
            vertex 0.031283 -0.048862 -0.0102826
            vertex 0.0353581 -0.046723 -0.0158
        endloop
    endfacet
    facet normal 0.608446 -0.225489 0.760886
        outer loop
            vertex 0.0566181 -0.0151613 -0.0102793
            vertex 0.0464035 -0.00803746 2.68221e-010
            vertex 0.0412018 -0.0220734 2.68221e-010
        endloop
    endfacet
    facet normal 0.106207 0.671396 0.733449
        outer loop
            vertex 0.0185161 0.0556065 -0.0102744
            vertex -0.000457935 0.0586024 -0.0102693
            vertex 0.0122526 0.0453733 2.68221e-010
        endloop
    endfacet
    facet normal 0.822691 -0.551388 0.138385
        outer loop
            vertex 0.042693 -0.0401585 -0.0102824
            vertex 0.0485472 -0.0328086 -0.0158
            vertex 0.0506862 -0.0282323 -0.0102822
        endloop
    endfacet
    facet normal -0.0122827 -0.168241 0.985669
        outer loop
            vertex -0.0141201 -0.0455367 2.68221e-010
            vertex 0.00494665 -0.0469287 2.68221e-010
            vertex 0.00958203 -0.0231441 0.00411748
        endloop
    endfacet
    facet normal -0.128795 0.0988061 0.986737
        outer loop
            vertex -0.0269509 -3.25733e-006 0.00416881
            vertex -0.0120148 0.0208117 0.00403408
            vertex -0.0400822 0.0245121 2.68221e-010
        endloop
    endfacet
    facet normal -0.738782 -0.673934 -0.00383948
        outer loop
            vertex -0.049132 -0.0319427 -0.0102738
            vertex -0.0491654 -0.0318746 -0.0158
            vertex -0.0362445 -0.0460388 -0.0158
        endloop
    endfacet
    facet normal 0.501007 0.471363 0.725816
        outer loop
            vertex 0.0355262 0.0466203 -0.0102815
            vertex 0.0286715 0.0380744 2.68221e-010
            vertex 0.0486985 0.0326233 -0.0102839
        endloop
    endfacet
    facet normal -0.596623 0.237397 0.766605
        outer loop
            vertex -0.0536969 0.0234737 -0.0102743
            vertex -0.0461992 0.00913896 2.68221e-010
            vertex -0.0400822 0.0245121 2.68221e-010
        endloop
    endfacet
    facet normal -0.795127 0.346394 -0.497779
        outer loop
            vertex -0.0538008 0.0136294 -0.0210921
            vertex -0.0568224 0.0142984 -0.0158
            vertex -0.0491654 0.0318746 -0.0158
        endloop
    endfacet
    facet normal -0.634309 0.584241 -0.506275
        outer loop
            vertex -0.0464565 0.0303657 -0.0210922
            vertex -0.0362445 0.0460388 -0.0158
            vertex -0.0340742 0.0438093 -0.021092
        endloop
    endfacet
    facet normal -0.480532 0.876976 0.00110086
        outer loop
            vertex -0.0361866 0.0460924 -0.0102741
            vertex -0.0193724 0.0553056 -0.0102709
            vertex -0.0194431 0.0552738 -0.0158
        endloop
    endfacet
    facet normal 0.154174 0.988032 -0.0048425
        outer loop
            vertex -0.000457935 0.0586024 -0.0102693
            vertex 0.0183831 0.0556353 -0.0158
            vertex -0.000559862 0.0585912 -0.0158
        endloop
    endfacet
    facet normal -0.0674324 -0.0296019 -0.997285
        outer loop
            vertex -0.0538008 -0.0136293 -0.0210921
            vertex -0.0165526 -0.00844356 -0.0237646
            vertex -0.0464567 -0.0303657 -0.0210919
        endloop
    endfacet
    facet normal 0.872908 -0.0887174 -0.479751
        outer loop
            vertex 0.0538139 -0.0135736 -0.0210923
            vertex 0.0581021 2.56549e-017 -0.0158
            vertex 0.0565388 -0.0153816 -0.0158
        endloop
    endfacet
    facet normal -0.173028 -0.984907 -0.00433282
        outer loop
            vertex -0.0193515 -0.0553142 -0.0102744
            vertex -0.0194431 -0.0552738 -0.0158
            vertex -0.000559862 -0.0585912 -0.0158
        endloop
    endfacet
    facet normal 0.629958 -0.578876 -0.517741
        outer loop
            vertex 0.0341258 -0.0437692 -0.0210923
            vertex 0.0464927 -0.0303111 -0.0210922
            vertex 0.0485472 -0.0328086 -0.0158
        endloop
    endfacet
    facet normal -0.737881 -0.674931 0.000805191
        outer loop
            vertex -0.0361664 -0.0461176 -0.0102811
            vertex -0.049132 -0.0319427 -0.0102738
            vertex -0.0362445 -0.0460388 -0.0158
        endloop
    endfacet
    facet normal 0.0674545 0.0295121 -0.997286
        outer loop
            vertex 0.0464926 0.030311 -0.0210923
            vertex 0.0538139 0.0135736 -0.0210924
            vertex 0.0165513 0.00844296 -0.0237646
        endloop
    endfacet
    facet normal -0.0210287 -0.159231 0.987017
        outer loop
            vertex -0.0141201 -0.0455367 2.68221e-010
            vertex 0.00958203 -0.0231441 0.00411748
            vertex -0.0120535 -0.0208796 0.00402185
        endloop
    endfacet
    facet normal 0.408407 0.753277 -0.515536
        outer loop
            vertex 0.0180581 0.0524806 -0.0210923
            vertex 0.0353581 0.046723 -0.0158
            vertex 0.0341259 0.0437692 -0.0210921
        endloop
    endfacet
    facet normal -0.634308 -0.58424 -0.506277
        outer loop
            vertex -0.0464567 -0.0303657 -0.0210919
            vertex -0.0340741 -0.0438092 -0.0210922
            vertex -0.0362445 -0.0460388 -0.0158
        endloop
    endfacet
    facet normal -0.916325 -0.400434 0.000603901
        outer loop
            vertex -0.049132 -0.0319427 -0.0102738
            vertex -0.0568148 -0.0143619 -0.0102708
            vertex -0.0491654 -0.0318746 -0.0158
        endloop
    endfacet
    facet normal -0.0568343 0.0249343 -0.998072
        outer loop
            vertex -0.0538008 0.0136294 -0.0210921
            vertex -0.0464565 0.0303657 -0.0210922
            vertex -0.0165526 -0.00844356 -0.0237646
        endloop
    endfacet
    facet normal -0.141034 -0.847932 -0.510999
        outer loop
            vertex -0.0179962 -0.0525019 -0.021092
            vertex 3.27039e-005 -0.0555004 -0.0210923
            vertex -0.000559862 -0.0585912 -0.0158
        endloop
    endfacet
    facet normal -0.738785 0.673937 -0.00236257
        outer loop
            vertex -0.0491654 0.0318746 -0.0158
            vertex -0.0458697 0.0355068 -0.0102736
            vertex -0.0362445 0.0460388 -0.0158
        endloop
    endfacet
    facet normal -0.576479 0.374941 0.72601
        outer loop
            vertex -0.0536969 0.0234737 -0.0102743
            vertex -0.0400822 0.0245121 2.68221e-010
            vertex -0.0458697 0.0355068 -0.0102736
        endloop
    endfacet
    facet normal -0.409467 0.757363 -0.508663
        outer loop
            vertex -0.0340742 0.0438093 -0.021092
            vertex -0.0194431 0.0552738 -0.0158
            vertex -0.0179962 0.0525017 -0.0210922
        endloop
    endfacet
    facet normal -0.668976 0.168901 0.723839
        outer loop
            vertex -0.0536969 0.0234737 -0.0102743
            vertex -0.0584034 0.00480284 -0.0102674
            vertex -0.0461992 0.00913896 2.68221e-010
        endloop
    endfacet
    facet normal -0.73786 0.674953 0.00118472
        outer loop
            vertex -0.0361866 0.0460924 -0.0102741
            vertex -0.0362445 0.0460388 -0.0158
            vertex -0.0458697 0.0355068 -0.0102736
        endloop
    endfacet
    facet normal -0.0469059 0.166179 0.984979
        outer loop
            vertex -0.0208442 0.0422304 2.68221e-010
            vertex -0.0120148 0.0208117 0.00403408
            vertex -0.00431273 0.0468966 2.68221e-010
        endloop
    endfacet
    facet normal -0.105926 0.141707 0.984225
        outer loop
            vertex -0.0208442 0.0422304 2.68221e-010
            vertex -0.0325145 0.0335068 2.68221e-010
            vertex -0.0120148 0.0208117 0.00403408
        endloop
    endfacet
    facet normal -0.50962 0.428769 0.745952
        outer loop
            vertex -0.0400822 0.0245121 2.68221e-010
            vertex -0.0325145 0.0335068 2.68221e-010
            vertex -0.0458697 0.0355068 -0.0102736
        endloop
    endfacet
    facet normal 0.0171912 0.186948 0.982219
        outer loop
            vertex 0.0135544 0.0234361 0.00415257
            vertex 0.0122526 0.0453733 2.68221e-010
            vertex -0.00431273 0.0468966 2.68221e-010
        endloop
    endfacet
    facet normal -0.331933 0.60553 0.723294
        outer loop
            vertex -0.0361866 0.0460924 -0.0102741
            vertex -0.0208442 0.0422304 2.68221e-010
            vertex -0.0193724 0.0553056 -0.0102709
        endloop
    endfacet
    facet normal -0.117983 0.676542 0.726891
        outer loop
            vertex -0.000457935 0.0586024 -0.0102693
            vertex -0.0193724 0.0553056 -0.0102709
            vertex -0.00431273 0.0468966 2.68221e-010
        endloop
    endfacet
    facet normal -0.178753 0.071126 0.98132
        outer loop
            vertex -0.0269509 -3.25733e-006 0.00416881
            vertex -0.0400822 0.0245121 2.68221e-010
            vertex -0.0461992 0.00913896 2.68221e-010
        endloop
    endfacet
    facet normal -0.916775 -0.399389 -0.00332675
        outer loop
            vertex -0.0568148 -0.0143619 -0.0102708
            vertex -0.0568224 -0.0142984 -0.0158
            vertex -0.0491654 -0.0318746 -0.0158
        endloop
    endfacet
    facet normal 0.995236 0.0974914 -0.000592183
        outer loop
            vertex 0.0566212 0.0151512 -0.0102845
            vertex 0.0581017 3.76265e-005 -0.0102817
            vertex 0.0581021 2.56549e-017 -0.0158
        endloop
    endfacet
    facet normal -0.173029 0.984911 -0.00345193
        outer loop
            vertex -0.0193724 0.0553056 -0.0102709
            vertex -0.000559862 0.0585912 -0.0158
            vertex -0.0194431 0.0552738 -0.0158
        endloop
    endfacet
    facet normal 0.0322388 0.0594402 -0.997711
        outer loop
            vertex 0.0180581 0.0524806 -0.0210923
            vertex 0.0341259 0.0437692 -0.0210921
            vertex 0.0165513 0.00844296 -0.0237646
        endloop
    endfacet
    facet normal 0.00544805 -0.0106802 -0.999928
        outer loop
            vertex -0.0165526 -0.00844356 -0.0237646
            vertex 0.0165513 0.00844296 -0.0237646
            vertex 0.00810124 -0.015903 -0.0235506
        endloop
    endfacet
    facet normal 0.464839 -0.885365 -0.00730214
        outer loop
            vertex 0.0185409 -0.055598 -0.0102775
            vertex 0.0183831 -0.0556353 -0.0158
            vertex 0.0353581 -0.046723 -0.0158
        endloop
    endfacet
    facet normal 0.0475173 -0.0436572 -0.997916
        outer loop
            vertex 0.0341258 -0.0437692 -0.0210923
            vertex 0.00810124 -0.015903 -0.0235506
            vertex 0.0464927 -0.0303111 -0.0210922
        endloop
    endfacet
    facet normal 0.0845367 0.190166 0.978106
        outer loop
            vertex 0.0135544 0.0234361 0.00415257
            vertex 0.0286715 0.0380744 2.68221e-010
            vertex 0.0122526 0.0453733 2.68221e-010
        endloop
    endfacet
    facet normal -0.0053238 0.0104366 -0.999931
        outer loop
            vertex -0.0165526 -0.00844356 -0.0237646
            vertex -0.00804215 0.0157877 -0.023557
            vertex 0.0165513 0.00844296 -0.0237646
        endloop
    endfacet
    facet normal -0.210536 0.00250422 0.977583
        outer loop
            vertex -0.0269509 -3.25733e-006 0.00416881
            vertex -0.0461992 0.00913896 2.68221e-010
            vertex -0.0464568 -0.0125181 2.68221e-010
        endloop
    endfacet
    facet normal -0.127567 0.107328 0.986006
        outer loop
            vertex -0.0400822 0.0245121 2.68221e-010
            vertex -0.0120148 0.0208117 0.00403408
            vertex -0.0325145 0.0335068 2.68221e-010
        endloop
    endfacet
    facet normal 0.684271 -0.0666785 0.726173
        outer loop
            vertex 0.0566181 -0.0151613 -0.0102793
            vertex 0.0581017 3.76265e-005 -0.0102817
            vertex 0.0464035 -0.00803746 2.68221e-010
        endloop
    endfacet
    facet normal 0.406172 -0.532496 0.742612
        outer loop
            vertex 0.042693 -0.0401585 -0.0102824
            vertex 0.0218431 -0.0417225 2.68221e-010
            vertex 0.031283 -0.048862 -0.0102826
        endloop
    endfacet
    facet normal -0.0472638 -0.647391 0.760691
        outer loop
            vertex -0.000421524 -0.0586072 -0.0102726
            vertex 0.00494665 -0.0469287 2.68221e-010
            vertex -0.0141201 -0.0455367 2.68221e-010
        endloop
    endfacet
    facet normal -0.795125 -0.346393 -0.497784
        outer loop
            vertex -0.0538008 -0.0136293 -0.0210921
            vertex -0.0491654 -0.0318746 -0.0158
            vertex -0.0568224 -0.0142984 -0.0158
        endloop
    endfacet
    facet normal -0.862842 -0.0710625 -0.500454
        outer loop
            vertex -0.0568224 -0.0142984 -0.0158
            vertex -0.058 -6.57203e-017 -0.0158
            vertex -0.0549306 -2.52068e-017 -0.021092
        endloop
    endfacet
    facet normal -0.641755 0.585424 -0.495408
        outer loop
            vertex -0.0464565 0.0303657 -0.0210922
            vertex -0.0491654 0.0318746 -0.0158
            vertex -0.0362445 0.0460388 -0.0158
        endloop
    endfacet
    facet normal -0.528891 -0.484129 0.697061
        outer loop
            vertex -0.0334811 -0.0342482 2.68221e-010
            vertex -0.049132 -0.0319427 -0.0102738
            vertex -0.0361664 -0.0461176 -0.0102811
        endloop
    endfacet
    facet normal 0.408405 -0.753284 -0.515528
        outer loop
            vertex 0.0180581 -0.0524807 -0.0210921
            vertex 0.0341258 -0.0437692 -0.0210923
            vertex 0.0353581 -0.046723 -0.0158
        endloop
    endfacet
    facet normal -0.333986 -0.572823 0.74855
        outer loop
            vertex -0.0334811 -0.0342482 2.68221e-010
            vertex -0.0361664 -0.0461176 -0.0102811
            vertex -0.0141201 -0.0455367 2.68221e-010
        endloop
    endfacet
    facet normal -0.862842 0.0710625 -0.500454
        outer loop
            vertex -0.0568224 0.0142984 -0.0158
            vertex -0.0549306 -2.52068e-017 -0.021092
            vertex -0.058 -6.57203e-017 -0.0158
        endloop
    endfacet
    facet normal 0.156732 -0.987639 0.00219249
        outer loop
            vertex -0.000421524 -0.0586072 -0.0102726
            vertex 0.0183831 -0.0556353 -0.0158
            vertex 0.0185409 -0.055598 -0.0102775
        endloop
    endfacet
    facet normal -0.0532212 -0.048999 -0.99738
        outer loop
            vertex -0.0464567 -0.0303657 -0.0210919
            vertex -0.0165526 -0.00844356 -0.0237646
            vertex -0.0340741 -0.0438092 -0.0210922
        endloop
    endfacet
    facet normal -0.141032 0.847927 -0.511009
        outer loop
            vertex -0.0179962 0.0525017 -0.0210922
            vertex -0.000559862 0.0585912 -0.0158
            vertex 3.27106e-005 0.0555005 -0.021092
        endloop
    endfacet
    facet normal -0.150762 0.858167 -0.490734
        outer loop
            vertex -0.0179962 0.0525017 -0.0210922
            vertex -0.0194431 0.0552738 -0.0158
            vertex -0.000559862 0.0585912 -0.0158
        endloop
    endfacet
    facet normal 0.1418 0.846437 -0.513262
        outer loop
            vertex 3.27106e-005 0.0555005 -0.021092
            vertex 0.0183831 0.0556353 -0.0158
            vertex 0.0180581 0.0524806 -0.0210923
        endloop
    endfacet
    facet normal 0.796601 -0.365302 -0.481645
        outer loop
            vertex 0.0464927 -0.0303111 -0.0210922
            vertex 0.0565388 -0.0153816 -0.0158
            vertex 0.0485472 -0.0328086 -0.0158
        endloop
    endfacet
    facet normal -0.641754 -0.585423 -0.495411
        outer loop
            vertex -0.0464567 -0.0303657 -0.0210919
            vertex -0.0362445 -0.0460388 -0.0158
            vertex -0.0491654 -0.0318746 -0.0158
        endloop
    endfacet
    facet normal 0.408748 -0.520521 0.749655
        outer loop
            vertex 0.042693 -0.0401585 -0.0102824
            vertex 0.0346748 -0.0316462 2.68221e-010
            vertex 0.0218431 -0.0417225 2.68221e-010
        endloop
    endfacet
    facet normal 0.323658 -0.611698 0.721852
        outer loop
            vertex 0.0185409 -0.055598 -0.0102775
            vertex 0.031283 -0.048862 -0.0102826
            vertex 0.0218431 -0.0417225 2.68221e-010
        endloop
    endfacet
    facet normal 0.558853 -0.374568 0.739853
        outer loop
            vertex 0.042693 -0.0401585 -0.0102824
            vertex 0.0506862 -0.0282323 -0.0102822
            vertex 0.0412018 -0.0220734 2.68221e-010
        endloop
    endfacet
    facet normal -0.48168 -0.876329 -0.00569608
        outer loop
            vertex -0.0361664 -0.0461176 -0.0102811
            vertex -0.0362445 -0.0460388 -0.0158
            vertex -0.0194431 -0.0552738 -0.0158
        endloop
    endfacet
    facet normal 0.108775 -0.684267 0.721073
        outer loop
            vertex -0.000421524 -0.0586072 -0.0102726
            vertex 0.0185409 -0.055598 -0.0102775
            vertex 0.00494665 -0.0469287 2.68221e-010
        endloop
    endfacet
    facet normal -0.175087 0.6203 0.764573
        outer loop
            vertex -0.0193724 0.0553056 -0.0102709
            vertex -0.0208442 0.0422304 2.68221e-010
            vertex -0.00431273 0.0468966 2.68221e-010
        endloop
    endfacet
    facet normal 0.681022 0.0668468 0.729205
        outer loop
            vertex 0.0566212 0.0151512 -0.0102845
            vertex 0.0461992 0.00913896 2.68221e-010
            vertex 0.0581017 3.76265e-005 -0.0102817
        endloop
    endfacet
    facet normal 0.322954 0.610753 0.722967
        outer loop
            vertex 0.0355262 0.0466203 -0.0102815
            vertex 0.0185161 0.0556065 -0.0102744
            vertex 0.0286715 0.0380744 2.68221e-010
        endloop
    endfacet
    facet normal 0.910736 0.412972 0.00364506
        outer loop
            vertex 0.0486985 0.0326233 -0.0102839
            vertex 0.0566212 0.0151512 -0.0102845
            vertex 0.0565388 0.0153816 -0.0158
        endloop
    endfacet
    facet normal -0.697706 -0.0579608 0.714035
        outer loop
            vertex -0.0464568 -0.0125181 2.68221e-010
            vertex -0.0584034 0.00480284 -0.0102674
            vertex -0.0568148 -0.0143619 -0.0102708
        endloop
    endfacet
    facet normal -0.0474417 0.0437114 -0.997917
        outer loop
            vertex -0.0464565 0.0303657 -0.0210922
            vertex -0.0340742 0.0438093 -0.021092
            vertex -0.00804215 0.0157877 -0.023557
        endloop
    endfacet
    facet normal -0.326363 -0.596182 0.733522
        outer loop
            vertex -0.0361664 -0.0461176 -0.0102811
            vertex -0.0193515 -0.0553142 -0.0102744
            vertex -0.0141201 -0.0455367 2.68221e-010
        endloop
    endfacet
    facet normal -0.409472 -0.757365 -0.508656
        outer loop
            vertex -0.0340741 -0.0438092 -0.0210922
            vertex -0.0179962 -0.0525019 -0.021092
            vertex -0.0194431 -0.0552738 -0.0158
        endloop
    endfacet
    facet normal 0.467355 -0.884066 0.00244732
        outer loop
            vertex 0.0185409 -0.055598 -0.0102775
            vertex 0.0353581 -0.046723 -0.0158
            vertex 0.031283 -0.048862 -0.0102826
        endloop
    endfacet
    facet normal -0.0100319 -0.0602186 -0.998135
        outer loop
            vertex -0.0179962 -0.0525019 -0.021092
            vertex -0.0165526 -0.00844356 -0.0237646
            vertex 3.27039e-005 -0.0555004 -0.0210923
        endloop
    endfacet
    facet normal -0.645352 0.00767615 0.763847
        outer loop
            vertex -0.0464568 -0.0125181 2.68221e-010
            vertex -0.0461992 0.00913896 2.68221e-010
            vertex -0.0584034 0.00480284 -0.0102674
        endloop
    endfacet
    facet normal -0.649208 -0.283824 0.705672
        outer loop
            vertex -0.0464568 -0.0125181 2.68221e-010
            vertex -0.0568148 -0.0143619 -0.0102708
            vertex -0.049132 -0.0319427 -0.0102738
        endloop
    endfacet
    facet normal -0.152078 -0.0908103 0.984188
        outer loop
            vertex -0.0334811 -0.0342482 2.68221e-010
            vertex -0.0269509 -3.25733e-006 0.00416881
            vertex -0.0464568 -0.0125181 2.68221e-010
        endloop
    endfacet
    facet normal -0.419065 0.762412 -0.493064
        outer loop
            vertex -0.0340742 0.0438093 -0.021092
            vertex -0.0362445 0.0460388 -0.0158
            vertex -0.0194431 0.0552738 -0.0158
        endloop
    endfacet
    facet normal -0.551574 -0.329362 0.766346
        outer loop
            vertex -0.0334811 -0.0342482 2.68221e-010
            vertex -0.0464568 -0.0125181 2.68221e-010
            vertex -0.049132 -0.0319427 -0.0102738
        endloop
    endfacet
    facet normal 0.0020596 -0.00286633 0.999994
        outer loop
            vertex 0.0135544 0.0234361 0.00415257
            vertex -0.0269509 -3.25733e-006 0.00416881
            vertex 0.0252946 -0.00332603 0.00405168
        endloop
    endfacet
    facet normal -0.0321399 -0.0594686 -0.997713
        outer loop
            vertex -0.0340741 -0.0438092 -0.0210922
            vertex -0.0165526 -0.00844356 -0.0237646
            vertex -0.0179962 -0.0525019 -0.021092
        endloop
    endfacet
    facet normal 0.128511 -0.0986122 0.986793
        outer loop
            vertex 0.00958203 -0.0231441 0.00411748
            vertex 0.0346748 -0.0316462 2.68221e-010
            vertex 0.0252946 -0.00332603 0.00405168
        endloop
    endfacet
    facet normal 0.0595111 0.647161 0.760027
        outer loop
            vertex -0.000457935 0.0586024 -0.0102693
            vertex -0.00431273 0.0468966 2.68221e-010
            vertex 0.0122526 0.0453733 2.68221e-010
        endloop
    endfacet
    facet normal -0.862278 -0.0714749 -0.501367
        outer loop
            vertex -0.0538008 -0.0136293 -0.0210921
            vertex -0.0568224 -0.0142984 -0.0158
            vertex -0.0549306 -2.52068e-017 -0.021092
        endloop
    endfacet
    facet normal 0.0707341 0.00579352 -0.997478
        outer loop
            vertex 0.0538139 0.0135736 -0.0210924
            vertex 0.0549313 2.77518e-016 -0.021092
            vertex 0.0165513 0.00844296 -0.0237646
        endloop
    endfacet
    facet normal 0.782626 0.342341 -0.519902
        outer loop
            vertex 0.0464926 0.030311 -0.0210923
            vertex 0.0565388 0.0153816 -0.0158
            vertex 0.0538139 0.0135736 -0.0210924
        endloop
    endfacet
    facet normal 0.134532 0.862153 -0.488461
        outer loop
            vertex 3.27106e-005 0.0555005 -0.021092
            vertex -0.000559862 0.0585912 -0.0158
            vertex 0.0183831 0.0556353 -0.0158
        endloop
    endfacet
    facet normal 0.657098 0.00781576 0.753764
        outer loop
            vertex 0.0461992 0.00913896 2.68221e-010
            vertex 0.0464035 -0.00803746 2.68221e-010
            vertex 0.0581017 3.76265e-005 -0.0102817
        endloop
    endfacet
    facet normal 0.154471 0.0614641 0.986084
        outer loop
            vertex 0.0252946 -0.00332603 0.00405168
            vertex 0.0461992 0.00913896 2.68221e-010
            vertex 0.0400822 0.0245121 2.68221e-010
        endloop
    endfacet
    facet normal 0.994819 0.101108 -0.0106387
        outer loop
            vertex 0.0566212 0.0151512 -0.0102845
            vertex 0.0581021 2.56549e-017 -0.0158
            vertex 0.0565388 0.0153816 -0.0158
        endloop
    endfacet
    facet normal 0.0316737 -0.0584425 -0.997788
        outer loop
            vertex 0.0180581 -0.0524807 -0.0210921
            vertex 0.00810124 -0.015903 -0.0235506
            vertex 0.0341258 -0.0437692 -0.0210923
        endloop
    endfacet
    facet normal 0.855678 0.0704256 -0.512695
        outer loop
            vertex 0.0538139 0.0135736 -0.0210924
            vertex 0.0581021 2.56549e-017 -0.0158
            vertex 0.0549313 2.77518e-016 -0.021092
        endloop
    endfacet
    facet normal 0.552841 -0.376942 0.743157
        outer loop
            vertex 0.042693 -0.0401585 -0.0102824
            vertex 0.0412018 -0.0220734 2.68221e-010
            vertex 0.0346748 -0.0316462 2.68221e-010
        endloop
    endfacet
    facet normal -0.00376038 0.00630148 0.999973
        outer loop
            vertex 0.00958203 -0.0231441 0.00411748
            vertex 0.0252946 -0.00332603 0.00405168
            vertex -0.0120535 -0.0208796 0.00402185
        endloop
    endfacet
    facet normal -0.00949957 -0.0600319 -0.998151
        outer loop
            vertex 3.27039e-005 -0.0555004 -0.0210923
            vertex -0.0165526 -0.00844356 -0.0237646
            vertex 0.00810124 -0.015903 -0.0235506
        endloop
    endfacet
    facet normal 0.40622 -0.773717 -0.486156
        outer loop
            vertex 0.0180581 -0.0524807 -0.0210921
            vertex 0.0353581 -0.046723 -0.0158
            vertex 0.0183831 -0.0556353 -0.0158
        endloop
    endfacet
    facet normal 0.112705 -0.143525 0.983208
        outer loop
            vertex 0.00958203 -0.0231441 0.00411748
            vertex 0.0218431 -0.0417225 2.68221e-010
            vertex 0.0346748 -0.0316462 2.68221e-010
        endloop
    endfacet
    facet normal 0.188918 -0.613122 0.767067
        outer loop
            vertex 0.0185409 -0.055598 -0.0102775
            vertex 0.0218431 -0.0417225 2.68221e-010
            vertex 0.00494665 -0.0469287 2.68221e-010
        endloop
    endfacet
    facet normal -0.829994 0.53988 0.140138
        outer loop
            vertex -0.0536969 0.0234737 -0.0102743
            vertex -0.0458697 0.0355068 -0.0102736
            vertex -0.0491654 0.0318746 -0.0158
        endloop
    endfacet
    facet normal 0.0536391 -0.0273912 -0.998185
        outer loop
            vertex 0.0464927 -0.0303111 -0.0210922
            vertex 0.00810124 -0.015903 -0.0235506
            vertex 0.0165513 0.00844296 -0.0237646
        endloop
    endfacet
    facet normal 0.908961 -0.416828 -0.00665808
        outer loop
            vertex 0.0485472 -0.0328086 -0.0158
            vertex 0.0565388 -0.0153816 -0.0158
            vertex 0.0506862 -0.0282323 -0.0102822
        endloop
    endfacet
    facet normal 0.188984 0.00224784 0.981978
        outer loop
            vertex 0.0252946 -0.00332603 0.00405168
            vertex 0.0464035 -0.00803746 2.68221e-010
            vertex 0.0461992 0.00913896 2.68221e-010
        endloop
    endfacet
    facet normal -0.0707519 -0.00585762 -0.997477
        outer loop
            vertex -0.0538008 -0.0136293 -0.0210921
            vertex -0.0549306 -2.52068e-017 -0.021092
            vertex -0.0165526 -0.00844356 -0.0237646
        endloop
    endfacet
    facet normal 0.148493 0.124935 0.98099
        outer loop
            vertex 0.0135544 0.0234361 0.00415257
            vertex 0.0400822 0.0245121 2.68221e-010
            vertex 0.0286715 0.0380744 2.68221e-010
        endloop
    endfacet
    facet normal -0.790989 -0.3471 -0.503844
        outer loop
            vertex -0.0538008 -0.0136293 -0.0210921
            vertex -0.0464567 -0.0303657 -0.0210919
            vertex -0.0491654 -0.0318746 -0.0158
        endloop
    endfacet
    facet normal 0.151856 0.0628988 0.986399
        outer loop
            vertex 0.0135544 0.0234361 0.00415257
            vertex 0.0252946 -0.00332603 0.00405168
            vertex 0.0400822 0.0245121 2.68221e-010
        endloop
    endfacet
    facet normal -0.125241 -0.0963236 0.987439
        outer loop
            vertex -0.0334811 -0.0342482 2.68221e-010
            vertex -0.0120535 -0.0208796 0.00402185
            vertex -0.0269509 -3.25733e-006 0.00416881
        endloop
    endfacet
    facet normal -0.790987 0.347102 -0.503845
        outer loop
            vertex -0.0538008 0.0136294 -0.0210921
            vertex -0.0491654 0.0318746 -0.0158
            vertex -0.0464565 0.0303657 -0.0210922
        endloop
    endfacet
    facet normal -0.0106517 0.0641053 -0.997886
        outer loop
            vertex -0.0179962 0.0525017 -0.0210922
            vertex 3.27106e-005 0.0555005 -0.021092
            vertex -0.00804215 0.0157877 -0.023557
        endloop
    endfacet
    facet normal -0.479851 -0.877349 0.00153998
        outer loop
            vertex -0.0361664 -0.0461176 -0.0102811
            vertex -0.0194431 -0.0552738 -0.0158
            vertex -0.0193515 -0.0553142 -0.0102744
        endloop
    endfacet
    facet normal -0.384207 0.513986 0.766944
        outer loop
            vertex -0.0361866 0.0460924 -0.0102741
            vertex -0.0325145 0.0335068 2.68221e-010
            vertex -0.0208442 0.0422304 2.68221e-010
        endloop
    endfacet
    facet normal -0.907341 0.395279 -0.143133
        outer loop
            vertex -0.0536969 0.0234737 -0.0102743
            vertex -0.0491654 0.0318746 -0.0158
            vertex -0.0568224 0.0142984 -0.0158
        endloop
    endfacet
    facet normal -0.498662 0.456182 0.737044
        outer loop
            vertex -0.0361866 0.0460924 -0.0102741
            vertex -0.0458697 0.0355068 -0.0102736
            vertex -0.0325145 0.0335068 2.68221e-010
        endloop
    endfacet
    facet normal -0.481685 0.876338 -0.00345295
        outer loop
            vertex -0.0361866 0.0460924 -0.0102741
            vertex -0.0194431 0.0552738 -0.0158
            vertex -0.0362445 0.0460388 -0.0158
        endloop
    endfacet
    facet normal 0.155963 0.987762 0.00139441
        outer loop
            vertex 0.0185161 0.0556065 -0.0102744
            vertex 0.0183831 0.0556353 -0.0158
            vertex -0.000457935 0.0586024 -0.0102693
        endloop
    endfacet
    facet normal 0.728232 0.685324 0.00304783
        outer loop
            vertex 0.0355262 0.0466203 -0.0102815
            vertex 0.0486985 0.0326233 -0.0102839
            vertex 0.0485472 0.0328086 -0.0158
        endloop
    endfacet
    facet normal 0.406221 0.773718 -0.486153
        outer loop
            vertex 0.0180581 0.0524806 -0.0210923
            vertex 0.0183831 0.0556353 -0.0158
            vertex 0.0353581 0.046723 -0.0158
        endloop
    endfacet
    facet normal 0.139205 -0.0949141 0.985704
        outer loop
            vertex 0.0252946 -0.00332603 0.00405168
            vertex 0.0346748 -0.0316462 2.68221e-010
            vertex 0.0412018 -0.0220734 2.68221e-010
        endloop
    endfacet
    facet normal 0.607368 0.241673 0.756768
        outer loop
            vertex 0.0566212 0.0151512 -0.0102845
            vertex 0.0400822 0.0245121 2.68221e-010
            vertex 0.0461992 0.00913896 2.68221e-010
        endloop
    endfacet
    facet normal 0.629954 0.578871 -0.517751
        outer loop
            vertex 0.0341259 0.0437692 -0.0210921
            vertex 0.0485472 0.0328086 -0.0158
            vertex 0.0464926 0.030311 -0.0210923
        endloop
    endfacet
    facet normal 0.0682408 -0.00559566 -0.997653
        outer loop
            vertex 0.0538139 -0.0135736 -0.0210923
            vertex 0.0165513 0.00844296 -0.0237646
            vertex 0.0549313 2.77518e-016 -0.021092
        endloop
    endfacet
    facet normal 0.154173 -0.988021 -0.00671861
        outer loop
            vertex -0.000421524 -0.0586072 -0.0102726
            vertex -0.000559862 -0.0585912 -0.0158
            vertex 0.0183831 -0.0556353 -0.0158
        endloop
    endfacet
    facet normal -0.0208753 0.158819 0.987087
        outer loop
            vertex 0.0135544 0.0234361 0.00415257
            vertex -0.00431273 0.0468966 2.68221e-010
            vertex -0.0120148 0.0208117 0.00403408
        endloop
    endfacet
    facet normal 0.635137 -0.60203 -0.483902
        outer loop
            vertex 0.0341258 -0.0437692 -0.0210923
            vertex 0.0485472 -0.0328086 -0.0158
            vertex 0.0353581 -0.046723 -0.0158
        endloop
    endfacet
    facet normal 0.0568746 -0.0248836 -0.998071
        outer loop
            vertex 0.0464927 -0.0303111 -0.0210922
            vertex 0.0165513 0.00844296 -0.0237646
            vertex 0.0538139 -0.0135736 -0.0210923
        endloop
    endfacet
    facet normal 0.134533 -0.862157 -0.488452
        outer loop
            vertex 3.27039e-005 -0.0555004 -0.0210923
            vertex 0.0183831 -0.0556353 -0.0158
            vertex -0.000559862 -0.0585912 -0.0158
        endloop
    endfacet
    facet normal -0.171383 -0.985203 0.00143746
        outer loop
            vertex -0.000421524 -0.0586072 -0.0102726
            vertex -0.0193515 -0.0553142 -0.0102744
            vertex -0.000559862 -0.0585912 -0.0158
        endloop
    endfacet
    facet normal -0.150763 -0.858173 -0.490724
        outer loop
            vertex -0.0179962 -0.0525019 -0.021092
            vertex -0.000559862 -0.0585912 -0.0158
            vertex -0.0194431 -0.0552738 -0.0158
        endloop
    endfacet
    facet normal 0.910609 -0.413255 0.00341111
        outer loop
            vertex 0.0566181 -0.0151613 -0.0102793
            vertex 0.0506862 -0.0282323 -0.0102822
            vertex 0.0565388 -0.0153816 -0.0158
        endloop
    endfacet
    facet normal -0.171712 0.985147 0.0011692
        outer loop
            vertex -0.000457935 0.0586024 -0.0102693
            vertex -0.000559862 0.0585912 -0.0158
            vertex -0.0193724 0.0553056 -0.0102709
        endloop
    endfacet
    facet normal 0.616076 0.279334 0.736494
        outer loop
            vertex 0.0486985 0.0326233 -0.0102839
            vertex 0.0400822 0.0245121 2.68221e-010
            vertex 0.0566212 0.0151512 -0.0102845
        endloop
    endfacet
    facet normal 0.0107565 -0.0641427 -0.997883
        outer loop
            vertex 3.27039e-005 -0.0555004 -0.0210923
            vertex 0.00810124 -0.015903 -0.0235506
            vertex 0.0180581 -0.0524807 -0.0210921
        endloop
    endfacet
    facet normal 0.0557234 -0.180847 0.981931
        outer loop
            vertex 0.00958203 -0.0231441 0.00411748
            vertex 0.00494665 -0.0469287 2.68221e-010
            vertex 0.0218431 -0.0417225 2.68221e-010
        endloop
    endfacet
    facet normal 0.994823 -0.101108 -0.0102545
        outer loop
            vertex 0.0566181 -0.0151613 -0.0102793
            vertex 0.0565388 -0.0153816 -0.0158
            vertex 0.0581021 2.56549e-017 -0.0158
        endloop
    endfacet
    facet normal 0.00187947 -0.00569823 0.999982
        outer loop
            vertex -0.0269509 -3.25733e-006 0.00416881
            vertex -0.0120535 -0.0208796 0.00402185
            vertex 0.0252946 -0.00332603 0.00405168
        endloop
    endfacet
    facet normal -0.986462 0.0812437 -0.142454
        outer loop
            vertex -0.0584034 0.00480284 -0.0102674
            vertex -0.0568224 0.0142984 -0.0158
            vertex -0.058 -6.57203e-017 -0.0158
        endloop
    endfacet
    facet normal 0.855677 -0.0704294 -0.512695
        outer loop
            vertex 0.0538139 -0.0135736 -0.0210923
            vertex 0.0549313 2.77518e-016 -0.021092
            vertex 0.0581021 2.56549e-017 -0.0158
        endloop
    endfacet
    facet normal -0.00571929 0.0105762 0.999928
        outer loop
            vertex 0.0135544 0.0234361 0.00415257
            vertex -0.0120148 0.0208117 0.00403408
            vertex -0.0269509 -3.25733e-006 0.00416881
        endloop
    endfacet
    facet normal 0.00950037 0.0600242 -0.998152
        outer loop
            vertex 3.27106e-005 0.0555005 -0.021092
            vertex 0.0165513 0.00844296 -0.0237646
            vertex -0.00804215 0.0157877 -0.023557
        endloop
    endfacet
    facet normal 0.265528 0.597306 0.756783
        outer loop
            vertex 0.0185161 0.0556065 -0.0102744
            vertex 0.0122526 0.0453733 2.68221e-010
            vertex 0.0286715 0.0380744 2.68221e-010
        endloop
    endfacet
    facet normal -0.0892373 -0.153052 0.984181
        outer loop
            vertex -0.0334811 -0.0342482 2.68221e-010
            vertex -0.0141201 -0.0455367 2.68221e-010
            vertex -0.0120535 -0.0208796 0.00402185
        endloop
    endfacet
    facet normal -0.0536508 0.027395 -0.998184
        outer loop
            vertex -0.0464565 0.0303657 -0.0210922
            vertex -0.00804215 0.0157877 -0.023557
            vertex -0.0165526 -0.00844356 -0.0237646
        endloop
    endfacet
    facet normal 0.908927 0.416812 -0.0109286
        outer loop
            vertex 0.0486985 0.0326233 -0.0102839
            vertex 0.0565388 0.0153816 -0.0158
            vertex 0.0485472 0.0328086 -0.0158
        endloop
    endfacet
    facet normal 0.995269 -0.0971503 0.000734983
        outer loop
            vertex 0.0566181 -0.0151613 -0.0102793
            vertex 0.0581021 2.56549e-017 -0.0158
            vertex 0.0581017 3.76265e-005 -0.0102817
        endloop
    endfacet
    facet normal 0.0532614 0.0489565 -0.99738
        outer loop
            vertex 0.0341259 0.0437692 -0.0210921
            vertex 0.0464926 0.030311 -0.0210923
            vertex 0.0165513 0.00844296 -0.0237646
        endloop
    endfacet
    facet normal 0.872912 0.0887178 -0.479744
        outer loop
            vertex 0.0538139 0.0135736 -0.0210924
            vertex 0.0565388 0.0153816 -0.0158
            vertex 0.0581021 2.56549e-017 -0.0158
        endloop
    endfacet
    facet normal 0.6163 -0.279853 0.736109
        outer loop
            vertex 0.0566181 -0.0151613 -0.0102793
            vertex 0.0412018 -0.0220734 2.68221e-010
            vertex 0.0506862 -0.0282323 -0.0102822
        endloop
    endfacet
    facet normal 0.46711 0.884197 0.00222671
        outer loop
            vertex 0.0355262 0.0466203 -0.0102815
            vertex 0.0353581 0.046723 -0.0158
            vertex 0.0185161 0.0556065 -0.0102744
        endloop
    endfacet
    facet normal -0.862278 0.0714744 -0.501366
        outer loop
            vertex -0.0538008 0.0136294 -0.0210921
            vertex -0.0549306 -2.52068e-017 -0.021092
            vertex -0.0568224 0.0142984 -0.0158
        endloop
    endfacet
    facet normal 0.725738 0.687908 -0.00930446
        outer loop
            vertex 0.0355262 0.0466203 -0.0102815
            vertex 0.0485472 0.0328086 -0.0158
            vertex 0.0353581 0.046723 -0.0158
        endloop
    endfacet
    facet normal 0.635135 0.602028 -0.483907
        outer loop
            vertex 0.0341259 0.0437692 -0.0210921
            vertex 0.0353581 0.046723 -0.0158
            vertex 0.0485472 0.0328086 -0.0158
        endloop
    endfacet
    facet normal 0.796596 0.3653 -0.481655
        outer loop
            vertex 0.0464926 0.030311 -0.0210923
            vertex 0.0485472 0.0328086 -0.0158
            vertex 0.0565388 0.0153816 -0.0158
        endloop
    endfacet
    facet normal 0.174192 -0.0645554 0.982593
        outer loop
            vertex 0.0252946 -0.00332603 0.00405168
            vertex 0.0412018 -0.0220734 2.68221e-010
            vertex 0.0464035 -0.00803746 2.68221e-010
        endloop
    endfacet
    facet normal -0.0682326 0.00564875 -0.997653
        outer loop
            vertex -0.0538008 0.0136294 -0.0210921
            vertex -0.0165526 -0.00844356 -0.0237646
            vertex -0.0549306 -2.52068e-017 -0.021092
        endloop
    endfacet
    facet normal 0.502379 0.422679 0.754293
        outer loop
            vertex 0.0486985 0.0326233 -0.0102839
            vertex 0.0286715 0.0380744 2.68221e-010
            vertex 0.0400822 0.0245121 2.68221e-010
        endloop
    endfacet
    facet normal -0.996625 -0.0820807 -0.00141314
        outer loop
            vertex -0.0584034 0.00480284 -0.0102674
            vertex -0.058 -6.57203e-017 -0.0158
            vertex -0.0568224 -0.0142984 -0.0158
        endloop
    endfacet
endsolid D:/Users/Paul Maroldt/Documents/!StartUp_Repositories/module_type_database/0100_BD116-KM/BD116_distal_part_convdec.stl_created_by_BoundingMesh