solid D:/Users/Paul Maroldt/Documents/!StartUp_Repositories/modrob-gen2/ModuleLibrary/L383-L-80-80/L383-L-80-80_convdec.stl_created_by_BoundingMesh
    facet normal -0.893511 0.203719 0.400171
        outer loop
            vertex -0.0299157 0.00715416 0.0587217
            vertex -0.0309204 0.015927 0.0520123
            vertex -0.037741 0.0126833 0.0384344
        endloop
    endfacet
    facet normal -0.494172 -0.869117 -0.020733
        outer loop
            vertex -0.0191646 -0.0389972 0.0358718
            vertex -0.0277717 -0.0334861 0.01
            vertex -0.0107952 -0.0431222 0.00930476
        endloop
    endfacet
    facet normal 0.00110792 -0.198746 0.98005
        outer loop
            vertex 0.0312713 -0.010871 0.0950369
            vertex 0.373 -0.0159747 0.0936156
            vertex 0.373 -0.00365218 0.0961145
        endloop
    endfacet
    facet normal -0.954001 0.154772 0.256766
        outer loop
            vertex -0.0389341 0.00036446 0.041427
            vertex -0.037741 0.0126833 0.0384344
            vertex -0.0429203 0.00332953 0.0248292
        endloop
    endfacet
    facet normal -0.792174 0.310915 0.525159
        outer loop
            vertex -0.020741 0.0123868 0.0694633
            vertex -0.0309204 0.015927 0.0520123
            vertex -0.0299157 0.00715416 0.0587217
        endloop
    endfacet
    facet normal 0.672269 0.670566 -0.31368
        outer loop
            vertex 0.383 0.025869 0.0283033
            vertex 0.372998 0.0358745 0.0282565
            vertex 0.372967 0.0420974 0.041493
        endloop
    endfacet
    facet normal 0.960849 0.275597 0.0285494
        outer loop
            vertex 0.383 0.0367724 0.0515448
            vertex 0.387035 0.0213706 0.0644223
            vertex 0.387333 0.0227831 0.0407578
        endloop
    endfacet
    facet normal -0.696292 -0.639465 0.325979
        outer loop
            vertex -0.0164073 -0.034076 0.0550692
            vertex -0.0307434 -0.0249375 0.042374
            vertex -0.0276226 -0.0331817 0.0328676
        endloop
    endfacet
    facet normal -0.475992 0.39961 0.783418
        outer loop
            vertex -0.01238 0.0183099 0.0740882
            vertex -0.000948297 0.0112166 0.0846521
            vertex -0.00153641 0.0234206 0.0780697
        endloop
    endfacet
    facet normal -0.279883 -0.406247 0.869844
        outer loop
            vertex 0.010045 -0.024991 0.0836492
            vertex 0.0232413 -0.022368 0.0891203
            vertex 0.0161302 -0.0128938 0.091257
        endloop
    endfacet
    facet normal -0.00389293 -0.0133034 -0.999904
        outer loop
            vertex 0.0545667 0.0134747 -0.000412967
            vertex -0.0339831 0.0111336 -3.70678e-005
            vertex -0.00879103 0.0345975 -0.000447328
        endloop
    endfacet
    facet normal 0.589275 -0.355022 -0.725751
        outer loop
            vertex 0.373169 -0.00877831 0.00955354
            vertex 0.383 -0.016604 0.021364
            vertex 0.372992 -0.0254568 0.0175686
        endloop
    endfacet
    facet normal -0.364515 -0.203366 0.90872
        outer loop
            vertex 0.00332442 -0.0147219 0.0857111
            vertex 0.0161302 -0.0128938 0.091257
            vertex 0.00451619 -0.00296581 0.0888201
        endloop
    endfacet
    facet normal 0.851154 -0.125624 0.509663
        outer loop
            vertex 0.387397 -7.16915e-005 0.0805432
            vertex 0.383 0.00590904 0.0893605
            vertex 0.383 -0.0161353 0.0839269
        endloop
    endfacet
    facet normal -0.00142391 0.825904 0.563809
        outer loop
            vertex 0.373 0.032845 0.0821424
            vertex 0.0217416 0.0382446 0.0733456
            vertex 0.0255348 0.0328402 0.0812719
        endloop
    endfacet
    facet normal -0.322819 -0.148191 0.934787
        outer loop
            vertex 0.0248191 -0.00120207 0.0961111
            vertex 0.00451619 -0.00296581 0.0888201
            vertex 0.0161302 -0.0128938 0.091257
        endloop
    endfacet
    facet normal 0.945809 -0.20602 0.251
        outer loop
            vertex 0.387397 -7.16915e-005 0.0805432
            vertex 0.383 -0.0161353 0.0839269
            vertex 0.387189 -0.0252329 0.0606747
        endloop
    endfacet
    facet normal -0.157742 0.779113 0.606713
        outer loop
            vertex 0.00891348 0.0330431 0.0766899
            vertex 0.0255348 0.0328402 0.0812719
            vertex 0.0217416 0.0382446 0.0733456
        endloop
    endfacet
    facet normal 0.0288758 -0.0340035 -0.999004
        outer loop
            vertex -0.0119153 -0.0346276 -0.000697325
            vertex 0.0545667 0.0134747 -0.000412967
            vertex 0.373169 -0.00877831 0.00955354
        endloop
    endfacet
    facet normal 0.0530186 -0.432991 -0.899838
        outer loop
            vertex -0.0119153 -0.0346276 -0.000697325
            vertex 0.373169 -0.00877831 0.00955354
            vertex 0.372992 -0.0254568 0.0175686
        endloop
    endfacet
    facet normal -0.256139 -0.667243 0.699414
        outer loop
            vertex 0.010045 -0.024991 0.0836492
            vertex 0.00984446 -0.0367036 0.0724019
            vertex 0.0229235 -0.0330249 0.0807012
        endloop
    endfacet
    facet normal -0.00427226 0.00103031 -0.99999
        outer loop
            vertex 0.0545667 0.0134747 -0.000412967
            vertex -0.0337889 -0.0144515 -6.42584e-005
            vertex -0.0339831 0.0111336 -3.70678e-005
        endloop
    endfacet
    facet normal 0.953046 -0.0877899 -0.28982
        outer loop
            vertex 0.383 -0.016604 0.021364
            vertex 0.387027 0.00237861 0.0288564
            vertex 0.387083 -0.0178469 0.0351671
        endloop
    endfacet
    facet normal -0.000502194 -0.999993 -0.00362437
        outer loop
            vertex -0.00783342 -0.0432522 0.0447628
            vertex -0.0107952 -0.0431222 0.00930476
            vertex 0.373003 -0.0434849 0.0561979
        endloop
    endfacet
    facet normal 0.673509 -0.533104 -0.512041
        outer loop
            vertex 0.383 -0.016604 0.021364
            vertex 0.383 -0.0283288 0.0335711
            vertex 0.372986 -0.0358926 0.0282742
        endloop
    endfacet
    facet normal 0.599173 0.0447275 -0.799369
        outer loop
            vertex 0.373169 -0.00877831 0.00955354
            vertex 0.373005 0.0108217 0.0105273
            vertex 0.383 0.00573141 0.0177343
        endloop
    endfacet
    facet normal -0.0609811 0.0480406 -0.996982
        outer loop
            vertex -0.00879103 0.0345975 -0.000447328
            vertex -0.0339831 0.0111336 -3.70678e-005
            vertex -0.0237816 0.0247589 -4.50164e-006
        endloop
    endfacet
    facet normal -0.965609 -0.25864 -0.0265336
        outer loop
            vertex -0.03924 -0.0199456 0.01
            vertex -0.0413451 -0.0131711 0.0205734
            vertex -0.0433906 -0.0044497 0.01
        endloop
    endfacet
    facet normal -0.000501248 0.999996 -0.002726
        outer loop
            vertex 0.00429359 0.0431469 0.0568016
            vertex 0.373145 0.0433256 0.0545315
            vertex -0.00684612 0.0430122 0.00943735
        endloop
    endfacet
    facet normal -0.000790386 -0.110939 0.993827
        outer loop
            vertex 0.0248191 -0.00120207 0.0961111
            vertex 0.0312713 -0.010871 0.0950369
            vertex 0.373 -0.00365218 0.0961145
        endloop
    endfacet
    facet normal 0.881361 0.427715 -0.200656
        outer loop
            vertex 0.383 0.0367724 0.0515448
            vertex 0.387333 0.0227831 0.0407578
            vertex 0.383 0.025869 0.0283033
        endloop
    endfacet
    facet normal 0.0347081 0.0498802 -0.998152
        outer loop
            vertex 0.0545667 0.0134747 -0.000412967
            vertex 0.373005 0.0108217 0.0105273
            vertex 0.373169 -0.00877831 0.00955354
        endloop
    endfacet
    facet normal 0.726782 -0.110177 -0.677974
        outer loop
            vertex 0.373169 -0.00877831 0.00955354
            vertex 0.383 0.00573141 0.0177343
            vertex 0.383 -0.016604 0.021364
        endloop
    endfacet
    facet normal -0.757445 0.623049 0.19516
        outer loop
            vertex -0.0353767 0.0250514 0.025323
            vertex -0.026797 0.030409 0.0415179
            vertex -0.0287887 0.0325234 0.0270376
        endloop
    endfacet
    facet normal -0.428096 0.880323 0.204366
        outer loop
            vertex -0.015791 0.0370067 0.0505148
            vertex -0.00630262 0.0429707 0.0447002
            vertex -0.0200987 0.0388287 0.0336428
        endloop
    endfacet
    facet normal -0.893696 0.0518443 0.445668
        outer loop
            vertex -0.0299157 0.00715416 0.0587217
            vertex -0.0389341 0.00036446 0.041427
            vertex -0.0323165 -0.00217459 0.0549926
        endloop
    endfacet
    facet normal -0.6395 -0.342427 0.688319
        outer loop
            vertex -0.00550032 -0.0138849 0.0815234
            vertex -0.0187403 -0.0105402 0.0708864
            vertex -0.0176322 -0.0199347 0.0672423
        endloop
    endfacet
    facet normal 0.000586547 -0.524289 0.85154
        outer loop
            vertex 0.373 -0.0159747 0.0936156
            vertex 0.0342328 -0.0204861 0.0910713
            vertex 0.373 -0.0286719 0.085798
        endloop
    endfacet
    facet normal -0.211304 -0.864526 0.456011
        outer loop
            vertex 0.0192772 -0.0389175 0.0725756
            vertex 0.00984446 -0.0367036 0.0724019
            vertex 0.00946606 -0.042722 0.0608166
        endloop
    endfacet
    facet normal 0.933 -0.0577256 -0.355216
        outer loop
            vertex 0.383 -0.016604 0.021364
            vertex 0.383 0.00573141 0.0177343
            vertex 0.387027 0.00237861 0.0288564
        endloop
    endfacet
    facet normal 0.0379599 -0.905364 -0.422937
        outer loop
            vertex -0.0107952 -0.0431222 0.00930476
            vertex 0.372986 -0.0358926 0.0282742
            vertex 0.372999 -0.0421021 0.0415678
        endloop
    endfacet
    facet normal 0.0501228 -0.715186 -0.697134
        outer loop
            vertex -0.0119153 -0.0346276 -0.000697325
            vertex 0.372992 -0.0254568 0.0175686
            vertex 0.372986 -0.0358926 0.0282742
        endloop
    endfacet
    facet normal -0.972593 -0.0743765 0.220295
        outer loop
            vertex -0.0389341 0.00036446 0.041427
            vertex -0.0429203 0.00332953 0.0248292
            vertex -0.0407414 -0.0101703 0.0298911
        endloop
    endfacet
    facet normal -0.48421 0.583852 -0.651658
        outer loop
            vertex -0.0331967 0.028117 0.01
            vertex -0.0214912 0.0378248 0.01
            vertex -0.0237816 0.0247589 -4.50164e-006
        endloop
    endfacet
    facet normal -0.89663 0.43898 0.0578823
        outer loop
            vertex -0.0409499 0.013436 0.0270823
            vertex -0.0353767 0.0250514 0.025323
            vertex -0.0399911 0.017617 0.0102259
        endloop
    endfacet
    facet normal -0.661656 0.492582 0.565309
        outer loop
            vertex -0.020741 0.0123868 0.0694633
            vertex -0.01238 0.0183099 0.0740882
            vertex -0.0296574 0.0223903 0.0503107
        endloop
    endfacet
    facet normal -0.406868 0.546783 0.731769
        outer loop
            vertex 0.00891348 0.0330431 0.0766899
            vertex -0.00153641 0.0234206 0.0780697
            vertex 0.0122036 0.0257829 0.0839441
        endloop
    endfacet
    facet normal -0.252561 0.172571 0.952067
        outer loop
            vertex 0.0248191 -0.00120207 0.0961111
            vertex 0.028281 0.00580146 0.09576
            vertex 0.0129029 0.00787174 0.0913053
        endloop
    endfacet
    facet normal 0.999703 -0.021584 0.0113004
        outer loop
            vertex 0.387333 0.0227831 0.0407578
            vertex 0.387035 0.0213706 0.0644223
            vertex 0.387027 0.00237861 0.0288564
        endloop
    endfacet
    facet normal 0.0103243 0.995526 -0.0939174
        outer loop
            vertex -0.00684612 0.0430122 0.00943735
            vertex 0.373145 0.0433256 0.0545315
            vertex 0.372967 0.0420974 0.041493
        endloop
    endfacet
    facet normal -0.651783 0.408005 -0.639305
        outer loop
            vertex -0.0399911 0.017617 0.0102259
            vertex -0.0331967 0.028117 0.01
            vertex -0.0339831 0.0111336 -3.70678e-005
        endloop
    endfacet
    facet normal -0.77289 0.223729 -0.59379
        outer loop
            vertex -0.0399911 0.017617 0.0102259
            vertex -0.0339831 0.0111336 -3.70678e-005
            vertex -0.0428461 0.00634856 0.00969629
        endloop
    endfacet
    facet normal -0.370267 -0.928518 0.0275238
        outer loop
            vertex -0.00783342 -0.0432522 0.0447628
            vertex -0.0191646 -0.0389972 0.0358718
            vertex -0.0107952 -0.0431222 0.00930476
        endloop
    endfacet
    facet normal -0.988543 -0.118486 0.0935077
        outer loop
            vertex -0.0429203 0.00332953 0.0248292
            vertex -0.0433906 -0.0044497 0.01
            vertex -0.0413451 -0.0131711 0.0205734
        endloop
    endfacet
    facet normal -0.896936 -0.360906 0.255446
        outer loop
            vertex -0.0368932 -0.0218815 0.026857
            vertex -0.0347864 -0.0135937 0.0459639
            vertex -0.0407414 -0.0101703 0.0298911
        endloop
    endfacet
    facet normal -0.99871 0.0505054 0.00517895
        outer loop
            vertex -0.0429203 0.00332953 0.0248292
            vertex -0.0428461 0.00634856 0.00969629
            vertex -0.0433906 -0.0044497 0.01
        endloop
    endfacet
    facet normal 0.605566 -0.772946 0.189325
        outer loop
            vertex 0.383 -0.0367843 0.0515782
            vertex 0.373055 -0.0393815 0.0727843
            vertex 0.373003 -0.0434849 0.0561979
        endloop
    endfacet
    facet normal -0.412914 0.598225 -0.686752
        outer loop
            vertex -0.00879103 0.0345975 -0.000447328
            vertex -0.0237816 0.0247589 -4.50164e-006
            vertex -0.0214912 0.0378248 0.01
        endloop
    endfacet
    facet normal 0.683697 -0.174649 0.708559
        outer loop
            vertex 0.383 0.00590904 0.0893605
            vertex 0.373 -0.0159747 0.0936156
            vertex 0.383 -0.0161353 0.0839269
        endloop
    endfacet
    facet normal -0.408959 0.108704 0.906055
        outer loop
            vertex -0.000948297 0.0112166 0.0846521
            vertex 0.00451619 -0.00296581 0.0888201
            vertex 0.0129029 0.00787174 0.0913053
        endloop
    endfacet
    facet normal 0.952719 0.192708 0.234927
        outer loop
            vertex 0.387397 -7.16915e-005 0.0805432
            vertex 0.387035 0.0213706 0.0644223
            vertex 0.383 0.0277694 0.075537
        endloop
    endfacet
    facet normal 0.629664 -0.59855 0.495238
        outer loop
            vertex 0.373055 -0.0393815 0.0727843
            vertex 0.383 -0.0285915 0.0731808
            vertex 0.373 -0.0286719 0.085798
        endloop
    endfacet
    facet normal 0.925981 0.353502 0.13265
        outer loop
            vertex 0.383 0.0367724 0.0515448
            vertex 0.383 0.0277694 0.075537
            vertex 0.387035 0.0213706 0.0644223
        endloop
    endfacet
    facet normal -0.010323 0.0201774 -0.999743
        outer loop
            vertex -0.0119153 -0.0346276 -0.000697325
            vertex -0.0337889 -0.0144515 -6.42584e-005
            vertex 0.0545667 0.0134747 -0.000412967
        endloop
    endfacet
    facet normal -0.447621 -0.728084 0.519162
        outer loop
            vertex -0.0164073 -0.034076 0.0550692
            vertex 0.00236578 -0.0396049 0.0635015
            vertex -0.00689981 -0.0288391 0.0706109
        endloop
    endfacet
    facet normal 0.707222 -0.661048 0.250703
        outer loop
            vertex 0.383 -0.0367843 0.0515782
            vertex 0.383 -0.0285915 0.0731808
            vertex 0.373055 -0.0393815 0.0727843
        endloop
    endfacet
    facet normal -0.398607 -0.719021 0.569317
        outer loop
            vertex 0.00236578 -0.0396049 0.0635015
            vertex 0.00984446 -0.0367036 0.0724019
            vertex -0.00689981 -0.0288391 0.0706109
        endloop
    endfacet
    facet normal -0.798154 -0.383439 0.464677
        outer loop
            vertex -0.0220502 -0.0277799 0.0561342
            vertex -0.026708 -0.0124567 0.060778
            vertex -0.0347864 -0.0135937 0.0459639
        endloop
    endfacet
    facet normal 0.680977 0.340319 -0.648424
        outer loop
            vertex 0.383 0.025869 0.0283033
            vertex 0.383 0.00573141 0.0177343
            vertex 0.372984 0.0254571 0.0175683
        endloop
    endfacet
    facet normal 0.010556 -0.995507 -0.0940958
        outer loop
            vertex -0.0107952 -0.0431222 0.00930476
            vertex 0.372999 -0.0421021 0.0415678
            vertex 0.373003 -0.0434849 0.0561979
        endloop
    endfacet
    facet normal 0.0350121 0.103402 -0.994023
        outer loop
            vertex 0.0545667 0.0134747 -0.000412967
            vertex -0.00879103 0.0345975 -0.000447328
            vertex 0.373005 0.0108217 0.0105273
        endloop
    endfacet
    facet normal -0.900367 -0.132868 0.41435
        outer loop
            vertex -0.0389341 0.00036446 0.041427
            vertex -0.0347864 -0.0135937 0.0459639
            vertex -0.0323165 -0.00217459 0.0549926
        endloop
    endfacet
    facet normal -0.854621 -0.195495 0.481045
        outer loop
            vertex -0.0347864 -0.0135937 0.0459639
            vertex -0.026708 -0.0124567 0.060778
            vertex -0.0323165 -0.00217459 0.0549926
        endloop
    endfacet
    facet normal -0.639405 0.59988 0.480943
        outer loop
            vertex -0.015791 0.0370067 0.0505148
            vertex -0.0296574 0.0223903 0.0503107
            vertex -0.010751 0.0288262 0.0674189
        endloop
    endfacet
    facet normal -0.752646 0.657967 0.0245573
        outer loop
            vertex -0.0353767 0.0250514 0.025323
            vertex -0.0287887 0.0325234 0.0270376
            vertex -0.0331967 0.028117 0.01
        endloop
    endfacet
    facet normal -0.274232 -0.904938 0.325398
        outer loop
            vertex -0.00783342 -0.0432522 0.0447628
            vertex 0.00946606 -0.042722 0.0608166
            vertex 0.00236578 -0.0396049 0.0635015
        endloop
    endfacet
    facet normal 0.00103887 0.364927 0.931036
        outer loop
            vertex 0.0332736 0.0148149 0.0937508
            vertex 0.373007 0.00881507 0.0957234
            vertex 0.373 0.0208725 0.0909974
        endloop
    endfacet
    facet normal -0.767586 -0.124767 0.628686
        outer loop
            vertex -0.026708 -0.0124567 0.060778
            vertex -0.0187403 -0.0105402 0.0708864
            vertex -0.0226583 -0.000572196 0.068081
        endloop
    endfacet
    facet normal 0.612093 0.679473 0.404547
        outer loop
            vertex 0.373 0.032845 0.0821424
            vertex 0.383 0.0277694 0.075537
            vertex 0.37338 0.0410538 0.06778
        endloop
    endfacet
    facet normal -0.195155 0.647556 0.736604
        outer loop
            vertex 0.00891348 0.0330431 0.0766899
            vertex 0.0122036 0.0257829 0.0839441
            vertex 0.0255348 0.0328402 0.0812719
        endloop
    endfacet
    facet normal -0.215968 0.498064 0.839815
        outer loop
            vertex 0.0282551 0.0245507 0.0888027
            vertex 0.0122036 0.0257829 0.0839441
            vertex 0.0165044 0.0171302 0.0901817
        endloop
    endfacet
    facet normal -0.876882 0.394933 0.274054
        outer loop
            vertex -0.0409499 0.013436 0.0270823
            vertex -0.037741 0.0126833 0.0384344
            vertex -0.0296574 0.0223903 0.0503107
        endloop
    endfacet
    facet normal -0.79515 -0.0969001 0.598621
        outer loop
            vertex -0.026708 -0.0124567 0.060778
            vertex -0.0226583 -0.000572196 0.068081
            vertex -0.0323165 -0.00217459 0.0549926
        endloop
    endfacet
    facet normal -0.366489 -0.648097 0.667574
        outer loop
            vertex 0.010045 -0.024991 0.0836492
            vertex -0.000993329 -0.0250145 0.0775665
            vertex -0.00689981 -0.0288391 0.0706109
        endloop
    endfacet
    facet normal -0.435567 -0.188614 0.880174
        outer loop
            vertex -0.00550032 -0.0138849 0.0815234
            vertex 0.00332442 -0.0147219 0.0857111
            vertex 0.00451619 -0.00296581 0.0888201
        endloop
    endfacet
    facet normal -0.934542 -0.177443 0.308455
        outer loop
            vertex -0.0389341 0.00036446 0.041427
            vertex -0.0407414 -0.0101703 0.0298911
            vertex -0.0347864 -0.0135937 0.0459639
        endloop
    endfacet
    facet normal -0.802375 -0.0317415 0.595975
        outer loop
            vertex -0.0299157 0.00715416 0.0587217
            vertex -0.0323165 -0.00217459 0.0549926
            vertex -0.0226583 -0.000572196 0.068081
        endloop
    endfacet
    facet normal -0.605745 -0.513043 -0.608161
        outer loop
            vertex -0.0337889 -0.0144515 -6.42584e-005
            vertex -0.0277717 -0.0334861 0.01
            vertex -0.03924 -0.0199456 0.01
        endloop
    endfacet
    facet normal -0.743826 0.018716 -0.668112
        outer loop
            vertex -0.0339831 0.0111336 -3.70678e-005
            vertex -0.0433906 -0.0044497 0.01
            vertex -0.0428461 0.00634856 0.00969629
        endloop
    endfacet
    facet normal -0.25171 0.871614 0.420631
        outer loop
            vertex 0.00429359 0.0431469 0.0568016
            vertex -0.00209544 0.038703 0.0621868
            vertex 0.0146493 0.0406893 0.0680911
        endloop
    endfacet
    facet normal -0.334506 0.942175 -0.0203044
        outer loop
            vertex -0.0200987 0.0388287 0.0336428
            vertex -0.00684612 0.0430122 0.00943735
            vertex -0.0214912 0.0378248 0.01
        endloop
    endfacet
    facet normal -0.982333 0.184392 0.0319698
        outer loop
            vertex -0.0409499 0.013436 0.0270823
            vertex -0.0428461 0.00634856 0.00969629
            vertex -0.0429203 0.00332953 0.0248292
        endloop
    endfacet
    facet normal -0.159182 0.297978 0.941207
        outer loop
            vertex 0.0165044 0.0171302 0.0901817
            vertex 0.028281 0.00580146 0.09576
            vertex 0.0332736 0.0148149 0.0937508
        endloop
    endfacet
    facet normal -0.899324 0.183521 0.396908
        outer loop
            vertex -0.0299157 0.00715416 0.0587217
            vertex -0.037741 0.0126833 0.0384344
            vertex -0.0389341 0.00036446 0.041427
        endloop
    endfacet
    facet normal -0.711628 -0.325454 0.622628
        outer loop
            vertex -0.026708 -0.0124567 0.060778
            vertex -0.0176322 -0.0199347 0.0672423
            vertex -0.0187403 -0.0105402 0.0708864
        endloop
    endfacet
    facet normal -0.364746 0.879187 0.306577
        outer loop
            vertex -0.015791 0.0370067 0.0505148
            vertex 0.00429359 0.0431469 0.0568016
            vertex -0.00630262 0.0429707 0.0447002
        endloop
    endfacet
    facet normal -0.199953 -0.603708 0.771722
        outer loop
            vertex 0.010045 -0.024991 0.0836492
            vertex 0.0229235 -0.0330249 0.0807012
            vertex 0.0232413 -0.022368 0.0891203
        endloop
    endfacet
    facet normal 0.999992 0.00161819 -0.0036873
        outer loop
            vertex 0.387189 -0.0252329 0.0606747
            vertex 0.387083 -0.0178469 0.0351671
            vertex 0.387027 0.00237861 0.0288564
        endloop
    endfacet
    facet normal 0.0465509 0.75609 -0.65281
        outer loop
            vertex -0.00879103 0.0345975 -0.000447328
            vertex -0.00684612 0.0430122 0.00943735
            vertex 0.372998 0.0358745 0.0282565
        endloop
    endfacet
    facet normal 0.999856 0.00461546 -0.0163118
        outer loop
            vertex 0.387397 -7.16915e-005 0.0805432
            vertex 0.387189 -0.0252329 0.0606747
            vertex 0.387035 0.0213706 0.0644223
        endloop
    endfacet
    facet normal 0.0380541 0.904357 -0.425078
        outer loop
            vertex -0.00684612 0.0430122 0.00943735
            vertex 0.372967 0.0420974 0.041493
            vertex 0.372998 0.0358745 0.0282565
        endloop
    endfacet
    facet normal -0.921887 -0.347383 0.171606
        outer loop
            vertex -0.0368932 -0.0218815 0.026857
            vertex -0.0407414 -0.0101703 0.0298911
            vertex -0.0413451 -0.0131711 0.0205734
        endloop
    endfacet
    facet normal -0.416067 -0.823035 0.386655
        outer loop
            vertex -0.00783342 -0.0432522 0.0447628
            vertex 0.00236578 -0.0396049 0.0635015
            vertex -0.0164073 -0.034076 0.0550692
        endloop
    endfacet
    facet normal -0.188332 -0.752955 0.630547
        outer loop
            vertex 0.0192772 -0.0389175 0.0725756
            vertex 0.0229235 -0.0330249 0.0807012
            vertex 0.00984446 -0.0367036 0.0724019
        endloop
    endfacet
    facet normal -0.859257 0.449317 0.244522
        outer loop
            vertex -0.0409499 0.013436 0.0270823
            vertex -0.0296574 0.0223903 0.0503107
            vertex -0.0353767 0.0250514 0.025323
        endloop
    endfacet
    facet normal -0.594062 0.16665 0.786968
        outer loop
            vertex -0.020741 0.0123868 0.0694633
            vertex -0.00961783 0.000786495 0.0803164
            vertex -0.000948297 0.0112166 0.0846521
        endloop
    endfacet
    facet normal -0.909767 -0.407363 0.0798733
        outer loop
            vertex -0.0368932 -0.0218815 0.026857
            vertex -0.0413451 -0.0131711 0.0205734
            vertex -0.03924 -0.0199456 0.01
        endloop
    endfacet
    facet normal -0.969419 0.245346 0.00571365
        outer loop
            vertex -0.0409499 0.013436 0.0270823
            vertex -0.0399911 0.017617 0.0102259
            vertex -0.0428461 0.00634856 0.00969629
        endloop
    endfacet
    facet normal -0.639809 -0.117073 0.759564
        outer loop
            vertex -0.00550032 -0.0138849 0.0815234
            vertex -0.00961783 0.000786495 0.0803164
            vertex -0.0187403 -0.0105402 0.0708864
        endloop
    endfacet
    facet normal -0.952702 0.123875 0.277514
        outer loop
            vertex -0.0409499 0.013436 0.0270823
            vertex -0.0429203 0.00332953 0.0248292
            vertex -0.037741 0.0126833 0.0384344
        endloop
    endfacet
    facet normal -0.363116 0.882885 0.297759
        outer loop
            vertex -0.015791 0.0370067 0.0505148
            vertex -0.00209544 0.038703 0.0621868
            vertex 0.00429359 0.0431469 0.0568016
        endloop
    endfacet
    facet normal 0.0464051 -0.758818 -0.649648
        outer loop
            vertex -0.0119153 -0.0346276 -0.000697325
            vertex 0.372986 -0.0358926 0.0282742
            vertex -0.0107952 -0.0431222 0.00930476
        endloop
    endfacet
    facet normal -0.0182919 0.999832 0.00145871
        outer loop
            vertex 0.00429359 0.0431469 0.0568016
            vertex -0.00684612 0.0430122 0.00943735
            vertex -0.00630262 0.0429707 0.0447002
        endloop
    endfacet
    facet normal -0.000554605 0.906385 0.422452
        outer loop
            vertex 0.0146493 0.0406893 0.0680911
            vertex 0.0217416 0.0382446 0.0733456
            vertex 0.37338 0.0410538 0.06778
        endloop
    endfacet
    facet normal -0.638 0.76929 -0.0338954
        outer loop
            vertex -0.0287887 0.0325234 0.0270376
            vertex -0.0214912 0.0378248 0.01
            vertex -0.0331967 0.028117 0.01
        endloop
    endfacet
    facet normal -0.612634 -0.509968 0.603831
        outer loop
            vertex -0.0220502 -0.0277799 0.0561342
            vertex -0.00689981 -0.0288391 0.0706109
            vertex -0.0176322 -0.0199347 0.0672423
        endloop
    endfacet
    facet normal -0.133068 -0.611946 0.779625
        outer loop
            vertex 0.0232413 -0.022368 0.0891203
            vertex 0.0229235 -0.0330249 0.0807012
            vertex 0.0312036 -0.0274317 0.0865047
        endloop
    endfacet
    facet normal 0.68417 0.389795 0.616418
        outer loop
            vertex 0.383 0.00590904 0.0893605
            vertex 0.383 0.0277694 0.075537
            vertex 0.373 0.0208725 0.0909974
        endloop
    endfacet
    facet normal -0.529242 -0.0790319 0.844782
        outer loop
            vertex -0.00550032 -0.0138849 0.0815234
            vertex 0.00451619 -0.00296581 0.0888201
            vertex -0.00961783 0.000786495 0.0803164
        endloop
    endfacet
    facet normal 0.999992 0.00347139 -0.00207911
        outer loop
            vertex 0.387189 -0.0252329 0.0606747
            vertex 0.387027 0.00237861 0.0288564
            vertex 0.387035 0.0213706 0.0644223
        endloop
    endfacet
    facet normal -0.139767 0.390431 0.909961
        outer loop
            vertex 0.0282551 0.0245507 0.0888027
            vertex 0.0165044 0.0171302 0.0901817
            vertex 0.0332736 0.0148149 0.0937508
        endloop
    endfacet
    facet normal -0.204486 -0.241835 0.948526
        outer loop
            vertex 0.0248191 -0.00120207 0.0961111
            vertex 0.0161302 -0.0128938 0.091257
            vertex 0.0312713 -0.010871 0.0950369
        endloop
    endfacet
    facet normal 0.956275 -0.279844 -0.0850061
        outer loop
            vertex 0.383 -0.0367843 0.0515782
            vertex 0.387083 -0.0178469 0.0351671
            vertex 0.387189 -0.0252329 0.0606747
        endloop
    endfacet
    facet normal -0.499168 0.517895 0.694705
        outer loop
            vertex -0.010751 0.0288262 0.0674189
            vertex -0.01238 0.0183099 0.0740882
            vertex -0.00153641 0.0234206 0.0780697
        endloop
    endfacet
    facet normal 0.672365 -0.670409 -0.31381
        outer loop
            vertex 0.372999 -0.0421021 0.0415678
            vertex 0.372986 -0.0358926 0.0282742
            vertex 0.383 -0.0283288 0.0335711
        endloop
    endfacet
    facet normal 0.66825 -0.5329 -0.519094
        outer loop
            vertex 0.383 -0.016604 0.021364
            vertex 0.372986 -0.0358926 0.0282742
            vertex 0.372992 -0.0254568 0.0175686
        endloop
    endfacet
    facet normal -0.685884 -0.664794 0.295993
        outer loop
            vertex -0.0164073 -0.034076 0.0550692
            vertex -0.0220502 -0.0277799 0.0561342
            vertex -0.0307434 -0.0249375 0.042374
        endloop
    endfacet
    facet normal -0.427088 -0.712235 -0.557061
        outer loop
            vertex -0.0119153 -0.0346276 -0.000697325
            vertex -0.0107952 -0.0431222 0.00930476
            vertex -0.0277717 -0.0334861 0.01
        endloop
    endfacet
    facet normal -0.570038 -0.821488 0.0146519
        outer loop
            vertex -0.0276226 -0.0331817 0.0328676
            vertex -0.0277717 -0.0334861 0.01
            vertex -0.0191646 -0.0389972 0.0358718
        endloop
    endfacet
    facet normal -0.821353 -0.568304 0.0490817
        outer loop
            vertex -0.0368932 -0.0218815 0.026857
            vertex -0.03924 -0.0199456 0.01
            vertex -0.0321194 -0.0289017 0.0254587
        endloop
    endfacet
    facet normal -0.802504 -0.576404 0.154098
        outer loop
            vertex -0.0276226 -0.0331817 0.0328676
            vertex -0.0368932 -0.0218815 0.026857
            vertex -0.0321194 -0.0289017 0.0254587
        endloop
    endfacet
    facet normal -0.884297 0.272604 0.379086
        outer loop
            vertex -0.0296574 0.0223903 0.0503107
            vertex -0.037741 0.0126833 0.0384344
            vertex -0.0309204 0.015927 0.0520123
        endloop
    endfacet
    facet normal 0.927957 -0.337347 -0.158406
        outer loop
            vertex 0.383 -0.0367843 0.0515782
            vertex 0.383 -0.0283288 0.0335711
            vertex 0.387083 -0.0178469 0.0351671
        endloop
    endfacet
    facet normal 0.533321 0.841474 -0.0865462
        outer loop
            vertex 0.383 0.0367724 0.0515448
            vertex 0.372967 0.0420974 0.041493
            vertex 0.373145 0.0433256 0.0545315
        endloop
    endfacet
    facet normal 0.58386 0.581003 -0.567048
        outer loop
            vertex 0.383 0.025869 0.0283033
            vertex 0.372984 0.0254571 0.0175683
            vertex 0.372998 0.0358745 0.0282565
        endloop
    endfacet
    facet normal -0.165919 0.789292 0.591176
        outer loop
            vertex 0.00891348 0.0330431 0.0766899
            vertex 0.0217416 0.0382446 0.0733456
            vertex 0.0146493 0.0406893 0.0680911
        endloop
    endfacet
    facet normal -0.799436 0.550048 0.241557
        outer loop
            vertex -0.0296574 0.0223903 0.0503107
            vertex -0.026797 0.030409 0.0415179
            vertex -0.0353767 0.0250514 0.025323
        endloop
    endfacet
    facet normal 0.0500203 0.715191 -0.697137
        outer loop
            vertex -0.00879103 0.0345975 -0.000447328
            vertex 0.372998 0.0358745 0.0282565
            vertex 0.372984 0.0254571 0.0175683
        endloop
    endfacet
    facet normal -0.669339 0.716452 0.19668
        outer loop
            vertex -0.0200987 0.0388287 0.0336428
            vertex -0.0287887 0.0325234 0.0270376
            vertex -0.026797 0.030409 0.0415179
        endloop
    endfacet
    facet normal -0.987334 -0.120786 0.10287
        outer loop
            vertex -0.0429203 0.00332953 0.0248292
            vertex -0.0413451 -0.0131711 0.0205734
            vertex -0.0407414 -0.0101703 0.0298911
        endloop
    endfacet
    facet normal 0.000562603 0.985616 0.168999
        outer loop
            vertex 0.00429359 0.0431469 0.0568016
            vertex 0.37338 0.0410538 0.06778
            vertex 0.373145 0.0433256 0.0545315
        endloop
    endfacet
    facet normal -0.502948 0.0596187 0.862258
        outer loop
            vertex -0.000948297 0.0112166 0.0846521
            vertex -0.00961783 0.000786495 0.0803164
            vertex 0.00451619 -0.00296581 0.0888201
        endloop
    endfacet
    facet normal -0.701418 -0.712611 0.0140593
        outer loop
            vertex -0.0276226 -0.0331817 0.0328676
            vertex -0.0321194 -0.0289017 0.0254587
            vertex -0.0277717 -0.0334861 0.01
        endloop
    endfacet
    facet normal -0.804549 -0.2155 -0.553409
        outer loop
            vertex -0.0337889 -0.0144515 -6.42584e-005
            vertex -0.03924 -0.0199456 0.01
            vertex -0.0433906 -0.0044497 0.01
        endloop
    endfacet
    facet normal 0.904607 -0.307413 -0.295267
        outer loop
            vertex 0.383 -0.016604 0.021364
            vertex 0.387083 -0.0178469 0.0351671
            vertex 0.383 -0.0283288 0.0335711
        endloop
    endfacet
    facet normal -0.00165527 -0.999393 0.03479
        outer loop
            vertex -0.00783342 -0.0432522 0.0447628
            vertex 0.373003 -0.0434849 0.0561979
            vertex 0.00946606 -0.042722 0.0608166
        endloop
    endfacet
    facet normal -0.00180674 0.218525 0.97583
        outer loop
            vertex 0.028281 0.00580146 0.09576
            vertex 0.373007 0.00881507 0.0957234
            vertex 0.0332736 0.0148149 0.0937508
        endloop
    endfacet
    facet normal -0.586035 0.217846 0.780453
        outer loop
            vertex -0.020741 0.0123868 0.0694633
            vertex -0.000948297 0.0112166 0.0846521
            vertex -0.01238 0.0183099 0.0740882
        endloop
    endfacet
    facet normal -0.675473 0.466693 0.570906
        outer loop
            vertex -0.0296574 0.0223903 0.0503107
            vertex -0.01238 0.0183099 0.0740882
            vertex -0.010751 0.0288262 0.0674189
        endloop
    endfacet
    facet normal -0.60932 -0.742635 0.277888
        outer loop
            vertex -0.0164073 -0.034076 0.0550692
            vertex -0.0276226 -0.0331817 0.0328676
            vertex -0.0191646 -0.0389972 0.0358718
        endloop
    endfacet
    facet normal -0.807817 -0.550055 0.211829
        outer loop
            vertex -0.0276226 -0.0331817 0.0328676
            vertex -0.0307434 -0.0249375 0.042374
            vertex -0.0368932 -0.0218815 0.026857
        endloop
    endfacet
    facet normal -0.522913 -0.804609 0.281365
        outer loop
            vertex -0.00783342 -0.0432522 0.0447628
            vertex -0.0164073 -0.034076 0.0550692
            vertex -0.0191646 -0.0389972 0.0358718
        endloop
    endfacet
    facet normal -0.725898 -0.00477886 -0.687786
        outer loop
            vertex -0.0337889 -0.0144515 -6.42584e-005
            vertex -0.0433906 -0.0044497 0.01
            vertex -0.0339831 0.0111336 -3.70678e-005
        endloop
    endfacet
    facet normal -0.803957 -0.419826 0.421189
        outer loop
            vertex -0.0220502 -0.0277799 0.0561342
            vertex -0.0347864 -0.0135937 0.0459639
            vertex -0.0307434 -0.0249375 0.042374
        endloop
    endfacet
    facet normal -0.877069 -0.397804 0.26926
        outer loop
            vertex -0.0368932 -0.0218815 0.026857
            vertex -0.0307434 -0.0249375 0.042374
            vertex -0.0347864 -0.0135937 0.0459639
        endloop
    endfacet
    facet normal -0.587391 0.809303 0.00023183
        outer loop
            vertex -0.0200987 0.0388287 0.0336428
            vertex -0.0214912 0.0378248 0.01
            vertex -0.0287887 0.0325234 0.0270376
        endloop
    endfacet
    facet normal -0.291676 0.956501 0.00562132
        outer loop
            vertex -0.0200987 0.0388287 0.0336428
            vertex -0.00630262 0.0429707 0.0447002
            vertex -0.00684612 0.0430122 0.00943735
        endloop
    endfacet
    facet normal -0.839617 0.543072 -0.0108025
        outer loop
            vertex -0.0399911 0.017617 0.0102259
            vertex -0.0353767 0.0250514 0.025323
            vertex -0.0331967 0.028117 0.01
        endloop
    endfacet
    facet normal -0.245767 0.210434 0.946211
        outer loop
            vertex 0.0165044 0.0171302 0.0901817
            vertex 0.0129029 0.00787174 0.0913053
            vertex 0.028281 0.00580146 0.09576
        endloop
    endfacet
    facet normal -0.68536 0.0237658 0.727816
        outer loop
            vertex -0.020741 0.0123868 0.0694633
            vertex -0.0226583 -0.000572196 0.068081
            vertex -0.00961783 0.000786495 0.0803164
        endloop
    endfacet
    facet normal 0.572891 0.299394 0.762993
        outer loop
            vertex 0.383 0.00590904 0.0893605
            vertex 0.373 0.0208725 0.0909974
            vertex 0.373007 0.00881507 0.0957234
        endloop
    endfacet
    facet normal 0.671425 0.670912 -0.314748
        outer loop
            vertex 0.383 0.0367724 0.0515448
            vertex 0.383 0.025869 0.0283033
            vertex 0.372967 0.0420974 0.041493
        endloop
    endfacet
    facet normal -0.180846 0.628163 0.756774
        outer loop
            vertex 0.0282551 0.0245507 0.0888027
            vertex 0.0255348 0.0328402 0.0812719
            vertex 0.0122036 0.0257829 0.0839441
        endloop
    endfacet
    facet normal 0.000918368 0.868188 0.496235
        outer loop
            vertex 0.373 0.032845 0.0821424
            vertex 0.37338 0.0410538 0.06778
            vertex 0.0217416 0.0382446 0.0733456
        endloop
    endfacet
    facet normal -0.29035 0.756097 -0.586527
        outer loop
            vertex -0.00879103 0.0345975 -0.000447328
            vertex -0.0214912 0.0378248 0.01
            vertex -0.00684612 0.0430122 0.00943735
        endloop
    endfacet
    facet normal 0.0528297 0.432988 -0.89985
        outer loop
            vertex -0.00879103 0.0345975 -0.000447328
            vertex 0.372984 0.0254571 0.0175683
            vertex 0.373005 0.0108217 0.0105273
        endloop
    endfacet
    facet normal -0.578416 0.43472 -0.690257
        outer loop
            vertex -0.0339831 0.0111336 -3.70678e-005
            vertex -0.0331967 0.028117 0.01
            vertex -0.0237816 0.0247589 -4.50164e-006
        endloop
    endfacet
    facet normal -0.762881 -0.646132 -0.0229418
        outer loop
            vertex -0.03924 -0.0199456 0.01
            vertex -0.0277717 -0.0334861 0.01
            vertex -0.0321194 -0.0289017 0.0254587
        endloop
    endfacet
    facet normal -0.368863 0.252061 0.894654
        outer loop
            vertex 0.0165044 0.0171302 0.0901817
            vertex -0.000948297 0.0112166 0.0846521
            vertex 0.0129029 0.00787174 0.0913053
        endloop
    endfacet
    facet normal 0.639981 0.456917 0.617779
        outer loop
            vertex 0.373 0.032845 0.0821424
            vertex 0.373 0.0208725 0.0909974
            vertex 0.383 0.0277694 0.075537
        endloop
    endfacet
    facet normal 0.941137 -0.220804 0.255943
        outer loop
            vertex 0.387189 -0.0252329 0.0606747
            vertex 0.383 -0.0161353 0.0839269
            vertex 0.383 -0.0285915 0.0731808
        endloop
    endfacet
    facet normal -0.397007 0.398641 0.826723
        outer loop
            vertex 0.0165044 0.0171302 0.0901817
            vertex 0.0122036 0.0257829 0.0839441
            vertex -0.000948297 0.0112166 0.0846521
        endloop
    endfacet
    facet normal -0.000846 0.452732 0.891646
        outer loop
            vertex 0.0282551 0.0245507 0.0888027
            vertex 0.0332736 0.0148149 0.0937508
            vertex 0.373 0.0208725 0.0909974
        endloop
    endfacet
    facet normal -0.417371 -0.449755 0.789634
        outer loop
            vertex -0.00550032 -0.0138849 0.0815234
            vertex -0.000993329 -0.0250145 0.0775665
            vertex 0.00332442 -0.0147219 0.0857111
        endloop
    endfacet
    facet normal -0.725697 -0.391954 0.565451
        outer loop
            vertex -0.0220502 -0.0277799 0.0561342
            vertex -0.0176322 -0.0199347 0.0672423
            vertex -0.026708 -0.0124567 0.060778
        endloop
    endfacet
    facet normal -0.372313 -0.639515 0.67261
        outer loop
            vertex 0.010045 -0.024991 0.0836492
            vertex -0.00689981 -0.0288391 0.0706109
            vertex 0.00984446 -0.0367036 0.0724019
        endloop
    endfacet
    facet normal -0.000333082 0.0502323 0.998738
        outer loop
            vertex 0.0248191 -0.00120207 0.0961111
            vertex 0.373007 0.00881507 0.0957234
            vertex 0.028281 0.00580146 0.09576
        endloop
    endfacet
    facet normal -0.280796 0.802565 0.526349
        outer loop
            vertex -0.00209544 0.038703 0.0621868
            vertex 0.00891348 0.0330431 0.0766899
            vertex 0.0146493 0.0406893 0.0680911
        endloop
    endfacet
    facet normal 0.575804 0.807467 0.128248
        outer loop
            vertex 0.383 0.0367724 0.0515448
            vertex 0.373145 0.0433256 0.0545315
            vertex 0.37338 0.0410538 0.06778
        endloop
    endfacet
    facet normal 0.944343 0.15506 -0.290125
        outer loop
            vertex 0.387333 0.0227831 0.0407578
            vertex 0.387027 0.00237861 0.0288564
            vertex 0.383 0.025869 0.0283033
        endloop
    endfacet
    facet normal -0.77058 0.0462035 0.635666
        outer loop
            vertex -0.020741 0.0123868 0.0694633
            vertex -0.0299157 0.00715416 0.0587217
            vertex -0.0226583 -0.000572196 0.068081
        endloop
    endfacet
    facet normal -0.636559 0.732403 0.241616
        outer loop
            vertex -0.015791 0.0370067 0.0505148
            vertex -0.0200987 0.0388287 0.0336428
            vertex -0.026797 0.030409 0.0415179
        endloop
    endfacet
    facet normal -0.571398 -0.605771 0.553666
        outer loop
            vertex -0.0164073 -0.034076 0.0550692
            vertex -0.00689981 -0.0288391 0.0706109
            vertex -0.0220502 -0.0277799 0.0561342
        endloop
    endfacet
    facet normal -0.502262 -0.52291 -0.688693
        outer loop
            vertex -0.0119153 -0.0346276 -0.000697325
            vertex -0.0277717 -0.0334861 0.01
            vertex -0.0337889 -0.0144515 -6.42584e-005
        endloop
    endfacet
    facet normal 0.710476 0.658861 0.247236
        outer loop
            vertex 0.383 0.0367724 0.0515448
            vertex 0.37338 0.0410538 0.06778
            vertex 0.383 0.0277694 0.075537
        endloop
    endfacet
    facet normal 0.00101398 -0.970735 0.240152
        outer loop
            vertex 0.373055 -0.0393815 0.0727843
            vertex 0.00946606 -0.042722 0.0608166
            vertex 0.373003 -0.0434849 0.0561979
        endloop
    endfacet
    facet normal 0.671721 -0.670557 -0.31487
        outer loop
            vertex 0.383 -0.0367843 0.0515782
            vertex 0.372999 -0.0421021 0.0415678
            vertex 0.383 -0.0283288 0.0335711
        endloop
    endfacet
    facet normal -0.00140792 -0.809236 0.587481
        outer loop
            vertex 0.0192772 -0.0389175 0.0725756
            vertex 0.373055 -0.0393815 0.0727843
            vertex 0.0229235 -0.0330249 0.0807012
        endloop
    endfacet
    facet normal -0.00186437 0.672087 0.74047
        outer loop
            vertex 0.0282551 0.0245507 0.0888027
            vertex 0.373 0.032845 0.0821424
            vertex 0.0255348 0.0328402 0.0812719
        endloop
    endfacet
    facet normal -0.798337 0.294323 0.525388
        outer loop
            vertex -0.020741 0.0123868 0.0694633
            vertex -0.0296574 0.0223903 0.0503107
            vertex -0.0309204 0.015927 0.0520123
        endloop
    endfacet
    facet normal -0.341334 0.0488935 0.93867
        outer loop
            vertex 0.0248191 -0.00120207 0.0961111
            vertex 0.0129029 0.00787174 0.0913053
            vertex 0.00451619 -0.00296581 0.0888201
        endloop
    endfacet
    facet normal -0.000265363 -0.549295 0.835629
        outer loop
            vertex 0.0342328 -0.0204861 0.0910713
            vertex 0.0312036 -0.0274317 0.0865047
            vertex 0.373 -0.0286719 0.085798
        endloop
    endfacet
    facet normal 0.875105 -0.452485 0.171605
        outer loop
            vertex 0.383 -0.0367843 0.0515782
            vertex 0.387189 -0.0252329 0.0606747
            vertex 0.383 -0.0285915 0.0731808
        endloop
    endfacet
    facet normal -0.000807599 0.976961 0.213414
        outer loop
            vertex 0.00429359 0.0431469 0.0568016
            vertex 0.0146493 0.0406893 0.0680911
            vertex 0.37338 0.0410538 0.06778
        endloop
    endfacet
    facet normal -0.432456 -0.440935 0.786485
        outer loop
            vertex 0.010045 -0.024991 0.0836492
            vertex 0.00332442 -0.0147219 0.0857111
            vertex -0.000993329 -0.0250145 0.0775665
        endloop
    endfacet
    facet normal 0.942957 0.154712 -0.29478
        outer loop
            vertex 0.383 0.025869 0.0283033
            vertex 0.387027 0.00237861 0.0288564
            vertex 0.383 0.00573141 0.0177343
        endloop
    endfacet
    facet normal -0.425475 0.685712 0.590568
        outer loop
            vertex -0.00209544 0.038703 0.0621868
            vertex -0.010751 0.0288262 0.0674189
            vertex 0.00891348 0.0330431 0.0766899
        endloop
    endfacet
    facet normal 0.65668 0.327722 -0.679242
        outer loop
            vertex 0.383 0.00573141 0.0177343
            vertex 0.373005 0.0108217 0.0105273
            vertex 0.372984 0.0254571 0.0175683
        endloop
    endfacet
    facet normal 0.542294 0.0260398 0.839785
        outer loop
            vertex 0.383 0.00590904 0.0893605
            vertex 0.373007 0.00881507 0.0957234
            vertex 0.373 -0.00365218 0.0961145
        endloop
    endfacet
    facet normal -0.678828 0.638943 0.361861
        outer loop
            vertex -0.015791 0.0370067 0.0505148
            vertex -0.026797 0.030409 0.0415179
            vertex -0.0296574 0.0223903 0.0503107
        endloop
    endfacet
    facet normal -0.507819 0.706301 0.493212
        outer loop
            vertex -0.015791 0.0370067 0.0505148
            vertex -0.010751 0.0288262 0.0674189
            vertex -0.00209544 0.038703 0.0621868
        endloop
    endfacet
    facet normal -0.445599 0.581514 0.680648
        outer loop
            vertex -0.010751 0.0288262 0.0674189
            vertex -0.00153641 0.0234206 0.0780697
            vertex 0.00891348 0.0330431 0.0766899
        endloop
    endfacet
    facet normal -0.001173 -0.719195 0.694808
        outer loop
            vertex 0.0229235 -0.0330249 0.0807012
            vertex 0.373 -0.0286719 0.085798
            vertex 0.0312036 -0.0274317 0.0865047
        endloop
    endfacet
    facet normal -0.207345 -0.865331 0.4563
        outer loop
            vertex 0.00236578 -0.0396049 0.0635015
            vertex 0.00946606 -0.042722 0.0608166
            vertex 0.00984446 -0.0367036 0.0724019
        endloop
    endfacet
    facet normal 0.924305 0.20398 0.322573
        outer loop
            vertex 0.387397 -7.16915e-005 0.0805432
            vertex 0.383 0.0277694 0.075537
            vertex 0.383 0.00590904 0.0893605
        endloop
    endfacet
    facet normal -0.679542 -0.061347 0.731067
        outer loop
            vertex -0.00961783 0.000786495 0.0803164
            vertex -0.0226583 -0.000572196 0.068081
            vertex -0.0187403 -0.0105402 0.0708864
        endloop
    endfacet
    facet normal -0.00185755 -0.381768 0.924256
        outer loop
            vertex 0.0312713 -0.010871 0.0950369
            vertex 0.0342328 -0.0204861 0.0910713
            vertex 0.373 -0.0159747 0.0936156
        endloop
    endfacet
    facet normal 0.648511 -0.151287 0.74602
        outer loop
            vertex 0.383 0.00590904 0.0893605
            vertex 0.373 -0.00365218 0.0961145
            vertex 0.373 -0.0159747 0.0936156
        endloop
    endfacet
    facet normal 0.000210867 0.0313549 0.999508
        outer loop
            vertex 0.0248191 -0.00120207 0.0961111
            vertex 0.373 -0.00365218 0.0961145
            vertex 0.373007 0.00881507 0.0957234
        endloop
    endfacet
    facet normal -0.0924094 -0.40384 0.91015
        outer loop
            vertex 0.0312713 -0.010871 0.0950369
            vertex 0.0232413 -0.022368 0.0891203
            vertex 0.0342328 -0.0204861 0.0910713
        endloop
    endfacet
    facet normal -0.417027 0.415817 0.808198
        outer loop
            vertex 0.0122036 0.0257829 0.0839441
            vertex -0.00153641 0.0234206 0.0780697
            vertex -0.000948297 0.0112166 0.0846521
        endloop
    endfacet
    facet normal 0.000349794 -0.77215 0.63544
        outer loop
            vertex 0.373055 -0.0393815 0.0727843
            vertex 0.373 -0.0286719 0.085798
            vertex 0.0229235 -0.0330249 0.0807012
        endloop
    endfacet
    facet normal -0.0593495 -0.530206 0.845789
        outer loop
            vertex 0.0232413 -0.022368 0.0891203
            vertex 0.0312036 -0.0274317 0.0865047
            vertex 0.0342328 -0.0204861 0.0910713
        endloop
    endfacet
    facet normal -0.32036 -0.383573 0.866165
        outer loop
            vertex 0.010045 -0.024991 0.0836492
            vertex 0.0161302 -0.0128938 0.091257
            vertex 0.00332442 -0.0147219 0.0857111
        endloop
    endfacet
    facet normal 0.692753 -0.471085 0.546052
        outer loop
            vertex 0.373 -0.0286719 0.085798
            vertex 0.383 -0.0285915 0.0731808
            vertex 0.383 -0.0161353 0.0839269
        endloop
    endfacet
    facet normal 0.00122611 0.594641 0.803991
        outer loop
            vertex 0.0282551 0.0245507 0.0888027
            vertex 0.373 0.0208725 0.0909974
            vertex 0.373 0.032845 0.0821424
        endloop
    endfacet
    facet normal 0.632509 -0.406089 0.659563
        outer loop
            vertex 0.373 -0.0159747 0.0936156
            vertex 0.373 -0.0286719 0.085798
            vertex 0.383 -0.0161353 0.0839269
        endloop
    endfacet
    facet normal -0.564527 -0.469878 0.67862
        outer loop
            vertex -0.00550032 -0.0138849 0.0815234
            vertex -0.0176322 -0.0199347 0.0672423
            vertex -0.000993329 -0.0250145 0.0775665
        endloop
    endfacet
    facet normal -0.567782 -0.415511 0.710616
        outer loop
            vertex -0.00689981 -0.0288391 0.0706109
            vertex -0.000993329 -0.0250145 0.0775665
            vertex -0.0176322 -0.0199347 0.0672423
        endloop
    endfacet
    facet normal -0.183614 -0.345376 0.920327
        outer loop
            vertex 0.0312713 -0.010871 0.0950369
            vertex 0.0161302 -0.0128938 0.091257
            vertex 0.0232413 -0.022368 0.0891203
        endloop
    endfacet
    facet normal 0.529215 -0.844709 -0.0799843
        outer loop
            vertex 0.383 -0.0367843 0.0515782
            vertex 0.373003 -0.0434849 0.0561979
            vertex 0.372999 -0.0421021 0.0415678
        endloop
    endfacet
    facet normal -0.00142964 -0.951091 0.308908
        outer loop
            vertex 0.0192772 -0.0389175 0.0725756
            vertex 0.00946606 -0.042722 0.0608166
            vertex 0.373055 -0.0393815 0.0727843
        endloop
    endfacet
endsolid D:/Users/Paul Maroldt/Documents/!StartUp_Repositories/modrob-gen2/ModuleLibrary/L383-L-80-80/L383-L-80-80_convdec.stl_created_by_BoundingMesh