solid D:/Users/Paul Maroldt/Documents/!StartUp_Repositories/module_type_database/0804_E-ISO50-V1/0804_E-ISO50-V1_convdec.stl_created_by_BoundingMesh
    facet normal 0.530113 0.58614 -0.612715
        outer loop
            vertex 0.0216882 0.0268126 -2.9767e-006
            vertex 0.0263734 0.0341998 0.0111174
            vertex 0.0315481 0.0293969 0.0109999
        endloop
    endfacet
    facet normal -0.00246934 0.00310074 0.999992
        outer loop
            vertex 0.0235015 -0.0230868 0.0591301
            vertex 0.0304702 -0.00953932 0.0591053
            vertex 0.00979849 -0.0304205 0.059119
        endloop
    endfacet
    facet normal -0.508983 -0.115688 0.852967
        outer loop
            vertex -0.042857 -0.00590864 0.0520061
            vertex -0.0411032 -0.0120852 0.0522149
            vertex -0.0291289 -0.013854 0.0591203
        endloop
    endfacet
    facet normal 0.00924543 -0.0158216 -0.999832
        outer loop
            vertex 0.0333017 0.0058494 -0.000405674
            vertex 0.0206751 -0.0271653 5.96046e-011
            vertex 0.0109757 -0.0326937 -2.2075e-006
        endloop
    endfacet
    facet normal -0.333133 -0.942862 -0.00585894
        outer loop
            vertex -0.0127364 -0.0411963 0.052127
            vertex -0.0212002 -0.0379503 0.011
            vertex -0.00734651 -0.0428451 0.011
        endloop
    endfacet
    facet normal -0.206492 -0.502731 0.839418
        outer loop
            vertex -0.0192848 -0.0385749 0.0520861
            vertex -0.0127364 -0.0411963 0.052127
            vertex -0.010904 -0.030297 0.0591054
        endloop
    endfacet
    facet normal -0.707019 0.346504 -0.61649
        outer loop
            vertex -0.0345127 0.00737795 -4.19719e-005
            vertex -0.0415814 0.0126003 0.011
            vertex -0.0362744 0.0234289 0.011
        endloop
    endfacet
    facet normal -0.776076 -0.167249 -0.608057
        outer loop
            vertex -0.0434312 -0.00184465 0.011
            vertex -0.0331869 -0.00937351 -4.17772e-006
            vertex -0.0403358 -0.0162081 0.011
        endloop
    endfacet
    facet normal -0.54276 0.24456 0.803493
        outer loop
            vertex -0.0346884 0.0240628 0.0529934
            vertex -0.0404074 0.0153294 0.0517884
            vertex -0.041035 0.0123201 0.0522804
        endloop
    endfacet
    facet normal 0.115674 -0.0322585 -0.992763
        outer loop
            vertex 0.0299434 -0.0184593 -7.09527e-006
            vertex 0.0333017 0.0058494 -0.000405674
            vertex 0.0342583 -0.00320513 5.96046e-011
        endloop
    endfacet
    facet normal 0.462706 0.46947 0.751998
        outer loop
            vertex 0.0344027 0.0261523 0.0517863
            vertex 0.0295647 0.0312834 0.0515598
            vertex 0.0333845 0.0258478 0.0526029
        endloop
    endfacet
    facet normal 0.265223 -0.750656 -0.605121
        outer loop
            vertex 0.0212002 -0.0379503 0.011
            vertex 0.00734651 -0.0428451 0.011
            vertex 0.0109757 -0.0326937 -2.2075e-006
        endloop
    endfacet
    facet normal -0.0044977 -0.034845 -0.999383
        outer loop
            vertex -0.0221638 -0.026147 -0.000179215
            vertex 7.15573e-018 -0.034125 -7.97631e-007
            vertex -0.010976 -0.0326945 -1.27697e-006
        endloop
    endfacet
    facet normal 0.123009 -0.928611 0.350071
        outer loop
            vertex 0.00242764 -0.0435122 0.0500513
            vertex 0.00940486 -0.0417808 0.0521924
            vertex 0.0019038 -0.0427851 0.0521641
        endloop
    endfacet
    facet normal 0.00133759 -0.0112421 -0.999936
        outer loop
            vertex 0.0333017 0.0058494 -0.000405674
            vertex 0.0109757 -0.0326937 -2.2075e-006
            vertex 7.15573e-018 -0.034125 -7.97631e-007
        endloop
    endfacet
    facet normal -0.0721039 -0.0369838 -0.996711
        outer loop
            vertex -0.0221638 -0.026147 -0.000179215
            vertex -0.028178 -0.0192515 5.96046e-011
            vertex -0.0331869 -0.00937351 -4.17772e-006
        endloop
    endfacet
    facet normal 0.0143252 0.0271368 -0.999529
        outer loop
            vertex 0.0333017 0.0058494 -0.000405674
            vertex 0.00915246 0.033432 -2.92502e-006
            vertex 0.0216882 0.0268126 -2.9767e-006
        endloop
    endfacet
    facet normal -0.482273 0.596217 -0.641824
        outer loop
            vertex -0.0264559 0.022118 -6.02004e-006
            vertex -0.0274801 0.0332676 0.0111209
            vertex -0.0161015 0.0304949 -4.77002e-006
        endloop
    endfacet
    facet normal 0.780398 0.00812189 -0.62523
        outer loop
            vertex 0.0342583 -0.00320513 5.96046e-011
            vertex 0.0430055 0.0032026 0.0110013
            vertex 0.0429961 -0.0038618 0.0108978
        endloop
    endfacet
    facet normal -0.516193 0.856449 0.0063054
        outer loop
            vertex -0.0258076 0.0346249 0.0521311
            vertex -0.0203213 0.0379318 0.0520996
            vertex -0.02037 0.0382053 0.010964
        endloop
    endfacet
    facet normal 0.626847 -0.384549 0.677631
        outer loop
            vertex 0.0384506 -0.0197575 0.0515874
            vertex 0.0363548 -0.0212108 0.0527014
            vertex 0.0346558 -0.0258762 0.0516255
        endloop
    endfacet
    facet normal 0.37271 -0.653645 -0.658661
        outer loop
            vertex 0.0212002 -0.0379503 0.011
            vertex 0.0109757 -0.0326937 -2.2075e-006
            vertex 0.0206751 -0.0271653 5.96046e-011
        endloop
    endfacet
    facet normal 0.0168135 -0.0187142 -0.999683
        outer loop
            vertex 0.0299434 -0.0184593 -7.09527e-006
            vertex 0.0206751 -0.0271653 5.96046e-011
            vertex 0.0333017 0.0058494 -0.000405674
        endloop
    endfacet
    facet normal 0.452568 0.72786 0.515172
        outer loop
            vertex 0.0182541 0.0393015 0.0516902
            vertex 0.0253409 0.0342667 0.052578
            vertex 0.0250377 0.0351313 0.0516228
        endloop
    endfacet
    facet normal -0.814483 0.104302 -0.570735
        outer loop
            vertex -0.0345127 0.00737795 -4.19719e-005
            vertex -0.0434312 -0.00184465 0.011
            vertex -0.0415814 0.0126003 0.011
        endloop
    endfacet
    facet normal -0.675973 -0.343046 -0.652211
        outer loop
            vertex -0.0403358 -0.0162081 0.011
            vertex -0.0331869 -0.00937351 -4.17772e-006
            vertex -0.028178 -0.0192515 5.96046e-011
        endloop
    endfacet
    facet normal -0 -0.78366 -0.62119
        outer loop
            vertex 0.00734651 -0.0428451 0.011
            vertex -0.00734651 -0.0428451 0.011
            vertex 7.15573e-018 -0.034125 -7.97631e-007
        endloop
    endfacet
    facet normal 0.00338785 -0.0129498 -0.99991
        outer loop
            vertex 0.0333017 0.0058494 -0.000405674
            vertex 7.15573e-018 -0.034125 -7.97631e-007
            vertex -0.0221638 -0.026147 -0.000179215
        endloop
    endfacet
    facet normal -0.265224 -0.750661 -0.605115
        outer loop
            vertex -0.0212002 -0.0379503 0.011
            vertex -0.010976 -0.0326945 -1.27697e-006
            vertex -0.00734651 -0.0428451 0.011
        endloop
    endfacet
    facet normal -0.998981 -0.0441065 0.0096173
        outer loop
            vertex -0.0433108 0.00425599 0.051485
            vertex -0.0434312 -0.00184465 0.011
            vertex -0.042857 -0.00590864 0.0520061
        endloop
    endfacet
    facet normal -0.000723923 -0.00177953 0.999998
        outer loop
            vertex -0.0291289 -0.013854 0.0591203
            vertex -0.0213578 -0.0237603 0.0591083
            vertex 0.00979849 -0.0304205 0.059119
        endloop
    endfacet
    facet normal -0.977532 -0.210663 -0.00718999
        outer loop
            vertex -0.042857 -0.00590864 0.0520061
            vertex -0.0434312 -0.00184465 0.011
            vertex -0.0403358 -0.0162081 0.011
        endloop
    endfacet
    facet normal -0.699886 0.714251 -0.0023113
        outer loop
            vertex -0.0310304 0.0299198 0.0516331
            vertex -0.0274801 0.0332676 0.0111209
            vertex -0.0321506 0.0286909 0.0110802
        endloop
    endfacet
    facet normal 0.64767 0.761911 0.0038358
        outer loop
            vertex 0.0250377 0.0351313 0.0516228
            vertex 0.0295647 0.0312834 0.0515598
            vertex 0.0263734 0.0341998 0.0111174
        endloop
    endfacet
    facet normal 0.628208 -0.778024 -0.00583359
        outer loop
            vertex 0.032632 -0.0287198 0.011
            vertex 0.0256674 -0.0346478 0.0516108
            vertex 0.0212002 -0.0379503 0.011
        endloop
    endfacet
    facet normal 0 -0.999854 -0.0170801
        outer loop
            vertex 0.00242764 -0.0435122 0.0500513
            vertex -0.00734651 -0.0428451 0.011
            vertex 0.00734651 -0.0428451 0.011
        endloop
    endfacet
    facet normal 0.333125 -0.942839 -0.009029
        outer loop
            vertex 0.01368 -0.0409972 0.05171
            vertex 0.00734651 -0.0428451 0.011
            vertex 0.0212002 -0.0379503 0.011
        endloop
    endfacet
    facet normal 0.738206 -0.674495 0.0104371
        outer loop
            vertex 0.032632 -0.0287198 0.011
            vertex 0.0346558 -0.0258762 0.0516255
            vertex 0.0306722 -0.0302355 0.0516631
        endloop
    endfacet
    facet normal 0.522202 -0.556457 -0.646267
        outer loop
            vertex 0.0299434 -0.0184593 -7.09527e-006
            vertex 0.032632 -0.0287198 0.011
            vertex 0.0206751 -0.0271653 5.96046e-011
        endloop
    endfacet
    facet normal -0.00289766 0.0104573 -0.999941
        outer loop
            vertex 0.0333017 0.0058494 -0.000405674
            vertex -0.0161015 0.0304949 -4.77002e-006
            vertex -0.00367542 0.0342257 -1.76221e-006
        endloop
    endfacet
    facet normal 0.460197 0.245176 0.853292
        outer loop
            vertex 0.037917 0.0204297 0.0520204
            vertex 0.0251832 0.0196734 0.0591053
            vertex 0.0297804 0.011058 0.0591014
        endloop
    endfacet
    facet normal 0.424001 0.661794 -0.618265
        outer loop
            vertex 0.0216882 0.0268126 -2.9767e-006
            vertex 0.0207329 0.037792 0.0110943
            vertex 0.0263734 0.0341998 0.0111174
        endloop
    endfacet
    facet normal -0.00524347 0.00530503 -0.999972
        outer loop
            vertex -0.0345127 0.00737795 -4.19719e-005
            vertex -0.0264559 0.022118 -6.02004e-006
            vertex 0.0333017 0.0058494 -0.000405674
        endloop
    endfacet
    facet normal -0.404855 -0.318631 0.857069
        outer loop
            vertex -0.0346246 -0.0259201 0.0520385
            vertex -0.0213578 -0.0237603 0.0591083
            vertex -0.0291289 -0.013854 0.0591203
        endloop
    endfacet
    facet normal 0.492276 -0.609675 -0.621258
        outer loop
            vertex 0.032632 -0.0287198 0.011
            vertex 0.0212002 -0.0379503 0.011
            vertex 0.0206751 -0.0271653 5.96046e-011
        endloop
    endfacet
    facet normal -0.0219511 -0.00399293 -0.999751
        outer loop
            vertex -0.0345127 0.00737795 -4.19719e-005
            vertex -0.0221638 -0.026147 -0.000179215
            vertex -0.0331869 -0.00937351 -4.17772e-006
        endloop
    endfacet
    facet normal -0.273366 -0.445944 0.852294
        outer loop
            vertex -0.0192848 -0.0385749 0.0520861
            vertex -0.010904 -0.030297 0.0591054
            vertex -0.0262293 -0.0330412 0.0527541
        endloop
    endfacet
    facet normal 0.000617429 0.00137233 0.999999
        outer loop
            vertex -0.0291289 -0.013854 0.0591203
            vertex 0.00979849 -0.0304205 0.059119
            vertex -0.0317937 -0.00194341 0.0591056
        endloop
    endfacet
    facet normal -0.0973618 -0.747262 -0.657359
        outer loop
            vertex -0.00734651 -0.0428451 0.011
            vertex -0.010976 -0.0326945 -1.27697e-006
            vertex 7.15573e-018 -0.034125 -7.97631e-007
        endloop
    endfacet
    facet normal -0.372305 -0.654058 -0.65848
        outer loop
            vertex -0.0212002 -0.0379503 0.011
            vertex -0.0221638 -0.026147 -0.000179215
            vertex -0.010976 -0.0326945 -1.27697e-006
        endloop
    endfacet
    facet normal -0.851469 -0.524273 -0.0117167
        outer loop
            vertex -0.0397826 -0.0179829 0.0502128
            vertex -0.0403358 -0.0162081 0.011
            vertex -0.032632 -0.0287198 0.011
        endloop
    endfacet
    facet normal -0.470841 -0.277127 0.837562
        outer loop
            vertex -0.0346246 -0.0259201 0.0520385
            vertex -0.0291289 -0.013854 0.0591203
            vertex -0.0387087 -0.0183181 0.0522579
        endloop
    endfacet
    facet normal -0.935056 0.237968 0.262758
        outer loop
            vertex -0.0433108 0.00425599 0.051485
            vertex -0.041035 0.0123201 0.0522804
            vertex -0.0404074 0.0153294 0.0517884
        endloop
    endfacet
    facet normal 0.091297 0.995823 -0.000986189
        outer loop
            vertex -0.000428837 0.043271 0.0513605
            vertex 0.00737587 0.0425155 0.0110046
            vertex -0.000711146 0.0432571 0.011187
        endloop
    endfacet
    facet normal 0.199527 -0.622897 0.756432
        outer loop
            vertex 0.01368 -0.0409972 0.05171
            vertex 0.0151484 -0.0388833 0.0530634
            vertex 0.00940486 -0.0417808 0.0521924
        endloop
    endfacet
    facet normal -0.967319 0.253328 0.0108922
        outer loop
            vertex -0.0433108 0.00425599 0.051485
            vertex -0.0404074 0.0153294 0.0517884
            vertex -0.0415814 0.0126003 0.011
        endloop
    endfacet
    facet normal -0.507761 -0.112549 0.854115
        outer loop
            vertex -0.042857 -0.00590864 0.0520061
            vertex -0.0291289 -0.013854 0.0591203
            vertex -0.0317937 -0.00194341 0.0591056
        endloop
    endfacet
    facet normal 0.417059 0.908841 -0.00832816
        outer loop
            vertex 0.0182541 0.0393015 0.0516902
            vertex 0.0207329 0.037792 0.0110943
            vertex 0.0144791 0.0406627 0.011191
        endloop
    endfacet
    facet normal 0.717191 0.229616 -0.657962
        outer loop
            vertex 0.0415576 0.0127426 0.010999
            vertex 0.0333017 0.0058494 -0.000405674
            vertex 0.0302332 0.0165961 5.96046e-011
        endloop
    endfacet
    facet normal 0.504153 0.11175 0.856353
        outer loop
            vertex 0.0430524 0.0058593 0.0519663
            vertex 0.0297804 0.011058 0.0591014
            vertex 0.0319339 0.00133574 0.0591023
        endloop
    endfacet
    facet normal -0.368827 0.929496 -0.00189798
        outer loop
            vertex -0.0158631 0.0400779 0.0522213
            vertex -0.0132513 0.0410301 0.0110012
            vertex -0.02037 0.0382053 0.010964
        endloop
    endfacet
    facet normal -0.00531497 0.00213593 -0.999984
        outer loop
            vertex -0.0345127 0.00737795 -4.19719e-005
            vertex 0.0333017 0.0058494 -0.000405674
            vertex -0.0221638 -0.026147 -0.000179215
        endloop
    endfacet
    facet normal -0.077889 0.785755 -0.613614
        outer loop
            vertex -0.000711146 0.0432571 0.011187
            vertex -0.00367542 0.0342257 -1.76221e-006
            vertex -0.00681787 0.0426142 0.0111389
        endloop
    endfacet
    facet normal 0.000859245 0.0153521 -0.999882
        outer loop
            vertex 0.0333017 0.0058494 -0.000405674
            vertex -0.00367542 0.0342257 -1.76221e-006
            vertex 0.00915246 0.033432 -2.92502e-006
        endloop
    endfacet
    facet normal 0.0568172 0.774531 -0.629979
        outer loop
            vertex 0.00915246 0.033432 -2.92502e-006
            vertex -0.000711146 0.0432571 0.011187
            vertex 0.00737587 0.0425155 0.0110046
        endloop
    endfacet
    facet normal 0.596698 0.486863 -0.6379
        outer loop
            vertex 0.035771 0.0242229 0.0110011
            vertex 0.0302332 0.0165961 5.96046e-011
            vertex 0.0315481 0.0293969 0.0109999
        endloop
    endfacet
    facet normal 0.358471 0.678873 -0.640804
        outer loop
            vertex 0.00915246 0.033432 -2.92502e-006
            vertex 0.0207329 0.037792 0.0110943
            vertex 0.0216882 0.0268126 -2.9767e-006
        endloop
    endfacet
    facet normal 0.763846 -0.169743 -0.622676
        outer loop
            vertex 0.0403358 -0.0162081 0.011
            vertex 0.0342583 -0.00320513 5.96046e-011
            vertex 0.0429961 -0.0038618 0.0108978
        endloop
    endfacet
    facet normal -0.219778 0.73253 -0.644281
        outer loop
            vertex -0.0161015 0.0304949 -4.77002e-006
            vertex -0.0132513 0.0410301 0.0110012
            vertex -0.00367542 0.0342257 -1.76221e-006
        endloop
    endfacet
    facet normal 0.0973632 -0.747261 -0.657359
        outer loop
            vertex 0.00734651 -0.0428451 0.011
            vertex 7.15573e-018 -0.034125 -7.97631e-007
            vertex 0.0109757 -0.0326937 -2.2075e-006
        endloop
    endfacet
    facet normal 0.766595 0.0523157 -0.639996
        outer loop
            vertex 0.0333017 0.0058494 -0.000405674
            vertex 0.0430055 0.0032026 0.0110013
            vertex 0.0342583 -0.00320513 5.96046e-011
        endloop
    endfacet
    facet normal 0.52257 -0.0799183 0.848843
        outer loop
            vertex 0.0430506 -0.0021699 0.0520543
            vertex 0.0304702 -0.00953932 0.0591053
            vertex 0.0406947 -0.0119443 0.0525844
        endloop
    endfacet
    facet normal 0.613794 -0.556062 0.560403
        outer loop
            vertex 0.0305731 -0.0290812 0.052917
            vertex 0.0306722 -0.0302355 0.0516631
            vertex 0.0346558 -0.0258762 0.0516255
        endloop
    endfacet
    facet normal -0.524584 -0.851281 0.0115143
        outer loop
            vertex -0.027826 -0.0333166 0.0517139
            vertex -0.0212002 -0.0379503 0.011
            vertex -0.0192848 -0.0385749 0.0520861
        endloop
    endfacet
    facet normal -0.411109 0.412053 0.813143
        outer loop
            vertex -0.0234978 0.0230888 0.0591447
            vertex -0.0258076 0.0346249 0.0521311
            vertex -0.0346884 0.0240628 0.0529934
        endloop
    endfacet
    facet normal -0.211385 -0.977335 0.0114787
        outer loop
            vertex -0.0127364 -0.0411963 0.052127
            vertex -0.00734651 -0.0428451 0.011
            vertex -0.00589608 -0.042677 0.0520228
        endloop
    endfacet
    facet normal -0.000710855 -0.0090363 0.999959
        outer loop
            vertex -0.010904 -0.030297 0.0591054
            vertex -1.14492e-015 -0.0317414 0.0591001
            vertex 0.00979849 -0.0304205 0.059119
        endloop
    endfacet
    facet normal -0.100639 -0.524417 0.845493
        outer loop
            vertex -0.0127364 -0.0411963 0.052127
            vertex -0.00589608 -0.042677 0.0520228
            vertex -0.010904 -0.030297 0.0591054
        endloop
    endfacet
    facet normal 0.727496 0.686102 0.00366341
        outer loop
            vertex 0.0344027 0.0261523 0.0517863
            vertex 0.0315481 0.0293969 0.0109999
            vertex 0.0295647 0.0312834 0.0515598
        endloop
    endfacet
    facet normal 0.587975 0.49159 -0.642359
        outer loop
            vertex 0.0302332 0.0165961 5.96046e-011
            vertex 0.0216882 0.0268126 -2.9767e-006
            vertex 0.0315481 0.0293969 0.0109999
        endloop
    endfacet
    facet normal -0.818821 -0.450184 0.356182
        outer loop
            vertex -0.0346246 -0.0259201 0.0520385
            vertex -0.0387087 -0.0183181 0.0522579
            vertex -0.0397826 -0.0179829 0.0502128
        endloop
    endfacet
    facet normal 0.587381 0.683961 0.432644
        outer loop
            vertex 0.0253409 0.0342667 0.052578
            vertex 0.0295647 0.0312834 0.0515598
            vertex 0.0250377 0.0351313 0.0516228
        endloop
    endfacet
    facet normal 0.118891 0.523649 0.843598
        outer loop
            vertex 0.00604092 0.0426321 0.0520851
            vertex 0.00943742 0.0305577 0.0591014
            vertex 0.0140967 0.0396269 0.0528152
        endloop
    endfacet
    facet normal -0.455069 0.63546 -0.623781
        outer loop
            vertex -0.02037 0.0382053 0.010964
            vertex -0.0161015 0.0304949 -4.77002e-006
            vertex -0.0274801 0.0332676 0.0111209
        endloop
    endfacet
    facet normal -0.239052 0.971005 -0.00174317
        outer loop
            vertex -0.0093976 0.0420525 0.0520287
            vertex -0.00681787 0.0426142 0.0111389
            vertex -0.0132513 0.0410301 0.0110012
        endloop
    endfacet
    facet normal -0.242598 0.457619 0.855413
        outer loop
            vertex -0.0234978 0.0230888 0.0591447
            vertex -0.00985869 0.0304027 0.0591001
            vertex -0.0158631 0.0400779 0.0522213
        endloop
    endfacet
    facet normal 0.00264514 0.00116564 0.999996
        outer loop
            vertex -0.0234978 0.0230888 0.0591447
            vertex 0.00979849 -0.0304205 0.059119
            vertex -0.00985869 0.0304027 0.0591001
        endloop
    endfacet
    facet normal 0.452515 0.287809 0.844036
        outer loop
            vertex 0.037917 0.0204297 0.0520204
            vertex 0.0333845 0.0258478 0.0526029
            vertex 0.0251832 0.0196734 0.0591053
        endloop
    endfacet
    facet normal -0.585616 0.278451 0.761261
        outer loop
            vertex -0.0366147 0.0231509 0.0518451
            vertex -0.0404074 0.0153294 0.0517884
            vertex -0.0346884 0.0240628 0.0529934
        endloop
    endfacet
    facet normal 0.0632666 0.514661 0.855057
        outer loop
            vertex 0.00604092 0.0426321 0.0520851
            vertex -0.00027366 0.0317523 0.0591009
            vertex 0.00943742 0.0305577 0.0591014
        endloop
    endfacet
    facet normal 0.0553731 0.940608 0.33495
        outer loop
            vertex -0.000428837 0.043271 0.0513605
            vertex -0.00267043 0.0432054 0.0519153
            vertex 0.00604092 0.0426321 0.0520851
        endloop
    endfacet
    facet normal 0.523706 0.851899 0.00030103
        outer loop
            vertex 0.0182541 0.0393015 0.0516902
            vertex 0.0250377 0.0351313 0.0516228
            vertex 0.0207329 0.037792 0.0110943
        endloop
    endfacet
    facet normal 0.252444 0.967609 -0.0020161
        outer loop
            vertex 0.0106355 0.0417502 0.0518559
            vertex 0.0144791 0.0406627 0.011191
            vertex 0.00737587 0.0425155 0.0110046
        endloop
    endfacet
    facet normal 0.238049 0.694706 0.678761
        outer loop
            vertex 0.0182541 0.0393015 0.0516902
            vertex 0.0106355 0.0417502 0.0518559
            vertex 0.0140967 0.0396269 0.0528152
        endloop
    endfacet
    facet normal -0.074544 0.518737 0.851678
        outer loop
            vertex -0.00267043 0.0432054 0.0519153
            vertex -0.0093976 0.0420525 0.0520287
            vertex -0.00027366 0.0317523 0.0591009
        endloop
    endfacet
    facet normal -0.168869 0.985634 0.00288566
        outer loop
            vertex -0.00267043 0.0432054 0.0519153
            vertex -0.00681787 0.0426142 0.0111389
            vertex -0.0093976 0.0420525 0.0520287
        endloop
    endfacet
    facet normal 0.342691 0.380488 0.858948
        outer loop
            vertex 0.0253409 0.0342667 0.052578
            vertex 0.0179872 0.0261627 0.0591017
            vertex 0.0251832 0.0196734 0.0591053
        endloop
    endfacet
    facet normal 0.994149 -0.107972 0.00312223
        outer loop
            vertex 0.0421127 -0.0108274 0.0512985
            vertex 0.0429961 -0.0038618 0.0108978
            vertex 0.0430506 -0.0021699 0.0520543
        endloop
    endfacet
    facet normal 0.962035 0.272715 0.0107189
        outer loop
            vertex 0.0430524 0.0058593 0.0519663
            vertex 0.0415576 0.0127426 0.010999
            vertex 0.0406286 0.0144086 0.0519906
        endloop
    endfacet
    facet normal 0.518424 -0.0695409 0.852291
        outer loop
            vertex 0.0430506 -0.0021699 0.0520543
            vertex 0.0319339 0.00133574 0.0591023
            vertex 0.0304702 -0.00953932 0.0591053
        endloop
    endfacet
    facet normal 0.223377 -0.450157 0.864559
        outer loop
            vertex 0.0235015 -0.0230868 0.0591301
            vertex 0.0151484 -0.0388833 0.0530634
            vertex 0.0202973 -0.0381058 0.0521379
        endloop
    endfacet
    facet normal 0.531126 -0.369282 0.762585
        outer loop
            vertex 0.0305731 -0.0290812 0.052917
            vertex 0.0346558 -0.0258762 0.0516255
            vertex 0.0363548 -0.0212108 0.0527014
        endloop
    endfacet
    facet normal -0.735969 -0.676935 0.0104469
        outer loop
            vertex -0.027826 -0.0333166 0.0517139
            vertex -0.0346246 -0.0259201 0.0520385
            vertex -0.032632 -0.0287198 0.011
        endloop
    endfacet
    facet normal 0.400098 -0.916457 0.0053172
        outer loop
            vertex 0.0202973 -0.0381058 0.0521379
            vertex 0.01368 -0.0409972 0.05171
            vertex 0.0212002 -0.0379503 0.011
        endloop
    endfacet
    facet normal -0.000198464 0.000334471 1
        outer loop
            vertex 0.0251832 0.0196734 0.0591053
            vertex 0.0179872 0.0261627 0.0591017
            vertex 0.00979849 -0.0304205 0.059119
        endloop
    endfacet
    facet normal -0.534251 -0.0223712 0.84503
        outer loop
            vertex -0.042857 -0.00590864 0.0520061
            vertex -0.0317937 -0.00194341 0.0591056
            vertex -0.0421544 0.00417302 0.0527172
        endloop
    endfacet
    facet normal 0.462027 -0.236098 0.854862
        outer loop
            vertex 0.0235015 -0.0230868 0.0591301
            vertex 0.0363548 -0.0212108 0.0527014
            vertex 0.0304702 -0.00953932 0.0591053
        endloop
    endfacet
    facet normal 0.925291 -0.37913 0.00982262
        outer loop
            vertex 0.0421127 -0.0108274 0.0512985
            vertex 0.0384506 -0.0197575 0.0515874
            vertex 0.0403358 -0.0162081 0.011
        endloop
    endfacet
    facet normal -0.498401 -0.61726 -0.608759
        outer loop
            vertex -0.032632 -0.0287198 0.011
            vertex -0.0221638 -0.026147 -0.000179215
            vertex -0.0212002 -0.0379503 0.011
        endloop
    endfacet
    facet normal 0.537482 0.00912132 0.843226
        outer loop
            vertex 0.0430524 0.0058593 0.0519663
            vertex 0.0319339 0.00133574 0.0591023
            vertex 0.0430506 -0.0021699 0.0520543
        endloop
    endfacet
    facet normal 0.519707 0.35102 0.778903
        outer loop
            vertex 0.0344027 0.0261523 0.0517863
            vertex 0.0333845 0.0258478 0.0526029
            vertex 0.037917 0.0204297 0.0520204
        endloop
    endfacet
    facet normal 0.0476492 0.771043 -0.634998
        outer loop
            vertex 0.00915246 0.033432 -2.92502e-006
            vertex -0.00367542 0.0342257 -1.76221e-006
            vertex -0.000711146 0.0432571 0.011187
        endloop
    endfacet
    facet normal 0.698667 -0.430189 -0.571666
        outer loop
            vertex 0.0299434 -0.0184593 -7.09527e-006
            vertex 0.0403358 -0.0162081 0.011
            vertex 0.032632 -0.0287198 0.011
        endloop
    endfacet
    facet normal -0.578503 -0.48757 -0.653919
        outer loop
            vertex -0.032632 -0.0287198 0.011
            vertex -0.028178 -0.0192515 5.96046e-011
            vertex -0.0221638 -0.026147 -0.000179215
        endloop
    endfacet
    facet normal -0.000121777 0.000271415 1
        outer loop
            vertex 0.00979849 -0.0304205 0.059119
            vertex -0.00027366 0.0317523 0.0591009
            vertex -0.00985869 0.0304027 0.0591001
        endloop
    endfacet
    facet normal 0.320455 0.718888 -0.616854
        outer loop
            vertex 0.00915246 0.033432 -2.92502e-006
            vertex 0.0144791 0.0406627 0.011191
            vertex 0.0207329 0.037792 0.0110943
        endloop
    endfacet
    facet normal -0.951981 -0.265135 0.153088
        outer loop
            vertex -0.042857 -0.00590864 0.0520061
            vertex -0.0397826 -0.0179829 0.0502128
            vertex -0.0411032 -0.0120852 0.0522149
        endloop
    endfacet
    facet normal 0.0687785 0.0572356 -0.995989
        outer loop
            vertex 0.0333017 0.0058494 -0.000405674
            vertex 0.0216882 0.0268126 -2.9767e-006
            vertex 0.0302332 0.0165961 5.96046e-011
        endloop
    endfacet
    facet normal -0.285688 0.72816 -0.623029
        outer loop
            vertex -0.02037 0.0382053 0.010964
            vertex -0.0132513 0.0410301 0.0110012
            vertex -0.0161015 0.0304949 -4.77002e-006
        endloop
    endfacet
    facet normal 0.0186796 0.534165 0.845174
        outer loop
            vertex -0.00267043 0.0432054 0.0519153
            vertex -0.00027366 0.0317523 0.0591009
            vertex 0.00604092 0.0426321 0.0520851
        endloop
    endfacet
    facet normal -0.605419 0.518382 0.603944
        outer loop
            vertex -0.0366147 0.0231509 0.0518451
            vertex -0.0346884 0.0240628 0.0529934
            vertex -0.0310304 0.0299198 0.0516331
        endloop
    endfacet
    facet normal -0.899779 0.436333 -0.00329644
        outer loop
            vertex -0.0366147 0.0231509 0.0518451
            vertex -0.0415814 0.0126003 0.011
            vertex -0.0404074 0.0153294 0.0517884
        endloop
    endfacet
    facet normal -0.0320292 0.999424 -0.0112325
        outer loop
            vertex -0.000428837 0.043271 0.0513605
            vertex -0.00681787 0.0426142 0.0111389
            vertex -0.00267043 0.0432054 0.0519153
        endloop
    endfacet
    facet normal 0.261463 0.512275 0.818054
        outer loop
            vertex 0.0182541 0.0393015 0.0516902
            vertex 0.0140967 0.0396269 0.0528152
            vertex 0.0253409 0.0342667 0.052578
        endloop
    endfacet
    facet normal 0.387665 0.372876 0.843018
        outer loop
            vertex 0.0253409 0.0342667 0.052578
            vertex 0.0251832 0.0196734 0.0591053
            vertex 0.0333845 0.0258478 0.0526029
        endloop
    endfacet
    facet normal 0.0982333 0.995163 0.000367635
        outer loop
            vertex -0.000428837 0.043271 0.0513605
            vertex 0.00604092 0.0426321 0.0520851
            vertex 0.00737587 0.0425155 0.0110046
        endloop
    endfacet
    facet normal 0.999853 0.0170891 0.00113803
        outer loop
            vertex 0.0430506 -0.0021699 0.0520543
            vertex 0.0430055 0.0032026 0.0110013
            vertex 0.0429504 0.00372275 0.0516011
        endloop
    endfacet
    facet normal 0.244149 -0.457487 0.855042
        outer loop
            vertex 0.0235015 -0.0230868 0.0591301
            vertex 0.00979849 -0.0304205 0.059119
            vertex 0.0151484 -0.0388833 0.0530634
        endloop
    endfacet
    facet normal 0.732161 -0.206802 -0.648978
        outer loop
            vertex 0.0299434 -0.0184593 -7.09527e-006
            vertex 0.0342583 -0.00320513 5.96046e-011
            vertex 0.0403358 -0.0162081 0.011
        endloop
    endfacet
    facet normal 0.722599 -0.137425 0.677469
        outer loop
            vertex 0.0421127 -0.0108274 0.0512985
            vertex 0.0430506 -0.0021699 0.0520543
            vertex 0.0406947 -0.0119443 0.0525844
        endloop
    endfacet
    facet normal 0.000471582 0.000197184 1
        outer loop
            vertex 0.0319339 0.00133574 0.0591023
            vertex 0.0297804 0.011058 0.0591014
            vertex 0.00979849 -0.0304205 0.059119
        endloop
    endfacet
    facet normal 0.851511 -0.524299 -0.00629941
        outer loop
            vertex 0.032632 -0.0287198 0.011
            vertex 0.0403358 -0.0162081 0.011
            vertex 0.0384506 -0.0197575 0.0515874
        endloop
    endfacet
    facet normal 0.71036 0.358165 -0.605893
        outer loop
            vertex 0.0415576 0.0127426 0.010999
            vertex 0.0302332 0.0165961 5.96046e-011
            vertex 0.035771 0.0242229 0.0110011
        endloop
    endfacet
    facet normal -0.000665973 -0.00150844 0.999999
        outer loop
            vertex -0.010904 -0.030297 0.0591054
            vertex 0.00979849 -0.0304205 0.059119
            vertex -0.0213578 -0.0237603 0.0591083
        endloop
    endfacet
    facet normal -0.437121 -0.436301 0.78649
        outer loop
            vertex -0.027826 -0.0333166 0.0517139
            vertex -0.0262293 -0.0330412 0.0527541
            vertex -0.0346246 -0.0259201 0.0520385
        endloop
    endfacet
    facet normal -0.71792 0.135253 0.68286
        outer loop
            vertex -0.0433108 0.00425599 0.051485
            vertex -0.0421544 0.00417302 0.0527172
            vertex -0.041035 0.0123201 0.0522804
        endloop
    endfacet
    facet normal 0.998255 -0.0402756 -0.0431911
        outer loop
            vertex 0.0430524 0.0058593 0.0519663
            vertex 0.0429504 0.00372275 0.0516011
            vertex 0.0415576 0.0127426 0.010999
        endloop
    endfacet
    facet normal -0.0227131 -0.534523 0.844849
        outer loop
            vertex -0.00589608 -0.042677 0.0520228
            vertex 0.0019038 -0.0427851 0.0521641
            vertex -1.14492e-015 -0.0317414 0.0591001
        endloop
    endfacet
    facet normal 0.337599 -0.455517 0.82373
        outer loop
            vertex 0.0235015 -0.0230868 0.0591301
            vertex 0.0202973 -0.0381058 0.0521379
            vertex 0.0305731 -0.0290812 0.052917
        endloop
    endfacet
    facet normal -0.243782 0.457943 0.854902
        outer loop
            vertex -0.0234978 0.0230888 0.0591447
            vertex -0.0158631 0.0400779 0.0522213
            vertex -0.0203213 0.0379318 0.0520996
        endloop
    endfacet
    facet normal -0.523755 0.117202 0.843768
        outer loop
            vertex -0.041035 0.0123201 0.0522804
            vertex -0.0421544 0.00417302 0.0527172
            vertex -0.0308186 0.00881887 0.0591084
        endloop
    endfacet
    facet normal -0.78707 0.616859 -0.00235903
        outer loop
            vertex -0.0366147 0.0231509 0.0518451
            vertex -0.0321506 0.0286909 0.0110802
            vertex -0.0362744 0.0234289 0.011
        endloop
    endfacet
    facet normal -0.000470942 -0.000217285 1
        outer loop
            vertex -0.0308186 0.00881887 0.0591084
            vertex -0.0317937 -0.00194341 0.0591056
            vertex 0.00979849 -0.0304205 0.059119
        endloop
    endfacet
    facet normal -0.968988 -0.247097 0.00248637
        outer loop
            vertex -0.042857 -0.00590864 0.0520061
            vertex -0.0403358 -0.0162081 0.011
            vertex -0.0397826 -0.0179829 0.0502128
        endloop
    endfacet
    facet normal -0.771343 0.636417 0.00202124
        outer loop
            vertex -0.0366147 0.0231509 0.0518451
            vertex -0.0310304 0.0299198 0.0516331
            vertex -0.0321506 0.0286909 0.0110802
        endloop
    endfacet
    facet normal -0.0679361 -0.515994 0.853894
        outer loop
            vertex -0.00589608 -0.042677 0.0520228
            vertex -1.14492e-015 -0.0317414 0.0591001
            vertex -0.010904 -0.030297 0.0591054
        endloop
    endfacet
    facet normal 0.133964 -0.519272 0.844044
        outer loop
            vertex 0.00940486 -0.0417808 0.0521924
            vertex 0.0151484 -0.0388833 0.0530634
            vertex 0.00979849 -0.0304205 0.059119
        endloop
    endfacet
    facet normal 0.680275 0.732957 -0.000825048
        outer loop
            vertex 0.0263734 0.0341998 0.0111174
            vertex 0.0295647 0.0312834 0.0515598
            vertex 0.0315481 0.0293969 0.0109999
        endloop
    endfacet
    facet normal 0.537177 0.843468 -0.00168336
        outer loop
            vertex 0.0250377 0.0351313 0.0516228
            vertex 0.0263734 0.0341998 0.0111174
            vertex 0.0207329 0.037792 0.0110943
        endloop
    endfacet
    facet normal 0.977429 -0.210734 -0.0149608
        outer loop
            vertex 0.0421127 -0.0108274 0.0512985
            vertex 0.0403358 -0.0162081 0.011
            vertex 0.0429961 -0.0038618 0.0108978
        endloop
    endfacet
    facet normal -0.00497346 0.00629674 -0.999968
        outer loop
            vertex 0.0333017 0.0058494 -0.000405674
            vertex -0.0264559 0.022118 -6.02004e-006
            vertex -0.0161015 0.0304949 -4.77002e-006
        endloop
    endfacet
    facet normal -0.433878 0.900948 0.00650382
        outer loop
            vertex -0.0158631 0.0400779 0.0522213
            vertex -0.02037 0.0382053 0.010964
            vertex -0.0203213 0.0379318 0.0520996
        endloop
    endfacet
    facet normal -0.0732338 0.51961 0.851259
        outer loop
            vertex -0.0093976 0.0420525 0.0520287
            vertex -0.00985869 0.0304027 0.0591001
            vertex -0.00027366 0.0317523 0.0591009
        endloop
    endfacet
    facet normal -0.174376 0.762361 -0.623216
        outer loop
            vertex -0.0132513 0.0410301 0.0110012
            vertex -0.00681787 0.0426142 0.0111389
            vertex -0.00367542 0.0342257 -1.76221e-006
        endloop
    endfacet
    facet normal -0.379755 -0.564997 0.732506
        outer loop
            vertex -0.027826 -0.0333166 0.0517139
            vertex -0.0192848 -0.0385749 0.0520861
            vertex -0.0262293 -0.0330412 0.0527541
        endloop
    endfacet
    facet normal 0.769676 0.116664 -0.627686
        outer loop
            vertex 0.0415576 0.0127426 0.010999
            vertex 0.0430055 0.0032026 0.0110013
            vertex 0.0333017 0.0058494 -0.000405674
        endloop
    endfacet
    facet normal 0.000863831 8.22098e-006 1
        outer loop
            vertex 0.0251832 0.0196734 0.0591053
            vertex 0.00979849 -0.0304205 0.059119
            vertex 0.0297804 0.011058 0.0591014
        endloop
    endfacet
    facet normal 0.155173 0.605579 0.780509
        outer loop
            vertex 0.00604092 0.0426321 0.0520851
            vertex 0.0140967 0.0396269 0.0528152
            vertex 0.0106355 0.0417502 0.0518559
        endloop
    endfacet
    facet normal -0.0189403 -0.946839 0.321149
        outer loop
            vertex 0.00242764 -0.0435122 0.0500513
            vertex 0.0019038 -0.0427851 0.0521641
            vertex -0.00589608 -0.042677 0.0520228
        endloop
    endfacet
    facet normal 0.216625 -0.976197 0.0106098
        outer loop
            vertex 0.00242764 -0.0435122 0.0500513
            vertex 0.00734651 -0.0428451 0.011
            vertex 0.01368 -0.0409972 0.05171
        endloop
    endfacet
    facet normal 0.511426 0.142585 0.847415
        outer loop
            vertex 0.0430524 0.0058593 0.0519663
            vertex 0.0406286 0.0144086 0.0519906
            vertex 0.0297804 0.011058 0.0591014
        endloop
    endfacet
    facet normal 0.758442 -0.292179 0.582579
        outer loop
            vertex 0.0421127 -0.0108274 0.0512985
            vertex 0.0406947 -0.0119443 0.0525844
            vertex 0.0384506 -0.0197575 0.0515874
        endloop
    endfacet
    facet normal 0.988678 0.150053 -0.000580624
        outer loop
            vertex 0.0415576 0.0127426 0.010999
            vertex 0.0429504 0.00372275 0.0516011
            vertex 0.0430055 0.0032026 0.0110013
        endloop
    endfacet
    facet normal 0.487888 0.215533 0.845879
        outer loop
            vertex 0.0406286 0.0144086 0.0519906
            vertex 0.037917 0.0204297 0.0520204
            vertex 0.0297804 0.011058 0.0591014
        endloop
    endfacet
    facet normal 0.228536 -0.63255 0.740035
        outer loop
            vertex 0.0202973 -0.0381058 0.0521379
            vertex 0.0151484 -0.0388833 0.0530634
            vertex 0.01368 -0.0409972 0.05171
        endloop
    endfacet
    facet normal 0.911802 0.41061 0.00397609
        outer loop
            vertex 0.0406286 0.0144086 0.0519906
            vertex 0.0415576 0.0127426 0.010999
            vertex 0.037917 0.0204297 0.0520204
        endloop
    endfacet
    facet normal -0.57046 0.821316 -0.00391806
        outer loop
            vertex -0.0258076 0.0346249 0.0521311
            vertex -0.02037 0.0382053 0.010964
            vertex -0.0274801 0.0332676 0.0111209
        endloop
    endfacet
    facet normal -0.371655 -0.928365 0.00321305
        outer loop
            vertex -0.0192848 -0.0385749 0.0520861
            vertex -0.0212002 -0.0379503 0.011
            vertex -0.0127364 -0.0411963 0.052127
        endloop
    endfacet
    facet normal -0.275241 -0.440557 0.85449
        outer loop
            vertex -0.010904 -0.030297 0.0591054
            vertex -0.0213578 -0.0237603 0.0591083
            vertex -0.0262293 -0.0330412 0.0527541
        endloop
    endfacet
    facet normal 0.8498 -0.527077 -0.00544057
        outer loop
            vertex 0.032632 -0.0287198 0.011
            vertex 0.0384506 -0.0197575 0.0515874
            vertex 0.0346558 -0.0258762 0.0516255
        endloop
    endfacet
    facet normal 0.0686051 -0.52109 0.85074
        outer loop
            vertex 0.00940486 -0.0417808 0.0521924
            vertex 0.00979849 -0.0304205 0.059119
            vertex -1.14492e-015 -0.0317414 0.0591001
        endloop
    endfacet
    facet normal -0.99177 0.127005 -0.0161887
        outer loop
            vertex -0.0433108 0.00425599 0.051485
            vertex -0.0415814 0.0126003 0.011
            vertex -0.0434312 -0.00184465 0.011
        endloop
    endfacet
    facet normal -0.504703 0.0455036 0.862093
        outer loop
            vertex -0.0421544 0.00417302 0.0527172
            vertex -0.0317937 -0.00194341 0.0591056
            vertex -0.0308186 0.00881887 0.0591084
        endloop
    endfacet
    facet normal -0.729093 0.00253666 0.68441
        outer loop
            vertex -0.0433108 0.00425599 0.051485
            vertex -0.042857 -0.00590864 0.0520061
            vertex -0.0421544 0.00417302 0.0527172
        endloop
    endfacet
    facet normal -0.669465 0.742838 0.00271698
        outer loop
            vertex -0.0258076 0.0346249 0.0521311
            vertex -0.0274801 0.0332676 0.0111209
            vertex -0.0310304 0.0299198 0.0516331
        endloop
    endfacet
    facet normal 0.240356 0.466531 0.851221
        outer loop
            vertex 0.0253409 0.0342667 0.052578
            vertex 0.0140967 0.0396269 0.0528152
            vertex 0.00943742 0.0305577 0.0591014
        endloop
    endfacet
    facet normal -0.511388 -0.190679 0.837929
        outer loop
            vertex -0.0291289 -0.013854 0.0591203
            vertex -0.0411032 -0.0120852 0.0522149
            vertex -0.0387087 -0.0183181 0.0522579
        endloop
    endfacet
    facet normal -0.62816 -0.777964 -0.013686
        outer loop
            vertex -0.027826 -0.0333166 0.0517139
            vertex -0.032632 -0.0287198 0.011
            vertex -0.0212002 -0.0379503 0.011
        endloop
    endfacet
    facet normal -0.857744 -0.326782 0.396847
        outer loop
            vertex -0.0397826 -0.0179829 0.0502128
            vertex -0.0387087 -0.0183181 0.0522579
            vertex -0.0411032 -0.0120852 0.0522149
        endloop
    endfacet
    facet normal -0.838129 -0.54546 -0.00348282
        outer loop
            vertex -0.0346246 -0.0259201 0.0520385
            vertex -0.0397826 -0.0179829 0.0502128
            vertex -0.032632 -0.0287198 0.011
        endloop
    endfacet
    facet normal 0.51925 0.498157 0.69442
        outer loop
            vertex 0.0253409 0.0342667 0.052578
            vertex 0.0333845 0.0258478 0.0526029
            vertex 0.0295647 0.0312834 0.0515598
        endloop
    endfacet
    facet normal -0.104702 0.994504 0.000391598
        outer loop
            vertex -0.000428837 0.043271 0.0513605
            vertex -0.000711146 0.0432571 0.011187
            vertex -0.00681787 0.0426142 0.0111389
        endloop
    endfacet
    facet normal 0.30606 0.952006 0.00346898
        outer loop
            vertex 0.0182541 0.0393015 0.0516902
            vertex 0.0144791 0.0406627 0.011191
            vertex 0.0106355 0.0417502 0.0518559
        endloop
    endfacet
    facet normal 0.000444734 0.000215898 1
        outer loop
            vertex 0.0319339 0.00133574 0.0591023
            vertex 0.00979849 -0.0304205 0.059119
            vertex 0.0304702 -0.00953932 0.0591053
        endloop
    endfacet
    facet normal 0.852067 0.523419 0.00382495
        outer loop
            vertex 0.0344027 0.0261523 0.0517863
            vertex 0.037917 0.0204297 0.0520204
            vertex 0.035771 0.0242229 0.0110011
        endloop
    endfacet
    facet normal 0.240104 0.467144 0.850956
        outer loop
            vertex 0.0253409 0.0342667 0.052578
            vertex 0.00943742 0.0305577 0.0591014
            vertex 0.0179872 0.0261627 0.0591017
        endloop
    endfacet
    facet normal -0.0018178 -0.00161144 0.999997
        outer loop
            vertex -0.0234978 0.0230888 0.0591447
            vertex -0.0308186 0.00881887 0.0591084
            vertex 0.00979849 -0.0304205 0.059119
        endloop
    endfacet
    facet normal -0.548264 0.564985 -0.616602
        outer loop
            vertex -0.0264559 0.022118 -6.02004e-006
            vertex -0.0321506 0.0286909 0.0110802
            vertex -0.0274801 0.0332676 0.0111209
        endloop
    endfacet
    facet normal -0.272125 0.459522 0.845451
        outer loop
            vertex -0.0234978 0.0230888 0.0591447
            vertex -0.0203213 0.0379318 0.0520996
            vertex -0.0258076 0.0346249 0.0521311
        endloop
    endfacet
    facet normal -0.501272 0.480242 0.719788
        outer loop
            vertex -0.0258076 0.0346249 0.0521311
            vertex -0.0310304 0.0299198 0.0516331
            vertex -0.0346884 0.0240628 0.0529934
        endloop
    endfacet
    facet normal -0.133068 0.518116 0.844896
        outer loop
            vertex -0.0158631 0.0400779 0.0522213
            vertex -0.00985869 0.0304027 0.0591001
            vertex -0.0093976 0.0420525 0.0520287
        endloop
    endfacet
    facet normal -0.098066 -0.995151 0.00754514
        outer loop
            vertex 0.00242764 -0.0435122 0.0500513
            vertex -0.00589608 -0.042677 0.0520228
            vertex -0.00734651 -0.0428451 0.011
        endloop
    endfacet
    facet normal 0.419917 -0.541041 0.728659
        outer loop
            vertex 0.0202973 -0.0381058 0.0521379
            vertex 0.0256674 -0.0346478 0.0516108
            vertex 0.0305731 -0.0290812 0.052917
        endloop
    endfacet
    facet normal 0.52654 -0.604333 0.597944
        outer loop
            vertex 0.0305731 -0.0290812 0.052917
            vertex 0.0256674 -0.0346478 0.0516108
            vertex 0.0306722 -0.0302355 0.0516631
        endloop
    endfacet
    facet normal 0.541984 -0.840344 0.00871904
        outer loop
            vertex 0.0202973 -0.0381058 0.0521379
            vertex 0.0212002 -0.0379503 0.011
            vertex 0.0256674 -0.0346478 0.0516108
        endloop
    endfacet
    facet normal 0.590014 -0.266707 0.76207
        outer loop
            vertex 0.0384506 -0.0197575 0.0515874
            vertex 0.0406947 -0.0119443 0.0525844
            vertex 0.0363548 -0.0212108 0.0527014
        endloop
    endfacet
    facet normal 0.460902 -0.315866 0.829336
        outer loop
            vertex 0.0235015 -0.0230868 0.0591301
            vertex 0.0305731 -0.0290812 0.052917
            vertex 0.0363548 -0.0212108 0.0527014
        endloop
    endfacet
    facet normal 0.000113438 0.000289332 1
        outer loop
            vertex 0.00943742 0.0305577 0.0591014
            vertex 0.00979849 -0.0304205 0.059119
            vertex 0.0179872 0.0261627 0.0591017
        endloop
    endfacet
    facet normal -0.666199 -0.410197 -0.622829
        outer loop
            vertex -0.032632 -0.0287198 0.011
            vertex -0.0403358 -0.0162081 0.011
            vertex -0.028178 -0.0192515 5.96046e-011
        endloop
    endfacet
    facet normal 0.194583 -0.96938 0.149799
        outer loop
            vertex 0.00242764 -0.0435122 0.0500513
            vertex 0.01368 -0.0409972 0.05171
            vertex 0.00940486 -0.0417808 0.0521924
        endloop
    endfacet
    facet normal 0.0667349 -0.522394 0.850089
        outer loop
            vertex 0.00940486 -0.0417808 0.0521924
            vertex -1.14492e-015 -0.0317414 0.0591001
            vertex 0.0019038 -0.0427851 0.0521641
        endloop
    endfacet
    facet normal -0.388294 -0.373096 0.842631
        outer loop
            vertex -0.0346246 -0.0259201 0.0520385
            vertex -0.0262293 -0.0330412 0.0527541
            vertex -0.0213578 -0.0237603 0.0591083
        endloop
    endfacet
    facet normal -0.751013 -0.0609224 -0.657471
        outer loop
            vertex -0.0345127 0.00737795 -4.19719e-005
            vertex -0.0331869 -0.00937351 -4.17772e-006
            vertex -0.0434312 -0.00184465 0.011
        endloop
    endfacet
    facet normal -0.490999 0.214098 0.844442
        outer loop
            vertex -0.0346884 0.0240628 0.0529934
            vertex -0.041035 0.0123201 0.0522804
            vertex -0.0308186 0.00881887 0.0591084
        endloop
    endfacet
    facet normal -0.453279 0.230352 0.86109
        outer loop
            vertex -0.0234978 0.0230888 0.0591447
            vertex -0.0346884 0.0240628 0.0529934
            vertex -0.0308186 0.00881887 0.0591084
        endloop
    endfacet
    facet normal -0.671444 0.368574 -0.642897
        outer loop
            vertex -0.0345127 0.00737795 -4.19719e-005
            vertex -0.0362744 0.0234289 0.011
            vertex -0.0264559 0.022118 -6.02004e-006
        endloop
    endfacet
    facet normal -1.59063e-005 0.000288566 1
        outer loop
            vertex 0.00943742 0.0305577 0.0591014
            vertex -0.00027366 0.0317523 0.0591009
            vertex 0.00979849 -0.0304205 0.059119
        endloop
    endfacet
    facet normal -0.291988 0.956415 0.00359261
        outer loop
            vertex -0.0158631 0.0400779 0.0522213
            vertex -0.0093976 0.0420525 0.0520287
            vertex -0.0132513 0.0410301 0.0110012
        endloop
    endfacet
    facet normal 0.774713 0.632301 -0.00392106
        outer loop
            vertex 0.0344027 0.0261523 0.0517863
            vertex 0.035771 0.0242229 0.0110011
            vertex 0.0315481 0.0293969 0.0109999
        endloop
    endfacet
    facet normal -0.618673 0.49416 -0.610778
        outer loop
            vertex -0.0362744 0.0234289 0.011
            vertex -0.0321506 0.0286909 0.0110802
            vertex -0.0264559 0.022118 -6.02004e-006
        endloop
    endfacet
    facet normal 0.188662 0.982036 0.00334346
        outer loop
            vertex 0.00604092 0.0426321 0.0520851
            vertex 0.0106355 0.0417502 0.0518559
            vertex 0.00737587 0.0425155 0.0110046
        endloop
    endfacet
    facet normal 0.661282 -0.750127 0.00391049
        outer loop
            vertex 0.032632 -0.0287198 0.011
            vertex 0.0306722 -0.0302355 0.0516631
            vertex 0.0256674 -0.0346478 0.0516108
        endloop
    endfacet
    facet normal 0.999998 -0.00131185 -0.00127022
        outer loop
            vertex 0.0430506 -0.0021699 0.0520543
            vertex 0.0429961 -0.0038618 0.0108978
            vertex 0.0430055 0.0032026 0.0110013
        endloop
    endfacet
    facet normal 0.892965 0.450096 -0.00509508
        outer loop
            vertex 0.037917 0.0204297 0.0520204
            vertex 0.0415576 0.0127426 0.010999
            vertex 0.035771 0.0242229 0.0110011
        endloop
    endfacet
    facet normal 0.216564 0.769862 -0.600344
        outer loop
            vertex 0.00915246 0.033432 -2.92502e-006
            vertex 0.00737587 0.0425155 0.0110046
            vertex 0.0144791 0.0406627 0.011191
        endloop
    endfacet
    facet normal -0.897949 0.440077 -0.00448603
        outer loop
            vertex -0.0366147 0.0231509 0.0518451
            vertex -0.0362744 0.0234289 0.011
            vertex -0.0415814 0.0126003 0.011
        endloop
    endfacet
    facet normal 0.967525 -0.00298757 -0.252758
        outer loop
            vertex 0.0430524 0.0058593 0.0519663
            vertex 0.0430506 -0.0021699 0.0520543
            vertex 0.0429504 0.00372275 0.0516011
        endloop
    endfacet
    facet normal 0.487874 -0.21782 0.845301
        outer loop
            vertex 0.0406947 -0.0119443 0.0525844
            vertex 0.0304702 -0.00953932 0.0591053
            vertex 0.0363548 -0.0212108 0.0527014
        endloop
    endfacet
endsolid D:/Users/Paul Maroldt/Documents/!StartUp_Repositories/module_type_database/0804_E-ISO50-V1/0804_E-ISO50-V1_convdec.stl_created_by_BoundingMesh