solid D:/Users/Paul Maroldt/Documents/!StartUp_Repositories/module_type_database/0808_E-simple-vacuum-180deg/0808_E-simple-vacuum-180deg_convdec.stl_created_by_BoundingMesh
    facet normal 0.879658 0.472963 0.0500674
        outer loop
            vertex 0.0373323 0.0224416 0.011
            vertex 0.0359449 0.0238605 0.0219722
            vertex 0.039726 0.0168261 0.0219909
        endloop
    endfacet
    facet normal 0.00171884 -0.00268616 0.999995
        outer loop
            vertex 0.0101139 -0.00349038 0.0990003
            vertex 0.00136672 0.0101229 0.0990519
            vertex -0.00163236 -0.0111176 0.099
        endloop
    endfacet
    facet normal 0.892961 0.22378 0.390568
        outer loop
            vertex 0.00949542 0.00990907 0.0962352
            vertex 0.00997565 0.00316731 0.099
            vertex 0.0420889 0.00942502 0.0219937
        endloop
    endfacet
    facet normal 0.444208 -0.742149 0.50189
        outer loop
            vertex 0.0011469 -0.0290174 0.086119
            vertex 0.00313656 -0.0276406 0.0863939
            vertex 0.00108702 -0.0280145 0.087655
        endloop
    endfacet
    facet normal 0.747553 0.663702 -0.0257602
        outer loop
            vertex 0.0267044 0.0344122 0.011
            vertex 0.0309424 0.0300646 0.021971
            vertex 0.0373323 0.0224416 0.011
        endloop
    endfacet
    facet normal -0.418023 -0.906972 0.0515639
        outer loop
            vertex -0.0106727 -0.0423965 0.0215829
            vertex -0.0215086 -0.0373994 0.0216328
            vertex -0.0199267 -0.038733 0.011
        endloop
    endfacet
    facet normal 0.000239805 -0.000211958 -1
        outer loop
            vertex -0.0336155 0.0114034 -2.63685e-005
            vertex -0.0244042 -0.0246825 -1.65109e-005
            vertex -0.0339644 -0.00989835 -2.19371e-005
        endloop
    endfacet
    facet normal 0.604744 0.707058 0.366543
        outer loop
            vertex 0.00949542 0.00990907 0.0962352
            vertex 0.0309424 0.0300646 0.021971
            vertex 0.024886 0.0352413 0.0219774
        endloop
    endfacet
    facet normal -0.775017 0.0101911 -0.631858
        outer loop
            vertex -0.0339644 -0.00989835 -2.19371e-005
            vertex -0.042865 -0.00340428 0.011
            vertex -0.0427076 0.00856587 0.011
        endloop
    endfacet
    facet normal -0.675501 -0.406062 -0.615477
        outer loop
            vertex -0.0339644 -0.00989835 -2.19371e-005
            vertex -0.032573 -0.0289192 0.011
            vertex -0.0408201 -0.0151998 0.011
        endloop
    endfacet
    facet normal -0.85679 -0.515039 -0.0254168
        outer loop
            vertex -0.032573 -0.0289192 0.011
            vertex -0.0380471 -0.020349 0.0218654
            vertex -0.0408201 -0.0151998 0.011
        endloop
    endfacet
    facet normal -0.00109209 -0.00126094 -0.999999
        outer loop
            vertex 0.00969443 0.0333967 -4.3503e-006
            vertex 0.0229231 0.0258493 -9.28041e-006
            vertex 0.0313886 0.0144401 -4.13919e-006
        endloop
    endfacet
    facet normal -0.629519 0.776985 -0.000172804
        outer loop
            vertex -0.0239486 0.0358849 0.0219784
            vertex -0.0285486 0.0321555 0.011
            vertex -0.0301412 0.0308676 0.0219719
        endloop
    endfacet
    facet normal -0.761551 0.647875 0.0172328
        outer loop
            vertex -0.0367293 0.0234154 0.011
            vertex -0.0353038 0.0247992 0.0219709
            vertex -0.0301412 0.0308676 0.0219719
        endloop
    endfacet
    facet normal 9.96113e-005 -0.000922417 -1
        outer loop
            vertex -0.0244042 -0.0246825 -1.65109e-005
            vertex 0.0116312 -0.032536 -5.67716e-006
            vertex -0.0116305 -0.0325342 -7.99595e-006
        endloop
    endfacet
    facet normal 0.22258 0.895303 0.385864
        outer loop
            vertex 0.00949542 0.00990907 0.0962352
            vertex 0.0162079 0.0402361 0.0219968
            vertex 0.00658393 0.0426365 0.0219787
        endloop
    endfacet
    facet normal -0.716956 -0.695189 0.0518299
        outer loop
            vertex -0.032573 -0.0289192 0.011
            vertex -0.0280746 -0.0327626 0.0216746
            vertex -0.0336498 -0.0270059 0.0217677
        endloop
    endfacet
    facet normal -0.0583342 -0.977993 0.200318
        outer loop
            vertex -0.0106727 -0.0423965 0.0215829
            vertex 0.00147119 -0.0431172 0.0216007
            vertex -0.00567606 -0.030967 0.0788392
        endloop
    endfacet
    facet normal -0.918489 0.0546267 0.391655
        outer loop
            vertex -0.00997621 0.00371237 0.099
            vertex -0.0426513 0.00652121 0.0219804
            vertex -0.043127 -0.00145998 0.021978
        endloop
    endfacet
    facet normal 0.729828 -0.683116 -0.0265176
        outer loop
            vertex 0.0367293 -0.0234154 0.011
            vertex 0.0302029 -0.0308098 0.0218639
            vertex 0.0285486 -0.0321555 0.011
        endloop
    endfacet
    facet normal 0.11112 0.993514 -0.0241434
        outer loop
            vertex 0.0125288 0.0417048 0.011
            vertex -0.000545953 0.0431668 0.0109857
            vertex 0.00658393 0.0426365 0.0219787
        endloop
    endfacet
    facet normal -0.664693 -0.3719 0.647976
        outer loop
            vertex -0.0100563 -0.0029615 0.0990082
            vertex -0.01 -0.00953334 0.0952941
            vertex -0.00824884 -0.00614213 0.0990368
        endloop
    endfacet
    facet normal 0.297368 -0.927546 0.226344
        outer loop
            vertex 0.0011469 -0.0290174 0.086119
            vertex 0.00938558 -0.0421098 0.0216431
            vertex 0.0169995 -0.0396537 0.021705
        endloop
    endfacet
    facet normal 0.0598714 0.918261 0.391424
        outer loop
            vertex 0.00136672 0.0101229 0.0990519
            vertex 0.00658393 0.0426365 0.0219787
            vertex -0.00127769 0.0431354 0.0220108
        endloop
    endfacet
    facet normal 0.000490845 3.4543e-005 -1
        outer loop
            vertex -0.0336155 0.0114034 -2.63685e-005
            vertex 0.00969443 0.0333967 -4.3503e-006
            vertex 0.0116312 -0.032536 -5.67716e-006
        endloop
    endfacet
    facet normal -0.262447 0.964631 -0.0246822
        outer loop
            vertex -0.0189156 0.0392329 0.0109917
            vertex -0.00936852 0.0421121 0.0220022
            vertex -0.00653669 0.0426015 0.0110179
        endloop
    endfacet
    facet normal -0.919944 -0.388779 0.0505366
        outer loop
            vertex -0.0418731 -0.0112801 0.021986
            vertex -0.0408201 -0.0151998 0.011
            vertex -0.0380471 -0.020349 0.0218654
        endloop
    endfacet
    facet normal -0.708238 0.602462 0.368021
        outer loop
            vertex -0.0353038 0.0247992 0.0219709
            vertex -0.00990175 0.01 0.0950826
            vertex -0.0301412 0.0308676 0.0219719
        endloop
    endfacet
    facet normal -0.393928 -0.641584 -0.658172
        outer loop
            vertex -0.0244042 -0.0246825 -1.65109e-005
            vertex -0.0116305 -0.0325342 -7.99595e-006
            vertex -0.0199267 -0.038733 0.011
        endloop
    endfacet
    facet normal 0.522046 -0.808604 0.271346
        outer loop
            vertex 0.0011469 -0.0290174 0.086119
            vertex 0.0240201 -0.0358402 0.0217812
            vertex 0.00313656 -0.0276406 0.0863939
        endloop
    endfacet
    facet normal -0.834207 -0.55126 0.0145297
        outer loop
            vertex -0.032573 -0.0289192 0.011
            vertex -0.0336498 -0.0270059 0.0217677
            vertex -0.0380471 -0.020349 0.0218654
        endloop
    endfacet
    facet normal -0.991946 -0.126659 -0.00124118
        outer loop
            vertex -0.0418731 -0.0112801 0.021986
            vertex -0.043127 -0.00145998 0.021978
            vertex -0.042865 -0.00340428 0.011
        endloop
    endfacet
    facet normal -0.773053 0.0125298 -0.634218
        outer loop
            vertex -0.0336155 0.0114034 -2.63685e-005
            vertex -0.0339644 -0.00989835 -2.19371e-005
            vertex -0.0427076 0.00856587 0.011
        endloop
    endfacet
    facet normal 0.879446 0.280921 0.384263
        outer loop
            vertex 0.00949542 0.00990907 0.0962352
            vertex 0.0420889 0.00942502 0.0219937
            vertex 0.039726 0.0168261 0.0219909
        endloop
    endfacet
    facet normal -0.72457 -0.545407 0.421342
        outer loop
            vertex -0.0160247 -0.029153 0.0663322
            vertex -0.00835691 -0.0287549 0.0800336
            vertex -0.0173645 -0.0266853 0.0672225
        endloop
    endfacet
    facet normal 0.790133 -0.48638 0.372993
        outer loop
            vertex 0.00313656 -0.0276406 0.0863939
            vertex 0.0353488 -0.0247377 0.0219421
            vertex 0.01 -0.01 0.0948579
        endloop
    endfacet
    facet normal 0.741665 -0.298591 -0.600647
        outer loop
            vertex 0.0367293 -0.0234154 0.011
            vertex 0.031848 -0.0134031 -4.5906e-006
            vertex 0.0412002 -0.0123102 0.011
        endloop
    endfacet
    facet normal 0.550975 -0.454868 0.699658
        outer loop
            vertex 0.0101139 -0.00349038 0.0990003
            vertex 0.00614954 -0.00821082 0.0990533
            vertex 0.01 -0.01 0.0948579
        endloop
    endfacet
    facet normal -0.0939629 0.99557 -0.00340085
        outer loop
            vertex -0.00127769 0.0431354 0.0220108
            vertex -0.000545953 0.0431668 0.0109857
            vertex -0.00653669 0.0426015 0.0110179
        endloop
    endfacet
    facet normal -0.224234 0.892803 0.390668
        outer loop
            vertex -0.00313387 0.00998565 0.099
            vertex -0.00936852 0.0421121 0.0220022
            vertex -0.00990175 0.01 0.0950826
        endloop
    endfacet
    facet normal -0.918753 0.0115106 0.394665
        outer loop
            vertex -0.00997621 0.00371237 0.099
            vertex -0.043127 -0.00145998 0.021978
            vertex -0.0100563 -0.0029615 0.0990082
        endloop
    endfacet
    facet normal 0.0475147 0.7681 -0.638564
        outer loop
            vertex -0.0077863 0.0344494 -3.88208e-005
            vertex -0.000545953 0.0431668 0.0109857
            vertex 0.00969443 0.0333967 -4.3503e-006
        endloop
    endfacet
    facet normal -0.283225 0.878787 0.384079
        outer loop
            vertex -0.00936852 0.0421121 0.0220022
            vertex -0.0169498 0.0396713 0.0219963
            vertex -0.00990175 0.01 0.0950826
        endloop
    endfacet
    facet normal -0.968804 0.2427 0.0501605
        outer loop
            vertex -0.0402276 0.0161906 0.0220069
            vertex -0.0427076 0.00856587 0.011
            vertex -0.0426513 0.00652121 0.0219804
        endloop
    endfacet
    facet normal -0.926502 0.373002 -0.049634
        outer loop
            vertex -0.0402276 0.0161906 0.0220069
            vertex -0.0367293 0.0234154 0.011
            vertex -0.0427076 0.00856587 0.011
        endloop
    endfacet
    facet normal -0.64558 -0.4177 -0.639339
        outer loop
            vertex -0.0339644 -0.00989835 -2.19371e-005
            vertex -0.0244042 -0.0246825 -1.65109e-005
            vertex -0.032573 -0.0289192 0.011
        endloop
    endfacet
    facet normal -0.89442 0.22313 0.38759
        outer loop
            vertex -0.0402276 0.0161906 0.0220069
            vertex -0.0426513 0.00652121 0.0219804
            vertex -0.00997621 0.00371237 0.099
        endloop
    endfacet
    facet normal -0.488478 -0.629465 -0.604287
        outer loop
            vertex -0.0244042 -0.0246825 -1.65109e-005
            vertex -0.0199267 -0.038733 0.011
            vertex -0.032573 -0.0289192 0.011
        endloop
    endfacet
    facet normal -0.612867 -0.789755 -0.0260827
        outer loop
            vertex -0.032573 -0.0289192 0.011
            vertex -0.0199267 -0.038733 0.011
            vertex -0.0280746 -0.0327626 0.0216746
        endloop
    endfacet
    facet normal -0.306428 0.951745 0.0168228
        outer loop
            vertex -0.0189156 0.0392329 0.0109917
            vertex -0.0169498 0.0396713 0.0219963
            vertex -0.00936852 0.0421121 0.0220022
        endloop
    endfacet
    facet normal 0.740037 0.169444 -0.650872
        outer loop
            vertex 0.0345407 0.000599414 -2.34187e-005
            vertex 0.0313886 0.0144401 -4.13919e-006
            vertex 0.0422726 0.00917341 0.0109998
        endloop
    endfacet
    facet normal 0.0609049 -0.834677 0.547361
        outer loop
            vertex -0.00141844 -0.0284191 0.0873168
            vertex 0.0011469 -0.0290174 0.086119
            vertex 0.00108702 -0.0280145 0.087655
        endloop
    endfacet
    facet normal -0.562281 -0.798174 0.216235
        outer loop
            vertex -0.0160247 -0.029153 0.0663322
            vertex -0.0280746 -0.0327626 0.0216746
            vertex -0.0215086 -0.0373994 0.0216328
        endloop
    endfacet
    facet normal -0.984751 -0.170719 -0.0334769
        outer loop
            vertex -0.0418731 -0.0112801 0.021986
            vertex -0.042865 -0.00340428 0.011
            vertex -0.0408201 -0.0151998 0.011
        endloop
    endfacet
    facet normal 0.746148 0.277831 -0.60504
        outer loop
            vertex 0.0373323 0.0224416 0.011
            vertex 0.0422726 0.00917341 0.0109998
            vertex 0.0313886 0.0144401 -4.13919e-006
        endloop
    endfacet
    facet normal 0.616401 -0.426801 -0.661733
        outer loop
            vertex 0.0367293 -0.0234154 0.011
            vertex 0.0237499 -0.0250936 -7.84994e-006
            vertex 0.031848 -0.0134031 -4.5906e-006
        endloop
    endfacet
    facet normal 0.980155 -0.196596 -0.0254253
        outer loop
            vertex 0.0433687 -0.00149886 0.011
            vertex 0.0426274 -0.00661645 0.0219934
            vertex 0.0412002 -0.0123102 0.011
        endloop
    endfacet
    facet normal 0.591886 -0.805579 -0.0267093
        outer loop
            vertex 0.0189013 -0.0392437 0.011
            vertex 0.0285486 -0.0321555 0.011
            vertex 0.0240201 -0.0358402 0.0217812
        endloop
    endfacet
    facet normal -0.408279 -0.887464 0.213814
        outer loop
            vertex -0.0106727 -0.0423965 0.0215829
            vertex -0.0160247 -0.029153 0.0663322
            vertex -0.0215086 -0.0373994 0.0216328
        endloop
    endfacet
    facet normal 0.758297 -0.146676 -0.635194
        outer loop
            vertex 0.0433687 -0.00149886 0.011
            vertex 0.031848 -0.0134031 -4.5906e-006
            vertex 0.0345407 0.000599414 -2.34187e-005
        endloop
    endfacet
    facet normal 0.778345 0.6276 0.0172594
        outer loop
            vertex 0.0373323 0.0224416 0.011
            vertex 0.0309424 0.0300646 0.021971
            vertex 0.0359449 0.0238605 0.0219722
        endloop
    endfacet
    facet normal 0.969993 -0.243134 -2.95492e-006
        outer loop
            vertex 0.0402322 -0.0161722 0.0220105
            vertex 0.0412002 -0.0123102 0.011
            vertex 0.0426274 -0.00661645 0.0219934
        endloop
    endfacet
    facet normal 0.00607983 0.000116031 0.999982
        outer loop
            vertex 0.0101139 -0.00349038 0.0990003
            vertex 0.00615571 0.00826166 0.099023
            vertex 0.00136672 0.0101229 0.0990519
        endloop
    endfacet
    facet normal -0.442104 0.81542 0.373675
        outer loop
            vertex -0.0169498 0.0396713 0.0219963
            vertex -0.0239486 0.0358849 0.0219784
            vertex -0.00990175 0.01 0.0950826
        endloop
    endfacet
    facet normal -0.998098 0.0594845 0.0161942
        outer loop
            vertex -0.0427076 0.00856587 0.011
            vertex -0.043127 -0.00145998 0.021978
            vertex -0.0426513 0.00652121 0.0219804
        endloop
    endfacet
    facet normal -0.386373 -0.519444 0.762164
        outer loop
            vertex -0.00141844 -0.0284191 0.0873168
            vertex -0.00163236 -0.0111176 0.099
            vertex -0.00824884 -0.00614213 0.0990368
        endloop
    endfacet
    facet normal 0.804719 -0.46177 0.373089
        outer loop
            vertex 0.0402322 -0.0161722 0.0220105
            vertex 0.01 -0.01 0.0948579
            vertex 0.0353488 -0.0247377 0.0219421
        endloop
    endfacet
    facet normal 0.762653 -0.646555 0.0180862
        outer loop
            vertex 0.0367293 -0.0234154 0.011
            vertex 0.0353488 -0.0247377 0.0219421
            vertex 0.0302029 -0.0308098 0.0218639
        endloop
    endfacet
    facet normal 0.723948 0.583806 0.367518
        outer loop
            vertex 0.00949542 0.00990907 0.0962352
            vertex 0.0359449 0.0238605 0.0219722
            vertex 0.0309424 0.0300646 0.021971
        endloop
    endfacet
    facet normal 0.918687 -0.0604298 0.390337
        outer loop
            vertex 0.0101139 -0.00349038 0.0990003
            vertex 0.0426274 -0.00661645 0.0219934
            vertex 0.0431699 0.00174073 0.0220104
        endloop
    endfacet
    facet normal 0.00181675 -0.00257647 -0.999995
        outer loop
            vertex -0.0077863 0.0344494 -3.88208e-005
            vertex 0.00969443 0.0333967 -4.3503e-006
            vertex -0.0336155 0.0114034 -2.63685e-005
        endloop
    endfacet
    facet normal 0.591578 0.525223 -0.611699
        outer loop
            vertex 0.0267044 0.0344122 0.011
            vertex 0.0373323 0.0224416 0.011
            vertex 0.0229231 0.0258493 -9.28041e-006
        endloop
    endfacet
    facet normal -0.771084 0.310432 -0.555932
        outer loop
            vertex -0.0336155 0.0114034 -2.63685e-005
            vertex -0.0427076 0.00856587 0.011
            vertex -0.0367293 0.0234154 0.011
        endloop
    endfacet
    facet normal -0.47534 0.878385 0.0499188
        outer loop
            vertex -0.0189156 0.0392329 0.0109917
            vertex -0.0239486 0.0358849 0.0219784
            vertex -0.0169498 0.0396713 0.0219963
        endloop
    endfacet
    facet normal 0.457193 0.888707 -0.0342658
        outer loop
            vertex 0.0162079 0.0402361 0.0219968
            vertex 0.0267044 0.0344122 0.011
            vertex 0.0125288 0.0417048 0.011
        endloop
    endfacet
    facet normal 0.513375 -0.525326 0.678585
        outer loop
            vertex 0.00108702 -0.0280145 0.087655
            vertex 0.00313656 -0.0276406 0.0863939
            vertex 0.01 -0.01 0.0948579
        endloop
    endfacet
    facet normal -0.610699 0.423932 0.668826
        outer loop
            vertex -0.00997621 0.00371237 0.099
            vertex -0.00822594 0.00619966 0.0990216
            vertex -0.00990175 0.01 0.0950826
        endloop
    endfacet
    facet normal -0.00431476 0.00429553 -0.999981
        outer loop
            vertex -0.0077863 0.0344494 -3.88208e-005
            vertex -0.0336155 0.0114034 -2.63685e-005
            vertex -0.0229225 0.0258485 -1.04566e-005
        endloop
    endfacet
    facet normal 0.359105 0.69804 -0.619503
        outer loop
            vertex 0.0125288 0.0417048 0.011
            vertex 0.0267044 0.0344122 0.011
            vertex 0.00969443 0.0333967 -4.3503e-006
        endloop
    endfacet
    facet normal -0.591901 0.805602 -0.0256566
        outer loop
            vertex -0.0189156 0.0392329 0.0109917
            vertex -0.0285486 0.0321555 0.011
            vertex -0.0239486 0.0358849 0.0219784
        endloop
    endfacet
    facet normal 0.918246 0.0190854 0.39555
        outer loop
            vertex 0.0101139 -0.00349038 0.0990003
            vertex 0.0431699 0.00174073 0.0220104
            vertex 0.00997565 0.00316731 0.099
        endloop
    endfacet
    facet normal -0.215801 0.797406 -0.563537
        outer loop
            vertex -0.0077863 0.0344494 -3.88208e-005
            vertex -0.0189156 0.0392329 0.0109917
            vertex -0.00653669 0.0426015 0.0110179
        endloop
    endfacet
    facet normal -0.372471 0.653316 -0.659124
        outer loop
            vertex -0.0077863 0.0344494 -3.88208e-005
            vertex -0.0229225 0.0258485 -1.04566e-005
            vertex -0.0189156 0.0392329 0.0109917
        endloop
    endfacet
    facet normal -0.890569 -0.229551 0.392674
        outer loop
            vertex -0.0418731 -0.0112801 0.021986
            vertex -0.01 -0.00953334 0.0952941
            vertex -0.0100563 -0.0029615 0.0990082
        endloop
    endfacet
    facet normal -0.885836 0.252873 0.389037
        outer loop
            vertex -0.0402276 0.0161906 0.0220069
            vertex -0.00997621 0.00371237 0.099
            vertex -0.00990175 0.01 0.0950826
        endloop
    endfacet
    facet normal -0.0143302 0.00140098 0.999896
        outer loop
            vertex -0.00997621 0.00371237 0.099
            vertex -0.0100563 -0.0029615 0.0990082
            vertex -0.00822594 0.00619966 0.0990216
        endloop
    endfacet
    facet normal -0.804701 0.461819 0.373068
        outer loop
            vertex -0.0402276 0.0161906 0.0220069
            vertex -0.00990175 0.01 0.0950826
            vertex -0.0353038 0.0247992 0.0219709
        endloop
    endfacet
    facet normal -0.796779 -0.530567 0.289208
        outer loop
            vertex -0.0380471 -0.020349 0.0218654
            vertex -0.0336498 -0.0270059 0.0217677
            vertex -0.0173645 -0.0266853 0.0672225
        endloop
    endfacet
    facet normal 0.395704 -0.644529 -0.654218
        outer loop
            vertex 0.0189013 -0.0392437 0.011
            vertex 0.0116312 -0.032536 -5.67716e-006
            vertex 0.0237499 -0.0250936 -7.84994e-006
        endloop
    endfacet
    facet normal 0.601852 -0.74448 0.289003
        outer loop
            vertex 0.00313656 -0.0276406 0.0863939
            vertex 0.0240201 -0.0358402 0.0217812
            vertex 0.0302029 -0.0308098 0.0218639
        endloop
    endfacet
    facet normal -0.0325543 0.918275 0.394603
        outer loop
            vertex 0.00136672 0.0101229 0.0990519
            vertex -0.00127769 0.0431354 0.0220108
            vertex -0.00313387 0.00998565 0.099
        endloop
    endfacet
    facet normal -0.0792618 0.806606 -0.585751
        outer loop
            vertex -0.0077863 0.0344494 -3.88208e-005
            vertex -0.00653669 0.0426015 0.0110179
            vertex -0.000545953 0.0431668 0.0109857
        endloop
    endfacet
    facet normal -0.809079 -0.140264 -0.570717
        outer loop
            vertex -0.0339644 -0.00989835 -2.19371e-005
            vertex -0.0408201 -0.0151998 0.011
            vertex -0.042865 -0.00340428 0.011
        endloop
    endfacet
    facet normal 2.42475e-005 1.66126e-005 -1
        outer loop
            vertex 0.00969443 0.0333967 -4.3503e-006
            vertex 0.0313886 0.0144401 -4.13919e-006
            vertex 0.031848 -0.0134031 -4.5906e-006
        endloop
    endfacet
    facet normal 0.5822 -0.544937 -0.603396
        outer loop
            vertex 0.0367293 -0.0234154 0.011
            vertex 0.0285486 -0.0321555 0.011
            vertex 0.0237499 -0.0250936 -7.84994e-006
        endloop
    endfacet
    facet normal 0.260895 -0.965 -0.0266065
        outer loop
            vertex 0.00344846 -0.0434215 0.011
            vertex 0.0189013 -0.0392437 0.011
            vertex 0.00938558 -0.0421098 0.0216431
        endloop
    endfacet
    facet normal 0.00025531 -0.000208 -1
        outer loop
            vertex -0.0336155 0.0114034 -2.63685e-005
            vertex 0.0116312 -0.032536 -5.67716e-006
            vertex -0.0244042 -0.0246825 -1.65109e-005
        endloop
    endfacet
    facet normal 9.943e-005 -0.0032605 -0.999995
        outer loop
            vertex -0.0116305 -0.0325342 -7.99595e-006
            vertex 0.0116312 -0.032536 -5.67716e-006
            vertex -3.01485e-008 -0.0341316 -1.63118e-006
        endloop
    endfacet
    facet normal 0.936833 0.348823 -0.0258109
        outer loop
            vertex 0.0373323 0.0224416 0.011
            vertex 0.039726 0.0168261 0.0219909
            vertex 0.0422726 0.00917341 0.0109998
        endloop
    endfacet
    facet normal 3.37613e-005 2.11162e-005 -1
        outer loop
            vertex 0.00969443 0.0333967 -4.3503e-006
            vertex 0.031848 -0.0134031 -4.5906e-006
            vertex 0.0116312 -0.032536 -5.67716e-006
        endloop
    endfacet
    facet normal 0.476268 -0.877821 0.0509912
        outer loop
            vertex 0.0189013 -0.0392437 0.011
            vertex 0.0240201 -0.0358402 0.0217812
            vertex 0.0169995 -0.0396537 0.021705
        endloop
    endfacet
    facet normal 0.816655 0.439958 0.373512
        outer loop
            vertex 0.00949542 0.00990907 0.0962352
            vertex 0.039726 0.0168261 0.0219909
            vertex 0.0359449 0.0238605 0.0219722
        endloop
    endfacet
    facet normal 0.241633 0.96915 0.0485959
        outer loop
            vertex 0.0162079 0.0402361 0.0219968
            vertex 0.0125288 0.0417048 0.011
            vertex 0.00658393 0.0426365 0.0219787
        endloop
    endfacet
    facet normal 0.994694 0.10216 -0.0120987
        outer loop
            vertex 0.0433687 -0.00149886 0.011
            vertex 0.0422726 0.00917341 0.0109998
            vertex 0.0431699 0.00174073 0.0220104
        endloop
    endfacet
    facet normal 0.911471 0.129072 0.390591
        outer loop
            vertex 0.0431699 0.00174073 0.0220104
            vertex 0.0420889 0.00942502 0.0219937
            vertex 0.00997565 0.00316731 0.099
        endloop
    endfacet
    facet normal 0.86749 -0.494973 0.0496308
        outer loop
            vertex 0.0402322 -0.0161722 0.0220105
            vertex 0.0353488 -0.0247377 0.0219421
            vertex 0.0367293 -0.0234154 0.011
        endloop
    endfacet
    facet normal 0.463932 0.804609 0.370637
        outer loop
            vertex 0.00949542 0.00990907 0.0962352
            vertex 0.024886 0.0352413 0.0219774
            vertex 0.0162079 0.0402361 0.0219968
        endloop
    endfacet
    facet normal 0.997209 -0.0648084 0.0370738
        outer loop
            vertex 0.0433687 -0.00149886 0.011
            vertex 0.0431699 0.00174073 0.0220104
            vertex 0.0426274 -0.00661645 0.0219934
        endloop
    endfacet
    facet normal -0.0122027 0.0221156 0.999681
        outer loop
            vertex 0.00136672 0.0101229 0.0990519
            vertex -0.00313387 0.00998565 0.099
            vertex -0.00822594 0.00619966 0.0990216
        endloop
    endfacet
    facet normal -0.866864 0.496023 0.0500702
        outer loop
            vertex -0.0402276 0.0161906 0.0220069
            vertex -0.0353038 0.0247992 0.0219709
            vertex -0.0367293 0.0234154 0.011
        endloop
    endfacet
    facet normal -0.470779 0.640062 -0.607197
        outer loop
            vertex -0.0189156 0.0392329 0.0109917
            vertex -0.0229225 0.0258485 -1.04566e-005
            vertex -0.0285486 0.0321555 0.011
        endloop
    endfacet
    facet normal -0.491094 -0.518746 0.699806
        outer loop
            vertex -0.00141844 -0.0284191 0.0873168
            vertex -0.00824884 -0.00614213 0.0990368
            vertex -0.01 -0.00953334 0.0952941
        endloop
    endfacet
    facet normal 0.0510136 -0.975617 0.213467
        outer loop
            vertex -0.00567606 -0.030967 0.0788392
            vertex 0.00147119 -0.0431172 0.0216007
            vertex 0.0011469 -0.0290174 0.086119
        endloop
    endfacet
    facet normal -0.794066 -0.535127 0.288268
        outer loop
            vertex -0.0160247 -0.029153 0.0663322
            vertex -0.0173645 -0.0266853 0.0672225
            vertex -0.0336498 -0.0270059 0.0217677
        endloop
    endfacet
    facet normal -0.115926 0.913297 0.390449
        outer loop
            vertex -0.00127769 0.0431354 0.0220108
            vertex -0.00936852 0.0421121 0.0220022
            vertex -0.00313387 0.00998565 0.099
        endloop
    endfacet
    facet normal -0.585521 0.722202 0.368226
        outer loop
            vertex -0.0239486 0.0358849 0.0219784
            vertex -0.0301412 0.0308676 0.0219719
            vertex -0.00990175 0.01 0.0950826
        endloop
    endfacet
    facet normal 0.648954 0.759172 0.0501604
        outer loop
            vertex 0.0267044 0.0344122 0.011
            vertex 0.024886 0.0352413 0.0219774
            vertex 0.0309424 0.0300646 0.021971
        endloop
    endfacet
    facet normal -0.12548 0.992025 0.0118493
        outer loop
            vertex -0.00127769 0.0431354 0.0220108
            vertex -0.00653669 0.0426015 0.0110179
            vertex -0.00936852 0.0421121 0.0220022
        endloop
    endfacet
    facet normal 0.0883263 0.783896 -0.614578
        outer loop
            vertex 0.0125288 0.0417048 0.011
            vertex 0.00969443 0.0333967 -4.3503e-006
            vertex -0.000545953 0.0431668 0.0109857
        endloop
    endfacet
    facet normal -0.413888 0.560762 0.717107
        outer loop
            vertex -0.00313387 0.00998565 0.099
            vertex -0.00990175 0.01 0.0950826
            vertex -0.00822594 0.00619966 0.0990216
        endloop
    endfacet
    facet normal -0.913478 -0.116321 0.389908
        outer loop
            vertex -0.0418731 -0.0112801 0.021986
            vertex -0.0100563 -0.0029615 0.0990082
            vertex -0.043127 -0.00145998 0.021978
        endloop
    endfacet
    facet normal -0.604329 0.448081 -0.658794
        outer loop
            vertex -0.0336155 0.0114034 -2.63685e-005
            vertex -0.0367293 0.0234154 0.011
            vertex -0.0229225 0.0258485 -1.04566e-005
        endloop
    endfacet
    facet normal 0.0633602 0.997966 0.00704752
        outer loop
            vertex -0.00127769 0.0431354 0.0220108
            vertex 0.00658393 0.0426365 0.0219787
            vertex -0.000545953 0.0431668 0.0109857
        endloop
    endfacet
    facet normal -0.883397 -0.259425 0.390267
        outer loop
            vertex -0.0418731 -0.0112801 0.021986
            vertex -0.0173645 -0.0266853 0.0672225
            vertex -0.01 -0.00953334 0.0952941
        endloop
    endfacet
    facet normal -0.517691 -0.796315 0.312856
        outer loop
            vertex -0.00567606 -0.030967 0.0788392
            vertex -0.00835691 -0.0287549 0.0800336
            vertex -0.0160247 -0.029153 0.0663322
        endloop
    endfacet
    facet normal -0.105249 -0.993462 -0.0442163
        outer loop
            vertex -0.0106727 -0.0423965 0.0215829
            vertex -0.00845625 -0.0421603 0.011
            vertex 0.00344846 -0.0434215 0.011
        endloop
    endfacet
    facet normal -0.576697 -0.816789 0.016646
        outer loop
            vertex -0.0199267 -0.038733 0.011
            vertex -0.0215086 -0.0373994 0.0216328
            vertex -0.0280746 -0.0327626 0.0216746
        endloop
    endfacet
    facet normal -0.1045 -0.763392 -0.637426
        outer loop
            vertex -0.0116305 -0.0325342 -7.99595e-006
            vertex -3.01485e-008 -0.0341316 -1.63118e-006
            vertex -0.00845625 -0.0421603 0.011
        endloop
    endfacet
    facet normal 0.306819 -0.951596 0.0180622
        outer loop
            vertex 0.0189013 -0.0392437 0.011
            vertex 0.0169995 -0.0396537 0.021705
            vertex 0.00938558 -0.0421098 0.0216431
        endloop
    endfacet
    facet normal -0.285345 -0.95499 -0.0810763
        outer loop
            vertex -0.0106727 -0.0423965 0.0215829
            vertex -0.0199267 -0.038733 0.011
            vertex -0.00845625 -0.0421603 0.011
        endloop
    endfacet
    facet normal 0.498794 0.866551 0.0171764
        outer loop
            vertex 0.0162079 0.0402361 0.0219968
            vertex 0.024886 0.0352413 0.0219774
            vertex 0.0267044 0.0344122 0.011
        endloop
    endfacet
    facet normal 0.486213 0.360988 0.795792
        outer loop
            vertex 0.00949542 0.00990907 0.0962352
            vertex 0.00615571 0.00826166 0.099023
            vertex 0.00997565 0.00316731 0.099
        endloop
    endfacet
    facet normal -0.00651724 -9.13191e-005 -0.999979
        outer loop
            vertex 0.0345407 0.000599414 -2.34187e-005
            vertex 0.031848 -0.0134031 -4.5906e-006
            vertex 0.0313886 0.0144401 -4.13919e-006
        endloop
    endfacet
    facet normal -0.000610019 0.000701367 -1
        outer loop
            vertex 0.0237499 -0.0250936 -7.84994e-006
            vertex 0.0116312 -0.032536 -5.67716e-006
            vertex 0.031848 -0.0134031 -4.5906e-006
        endloop
    endfacet
    facet normal 0.926513 -0.373009 -0.0493802
        outer loop
            vertex 0.0402322 -0.0161722 0.0220105
            vertex 0.0367293 -0.0234154 0.011
            vertex 0.0412002 -0.0123102 0.011
        endloop
    endfacet
    facet normal 0.190745 -0.525853 0.828912
        outer loop
            vertex -0.00163236 -0.0111176 0.099
            vertex 0.00108702 -0.0280145 0.087655
            vertex 0.00614954 -0.00821082 0.0990533
        endloop
    endfacet
    facet normal 0.261148 0.661013 0.703465
        outer loop
            vertex 0.00949542 0.00990907 0.0962352
            vertex 0.00136672 0.0101229 0.0990519
            vertex 0.00615571 0.00826166 0.099023
        endloop
    endfacet
    facet normal 0.00336668 -0.00291882 0.99999
        outer loop
            vertex -0.00163236 -0.0111176 0.099
            vertex 0.00136672 0.0101229 0.0990519
            vertex -0.00824884 -0.00614213 0.0990368
        endloop
    endfacet
    facet normal 0.467979 -0.636936 -0.612624
        outer loop
            vertex 0.0189013 -0.0392437 0.011
            vertex 0.0237499 -0.0250936 -7.84994e-006
            vertex 0.0285486 -0.0321555 0.011
        endloop
    endfacet
    facet normal -0.86402 -0.369068 0.342431
        outer loop
            vertex -0.0418731 -0.0112801 0.021986
            vertex -0.0380471 -0.020349 0.0218654
            vertex -0.0173645 -0.0266853 0.0672225
        endloop
    endfacet
    facet normal -0.694983 -0.676989 0.242246
        outer loop
            vertex -0.0160247 -0.029153 0.0663322
            vertex -0.0336498 -0.0270059 0.0217677
            vertex -0.0280746 -0.0327626 0.0216746
        endloop
    endfacet
    facet normal -0.438364 -0.77606 0.453396
        outer loop
            vertex -0.00141844 -0.0284191 0.0873168
            vertex -0.00835691 -0.0287549 0.0800336
            vertex -0.00567606 -0.030967 0.0788392
        endloop
    endfacet
    facet normal -0.228446 -0.764562 -0.602708
        outer loop
            vertex -0.0199267 -0.038733 0.011
            vertex -0.0116305 -0.0325342 -7.99595e-006
            vertex -0.00845625 -0.0421603 0.011
        endloop
    endfacet
    facet normal 0.883061 -0.262829 0.388746
        outer loop
            vertex 0.0101139 -0.00349038 0.0990003
            vertex 0.01 -0.01 0.0948579
            vertex 0.0402322 -0.0161722 0.0220105
        endloop
    endfacet
    facet normal 0.78544 0.0806574 -0.613659
        outer loop
            vertex 0.0433687 -0.00149886 0.011
            vertex 0.0345407 0.000599414 -2.34187e-005
            vertex 0.0422726 0.00917341 0.0109998
        endloop
    endfacet
    facet normal 0.125825 -0.990694 0.0519076
        outer loop
            vertex 0.00344846 -0.0434215 0.011
            vertex 0.00938558 -0.0421098 0.0216431
            vertex 0.00147119 -0.0431172 0.0216007
        endloop
    endfacet
    facet normal -0.603076 -0.526977 0.598828
        outer loop
            vertex -0.00141844 -0.0284191 0.0873168
            vertex -0.01 -0.00953334 0.0952941
            vertex -0.00835691 -0.0287549 0.0800336
        endloop
    endfacet
    facet normal 0.459579 -0.851146 0.253649
        outer loop
            vertex 0.0011469 -0.0290174 0.086119
            vertex 0.0169995 -0.0396537 0.021705
            vertex 0.0240201 -0.0358402 0.0217812
        endloop
    endfacet
    facet normal 0.717746 -0.61253 0.331132
        outer loop
            vertex 0.00313656 -0.0276406 0.0863939
            vertex 0.0302029 -0.0308098 0.0218639
            vertex 0.0353488 -0.0247377 0.0219421
        endloop
    endfacet
    facet normal -0.0710998 -0.944855 0.319679
        outer loop
            vertex -0.00141844 -0.0284191 0.0873168
            vertex -0.00567606 -0.030967 0.0788392
            vertex 0.0011469 -0.0290174 0.086119
        endloop
    endfacet
    facet normal -0.0592589 -0.998088 0.0175977
        outer loop
            vertex -0.0106727 -0.0423965 0.0215829
            vertex 0.00344846 -0.0434215 0.011
            vertex 0.00147119 -0.0431172 0.0216007
        endloop
    endfacet
    facet normal -0.767248 -0.437733 0.468743
        outer loop
            vertex -0.00835691 -0.0287549 0.0800336
            vertex -0.01 -0.00953334 0.0952941
            vertex -0.0173645 -0.0266853 0.0672225
        endloop
    endfacet
    facet normal 0.207713 -0.768289 -0.605465
        outer loop
            vertex 0.00344846 -0.0434215 0.011
            vertex 0.0116312 -0.032536 -5.67716e-006
            vertex 0.0189013 -0.0392437 0.011
        endloop
    endfacet
    facet normal -0.412462 -0.885769 0.212812
        outer loop
            vertex -0.0106727 -0.0423965 0.0215829
            vertex -0.00567606 -0.030967 0.0788392
            vertex -0.0160247 -0.029153 0.0663322
        endloop
    endfacet
    facet normal -0.580007 0.542884 -0.607345
        outer loop
            vertex -0.0367293 0.0234154 0.011
            vertex -0.0285486 0.0321555 0.011
            vertex -0.0229225 0.0258485 -1.04566e-005
        endloop
    endfacet
    facet normal -0.999571 0.0131438 -0.0261835
        outer loop
            vertex -0.0427076 0.00856587 0.011
            vertex -0.042865 -0.00340428 0.011
            vertex -0.043127 -0.00145998 0.021978
        endloop
    endfacet
    facet normal -0.729843 0.68313 -0.0257518
        outer loop
            vertex -0.0367293 0.0234154 0.011
            vertex -0.0301412 0.0308676 0.0219719
            vertex -0.0285486 0.0321555 0.011
        endloop
    endfacet
    facet normal 0.606928 0.450038 -0.655061
        outer loop
            vertex 0.0373323 0.0224416 0.011
            vertex 0.0313886 0.0144401 -4.13919e-006
            vertex 0.0229231 0.0258493 -9.28041e-006
        endloop
    endfacet
    facet normal 0.990157 0.139321 0.0133564
        outer loop
            vertex 0.0431699 0.00174073 0.0220104
            vertex 0.0422726 0.00917341 0.0109998
            vertex 0.0420889 0.00942502 0.0219937
        endloop
    endfacet
    facet normal 0.952588 0.304131 0.00895675
        outer loop
            vertex 0.039726 0.0168261 0.0219909
            vertex 0.0420889 0.00942502 0.0219937
            vertex 0.0422726 0.00917341 0.0109998
        endloop
    endfacet
    facet normal -0.0819977 -0.773991 -0.627864
        outer loop
            vertex 0.00344846 -0.0434215 0.011
            vertex -0.00845625 -0.0421603 0.011
            vertex -3.01485e-008 -0.0341316 -1.63118e-006
        endloop
    endfacet
    facet normal -0.0085545 0.00412878 0.999955
        outer loop
            vertex -0.0100563 -0.0029615 0.0990082
            vertex -0.00824884 -0.00614213 0.0990368
            vertex 0.00136672 0.0101229 0.0990519
        endloop
    endfacet
    facet normal 0.122265 -0.969485 0.212485
        outer loop
            vertex 0.0011469 -0.0290174 0.086119
            vertex 0.00147119 -0.0431172 0.0216007
            vertex 0.00938558 -0.0421098 0.0216431
        endloop
    endfacet
    facet normal -0.00278863 -0.000905113 0.999996
        outer loop
            vertex -0.0100563 -0.0029615 0.0990082
            vertex 0.00136672 0.0101229 0.0990519
            vertex -0.00822594 0.00619966 0.0990216
        endloop
    endfacet
    facet normal -0.0214436 -0.55968 0.828431
        outer loop
            vertex -0.00141844 -0.0284191 0.0873168
            vertex 0.00108702 -0.0280145 0.087655
            vertex -0.00163236 -0.0111176 0.099
        endloop
    endfacet
    facet normal -0.0160845 0.0247319 0.999565
        outer loop
            vertex 0.0101139 -0.00349038 0.0990003
            vertex -0.00163236 -0.0111176 0.099
            vertex 0.00614954 -0.00821082 0.0990533
        endloop
    endfacet
    facet normal 0.101848 -0.744104 -0.660254
        outer loop
            vertex 0.00344846 -0.0434215 0.011
            vertex -3.01485e-008 -0.0341316 -1.63118e-006
            vertex 0.0116312 -0.032536 -5.67716e-006
        endloop
    endfacet
    facet normal 0.15995 0.905585 0.392851
        outer loop
            vertex 0.00949542 0.00990907 0.0962352
            vertex 0.00658393 0.0426365 0.0219787
            vertex 0.00136672 0.0101229 0.0990519
        endloop
    endfacet
    facet normal 0.378183 0.66328 -0.645785
        outer loop
            vertex 0.0267044 0.0344122 0.011
            vertex 0.0229231 0.0258493 -9.28041e-006
            vertex 0.00969443 0.0333967 -4.3503e-006
        endloop
    endfacet
    facet normal 0.760504 -0.152539 -0.631162
        outer loop
            vertex 0.0433687 -0.00149886 0.011
            vertex 0.0412002 -0.0123102 0.011
            vertex 0.031848 -0.0134031 -4.5906e-006
        endloop
    endfacet
    facet normal 0.00625379 0.000174625 0.99998
        outer loop
            vertex 0.0101139 -0.00349038 0.0990003
            vertex 0.00997565 0.00316731 0.099
            vertex 0.00615571 0.00826166 0.099023
        endloop
    endfacet
    facet normal 0.504362 -0.523971 0.686348
        outer loop
            vertex 0.00108702 -0.0280145 0.087655
            vertex 0.01 -0.01 0.0948579
            vertex 0.00614954 -0.00821082 0.0990533
        endloop
    endfacet
    facet normal 0.631112 -0.775692 -1.8441e-005
        outer loop
            vertex 0.0302029 -0.0308098 0.0218639
            vertex 0.0240201 -0.0358402 0.0217812
            vertex 0.0285486 -0.0321555 0.011
        endloop
    endfacet
    facet normal 0.894651 -0.223557 0.386811
        outer loop
            vertex 0.0101139 -0.00349038 0.0990003
            vertex 0.0402322 -0.0161722 0.0220105
            vertex 0.0426274 -0.00661645 0.0219934
        endloop
    endfacet
endsolid D:/Users/Paul Maroldt/Documents/!StartUp_Repositories/module_type_database/0808_E-simple-vacuum-180deg/0808_E-simple-vacuum-180deg_convdec.stl_created_by_BoundingMesh