solid D:/Users/Paul Maroldt/Documents/!StartUp_Repositories/modrob-gen2/ModuleLibrary/L700-I-80-80/L700-I-80-80_convdec.stl_created_by_BoundingMesh
    facet normal -0.75781 0.651758 -0.0305765
        outer loop
            vertex -0.0251494 0.0366907 0.689988
            vertex -0.0271101 0.0205193 0.393878
            vertex -0.0384407 0.0212378 0.690012
        endloop
    endfacet
    facet normal 0 0 -1
        outer loop
            vertex -0.0164204 0.029772 0.393878
            vertex -0.0271101 0.0205193 0.393878
            vertex -0.0210481 0.0257664 0.393878
        endloop
    endfacet
    facet normal 0.00263151 0.00439715 0.999987
        outer loop
            vertex -0.0035374 0.0309628 0.704086
            vertex 0.0201846 -0.0166608 0.704233
            vertex 0.00965002 0.0233011 0.704085
        endloop
    endfacet
    facet normal -0.00176153 -0.00188099 -0.999997
        outer loop
            vertex -0.0375967 -0.00184647 0.393862
            vertex -0.0175731 -0.0291065 0.393878
            vertex -0.0278925 -0.0194425 0.393878
        endloop
    endfacet
    facet normal 0.991457 0.126959 -0.0298994
        outer loop
            vertex 0.0354534 -0.00826433 0.393864
            vertex 0.0412265 0.016388 0.689978
            vertex 0.0437599 -0.00338727 0.690015
        endloop
    endfacet
    facet normal 0.646363 0.465885 0.60429
        outer loop
            vertex 0.0412265 0.016388 0.689978
            vertex 0.0304838 0.0312664 0.689998
            vertex 0.031617 0.0167208 0.7
        endloop
    endfacet
    facet normal -0.257645 -0.696431 0.669779
        outer loop
            vertex -0.0285813 -0.0256516 0.7
            vertex -0.0016122 -0.0450182 0.690237
            vertex 0.00149599 -0.0367787 0.7
        endloop
    endfacet
    facet normal -0.250595 0.689379 0.679675
        outer loop
            vertex -0.0251494 0.0366907 0.689988
            vertex -0.022537 0.0277693 0.7
            vertex -0.00377484 0.0442535 0.690198
        endloop
    endfacet
    facet normal 0.447584 0.661516 0.601718
        outer loop
            vertex 0.0146472 0.0328836 0.7
            vertex 0.0304838 0.0312664 0.689998
            vertex 0.0163922 0.0407917 0.690008
        endloop
    endfacet
    facet normal -0.875139 -0.482669 -0.0340908
        outer loop
            vertex -0.0375967 -0.00184647 0.393862
            vertex -0.0278925 -0.0194425 0.393878
            vertex -0.0382382 -0.0215994 0.689999
        endloop
    endfacet
    facet normal 0.403268 -0.211651 0.890269
        outer loop
            vertex 0.0201846 -0.0166608 0.704233
            vertex 0.0247182 -0.025828 0.7
            vertex 0.0352657 -0.00573141 0.7
        endloop
    endfacet
    facet normal 0.810535 0.585263 -0.0223467
        outer loop
            vertex 0.0298645 0.020817 0.393864
            vertex 0.0304838 0.0312664 0.689998
            vertex 0.0412265 0.016388 0.689978
        endloop
    endfacet
    facet normal 0.718798 0.116812 0.685335
        outer loop
            vertex 0.0412265 0.016388 0.689978
            vertex 0.031617 0.0167208 0.7
            vertex 0.0352657 -0.00573141 0.7
        endloop
    endfacet
    facet normal 0.23489 0.192681 0.952733
        outer loop
            vertex 0.031617 0.0167208 0.7
            vertex 0.00965002 0.0233011 0.704085
            vertex 0.0231221 0.00701134 0.704058
        endloop
    endfacet
    facet normal 0.220097 -0.778889 0.587273
        outer loop
            vertex -0.0016122 -0.0450182 0.690237
            vertex 0.0187256 -0.0394514 0.689998
            vertex 0.00149599 -0.0367787 0.7
        endloop
    endfacet
    facet normal -0.750312 -0.660355 -0.0310239
        outer loop
            vertex -0.024868 -0.0367943 0.69007
            vertex -0.0382382 -0.0215994 0.689999
            vertex -0.0278925 -0.0194425 0.393878
        endloop
    endfacet
    facet normal -0.164152 -0.443715 0.881006
        outer loop
            vertex -0.0285813 -0.0256516 0.7
            vertex 0.00149599 -0.0367787 0.7
            vertex -0.00753454 -0.0249755 0.704262
        endloop
    endfacet
    facet normal 0.0785692 0.72091 0.688561
        outer loop
            vertex -0.0035374 0.0309628 0.704086
            vertex 0.0146472 0.0328836 0.7
            vertex -0.00377484 0.0442535 0.690198
        endloop
    endfacet
    facet normal -0.237201 0.193039 0.952088
        outer loop
            vertex -0.0035374 0.0309628 0.704086
            vertex -0.022537 0.0277693 0.7
            vertex -0.0275718 -5.13401e-006 0.704377
        endloop
    endfacet
    facet normal 0.000142446 5.23738e-005 -1
        outer loop
            vertex -0.0375967 -0.00184647 0.393862
            vertex 0.0045133 0.0361232 0.39387
            vertex 0.00309594 -0.036272 0.393866
        endloop
    endfacet
    facet normal -0.654012 0.755582 -0.0369339
        outer loop
            vertex -0.0251494 0.0366907 0.689988
            vertex -0.0210481 0.0257664 0.393878
            vertex -0.0271101 0.0205193 0.393878
        endloop
    endfacet
    facet normal 0.00183642 -0.00219292 -0.999996
        outer loop
            vertex 0.00309594 -0.036272 0.393866
            vertex 0.0354534 -0.00826433 0.393864
            vertex 0.0222515 -0.0257074 0.393878
        endloop
    endfacet
    facet normal 0.493831 0.518488 0.69807
        outer loop
            vertex 0.0146472 0.0328836 0.7
            vertex 0.031617 0.0167208 0.7
            vertex 0.0304838 0.0312664 0.689998
        endloop
    endfacet
    facet normal -0.598754 0.378627 0.705787
        outer loop
            vertex -0.0363605 0.00590904 0.7
            vertex -0.022537 0.0277693 0.7
            vertex -0.0384407 0.0212378 0.690012
        endloop
    endfacet
    facet normal 0.74675 0.0968975 0.658008
        outer loop
            vertex 0.0412265 0.016388 0.689978
            vertex 0.0352657 -0.00573141 0.7
            vertex 0.0437599 -0.00338727 0.690015
        endloop
    endfacet
    facet normal 0.961924 -0.27239 -0.0224945
        outer loop
            vertex 0.0354534 -0.00826433 0.393864
            vertex 0.0437599 -0.00338727 0.690015
            vertex 0.039357 -0.0189334 0.689986
        endloop
    endfacet
    facet normal 0.372996 0.0606154 0.925851
        outer loop
            vertex 0.031617 0.0167208 0.7
            vertex 0.0231221 0.00701134 0.704058
            vertex 0.0352657 -0.00573141 0.7
        endloop
    endfacet
    facet normal -0.95251 -0.303689 -0.02232
        outer loop
            vertex -0.0375967 -0.00184647 0.393862
            vertex -0.0382382 -0.0215994 0.689999
            vertex -0.0450323 -0.000288656 0.689981
        endloop
    endfacet
    facet normal -0.683328 -0.599322 0.416984
        outer loop
            vertex -0.0285813 -0.0256516 0.7
            vertex -0.0382382 -0.0215994 0.689999
            vertex -0.024868 -0.0367943 0.69007
        endloop
    endfacet
    facet normal 0 0 1
        outer loop
            vertex -0.0278925 -0.0194425 0.393878
            vertex -0.0175731 -0.0291065 0.393878
            vertex -0.0234251 -0.0236261 0.393878
        endloop
    endfacet
    facet normal -0.65401 0.755583 -0.0369339
        outer loop
            vertex -0.0251494 0.0366907 0.689988
            vertex -0.0164204 0.029772 0.393878
            vertex -0.0210481 0.0257664 0.393878
        endloop
    endfacet
    facet normal 0.00495199 0.00555296 0.999972
        outer loop
            vertex -0.0035374 0.0309628 0.704086
            vertex -0.0275718 -5.13401e-006 0.704377
            vertex 0.0201846 -0.0166608 0.704233
        endloop
    endfacet
    facet normal 0.252454 0.265059 0.930597
        outer loop
            vertex 0.0146472 0.0328836 0.7
            vertex 0.00965002 0.0233011 0.704085
            vertex 0.031617 0.0167208 0.7
        endloop
    endfacet
    facet normal -0.00104241 0.0012043 -0.999999
        outer loop
            vertex -0.0375967 -0.00184647 0.393862
            vertex -0.0271101 0.0205193 0.393878
            vertex -0.0164204 0.029772 0.393878
        endloop
    endfacet
    facet normal -0.955854 0.292728 -0.0255417
        outer loop
            vertex -0.0375967 -0.00184647 0.393862
            vertex -0.0450323 -0.000288656 0.689981
            vertex -0.0384407 0.0212378 0.690012
        endloop
    endfacet
    facet normal -0.597515 0.514886 0.61471
        outer loop
            vertex -0.0251494 0.0366907 0.689988
            vertex -0.0384407 0.0212378 0.690012
            vertex -0.022537 0.0277693 0.7
        endloop
    endfacet
    facet normal 0.456236 -0.648249 0.609609
        outer loop
            vertex 0.0247182 -0.025828 0.7
            vertex 0.0187256 -0.0394514 0.689998
            vertex 0.0308046 -0.0309615 0.689986
        endloop
    endfacet
    facet normal -0.745094 -0.237018 0.623423
        outer loop
            vertex -0.0285813 -0.0256516 0.7
            vertex -0.0450323 -0.000288656 0.689981
            vertex -0.0382382 -0.0215994 0.689999
        endloop
    endfacet
    facet normal 0.482661 -0.875113 -0.0348701
        outer loop
            vertex 0.00309594 -0.036272 0.393866
            vertex 0.0222515 -0.0257074 0.393878
            vertex 0.0187256 -0.0394514 0.689998
        endloop
    endfacet
    facet normal 0.634168 -0.332837 0.697891
        outer loop
            vertex 0.0247182 -0.025828 0.7
            vertex 0.039357 -0.0189334 0.689986
            vertex 0.0352657 -0.00573141 0.7
        endloop
    endfacet
    facet normal 0.559743 0.828109 -0.0303913
        outer loop
            vertex 0.0298645 0.020817 0.393864
            vertex 0.0163922 0.0407917 0.690008
            vertex 0.0304838 0.0312664 0.689998
        endloop
    endfacet
    facet normal 0.516556 0.85557 -0.0342082
        outer loop
            vertex 0.0298645 0.020817 0.393864
            vertex 0.0045133 0.0361232 0.39387
            vertex 0.0163922 0.0407917 0.690008
        endloop
    endfacet
    facet normal -0.327391 -0.94431 -0.0330684
        outer loop
            vertex -0.0016122 -0.0450182 0.690237
            vertex -0.0175731 -0.0291065 0.393878
            vertex 0.00309594 -0.036272 0.393866
        endloop
    endfacet
    facet normal -0.000673351 0.000957128 -0.999999
        outer loop
            vertex -0.0375967 -0.00184647 0.393862
            vertex -0.0164204 0.029772 0.393878
            vertex 0.0045133 0.0361232 0.39387
        endloop
    endfacet
    facet normal 0.137231 0.76491 0.629349
        outer loop
            vertex -0.00377484 0.0442535 0.690198
            vertex 0.0146472 0.0328836 0.7
            vertex 0.0163922 0.0407917 0.690008
        endloop
    endfacet
    facet normal 0.177836 0.30597 0.935284
        outer loop
            vertex -0.0035374 0.0309628 0.704086
            vertex 0.00965002 0.0233011 0.704085
            vertex 0.0146472 0.0328836 0.7
        endloop
    endfacet
    facet normal 0.168935 0.985375 -0.0223105
        outer loop
            vertex -0.00377484 0.0442535 0.690198
            vertex 0.0163922 0.0407917 0.690008
            vertex 0.0045133 0.0361232 0.39387
        endloop
    endfacet
    facet normal -0.508594 -0.12536 0.851832
        outer loop
            vertex -0.0285813 -0.0256516 0.7
            vertex -0.0275718 -5.13401e-006 0.704377
            vertex -0.0363605 0.00590904 0.7
        endloop
    endfacet
    facet normal 0.163142 -0.345961 0.923957
        outer loop
            vertex 0.00149599 -0.0367787 0.7
            vertex 0.0247182 -0.025828 0.7
            vertex 0.0201846 -0.0166608 0.704233
        endloop
    endfacet
    facet normal 0.814578 -0.579193 -0.031606
        outer loop
            vertex 0.0354534 -0.00826433 0.393864
            vertex 0.039357 -0.0189334 0.689986
            vertex 0.0308046 -0.0309615 0.689986
        endloop
    endfacet
    facet normal 0.981433 0.188614 -0.0348368
        outer loop
            vertex 0.0298645 0.020817 0.393864
            vertex 0.0412265 0.016388 0.689978
            vertex 0.0354534 -0.00826433 0.393864
        endloop
    endfacet
    facet normal 0.767985 -0.218629 0.601997
        outer loop
            vertex 0.0437599 -0.00338727 0.690015
            vertex 0.0352657 -0.00573141 0.7
            vertex 0.039357 -0.0189334 0.689986
        endloop
    endfacet
    facet normal 0.796902 -0.603167 -0.0337211
        outer loop
            vertex 0.0354534 -0.00826433 0.393864
            vertex 0.0308046 -0.0309615 0.689986
            vertex 0.0222515 -0.0257074 0.393878
        endloop
    endfacet
    facet normal 0.638757 -0.454179 0.621056
        outer loop
            vertex 0.0247182 -0.025828 0.7
            vertex 0.0308046 -0.0309615 0.689986
            vertex 0.039357 -0.0189334 0.689986
        endloop
    endfacet
    facet normal -0.322867 0.204167 0.924161
        outer loop
            vertex -0.0275718 -5.13401e-006 0.704377
            vertex -0.022537 0.0277693 0.7
            vertex -0.0363605 0.00590904 0.7
        endloop
    endfacet
    facet normal -0.80293 0.245082 0.543358
        outer loop
            vertex -0.0450323 -0.000288656 0.689981
            vertex -0.0363605 0.00590904 0.7
            vertex -0.0384407 0.0212378 0.690012
        endloop
    endfacet
    facet normal -0.00105267 -0.00136031 -0.999999
        outer loop
            vertex -0.0375967 -0.00184647 0.393862
            vertex 0.00309594 -0.036272 0.393866
            vertex -0.0175731 -0.0291065 0.393878
        endloop
    endfacet
    facet normal -0.191115 -0.157819 0.968797
        outer loop
            vertex -0.0285813 -0.0256516 0.7
            vertex -0.00753454 -0.0249755 0.704262
            vertex -0.0275718 -5.13401e-006 0.704377
        endloop
    endfacet
    facet normal -0.000267308 -5.13717e-005 -1
        outer loop
            vertex 0.0298645 0.020817 0.393864
            vertex 0.0354534 -0.00826433 0.393864
            vertex 0.0045133 0.0361232 0.39387
        endloop
    endfacet
    facet normal 0.00951467 0.00621146 0.999935
        outer loop
            vertex 0.0201846 -0.0166608 0.704233
            vertex 0.0231221 0.00701134 0.704058
            vertex 0.00965002 0.0233011 0.704085
        endloop
    endfacet
    facet normal 0.30517 -0.647149 0.69862
        outer loop
            vertex 0.00149599 -0.0367787 0.7
            vertex 0.0187256 -0.0394514 0.689998
            vertex 0.0247182 -0.025828 0.7
        endloop
    endfacet
    facet normal 0.574735 -0.817748 -0.0311113
        outer loop
            vertex 0.0187256 -0.0394514 0.689998
            vertex 0.0222515 -0.0257074 0.393878
            vertex 0.0308046 -0.0309615 0.689986
        endloop
    endfacet
    facet normal 0.0850489 -0.280194 0.956168
        outer loop
            vertex 0.00149599 -0.0367787 0.7
            vertex 0.0201846 -0.0166608 0.704233
            vertex -0.00753454 -0.0249755 0.704262
        endloop
    endfacet
    facet normal -0.290169 0.956359 -0.0343553
        outer loop
            vertex -0.00377484 0.0442535 0.690198
            vertex 0.0045133 0.0361232 0.39387
            vertex -0.0164204 0.029772 0.393878
        endloop
    endfacet
    facet normal -0.690543 -0.170208 0.702979
        outer loop
            vertex -0.0285813 -0.0256516 0.7
            vertex -0.0363605 0.00590904 0.7
            vertex -0.0450323 -0.000288656 0.689981
        endloop
    endfacet
    facet normal -0.000111343 5.73425e-005 -1
        outer loop
            vertex 0.00309594 -0.036272 0.393866
            vertex 0.0045133 0.0361232 0.39387
            vertex 0.0354534 -0.00826433 0.393864
        endloop
    endfacet
    facet normal 0.00195726 -0.00303394 0.999993
        outer loop
            vertex -0.0275718 -5.13401e-006 0.704377
            vertex -0.00753454 -0.0249755 0.704262
            vertex 0.0201846 -0.0166608 0.704233
        endloop
    endfacet
    facet normal -0.260896 0.695219 0.669779
        outer loop
            vertex -0.0035374 0.0309628 0.704086
            vertex -0.00377484 0.0442535 0.690198
            vertex -0.022537 0.0277693 0.7
        endloop
    endfacet
    facet normal -0.683115 -0.729434 -0.0357572
        outer loop
            vertex -0.024868 -0.0367943 0.69007
            vertex -0.0234251 -0.0236261 0.393878
            vertex -0.0175731 -0.0291065 0.393878
        endloop
    endfacet
    facet normal 0.28945 -0.0288452 0.956758
        outer loop
            vertex 0.0201846 -0.0166608 0.704233
            vertex 0.0352657 -0.00573141 0.7
            vertex 0.0231221 0.00701134 0.704058
        endloop
    endfacet
    facet normal -0.333112 0.94235 -0.0318381
        outer loop
            vertex -0.0251494 0.0366907 0.689988
            vertex -0.00377484 0.0442535 0.690198
            vertex -0.0164204 0.029772 0.393878
        endloop
    endfacet
    facet normal -0.248638 -0.689287 0.680487
        outer loop
            vertex -0.0285813 -0.0256516 0.7
            vertex -0.024868 -0.0367943 0.69007
            vertex -0.0016122 -0.0450182 0.690237
        endloop
    endfacet
    facet normal -0.333009 -0.942358 -0.032661
        outer loop
            vertex -0.0016122 -0.0450182 0.690237
            vertex -0.024868 -0.0367943 0.69007
            vertex -0.0175731 -0.0291065 0.393878
        endloop
    endfacet
    facet normal -0.904832 0.424273 -0.0356499
        outer loop
            vertex -0.0375967 -0.00184647 0.393862
            vertex -0.0384407 0.0212378 0.690012
            vertex -0.0271101 0.0205193 0.393878
        endloop
    endfacet
    facet normal 0.263663 -0.96431 -0.0242692
        outer loop
            vertex -0.0016122 -0.0450182 0.690237
            vertex 0.00309594 -0.036272 0.393866
            vertex 0.0187256 -0.0394514 0.689998
        endloop
    endfacet
    facet normal -0.683105 -0.729444 -0.0357576
        outer loop
            vertex -0.024868 -0.0367943 0.69007
            vertex -0.0278925 -0.0194425 0.393878
            vertex -0.0234251 -0.0236261 0.393878
        endloop
    endfacet
    facet normal 0.482793 -0.875354 0.0258255
        outer loop
            vertex 0.00309598 -0.0362723 0.393883
            vertex 0.0299429 -0.0327905 0.0100103
            vertex 0.0222515 -0.0257074 0.393878
        endloop
    endfacet
    facet normal 0.000400362 0.00136949 0.999999
        outer loop
            vertex 0.0298648 0.0208172 0.393886
            vertex 0.0111375 0.0321241 0.393878
            vertex -0.0105698 0.0348359 0.393883
        endloop
    endfacet
    facet normal -0.935846 -0.351731 0.0218341
        outer loop
            vertex -0.0362051 -0.0258619 0.0100105
            vertex -0.0334468 -0.00937177 0.393879
            vertex -0.0441242 -0.00479168 0.0100102
        endloop
    endfacet
    facet normal 0.467746 -0.883518 0.0246991
        outer loop
            vertex 0.00309598 -0.0362723 0.393883
            vertex 0.0136014 -0.0414419 0.0100104
            vertex 0.0299429 -0.0327905 0.0100103
        endloop
    endfacet
    facet normal 0.123924 0.991935 0.0266209
        outer loop
            vertex -0.0105698 0.0348359 0.393883
            vertex 0.0111375 0.0321241 0.393878
            vertex 0.00199246 0.0435686 0.0100108
        endloop
    endfacet
    facet normal -0.666871 0.744765 0.0246644
        outer loop
            vertex -0.0186298 0.0410127 0.00961894
            vertex -0.0346226 0.0266796 0.0100106
            vertex -0.0329606 0.015455 0.393885
        endloop
    endfacet
    facet normal -0.270427 -0.735574 -0.621129
        outer loop
            vertex -0.00460939 -0.0441445 0.0100104
            vertex -0.0218798 -0.0377951 0.0100103
            vertex -0.00101348 -0.0369483 -7.73105e-005
        endloop
    endfacet
    facet normal -0.514202 -0.617268 -0.595464
        outer loop
            vertex -0.0362051 -0.0258619 0.0100105
            vertex -0.0247108 -0.0257213 -6.09373e-005
            vertex -0.0218798 -0.0377951 0.0100103
        endloop
    endfacet
    facet normal 0.279724 0.664469 -0.692991
        outer loop
            vertex 0.028622 0.0246022 -0.000219184
            vertex 0.00501709 0.0347542 -1.30806e-005
            vertex 0.0163837 0.0404232 0.0100107
        endloop
    endfacet
    facet normal 0.122897 -0.828107 -0.546933
        outer loop
            vertex -0.00460939 -0.0441445 0.0100104
            vertex -0.00101348 -0.0369483 -7.73105e-005
            vertex 0.0136014 -0.0414419 0.0100104
        endloop
    endfacet
    facet normal 0.146777 -0.989018 0.0173359
        outer loop
            vertex 0.00309598 -0.0362723 0.393883
            vertex -0.00460939 -0.0441445 0.0100104
            vertex 0.0136014 -0.0414419 0.0100104
        endloop
    endfacet
    facet normal -0.308852 -0.650896 -0.693502
        outer loop
            vertex -0.00101348 -0.0369483 -7.73105e-005
            vertex -0.0218798 -0.0377951 0.0100103
            vertex -0.0247108 -0.0257213 -6.09373e-005
        endloop
    endfacet
    facet normal -7.97562e-005 -1.53278e-005 1
        outer loop
            vertex 0.0298648 0.0208172 0.393886
            vertex -0.0105698 0.0348359 0.393883
            vertex 0.00309598 -0.0362723 0.393883
        endloop
    endfacet
    facet normal 0.271147 -0.669849 -0.691218
        outer loop
            vertex 0.0255434 -0.0261241 -0.000149308
            vertex 0.0136014 -0.0414419 0.0100104
            vertex -0.00101348 -0.0369483 -7.73105e-005
        endloop
    endfacet
    facet normal -0.875329 -0.482772 0.0270285
        outer loop
            vertex -0.0362051 -0.0258619 0.0100105
            vertex -0.0278925 -0.0194425 0.393878
            vertex -0.0334468 -0.00937177 0.393879
        endloop
    endfacet
    facet normal -0.732349 -0.275257 -0.622815
        outer loop
            vertex -0.0362051 -0.0258619 0.0100105
            vertex -0.0441242 -0.00479168 0.0100102
            vertex -0.0352211 -0.00572351 -4.68569e-005
        endloop
    endfacet
    facet normal -0.32746 -0.944509 0.0259424
        outer loop
            vertex 0.00309598 -0.0362723 0.393883
            vertex -0.0175731 -0.0291065 0.393878
            vertex -0.00460939 -0.0441445 0.0100104
        endloop
    endfacet
    facet normal -0.00805449 0.00157318 -0.999966
        outer loop
            vertex 0.028622 0.0246022 -0.000219184
            vertex -0.00101348 -0.0369483 -7.73105e-005
            vertex 0.00501709 0.0347542 -1.30806e-005
        endloop
    endfacet
    facet normal 0 0 -1
        outer loop
            vertex -0.0175731 -0.0291065 0.393878
            vertex -0.0278925 -0.0194425 0.393878
            vertex -0.0234251 -0.0236261 0.393878
        endloop
    endfacet
    facet normal -0.723798 0.117646 -0.679908
        outer loop
            vertex -0.0315622 0.0168104 -4.28676e-005
            vertex -0.0352211 -0.00572351 -4.68569e-005
            vertex -0.0415553 0.0134306 0.0100105
        endloop
    endfacet
    facet normal 0.516687 0.855793 0.0255634
        outer loop
            vertex 0.0298648 0.0208172 0.393886
            vertex 0.0163837 0.0404232 0.0100107
            vertex 0.0111375 0.0321241 0.393878
        endloop
    endfacet
    facet normal -0.000251484 -0.000236358 1
        outer loop
            vertex -0.0329606 0.015455 0.393885
            vertex -0.0334468 -0.00937177 0.393879
            vertex -0.0278925 -0.0194425 0.393878
        endloop
    endfacet
    facet normal 0.526677 0.849701 0.0249014
        outer loop
            vertex 0.0298648 0.0208172 0.393886
            vertex 0.0289118 0.0326578 0.0100108
            vertex 0.0163837 0.0404232 0.0100107
        endloop
    endfacet
    facet normal 0.213462 0.976656 0.0240323
        outer loop
            vertex 0.00199246 0.0435686 0.0100108
            vertex 0.0111375 0.0321241 0.393878
            vertex 0.0163837 0.0404232 0.0100107
        endloop
    endfacet
    facet normal -0.00154527 8.11957e-005 0.999999
        outer loop
            vertex 0.0298648 0.0208172 0.393886
            vertex 0.0222515 -0.0257074 0.393878
            vertex 0.0354533 -0.00826433 0.393897
        endloop
    endfacet
    facet normal -0.512702 0.540323 -0.667224
        outer loop
            vertex -0.0186298 0.0410127 0.00961894
            vertex -0.0153134 0.0322439 -3.04549e-005
            vertex -0.0315622 0.0168104 -4.28676e-005
        endloop
    endfacet
    facet normal -0.000292183 -0.000242268 1
        outer loop
            vertex -0.0329606 0.015455 0.393885
            vertex -0.0278925 -0.0194425 0.393878
            vertex 0.00309598 -0.0362723 0.393883
        endloop
    endfacet
    facet normal -0.739856 0.104313 -0.664629
        outer loop
            vertex -0.0441242 -0.00479168 0.0100102
            vertex -0.0415553 0.0134306 0.0100105
            vertex -0.0352211 -0.00572351 -4.68569e-005
        endloop
    endfacet
    facet normal 0.167166 0.764859 -0.62213
        outer loop
            vertex 0.00199246 0.0435686 0.0100108
            vertex 0.0163837 0.0404232 0.0100107
            vertex 0.00501709 0.0347542 -1.30806e-005
        endloop
    endfacet
    facet normal 0.693324 0.556488 -0.457847
        outer loop
            vertex 0.028622 0.0246022 -0.000219184
            vertex 0.0289118 0.0326578 0.0100108
            vertex 0.0413872 0.0171147 0.0100107
        endloop
    endfacet
    facet normal 0.772029 -0.178584 -0.609983
        outer loop
            vertex 0.0355719 -0.00288551 -4.33714e-005
            vertex 0.0435986 -0.00252727 0.0100108
            vertex 0.040229 -0.0170936 0.0100106
        endloop
    endfacet
    facet normal 0.836193 -0.547953 0.0230053
        outer loop
            vertex 0.0354533 -0.00826433 0.393897
            vertex 0.0299429 -0.0327905 0.0100103
            vertex 0.040229 -0.0170936 0.0100106
        endloop
    endfacet
    facet normal 0.368476 -0.696017 -0.616268
        outer loop
            vertex 0.0299429 -0.0327905 0.0100103
            vertex 0.0136014 -0.0414419 0.0100104
            vertex 0.0255434 -0.0261241 -0.000149308
        endloop
    endfacet
    facet normal -0.989981 0.139563 0.021429
        outer loop
            vertex -0.0329606 0.015455 0.393885
            vertex -0.0415553 0.0134306 0.0100105
            vertex -0.0441242 -0.00479168 0.0100102
        endloop
    endfacet
    facet normal -0.0785528 0.736765 -0.67157
        outer loop
            vertex -0.0186298 0.0410127 0.00961894
            vertex 0.00199246 0.0435686 0.0100108
            vertex 0.00501709 0.0347542 -1.30806e-005
        endloop
    endfacet
    facet normal 0.797063 -0.603287 0.0271022
        outer loop
            vertex 0.0354533 -0.00826433 0.393897
            vertex 0.0222515 -0.0257074 0.393878
            vertex 0.0299429 -0.0327905 0.0100103
        endloop
    endfacet
    facet normal -0.683303 -0.729635 0.0269987
        outer loop
            vertex -0.0362051 -0.0258619 0.0100105
            vertex -0.0175731 -0.0291065 0.393878
            vertex -0.0234251 -0.0236261 0.393878
        endloop
    endfacet
    facet normal -0.639847 -0.76811 0.0245643
        outer loop
            vertex -0.0362051 -0.0258619 0.0100105
            vertex -0.0218798 -0.0377951 0.0100103
            vertex -0.0175731 -0.0291065 0.393878
        endloop
    endfacet
    facet normal -0.885897 0.463556 0.01739
        outer loop
            vertex -0.0329606 0.015455 0.393885
            vertex -0.0346226 0.0266796 0.0100106
            vertex -0.0415553 0.0134306 0.0100105
        endloop
    endfacet
    facet normal -0.000382336 -0.000408266 1
        outer loop
            vertex 0.00309598 -0.0362723 0.393883
            vertex -0.0278925 -0.0194425 0.393878
            vertex -0.0175731 -0.0291065 0.393878
        endloop
    endfacet
    facet normal 0.678192 -0.444404 -0.585287
        outer loop
            vertex 0.0299429 -0.0327905 0.0100103
            vertex 0.0255434 -0.0261241 -0.000149308
            vertex 0.040229 -0.0170936 0.0100106
        endloop
    endfacet
    facet normal 0.779749 0.625852 0.0173686
        outer loop
            vertex 0.0413872 0.0171147 0.0100107
            vertex 0.0289118 0.0326578 0.0100108
            vertex 0.0298648 0.0208172 0.393886
        endloop
    endfacet
    facet normal 0.434805 0.701474 -0.564693
        outer loop
            vertex 0.028622 0.0246022 -0.000219184
            vertex 0.0163837 0.0404232 0.0100107
            vertex 0.0289118 0.0326578 0.0100108
        endloop
    endfacet
    facet normal 0.981655 0.188652 0.0276458
        outer loop
            vertex 0.0413872 0.0171147 0.0100107
            vertex 0.0298648 0.0208172 0.393886
            vertex 0.0354533 -0.00826433 0.393897
        endloop
    endfacet
    facet normal -0.123324 0.992193 0.0185356
        outer loop
            vertex -0.0186298 0.0410127 0.00961894
            vertex -0.0105698 0.0348359 0.393883
            vertex 0.00199246 0.0435686 0.0100108
        endloop
    endfacet
    facet normal -0.717389 0.375387 -0.586888
        outer loop
            vertex -0.0315622 0.0168104 -4.28676e-005
            vertex -0.0415553 0.0134306 0.0100105
            vertex -0.0346226 0.0266796 0.0100106
        endloop
    endfacet
    facet normal -0.683293 -0.729645 0.0269984
        outer loop
            vertex -0.0362051 -0.0258619 0.0100105
            vertex -0.0234251 -0.0236261 0.393878
            vertex -0.0278925 -0.0194425 0.393878
        endloop
    endfacet
    facet normal -0.620811 -0.325779 -0.713065
        outer loop
            vertex -0.0362051 -0.0258619 0.0100105
            vertex -0.0352211 -0.00572351 -4.68569e-005
            vertex -0.0247108 -0.0257213 -6.09373e-005
        endloop
    endfacet
    facet normal -0.00554409 0.00695099 -0.99996
        outer loop
            vertex 0.0255434 -0.0261241 -0.000149308
            vertex -0.00101348 -0.0369483 -7.73105e-005
            vertex 0.0355719 -0.00288551 -4.33714e-005
        endloop
    endfacet
    facet normal 0.776982 0.0874736 -0.623416
        outer loop
            vertex 0.0413872 0.0171147 0.0100107
            vertex 0.0435986 -0.00252727 0.0100108
            vertex 0.0355719 -0.00288551 -4.33714e-005
        endloop
    endfacet
    facet normal 0.00557106 -0.0049873 -0.999972
        outer loop
            vertex 0.028622 0.0246022 -0.000219184
            vertex 0.0355719 -0.00288551 -4.33714e-005
            vertex -0.00101348 -0.0369483 -7.73105e-005
        endloop
    endfacet
    facet normal -0.654238 0.755846 0.0258725
        outer loop
            vertex -0.0186298 0.0410127 0.00961894
            vertex -0.0329606 0.015455 0.393885
            vertex -0.0105698 0.0348359 0.393883
        endloop
    endfacet
    facet normal 0.000389672 -0.000235439 1
        outer loop
            vertex 0.0298648 0.0208172 0.393886
            vertex 0.00309598 -0.0362723 0.393883
            vertex 0.0222515 -0.0257074 0.393878
        endloop
    endfacet
    facet normal 0.993465 0.11185 0.0227509
        outer loop
            vertex 0.0413872 0.0171147 0.0100107
            vertex 0.0354533 -0.00826433 0.393897
            vertex 0.0435986 -0.00252727 0.0100108
        endloop
    endfacet
    facet normal 7.64587e-005 1.46941e-005 1
        outer loop
            vertex -0.0329606 0.015455 0.393885
            vertex 0.00309598 -0.0362723 0.393883
            vertex -0.0105698 0.0348359 0.393883
        endloop
    endfacet
    facet normal -0.000766139 0.000301436 -1
        outer loop
            vertex -0.0315622 0.0168104 -4.28676e-005
            vertex -0.0247108 -0.0257213 -6.09373e-005
            vertex -0.0352211 -0.00572351 -4.68569e-005
        endloop
    endfacet
    facet normal -0.000530106 0.000339458 -1
        outer loop
            vertex -0.00101348 -0.0369483 -7.73105e-005
            vertex -0.0247108 -0.0257213 -6.09373e-005
            vertex -0.0315622 0.0168104 -4.28676e-005
        endloop
    endfacet
    facet normal 0.000868142 -0.000109734 -1
        outer loop
            vertex -0.0153134 0.0322439 -3.04549e-005
            vertex 0.00501709 0.0347542 -1.30806e-005
            vertex -0.0315622 0.0168104 -4.28676e-005
        endloop
    endfacet
    facet normal -0.344956 -0.938283 0.0251076
        outer loop
            vertex -0.00460939 -0.0441445 0.0100104
            vertex -0.0175731 -0.0291065 0.393878
            vertex -0.0218798 -0.0377951 0.0100103
        endloop
    endfacet
    facet normal 0.000391023 0.000862896 -1
        outer loop
            vertex -0.00101348 -0.0369483 -7.73105e-005
            vertex -0.0315622 0.0168104 -4.28676e-005
            vertex 0.00501709 0.0347542 -1.30806e-005
        endloop
    endfacet
    facet normal -0.999416 0.0195654 0.0280324
        outer loop
            vertex -0.0329606 0.015455 0.393885
            vertex -0.0441242 -0.00479168 0.0100102
            vertex -0.0334468 -0.00937177 0.393879
        endloop
    endfacet
    facet normal 0.656698 -0.280203 -0.700167
        outer loop
            vertex 0.0255434 -0.0261241 -0.000149308
            vertex 0.0355719 -0.00288551 -4.33714e-005
            vertex 0.040229 -0.0170936 0.0100106
        endloop
    endfacet
    facet normal 0.674098 0.165833 -0.719786
        outer loop
            vertex 0.028622 0.0246022 -0.000219184
            vertex 0.0413872 0.0171147 0.0100107
            vertex 0.0355719 -0.00288551 -4.33714e-005
        endloop
    endfacet
    facet normal -0.498659 0.537826 -0.679766
        outer loop
            vertex -0.0186298 0.0410127 0.00961894
            vertex -0.0315622 0.0168104 -4.28676e-005
            vertex -0.0346226 0.0266796 0.0100106
        endloop
    endfacet
    facet normal 0.974126 -0.225343 0.0173013
        outer loop
            vertex 0.0354533 -0.00826433 0.393897
            vertex 0.040229 -0.0170936 0.0100106
            vertex 0.0435986 -0.00252727 0.0100108
        endloop
    endfacet
    facet normal -0.0885409 0.721828 -0.686385
        outer loop
            vertex -0.0186298 0.0410127 0.00961894
            vertex 0.00501709 0.0347542 -1.30806e-005
            vertex -0.0153134 0.0322439 -3.04549e-005
        endloop
    endfacet
endsolid D:/Users/Paul Maroldt/Documents/!StartUp_Repositories/modrob-gen2/ModuleLibrary/L700-I-80-80/L700-I-80-80_convdec.stl_created_by_BoundingMesh