solid D:/Users/Paul Maroldt/Documents/!StartUp_Repositories/modrob-gen2/ModuleLibrary/B-116/B-116_convdec.stl_created_by_BoundingMesh
    facet normal 0.000967574 0.190625 0.981662
        outer loop
            vertex 0.0127661 0.0475068 0.07
            vertex 0.00959351 0.100041 0.0598017
            vertex -0.102552 0.1 0.0599202
        endloop
    endfacet
    facet normal -0.779427 -0.493331 0.386158
        outer loop
            vertex -0.111014 0.067556 0.0598823
            vertex -0.126556 0.0548732 0.0123093
            vertex -0.0447595 -0.0377703 0.0590532
        endloop
    endfacet
    facet normal -0.0094725 0.162572 0.986651
        outer loop
            vertex -0.0248635 0.0208659 0.0740284
            vertex 0.0098058 0.0227385 0.0740527
            vertex 0.0127661 0.0475068 0.07
        endloop
    endfacet
    facet normal -0.168567 -0.0139786 0.985591
        outer loop
            vertex -0.0364697 -0.0282484 0.0713468
            vertex -0.0248635 0.0208659 0.0740284
            vertex -0.113086 0.0895448 0.0599137
        endloop
    endfacet
    facet normal 0 1 0
        outer loop
            vertex -0.102552 0.1 0.0599202
            vertex -0.125688 0.1 4.23998e-020
            vertex -0.125688 0.1 0.0124
        endloop
    endfacet
    facet normal -7.35311e-005 -1.61399e-005 -1
        outer loop
            vertex -0.133712 0.0946384 -1.11743e-007
            vertex -0.0357356 -0.046994 -5.03012e-006
            vertex -0.126486 0.0547945 7.95933e-020
        endloop
    endfacet
    facet normal -0.55558 0.831463 -0.000282072
        outer loop
            vertex -0.133712 0.0946426 0.0123865
            vertex -0.125688 0.1 4.23998e-020
            vertex -0.133712 0.0946384 -1.11743e-007
        endloop
    endfacet
    facet normal 0.000165372 0.000149125 -1
        outer loop
            vertex -0.133712 0.0946384 -1.11743e-007
            vertex 0.020531 -0.07566 5.29396e-023
            vertex -0.0357356 -0.046994 -5.03012e-006
        endloop
    endfacet
    facet normal -2.775e-017 2.08413e-005 -1
        outer loop
            vertex -0.133712 0.0946384 -1.11743e-007
            vertex -0.125688 0.1 4.23998e-020
            vertex 0.0329877 0.1 -4.36084e-018
        endloop
    endfacet
    facet normal 0.35425 -0.856112 0.376269
        outer loop
            vertex 0.020531 -0.07566 0.0124
            vertex 0.0410721 -0.0671603 0.0124
            vertex 0.0192969 -0.0556562 0.0590758
        endloop
    endfacet
    facet normal 0.600982 -0.705739 0.375171
        outer loop
            vertex 0.058 -0.0527451 0.0124
            vertex 0.0399716 -0.0432816 0.0590814
            vertex 0.0410721 -0.0671603 0.0124
        endloop
    endfacet
    facet normal -0.0074394 -0.184633 0.982779
        outer loop
            vertex -0.0173271 -0.0456887 0.07
            vertex 0.00907455 -0.0467525 0.07
            vertex -0.0014504 -0.024883 0.0740289
        endloop
    endfacet
    facet normal -0.87255 -0.318902 0.370078
        outer loop
            vertex -0.111014 0.067556 0.0598823
            vertex -0.131971 0.0698429 0.0124417
            vertex -0.126556 0.0548732 0.0123093
        endloop
    endfacet
    facet normal -0.45131 -0.892245 -0.0147833
        outer loop
            vertex -0.0277366 -0.0520183 0.0590395
            vertex -0.0357356 -0.046994 -5.03012e-006
            vertex 0.020531 -0.07566 0.0124
        endloop
    endfacet
    facet normal 0.636238 0.211912 0.741819
        outer loop
            vertex 0.0393704 0.0269272 0.0704488
            vertex 0.0488632 -2.64267e-006 0.07
            vertex 0.0544285 0.0215782 0.0590619
        endloop
    endfacet
    facet normal 0.00149889 0.000778006 0.999999
        outer loop
            vertex -0.0248635 0.0208659 0.0740284
            vertex -0.0207092 -0.0136167 0.074049
            vertex -0.0014504 -0.024883 0.0740289
        endloop
    endfacet
    facet normal 1 0 0
        outer loop
            vertex 0.058 -0.0527451 0.0124
            vertex 0.058 -0.0527451 6.63896e-019
            vertex 0.058 0.0558587 -9.97023e-019
        endloop
    endfacet
    facet normal 6.58327e-007 3.73036e-007 -1
        outer loop
            vertex -0.133712 0.0946384 -1.11743e-007
            vertex 0.0329877 0.1 -4.36084e-018
            vertex 0.058 0.0558587 -9.97023e-019
        endloop
    endfacet
    facet normal 1 -0 0
        outer loop
            vertex 0.058 -0.0527451 0.0124
            vertex 0.058 0.0558587 -9.97023e-019
            vertex 0.058 0.0558587 0.0124
        endloop
    endfacet
    facet normal 0.954561 0.200575 0.220416
        outer loop
            vertex 0.0589662 1.6408e-005 0.0590312
            vertex 0.058 0.0558587 0.0124
            vertex 0.0544285 0.0215782 0.0590619
        endloop
    endfacet
    facet normal -0.997545 -0.0700299 -4.06512e-005
        outer loop
            vertex -0.133712 0.0946426 0.0123865
            vertex -0.131966 0.0697788 5.98284e-020
            vertex -0.131971 0.0698429 0.0124417
        endloop
    endfacet
    facet normal -0.658203 0.662943 0.356757
        outer loop
            vertex -0.133712 0.0946426 0.0123865
            vertex -0.113086 0.0895448 0.0599137
            vertex -0.102552 0.1 0.0599202
        endloop
    endfacet
    facet normal -0.000365452 1 0.000141106
        outer loop
            vertex -0.102552 0.1 0.0599202
            vertex 0.00959351 0.100041 0.0598017
            vertex -0.125688 0.1 4.23998e-020
        endloop
    endfacet
    facet normal -0.000764688 0.00118278 0.999999
        outer loop
            vertex -0.0248635 0.0208659 0.0740284
            vertex 0.0260442 0.00305117 0.0740884
            vertex 0.0098058 0.0227385 0.0740527
        endloop
    endfacet
    facet normal 0.107828 0.0907332 0.990021
        outer loop
            vertex 0.0393704 0.0269272 0.0704488
            vertex 0.0098058 0.0227385 0.0740527
            vertex 0.0260442 0.00305117 0.0740884
        endloop
    endfacet
    facet normal -0.0892154 0.089271 0.992004
        outer loop
            vertex -0.0248635 0.0208659 0.0740284
            vertex -0.102552 0.1 0.0599202
            vertex -0.113086 0.0895448 0.0599137
        endloop
    endfacet
    facet normal -0.436459 -0.534927 0.723434
        outer loop
            vertex -0.0364697 -0.0282484 0.0713468
            vertex -0.0277366 -0.0520183 0.0590395
            vertex -0.0173271 -0.0456887 0.07
        endloop
    endfacet
    facet normal -0.0264695 -0.656926 0.753491
        outer loop
            vertex -0.0173271 -0.0456887 0.07
            vertex -0.0046789 -0.0587405 0.0590652
            vertex 0.00907455 -0.0467525 0.07
        endloop
    endfacet
    facet normal 0.640711 0.359717 0.678302
        outer loop
            vertex 0.0393704 0.0269272 0.0704488
            vertex 0.0544285 0.0215782 0.0590619
            vertex 0.00959351 0.100041 0.0598017
        endloop
    endfacet
    facet normal 0.870032 0.492996 -1.95385e-006
        outer loop
            vertex 0.0329994 0.0999794 0.0124
            vertex 0.058 0.0558587 0.0124
            vertex 0.0329877 0.1 -4.36084e-018
        endloop
    endfacet
    facet normal -0.912824 -0.086585 0.399068
        outer loop
            vertex -0.111014 0.067556 0.0598823
            vertex -0.113086 0.0895448 0.0599137
            vertex -0.131971 0.0698429 0.0124417
        endloop
    endfacet
    facet normal 0.0932548 -0.727252 0.680006
        outer loop
            vertex 0.0192969 -0.0556562 0.0590758
            vertex 0.00907455 -0.0467525 0.07
            vertex -0.0046789 -0.0587405 0.0590652
        endloop
    endfacet
    facet normal 0.382349 -0.924018 0
        outer loop
            vertex 0.020531 -0.07566 0.0124
            vertex 0.0410721 -0.0671603 7.3286e-020
            vertex 0.0410721 -0.0671603 0.0124
        endloop
    endfacet
    facet normal 0.00598491 0.999981 0.00165568
        outer loop
            vertex 0.0329994 0.0999794 0.0124
            vertex 0.0329877 0.1 -4.36084e-018
            vertex 0.00959351 0.100041 0.0598017
        endloop
    endfacet
    facet normal -0.93916 -0.343465 -0.0031442
        outer loop
            vertex -0.131966 0.0697788 5.98284e-020
            vertex -0.126486 0.0547945 7.95933e-020
            vertex -0.126556 0.0548732 0.0123093
        endloop
    endfacet
    facet normal -1.90256e-020 1 -0.000685608
        outer loop
            vertex 0.0329877 0.1 -4.36084e-018
            vertex -0.125688 0.1 4.23998e-020
            vertex 0.00959351 0.100041 0.0598017
        endloop
    endfacet
    facet normal 0.468073 -0.782213 0.411156
        outer loop
            vertex 0.0399716 -0.0432816 0.0590814
            vertex 0.0192969 -0.0556562 0.0590758
            vertex 0.0410721 -0.0671603 0.0124
        endloop
    endfacet
    facet normal -0.536319 0.802608 0.261116
        outer loop
            vertex -0.133712 0.0946426 0.0123865
            vertex -0.102552 0.1 0.0599202
            vertex -0.125688 0.1 0.0124
        endloop
    endfacet
    facet normal -0.00143107 -0.000721471 0.999999
        outer loop
            vertex -0.0248635 0.0208659 0.0740284
            vertex -0.0014504 -0.024883 0.0740289
            vertex 0.0260442 0.00305117 0.0740884
        endloop
    endfacet
    facet normal -0.917955 -0.0635708 0.391558
        outer loop
            vertex -0.133712 0.0946426 0.0123865
            vertex -0.131971 0.0698429 0.0124417
            vertex -0.113086 0.0895448 0.0599137
        endloop
    endfacet
    facet normal 0.62893 -0.209976 0.74857
        outer loop
            vertex 0.0488632 -2.64267e-006 0.07
            vertex 0.0415784 -0.0218224 0.07
            vertex 0.0540058 -0.0235582 0.0590719
        endloop
    endfacet
    facet normal 0.117109 -0.911696 0.393821
        outer loop
            vertex 0.020531 -0.07566 0.0124
            vertex 0.0192969 -0.0556562 0.0590758
            vertex -0.0046789 -0.0587405 0.0590652
        endloop
    endfacet
    facet normal 0.138039 -0.10373 0.98498
        outer loop
            vertex 0.0296833 -0.0376518 0.07
            vertex 0.0415784 -0.0218224 0.07
            vertex 0.0163084 -0.0172867 0.0740191
        endloop
    endfacet
    facet normal -0.453949 -0.891027 -0
        outer loop
            vertex 0.020531 -0.07566 0.0124
            vertex -0.0357356 -0.046994 -5.03012e-006
            vertex 0.020531 -0.07566 5.29396e-023
        endloop
    endfacet
    facet normal 0.0649171 -0.150491 0.986478
        outer loop
            vertex 0.00907455 -0.0467525 0.07
            vertex 0.0163084 -0.0172867 0.0740191
            vertex -0.0014504 -0.024883 0.0740289
        endloop
    endfacet
    facet normal -0.600504 -0.383265 0.701786
        outer loop
            vertex -0.111014 0.067556 0.0598823
            vertex -0.0447595 -0.0377703 0.0590532
            vertex -0.0364697 -0.0282484 0.0713468
        endloop
    endfacet
    facet normal 0.182365 0.0479174 0.982063
        outer loop
            vertex 0.0393704 0.0269272 0.0704488
            vertex 0.0260442 0.00305117 0.0740884
            vertex 0.0488632 -2.64267e-006 0.07
        endloop
    endfacet
    facet normal -0.997543 -0.0700618 2.37683e-005
        outer loop
            vertex -0.133712 0.0946426 0.0123865
            vertex -0.133712 0.0946384 -1.11743e-007
            vertex -0.131966 0.0697788 5.98284e-020
        endloop
    endfacet
    facet normal -0.0111514 0.164883 0.98625
        outer loop
            vertex -0.0248635 0.0208659 0.0740284
            vertex 0.0127661 0.0475068 0.07
            vertex -0.102552 0.1 0.0599202
        endloop
    endfacet
    facet normal -0.940363 -0.340171 0.00137408
        outer loop
            vertex -0.131971 0.0698429 0.0124417
            vertex -0.131966 0.0697788 5.98284e-020
            vertex -0.126556 0.0548732 0.0123093
        endloop
    endfacet
    facet normal 0.382349 -0.924018 0
        outer loop
            vertex 0.020531 -0.07566 0.0124
            vertex 0.020531 -0.07566 5.29396e-023
            vertex 0.0410721 -0.0671603 7.3286e-020
        endloop
    endfacet
    facet normal 1.97495e-007 -4.77284e-007 -1
        outer loop
            vertex -0.133712 0.0946384 -1.11743e-007
            vertex 0.0410721 -0.0671603 7.3286e-020
            vertex 0.020531 -0.07566 5.29396e-023
        endloop
    endfacet
    facet normal 0.54776 -0.411617 0.728375
        outer loop
            vertex 0.0399716 -0.0432816 0.0590814
            vertex 0.0415784 -0.0218224 0.07
            vertex 0.0296833 -0.0376518 0.07
        endloop
    endfacet
    facet normal -0.216985 -0.74185 0.634489
        outer loop
            vertex -0.0173271 -0.0456887 0.07
            vertex -0.0277366 -0.0520183 0.0590395
            vertex -0.0046789 -0.0587405 0.0590652
        endloop
    endfacet
    facet normal -0.641677 -0.766669 0.0216921
        outer loop
            vertex -0.0277366 -0.0520183 0.0590395
            vertex -0.0447595 -0.0377703 0.0590532
            vertex -0.0357356 -0.046994 -5.03012e-006
        endloop
    endfacet
    facet normal 3.06325e-007 -3.5972e-007 -1
        outer loop
            vertex -0.133712 0.0946384 -1.11743e-007
            vertex 0.058 -0.0527451 6.63896e-019
            vertex 0.0410721 -0.0671603 7.3286e-020
        endloop
    endfacet
    facet normal 5.82869e-007 -1.52934e-017 -1
        outer loop
            vertex -0.133712 0.0946384 -1.11743e-007
            vertex 0.058 0.0558587 -9.97023e-019
            vertex 0.058 -0.0527451 6.63896e-019
        endloop
    endfacet
    facet normal 0.727142 -0.151844 0.669483
        outer loop
            vertex 0.0488632 -2.64267e-006 0.07
            vertex 0.0540058 -0.0235582 0.0590719
            vertex 0.0589662 1.6408e-005 0.0590312
        endloop
    endfacet
    facet normal 0.72686 0.152015 0.669751
        outer loop
            vertex 0.0488632 -2.64267e-006 0.07
            vertex 0.0589662 1.6408e-005 0.0590312
            vertex 0.0544285 0.0215782 0.0590619
        endloop
    endfacet
    facet normal 0.0987968 0.149176 0.983863
        outer loop
            vertex 0.0393704 0.0269272 0.0704488
            vertex 0.0127661 0.0475068 0.07
            vertex 0.0098058 0.0227385 0.0740527
        endloop
    endfacet
    facet normal 0.268564 -0.60817 0.746995
        outer loop
            vertex 0.0192969 -0.0556562 0.0590758
            vertex 0.0296833 -0.0376518 0.07
            vertex 0.00907455 -0.0467525 0.07
        endloop
    endfacet
    facet normal 0.168767 -0.0563451 0.984044
        outer loop
            vertex 0.0488632 -2.64267e-006 0.07
            vertex 0.0260442 0.00305117 0.0740884
            vertex 0.0415784 -0.0218224 0.07
        endloop
    endfacet
    facet normal -0.746381 -0.665442 -0.010116
        outer loop
            vertex -0.0357356 -0.046994 -5.03012e-006
            vertex -0.0447595 -0.0377703 0.0590532
            vertex -0.126486 0.0547945 7.95933e-020
        endloop
    endfacet
    facet normal 0.135776 0.1967 0.971017
        outer loop
            vertex 0.0393704 0.0269272 0.0704488
            vertex 0.00959351 0.100041 0.0598017
            vertex 0.0127661 0.0475068 0.07
        endloop
    endfacet
    facet normal 0.64834 -0.761351 0
        outer loop
            vertex 0.058 -0.0527451 6.63896e-019
            vertex 0.0410721 -0.0671603 0.0124
            vertex 0.0410721 -0.0671603 7.3286e-020
        endloop
    endfacet
    facet normal 0.999785 0 -0.0207156
        outer loop
            vertex 0.0589662 1.6408e-005 0.0590312
            vertex 0.058 -0.0527451 0.0124
            vertex 0.058 0.0558587 0.0124
        endloop
    endfacet
    facet normal 0.64834 -0.761351 0
        outer loop
            vertex 0.058 -0.0527451 0.0124
            vertex 0.0410721 -0.0671603 0.0124
            vertex 0.058 -0.0527451 6.63896e-019
        endloop
    endfacet
    facet normal -0.27482 -0.941917 0.193047
        outer loop
            vertex -0.0277366 -0.0520183 0.0590395
            vertex 0.020531 -0.07566 0.0124
            vertex -0.0046789 -0.0587405 0.0590652
        endloop
    endfacet
    facet normal -0.174334 -0.0178332 0.984525
        outer loop
            vertex -0.111014 0.067556 0.0598823
            vertex -0.0364697 -0.0282484 0.0713468
            vertex -0.113086 0.0895448 0.0599137
        endloop
    endfacet
    facet normal 0.376647 -0.629586 0.679528
        outer loop
            vertex 0.0399716 -0.0432816 0.0590814
            vertex 0.0296833 -0.0376518 0.07
            vertex 0.0192969 -0.0556562 0.0590758
        endloop
    endfacet
    facet normal 0.748007 -0.532054 0.396742
        outer loop
            vertex 0.058 -0.0527451 0.0124
            vertex 0.0540058 -0.0235582 0.0590719
            vertex 0.0399716 -0.0432816 0.0590814
        endloop
    endfacet
    facet normal 0.143992 -0.0722927 0.986935
        outer loop
            vertex 0.0260442 0.00305117 0.0740884
            vertex 0.0163084 -0.0172867 0.0740191
            vertex 0.0415784 -0.0218224 0.07
        endloop
    endfacet
    facet normal 0.870032 0.492996 0
        outer loop
            vertex 0.0329877 0.1 -4.36084e-018
            vertex 0.058 0.0558587 0.0124
            vertex 0.058 0.0558587 -9.97023e-019
        endloop
    endfacet
    facet normal 0.570893 -0.405875 0.713686
        outer loop
            vertex 0.0540058 -0.0235582 0.0590719
            vertex 0.0415784 -0.0218224 0.07
            vertex 0.0399716 -0.0432816 0.0590814
        endloop
    endfacet
    facet normal 0.799536 0.453152 0.394204
        outer loop
            vertex 0.0329994 0.0999794 0.0124
            vertex 0.00959351 0.100041 0.0598017
            vertex 0.0544285 0.0215782 0.0590619
        endloop
    endfacet
    facet normal 0.95731 -0.201072 0.20767
        outer loop
            vertex 0.0589662 1.6408e-005 0.0590312
            vertex 0.0540058 -0.0235582 0.0590719
            vertex 0.058 -0.0527451 0.0124
        endloop
    endfacet
    facet normal 0.0666314 -0.150888 0.986303
        outer loop
            vertex 0.0296833 -0.0376518 0.07
            vertex 0.0163084 -0.0172867 0.0740191
            vertex 0.00907455 -0.0467525 0.07
        endloop
    endfacet
    facet normal 0.799626 0.453101 0.394077
        outer loop
            vertex 0.0329994 0.0999794 0.0124
            vertex 0.0544285 0.0215782 0.0590619
            vertex 0.058 0.0558587 0.0124
        endloop
    endfacet
    facet normal 0.00252721 -0.00461743 0.999986
        outer loop
            vertex 0.0260442 0.00305117 0.0740884
            vertex -0.0014504 -0.024883 0.0740289
            vertex 0.0163084 -0.0172867 0.0740191
        endloop
    endfacet
    facet normal -0.447482 -0.535321 0.716374
        outer loop
            vertex -0.0364697 -0.0282484 0.0713468
            vertex -0.0447595 -0.0377703 0.0590532
            vertex -0.0277366 -0.0520183 0.0590395
        endloop
    endfacet
    facet normal -1.52124e-005 -5.56339e-006 -1
        outer loop
            vertex -0.133712 0.0946384 -1.11743e-007
            vertex -0.126486 0.0547945 7.95933e-020
            vertex -0.131966 0.0697788 5.98284e-020
        endloop
    endfacet
    facet normal -0.74962 -0.661868 -3.08414e-005
        outer loop
            vertex -0.0447595 -0.0377703 0.0590532
            vertex -0.126556 0.0548732 0.0123093
            vertex -0.126486 0.0547945 7.95933e-020
        endloop
    endfacet
    facet normal -0.076679 -0.132839 0.988167
        outer loop
            vertex -0.0173271 -0.0456887 0.07
            vertex -0.0014504 -0.024883 0.0740289
            vertex -0.0207092 -0.0136167 0.074049
        endloop
    endfacet
    facet normal -0.0489315 -0.13018 0.990282
        outer loop
            vertex -0.0364697 -0.0282484 0.0713468
            vertex -0.0173271 -0.0456887 0.07
            vertex -0.0207092 -0.0136167 0.074049
        endloop
    endfacet
    facet normal -0.152863 -0.0178259 0.988087
        outer loop
            vertex -0.0364697 -0.0282484 0.0713468
            vertex -0.0207092 -0.0136167 0.074049
            vertex -0.0248635 0.0208659 0.0740284
        endloop
    endfacet
    facet normal -0.555279 0.831664 0
        outer loop
            vertex -0.133712 0.0946426 0.0123865
            vertex -0.125688 0.1 0.0124
            vertex -0.125688 0.1 4.23998e-020
        endloop
    endfacet
endsolid D:/Users/Paul Maroldt/Documents/!StartUp_Repositories/modrob-gen2/ModuleLibrary/B-116/B-116_convdec.stl_created_by_BoundingMesh