solid D:/Users/Paul Maroldt/Documents/!StartUp_Repositories/modrob-gen2/ModuleLibrary/L500-L-80-80/L500-L-80-80_convdec.stl_created_by_BoundingMesh
    facet normal 0.846946 -0.127241 0.516229
        outer loop
            vertex 0.504353 -1.23774e-005 0.0807593
            vertex 0.5 0.00590904 0.0893605
            vertex 0.5 -0.0161157 0.0839318
        endloop
    endfacet
    facet normal -1 -3.92182e-007 -0.000121214
        outer loop
            vertex 0.170752 0.0114047 0.0194267
            vertex 0.170752 -0.00800564 0.0194895
            vertex 0.170749 0.034344 0.0441848
        endloop
    endfacet
    facet normal 0.873074 -0.456312 0.171817
        outer loop
            vertex 0.5 -0.0367914 0.0514996
            vertex 0.504141 -0.0253965 0.0607202
            vertex 0.5 -0.0286451 0.0731346
        endloop
    endfacet
    facet normal -0.0282886 -0.199427 0.979504
        outer loop
            vertex 0.170748 -0.016775 0.0842382
            vertex 0.489987 -0.0158005 0.0936564
            vertex 0.489987 -0.00104162 0.0966613
        endloop
    endfacet
    facet normal 0.694549 -0.469654 0.545001
        outer loop
            vertex 0.489987 -0.028442 0.0860702
            vertex 0.5 -0.0286451 0.0731346
            vertex 0.5 -0.0161157 0.0839318
        endloop
    endfacet
    facet normal 0.674912 -0.69196 0.256292
        outer loop
            vertex 0.49004 -0.043728 0.0586408
            vertex 0.5 -0.0286451 0.0731346
            vertex 0.489987 -0.0378254 0.0747168
        endloop
    endfacet
    facet normal 0.955133 0.188565 0.228396
        outer loop
            vertex 0.504353 -1.23774e-005 0.0807593
            vertex 0.50407 0.0212732 0.0643693
            vertex 0.5 0.0303016 0.0739357
        endloop
    endfacet
    facet normal -0.0313154 0.834988 -0.549376
        outer loop
            vertex 0.170749 0.034344 0.0441848
            vertex 0.489987 0.0344829 0.0261988
            vertex 0.170752 0.0249401 0.0298918
        endloop
    endfacet
    facet normal -0.0235948 0.915628 0.401334
        outer loop
            vertex 0.170744 0.0325166 0.067138
            vertex 0.489987 0.0364159 0.0770105
            vertex 0.489987 0.0428886 0.0622433
        endloop
    endfacet
    facet normal -0.0249057 -0.995302 -0.0935578
        outer loop
            vertex 0.490001 -0.0417677 0.0377968
            vertex 0.49004 -0.043728 0.0586408
            vertex 0.170752 -0.0344004 0.044407
        endloop
    endfacet
    facet normal 0.999995 0.00289508 -0.00117778
        outer loop
            vertex 0.504141 -0.0253965 0.0607202
            vertex 0.504089 -0.0178336 0.0351808
            vertex 0.504023 0.00237973 0.0288445
        endloop
    endfacet
    facet normal -0.0298707 0.737581 0.674598
        outer loop
            vertex 0.170744 0.0325166 0.067138
            vertex 0.170752 0.0209698 0.0797632
            vertex 0.489987 0.0364159 0.0770105
        endloop
    endfacet
    facet normal 0.945736 -0.206168 0.251153
        outer loop
            vertex 0.504353 -1.23774e-005 0.0807593
            vertex 0.5 -0.0161157 0.0839318
            vertex 0.504141 -0.0253965 0.0607202
        endloop
    endfacet
    facet normal 0.999965 -0.00516738 -0.00659389
        outer loop
            vertex 0.504353 -1.23774e-005 0.0807593
            vertex 0.504023 0.00237973 0.0288445
            vertex 0.504208 0.0232102 0.0405777
        endloop
    endfacet
    facet normal -0.0269252 0.881672 -0.471093
        outer loop
            vertex 0.489987 0.0431155 0.0423551
            vertex 0.489987 0.0344829 0.0261988
            vertex 0.170749 0.034344 0.0441848
        endloop
    endfacet
    facet normal -0.0294044 0.729502 0.683346
        outer loop
            vertex 0.489987 0.0263365 0.0877707
            vertex 0.489987 0.0364159 0.0770105
            vertex 0.170752 0.0209698 0.0797632
        endloop
    endfacet
    facet normal 0.632484 -0.398565 0.664161
        outer loop
            vertex 0.489987 -0.028442 0.0860702
            vertex 0.5 -0.0161157 0.0839318
            vertex 0.489987 -0.0158005 0.0936564
        endloop
    endfacet
    facet normal 0.692697 0.651344 -0.309713
        outer loop
            vertex 0.5 0.0229781 0.0223999
            vertex 0.489987 0.0431155 0.0423551
            vertex 0.5 0.0354828 0.048698
        endloop
    endfacet
    facet normal 0.563747 0.756471 0.331573
        outer loop
            vertex 0.5 0.0303016 0.0739357
            vertex 0.489987 0.0428886 0.0622433
            vertex 0.489987 0.0364159 0.0770105
        endloop
    endfacet
    facet normal -0.0300569 0.478571 0.877534
        outer loop
            vertex 0.170748 0.00594916 0.0879547
            vertex 0.489987 0.0263365 0.0877707
            vertex 0.170752 0.0209698 0.0797632
        endloop
    endfacet
    facet normal -1 -4.40482e-005 -8.11436e-005
        outer loop
            vertex 0.170752 -0.0344004 0.044407
            vertex 0.170748 -0.016775 0.0842382
            vertex 0.170749 0.034344 0.0441848
        endloop
    endfacet
    facet normal 0.719451 -0.627848 -0.296979
        outer loop
            vertex 0.490001 -0.0417677 0.0377968
            vertex 0.5 -0.0258029 0.0282686
            vertex 0.5 -0.0367914 0.0514996
        endloop
    endfacet
    facet normal 0.602619 -0.219349 -0.767292
        outer loop
            vertex 0.5 -0.00573141 0.0177343
            vertex 0.489987 -0.0189325 0.0136441
            vertex 0.489987 -0.00504527 0.00967409
        endloop
    endfacet
    facet normal -0.0311551 0.996362 0.0793178
        outer loop
            vertex 0.170749 0.034344 0.0441848
            vertex 0.170744 0.0325166 0.067138
            vertex 0.489987 0.0428886 0.0622433
        endloop
    endfacet
    facet normal -0.0306143 -0.838542 -0.543976
        outer loop
            vertex 0.490001 -0.0417677 0.0377968
            vertex 0.170752 -0.0344004 0.044407
            vertex 0.170752 -0.0223551 0.0258391
        endloop
    endfacet
    facet normal 0.999794 0.0189474 0.00734364
        outer loop
            vertex 0.504353 -1.23774e-005 0.0807593
            vertex 0.504208 0.0232102 0.0405777
            vertex 0.50407 0.0212732 0.0643693
        endloop
    endfacet
    facet normal 0.443551 0.604523 -0.661675
        outer loop
            vertex 0.5 0.0229781 0.0223999
            vertex 0.489988 0.0235848 0.0162427
            vertex 0.489987 0.0344829 0.0261988
        endloop
    endfacet
    facet normal 0.609539 -0.651411 -0.451803
        outer loop
            vertex 0.490001 -0.0417677 0.0377968
            vertex 0.489987 -0.0309613 0.0221972
            vertex 0.5 -0.0258029 0.0282686
        endloop
    endfacet
    facet normal -0.0237192 -0.514416 0.857213
        outer loop
            vertex 0.170748 -0.016775 0.0842382
            vertex 0.489987 -0.028442 0.0860702
            vertex 0.489987 -0.0158005 0.0936564
        endloop
    endfacet
    facet normal 0.691086 0.386295 0.610882
        outer loop
            vertex 0.5 0.0303016 0.0739357
            vertex 0.489987 0.0263365 0.0877707
            vertex 0.5 0.00590904 0.0893605
        endloop
    endfacet
    facet normal 0.508091 0.335942 -0.793087
        outer loop
            vertex 0.5 0.0229781 0.0223999
            vertex 0.489988 0.00999258 0.0104852
            vertex 0.489988 0.0235848 0.0162427
        endloop
    endfacet
    facet normal -0.0273989 0.99956 0.0114037
        outer loop
            vertex 0.489987 0.0431155 0.0423551
            vertex 0.170749 0.034344 0.0441848
            vertex 0.489987 0.0428886 0.0622433
        endloop
    endfacet
    facet normal -0.0286456 -0.821702 -0.569197
        outer loop
            vertex 0.490001 -0.0417677 0.0377968
            vertex 0.170752 -0.0223551 0.0258391
            vertex 0.489987 -0.0309613 0.0221972
        endloop
    endfacet
    facet normal 0.923218 0.0616402 -0.3793
        outer loop
            vertex 0.5 0.0229781 0.0223999
            vertex 0.504023 0.00237973 0.0288445
            vertex 0.5 -0.00573141 0.0177343
        endloop
    endfacet
    facet normal 0.93541 0.346341 0.0711025
        outer loop
            vertex 0.5 0.0303016 0.0739357
            vertex 0.50407 0.0212732 0.0643693
            vertex 0.5 0.0354828 0.048698
        endloop
    endfacet
    facet normal 0.941096 -0.220738 0.256151
        outer loop
            vertex 0.504141 -0.0253965 0.0607202
            vertex 0.5 -0.0161157 0.0839318
            vertex 0.5 -0.0286451 0.0731346
        endloop
    endfacet
    facet normal 0.640758 0.677143 -0.36181
        outer loop
            vertex 0.5 0.0229781 0.0223999
            vertex 0.489987 0.0344829 0.0261988
            vertex 0.489987 0.0431155 0.0423551
        endloop
    endfacet
    facet normal -1 0 0
        outer loop
            vertex 0.170752 -0.0344004 0.044407
            vertex 0.170752 -0.00800564 0.0194895
            vertex 0.170752 -0.0223551 0.0258391
        endloop
    endfacet
    facet normal 0.927683 -0.337516 -0.159649
        outer loop
            vertex 0.5 -0.0367914 0.0514996
            vertex 0.5 -0.0258029 0.0282686
            vertex 0.504089 -0.0178336 0.0351808
        endloop
    endfacet
    facet normal 0.956516 -0.27914 -0.0846075
        outer loop
            vertex 0.5 -0.0367914 0.0514996
            vertex 0.504089 -0.0178336 0.0351808
            vertex 0.504141 -0.0253965 0.0607202
        endloop
    endfacet
    facet normal -1 -4.39363e-005 -4.65411e-005
        outer loop
            vertex 0.170752 -0.0344004 0.044407
            vertex 0.170749 0.034344 0.0441848
            vertex 0.170752 -0.00800564 0.0194895
        endloop
    endfacet
    facet normal 0.92291 0.205776 0.325412
        outer loop
            vertex 0.504353 -1.23774e-005 0.0807593
            vertex 0.5 0.0303016 0.0739357
            vertex 0.5 0.00590904 0.0893605
        endloop
    endfacet
    facet normal 0.68314 -0.174772 0.709066
        outer loop
            vertex 0.5 0.00590904 0.0893605
            vertex 0.489987 -0.0158005 0.0936564
            vertex 0.5 -0.0161157 0.0839318
        endloop
    endfacet
    facet normal 0.648956 -0.15179 0.74553
        outer loop
            vertex 0.5 0.00590904 0.0893605
            vertex 0.489987 -0.00104162 0.0966613
            vertex 0.489987 -0.0158005 0.0936564
        endloop
    endfacet
    facet normal -0.999998 0.001222 0.00175142
        outer loop
            vertex 0.170744 0.0325166 0.067138
            vertex 0.170748 0.00594916 0.0879547
            vertex 0.170752 0.0209698 0.0797632
        endloop
    endfacet
    facet normal -1 -0.00034206 -0.000244714
        outer loop
            vertex 0.170749 0.034344 0.0441848
            vertex 0.170748 0.00594916 0.0879547
            vertex 0.170744 0.0325166 0.067138
        endloop
    endfacet
    facet normal -1 3.37265e-006 -2.06217e-005
        outer loop
            vertex 0.170749 0.034344 0.0441848
            vertex 0.170748 -0.016775 0.0842382
            vertex 0.170748 0.00594916 0.0879547
        endloop
    endfacet
    facet normal -0.0240584 0.389926 -0.920532
        outer loop
            vertex 0.170752 0.0114047 0.0194267
            vertex 0.489988 0.0235848 0.0162427
            vertex 0.489988 0.00999258 0.0104852
        endloop
    endfacet
    facet normal 0.874752 0.437617 -0.208086
        outer loop
            vertex 0.5 0.0229781 0.0223999
            vertex 0.5 0.0354828 0.048698
            vertex 0.504208 0.0232102 0.0405777
        endloop
    endfacet
    facet normal -0.0249121 -0.579312 -0.814725
        outer loop
            vertex 0.170752 -0.0223551 0.0258391
            vertex 0.489987 -0.0189325 0.0136441
            vertex 0.489987 -0.0309613 0.0221972
        endloop
    endfacet
    facet normal -0.999999 0.00106274 -0.000570898
        outer loop
            vertex 0.170752 -0.0344004 0.044407
            vertex 0.170741 -0.0324245 0.0673479
            vertex 0.170748 -0.016775 0.0842382
        endloop
    endfacet
    facet normal 0.923221 -0.178579 -0.340254
        outer loop
            vertex 0.5 -0.0258029 0.0282686
            vertex 0.5 -0.00573141 0.0177343
            vertex 0.504089 -0.0178336 0.0351808
        endloop
    endfacet
    facet normal -0.0277345 -0.770515 0.636818
        outer loop
            vertex 0.170741 -0.0324245 0.0673479
            vertex 0.489987 -0.0378254 0.0747168
            vertex 0.489987 -0.028442 0.0860702
        endloop
    endfacet
    facet normal -0.0238288 -0.938483 0.344503
        outer loop
            vertex 0.49004 -0.043728 0.0586408
            vertex 0.489987 -0.0378254 0.0747168
            vertex 0.170741 -0.0324245 0.0673479
        endloop
    endfacet
    facet normal 0.602552 0.798028 0.00910452
        outer loop
            vertex 0.489987 0.0431155 0.0423551
            vertex 0.489987 0.0428886 0.0622433
            vertex 0.5 0.0354828 0.048698
        endloop
    endfacet
    facet normal -1 0.000331412 -0.000428643
        outer loop
            vertex 0.170752 0.0114047 0.0194267
            vertex 0.170749 0.034344 0.0441848
            vertex 0.170752 0.0249401 0.0298918
        endloop
    endfacet
    facet normal -0.0288771 0.460185 0.887353
        outer loop
            vertex 0.170748 0.00594916 0.0879547
            vertex 0.489987 0.0132483 0.0945583
            vertex 0.489987 0.0263365 0.0877707
        endloop
    endfacet
    facet normal 0.548268 0.610349 0.571732
        outer loop
            vertex 0.5 0.0303016 0.0739357
            vertex 0.489987 0.0364159 0.0770105
            vertex 0.489987 0.0263365 0.0877707
        endloop
    endfacet
    facet normal 0.951509 0.30611 0.0304429
        outer loop
            vertex 0.504208 0.0232102 0.0405777
            vertex 0.5 0.0354828 0.048698
            vertex 0.50407 0.0212732 0.0643693
        endloop
    endfacet
    facet normal 0.697874 -0.332843 -0.634182
        outer loop
            vertex 0.5 -0.0258029 0.0282686
            vertex 0.489987 -0.0189325 0.0136441
            vertex 0.5 -0.00573141 0.0177343
        endloop
    endfacet
    facet normal 0.999974 -0.00321744 -0.0065041
        outer loop
            vertex 0.504353 -1.23774e-005 0.0807593
            vertex 0.504141 -0.0253965 0.0607202
            vertex 0.504023 0.00237973 0.0288445
        endloop
    endfacet
    facet normal -0.0270036 -0.274764 -0.961133
        outer loop
            vertex 0.489987 -0.0189325 0.0136441
            vertex 0.170752 -0.00800564 0.0194895
            vertex 0.489987 -0.00504527 0.00967409
        endloop
    endfacet
    facet normal -0.0306937 -0.733185 0.679336
        outer loop
            vertex 0.170741 -0.0324245 0.0673479
            vertex 0.489987 -0.028442 0.0860702
            vertex 0.170748 -0.016775 0.0842382
        endloop
    endfacet
    facet normal -0.0277195 0.0538408 -0.998165
        outer loop
            vertex 0.170752 0.0114047 0.0194267
            vertex 0.489988 0.00999258 0.0104852
            vertex 0.489987 -0.00504527 0.00967409
        endloop
    endfacet
    facet normal -0.030702 -0.0032339 -0.999523
        outer loop
            vertex 0.170752 0.0114047 0.0194267
            vertex 0.489987 -0.00504527 0.00967409
            vertex 0.170752 -0.00800564 0.0194895
        endloop
    endfacet
    facet normal 0.694992 0.115335 -0.709707
        outer loop
            vertex 0.5 0.0229781 0.0223999
            vertex 0.5 -0.00573141 0.0177343
            vertex 0.489988 0.00999258 0.0104852
        endloop
    endfacet
    facet normal -0.0304358 -0.161329 0.986431
        outer loop
            vertex 0.170748 -0.016775 0.0842382
            vertex 0.489987 -0.00104162 0.0966613
            vertex 0.170748 0.00594916 0.0879547
        endloop
    endfacet
    facet normal 0.628187 -0.59974 0.495675
        outer loop
            vertex 0.489987 -0.028442 0.0860702
            vertex 0.489987 -0.0378254 0.0747168
            vertex 0.5 -0.0286451 0.0731346
        endloop
    endfacet
    facet normal 0.623868 0.359799 0.693782
        outer loop
            vertex 0.5 0.00590904 0.0893605
            vertex 0.489987 0.0263365 0.0877707
            vertex 0.489987 0.0132483 0.0945583
        endloop
    endfacet
    facet normal 0.527119 0.123728 0.840736
        outer loop
            vertex 0.5 0.00590904 0.0893605
            vertex 0.489987 0.0132483 0.0945583
            vertex 0.489987 -0.00104162 0.0966613
        endloop
    endfacet
    facet normal 0.670777 -0.694087 0.261347
        outer loop
            vertex 0.5 -0.0367914 0.0514996
            vertex 0.5 -0.0286451 0.0731346
            vertex 0.49004 -0.043728 0.0586408
        endloop
    endfacet
    facet normal -0.0237873 0.145557 0.989064
        outer loop
            vertex 0.170748 0.00594916 0.0879547
            vertex 0.489987 -0.00104162 0.0966613
            vertex 0.489987 0.0132483 0.0945583
        endloop
    endfacet
    facet normal -0.0305808 -0.404462 -0.914043
        outer loop
            vertex 0.170752 -0.0223551 0.0258391
            vertex 0.170752 -0.00800564 0.0194895
            vertex 0.489987 -0.0189325 0.0136441
        endloop
    endfacet
    facet normal 0.530209 -0.844049 -0.080372
        outer loop
            vertex 0.490001 -0.0417677 0.0377968
            vertex 0.5 -0.0367914 0.0514996
            vertex 0.49004 -0.043728 0.0586408
        endloop
    endfacet
    facet normal 0.705884 0.693856 0.142446
        outer loop
            vertex 0.5 0.0303016 0.0739357
            vertex 0.5 0.0354828 0.048698
            vertex 0.489987 0.0428886 0.0622433
        endloop
    endfacet
    facet normal 0.967055 0.118359 -0.225378
        outer loop
            vertex 0.5 0.0229781 0.0223999
            vertex 0.504208 0.0232102 0.0405777
            vertex 0.504023 0.00237973 0.0288445
        endloop
    endfacet
    facet normal -0.0286909 0.674199 -0.737992
        outer loop
            vertex 0.489988 0.0235848 0.0162427
            vertex 0.170752 0.0249401 0.0298918
            vertex 0.489987 0.0344829 0.0261988
        endloop
    endfacet
    facet normal 0.955191 -0.0856929 -0.283314
        outer loop
            vertex 0.5 -0.00573141 0.0177343
            vertex 0.504023 0.00237973 0.0288445
            vertex 0.504089 -0.0178336 0.0351808
        endloop
    endfacet
    facet normal 0.6212 -0.45412 -0.638659
        outer loop
            vertex 0.5 -0.0258029 0.0282686
            vertex 0.489987 -0.0309613 0.0221972
            vertex 0.489987 -0.0189325 0.0136441
        endloop
    endfacet
    facet normal -0.032913 -0.995773 0.0857502
        outer loop
            vertex 0.170752 -0.0344004 0.044407
            vertex 0.49004 -0.043728 0.0586408
            vertex 0.170741 -0.0324245 0.0673479
        endloop
    endfacet
    facet normal 0.628244 0.0418615 -0.776889
        outer loop
            vertex 0.5 -0.00573141 0.0177343
            vertex 0.489987 -0.00504527 0.00967409
            vertex 0.489988 0.00999258 0.0104852
        endloop
    endfacet
    facet normal -0.0312126 0.611366 -0.790732
        outer loop
            vertex 0.170752 0.0114047 0.0194267
            vertex 0.170752 0.0249401 0.0298918
            vertex 0.489988 0.0235848 0.0162427
        endloop
    endfacet
    facet normal 0.153704 0.733269 -0.662338
        outer loop
            vertex -0.00466853 0.0437903 0.00870952
            vertex 0.170754 0.0216878 0.0249491
            vertex -0.00341399 0.035616 -4.90466e-005
        endloop
    endfacet
    facet normal 0.149684 -0.00319811 -0.988729
        outer loop
            vertex 0.170761 -0.0116205 0.0195025
            vertex 0.0420421 -0.00320211 -1.15781e-005
            vertex 0.170752 0.00548788 0.0194458
        endloop
    endfacet
    facet normal -0.000912786 0.999884 0.0151731
        outer loop
            vertex -0.00466853 0.0437903 0.00870952
            vertex -0.00816115 0.0429936 0.0610006
            vertex 0.0475167 0.0431047 0.0570288
        endloop
    endfacet
    facet normal -0.479892 -0.6116 -0.629006
        outer loop
            vertex -0.0325319 -0.0290597 0.01001
            vertex -0.0153057 -0.0322486 -3.18435e-005
            vertex -0.021074 -0.0380321 0.00999246
        endloop
    endfacet
    facet normal -0.304589 -0.738604 -0.601406
        outer loop
            vertex -0.00462699 -0.0438291 0.00878215
            vertex -0.021074 -0.0380321 0.00999246
            vertex -0.0153057 -0.0322486 -3.18435e-005
        endloop
    endfacet
    facet normal 0.0649857 0.996311 -0.0560485
        outer loop
            vertex -0.00466853 0.0437903 0.00870952
            vertex 0.0475167 0.0431047 0.0570288
            vertex 0.17076 0.0343435 0.0441859
        endloop
    endfacet
    facet normal -0.298388 0.676073 -0.673713
        outer loop
            vertex -0.00466853 0.0437903 0.00870952
            vertex -0.00341399 0.035616 -4.90466e-005
            vertex -0.0189676 0.03877 0.0100047
        endloop
    endfacet
    facet normal 0.0777788 -0.160912 0.983899
        outer loop
            vertex 0.170772 -0.0167743 0.0842369
            vertex 0.170752 0.000109807 0.0869998
            vertex 0.0417485 -0.00568938 0.0962493
        endloop
    endfacet
    facet normal -0.768973 -0.000524386 0.639281
        outer loop
            vertex -0.0304123 -0.0313146 0.056216
            vertex -0.0184553 0.0392173 0.0706566
            vertex -0.0301985 0.0316188 0.0565248
        endloop
    endfacet
    facet normal -0.083324 -0.0339319 0.995945
        outer loop
            vertex 0.0385259 0.0086462 0.0964681
            vertex 0.0233456 -0.0137713 0.0944343
            vertex 0.0417485 -0.00568938 0.0962493
        endloop
    endfacet
    facet normal -1 0 0
        outer loop
            vertex 0.170752 -0.0250889 0.0300533
            vertex 0.170752 -0.0311802 0.039443
            vertex 0.170752 -0.0267492 0.0326127
        endloop
    endfacet
    facet normal 0.00146639 0.000751909 -0.999999
        outer loop
            vertex 0.0420421 -0.00320211 -1.15781e-005
            vertex -0.00341399 0.035616 -4.90466e-005
            vertex 0.0210487 0.0299325 -1.74483e-005
        endloop
    endfacet
    facet normal 0.0635838 0.365975 0.92845
        outer loop
            vertex 0.0619003 0.0271937 0.0875563
            vertex 0.0385259 0.0086462 0.0964681
            vertex 0.170764 0.016976 0.0841285
        endloop
    endfacet
    facet normal -0.0159193 0.554921 0.831751
        outer loop
            vertex 0.0619003 0.0271937 0.0875563
            vertex -0.00631101 0.0334754 0.0820598
            vertex 0.0171652 0.0180806 0.0927801
        endloop
    endfacet
    facet normal -0.0157812 0.886198 0.463038
        outer loop
            vertex -0.00631101 0.0334754 0.0820598
            vertex 0.0434182 0.0399585 0.0713468
            vertex -0.0184553 0.0392173 0.0706566
        endloop
    endfacet
    facet normal -0.906956 0.00101432 0.421225
        outer loop
            vertex -0.0304123 -0.0313146 0.056216
            vertex -0.0301985 0.0316188 0.0565248
            vertex -0.0395558 -0.0185366 0.036498
        endloop
    endfacet
    facet normal 0.999999 -0.000945069 -0.000510908
        outer loop
            vertex 0.17077 0.0325155 0.0671377
            vertex 0.170764 0.016976 0.0841285
            vertex 0.17076 0.0343435 0.0441859
        endloop
    endfacet
    facet normal -0.301035 0.672057 -0.676548
        outer loop
            vertex -0.00341399 0.035616 -4.90466e-005
            vertex -0.0217633 0.0274354 -1.06921e-005
            vertex -0.0189676 0.03877 0.0100047
        endloop
    endfacet
    facet normal -0.783577 0.161408 -0.599962
        outer loop
            vertex -0.043857 4.65788e-005 0.00999591
            vertex -0.0405214 0.0162664 0.0100031
            vertex -0.0338601 0.0113042 -3.18423e-005
        endloop
    endfacet
    facet normal 0.156495 -0.786649 -0.597238
        outer loop
            vertex 0.00796782 -0.0338197 -0.00110145
            vertex 0.170752 -0.0250889 0.0300533
            vertex -0.00462699 -0.0438291 0.00878215
        endloop
    endfacet
    facet normal 0.00206955 -0.80354 0.595247
        outer loop
            vertex -0.0181822 -0.0397827 0.0717097
            vertex 0.0433622 -0.0390389 0.0724998
            vertex 0.0435715 -0.0312763 0.082978
        endloop
    endfacet
    facet normal 0.0811485 -0.993027 0.0855122
        outer loop
            vertex 0.170757 -0.0324245 0.0673479
            vertex 0.049321 -0.0430757 0.0588978
            vertex 0.170752 -0.0338928 0.0503017
        endloop
    endfacet
    facet normal 0.0709423 -0.995589 -0.0614003
        outer loop
            vertex -0.00462699 -0.0438291 0.00878215
            vertex 0.170752 -0.0338928 0.0503017
            vertex 0.049321 -0.0430757 0.0588978
        endloop
    endfacet
    facet normal -0.244714 -0.969547 0.00963047
        outer loop
            vertex -0.00462699 -0.0438291 0.00878215
            vertex -0.00609524 -0.0429568 0.059292
            vertex -0.0181822 -0.0397827 0.0717097
        endloop
    endfacet
    facet normal 0.111642 -0.964121 -0.240846
        outer loop
            vertex -0.00462699 -0.0438291 0.00878215
            vertex 0.170752 -0.0311802 0.039443
            vertex 0.170752 -0.0338928 0.0503017
        endloop
    endfacet
    facet normal -0.654118 0.408841 -0.636379
        outer loop
            vertex -0.0311152 0.0313283 0.0100112
            vertex -0.0338601 0.0113042 -3.18423e-005
            vertex -0.0405214 0.0162664 0.0100031
        endloop
    endfacet
    facet normal -0.571145 0.42922 -0.699688
        outer loop
            vertex -0.0311152 0.0313283 0.0100112
            vertex -0.0217633 0.0274354 -1.06921e-005
            vertex -0.0338601 0.0113042 -3.18423e-005
        endloop
    endfacet
    facet normal -0.0151254 0.936571 0.350152
        outer loop
            vertex 0.0434182 0.0399585 0.0713468
            vertex -0.00816115 0.0429936 0.0610006
            vertex -0.0184553 0.0392173 0.0706566
        endloop
    endfacet
    facet normal 1 0.000292811 -0.000504808
        outer loop
            vertex 0.170761 -0.0116205 0.0195025
            vertex 0.170754 0.0216878 0.0249491
            vertex 0.17076 0.0343435 0.0441859
        endloop
    endfacet
    facet normal 0.0660654 -0.645525 0.760876
        outer loop
            vertex 0.0510526 -0.0203389 0.0916077
            vertex 0.0435715 -0.0312763 0.082978
            vertex 0.170772 -0.0167743 0.0842369
        endloop
    endfacet
    facet normal -0.64923 -0.132855 -0.7489
        outer loop
            vertex -0.0443976 -4.23304e-007 0.0104729
            vertex -0.043857 4.65788e-005 0.00999591
            vertex -0.0405299 -0.0162527 0.0100031
        endloop
    endfacet
    facet normal 0.0670791 -0.262398 0.962625
        outer loop
            vertex 0.0510526 -0.0203389 0.0916077
            vertex 0.170772 -0.0167743 0.0842369
            vertex 0.0417485 -0.00568938 0.0962493
        endloop
    endfacet
    facet normal 0.0656488 -0.802415 0.593144
        outer loop
            vertex 0.0433622 -0.0390389 0.0724998
            vertex 0.170757 -0.0324245 0.0673479
            vertex 0.0435715 -0.0312763 0.082978
        endloop
    endfacet
    facet normal 0.0617654 -0.949138 0.308743
        outer loop
            vertex 0.0433622 -0.0390389 0.0724998
            vertex 0.049321 -0.0430757 0.0588978
            vertex 0.170757 -0.0324245 0.0673479
        endloop
    endfacet
    facet normal -0.408557 0.0125027 0.912647
        outer loop
            vertex -0.00631101 0.0334754 0.0820598
            vertex 0.00133401 -0.0286384 0.0863331
            vertex 0.0171652 0.0180806 0.0927801
        endloop
    endfacet
    facet normal 1 -0.000871703 -0.000217759
        outer loop
            vertex 0.170757 -0.0324245 0.0673479
            vertex 0.170752 -0.0338928 0.0503017
            vertex 0.170752 -0.0311802 0.039443
        endloop
    endfacet
    facet normal -0.80651 -0.16488 -0.567764
        outer loop
            vertex -0.0337954 -0.0144008 -0.000101055
            vertex -0.0405299 -0.0162527 0.0100031
            vertex -0.043857 4.65788e-005 0.00999591
        endloop
    endfacet
    facet normal -0.708262 0.000118196 -0.70595
        outer loop
            vertex -0.0337954 -0.0144008 -0.000101055
            vertex -0.043857 4.65788e-005 0.00999591
            vertex -0.0338601 0.0113042 -3.18423e-005
        endloop
    endfacet
    facet normal 0.15427 0.825396 -0.543068
        outer loop
            vertex -0.00466853 0.0437903 0.00870952
            vertex 0.17076 0.0343435 0.0441859
            vertex 0.170754 0.0216878 0.0249491
        endloop
    endfacet
    facet normal -0.593083 -0.0176184 0.804948
        outer loop
            vertex -0.00631101 0.0334754 0.0820598
            vertex -0.0181822 -0.0397827 0.0717097
            vertex 0.00133401 -0.0286384 0.0863331
        endloop
    endfacet
    facet normal -0.347682 0.937604 -0.00397799
        outer loop
            vertex -0.00816115 0.0429936 0.0610006
            vertex -0.0189676 0.03877 0.0100047
            vertex -0.0184553 0.0392173 0.0706566
        endloop
    endfacet
    facet normal 0.0901403 0.7349 0.672159
        outer loop
            vertex 0.0619003 0.0271937 0.0875563
            vertex 0.170764 0.016976 0.0841285
            vertex 0.17077 0.0325155 0.0671377
        endloop
    endfacet
    facet normal 0.0231844 0.409082 0.912203
        outer loop
            vertex 0.0619003 0.0271937 0.0875563
            vertex 0.0171652 0.0180806 0.0927801
            vertex 0.0385259 0.0086462 0.0964681
        endloop
    endfacet
    facet normal 0.999999 0.000233543 -0.00110489
        outer loop
            vertex 0.170772 -0.0167743 0.0842369
            vertex 0.170757 -0.0324245 0.0673479
            vertex 0.170764 0.016976 0.0841285
        endloop
    endfacet
    facet normal -0.0403475 0.0803548 -0.995949
        outer loop
            vertex 0.00796782 -0.0338197 -0.00110145
            vertex -0.0153057 -0.0322486 -3.18435e-005
            vertex 0.0420421 -0.00320211 -1.15781e-005
        endloop
    endfacet
    facet normal -0.983132 -1.06884e-005 0.182898
        outer loop
            vertex -0.0443976 -4.23304e-007 0.0104729
            vertex -0.0395558 -0.0185366 0.036498
            vertex -0.0395565 0.0185356 0.0364964
        endloop
    endfacet
    facet normal -0.0785786 -0.648639 -0.757029
        outer loop
            vertex 0.00796782 -0.0338197 -0.00110145
            vertex -0.00462699 -0.0438291 0.00878215
            vertex -0.0153057 -0.0322486 -3.18435e-005
        endloop
    endfacet
    facet normal -0.662069 0.136481 -0.736911
        outer loop
            vertex -0.0443976 -4.23304e-007 0.0104729
            vertex -0.0405214 0.0162664 0.0100031
            vertex -0.043857 4.65788e-005 0.00999591
        endloop
    endfacet
    facet normal -0.49988 -0.520542 -0.692211
        outer loop
            vertex -0.0337954 -0.0144008 -0.000101055
            vertex -0.0153057 -0.0322486 -3.18435e-005
            vertex -0.0325319 -0.0290597 0.01001
        endloop
    endfacet
    facet normal -0.00202285 -0.99985 0.0172085
        outer loop
            vertex -0.00462699 -0.0438291 0.00878215
            vertex 0.049321 -0.0430757 0.0588978
            vertex -0.00609524 -0.0429568 0.059292
        endloop
    endfacet
    facet normal 0.180705 -0.606605 -0.774194
        outer loop
            vertex 0.00796782 -0.0338197 -0.00110145
            vertex 0.170761 -0.0116205 0.0195025
            vertex 0.170752 -0.0250889 0.0300533
        endloop
    endfacet
    facet normal 0.153801 -0.82895 -0.537762
        outer loop
            vertex -0.00462699 -0.0438291 0.00878215
            vertex 0.170752 -0.0267492 0.0326127
            vertex 0.170752 -0.0311802 0.039443
        endloop
    endfacet
    facet normal -0.572297 -0.820039 0.00355508
        outer loop
            vertex -0.0181822 -0.0397827 0.0717097
            vertex -0.0304123 -0.0313146 0.056216
            vertex -0.021074 -0.0380321 0.00999246
        endloop
    endfacet
    facet normal -0.682638 0.00738092 0.730719
        outer loop
            vertex -0.00631101 0.0334754 0.0820598
            vertex -0.0184553 0.0392173 0.0706566
            vertex -0.0181822 -0.0397827 0.0717097
        endloop
    endfacet
    facet normal -0.000319354 -0.968924 0.247357
        outer loop
            vertex -0.0181822 -0.0397827 0.0717097
            vertex -0.00609524 -0.0429568 0.059292
            vertex 0.049321 -0.0430757 0.0588978
        endloop
    endfacet
    facet normal 0.0224819 -0.628695 0.777327
        outer loop
            vertex 0.0510526 -0.0203389 0.0916077
            vertex 0.00133401 -0.0286384 0.0863331
            vertex 0.0435715 -0.0312763 0.082978
        endloop
    endfacet
    facet normal 0.999984 0.000255323 0.00567742
        outer loop
            vertex 0.170772 -0.0167743 0.0842369
            vertex 0.170764 0.016976 0.0841285
            vertex 0.170752 0.000109807 0.0869998
        endloop
    endfacet
    facet normal 0.0788877 0.993739 0.0791122
        outer loop
            vertex 0.17077 0.0325155 0.0671377
            vertex 0.17076 0.0343435 0.0441859
            vertex 0.0475167 0.0431047 0.0570288
        endloop
    endfacet
    facet normal 0.000452682 0.000971669 -0.999999
        outer loop
            vertex 0.0420421 -0.00320211 -1.15781e-005
            vertex -0.0338601 0.0113042 -3.18423e-005
            vertex -0.0217633 0.0274354 -1.06921e-005
        endloop
    endfacet
    facet normal -0.972545 0.232195 0.0155326
        outer loop
            vertex -0.0443976 -4.23304e-007 0.0104729
            vertex -0.0395565 0.0185356 0.0364964
            vertex -0.0405214 0.0162664 0.0100031
        endloop
    endfacet
    facet normal -0.404402 0.659579 -0.633573
        outer loop
            vertex -0.0311152 0.0313283 0.0100112
            vertex -0.0189676 0.03877 0.0100047
            vertex -0.0217633 0.0274354 -1.06921e-005
        endloop
    endfacet
    facet normal 1 -0.000673116 -0.000208904
        outer loop
            vertex 0.170761 -0.0116205 0.0195025
            vertex 0.170757 -0.0324245 0.0673479
            vertex 0.170752 -0.0311802 0.039443
        endloop
    endfacet
    facet normal 0.00151996 -0.00230323 -0.999996
        outer loop
            vertex -0.0337954 -0.0144008 -0.000101055
            vertex 0.0420421 -0.00320211 -1.15781e-005
            vertex -0.0153057 -0.0322486 -3.18435e-005
        endloop
    endfacet
    facet normal -0.616514 -0.787279 -0.0101388
        outer loop
            vertex -0.0325319 -0.0290597 0.01001
            vertex -0.021074 -0.0380321 0.00999246
            vertex -0.0304123 -0.0313146 0.056216
        endloop
    endfacet
    facet normal 0.00788113 -0.957695 0.287677
        outer loop
            vertex -0.0181822 -0.0397827 0.0717097
            vertex 0.049321 -0.0430757 0.0588978
            vertex 0.0433622 -0.0390389 0.0724998
        endloop
    endfacet
    facet normal -0.822356 0.568833 0.0126545
        outer loop
            vertex -0.0311152 0.0313283 0.0100112
            vertex -0.0395565 0.0185356 0.0364964
            vertex -0.0301985 0.0316188 0.0565248
        endloop
    endfacet
    facet normal 0.140972 -0.121916 -0.982478
        outer loop
            vertex 0.00796782 -0.0338197 -0.00110145
            vertex 0.0420421 -0.00320211 -1.15781e-005
            vertex 0.170761 -0.0116205 0.0195025
        endloop
    endfacet
    facet normal -0.0178602 -0.457888 0.888831
        outer loop
            vertex 0.0510526 -0.0203389 0.0916077
            vertex 0.0233456 -0.0137713 0.0944343
            vertex 0.00133401 -0.0286384 0.0863331
        endloop
    endfacet
    facet normal 0.0714782 0.000844351 0.997442
        outer loop
            vertex 0.0385259 0.0086462 0.0964681
            vertex 0.0417485 -0.00568938 0.0962493
            vertex 0.170752 0.000109807 0.0869998
        endloop
    endfacet
    facet normal 1 -9.39346e-005 -0.000140825
        outer loop
            vertex 0.170764 0.016976 0.0841285
            vertex 0.170757 -0.0324245 0.0673479
            vertex 0.17076 0.0343435 0.0441859
        endloop
    endfacet
    facet normal -0.848095 0.529646 -0.0144771
        outer loop
            vertex -0.0311152 0.0313283 0.0100112
            vertex -0.0405214 0.0162664 0.0100031
            vertex -0.0395565 0.0185356 0.0364964
        endloop
    endfacet
    facet normal 0.0766761 -0.73137 0.677656
        outer loop
            vertex 0.170772 -0.0167743 0.0842369
            vertex 0.0435715 -0.0312763 0.082978
            vertex 0.170757 -0.0324245 0.0673479
        endloop
    endfacet
    facet normal 0.0667067 0.819453 0.569251
        outer loop
            vertex 0.0619003 0.0271937 0.0875563
            vertex 0.17077 0.0325155 0.0671377
            vertex 0.0434182 0.0399585 0.0713468
        endloop
    endfacet
    facet normal -0.522378 0.852712 -0.00187633
        outer loop
            vertex -0.0311152 0.0313283 0.0100112
            vertex -0.0184553 0.0392173 0.0706566
            vertex -0.0189676 0.03877 0.0100047
        endloop
    endfacet
    facet normal 0.999998 0.000519801 -0.00189295
        outer loop
            vertex 0.170761 -0.0116205 0.0195025
            vertex 0.170752 0.00548788 0.0194458
            vertex 0.170754 0.0216878 0.0249491
        endloop
    endfacet
    facet normal -0.905985 1.13292e-006 0.423309
        outer loop
            vertex -0.0301985 0.0316188 0.0565248
            vertex -0.0395565 0.0185356 0.0364964
            vertex -0.0395558 -0.0185366 0.036498
        endloop
    endfacet
    facet normal -0.331887 0.943287 -0.00779561
        outer loop
            vertex -0.00466853 0.0437903 0.00870952
            vertex -0.0189676 0.03877 0.0100047
            vertex -0.00816115 0.0429936 0.0610006
        endloop
    endfacet
    facet normal 0.153801 -0.828957 -0.53775
        outer loop
            vertex -0.00462699 -0.0438291 0.00878215
            vertex 0.170752 -0.0250889 0.0300533
            vertex 0.170752 -0.0267492 0.0326127
        endloop
    endfacet
    facet normal -0.33568 -0.0162204 0.941836
        outer loop
            vertex 0.00133401 -0.0286384 0.0863331
            vertex 0.0233456 -0.0137713 0.0944343
            vertex 0.0171652 0.0180806 0.0927801
        endloop
    endfacet
    facet normal -0.161565 0.0198921 0.986662
        outer loop
            vertex 0.0385259 0.0086462 0.0964681
            vertex 0.0171652 0.0180806 0.0927801
            vertex 0.0233456 -0.0137713 0.0944343
        endloop
    endfacet
    facet normal -0.00109057 -0.00224229 -0.999997
        outer loop
            vertex 0.0420421 -0.00320211 -1.15781e-005
            vertex -0.0217633 0.0274354 -1.06921e-005
            vertex -0.00341399 0.035616 -4.90466e-005
        endloop
    endfacet
    facet normal -0.848096 -0.529645 -0.0144755
        outer loop
            vertex -0.0325319 -0.0290597 0.01001
            vertex -0.0395558 -0.0185366 0.036498
            vertex -0.0405299 -0.0162527 0.0100031
        endloop
    endfacet
    facet normal -0.00137794 -0.794474 0.607297
        outer loop
            vertex -0.0181822 -0.0397827 0.0717097
            vertex 0.0435715 -0.0312763 0.082978
            vertex 0.00133401 -0.0286384 0.0863331
        endloop
    endfacet
    facet normal -0.78343 0.00557596 0.621455
        outer loop
            vertex -0.0181822 -0.0397827 0.0717097
            vertex -0.0184553 0.0392173 0.0706566
            vertex -0.0304123 -0.0313146 0.056216
        endloop
    endfacet
    facet normal 0.0643876 0.97065 0.231719
        outer loop
            vertex 0.0434182 0.0399585 0.0713468
            vertex 0.17077 0.0325155 0.0671377
            vertex 0.0475167 0.0431047 0.0570288
        endloop
    endfacet
    facet normal -0.972608 -0.231916 0.015767
        outer loop
            vertex -0.0443976 -4.23304e-007 0.0104729
            vertex -0.0405299 -0.0162527 0.0100031
            vertex -0.0395558 -0.0185366 0.036498
        endloop
    endfacet
    facet normal 0.157498 0.673882 -0.721857
        outer loop
            vertex 0.170754 0.0216878 0.0249491
            vertex 0.0210487 0.0299325 -1.74483e-005
            vertex -0.00341399 0.035616 -4.90466e-005
        endloop
    endfacet
    facet normal 0.172976 0.31679 -0.93259
        outer loop
            vertex 0.170754 0.0216878 0.0249491
            vertex 0.170752 0.00548788 0.0194458
            vertex 0.0210487 0.0299325 -1.74483e-005
        endloop
    endfacet
    facet normal 0.999999 -0.00135877 -0.00088146
        outer loop
            vertex 0.170761 -0.0116205 0.0195025
            vertex 0.170752 -0.0311802 0.039443
            vertex 0.170752 -0.0250889 0.0300533
        endloop
    endfacet
    facet normal -0.333129 -0.942816 -0.0111338
        outer loop
            vertex -0.00462699 -0.0438291 0.00878215
            vertex -0.0181822 -0.0397827 0.0717097
            vertex -0.021074 -0.0380321 0.00999246
        endloop
    endfacet
    facet normal 0.0811544 0.167216 0.982575
        outer loop
            vertex 0.0385259 0.0086462 0.0964681
            vertex 0.170752 0.000109807 0.0869998
            vertex 0.170764 0.016976 0.0841285
        endloop
    endfacet
    facet normal 0.0303608 -0.284331 0.958245
        outer loop
            vertex 0.0510526 -0.0203389 0.0916077
            vertex 0.0417485 -0.00568938 0.0962493
            vertex 0.0233456 -0.0137713 0.0944343
        endloop
    endfacet
    facet normal -0.547961 0.836485 0.00557506
        outer loop
            vertex -0.0311152 0.0313283 0.0100112
            vertex -0.0301985 0.0316188 0.0565248
            vertex -0.0184553 0.0392173 0.0706566
        endloop
    endfacet
    facet normal -0.707008 -0.441826 -0.552205
        outer loop
            vertex -0.0337954 -0.0144008 -0.000101055
            vertex -0.0325319 -0.0290597 0.01001
            vertex -0.0405299 -0.0162527 0.0100031
        endloop
    endfacet
    facet normal 0.000781952 0.00269453 -0.999996
        outer loop
            vertex -0.0337954 -0.0144008 -0.000101055
            vertex -0.0338601 0.0113042 -3.18423e-005
            vertex 0.0420421 -0.00320211 -1.15781e-005
        endloop
    endfacet
    facet normal 0.0251996 0.799157 0.600594
        outer loop
            vertex 0.0619003 0.0271937 0.0875563
            vertex 0.0434182 0.0399585 0.0713468
            vertex -0.00631101 0.0334754 0.0820598
        endloop
    endfacet
    facet normal 0.0136266 0.975783 0.218317
        outer loop
            vertex 0.0434182 0.0399585 0.0713468
            vertex 0.0475167 0.0431047 0.0570288
            vertex -0.00816115 0.0429936 0.0610006
        endloop
    endfacet
    facet normal 0.142895 0.0903609 -0.985604
        outer loop
            vertex 0.0420421 -0.00320211 -1.15781e-005
            vertex 0.0210487 0.0299325 -1.74483e-005
            vertex 0.170752 0.00548788 0.0194458
        endloop
    endfacet
    facet normal -0.820237 -0.571942 0.00971524
        outer loop
            vertex -0.0325319 -0.0290597 0.01001
            vertex -0.0304123 -0.0313146 0.056216
            vertex -0.0395558 -0.0185366 0.036498
        endloop
    endfacet
    facet normal 1 -1.88645e-005 7.55758e-005
        outer loop
            vertex 0.170761 -0.0116205 0.0195025
            vertex 0.17076 0.0343435 0.0441859
            vertex 0.170757 -0.0324245 0.0673479
        endloop
    endfacet
endsolid D:/Users/Paul Maroldt/Documents/!StartUp_Repositories/modrob-gen2/ModuleLibrary/L500-L-80-80/L500-L-80-80_convdec.stl_created_by_BoundingMesh