solid D:/Users/Paul Maroldt/Documents/!StartUp_Repositories/modrob-gen2/ModuleLibrary/L283-L-80-80/L283-L-80-80_convdec.stl_created_by_BoundingMesh
    facet normal -0.913656 0.399291 0.0761533
        outer loop
            vertex -0.0399911 0.017617 0.0102259
            vertex -0.0411025 0.0129683 0.0212661
            vertex -0.0378044 0.0193832 0.0272004
        endloop
    endfacet
    facet normal -0.725905 -0.00476747 -0.687779
        outer loop
            vertex -0.0339876 0.011135 -3.22696e-005
            vertex -0.033881 -0.0083508 -9.70842e-006
            vertex -0.0433906 -0.0044497 0.01
        endloop
    endfacet
    facet normal 0.924275 -0.345421 -0.16248
        outer loop
            vertex 0.283 -0.0367882 0.051568
            vertex 0.283 -0.028317 0.0335588
            vertex 0.287237 -0.0166005 0.0327527
        endloop
    endfacet
    facet normal 0.612094 0.679472 0.404549
        outer loop
            vertex 0.273 0.0328449 0.0821424
            vertex 0.283 0.0277693 0.075537
            vertex 0.27338 0.0410537 0.0677801
        endloop
    endfacet
    facet normal -0.149238 -0.782743 -0.604187
        outer loop
            vertex -0.00447859 -0.0346511 -0.000711116
            vertex -0.00237097 -0.0430282 0.00962108
            vertex -0.0145496 -0.0409987 0.01
        endloop
    endfacet
    facet normal -0.900367 -0.132868 0.41435
        outer loop
            vertex -0.0389341 0.00036446 0.041427
            vertex -0.0347864 -0.0135937 0.0459639
            vertex -0.0323165 -0.00217459 0.0549926
        endloop
    endfacet
    facet normal -0.088034 0.068048 -0.99379
        outer loop
            vertex -0.00828545 0.0346584 -0.000698348
            vertex -0.0339876 0.011135 -3.22696e-005
            vertex -0.0237823 0.0247596 -3.37663e-006
        endloop
    endfacet
    facet normal 0.956255 -0.279916 -0.0849948
        outer loop
            vertex 0.283 -0.0367882 0.051568
            vertex 0.287237 -0.0166005 0.0327527
            vertex 0.287202 -0.0251925 0.0606553
        endloop
    endfacet
    facet normal -0.6518 0.408017 -0.63928
        outer loop
            vertex -0.0399911 0.017617 0.0102259
            vertex -0.0331967 0.028117 0.01
            vertex -0.0339876 0.011135 -3.22696e-005
        endloop
    endfacet
    facet normal -0.0405427 -0.0186821 -0.999003
        outer loop
            vertex -0.00447859 -0.0346511 -0.000711116
            vertex -0.0247115 -0.0257284 -5.68617e-005
            vertex -0.033881 -0.0083508 -9.70842e-006
        endloop
    endfacet
    facet normal -0.0250057 -0.00129426 -0.999686
        outer loop
            vertex -0.00447859 -0.0346511 -0.000711116
            vertex -0.033881 -0.0083508 -9.70842e-006
            vertex -0.0339876 0.011135 -3.22696e-005
        endloop
    endfacet
    facet normal -0.893511 0.203719 0.400171
        outer loop
            vertex -0.0299157 0.00715416 0.0587217
            vertex -0.0309204 0.015927 0.0520123
            vertex -0.037741 0.0126833 0.0384344
        endloop
    endfacet
    facet normal 0.697309 -0.114973 -0.707489
        outer loop
            vertex 0.283 -0.016604 0.021364
            vertex 0.273116 -0.00495261 0.00972876
            vertex 0.283 0.00573141 0.0177343
        endloop
    endfacet
    facet normal -0.762881 -0.646132 -0.0229418
        outer loop
            vertex -0.03924 -0.0199456 0.01
            vertex -0.0277717 -0.0334861 0.01
            vertex -0.0321194 -0.0289017 0.0254587
        endloop
    endfacet
    facet normal -0.741426 0.425576 0.518818
        outer loop
            vertex -0.0309204 0.015927 0.0520123
            vertex -0.0213084 0.0152304 0.0663199
            vertex -0.0232779 0.0251016 0.0554082
        endloop
    endfacet
    facet normal 0.955653 0.186572 -0.227854
        outer loop
            vertex 0.283 0.0258443 0.0282903
            vertex 0.287114 0.0232101 0.0433881
            vertex 0.287038 0.0070295 0.0298203
        endloop
    endfacet
    facet normal 0.00643099 0.0189683 -0.999799
        outer loop
            vertex -0.00447859 -0.0346511 -0.000711116
            vertex -0.0339876 0.011135 -3.22696e-005
            vertex 0.0374265 -0.0127266 -2.56178e-005
        endloop
    endfacet
    facet normal -0.294599 -0.955474 0.0167656
        outer loop
            vertex -0.0191208 -0.0391414 0.0355243
            vertex -0.0145496 -0.0409987 0.01
            vertex -0.0053185 -0.0432188 0.0456819
        endloop
    endfacet
    facet normal 0.672423 0.670132 -0.314278
        outer loop
            vertex 0.273015 0.0341224 0.0245779
            vertex 0.272966 0.0420915 0.0414655
            vertex 0.283 0.0258443 0.0282903
        endloop
    endfacet
    facet normal -0.690208 0.600199 0.404196
        outer loop
            vertex -0.026797 0.030409 0.0415179
            vertex -0.0232779 0.0251016 0.0554082
            vertex -0.0176861 0.0341305 0.0515496
        endloop
    endfacet
    facet normal 0.952699 0.192709 0.235005
        outer loop
            vertex 0.283 0.0277693 0.075537
            vertex 0.287011 0.00898134 0.0746831
            vertex 0.287045 0.0213439 0.0644077
        endloop
    endfacet
    facet normal -0.807823 -0.550044 0.211833
        outer loop
            vertex -0.0276226 -0.0331817 0.0328683
            vertex -0.0307434 -0.0249375 0.042374
            vertex -0.0368932 -0.0218815 0.026857
        endloop
    endfacet
    facet normal -0.164467 0.789283 0.591593
        outer loop
            vertex 0.00895491 0.0330422 0.0767208
            vertex 0.0217957 0.0382119 0.0733934
            vertex 0.014681 0.0406824 0.0681194
        endloop
    endfacet
    facet normal 0.670908 0.670749 -0.316194
        outer loop
            vertex 0.283 0.0258443 0.0282903
            vertex 0.272966 0.0420915 0.0414655
            vertex 0.283 0.0333671 0.0442486
        endloop
    endfacet
    facet normal 0.941211 -0.220528 0.25591
        outer loop
            vertex 0.287202 -0.0251925 0.0606553
            vertex 0.283 -0.013853 0.0858816
            vertex 0.283 -0.0285915 0.0731808
        endloop
    endfacet
    facet normal -0.748091 -0.200377 -0.632621
        outer loop
            vertex -0.03924 -0.0199456 0.01
            vertex -0.0433906 -0.0044497 0.01
            vertex -0.033881 -0.0083508 -9.70842e-006
        endloop
    endfacet
    facet normal 0.0629093 -0.768914 -0.63625
        outer loop
            vertex -0.00447859 -0.0346511 -0.000711116
            vertex 0.273011 -0.0358005 0.0281148
            vertex -0.00237097 -0.0430282 0.00962108
        endloop
    endfacet
    facet normal -0.638 0.76929 -0.0338954
        outer loop
            vertex -0.0287887 0.0325234 0.0270376
            vertex -0.0214912 0.0378248 0.01
            vertex -0.0331967 0.028117 0.01
        endloop
    endfacet
    facet normal 0.0017158 0.594647 0.803985
        outer loop
            vertex 0.273 0.0328449 0.0821424
            vertex 0.0340668 0.0244589 0.0888548
            vertex 0.273 0.0208726 0.0909974
        endloop
    endfacet
    facet normal -0.594193 0.166815 0.786834
        outer loop
            vertex -0.000948297 0.0112166 0.0846521
            vertex -0.0170817 0.00854764 0.0730345
            vertex -0.00961783 0.000786495 0.0803164
        endloop
    endfacet
    facet normal -0.516788 -0.70241 0.489439
        outer loop
            vertex -0.00689981 -0.0288391 0.0706109
            vertex -0.0169593 -0.0297662 0.0586588
            vertex -0.0054721 -0.0372949 0.0599832
        endloop
    endfacet
    facet normal 0.925498 0.377487 -0.0309512
        outer loop
            vertex 0.287114 0.0232101 0.0433881
            vertex 0.283 0.0333671 0.0442486
            vertex 0.283 0.0344687 0.0576839
        endloop
    endfacet
    facet normal 0.0523247 0.903184 -0.426052
        outer loop
            vertex 0.273015 0.0341224 0.0245779
            vertex -0.00660906 0.0430931 0.0092534
            vertex 0.272966 0.0420915 0.0414655
        endloop
    endfacet
    facet normal 0.642513 0.757068 0.118427
        outer loop
            vertex 0.27338 0.0410537 0.0677801
            vertex 0.283 0.0344687 0.0576839
            vertex 0.273145 0.0433256 0.0545316
        endloop
    endfacet
    facet normal 0.0644843 0.273319 -0.95976
        outer loop
            vertex -0.00828545 0.0346584 -0.000698348
            vertex 0.272977 0.0188868 0.0137077
            vertex 0.273004 0.00711128 0.0103561
        endloop
    endfacet
    facet normal 0.684172 0.389796 0.616415
        outer loop
            vertex 0.283 0.0277693 0.075537
            vertex 0.273 0.0208726 0.0909974
            vertex 0.283 0.00855032 0.0876903
        endloop
    endfacet
    facet normal 0.598766 0.220524 -0.769967
        outer loop
            vertex 0.283 0.00573141 0.0177343
            vertex 0.273004 0.00711128 0.0103561
            vertex 0.272977 0.0188868 0.0137077
        endloop
    endfacet
    facet normal -0.608754 0.743395 0.277097
        outer loop
            vertex -0.0200967 0.0388286 0.0336497
            vertex -0.026797 0.030409 0.0415179
            vertex -0.0176861 0.0341305 0.0515496
        endloop
    endfacet
    facet normal 0.0697878 -0.710588 -0.700139
        outer loop
            vertex 0.272958 -0.0227276 0.0148415
            vertex 0.273011 -0.0358005 0.0281148
            vertex -0.00447859 -0.0346511 -0.000711116
        endloop
    endfacet
    facet normal 0.676195 -0.531332 -0.51034
        outer loop
            vertex 0.283 -0.016604 0.021364
            vertex 0.283 -0.028317 0.0335588
            vertex 0.273011 -0.0358005 0.0281148
        endloop
    endfacet
    facet normal -0.669335 0.716455 0.19668
        outer loop
            vertex -0.0200967 0.0388286 0.0336497
            vertex -0.0287887 0.0325234 0.0270376
            vertex -0.026797 0.030409 0.0415179
        endloop
    endfacet
    facet normal -0.312635 -0.658745 -0.684335
        outer loop
            vertex -0.00447859 -0.0346511 -0.000711116
            vertex -0.0145496 -0.0409987 0.01
            vertex -0.0247115 -0.0257284 -5.68617e-005
        endloop
    endfacet
    facet normal -0.381815 -0.67199 -0.634545
        outer loop
            vertex -0.0247115 -0.0257284 -5.68617e-005
            vertex -0.0145496 -0.0409987 0.01
            vertex -0.0277717 -0.0334861 0.01
        endloop
    endfacet
    facet normal 0.0463403 0.0523045 -0.997555
        outer loop
            vertex 0.273116 -0.00495261 0.00972876
            vertex 0.0284226 0.0262899 -5.926e-008
            vertex 0.273004 0.00711128 0.0103561
        endloop
    endfacet
    facet normal 0.528817 -0.844906 -0.0805363
        outer loop
            vertex 0.283 -0.0367882 0.051568
            vertex 0.273004 -0.0434856 0.0561947
            vertex 0.272992 -0.0420961 0.0415388
        endloop
    endfacet
    facet normal -0.972593 -0.0743765 0.220295
        outer loop
            vertex -0.0389341 0.00036446 0.041427
            vertex -0.0429203 0.00332953 0.0248292
            vertex -0.0407414 -0.0101703 0.0298911
        endloop
    endfacet
    facet normal 0.597409 0.0471758 -0.800548
        outer loop
            vertex 0.283 0.00573141 0.0177343
            vertex 0.273116 -0.00495261 0.00972876
            vertex 0.273004 0.00711128 0.0103561
        endloop
    endfacet
    facet normal -0.217517 -0.16841 0.961418
        outer loop
            vertex 0.0312707 -0.0108688 0.0950372
            vertex 0.0198183 -0.00052813 0.0942575
            vertex 0.0161302 -0.0128938 0.091257
        endloop
    endfacet
    facet normal -0.616113 -0.521824 -0.590004
        outer loop
            vertex -0.03924 -0.0199456 0.01
            vertex -0.0247115 -0.0257284 -5.68617e-005
            vertex -0.0277717 -0.0334861 0.01
        endloop
    endfacet
    facet normal 0.999975 0.00284631 0.00653918
        outer loop
            vertex 0.287202 -0.0251925 0.0606553
            vertex 0.287045 0.0213439 0.0644077
            vertex 0.287049 -0.00702605 0.0761456
        endloop
    endfacet
    facet normal 0.0599606 0.75648 -0.651262
        outer loop
            vertex -0.00828545 0.0346584 -0.000698348
            vertex -0.00660906 0.0430931 0.0092534
            vertex 0.273015 0.0341224 0.0245779
        endloop
    endfacet
    facet normal -0.475992 0.39961 0.783418
        outer loop
            vertex -0.01238 0.0183099 0.0740882
            vertex -0.000948297 0.0112166 0.0846521
            vertex -0.00153641 0.0234206 0.0780697
        endloop
    endfacet
    facet normal -0.48421 0.583852 -0.651657
        outer loop
            vertex -0.0331967 0.028117 0.01
            vertex -0.0214912 0.0378248 0.01
            vertex -0.0237823 0.0247596 -3.37663e-006
        endloop
    endfacet
    facet normal -0.988543 -0.118486 0.0935077
        outer loop
            vertex -0.0429203 0.00332953 0.0248292
            vertex -0.0433906 -0.0044497 0.01
            vertex -0.0413451 -0.0131711 0.0205734
        endloop
    endfacet
    facet normal -0.52715 0.709559 0.467589
        outer loop
            vertex -0.00208621 0.0387065 0.0621926
            vertex -0.0176861 0.0341305 0.0515496
            vertex -0.0107545 0.0288228 0.0674185
        endloop
    endfacet
    facet normal 0.677795 0.732792 -0.0600837
        outer loop
            vertex 0.283 0.0344687 0.0576839
            vertex 0.283 0.0333671 0.0442486
            vertex 0.273145 0.0433256 0.0545316
        endloop
    endfacet
    facet normal -0.743834 0.0187168 -0.668102
        outer loop
            vertex -0.0339876 0.011135 -3.22696e-005
            vertex -0.0433906 -0.0044497 0.01
            vertex -0.0428461 0.00634856 0.00969629
        endloop
    endfacet
    facet normal -0.772934 0.223737 -0.593729
        outer loop
            vertex -0.0399911 0.017617 0.0102259
            vertex -0.0339876 0.011135 -3.22696e-005
            vertex -0.0428461 0.00634856 0.00969629
        endloop
    endfacet
    facet normal -0.00227504 -0.999389 0.0348675
        outer loop
            vertex 0.00944984 -0.0427245 0.0608133
            vertex -0.0053185 -0.0432188 0.0456819
            vertex 0.273004 -0.0434856 0.0561947
        endloop
    endfacet
    facet normal 0.664961 -0.530795 -0.525436
        outer loop
            vertex 0.272958 -0.0227276 0.0148415
            vertex 0.283 -0.016604 0.021364
            vertex 0.273011 -0.0358005 0.0281148
        endloop
    endfacet
    facet normal 0.00156584 -0.198737 0.980052
        outer loop
            vertex 0.0312707 -0.0108688 0.0950372
            vertex 0.273 -0.0159742 0.0936157
            vertex 0.273 -0.00365213 0.0961144
        endloop
    endfacet
    facet normal 0.0522031 -0.904172 -0.423966
        outer loop
            vertex 0.272992 -0.0420961 0.0415388
            vertex -0.00237097 -0.0430282 0.00962108
            vertex 0.273011 -0.0358005 0.0281148
        endloop
    endfacet
    facet normal 0.946343 -0.205028 0.249797
        outer loop
            vertex 0.287202 -0.0251925 0.0606553
            vertex 0.287049 -0.00702605 0.0761456
            vertex 0.283 -0.013853 0.0858816
        endloop
    endfacet
    facet normal -0.000376025 -0.549365 0.835582
        outer loop
            vertex 0.034232 -0.0204932 0.091068
            vertex 0.0312075 -0.027429 0.0865066
            vertex 0.273 -0.0286744 0.0857966
        endloop
    endfacet
    facet normal -0.164914 -0.986131 -0.018692
        outer loop
            vertex -0.0053185 -0.0432188 0.0456819
            vertex -0.0145496 -0.0409987 0.01
            vertex -0.00237097 -0.0430282 0.00962108
        endloop
    endfacet
    facet normal -0.772117 0.49625 0.396953
        outer loop
            vertex -0.0309204 0.015927 0.0520123
            vertex -0.0232779 0.0251016 0.0554082
            vertex -0.0321587 0.0221948 0.041768
        endloop
    endfacet
    facet normal 0.000302829 0.031347 0.999509
        outer loop
            vertex 0.273007 0.00881493 0.0957234
            vertex 0.034356 -0.0012512 0.0961114
            vertex 0.273 -0.00365213 0.0961144
        endloop
    endfacet
    facet normal -0.129571 -0.068916 0.989172
        outer loop
            vertex 0.0312707 -0.0108688 0.0950372
            vertex 0.034356 -0.0012512 0.0961114
            vertex 0.0198183 -0.00052813 0.0942575
        endloop
    endfacet
    facet normal 0.93011 -0.0295557 0.366089
        outer loop
            vertex 0.283 -0.013853 0.0858816
            vertex 0.287049 -0.00702605 0.0761456
            vertex 0.283 0.00855032 0.0876903
        endloop
    endfacet
    facet normal -0.0934583 0.456764 0.884665
        outer loop
            vertex 0.0332711 0.0148119 0.0937516
            vertex 0.0340668 0.0244589 0.0888548
            vertex 0.0250172 0.0240159 0.0881275
        endloop
    endfacet
    facet normal -0.000466848 0.0495663 0.998771
        outer loop
            vertex 0.0282612 0.00578432 0.0957594
            vertex 0.034356 -0.0012512 0.0961114
            vertex 0.273007 0.00881493 0.0957234
        endloop
    endfacet
    facet normal -0.32036 -0.383571 0.866166
        outer loop
            vertex 0.0100454 -0.0249914 0.0836492
            vertex 0.0161302 -0.0128938 0.091257
            vertex 0.00332442 -0.0147219 0.0857111
        endloop
    endfacet
    facet normal 0.000836323 -0.524272 0.85155
        outer loop
            vertex 0.273 -0.0159742 0.0936157
            vertex 0.034232 -0.0204932 0.091068
            vertex 0.273 -0.0286744 0.0857966
        endloop
    endfacet
    facet normal 0.000492086 -0.772213 0.635364
        outer loop
            vertex 0.273056 -0.0393819 0.0727828
            vertex 0.273 -0.0286744 0.0857966
            vertex 0.0229525 -0.0330078 0.0807235
        endloop
    endfacet
    facet normal 0.666497 0.741295 -0.079146
        outer loop
            vertex 0.272966 0.0420915 0.0414655
            vertex 0.273145 0.0433256 0.0545316
            vertex 0.283 0.0333671 0.0442486
        endloop
    endfacet
    facet normal -0.447713 -0.728055 0.519123
        outer loop
            vertex 0.00236257 -0.0396149 0.0634864
            vertex -0.00689981 -0.0288391 0.0706109
            vertex -0.0054721 -0.0372949 0.0599832
        endloop
    endfacet
    facet normal 0.0538391 0.153836 -0.986628
        outer loop
            vertex -0.00828545 0.0346584 -0.000698348
            vertex 0.273004 0.00711128 0.0103561
            vertex 0.0284226 0.0262899 -5.926e-008
        endloop
    endfacet
    facet normal -0.807123 0.534473 0.250781
        outer loop
            vertex -0.0353767 0.0250514 0.025323
            vertex -0.0321587 0.0221948 0.041768
            vertex -0.026797 0.030409 0.0415179
        endloop
    endfacet
    facet normal -0.334544 0.942162 -0.0202634
        outer loop
            vertex -0.0200967 0.0388286 0.0336497
            vertex -0.00660906 0.0430931 0.0092534
            vertex -0.0214912 0.0378248 0.01
        endloop
    endfacet
    facet normal -0.445718 0.58143 0.680643
        outer loop
            vertex -0.0107545 0.0288228 0.0674185
            vertex -0.00153641 0.0234206 0.0780697
            vertex 0.00895491 0.0330422 0.0767208
        endloop
    endfacet
    facet normal -0.417371 -0.449755 0.789634
        outer loop
            vertex -0.00550032 -0.0138849 0.0815234
            vertex -0.000993329 -0.0250145 0.0775665
            vertex 0.00332442 -0.0147219 0.0857111
        endloop
    endfacet
    facet normal -0.251333 0.871847 0.420374
        outer loop
            vertex 0.0042898 0.0431453 0.0567987
            vertex -0.00208621 0.0387065 0.0621926
            vertex 0.014681 0.0406824 0.0681194
        endloop
    endfacet
    facet normal 0.875674 -0.451521 0.17124
        outer loop
            vertex 0.283 -0.0367882 0.051568
            vertex 0.287202 -0.0251925 0.0606553
            vertex 0.283 -0.0285915 0.0731808
        endloop
    endfacet
    facet normal -0.765779 0.511711 0.389531
        outer loop
            vertex -0.026797 0.030409 0.0415179
            vertex -0.0321587 0.0221948 0.041768
            vertex -0.0232779 0.0251016 0.0554082
        endloop
    endfacet
    facet normal -0.529242 -0.0790319 0.844782
        outer loop
            vertex -0.00550032 -0.0138849 0.0815234
            vertex 0.00451619 -0.00296581 0.0888201
            vertex -0.00961783 0.000786495 0.0803164
        endloop
    endfacet
    facet normal -0.00256153 0.218456 0.975843
        outer loop
            vertex 0.0282612 0.00578432 0.0957594
            vertex 0.273007 0.00881493 0.0957234
            vertex 0.0332711 0.0148119 0.0937516
        endloop
    endfacet
    facet normal 0.672835 -0.670158 -0.31334
        outer loop
            vertex 0.272992 -0.0420961 0.0415388
            vertex 0.273011 -0.0358005 0.0281148
            vertex 0.283 -0.028317 0.0335588
        endloop
    endfacet
    facet normal -0.020855 0.999776 0.00368299
        outer loop
            vertex 0.0042898 0.0431453 0.0567987
            vertex -0.00660906 0.0430931 0.0092534
            vertex -0.00630887 0.0429688 0.0446959
        endloop
    endfacet
    facet normal -0.493855 -0.869179 -0.0251988
        outer loop
            vertex -0.0191208 -0.0391414 0.0355243
            vertex -0.0277717 -0.0334861 0.01
            vertex -0.0145496 -0.0409987 0.01
        endloop
    endfacet
    facet normal -0.578414 0.434716 -0.69026
        outer loop
            vertex -0.0339876 0.011135 -3.22696e-005
            vertex -0.0331967 0.028117 0.01
            vertex -0.0237823 0.0247596 -3.37663e-006
        endloop
    endfacet
    facet normal 0.0144219 0.995447 -0.094218
        outer loop
            vertex -0.00660906 0.0430931 0.0092534
            vertex 0.273145 0.0433256 0.0545316
            vertex 0.272966 0.0420915 0.0414655
        endloop
    endfacet
    facet normal -0.261197 0.12151 0.957607
        outer loop
            vertex 0.0282612 0.00578432 0.0957594
            vertex 0.0129029 0.00787173 0.0913054
            vertex 0.0198183 -0.00052813 0.0942575
        endloop
    endfacet
    facet normal -0.435567 -0.188614 0.880174
        outer loop
            vertex -0.00550032 -0.0138849 0.0815234
            vertex 0.00332442 -0.0147219 0.0857111
            vertex 0.00451619 -0.00296581 0.0888201
        endloop
    endfacet
    facet normal -0.0594005 -0.530299 0.845727
        outer loop
            vertex 0.0232408 -0.0223689 0.0891199
            vertex 0.0312075 -0.027429 0.0865066
            vertex 0.034232 -0.0204932 0.091068
        endloop
    endfacet
    facet normal -0.00165861 -0.71852 0.695505
        outer loop
            vertex 0.0229525 -0.0330078 0.0807235
            vertex 0.273 -0.0286744 0.0857966
            vertex 0.0312075 -0.027429 0.0865066
        endloop
    endfacet
    facet normal 0.999952 0.00891702 0.00399967
        outer loop
            vertex 0.287202 -0.0251925 0.0606553
            vertex 0.287237 -0.0166005 0.0327527
            vertex 0.287038 0.0070295 0.0298203
        endloop
    endfacet
    facet normal -0.639019 0.600945 0.480125
        outer loop
            vertex -0.0107545 0.0288228 0.0674185
            vertex -0.0176861 0.0341305 0.0515496
            vertex -0.0232779 0.0251016 0.0554082
        endloop
    endfacet
    facet normal 0.00140504 -0.970736 0.240144
        outer loop
            vertex 0.273056 -0.0393819 0.0727828
            vertex 0.00944984 -0.0427245 0.0608133
            vertex 0.273004 -0.0434856 0.0561947
        endloop
    endfacet
    facet normal -0.0924105 -0.403797 0.91017
        outer loop
            vertex 0.0312707 -0.0108688 0.0950372
            vertex 0.0232408 -0.0223689 0.0891199
            vertex 0.034232 -0.0204932 0.091068
        endloop
    endfacet
    facet normal -0.701419 -0.71261 0.0140588
        outer loop
            vertex -0.0276226 -0.0331817 0.0328683
            vertex -0.0321194 -0.0289017 0.0254587
            vertex -0.0277717 -0.0334861 0.01
        endloop
    endfacet
    facet normal 0.935744 -0.0565713 -0.348112
        outer loop
            vertex 0.287237 -0.0166005 0.0327527
            vertex 0.283 -0.016604 0.021364
            vertex 0.283 0.00573141 0.0177343
        endloop
    endfacet
    facet normal 0.0410158 0.0101198 -0.999107
        outer loop
            vertex 0.273116 -0.00495261 0.00972876
            vertex 0.0374265 -0.0127266 -2.56178e-005
            vertex 0.0284226 0.0262899 -5.926e-008
        endloop
    endfacet
    facet normal -0.6395 -0.342427 0.688319
        outer loop
            vertex -0.00550032 -0.0138849 0.0815234
            vertex -0.0187403 -0.0105402 0.0708864
            vertex -0.0176322 -0.0199347 0.0672423
        endloop
    endfacet
    facet normal -0.407024 -0.842817 0.352124
        outer loop
            vertex 0.00236257 -0.0396149 0.0634864
            vertex -0.0054721 -0.0372949 0.0599832
            vertex -0.0125734 -0.0397108 0.0459922
        endloop
    endfacet
    facet normal 0.684086 -0.0586963 0.727036
        outer loop
            vertex 0.283 -0.013853 0.0858816
            vertex 0.283 0.00855032 0.0876903
            vertex 0.273 -0.00365213 0.0961144
        endloop
    endfacet
    facet normal -0.802375 -0.0317415 0.595975
        outer loop
            vertex -0.0299157 0.00715416 0.0587217
            vertex -0.0323165 -0.00217459 0.0549926
            vertex -0.0226583 -0.000572196 0.068081
        endloop
    endfacet
    facet normal -0.802507 -0.576403 0.154085
        outer loop
            vertex -0.0276226 -0.0331817 0.0328683
            vertex -0.0368932 -0.0218815 0.026857
            vertex -0.0321194 -0.0289017 0.0254587
        endloop
    endfacet
    facet normal -0.909767 -0.407363 0.0798733
        outer loop
            vertex -0.0368932 -0.0218815 0.026857
            vertex -0.0413451 -0.0131711 0.0205734
            vertex -0.03924 -0.0199456 0.01
        endloop
    endfacet
    facet normal -0.569808 0.772764 0.279561
        outer loop
            vertex -0.0200967 0.0388286 0.0336497
            vertex -0.0176861 0.0341305 0.0515496
            vertex -0.0129138 0.0390882 0.0475725
        endloop
    endfacet
    facet normal -0.68536 0.0237655 0.727816
        outer loop
            vertex -0.00961783 0.000786495 0.0803164
            vertex -0.0170817 0.00854764 0.0730345
            vertex -0.0226583 -0.000572196 0.068081
        endloop
    endfacet
    facet normal -0.757445 0.623049 0.19516
        outer loop
            vertex -0.0353767 0.0250514 0.025323
            vertex -0.026797 0.030409 0.0415179
            vertex -0.0287887 0.0325234 0.0270376
        endloop
    endfacet
    facet normal -0.594095 0.20209 0.778595
        outer loop
            vertex -0.01238 0.0183099 0.0740882
            vertex -0.0170817 0.00854764 0.0730345
            vertex -0.000948297 0.0112166 0.0846521
        endloop
    endfacet
    facet normal -0.167839 0.612232 0.772659
        outer loop
            vertex 0.0122033 0.0257828 0.083944
            vertex 0.0250172 0.0240159 0.0881275
            vertex 0.0256573 0.0328357 0.081278
        endloop
    endfacet
    facet normal 0.928519 0.172543 -0.328756
        outer loop
            vertex 0.283 0.0258443 0.0282903
            vertex 0.287038 0.0070295 0.0298203
            vertex 0.283 0.00573141 0.0177343
        endloop
    endfacet
    facet normal -0.374789 0.871777 0.315497
        outer loop
            vertex 0.0042898 0.0431453 0.0567987
            vertex -0.00630887 0.0429688 0.0446959
            vertex -0.0129138 0.0390882 0.0475725
        endloop
    endfacet
    facet normal -0.00200186 0.825753 0.564029
        outer loop
            vertex 0.273 0.0328449 0.0821424
            vertex 0.0217957 0.0382119 0.0733934
            vertex 0.0256573 0.0328357 0.081278
        endloop
    endfacet
    facet normal -0.969419 0.245346 0.00571787
        outer loop
            vertex -0.0399911 0.017617 0.0102259
            vertex -0.0428461 0.00634856 0.00969629
            vertex -0.0411025 0.0129683 0.0212661
        endloop
    endfacet
    facet normal -0.312613 -0.134911 0.940251
        outer loop
            vertex 0.00451619 -0.00296581 0.0888201
            vertex 0.0161302 -0.0128938 0.091257
            vertex 0.0198183 -0.00052813 0.0942575
        endloop
    endfacet
    facet normal 0.707251 -0.661021 0.250693
        outer loop
            vertex 0.283 -0.0367882 0.051568
            vertex 0.283 -0.0285915 0.0731808
            vertex 0.273056 -0.0393819 0.0727828
        endloop
    endfacet
    facet normal 0.950691 0.308635 0.0305223
        outer loop
            vertex 0.287114 0.0232101 0.0433881
            vertex 0.283 0.0344687 0.0576839
            vertex 0.287045 0.0213439 0.0644077
        endloop
    endfacet
    facet normal -0.729769 -0.418021 0.541014
        outer loop
            vertex -0.026708 -0.0124567 0.060778
            vertex -0.0251472 -0.0234168 0.0544149
            vertex -0.0176322 -0.0199347 0.0672423
        endloop
    endfacet
    facet normal -0.622376 -0.326474 -0.711381
        outer loop
            vertex -0.03924 -0.0199456 0.01
            vertex -0.033881 -0.0083508 -9.70842e-006
            vertex -0.0247115 -0.0257284 -5.68617e-005
        endloop
    endfacet
    facet normal -0.577007 -0.816608 0.014632
        outer loop
            vertex -0.0276226 -0.0331817 0.0328683
            vertex -0.0277717 -0.0334861 0.01
            vertex -0.0191208 -0.0391414 0.0355243
        endloop
    endfacet
    facet normal -0.522668 -0.716099 0.462623
        outer loop
            vertex -0.0182945 -0.0343049 0.0501248
            vertex -0.0054721 -0.0372949 0.0599832
            vertex -0.0169593 -0.0297662 0.0586588
        endloop
    endfacet
    facet normal -0.502948 0.0596187 0.862258
        outer loop
            vertex -0.000948297 0.0112166 0.0846521
            vertex -0.00961783 0.000786495 0.0803164
            vertex 0.00451619 -0.00296581 0.0888201
        endloop
    endfacet
    facet normal -0.19319 0.647259 0.737383
        outer loop
            vertex 0.00895491 0.0330422 0.0767208
            vertex 0.0122033 0.0257828 0.083944
            vertex 0.0256573 0.0328357 0.081278
        endloop
    endfacet
    facet normal 0.937048 0.186635 0.29514
        outer loop
            vertex 0.283 0.0277693 0.075537
            vertex 0.283 0.00855032 0.0876903
            vertex 0.287011 0.00898134 0.0746831
        endloop
    endfacet
    facet normal -0.366502 -0.648086 0.667579
        outer loop
            vertex 0.0100454 -0.0249914 0.0836492
            vertex -0.000993329 -0.0250145 0.0775665
            vertex -0.00689981 -0.0288391 0.0706109
        endloop
    endfacet
    facet normal -0.608176 -0.742622 0.280417
        outer loop
            vertex -0.0276226 -0.0331817 0.0328683
            vertex -0.0191208 -0.0391414 0.0355243
            vertex -0.0182945 -0.0343049 0.0501248
        endloop
    endfacet
    facet normal -0.921887 -0.347383 0.171606
        outer loop
            vertex -0.0368932 -0.0218815 0.026857
            vertex -0.0407414 -0.0101703 0.0298911
            vertex -0.0413451 -0.0131711 0.0205734
        endloop
    endfacet
    facet normal -0.00262129 0.669355 0.742938
        outer loop
            vertex 0.273 0.0328449 0.0821424
            vertex 0.0256573 0.0328357 0.081278
            vertex 0.0340668 0.0244589 0.0888548
        endloop
    endfacet
    facet normal 0.90627 0.382346 -0.180239
        outer loop
            vertex 0.283 0.0258443 0.0282903
            vertex 0.283 0.0333671 0.0442486
            vertex 0.287114 0.0232101 0.0433881
        endloop
    endfacet
    facet normal 0.01431 -0.995433 -0.0943869
        outer loop
            vertex 0.273004 -0.0434856 0.0561947
            vertex -0.00237097 -0.0430282 0.00962108
            vertex 0.272992 -0.0420961 0.0415388
        endloop
    endfacet
    facet normal 0.692944 -0.470661 0.546174
        outer loop
            vertex 0.283 -0.013853 0.0858816
            vertex 0.273 -0.0286744 0.0857966
            vertex 0.283 -0.0285915 0.0731808
        endloop
    endfacet
    facet normal 0.671609 -0.670439 -0.315362
        outer loop
            vertex 0.283 -0.0367882 0.051568
            vertex 0.272992 -0.0420961 0.0415388
            vertex 0.283 -0.028317 0.0335588
        endloop
    endfacet
    facet normal -0.679542 -0.061347 0.731067
        outer loop
            vertex -0.00961783 0.000786495 0.0803164
            vertex -0.0226583 -0.000572196 0.068081
            vertex -0.0187403 -0.0105402 0.0708864
        endloop
    endfacet
    facet normal -0.567782 -0.415511 0.710616
        outer loop
            vertex -0.00689981 -0.0288391 0.0706109
            vertex -0.000993329 -0.0250145 0.0775665
            vertex -0.0176322 -0.0199347 0.0672423
        endloop
    endfacet
    facet normal -0.211207 -0.864287 0.456507
        outer loop
            vertex 0.0192807 -0.0389064 0.0725903
            vertex 0.00984572 -0.0366961 0.0724098
            vertex 0.00944984 -0.0427245 0.0608133
        endloop
    endfacet
    facet normal -0.199988 -0.603659 0.771751
        outer loop
            vertex 0.0100454 -0.0249914 0.0836492
            vertex 0.0229525 -0.0330078 0.0807235
            vertex 0.0232408 -0.0223689 0.0891199
        endloop
    endfacet
    facet normal -0.131116 0.428642 0.89391
        outer loop
            vertex 0.0165013 0.0171279 0.0901813
            vertex 0.0332711 0.0148119 0.0937516
            vertex 0.0250172 0.0240159 0.0881275
        endloop
    endfacet
    facet normal -0.778297 0.322771 0.538583
        outer loop
            vertex -0.0299157 0.00715416 0.0587217
            vertex -0.0213084 0.0152304 0.0663199
            vertex -0.0309204 0.015927 0.0520123
        endloop
    endfacet
    facet normal -0.949581 0.249343 0.190064
        outer loop
            vertex -0.0429203 0.00332953 0.0248292
            vertex -0.037741 0.0126833 0.0384344
            vertex -0.0411025 0.0129683 0.0212661
        endloop
    endfacet
    facet normal -0.767586 -0.124767 0.628686
        outer loop
            vertex -0.026708 -0.0124567 0.060778
            vertex -0.0187403 -0.0105402 0.0708864
            vertex -0.0226583 -0.000572196 0.068081
        endloop
    endfacet
    facet normal -0.00112204 0.976928 0.213567
        outer loop
            vertex 0.0042898 0.0431453 0.0567987
            vertex 0.014681 0.0406824 0.0681194
            vertex 0.27338 0.0410537 0.0677801
        endloop
    endfacet
    facet normal -0.132808 -0.611812 0.779774
        outer loop
            vertex 0.0232408 -0.0223689 0.0891199
            vertex 0.0229525 -0.0330078 0.0807235
            vertex 0.0312075 -0.027429 0.0865066
        endloop
    endfacet
    facet normal -0.341331 0.0488827 0.938671
        outer loop
            vertex 0.00451619 -0.00296581 0.0888201
            vertex 0.0198183 -0.00052813 0.0942575
            vertex 0.0129029 0.00787173 0.0913054
        endloop
    endfacet
    facet normal -0.80141 -0.420298 0.425549
        outer loop
            vertex -0.0347864 -0.0135937 0.0459639
            vertex -0.0307434 -0.0249375 0.042374
            vertex -0.0251472 -0.0234168 0.0544149
        endloop
    endfacet
    facet normal -0.432456 -0.440935 0.786485
        outer loop
            vertex 0.0100454 -0.0249914 0.0836492
            vertex 0.00332442 -0.0147219 0.0857111
            vertex -0.000993329 -0.0250145 0.0775665
        endloop
    endfacet
    facet normal -0.933292 0.306089 0.187817
        outer loop
            vertex -0.037741 0.0126833 0.0384344
            vertex -0.0378044 0.0193832 0.0272004
            vertex -0.0411025 0.0129683 0.0212661
        endloop
    endfacet
    facet normal -0.364515 -0.203366 0.90872
        outer loop
            vertex 0.00332442 -0.0147219 0.0857111
            vertex 0.0161302 -0.0128938 0.091257
            vertex 0.00451619 -0.00296581 0.0888201
        endloop
    endfacet
    facet normal 0.0656268 -0.276372 -0.958808
        outer loop
            vertex 0.272958 -0.0227276 0.0148415
            vertex -0.00447859 -0.0346511 -0.000711116
            vertex 0.273116 -0.00495261 0.00972876
        endloop
    endfacet
    facet normal -0.934542 -0.177443 0.308455
        outer loop
            vertex -0.0389341 0.00036446 0.041427
            vertex -0.0407414 -0.0101703 0.0298911
            vertex -0.0347864 -0.0135937 0.0459639
        endloop
    endfacet
    facet normal 0.622557 -0.221432 -0.750594
        outer loop
            vertex 0.272958 -0.0227276 0.0148415
            vertex 0.273116 -0.00495261 0.00972876
            vertex 0.283 -0.016604 0.021364
        endloop
    endfacet
    facet normal -0.907624 0.413222 0.0739268
        outer loop
            vertex -0.0399911 0.017617 0.0102259
            vertex -0.0378044 0.0193832 0.0272004
            vertex -0.0353767 0.0250514 0.025323
        endloop
    endfacet
    facet normal -0.858795 0.449337 0.246104
        outer loop
            vertex -0.0353767 0.0250514 0.025323
            vertex -0.0378044 0.0193832 0.0272004
            vertex -0.0321587 0.0221948 0.041768
        endloop
    endfacet
    facet normal -0.2806 0.80272 0.526217
        outer loop
            vertex -0.00208621 0.0387065 0.0621926
            vertex 0.00895491 0.0330422 0.0767208
            vertex 0.014681 0.0406824 0.0681194
        endloop
    endfacet
    facet normal -0.156129 0.778816 0.607511
        outer loop
            vertex 0.00895491 0.0330422 0.0767208
            vertex 0.0256573 0.0328357 0.081278
            vertex 0.0217957 0.0382119 0.0733934
        endloop
    endfacet
    facet normal -0.79515 -0.0969001 0.598621
        outer loop
            vertex -0.026708 -0.0124567 0.060778
            vertex -0.0226583 -0.000572196 0.068081
            vertex -0.0323165 -0.00217459 0.0549926
        endloop
    endfacet
    facet normal -0.408964 0.108701 0.906053
        outer loop
            vertex -0.000948297 0.0112166 0.0846521
            vertex 0.00451619 -0.00296581 0.0888201
            vertex 0.0129029 0.00787173 0.0913054
        endloop
    endfacet
    facet normal -0.291867 0.956441 0.00582642
        outer loop
            vertex -0.0200967 0.0388286 0.0336497
            vertex -0.00630887 0.0429688 0.0446959
            vertex -0.00660906 0.0430931 0.0092534
        endloop
    endfacet
    facet normal 0.639981 0.456922 0.617776
        outer loop
            vertex 0.273 0.0328449 0.0821424
            vertex 0.273 0.0208726 0.0909974
            vertex 0.283 0.0277693 0.075537
        endloop
    endfacet
    facet normal 0.604067 0.291121 0.741856
        outer loop
            vertex 0.283 0.00855032 0.0876903
            vertex 0.273 0.0208726 0.0909974
            vertex 0.273007 0.00881493 0.0957234
        endloop
    endfacet
    facet normal -0.854621 -0.195495 0.481045
        outer loop
            vertex -0.0347864 -0.0135937 0.0459639
            vertex -0.026708 -0.0124567 0.060778
            vertex -0.0323165 -0.00217459 0.0549926
        endloop
    endfacet
    facet normal -0.821353 -0.568304 0.0490817
        outer loop
            vertex -0.0368932 -0.0218815 0.026857
            vertex -0.03924 -0.0199456 0.01
            vertex -0.0321194 -0.0289017 0.0254587
        endloop
    endfacet
    facet normal -0.279893 -0.406239 0.869845
        outer loop
            vertex 0.0100454 -0.0249914 0.0836492
            vertex 0.0232408 -0.0223689 0.0891199
            vertex 0.0161302 -0.0128938 0.091257
        endloop
    endfacet
    facet normal -0.417883 -0.883097 0.213339
        outer loop
            vertex -0.0191208 -0.0391414 0.0355243
            vertex -0.0053185 -0.0432188 0.0456819
            vertex -0.0125734 -0.0397108 0.0459922
        endloop
    endfacet
    facet normal -0.696875 -0.595863 0.399138
        outer loop
            vertex -0.0307434 -0.0249375 0.042374
            vertex -0.0182945 -0.0343049 0.0501248
            vertex -0.0251472 -0.0234168 0.0544149
        endloop
    endfacet
    facet normal -0.0930366 0.614906 0.783093
        outer loop
            vertex 0.0256573 0.0328357 0.081278
            vertex 0.0250172 0.0240159 0.0881275
            vertex 0.0340668 0.0244589 0.0888548
        endloop
    endfacet
    facet normal -0.412919 0.598221 -0.686752
        outer loop
            vertex -0.00828545 0.0346584 -0.000698348
            vertex -0.0237823 0.0247596 -3.37663e-006
            vertex -0.0214912 0.0378248 0.01
        endloop
    endfacet
    facet normal 0.609998 -0.415435 0.674771
        outer loop
            vertex 0.283 -0.013853 0.0858816
            vertex 0.273 -0.0159742 0.0936157
            vertex 0.273 -0.0286744 0.0857966
        endloop
    endfacet
    facet normal 0.881046 -0.341154 -0.327675
        outer loop
            vertex 0.287237 -0.0166005 0.0327527
            vertex 0.283 -0.028317 0.0335588
            vertex 0.283 -0.016604 0.021364
        endloop
    endfacet
    facet normal -0.372316 -0.639517 0.672606
        outer loop
            vertex 0.0100454 -0.0249914 0.0836492
            vertex -0.00689981 -0.0288391 0.0706109
            vertex 0.00984572 -0.0366961 0.0724098
        endloop
    endfacet
    facet normal -0.188389 -0.752643 0.630903
        outer loop
            vertex 0.0192807 -0.0389064 0.0725903
            vertex 0.0229525 -0.0330078 0.0807235
            vertex 0.00984572 -0.0366961 0.0724098
        endloop
    endfacet
    facet normal 0.999985 -0.00012625 -0.00545055
        outer loop
            vertex 0.287202 -0.0251925 0.0606553
            vertex 0.287038 0.0070295 0.0298203
            vertex 0.287114 0.0232101 0.0433881
        endloop
    endfacet
    facet normal -0.129311 -0.0625072 0.989632
        outer loop
            vertex 0.0282612 0.00578432 0.0957594
            vertex 0.0198183 -0.00052813 0.0942575
            vertex 0.034356 -0.0012512 0.0961114
        endloop
    endfacet
    facet normal -0.283285 -0.908848 0.306177
        outer loop
            vertex 0.00236257 -0.0396149 0.0634864
            vertex -0.0053185 -0.0432188 0.0456819
            vertex 0.00944984 -0.0427245 0.0608133
        endloop
    endfacet
    facet normal 0.999989 0.00308688 0.00355632
        outer loop
            vertex 0.287202 -0.0251925 0.0606553
            vertex 0.287114 0.0232101 0.0433881
            vertex 0.287045 0.0213439 0.0644077
        endloop
    endfacet
    facet normal -0.00112564 -0.110644 0.993859
        outer loop
            vertex 0.0312707 -0.0108688 0.0950372
            vertex 0.273 -0.00365213 0.0961144
            vertex 0.034356 -0.0012512 0.0961114
        endloop
    endfacet
    facet normal 0.999971 0.00300653 0.00692644
        outer loop
            vertex 0.287049 -0.00702605 0.0761456
            vertex 0.287045 0.0213439 0.0644077
            vertex 0.287011 0.00898134 0.0746831
        endloop
    endfacet
    facet normal 0.00126545 0.868182 0.496245
        outer loop
            vertex 0.273 0.0328449 0.0821424
            vertex 0.27338 0.0410537 0.0677801
            vertex 0.0217957 0.0382119 0.0733934
        endloop
    endfacet
    facet normal -0.417028 0.415817 0.808198
        outer loop
            vertex 0.0122033 0.0257828 0.083944
            vertex -0.00153641 0.0234206 0.0780697
            vertex -0.000948297 0.0112166 0.0846521
        endloop
    endfacet
    facet normal -0.979681 0.197554 0.0346086
        outer loop
            vertex -0.0429203 0.00332953 0.0248292
            vertex -0.0411025 0.0129683 0.0212661
            vertex -0.0428461 0.00634856 0.00969629
        endloop
    endfacet
    facet normal -0.899324 0.183521 0.396908
        outer loop
            vertex -0.0299157 0.00715416 0.0587217
            vertex -0.037741 0.0126833 0.0384344
            vertex -0.0389341 0.00036446 0.041427
        endloop
    endfacet
    facet normal -0.245798 0.210465 0.946197
        outer loop
            vertex 0.0165013 0.0171279 0.0901813
            vertex 0.0129029 0.00787173 0.0913054
            vertex 0.0282612 0.00578432 0.0957594
        endloop
    endfacet
    facet normal -0.683259 0.25523 0.684116
        outer loop
            vertex -0.01238 0.0183099 0.0740882
            vertex -0.0213084 0.0152304 0.0663199
            vertex -0.0170817 0.00854764 0.0730345
        endloop
    endfacet
    facet normal -0.99871 0.0505054 0.00517895
        outer loop
            vertex -0.0429203 0.00332953 0.0248292
            vertex -0.0428461 0.00634856 0.00969629
            vertex -0.0433906 -0.0044497 0.01
        endloop
    endfacet
    facet normal -0.690279 -0.643256 0.331266
        outer loop
            vertex -0.0276226 -0.0331817 0.0328683
            vertex -0.0182945 -0.0343049 0.0501248
            vertex -0.0307434 -0.0249375 0.042374
        endloop
    endfacet
    facet normal -0.858363 0.384878 0.339237
        outer loop
            vertex -0.0309204 0.015927 0.0520123
            vertex -0.0321587 0.0221948 0.041768
            vertex -0.037741 0.0126833 0.0384344
        endloop
    endfacet
    facet normal -0.000678568 0.999999 -0.000942325
        outer loop
            vertex 0.0042898 0.0431453 0.0567987
            vertex 0.273145 0.0433256 0.0545316
            vertex -0.00660906 0.0430931 0.0092534
        endloop
    endfacet
    facet normal -0.425556 0.68555 0.590698
        outer loop
            vertex -0.00208621 0.0387065 0.0621926
            vertex -0.0107545 0.0288228 0.0674185
            vertex 0.00895491 0.0330422 0.0767208
        endloop
    endfacet
    facet normal -0.661676 0.49272 0.565165
        outer loop
            vertex -0.01238 0.0183099 0.0740882
            vertex -0.0232779 0.0251016 0.0554082
            vertex -0.0213084 0.0152304 0.0663199
        endloop
    endfacet
    facet normal -0.499171 0.517914 0.69469
        outer loop
            vertex -0.0107545 0.0288228 0.0674185
            vertex -0.01238 0.0183099 0.0740882
            vertex -0.00153641 0.0234206 0.0780697
        endloop
    endfacet
    facet normal -0.58732 0.809355 0.000278447
        outer loop
            vertex -0.0200967 0.0388286 0.0336497
            vertex -0.0214912 0.0378248 0.01
            vertex -0.0287887 0.0325234 0.0270376
        endloop
    endfacet
    facet normal 0.616716 0.456178 -0.641532
        outer loop
            vertex 0.273015 0.0341224 0.0245779
            vertex 0.283 0.0258443 0.0282903
            vertex 0.272977 0.0188868 0.0137077
        endloop
    endfacet
    facet normal -0.255894 -0.667289 0.69946
        outer loop
            vertex 0.0100454 -0.0249914 0.0836492
            vertex 0.00984572 -0.0366961 0.0724098
            vertex 0.0229525 -0.0330078 0.0807235
        endloop
    endfacet
    facet normal -0.987334 -0.120786 0.10287
        outer loop
            vertex -0.0429203 0.00332953 0.0248292
            vertex -0.0413451 -0.0131711 0.0205734
            vertex -0.0407414 -0.0101703 0.0298911
        endloop
    endfacet
    facet normal -0.965609 -0.25864 -0.0265336
        outer loop
            vertex -0.03924 -0.0199456 0.01
            vertex -0.0413451 -0.0131711 0.0205734
            vertex -0.0433906 -0.0044497 0.01
        endloop
    endfacet
    facet normal 0.0740565 0.579083 -0.811898
        outer loop
            vertex -0.00828545 0.0346584 -0.000698348
            vertex 0.273015 0.0341224 0.0245779
            vertex 0.272977 0.0188868 0.0137077
        endloop
    endfacet
    facet normal -0.896936 -0.360906 0.255446
        outer loop
            vertex -0.0368932 -0.0218815 0.026857
            vertex -0.0347864 -0.0135937 0.0459639
            vertex -0.0407414 -0.0101703 0.0298911
        endloop
    endfacet
    facet normal 0.60553 -0.772974 0.189326
        outer loop
            vertex 0.283 -0.0367882 0.051568
            vertex 0.273056 -0.0393819 0.0727828
            vertex 0.273004 -0.0434856 0.0561947
        endloop
    endfacet
    facet normal -0.397006 0.39864 0.826724
        outer loop
            vertex 0.0165013 0.0171279 0.0901813
            vertex 0.0122033 0.0257828 0.083944
            vertex -0.000948297 0.0112166 0.0846521
        endloop
    endfacet
    facet normal -0.207278 -0.865089 0.45679
        outer loop
            vertex 0.00236257 -0.0396149 0.0634864
            vertex 0.00944984 -0.0427245 0.0608133
            vertex 0.00984572 -0.0366961 0.0724098
        endloop
    endfacet
    facet normal -0.564527 -0.469878 0.67862
        outer loop
            vertex -0.00550032 -0.0138849 0.0815234
            vertex -0.0176322 -0.0199347 0.0672423
            vertex -0.000993329 -0.0250145 0.0775665
        endloop
    endfacet
    facet normal -0.00120091 0.452704 0.89166
        outer loop
            vertex 0.0332711 0.0148119 0.0937516
            vertex 0.273 0.0208726 0.0909974
            vertex 0.0340668 0.0244589 0.0888548
        endloop
    endfacet
    facet normal 0.62674 0.0240749 0.778857
        outer loop
            vertex 0.283 0.00855032 0.0876903
            vertex 0.273007 0.00881493 0.0957234
            vertex 0.273 -0.00365213 0.0961144
        endloop
    endfacet
    facet normal -0.673397 -0.511826 0.533452
        outer loop
            vertex -0.0176322 -0.0199347 0.0672423
            vertex -0.0251472 -0.0234168 0.0544149
            vertex -0.0169593 -0.0297662 0.0586588
        endloop
    endfacet
    facet normal -0.00201653 -0.950761 0.30992
        outer loop
            vertex 0.0192807 -0.0389064 0.0725903
            vertex 0.00944984 -0.0427245 0.0608133
            vertex 0.273056 -0.0393819 0.0727828
        endloop
    endfacet
    facet normal -0.491483 0.781465 0.384393
        outer loop
            vertex -0.00208621 0.0387065 0.0621926
            vertex -0.0129138 0.0390882 0.0475725
            vertex -0.0176861 0.0341305 0.0515496
        endloop
    endfacet
    facet normal -0.711628 -0.325454 0.622628
        outer loop
            vertex -0.026708 -0.0124567 0.060778
            vertex -0.0176322 -0.0199347 0.0672423
            vertex -0.0187403 -0.0105402 0.0708864
        endloop
    endfacet
    facet normal 0.629689 -0.598561 0.495194
        outer loop
            vertex 0.273056 -0.0393819 0.0727828
            vertex 0.283 -0.0285915 0.0731808
            vertex 0.273 -0.0286744 0.0857966
        endloop
    endfacet
    facet normal -0.877069 -0.397804 0.26926
        outer loop
            vertex -0.0368932 -0.0218815 0.026857
            vertex -0.0307434 -0.0249375 0.042374
            vertex -0.0347864 -0.0135937 0.0459639
        endloop
    endfacet
    facet normal -0.893696 0.0518443 0.445668
        outer loop
            vertex -0.0299157 0.00715416 0.0587217
            vertex -0.0389341 0.00036446 0.041427
            vertex -0.0323165 -0.00217459 0.0549926
        endloop
    endfacet
    facet normal -0.295958 0.752694 -0.588099
        outer loop
            vertex -0.00828545 0.0346584 -0.000698348
            vertex -0.0214912 0.0378248 0.01
            vertex -0.00660906 0.0430931 0.0092534
        endloop
    endfacet
    facet normal -0.752646 0.657967 0.0245573
        outer loop
            vertex -0.0353767 0.0250514 0.025323
            vertex -0.0287887 0.0325234 0.0270376
            vertex -0.0331967 0.028117 0.01
        endloop
    endfacet
    facet normal 0.00076413 0.985615 0.169003
        outer loop
            vertex 0.0042898 0.0431453 0.0567987
            vertex 0.27338 0.0410537 0.0677801
            vertex 0.273145 0.0433256 0.0545316
        endloop
    endfacet
    facet normal -0.624062 -0.537694 0.56695
        outer loop
            vertex -0.00689981 -0.0288391 0.0706109
            vertex -0.0176322 -0.0199347 0.0672423
            vertex -0.0169593 -0.0297662 0.0586588
        endloop
    endfacet
    facet normal 0.0429748 -0.0509426 -0.997777
        outer loop
            vertex -0.00447859 -0.0346511 -0.000711116
            vertex 0.0374265 -0.0127266 -2.56178e-005
            vertex 0.273116 -0.00495261 0.00972876
        endloop
    endfacet
    facet normal -0.681933 -0.596157 0.423751
        outer loop
            vertex -0.0182945 -0.0343049 0.0501248
            vertex -0.0169593 -0.0297662 0.0586588
            vertex -0.0251472 -0.0234168 0.0544149
        endloop
    endfacet
    facet normal -0.398526 -0.71901 0.569388
        outer loop
            vertex 0.00236257 -0.0396149 0.0634864
            vertex 0.00984572 -0.0366961 0.0724098
            vertex -0.00689981 -0.0288391 0.0706109
        endloop
    endfacet
    facet normal -0.476248 -0.793558 0.378753
        outer loop
            vertex -0.0182945 -0.0343049 0.0501248
            vertex -0.0125734 -0.0397108 0.0459922
            vertex -0.0054721 -0.0372949 0.0599832
        endloop
    endfacet
    facet normal -0.396878 -0.85117 0.343508
        outer loop
            vertex 0.00236257 -0.0396149 0.0634864
            vertex -0.0125734 -0.0397108 0.0459922
            vertex -0.0053185 -0.0432188 0.0456819
        endloop
    endfacet
    facet normal -0.000756614 -0.999985 -0.0053473
        outer loop
            vertex 0.273004 -0.0434856 0.0561947
            vertex -0.0053185 -0.0432188 0.0456819
            vertex -0.00237097 -0.0430282 0.00962108
        endloop
    endfacet
    facet normal -0.183594 -0.34536 0.920337
        outer loop
            vertex 0.0312707 -0.0108688 0.0950372
            vertex 0.0161302 -0.0128938 0.091257
            vertex 0.0232408 -0.0223689 0.0891199
        endloop
    endfacet
    facet normal -0.680975 0.464479 0.566156
        outer loop
            vertex -0.0107545 0.0288228 0.0674185
            vertex -0.0232779 0.0251016 0.0554082
            vertex -0.01238 0.0183099 0.0740882
        endloop
    endfacet
    facet normal 0.926055 0.353331 0.132588
        outer loop
            vertex 0.283 0.0277693 0.075537
            vertex 0.287045 0.0213439 0.0644077
            vertex 0.283 0.0344687 0.0576839
        endloop
    endfacet
    facet normal 0.0014708 0.364921 0.931037
        outer loop
            vertex 0.0332711 0.0148119 0.0937516
            vertex 0.273007 0.00881493 0.0957234
            vertex 0.273 0.0208726 0.0909974
        endloop
    endfacet
    facet normal -0.870191 0.420995 0.25599
        outer loop
            vertex -0.037741 0.0126833 0.0384344
            vertex -0.0321587 0.0221948 0.041768
            vertex -0.0378044 0.0193832 0.0272004
        endloop
    endfacet
    facet normal 0.949003 -0.0309429 -0.313744
        outer loop
            vertex 0.287237 -0.0166005 0.0327527
            vertex 0.283 0.00573141 0.0177343
            vertex 0.287038 0.0070295 0.0298203
        endloop
    endfacet
    facet normal -0.798153 -0.38344 0.464677
        outer loop
            vertex -0.0347864 -0.0135937 0.0459639
            vertex -0.0251472 -0.0234168 0.0544149
            vertex -0.026708 -0.0124567 0.060778
        endloop
    endfacet
    facet normal -0.639809 -0.117073 0.759564
        outer loop
            vertex -0.00550032 -0.0138849 0.0815234
            vertex -0.00961783 0.000786495 0.0803164
            vertex -0.0187403 -0.0105402 0.0708864
        endloop
    endfacet
    facet normal -0.159278 0.297736 0.941267
        outer loop
            vertex 0.0165013 0.0171279 0.0901813
            vertex 0.0282612 0.00578432 0.0957594
            vertex 0.0332711 0.0148119 0.0937516
        endloop
    endfacet
    facet normal -0.00263226 -0.381951 0.924179
        outer loop
            vertex 0.0312707 -0.0108688 0.0950372
            vertex 0.034232 -0.0204932 0.091068
            vertex 0.273 -0.0159742 0.0936157
        endloop
    endfacet
    facet normal -0.00686092 -0.0208124 -0.99976
        outer loop
            vertex -0.00828545 0.0346584 -0.000698348
            vertex 0.0374265 -0.0127266 -2.56178e-005
            vertex -0.0339876 0.011135 -3.22696e-005
        endloop
    endfacet
    facet normal -0.740902 0.181189 0.646711
        outer loop
            vertex -0.0299157 0.00715416 0.0587217
            vertex -0.0170817 0.00854764 0.0730345
            vertex -0.0213084 0.0152304 0.0663199
        endloop
    endfacet
    facet normal -0.536577 -0.791514 0.292561
        outer loop
            vertex -0.0191208 -0.0391414 0.0355243
            vertex -0.0125734 -0.0397108 0.0459922
            vertex -0.0182945 -0.0343049 0.0501248
        endloop
    endfacet
    facet normal -0.745662 0.0979729 0.659082
        outer loop
            vertex -0.0299157 0.00715416 0.0587217
            vertex -0.0226583 -0.000572196 0.068081
            vertex -0.0170817 0.00854764 0.0730345
        endloop
    endfacet
    facet normal -0.839617 0.543072 -0.0108025
        outer loop
            vertex -0.0399911 0.017617 0.0102259
            vertex -0.0353767 0.0250514 0.025323
            vertex -0.0331967 0.028117 0.01
        endloop
    endfacet
    facet normal -0.36593 0.882964 0.294059
        outer loop
            vertex 0.0042898 0.0431453 0.0567987
            vertex -0.0129138 0.0390882 0.0475725
            vertex -0.00208621 0.0387065 0.0621926
        endloop
    endfacet
    facet normal -0.42814 0.880278 0.204468
        outer loop
            vertex -0.0200967 0.0388286 0.0336497
            vertex -0.0129138 0.0390882 0.0475725
            vertex -0.00630887 0.0429688 0.0446959
        endloop
    endfacet
    facet normal 0.624762 -0.155177 0.76524
        outer loop
            vertex 0.283 -0.013853 0.0858816
            vertex 0.273 -0.00365213 0.0961144
            vertex 0.273 -0.0159742 0.0936157
        endloop
    endfacet
    facet normal -0.00196178 -0.809092 0.587679
        outer loop
            vertex 0.0192807 -0.0389064 0.0725903
            vertex 0.273056 -0.0393819 0.0727828
            vertex 0.0229525 -0.0330078 0.0807235
        endloop
    endfacet
    facet normal 0.954915 0.0292588 0.295435
        outer loop
            vertex 0.283 0.00855032 0.0876903
            vertex 0.287049 -0.00702605 0.0761456
            vertex 0.287011 0.00898134 0.0746831
        endloop
    endfacet
    facet normal -0.204671 0.503354 0.839491
        outer loop
            vertex 0.0165013 0.0171279 0.0901813
            vertex 0.0250172 0.0240159 0.0881275
            vertex 0.0122033 0.0257828 0.083944
        endloop
    endfacet
    facet normal 0.710476 0.658861 0.247238
        outer loop
            vertex 0.283 0.0277693 0.075537
            vertex 0.283 0.0344687 0.0576839
            vertex 0.27338 0.0410537 0.0677801
        endloop
    endfacet
    facet normal -0.406921 0.546337 0.732073
        outer loop
            vertex 0.00895491 0.0330422 0.0767208
            vertex -0.00153641 0.0234206 0.0780697
            vertex 0.0122033 0.0257828 0.083944
        endloop
    endfacet
    facet normal -0.954001 0.154772 0.256766
        outer loop
            vertex -0.0389341 0.00036446 0.041427
            vertex -0.037741 0.0126833 0.0384344
            vertex -0.0429203 0.00332953 0.0248292
        endloop
    endfacet
    facet normal -0.000741738 0.905185 0.425017
        outer loop
            vertex 0.014681 0.0406824 0.0681194
            vertex 0.0217957 0.0382119 0.0733934
            vertex 0.27338 0.0410537 0.0677801
        endloop
    endfacet
    facet normal 0.694654 0.334295 -0.636949
        outer loop
            vertex 0.283 0.0258443 0.0282903
            vertex 0.283 0.00573141 0.0177343
            vertex 0.272977 0.0188868 0.0137077
        endloop
    endfacet
    facet normal -0.368872 0.252051 0.894653
        outer loop
            vertex 0.0165013 0.0171279 0.0901813
            vertex -0.000948297 0.0112166 0.0846521
            vertex 0.0129029 0.00787173 0.0913054
        endloop
    endfacet
    facet normal 0.0202323 0.00532398 -0.999781
        outer loop
            vertex -0.00828545 0.0346584 -0.000698348
            vertex 0.0284226 0.0262899 -5.926e-008
            vertex 0.0374265 -0.0127266 -2.56178e-005
        endloop
    endfacet
endsolid D:/Users/Paul Maroldt/Documents/!StartUp_Repositories/modrob-gen2/ModuleLibrary/L283-L-80-80/L283-L-80-80_convdec.stl_created_by_BoundingMesh