solid D:/Users/Paul Maroldt/Documents/!StartUp_Repositories/modrob-gen2/ModuleLibrary/L448-L-110-110/L448-L-110-110_convdec.stl_created_by_BoundingMesh
    facet normal -0.982511 0.18478 -0.0230041
        outer loop
            vertex -0.0579768 0.0075922 0.0276392
            vertex -0.0555536 0.0183072 0.0102118
            vertex -0.0586971 0.00156243 0.00996938
        endloop
    endfacet
    facet normal -0.216654 0.251823 0.943211
        outer loop
            vertex 0.0403025 0.00665222 0.12609
            vertex 0.0220226 0.0229758 0.117533
            vertex 0.0182044 0.00893364 0.120405
        endloop
    endfacet
    facet normal 0.648609 -0.0965959 0.754968
        outer loop
            vertex 0.448 -0.0159533 0.115788
            vertex 0.438 0.0076094 0.127394
            vertex 0.438 -0.0147202 0.124537
        endloop
    endfacet
    facet normal -0.905013 0.395152 0.157501
        outer loop
            vertex -0.0479802 0.033487 0.02972
            vertex -0.0552189 0.019198 0.0239753
            vertex -0.0470995 0.0298926 0.0437985
        endloop
    endfacet
    facet normal 0.800396 -0.360129 -0.479241
        outer loop
            vertex 0.438 -0.0395611 0.0230501
            vertex 0.448 -0.0154737 0.0216508
            vertex 0.448 -0.0376518 0.0383167
        endloop
    endfacet
    facet normal -0.4491 0.59387 0.667554
        outer loop
            vertex 0.0111629 0.0440186 0.0991866
            vertex -0.0104004 0.032319 0.095088
            vertex 0.00351659 0.030555 0.10602
        endloop
    endfacet
    facet normal -0.178696 0.608895 -0.772862
        outer loop
            vertex -0.00766015 0.0581299 0.00947553
            vertex -0.00377414 0.0465486 -0.000547224
            vertex -0.0250156 0.0409948 -1.14475e-005
        endloop
    endfacet
    facet normal 0.987568 -0.136098 0.078656
        outer loop
            vertex 0.452693 -0.0253263 0.0603498
            vertex 0.452033 -0.0136734 0.0887991
            vertex 0.448 -0.0392857 0.0951186
        endloop
    endfacet
    facet normal -0.100301 -0.301704 0.948111
        outer loop
            vertex 0.0268549 -0.023346 0.119354
            vertex 0.047663 -0.0209052 0.122332
            vertex 0.0442191 -0.00840006 0.125947
        endloop
    endfacet
    facet normal 0.999985 -0.0055087 -0.000750119
        outer loop
            vertex 0.452238 0.0270142 0.0632582
            vertex 0.452033 -0.0136734 0.0887991
            vertex 0.45209 0.00304749 0.0419675
        endloop
    endfacet
    facet normal -0.731572 -0.524062 0.436074
        outer loop
            vertex -0.0396711 -0.0375318 0.0524931
            vertex -0.0245065 -0.0425024 0.0719602
            vertex -0.0307582 -0.0270536 0.0800381
        endloop
    endfacet
    facet normal 0.980333 0 -0.197352
        outer loop
            vertex 0.448 -0.0154737 0.0216508
            vertex 0.448 0.0122204 0.0216508
            vertex 0.45209 0.00304749 0.0419675
        endloop
    endfacet
    facet normal 0.681297 0.732007 0.000127008
        outer loop
            vertex 0.438 0.0579525 0.0502605
            vertex 0.438 0.0579477 0.0779362
            vertex 0.448 0.048643 0.0632065
        endloop
    endfacet
    facet normal 0.756333 0.427575 0.495115
        outer loop
            vertex 0.448 0.0419083 0.0932177
            vertex 0.438 0.0308285 0.118062
            vertex 0.448 0.019044 0.112963
        endloop
    endfacet
    facet normal 0.607999 -0.296076 0.736666
        outer loop
            vertex 0.448 -0.0159533 0.115788
            vertex 0.438 -0.0147202 0.124537
            vertex 0.438 -0.0331943 0.117112
        endloop
    endfacet
    facet normal 0.981767 0.124241 0.143866
        outer loop
            vertex 0.448 0.0419083 0.0932177
            vertex 0.448 0.019044 0.112963
            vertex 0.45213 0.0116439 0.09117
        endloop
    endfacet
    facet normal 0.977866 0.191402 -0.0845219
        outer loop
            vertex 0.448 0.0361061 0.0348163
            vertex 0.448 0.048643 0.0632065
            vertex 0.452238 0.0270142 0.0632582
        endloop
    endfacet
    facet normal 0.00179727 -0.911227 0.411901
        outer loop
            vertex 0.0208285 -0.0540639 0.0909012
            vertex 0.438 -0.0558601 0.0851073
            vertex 0.438 -0.0487105 0.100924
        endloop
    endfacet
    facet normal 0.77305 0 -0.634345
        outer loop
            vertex 0.438 -0.0126162 0.00946419
            vertex 0.448 0.0122204 0.0216508
            vertex 0.448 -0.0154737 0.0216508
        endloop
    endfacet
    facet normal 0.0503779 0.663175 -0.746767
        outer loop
            vertex 0.438 0.0395611 0.0230501
            vertex -0.00377414 0.0465486 -0.000547224
            vertex -0.00766015 0.0581299 0.00947553
        endloop
    endfacet
    facet normal -0.669116 0.684786 0.288706
        outer loop
            vertex -0.0197193 0.0529224 0.0593001
            vertex -0.0382719 0.0438711 0.0377708
            vertex -0.0356013 0.0361129 0.0623621
        endloop
    endfacet
    facet normal -0.86503 0.360963 0.348466
        outer loop
            vertex -0.0470995 0.0298926 0.0437985
            vertex -0.0517942 0.0156528 0.0468949
            vertex -0.0421841 0.0200438 0.0662025
        endloop
    endfacet
    facet normal -0.912073 -0.409793 0.0138367
        outer loop
            vertex -0.0568473 -0.0155618 0.0100625
            vertex -0.0532783 -0.0235074 0.01
            vertex -0.0553915 -0.0183298 0.0240462
        endloop
    endfacet
    facet normal 0.686888 0.602126 -0.406975
        outer loop
            vertex 0.438 0.0579525 0.0502605
            vertex 0.448 0.0361061 0.0348163
            vertex 0.438 0.0395611 0.0230501
        endloop
    endfacet
    facet normal -0.963162 0.0805935 0.256563
        outer loop
            vertex -0.0574054 -0.00723553 0.0344421
            vertex -0.0509886 0.00280822 0.0553764
            vertex -0.0579768 0.0075922 0.0276392
        endloop
    endfacet
    facet normal 0.988673 0.129822 0.075315
        outer loop
            vertex 0.448 0.0419083 0.0932177
            vertex 0.45213 0.0116439 0.09117
            vertex 0.452238 0.0270142 0.0632582
        endloop
    endfacet
    facet normal -0.218085 0.632419 -0.743293
        outer loop
            vertex -0.00766015 0.0581299 0.00947553
            vertex -0.0250156 0.0409948 -1.14475e-005
            vertex -0.0273872 0.0519436 0.01
        endloop
    endfacet
    facet normal 0.98846 0.0971486 -0.11623
        outer loop
            vertex 0.448 0.0361061 0.0348163
            vertex 0.452238 0.0270142 0.0632582
            vertex 0.45209 0.00304749 0.0419675
        endloop
    endfacet
    facet normal 0.777356 -0.575451 -0.254115
        outer loop
            vertex 0.448 -0.05012 0.0665513
            vertex 0.438 -0.0535743 0.0437829
            vertex 0.448 -0.0376518 0.0383167
        endloop
    endfacet
    facet normal 0.660348 -0.740159 0.126908
        outer loop
            vertex 0.448 -0.05012 0.0665513
            vertex 0.438 -0.0558601 0.0851073
            vertex 0.438 -0.0592247 0.0654841
        endloop
    endfacet
    facet normal 0.743612 0.028371 -0.668009
        outer loop
            vertex 0.438 -0.0126162 0.00946419
            vertex 0.438 0.014937 0.0106344
            vertex 0.448 0.0122204 0.0216508
        endloop
    endfacet
    facet normal -0.191878 -0.528498 0.826966
        outer loop
            vertex 0.0397756 -0.0305453 0.117751
            vertex 0.0268549 -0.023346 0.119354
            vertex 0.0223192 -0.0377473 0.109098
        endloop
    endfacet
    facet normal -0.683433 -0.725904 0.0773453
        outer loop
            vertex -0.0411957 -0.0435794 0.01
            vertex -0.0313077 -0.0501754 0.0354667
            vertex -0.04257 -0.0400414 0.0310615
        endloop
    endfacet
    facet normal -0.325133 0.460662 0.825881
        outer loop
            vertex 0.0308913 0.0331723 0.115337
            vertex 0.00351659 0.030555 0.10602
            vertex 0.0220226 0.0229758 0.117533
        endloop
    endfacet
    facet normal -0.234317 -0.710836 0.66318
        outer loop
            vertex 0.0208285 -0.0540639 0.0909012
            vertex 0.0343163 -0.041688 0.108932
            vertex 0.00756446 -0.0466049 0.0942097
        endloop
    endfacet
    facet normal -0.00139886 -0.428272 0.903649
        outer loop
            vertex 0.0397756 -0.0305453 0.117751
            vertex 0.438 -0.0331943 0.117112
            vertex 0.047663 -0.0209052 0.122332
        endloop
    endfacet
    facet normal -0.00872765 -0.999956 0.00350327
        outer loop
            vertex 0.00812993 -0.0580692 0.0763948
            vertex -0.0105877 -0.0579787 0.0555952
            vertex -0.0135968 -0.058116 0.0089086
        endloop
    endfacet
    facet normal -0.313697 0.56535 0.762872
        outer loop
            vertex 0.0308913 0.0331723 0.115337
            vertex 0.0111629 0.0440186 0.0991866
            vertex 0.00351659 0.030555 0.10602
        endloop
    endfacet
    facet normal -0.59712 -0.586102 0.54766
        outer loop
            vertex -0.0307582 -0.0270536 0.0800381
            vertex -0.0131924 -0.0460808 0.0788275
            vertex -0.0140939 -0.0331206 0.0917145
        endloop
    endfacet
    facet normal -0.34852 -0.50363 -0.790501
        outer loop
            vertex -0.0411957 -0.0435794 0.01
            vertex -0.0390141 -0.0293116 -5.18794e-005
            vertex -0.0120381 -0.0470626 -0.000635986
        endloop
    endfacet
    facet normal -0.755533 0.651241 0.0710963
        outer loop
            vertex -0.0476651 0.0360054 0.01
            vertex -0.0479802 0.033487 0.02972
            vertex -0.0382719 0.0438711 0.0377708
        endloop
    endfacet
    facet normal -0.504745 -0.626093 0.59434
        outer loop
            vertex 0.00172868 -0.0362816 0.101822
            vertex -0.0140939 -0.0331206 0.0917145
            vertex -0.0131924 -0.0460808 0.0788275
        endloop
    endfacet
    facet normal 0.808649 0.538155 -0.237645
        outer loop
            vertex 0.438 0.0579525 0.0502605
            vertex 0.448 0.048643 0.0632065
            vertex 0.448 0.0361061 0.0348163
        endloop
    endfacet
    facet normal -0.716062 0.0641818 0.69508
        outer loop
            vertex -0.0179011 -0.00556183 0.101304
            vertex -0.0220442 0.0152448 0.0951146
            vertex -0.035803 0.00475682 0.0819089
        endloop
    endfacet
    facet normal -0.912174 -0.402641 0.0762772
        outer loop
            vertex -0.0506812 -0.0265791 0.0368299
            vertex -0.0553915 -0.0183298 0.0240462
            vertex -0.0503186 -0.0296715 0.0248424
        endloop
    endfacet
    facet normal 0.000179027 0.942878 0.333137
        outer loop
            vertex 0.438 0.0496119 0.101529
            vertex 0.438 0.0579477 0.0779362
            vertex 0.0128137 0.0560568 0.0835165
        endloop
    endfacet
    facet normal 0.000361329 1 0.000173506
        outer loop
            vertex 0.438 0.0579525 0.0502605
            vertex 0.00752469 0.0581038 0.0747235
            vertex 0.438 0.0579477 0.0779362
        endloop
    endfacet
    facet normal -0.0339309 0.0334139 -0.998865
        outer loop
            vertex -0.00377414 0.0465486 -0.000547224
            vertex -0.0405149 0.0249258 -2.24823e-005
            vertex -0.0250156 0.0409948 -1.14475e-005
        endloop
    endfacet
    facet normal -0.000360085 -0.00017096 -1
        outer loop
            vertex 0.0998429 -0.0237623 -6.46994e-005
            vertex -0.048845 -8.39601e-007 -1.52213e-005
            vertex -0.0405149 0.0249258 -2.24823e-005
        endloop
    endfacet
    facet normal -0.466962 -0.883006 -0.0473948
        outer loop
            vertex -0.0411957 -0.0435794 0.01
            vertex -0.0135968 -0.058116 0.0089086
            vertex -0.0313077 -0.0501754 0.0354667
        endloop
    endfacet
    facet normal -0.000140425 0.00120357 -0.999999
        outer loop
            vertex 0.0998429 -0.0237623 -6.46994e-005
            vertex -0.0390141 -0.0293116 -5.18794e-005
            vertex -0.048845 -8.39601e-007 -1.52213e-005
        endloop
    endfacet
    facet normal -0.0032641 0.7426 0.669728
        outer loop
            vertex 0.438 0.0496119 0.101529
            vertex 0.0321587 0.0468513 0.102612
            vertex 0.0440045 0.0371208 0.113459
        endloop
    endfacet
    facet normal -0.359657 -0.426321 0.829998
        outer loop
            vertex 0.00172868 -0.0362816 0.101822
            vertex 0.0268549 -0.023346 0.119354
            vertex 0.00814085 -0.0163699 0.114828
        endloop
    endfacet
    facet normal -0.85539 -0.413243 0.312312
        outer loop
            vertex -0.0396711 -0.0375318 0.0524931
            vertex -0.0464502 -0.0189608 0.0584985
            vertex -0.0506812 -0.0265791 0.0368299
        endloop
    endfacet
    facet normal -0.00325378 -0.0103467 0.999941
        outer loop
            vertex 0.438 0.0076094 0.127394
            vertex 0.0403025 0.00665222 0.12609
            vertex 0.0442191 -0.00840006 0.125947
        endloop
    endfacet
    facet normal 0.767494 0.309449 -0.561422
        outer loop
            vertex 0.438 0.0395611 0.0230501
            vertex 0.448 0.0361061 0.0348163
            vertex 0.448 0.0122204 0.0216508
        endloop
    endfacet
    facet normal 0.76683 -0.600139 0.227606
        outer loop
            vertex 0.448 -0.05012 0.0665513
            vertex 0.448 -0.0392857 0.0951186
            vertex 0.438 -0.0558601 0.0851073
        endloop
    endfacet
    facet normal -0.38368 -0.782059 0.491094
        outer loop
            vertex 0.00812993 -0.0580692 0.0763948
            vertex 0.00756446 -0.0466049 0.0942097
            vertex -0.0131924 -0.0460808 0.0788275
        endloop
    endfacet
    facet normal 0.0515086 0.827404 -0.559239
        outer loop
            vertex 0.438 0.0579525 0.0502605
            vertex 0.438 0.0395611 0.0230501
            vertex -0.00766015 0.0581299 0.00947553
        endloop
    endfacet
    facet normal 0.674083 0.275458 0.685372
        outer loop
            vertex 0.438 0.0076094 0.127394
            vertex 0.448 0.019044 0.112963
            vertex 0.438 0.0308285 0.118062
        endloop
    endfacet
    facet normal -0.919221 0.344511 0.190641
        outer loop
            vertex -0.0470995 0.0298926 0.0437985
            vertex -0.0552189 0.019198 0.0239753
            vertex -0.0517942 0.0156528 0.0468949
        endloop
    endfacet
    facet normal 0.989082 -0.0174914 0.146323
        outer loop
            vertex 0.448 -0.0159533 0.115788
            vertex 0.452033 -0.0136734 0.0887991
            vertex 0.45213 0.0116439 0.09117
        endloop
    endfacet
    facet normal -0.619235 -0.396578 0.677698
        outer loop
            vertex -0.0307582 -0.0270536 0.0800381
            vertex -0.0140939 -0.0331206 0.0917145
            vertex -0.0284805 -0.0190476 0.0868043
        endloop
    endfacet
    facet normal -0.415399 0.899506 0.135399
        outer loop
            vertex -0.0197193 0.0529224 0.0593001
            vertex -0.00897028 0.0578972 0.0592283
            vertex -0.0267967 0.0529557 0.0373657
        endloop
    endfacet
    facet normal -0.917193 -0.284385 0.279075
        outer loop
            vertex -0.0574054 -0.00723553 0.0344421
            vertex -0.0506812 -0.0265791 0.0368299
            vertex -0.0464502 -0.0189608 0.0584985
        endloop
    endfacet
    facet normal -0.541477 0.364321 0.757676
        outer loop
            vertex -0.0220442 0.0152448 0.0951146
            vertex -0.00156624 0.0147733 0.109976
            vertex 0.00351659 0.030555 0.10602
        endloop
    endfacet
    facet normal -0.939764 -0.308512 0.147185
        outer loop
            vertex -0.0574054 -0.00723553 0.0344421
            vertex -0.0553915 -0.0183298 0.0240462
            vertex -0.0506812 -0.0265791 0.0368299
        endloop
    endfacet
    facet normal -0.101905 0.682613 0.72364
        outer loop
            vertex 0.0308913 0.0331723 0.115337
            vertex 0.0440045 0.0371208 0.113459
            vertex 0.0321587 0.0468513 0.102612
        endloop
    endfacet
    facet normal -0.516046 -0.78562 0.341316
        outer loop
            vertex -0.0245065 -0.0425024 0.0719602
            vertex -0.025947 -0.0497937 0.0529996
            vertex -0.0111194 -0.054065 0.0655865
        endloop
    endfacet
    facet normal -0.610523 0.203804 -0.765327
        outer loop
            vertex -0.048845 -8.39601e-007 -1.52213e-005
            vertex -0.0555536 0.0183072 0.0102118
            vertex -0.0405149 0.0249258 -2.24823e-005
        endloop
    endfacet
    facet normal -0.324104 -0.80018 0.504647
        outer loop
            vertex 0.0208285 -0.0540639 0.0909012
            vertex 0.00756446 -0.0466049 0.0942097
            vertex 0.00812993 -0.0580692 0.0763948
        endloop
    endfacet
    facet normal -0.487699 -0.821376 0.295788
        outer loop
            vertex -0.025947 -0.0497937 0.0529996
            vertex -0.0105877 -0.0579787 0.0555952
            vertex -0.0111194 -0.054065 0.0655865
        endloop
    endfacet
    facet normal -0.925143 -0.142404 0.351898
        outer loop
            vertex -0.0574054 -0.00723553 0.0344421
            vertex -0.0464502 -0.0189608 0.0584985
            vertex -0.0509886 0.00280822 0.0553764
        endloop
    endfacet
    facet normal -0.00548496 -0.014945 -0.999873
        outer loop
            vertex 0.0998429 -0.0237623 -6.46994e-005
            vertex -0.0405149 0.0249258 -2.24823e-005
            vertex -0.00377414 0.0465486 -0.000547224
        endloop
    endfacet
    facet normal 0.0270645 0.0330285 -0.999088
        outer loop
            vertex 0.0998429 -0.0237623 -6.46994e-005
            vertex -0.00377414 0.0465486 -0.000547224
            vertex 0.438 -0.0126162 0.00946419
        endloop
    endfacet
    facet normal 0.0547341 0.449543 -0.89158
        outer loop
            vertex 0.438 0.0395611 0.0230501
            vertex 0.438 0.014937 0.0106344
            vertex -0.00377414 0.0465486 -0.000547224
        endloop
    endfacet
    facet normal 0.00163995 -0.985616 0.168994
        outer loop
            vertex 0.00812993 -0.0580692 0.0763948
            vertex 0.438 -0.0592247 0.0654841
            vertex 0.438 -0.0558601 0.0851073
        endloop
    endfacet
    facet normal 0.0515081 -0.827405 -0.559239
        outer loop
            vertex -0.0135968 -0.058116 0.0089086
            vertex 0.438 -0.0395611 0.0230501
            vertex 0.438 -0.0535743 0.0437829
        endloop
    endfacet
    facet normal -0.721756 0.465658 0.512085
        outer loop
            vertex -0.0214259 0.0377282 0.0808727
            vertex -0.0356013 0.0361129 0.0623621
            vertex -0.0291398 0.0216381 0.0846317
        endloop
    endfacet
    facet normal 0.741752 0.30195 -0.598858
        outer loop
            vertex 0.438 0.0395611 0.0230501
            vertex 0.448 0.0122204 0.0216508
            vertex 0.438 0.014937 0.0106344
        endloop
    endfacet
    facet normal 0.8028 0.0479734 0.594316
        outer loop
            vertex 0.448 -0.0159533 0.115788
            vertex 0.448 0.019044 0.112963
            vertex 0.438 0.0076094 0.127394
        endloop
    endfacet
    facet normal -0.619789 0.267425 -0.737798
        outer loop
            vertex -0.0476651 0.0360054 0.01
            vertex -0.0405149 0.0249258 -2.24823e-005
            vertex -0.0555536 0.0183072 0.0102118
        endloop
    endfacet
    facet normal 0.749702 0.437241 0.496757
        outer loop
            vertex 0.438 0.0496119 0.101529
            vertex 0.438 0.0308285 0.118062
            vertex 0.448 0.0419083 0.0932177
        endloop
    endfacet
    facet normal -0.787923 0.583024 0.198142
        outer loop
            vertex -0.0382719 0.0438711 0.0377708
            vertex -0.0479802 0.033487 0.02972
            vertex -0.0470995 0.0298926 0.0437985
        endloop
    endfacet
    facet normal -0.485987 -0.779993 0.394243
        outer loop
            vertex -0.0245065 -0.0425024 0.0719602
            vertex -0.0111194 -0.054065 0.0655865
            vertex -0.0131924 -0.0460808 0.0788275
        endloop
    endfacet
    facet normal -0.513416 -0.204145 0.833504
        outer loop
            vertex -0.0179011 -0.00556183 0.101304
            vertex -0.00731597 -0.0226739 0.103633
            vertex -0.0104141 -0.00388292 0.106327
        endloop
    endfacet
    facet normal -0.289594 -0.668692 0.684826
        outer loop
            vertex 0.00172868 -0.0362816 0.101822
            vertex 0.00756446 -0.0466049 0.0942097
            vertex 0.0223192 -0.0377473 0.109098
        endloop
    endfacet
    facet normal 0.999524 0.0286586 0.0114485
        outer loop
            vertex 0.452693 -0.0253263 0.0603498
            vertex 0.45209 0.00304749 0.0419675
            vertex 0.452033 -0.0136734 0.0887991
        endloop
    endfacet
    facet normal -0.868069 0.066883 0.491918
        outer loop
            vertex -0.0509886 0.00280822 0.0553764
            vertex -0.0425208 -0.00579851 0.0714894
            vertex -0.035803 0.00475682 0.0819089
        endloop
    endfacet
    facet normal -0.338372 -0.58722 -0.735307
        outer loop
            vertex -0.0411957 -0.0435794 0.01
            vertex -0.0120381 -0.0470626 -0.000635986
            vertex -0.0135968 -0.058116 0.0089086
        endloop
    endfacet
    facet normal -0.864016 0.137077 0.484444
        outer loop
            vertex -0.0509886 0.00280822 0.0553764
            vertex -0.035803 0.00475682 0.0819089
            vertex -0.0421841 0.0200438 0.0662025
        endloop
    endfacet
    facet normal -0.258007 0.7791 0.571346
        outer loop
            vertex 0.0128137 0.0560568 0.0835165
            vertex 0.0111629 0.0440186 0.0991866
            vertex 0.0245539 0.0523071 0.0939313
        endloop
    endfacet
    facet normal -0.363161 -0.873945 0.323008
        outer loop
            vertex 0.00812993 -0.0580692 0.0763948
            vertex -0.0111194 -0.054065 0.0655865
            vertex -0.0105877 -0.0579787 0.0555952
        endloop
    endfacet
    facet normal -0.543775 0.372001 0.752279
        outer loop
            vertex -0.0220442 0.0152448 0.0951146
            vertex 0.00351659 0.030555 0.10602
            vertex -0.0104004 0.032319 0.095088
        endloop
    endfacet
    facet normal -0.779113 -0.112851 0.616642
        outer loop
            vertex -0.035803 0.00475682 0.0819089
            vertex -0.0425208 -0.00579851 0.0714894
            vertex -0.0284805 -0.0190476 0.0868043
        endloop
    endfacet
    facet normal 0.000369316 1 0.000314054
        outer loop
            vertex 0.438 0.0579525 0.0502605
            vertex -0.00766015 0.0581299 0.00947553
            vertex 0.00752469 0.0581038 0.0747235
        endloop
    endfacet
    facet normal -0.0261296 0.498817 0.866313
        outer loop
            vertex 0.0308913 0.0331723 0.115337
            vertex 0.0494195 0.0245335 0.12087
            vertex 0.0440045 0.0371208 0.113459
        endloop
    endfacet
    facet normal -0.56426 0.695335 0.445106
        outer loop
            vertex -0.0197193 0.0529224 0.0593001
            vertex -0.0214259 0.0377282 0.0808727
            vertex -0.00817715 0.0475251 0.0823636
        endloop
    endfacet
    facet normal -0.204482 0.738059 0.643006
        outer loop
            vertex 0.0111629 0.0440186 0.0991866
            vertex 0.0321587 0.0468513 0.102612
            vertex 0.0245539 0.0523071 0.0939313
        endloop
    endfacet
    facet normal -0.620921 0.783782 -0.0119751
        outer loop
            vertex -0.0476651 0.0360054 0.01
            vertex -0.0382719 0.0438711 0.0377708
            vertex -0.0267967 0.0529557 0.0373657
        endloop
    endfacet
    facet normal -0.757354 0.59464 0.269849
        outer loop
            vertex -0.0382719 0.0438711 0.0377708
            vertex -0.0470995 0.0298926 0.0437985
            vertex -0.0356013 0.0361129 0.0623621
        endloop
    endfacet
    facet normal -0.941568 0.281928 0.1843
        outer loop
            vertex -0.0579768 0.0075922 0.0276392
            vertex -0.0517942 0.0156528 0.0468949
            vertex -0.0552189 0.019198 0.0239753
        endloop
    endfacet
    facet normal -0.631143 -0.379925 -0.676251
        outer loop
            vertex -0.0411957 -0.0435794 0.01
            vertex -0.0532783 -0.0235074 0.01
            vertex -0.0390141 -0.0293116 -5.18794e-005
        endloop
    endfacet
    facet normal -0.827852 -0.548714 0.11651
        outer loop
            vertex -0.0506812 -0.0265791 0.0368299
            vertex -0.0503186 -0.0296715 0.0248424
            vertex -0.04257 -0.0400414 0.0310615
        endloop
    endfacet
    facet normal -0.322512 -0.479597 0.816072
        outer loop
            vertex 0.00172868 -0.0362816 0.101822
            vertex 0.0223192 -0.0377473 0.109098
            vertex 0.0268549 -0.023346 0.119354
        endloop
    endfacet
    facet normal -0.553439 -0.550688 0.624858
        outer loop
            vertex -0.0307582 -0.0270536 0.0800381
            vertex -0.0245065 -0.0425024 0.0719602
            vertex -0.0131924 -0.0460808 0.0788275
        endloop
    endfacet
    facet normal -0.799395 -0.428119 0.421523
        outer loop
            vertex -0.0396711 -0.0375318 0.0524931
            vertex -0.0307582 -0.0270536 0.0800381
            vertex -0.0464502 -0.0189608 0.0584985
        endloop
    endfacet
    facet normal 0.983479 0.0873815 -0.158533
        outer loop
            vertex 0.448 0.0361061 0.0348163
            vertex 0.45209 0.00304749 0.0419675
            vertex 0.448 0.0122204 0.0216508
        endloop
    endfacet
    facet normal 0.776024 0.615398 0.138099
        outer loop
            vertex 0.448 0.0419083 0.0932177
            vertex 0.448 0.048643 0.0632065
            vertex 0.438 0.0579477 0.0779362
        endloop
    endfacet
    facet normal -0.808325 -0.562077 0.175154
        outer loop
            vertex -0.0396711 -0.0375318 0.0524931
            vertex -0.0506812 -0.0265791 0.0368299
            vertex -0.04257 -0.0400414 0.0310615
        endloop
    endfacet
    facet normal 0.0291784 -0.967323 -0.251864
        outer loop
            vertex -0.0135968 -0.058116 0.0089086
            vertex 0.438 -0.0535743 0.0437829
            vertex 0.438 -0.0592247 0.0654841
        endloop
    endfacet
    facet normal -0.463128 -0.087771 0.881935
        outer loop
            vertex 0.00814085 -0.0163699 0.114828
            vertex 0.00762133 0.00135316 0.116319
            vertex -0.0104141 -0.00388292 0.106327
        endloop
    endfacet
    facet normal -0.220104 0.248062 0.943408
        outer loop
            vertex 0.0403025 0.00665222 0.12609
            vertex 0.0417539 0.0170219 0.123702
            vertex 0.0220226 0.0229758 0.117533
        endloop
    endfacet
    facet normal -0.904632 -0.130405 0.405752
        outer loop
            vertex -0.0509886 0.00280822 0.0553764
            vertex -0.0464502 -0.0189608 0.0584985
            vertex -0.0425208 -0.00579851 0.0714894
        endloop
    endfacet
    facet normal -0.54224 -0.454464 0.706709
        outer loop
            vertex 0.00172868 -0.0362816 0.101822
            vertex -0.00731597 -0.0226739 0.103633
            vertex -0.0140939 -0.0331206 0.0917145
        endloop
    endfacet
    facet normal -0.958826 0.112148 0.260913
        outer loop
            vertex -0.0579768 0.0075922 0.0276392
            vertex -0.0509886 0.00280822 0.0553764
            vertex -0.0517942 0.0156528 0.0468949
        endloop
    endfacet
    facet normal 0.0283129 0.0424157 -0.998699
        outer loop
            vertex 0.438 -0.0126162 0.00946419
            vertex -0.00377414 0.0465486 -0.000547224
            vertex 0.438 0.014937 0.0106344
        endloop
    endfacet
    facet normal -0.227733 -0.720885 0.654571
        outer loop
            vertex 0.0343163 -0.041688 0.108932
            vertex 0.0223192 -0.0377473 0.109098
            vertex 0.00756446 -0.0466049 0.0942097
        endloop
    endfacet
    facet normal 0.00178332 -0.736358 0.67659
        outer loop
            vertex 0.438 -0.0331943 0.117112
            vertex 0.0343163 -0.041688 0.108932
            vertex 0.0380291 -0.0455767 0.10469
        endloop
    endfacet
    facet normal -0.621164 0.663002 0.417831
        outer loop
            vertex -0.0197193 0.0529224 0.0593001
            vertex -0.0356013 0.0361129 0.0623621
            vertex -0.0214259 0.0377282 0.0808727
        endloop
    endfacet
    facet normal -0.454308 0.609832 0.649392
        outer loop
            vertex -0.00817715 0.0475251 0.0823636
            vertex -0.0104004 0.032319 0.095088
            vertex 0.0111629 0.0440186 0.0991866
        endloop
    endfacet
    facet normal -0.855947 -0.515248 -0.0433012
        outer loop
            vertex -0.0411957 -0.0435794 0.01
            vertex -0.0503186 -0.0296715 0.0248424
            vertex -0.0532783 -0.0235074 0.01
        endloop
    endfacet
    facet normal -0.998769 -0.0171274 0.0465589
        outer loop
            vertex -0.0574054 -0.00723553 0.0344421
            vertex -0.0579768 0.0075922 0.0276392
            vertex -0.0586971 0.00156243 0.00996938
        endloop
    endfacet
    facet normal -0.299799 0.953568 -0.0287978
        outer loop
            vertex -0.0267967 0.0529557 0.0373657
            vertex -0.00766015 0.0581299 0.00947553
            vertex -0.0273872 0.0519436 0.01
        endloop
    endfacet
    facet normal -0.340203 0.762681 0.550073
        outer loop
            vertex 0.0128137 0.0560568 0.0835165
            vertex -0.00817715 0.0475251 0.0823636
            vertex 0.0111629 0.0440186 0.0991866
        endloop
    endfacet
    facet normal 0.0322224 -0.130426 -0.990934
        outer loop
            vertex 0.0998429 -0.0237623 -6.46994e-005
            vertex 0.438 -0.0126162 0.00946419
            vertex -0.0120381 -0.0470626 -0.000635986
        endloop
    endfacet
    facet normal -0.752602 0.195649 0.628738
        outer loop
            vertex -0.0220442 0.0152448 0.0951146
            vertex -0.0291398 0.0216381 0.0846317
            vertex -0.035803 0.00475682 0.0819089
        endloop
    endfacet
    facet normal -0.376599 0.840424 0.389693
        outer loop
            vertex -0.00897028 0.0578972 0.0592283
            vertex -0.00817715 0.0475251 0.0823636
            vertex 0.00752469 0.0581038 0.0747235
        endloop
    endfacet
    facet normal 0.983185 -0.121089 0.13669
        outer loop
            vertex 0.448 -0.0159533 0.115788
            vertex 0.448 -0.0392857 0.0951186
            vertex 0.452033 -0.0136734 0.0887991
        endloop
    endfacet
    facet normal 0.999991 -0.00398717 0.0016738
        outer loop
            vertex 0.452238 0.0270142 0.0632582
            vertex 0.45213 0.0116439 0.09117
            vertex 0.452033 -0.0136734 0.0887991
        endloop
    endfacet
    facet normal 0.692349 -0.324861 -0.644297
        outer loop
            vertex 0.438 -0.0126162 0.00946419
            vertex 0.448 -0.0154737 0.0216508
            vertex 0.438 -0.0395611 0.0230501
        endloop
    endfacet
    facet normal -0.913109 -0.407513 0.0128402
        outer loop
            vertex -0.0553915 -0.0183298 0.0240462
            vertex -0.0532783 -0.0235074 0.01
            vertex -0.0503186 -0.0296715 0.0248424
        endloop
    endfacet
    facet normal -0.581442 0.118314 0.804939
        outer loop
            vertex -0.0220442 0.0152448 0.0951146
            vertex -0.0104141 -0.00388292 0.106327
            vertex -0.00156624 0.0147733 0.109976
        endloop
    endfacet
    facet normal -0.613572 -0.387112 0.68824
        outer loop
            vertex -0.0284805 -0.0190476 0.0868043
            vertex -0.0140939 -0.0331206 0.0917145
            vertex -0.00731597 -0.0226739 0.103633
        endloop
    endfacet
    facet normal -0.447195 -0.680676 0.580256
        outer loop
            vertex 0.00172868 -0.0362816 0.101822
            vertex -0.0131924 -0.0460808 0.0788275
            vertex 0.00756446 -0.0466049 0.0942097
        endloop
    endfacet
    facet normal -0.693676 0.140452 -0.706461
        outer loop
            vertex -0.048845 -8.39601e-007 -1.52213e-005
            vertex -0.0586971 0.00156243 0.00996938
            vertex -0.0555536 0.0183072 0.0102118
        endloop
    endfacet
    facet normal 0.0505461 -0.656798 -0.752371
        outer loop
            vertex -0.0135968 -0.058116 0.0089086
            vertex -0.0120381 -0.0470626 -0.000635986
            vertex 0.438 -0.0395611 0.0230501
        endloop
    endfacet
    facet normal -0.808065 -0.228865 0.542819
        outer loop
            vertex -0.0307582 -0.0270536 0.0800381
            vertex -0.0284805 -0.0190476 0.0868043
            vertex -0.0425208 -0.00579851 0.0714894
        endloop
    endfacet
    facet normal 0.711689 -0.58202 -0.393385
        outer loop
            vertex 0.438 -0.0395611 0.0230501
            vertex 0.448 -0.0376518 0.0383167
            vertex 0.438 -0.0535743 0.0437829
        endloop
    endfacet
    facet normal -0.264336 0.964428 -0.00244994
        outer loop
            vertex -0.00897028 0.0578972 0.0592283
            vertex -0.00766015 0.0581299 0.00947553
            vertex -0.0267967 0.0529557 0.0373657
        endloop
    endfacet
    facet normal 0.00178219 0.660708 0.750641
        outer loop
            vertex 0.438 0.0496119 0.101529
            vertex 0.0440045 0.0371208 0.113459
            vertex 0.438 0.0308285 0.118062
        endloop
    endfacet
    facet normal -0.345589 -0.0231754 0.9381
        outer loop
            vertex 0.0274136 -0.0069988 0.123404
            vertex 0.0182044 0.00893364 0.120405
            vertex 0.00762133 0.00135316 0.116319
        endloop
    endfacet
    facet normal -0.00373616 0.224909 0.974373
        outer loop
            vertex 0.438 0.0076094 0.127394
            vertex 0.0417539 0.0170219 0.123702
            vertex 0.0403025 0.00665222 0.12609
        endloop
    endfacet
    facet normal -9.35201e-005 0.940843 0.338843
        outer loop
            vertex 0.438 0.0496119 0.101529
            vertex 0.0128137 0.0560568 0.0835165
            vertex 0.0245539 0.0523071 0.0939313
        endloop
    endfacet
    facet normal -0.00171483 -0.850651 0.525727
        outer loop
            vertex 0.0208285 -0.0540639 0.0909012
            vertex 0.438 -0.0487105 0.100924
            vertex 0.0380291 -0.0455767 0.10469
        endloop
    endfacet
    facet normal 0.973998 -0.20725 -0.0915204
        outer loop
            vertex 0.448 -0.05012 0.0665513
            vertex 0.448 -0.0376518 0.0383167
            vertex 0.452693 -0.0253263 0.0603498
        endloop
    endfacet
    facet normal -0.485526 -0.858098 0.167131
        outer loop
            vertex -0.0313077 -0.0501754 0.0354667
            vertex -0.0105877 -0.0579787 0.0555952
            vertex -0.025947 -0.0497937 0.0529996
        endloop
    endfacet
    facet normal -0.153452 -0.0493046 0.986925
        outer loop
            vertex 0.0403025 0.00665222 0.12609
            vertex 0.0274136 -0.0069988 0.123404
            vertex 0.0442191 -0.00840006 0.125947
        endloop
    endfacet
    facet normal -0.428733 -0.393215 0.81337
        outer loop
            vertex 0.00172868 -0.0362816 0.101822
            vertex 0.00814085 -0.0163699 0.114828
            vertex -0.00731597 -0.0226739 0.103633
        endloop
    endfacet
    facet normal 0.739311 -0.613588 0.277359
        outer loop
            vertex 0.438 -0.0487105 0.100924
            vertex 0.438 -0.0558601 0.0851073
            vertex 0.448 -0.0392857 0.0951186
        endloop
    endfacet
    facet normal -0.638159 -0.701118 0.318098
        outer loop
            vertex -0.0396711 -0.0375318 0.0524931
            vertex -0.025947 -0.0497937 0.0529996
            vertex -0.0245065 -0.0425024 0.0719602
        endloop
    endfacet
    facet normal 0.000663759 0.372919 0.927864
        outer loop
            vertex 0.438 0.0076094 0.127394
            vertex 0.438 0.0308285 0.118062
            vertex 0.0494195 0.0245335 0.12087
        endloop
    endfacet
    facet normal -0.913388 0.407069 -0.00413466
        outer loop
            vertex -0.0476651 0.0360054 0.01
            vertex -0.0555536 0.0183072 0.0102118
            vertex -0.0552189 0.019198 0.0239753
        endloop
    endfacet
    facet normal -0.715788 -0.0810929 -0.693593
        outer loop
            vertex -0.0568473 -0.0155618 0.0100625
            vertex -0.0586971 0.00156243 0.00996938
            vertex -0.048845 -8.39601e-007 -1.52213e-005
        endloop
    endfacet
    facet normal -0.59486 -0.198543 -0.778924
        outer loop
            vertex -0.0568473 -0.0155618 0.0100625
            vertex -0.048845 -8.39601e-007 -1.52213e-005
            vertex -0.0390141 -0.0293116 -5.18794e-005
        endloop
    endfacet
    facet normal -0.0165079 0.999855 0.00424175
        outer loop
            vertex -0.00897028 0.0578972 0.0592283
            vertex 0.00752469 0.0581038 0.0747235
            vertex -0.00766015 0.0581299 0.00947553
        endloop
    endfacet
    facet normal -0.442597 0.427447 -0.788287
        outer loop
            vertex -0.0476651 0.0360054 0.01
            vertex -0.0250156 0.0409948 -1.14475e-005
            vertex -0.0405149 0.0249258 -2.24823e-005
        endloop
    endfacet
    facet normal -0.625713 -0.288408 0.724778
        outer loop
            vertex -0.0179011 -0.00556183 0.101304
            vertex -0.0284805 -0.0190476 0.0868043
            vertex -0.00731597 -0.0226739 0.103633
        endloop
    endfacet
    facet normal -0.824732 -0.252985 0.505782
        outer loop
            vertex -0.0307582 -0.0270536 0.0800381
            vertex -0.0425208 -0.00579851 0.0714894
            vertex -0.0464502 -0.0189608 0.0584985
        endloop
    endfacet
    facet normal -0.00264876 -0.999995 0.00154624
        outer loop
            vertex 0.00812993 -0.0580692 0.0763948
            vertex -0.0135968 -0.058116 0.0089086
            vertex 0.438 -0.0592247 0.0654841
        endloop
    endfacet
    facet normal -0.757121 -0.10014 0.645554
        outer loop
            vertex -0.0179011 -0.00556183 0.101304
            vertex -0.035803 0.00475682 0.0819089
            vertex -0.0284805 -0.0190476 0.0868043
        endloop
    endfacet
    facet normal -0.69557 -0.696654 0.175661
        outer loop
            vertex -0.0396711 -0.0375318 0.0524931
            vertex -0.04257 -0.0400414 0.0310615
            vertex -0.0313077 -0.0501754 0.0354667
        endloop
    endfacet
    facet normal 0.00151478 -0.126912 0.991913
        outer loop
            vertex 0.438 0.0076094 0.127394
            vertex 0.0442191 -0.00840006 0.125947
            vertex 0.438 -0.0147202 0.124537
        endloop
    endfacet
    facet normal 0.980406 0.192205 0.0431321
        outer loop
            vertex 0.448 0.0419083 0.0932177
            vertex 0.452238 0.0270142 0.0632582
            vertex 0.448 0.048643 0.0632065
        endloop
    endfacet
    facet normal -0.180025 0.354219 0.917671
        outer loop
            vertex 0.0308913 0.0331723 0.115337
            vertex 0.0220226 0.0229758 0.117533
            vertex 0.0417539 0.0170219 0.123702
        endloop
    endfacet
    facet normal -0.4984 0.0673141 0.86433
        outer loop
            vertex -0.0104141 -0.00388292 0.106327
            vertex 0.00762133 0.00135316 0.116319
            vertex -0.00156624 0.0147733 0.109976
        endloop
    endfacet
    facet normal -0.433851 0.124729 0.892309
        outer loop
            vertex 0.0182044 0.00893364 0.120405
            vertex -0.00156624 0.0147733 0.109976
            vertex 0.00762133 0.00135316 0.116319
        endloop
    endfacet
    facet normal -0.00432025 0.844947 0.534832
        outer loop
            vertex 0.438 0.0496119 0.101529
            vertex 0.0245539 0.0523071 0.0939313
            vertex 0.0321587 0.0468513 0.102612
        endloop
    endfacet
    facet normal -0.509736 0.594732 0.621662
        outer loop
            vertex -0.00817715 0.0475251 0.0823636
            vertex -0.0214259 0.0377282 0.0808727
            vertex -0.0104004 0.032319 0.095088
        endloop
    endfacet
    facet normal -0.206593 0.676613 0.706763
        outer loop
            vertex 0.0308913 0.0331723 0.115337
            vertex 0.0321587 0.0468513 0.102612
            vertex 0.0111629 0.0440186 0.0991866
        endloop
    endfacet
    facet normal -0.604377 0.772166 0.196182
        outer loop
            vertex -0.0197193 0.0529224 0.0593001
            vertex -0.0267967 0.0529557 0.0373657
            vertex -0.0382719 0.0438711 0.0377708
        endloop
    endfacet
    facet normal -0.81289 -0.580715 0.0445086
        outer loop
            vertex -0.0411957 -0.0435794 0.01
            vertex -0.04257 -0.0400414 0.0310615
            vertex -0.0503186 -0.0296715 0.0248424
        endloop
    endfacet
    facet normal 0.0544192 -0.449552 -0.891595
        outer loop
            vertex 0.438 -0.0126162 0.00946419
            vertex 0.438 -0.0395611 0.0230501
            vertex -0.0120381 -0.0470626 -0.000635986
        endloop
    endfacet
    facet normal 0.983333 -0.17 0.0644733
        outer loop
            vertex 0.448 -0.05012 0.0665513
            vertex 0.452693 -0.0253263 0.0603498
            vertex 0.448 -0.0392857 0.0951186
        endloop
    endfacet
    facet normal -0.972265 0.233729 0.008516
        outer loop
            vertex -0.0579768 0.0075922 0.0276392
            vertex -0.0552189 0.019198 0.0239753
            vertex -0.0555536 0.0183072 0.0102118
        endloop
    endfacet
    facet normal -0.612698 0.418876 0.670182
        outer loop
            vertex -0.0220442 0.0152448 0.0951146
            vertex -0.0104004 0.032319 0.095088
            vertex -0.0291398 0.0216381 0.0846317
        endloop
    endfacet
    facet normal -0.375096 -0.926596 0.0269011
        outer loop
            vertex -0.0135968 -0.058116 0.0089086
            vertex -0.0105877 -0.0579787 0.0555952
            vertex -0.0313077 -0.0501754 0.0354667
        endloop
    endfacet
    facet normal -0.893847 0.206677 0.397897
        outer loop
            vertex -0.0509886 0.00280822 0.0553764
            vertex -0.0421841 0.0200438 0.0662025
            vertex -0.0517942 0.0156528 0.0468949
        endloop
    endfacet
    facet normal -0.0753487 0.418181 0.905233
        outer loop
            vertex 0.0308913 0.0331723 0.115337
            vertex 0.0417539 0.0170219 0.123702
            vertex 0.0494195 0.0245335 0.12087
        endloop
    endfacet
    facet normal -0.305763 -0.219103 0.926554
        outer loop
            vertex 0.0274136 -0.0069988 0.123404
            vertex 0.00814085 -0.0163699 0.114828
            vertex 0.0268549 -0.023346 0.119354
        endloop
    endfacet
    facet normal 0.982858 -0.110756 -0.147388
        outer loop
            vertex 0.452693 -0.0253263 0.0603498
            vertex 0.448 -0.0376518 0.0383167
            vertex 0.448 -0.0154737 0.0216508
        endloop
    endfacet
    facet normal 0.988231 -0.0678266 -0.13711
        outer loop
            vertex 0.452693 -0.0253263 0.0603498
            vertex 0.448 -0.0154737 0.0216508
            vertex 0.45209 0.00304749 0.0419675
        endloop
    endfacet
    facet normal -0.994128 -0.107313 0.0138923
        outer loop
            vertex -0.0574054 -0.00723553 0.0344421
            vertex -0.0586971 0.00156243 0.00996938
            vertex -0.0568473 -0.0155618 0.0100625
        endloop
    endfacet
    facet normal -0.616461 0.44698 0.648217
        outer loop
            vertex -0.0214259 0.0377282 0.0808727
            vertex -0.0291398 0.0216381 0.0846317
            vertex -0.0104004 0.032319 0.095088
        endloop
    endfacet
    facet normal -0.897934 0.438159 0.0416085
        outer loop
            vertex -0.0476651 0.0360054 0.01
            vertex -0.0552189 0.019198 0.0239753
            vertex -0.0479802 0.033487 0.02972
        endloop
    endfacet
    facet normal -0.110525 -0.778919 0.617308
        outer loop
            vertex 0.0208285 -0.0540639 0.0909012
            vertex 0.0380291 -0.0455767 0.10469
            vertex 0.0343163 -0.041688 0.108932
        endloop
    endfacet
    facet normal -0.00102183 -0.27797 0.960589
        outer loop
            vertex 0.0442191 -0.00840006 0.125947
            vertex 0.047663 -0.0209052 0.122332
            vertex 0.438 -0.0147202 0.124537
        endloop
    endfacet
    facet normal -0.435605 0.554213 -0.709293
        outer loop
            vertex -0.0476651 0.0360054 0.01
            vertex -0.0273872 0.0519436 0.01
            vertex -0.0250156 0.0409948 -1.14475e-005
        endloop
    endfacet
    facet normal -0.00132615 0.0308745 -0.999522
        outer loop
            vertex 0.0998429 -0.0237623 -6.46994e-005
            vertex -0.0120381 -0.0470626 -0.000635986
            vertex -0.0390141 -0.0293116 -5.18794e-005
        endloop
    endfacet
    facet normal -0.244997 0.0407224 0.968668
        outer loop
            vertex 0.0403025 0.00665222 0.12609
            vertex 0.0182044 0.00893364 0.120405
            vertex 0.0274136 -0.0069988 0.123404
        endloop
    endfacet
    facet normal -0.362357 0.835775 0.412526
        outer loop
            vertex 0.0128137 0.0560568 0.0835165
            vertex 0.00752469 0.0581038 0.0747235
            vertex -0.00817715 0.0475251 0.0823636
        endloop
    endfacet
    facet normal 0.983305 0.0146406 0.181374
        outer loop
            vertex 0.448 -0.0159533 0.115788
            vertex 0.45213 0.0116439 0.09117
            vertex 0.448 0.019044 0.112963
        endloop
    endfacet
    facet normal -0.380574 0.283511 0.880219
        outer loop
            vertex 0.0220226 0.0229758 0.117533
            vertex -0.00156624 0.0147733 0.109976
            vertex 0.0182044 0.00893364 0.120405
        endloop
    endfacet
    facet normal -0.164413 -0.231908 0.958742
        outer loop
            vertex 0.0274136 -0.0069988 0.123404
            vertex 0.0268549 -0.023346 0.119354
            vertex 0.0442191 -0.00840006 0.125947
        endloop
    endfacet
    facet normal -0.803815 0.228699 0.549161
        outer loop
            vertex -0.035803 0.00475682 0.0819089
            vertex -0.0291398 0.0216381 0.0846317
            vertex -0.0421841 0.0200438 0.0662025
        endloop
    endfacet
    facet normal -0.626126 -0.275505 -0.729426
        outer loop
            vertex -0.0568473 -0.0155618 0.0100625
            vertex -0.0390141 -0.0293116 -5.18794e-005
            vertex -0.0532783 -0.0235074 0.01
        endloop
    endfacet
    facet normal -0.97187 -0.228792 0.0558902
        outer loop
            vertex -0.0574054 -0.00723553 0.0344421
            vertex -0.0568473 -0.0155618 0.0100625
            vertex -0.0553915 -0.0183298 0.0240462
        endloop
    endfacet
    facet normal -0.518115 -0.20449 0.830506
        outer loop
            vertex 0.00814085 -0.0163699 0.114828
            vertex -0.0104141 -0.00388292 0.106327
            vertex -0.00731597 -0.0226739 0.103633
        endloop
    endfacet
    facet normal 0.778994 -0.415784 0.469353
        outer loop
            vertex 0.448 -0.0159533 0.115788
            vertex 0.438 -0.0331943 0.117112
            vertex 0.448 -0.0392857 0.0951186
        endloop
    endfacet
    facet normal 0.000858996 -0.721928 0.691968
        outer loop
            vertex 0.438 -0.0331943 0.117112
            vertex 0.0380291 -0.0455767 0.10469
            vertex 0.438 -0.0487105 0.100924
        endloop
    endfacet
    facet normal -0.82595 0.426469 0.368688
        outer loop
            vertex -0.0356013 0.0361129 0.0623621
            vertex -0.0470995 0.0298926 0.0437985
            vertex -0.0421841 0.0200438 0.0662025
        endloop
    endfacet
    facet normal -0.617878 0.786116 -0.0157412
        outer loop
            vertex -0.0476651 0.0360054 0.01
            vertex -0.0267967 0.0529557 0.0373657
            vertex -0.0273872 0.0519436 0.01
        endloop
    endfacet
    facet normal -0.000448467 -0.963832 0.266512
        outer loop
            vertex 0.0208285 -0.0540639 0.0909012
            vertex 0.00812993 -0.0580692 0.0763948
            vertex 0.438 -0.0558601 0.0851073
        endloop
    endfacet
    facet normal -0.000330444 0.353072 0.935596
        outer loop
            vertex 0.438 0.0076094 0.127394
            vertex 0.0494195 0.0245335 0.12087
            vertex 0.0417539 0.0170219 0.123702
        endloop
    endfacet
    facet normal -0.754735 0.428004 0.49718
        outer loop
            vertex -0.0356013 0.0361129 0.0623621
            vertex -0.0421841 0.0200438 0.0662025
            vertex -0.0291398 0.0216381 0.0846317
        endloop
    endfacet
    facet normal 0.000667574 -0.372921 0.927863
        outer loop
            vertex 0.438 -0.0331943 0.117112
            vertex 0.438 -0.0147202 0.124537
            vertex 0.047663 -0.0209052 0.122332
        endloop
    endfacet
    facet normal -0.0028632 -0.619738 0.784804
        outer loop
            vertex 0.0397756 -0.0305453 0.117751
            vertex 0.0343163 -0.041688 0.108932
            vertex 0.438 -0.0331943 0.117112
        endloop
    endfacet
    facet normal -0.654955 -0.724134 0.216018
        outer loop
            vertex -0.0396711 -0.0375318 0.0524931
            vertex -0.0313077 -0.0501754 0.0354667
            vertex -0.025947 -0.0497937 0.0529996
        endloop
    endfacet
    facet normal -0.392172 0.340516 0.854546
        outer loop
            vertex 0.0220226 0.0229758 0.117533
            vertex 0.00351659 0.030555 0.10602
            vertex -0.00156624 0.0147733 0.109976
        endloop
    endfacet
    facet normal 0.708247 0.665638 0.235183
        outer loop
            vertex 0.438 0.0496119 0.101529
            vertex 0.448 0.0419083 0.0932177
            vertex 0.438 0.0579477 0.0779362
        endloop
    endfacet
    facet normal -0.00134477 0.973777 0.227503
        outer loop
            vertex 0.0128137 0.0560568 0.0835165
            vertex 0.438 0.0579477 0.0779362
            vertex 0.00752469 0.0581038 0.0747235
        endloop
    endfacet
    facet normal -0.406538 -0.809152 0.424264
        outer loop
            vertex 0.00812993 -0.0580692 0.0763948
            vertex -0.0131924 -0.0460808 0.0788275
            vertex -0.0111194 -0.054065 0.0655865
        endloop
    endfacet
    facet normal -0.172096 -0.558123 0.811715
        outer loop
            vertex 0.0397756 -0.0305453 0.117751
            vertex 0.0223192 -0.0377473 0.109098
            vertex 0.0343163 -0.041688 0.108932
        endloop
    endfacet
    facet normal 0.734423 -0.489967 0.469633
        outer loop
            vertex 0.438 -0.0331943 0.117112
            vertex 0.438 -0.0487105 0.100924
            vertex 0.448 -0.0392857 0.0951186
        endloop
    endfacet
    facet normal 0.672223 -0.716461 -0.186547
        outer loop
            vertex 0.448 -0.05012 0.0665513
            vertex 0.438 -0.0592247 0.0654841
            vertex 0.438 -0.0535743 0.0437829
        endloop
    endfacet
    facet normal -0.368649 -0.0886524 0.925332
        outer loop
            vertex 0.0274136 -0.0069988 0.123404
            vertex 0.00762133 0.00135316 0.116319
            vertex 0.00814085 -0.0163699 0.114828
        endloop
    endfacet
    facet normal -0.00197915 0.506728 0.862104
        outer loop
            vertex 0.0440045 0.0371208 0.113459
            vertex 0.0494195 0.0245335 0.12087
            vertex 0.438 0.0308285 0.118062
        endloop
    endfacet
    facet normal -0.089498 -0.366803 0.925983
        outer loop
            vertex 0.0397756 -0.0305453 0.117751
            vertex 0.047663 -0.0209052 0.122332
            vertex 0.0268549 -0.023346 0.119354
        endloop
    endfacet
    facet normal -0.384875 0.837205 0.388533
        outer loop
            vertex -0.0197193 0.0529224 0.0593001
            vertex -0.00817715 0.0475251 0.0823636
            vertex -0.00897028 0.0578972 0.0592283
        endloop
    endfacet
    facet normal -0.572109 0.127112 0.810268
        outer loop
            vertex -0.0179011 -0.00556183 0.101304
            vertex -0.0104141 -0.00388292 0.106327
            vertex -0.0220442 0.0152448 0.0951146
        endloop
    endfacet
endsolid D:/Users/Paul Maroldt/Documents/!StartUp_Repositories/modrob-gen2/ModuleLibrary/L448-L-110-110/L448-L-110-110_convdec.stl_created_by_BoundingMesh