solid D:/Users/Paul Maroldt/Documents/!StartUp_Repositories/modrob-gen2/ModuleLibrary/L350-I-80-80/L350-I-80-80_convdec.stl_created_by_BoundingMesh
    facet normal 0.213593 0.976922 -0.00105922
        outer loop
            vertex 0.0140558 0.0412791 0.34
            vertex 0.0127532 0.0412061 0.0100001
            vertex 0.00199387 0.0435585 0.0100001
        endloop
    endfacet
    facet normal 0.00186993 -6.68547e-005 -0.999998
        outer loop
            vertex -0.0351821 0.00571615 -8.42354e-005
            vertex 0.00501776 0.0347559 -1.10058e-005
            vertex -0.0152994 -0.0322375 -4.45187e-005
        endloop
    endfacet
    facet normal -0.912448 -0.409189 -0.00168716
        outer loop
            vertex -0.0362007 -0.0243112 0.0100001
            vertex -0.0387103 -0.0200757 0.34
            vertex -0.0422317 -0.0108627 0.0100001
        endloop
    endfacet
    facet normal 0.558319 0.483033 -0.674506
        outer loop
            vertex 0.0309137 0.0161358 -1.37743e-005
            vertex 0.0204175 0.0282773 -7.08335e-006
            vertex 0.0312297 0.0297539 0.0100001
        endloop
    endfacet
    facet normal -0.0840798 -0.691405 -0.717558
        outer loop
            vertex -0.00953299 -0.0433633 0.0100001
            vertex -0.0152994 -0.0322375 -4.45187e-005
            vertex 0.0102192 -0.0352565 -0.000125692
        endloop
    endfacet
    facet normal -0.295542 0.659798 -0.690884
        outer loop
            vertex -0.0244722 0.0261678 -6.21698e-005
            vertex -0.0197642 0.038813 0.0100001
            vertex -0.00935903 0.0330012 -1.26038e-006
        endloop
    endfacet
    facet normal 0.22853 0.186782 0.955451
        outer loop
            vertex 0.0247553 0.0257573 0.35
            vertex 0.00953248 0.0230209 0.354176
            vertex 0.0231963 0.00703463 0.354033
        endloop
    endfacet
    facet normal -0.764273 -0.243656 0.597092
        outer loop
            vertex -0.0328816 -0.013853 0.35
            vertex -0.0431872 -0.00603303 0.34
            vertex -0.0387103 -0.0200757 0.34
        endloop
    endfacet
    facet normal -0.452848 -0.891587 -0.00105867
        outer loop
            vertex -0.00953299 -0.0433633 0.0100001
            vertex -0.0240037 -0.0364053 0.34
            vertex -0.0260335 -0.0349825 0.0100001
        endloop
    endfacet
    facet normal -0.00226644 -0.00223376 -0.999995
        outer loop
            vertex -0.0351821 0.00571615 -8.42354e-005
            vertex -0.0152994 -0.0322375 -4.45187e-005
            vertex -0.0315979 -0.0165853 -4.25424e-005
        endloop
    endfacet
    facet normal 0.700625 0.172671 -0.692322
        outer loop
            vertex 0.0355512 -0.00287354 -6.17546e-005
            vertex 0.0309137 0.0161358 -1.37743e-005
            vertex 0.0430008 0.00724203 0.0100001
        endloop
    endfacet
    facet normal 0.713767 0.296332 0.634605
        outer loop
            vertex 0.0352657 0.00573141 0.35
            vertex 0.04252 0.00967347 0.34
            vertex 0.0368685 0.0232861 0.34
        endloop
    endfacet
    facet normal 0.941886 -0.33593 -0.00105862
        outer loop
            vertex 0.0380058 -0.0213794 0.0100001
            vertex 0.0429571 -0.00749685 0.0100001
            vertex 0.0391592 -0.0191854 0.34
        endloop
    endfacet
    facet normal 0.999995 -0.00296477 -0.00105887
        outer loop
            vertex 0.0429571 -0.00749685 0.0100001
            vertex 0.0430008 0.00724203 0.0100001
            vertex 0.0433138 -0.00504412 0.34
        endloop
    endfacet
    facet normal 0.59882 0.539296 0.592093
        outer loop
            vertex 0.0247553 0.0257573 0.35
            vertex 0.0368685 0.0232861 0.34
            vertex 0.0270048 0.0342385 0.34
        endloop
    endfacet
    facet normal -0.311624 -0.687277 0.656156
        outer loop
            vertex -0.00724518 -0.0437509 0.340265
            vertex -0.0201808 -0.0285915 0.35
            vertex -0.0240037 -0.0364053 0.34
        endloop
    endfacet
    facet normal 0.00167642 0.000201025 -0.999999
        outer loop
            vertex -0.0244722 0.0261678 -6.21698e-005
            vertex 0.00501776 0.0347559 -1.10058e-005
            vertex -0.0351821 0.00571615 -8.42354e-005
        endloop
    endfacet
    facet normal 0.167238 0.764905 -0.622054
        outer loop
            vertex 0.00199387 0.0435585 0.0100001
            vertex 0.0127532 0.0412061 0.0100001
            vertex 0.00501776 0.0347559 -1.10058e-005
        endloop
    endfacet
    facet normal 0.46278 -0.566794 -0.681601
        outer loop
            vertex 0.0102192 -0.0352565 -0.000125692
            vertex 0.0278929 -0.0209601 -1.43006e-005
            vertex 0.0227528 -0.0371998 0.0100001
        endloop
    endfacet
    facet normal -0.637209 0.334436 -0.694347
        outer loop
            vertex -0.0244722 0.0261678 -6.21698e-005
            vertex -0.0351821 0.00571615 -8.42354e-005
            vertex -0.0396818 0.0180796 0.0100001
        endloop
    endfacet
    facet normal -0.234444 0.193324 0.952713
        outer loop
            vertex -0.0276639 -1.8267e-005 0.354379
            vertex -0.0114301 0.0213784 0.354032
            vertex -0.0225106 0.0278111 0.35
        endloop
    endfacet
    facet normal -0.610277 -0.462238 0.643349
        outer loop
            vertex -0.0328816 -0.013853 0.35
            vertex -0.0387103 -0.0200757 0.34
            vertex -0.0320521 -0.0288663 0.34
        endloop
    endfacet
    facet normal -0.56804 -0.0458599 0.821722
        outer loop
            vertex -0.0276639 -1.8267e-005 0.354379
            vertex -0.0346903 0.00855032 0.35
            vertex -0.0328816 -0.013853 0.35
        endloop
    endfacet
    facet normal -0.743969 0.289116 0.602431
        outer loop
            vertex -0.0346903 0.00855032 0.35
            vertex -0.0373912 0.0224372 0.34
            vertex -0.0427301 0.00869884 0.34
        endloop
    endfacet
    facet normal -0.952752 -0.303744 0.00168676
        outer loop
            vertex -0.0387103 -0.0200757 0.34
            vertex -0.0431872 -0.00603303 0.34
            vertex -0.0422317 -0.0108627 0.0100001
        endloop
    endfacet
    facet normal 0.00693151 -0.00092747 0.999976
        outer loop
            vertex -0.0276639 -1.8267e-005 0.354379
            vertex -0.00765308 -0.0251364 0.354217
            vertex 0.0231963 0.00703463 0.354033
        endloop
    endfacet
    facet normal 0.277842 0.685558 -0.672915
        outer loop
            vertex 0.0229731 0.0370642 0.0100001
            vertex 0.0204175 0.0282773 -7.08335e-006
            vertex 0.0127532 0.0412061 0.0100001
        endloop
    endfacet
    facet normal -0.826842 0.562432 -0.00168755
        outer loop
            vertex -0.0312417 0.0304874 0.0099498
            vertex -0.0396818 0.0180796 0.0100001
            vertex -0.0373912 0.0224372 0.34
        endloop
    endfacet
    facet normal -0.139089 0.759015 0.636043
        outer loop
            vertex -0.000498569 0.0436036 0.34
            vertex -0.0113455 0.0416159 0.34
            vertex -0.00463909 0.034465 0.35
        endloop
    endfacet
    facet normal -0.255977 -0.220586 0.941179
        outer loop
            vertex -0.00765308 -0.0251364 0.354217
            vertex -0.0328816 -0.013853 0.35
            vertex -0.0201808 -0.0285915 0.35
        endloop
    endfacet
    facet normal -0.0019708 0.0102275 -0.999946
        outer loop
            vertex 0.0102192 -0.0352565 -0.000125692
            vertex -0.0152994 -0.0322375 -4.45187e-005
            vertex 0.0278929 -0.0209601 -1.43006e-005
        endloop
    endfacet
    facet normal 0.0822803 -0.844138 0.529775
        outer loop
            vertex -0.00724518 -0.0437509 0.340265
            vertex 0.00765556 -0.0424648 0.34
            vertex 0.00144741 -0.036794 0.35
        endloop
    endfacet
    facet normal 0.312528 0.657265 0.685805
        outer loop
            vertex 0.0247553 0.0257573 0.35
            vertex 0.0140558 0.0412791 0.34
            vertex 0.00875144 0.0333671 0.35
        endloop
    endfacet
    facet normal -0.00321686 -0.0012616 -0.999994
        outer loop
            vertex 0.0355512 -0.00287354 -6.17546e-005
            vertex 0.0278929 -0.0209601 -1.43006e-005
            vertex 0.00501776 0.0347559 -1.10058e-005
        endloop
    endfacet
    facet normal -0.717508 -0.057927 0.694137
        outer loop
            vertex -0.0328816 -0.013853 0.35
            vertex -0.0346903 0.00855032 0.35
            vertex -0.0431872 -0.00603303 0.34
        endloop
    endfacet
    facet normal -0.766412 -0.0629468 -0.639257
        outer loop
            vertex -0.0351821 0.00571615 -8.42354e-005
            vertex -0.0422317 -0.0108627 0.0100001
            vertex -0.0434382 0.0038271 0.0100001
        endloop
    endfacet
    facet normal 0.349334 -0.0567698 0.935277
        outer loop
            vertex 0.0204991 -0.0168137 0.354147
            vertex 0.031636 -0.016604 0.35
            vertex 0.0352657 0.00573141 0.35
        endloop
    endfacet
    facet normal -0.131671 0.35365 0.926064
        outer loop
            vertex -0.0225106 0.0278111 0.35
            vertex -0.0114301 0.0213784 0.354032
            vertex -0.00463909 0.034465 0.35
        endloop
    endfacet
    facet normal -0.79715 -0.603779 0.00168721
        outer loop
            vertex -0.0362007 -0.0243112 0.0100001
            vertex -0.0320521 -0.0288663 0.34
            vertex -0.0387103 -0.0200757 0.34
        endloop
    endfacet
    facet normal 0.0327603 -0.999462 -0.00139991
        outer loop
            vertex -0.00953299 -0.0433633 0.0100001
            vertex 0.00878915 -0.0427627 0.00997412
            vertex -0.00724518 -0.0437509 0.340265
        endloop
    endfacet
    facet normal -0.77895 0.0241693 0.62662
        outer loop
            vertex -0.0346903 0.00855032 0.35
            vertex -0.0427301 0.00869884 0.34
            vertex -0.0431872 -0.00603303 0.34
        endloop
    endfacet
    facet normal -0.00241838 0.0142612 -0.999895
        outer loop
            vertex -0.0244722 0.0261678 -6.21698e-005
            vertex -0.00935903 0.0330012 -1.26038e-006
            vertex 0.00501776 0.0347559 -1.10058e-005
        endloop
    endfacet
    facet normal 0.157713 0.987484 0.00105623
        outer loop
            vertex 0.0140558 0.0412791 0.34
            vertex 0.00199387 0.0435585 0.0100001
            vertex -0.000498569 0.0436036 0.34
        endloop
    endfacet
    facet normal 0.776172 -0.63052 -0.00105876
        outer loop
            vertex 0.0380058 -0.0213794 0.0100001
            vertex 0.0305311 -0.0311349 0.34
            vertex 0.0310526 -0.0299388 0.0100001
        endloop
    endfacet
    facet normal 0.000617936 0.00031284 -1
        outer loop
            vertex -0.0152994 -0.0322375 -4.45187e-005
            vertex 0.00501776 0.0347559 -1.10058e-005
            vertex 0.0278929 -0.0209601 -1.43006e-005
        endloop
    endfacet
    facet normal -0.758174 0.652049 0.00177771
        outer loop
            vertex -0.0312417 0.0304874 0.0099498
            vertex -0.0373912 0.0224372 0.34
            vertex -0.0302007 0.030798 0.34
        endloop
    endfacet
    facet normal -0.170793 -0.450345 0.876367
        outer loop
            vertex 0.00144741 -0.036794 0.35
            vertex -0.00765308 -0.0251364 0.354217
            vertex -0.0201808 -0.0285915 0.35
        endloop
    endfacet
    facet normal 0.0860125 -0.996293 0.00119475
        outer loop
            vertex -0.00724518 -0.0437509 0.340265
            vertex 0.00878915 -0.0427627 0.00997412
            vertex 0.00765556 -0.0424648 0.34
        endloop
    endfacet
    facet normal 0.363501 0.668547 0.648778
        outer loop
            vertex 0.0247553 0.0257573 0.35
            vertex 0.0270048 0.0342385 0.34
            vertex 0.0140558 0.0412791 0.34
        endloop
    endfacet
    facet normal -0.36618 -0.720952 -0.588337
        outer loop
            vertex -0.00953299 -0.0433633 0.0100001
            vertex -0.0260335 -0.0349825 0.0100001
            vertex -0.0152994 -0.0322375 -4.45187e-005
        endloop
    endfacet
    facet normal 0.804839 -0.00238618 -0.593488
        outer loop
            vertex 0.0355512 -0.00287354 -6.17546e-005
            vertex 0.0430008 0.00724203 0.0100001
            vertex 0.0429571 -0.00749685 0.0100001
        endloop
    endfacet
    facet normal 0.370099 -0.928991 -0.00167848
        outer loop
            vertex 0.00878915 -0.0427627 0.00997412
            vertex 0.0227528 -0.0371998 0.0100001
            vertex 0.0184262 -0.0395197 0.34
        endloop
    endfacet
    facet normal 0.709477 -0.115296 0.695233
        outer loop
            vertex 0.031636 -0.016604 0.35
            vertex 0.0433138 -0.00504412 0.34
            vertex 0.0352657 0.00573141 0.35
        endloop
    endfacet
    facet normal 0.214986 -0.786234 0.579325
        outer loop
            vertex 0.00144741 -0.036794 0.35
            vertex 0.00765556 -0.0424648 0.34
            vertex 0.0184262 -0.0395197 0.34
        endloop
    endfacet
    facet normal 0.743073 0.66921 0.000419007
        outer loop
            vertex 0.0270048 0.0342385 0.34
            vertex 0.0368685 0.0232861 0.34
            vertex 0.0312297 0.0297539 0.0100001
        endloop
    endfacet
    facet normal 0.668496 -0.284861 -0.686999
        outer loop
            vertex 0.0355512 -0.00287354 -6.17546e-005
            vertex 0.0380058 -0.0213794 0.0100001
            vertex 0.0278929 -0.0209601 -1.43006e-005
        endloop
    endfacet
    facet normal -0.51697 0.62549 0.584383
        outer loop
            vertex -0.0225106 0.0278111 0.35
            vertex -0.0217008 0.0378232 0.34
            vertex -0.0302007 0.030798 0.34
        endloop
    endfacet
    facet normal -0.735924 -0.330026 -0.591185
        outer loop
            vertex -0.0315979 -0.0165853 -4.25424e-005
            vertex -0.0362007 -0.0243112 0.0100001
            vertex -0.0422317 -0.0108627 0.0100001
        endloop
    endfacet
    facet normal -0.252653 -0.666192 0.70168
        outer loop
            vertex -0.00724518 -0.0437509 0.340265
            vertex 0.00144741 -0.036794 0.35
            vertex -0.0201808 -0.0285915 0.35
        endloop
    endfacet
    facet normal 0.0308377 0.376112 0.926061
        outer loop
            vertex 0.00953248 0.0230209 0.354176
            vertex 0.00875144 0.0333671 0.35
            vertex -0.00463909 0.034465 0.35
        endloop
    endfacet
    facet normal 0.800523 0.0431766 0.597745
        outer loop
            vertex 0.0352657 0.00573141 0.35
            vertex 0.0433138 -0.00504412 0.34
            vertex 0.04252 0.00967347 0.34
        endloop
    endfacet
    facet normal -0.5054 -0.526183 -0.683888
        outer loop
            vertex -0.0152994 -0.0322375 -4.45187e-005
            vertex -0.0260335 -0.0349825 0.0100001
            vertex -0.0315979 -0.0165853 -4.25424e-005
        endloop
    endfacet
    facet normal 0.603075 -0.489906 -0.629518
        outer loop
            vertex 0.0380058 -0.0213794 0.0100001
            vertex 0.0310526 -0.0299388 0.0100001
            vertex 0.0278929 -0.0209601 -1.43006e-005
        endloop
    endfacet
    facet normal 0.333036 -0.346734 0.876848
        outer loop
            vertex 0.0204991 -0.0168137 0.354147
            vertex 0.0194599 -0.0282991 0.35
            vertex 0.031636 -0.016604 0.35
        endloop
    endfacet
    facet normal 0.0850286 -0.279572 0.956352
        outer loop
            vertex 0.00144741 -0.036794 0.35
            vertex 0.0204991 -0.0168137 0.354147
            vertex -0.00765308 -0.0251364 0.354217
        endloop
    endfacet
    facet normal 0.313766 -0.0309501 0.948996
        outer loop
            vertex 0.0204991 -0.0168137 0.354147
            vertex 0.0352657 0.00573141 0.35
            vertex 0.0231963 0.00703463 0.354033
        endloop
    endfacet
    facet normal -0.123315 0.992367 -0.001067
        outer loop
            vertex -0.000498569 0.0436036 0.34
            vertex 0.00199387 0.0435585 0.0100001
            vertex -0.00908745 0.0421815 0.0100001
        endloop
    endfacet
    facet normal -0.548249 -0.52235 -0.653126
        outer loop
            vertex -0.0315979 -0.0165853 -4.25424e-005
            vertex -0.0260335 -0.0349825 0.0100001
            vertex -0.0362007 -0.0243112 0.0100001
        endloop
    endfacet
    facet normal -0.0901531 0.734918 -0.672137
        outer loop
            vertex 0.00501776 0.0347559 -1.10058e-005
            vertex -0.00935903 0.0330012 -1.26038e-006
            vertex -0.00908745 0.0421815 0.0100001
        endloop
    endfacet
    facet normal -0.93209 0.362222 0.00168675
        outer loop
            vertex -0.0396818 0.0180796 0.0100001
            vertex -0.0427301 0.00869884 0.34
            vertex -0.0373912 0.0224372 0.34
        endloop
    endfacet
    facet normal -0.401472 -0.91587 0.0017062
        outer loop
            vertex -0.00953299 -0.0433633 0.0100001
            vertex -0.00724518 -0.0437509 0.340265
            vertex -0.0240037 -0.0364053 0.34
        endloop
    endfacet
    facet normal -0.558262 -0.481078 0.67595
        outer loop
            vertex -0.0328816 -0.013853 0.35
            vertex -0.0320521 -0.0288663 0.34
            vertex -0.0201808 -0.0285915 0.35
        endloop
    endfacet
    facet normal -0.258815 0.695144 0.670663
        outer loop
            vertex -0.0225106 0.0278111 0.35
            vertex -0.00463909 0.034465 0.35
            vertex -0.0113455 0.0416159 0.34
        endloop
    endfacet
    facet normal -0.587168 0.809464 -0.00101789
        outer loop
            vertex -0.0312417 0.0304874 0.0099498
            vertex -0.0217008 0.0378232 0.34
            vertex -0.0197642 0.038813 0.0100001
        endloop
    endfacet
    facet normal -0.724 -0.689799 -0.000419753
        outer loop
            vertex -0.0362007 -0.0243112 0.0100001
            vertex -0.0260335 -0.0349825 0.0100001
            vertex -0.0320521 -0.0288663 0.34
        endloop
    endfacet
    facet normal -0.999518 0.031013 0.00168688
        outer loop
            vertex -0.0434382 0.0038271 0.0100001
            vertex -0.0431872 -0.00603303 0.34
            vertex -0.0427301 0.00869884 0.34
        endloop
    endfacet
    facet normal 0.662898 0.748708 -0.00168782
        outer loop
            vertex 0.0270048 0.0342385 0.34
            vertex 0.0312297 0.0297539 0.0100001
            vertex 0.0229731 0.0370642 0.0100001
        endloop
    endfacet
    facet normal 0.119283 0.746864 0.654191
        outer loop
            vertex 0.0140558 0.0412791 0.34
            vertex -0.000498569 0.0436036 0.34
            vertex 0.00875144 0.0333671 0.35
        endloop
    endfacet
    facet normal 0.510916 0.577053 -0.637162
        outer loop
            vertex 0.0229731 0.0370642 0.0100001
            vertex 0.0312297 0.0297539 0.0100001
            vertex 0.0204175 0.0282773 -7.08335e-006
        endloop
    endfacet
    facet normal 0.477675 0.878535 0.00168677
        outer loop
            vertex 0.0140558 0.0412791 0.34
            vertex 0.0270048 0.0342385 0.34
            vertex 0.0229731 0.0370642 0.0100001
        endloop
    endfacet
    facet normal -0.0912125 0.734026 -0.672968
        outer loop
            vertex 0.00199387 0.0435585 0.0100001
            vertex 0.00501776 0.0347559 -1.10058e-005
            vertex -0.00908745 0.0421815 0.0100001
        endloop
    endfacet
    facet normal 0.998548 0.0538571 0.00105803
        outer loop
            vertex 0.0430008 0.00724203 0.0100001
            vertex 0.04252 0.00967347 0.34
            vertex 0.0433138 -0.00504412 0.34
        endloop
    endfacet
    facet normal 0.164171 -0.348107 0.922968
        outer loop
            vertex 0.00144741 -0.036794 0.35
            vertex 0.0194599 -0.0282991 0.35
            vertex 0.0204991 -0.0168137 0.354147
        endloop
    endfacet
    facet normal 0.30606 -0.648966 0.696542
        outer loop
            vertex 0.00144741 -0.036794 0.35
            vertex 0.0184262 -0.0395197 0.34
            vertex 0.0194599 -0.0282991 0.35
        endloop
    endfacet
    facet normal 0.263755 -0.964588 0.00177665
        outer loop
            vertex 0.00878915 -0.0427627 0.00997412
            vertex 0.0184262 -0.0395197 0.34
            vertex 0.00765556 -0.0424648 0.34
        endloop
    endfacet
    facet normal 0.923568 0.383434 0.00105816
        outer loop
            vertex 0.0381321 0.0211532 0.0100001
            vertex 0.0368685 0.0232861 0.34
            vertex 0.04252 0.00967347 0.34
        endloop
    endfacet
    facet normal 0.639482 0.335626 0.691678
        outer loop
            vertex 0.0247553 0.0257573 0.35
            vertex 0.0352657 0.00573141 0.35
            vertex 0.0368685 0.0232861 0.34
        endloop
    endfacet
    facet normal 0.43097 -0.622179 0.653573
        outer loop
            vertex 0.0305311 -0.0311349 0.34
            vertex 0.0194599 -0.0282991 0.35
            vertex 0.0184262 -0.0395197 0.34
        endloop
    endfacet
    facet normal 0.645157 -0.465834 0.605616
        outer loop
            vertex 0.031636 -0.016604 0.35
            vertex 0.0305311 -0.0311349 0.34
            vertex 0.0391592 -0.0191854 0.34
        endloop
    endfacet
    facet normal 0.718504 -0.256259 -0.646594
        outer loop
            vertex 0.0355512 -0.00287354 -6.17546e-005
            vertex 0.0429571 -0.00749685 0.0100001
            vertex 0.0380058 -0.0213794 0.0100001
        endloop
    endfacet
    facet normal 0.959449 -0.281879 0.00105799
        outer loop
            vertex 0.0429571 -0.00749685 0.0100001
            vertex 0.0433138 -0.00504412 0.34
            vertex 0.0391592 -0.0191854 0.34
        endloop
    endfacet
    facet normal -0.598459 0.51469 0.613955
        outer loop
            vertex -0.0225106 0.0278111 0.35
            vertex -0.0302007 0.030798 0.34
            vertex -0.0373912 0.0224372 0.34
        endloop
    endfacet
    facet normal 0.180607 0.379828 0.907255
        outer loop
            vertex 0.0247553 0.0257573 0.35
            vertex 0.00875144 0.0333671 0.35
            vertex 0.00953248 0.0230209 0.354176
        endloop
    endfacet
    facet normal 0.943862 0.330337 -0.00105876
        outer loop
            vertex 0.0381321 0.0211532 0.0100001
            vertex 0.04252 0.00967347 0.34
            vertex 0.0430008 0.00724203 0.0100001
        endloop
    endfacet
    facet normal 0.586706 0.470855 -0.658841
        outer loop
            vertex 0.0381321 0.0211532 0.0100001
            vertex 0.0309137 0.0161358 -1.37743e-005
            vertex 0.0312297 0.0297539 0.0100001
        endloop
    endfacet
    facet normal 0.720626 0.252208 -0.645824
        outer loop
            vertex 0.0381321 0.0211532 0.0100001
            vertex 0.0430008 0.00724203 0.0100001
            vertex 0.0309137 0.0161358 -1.37743e-005
        endloop
    endfacet
    facet normal -0.249961 -0.205239 0.946254
        outer loop
            vertex -0.0276639 -1.8267e-005 0.354379
            vertex -0.0328816 -0.013853 0.35
            vertex -0.00765308 -0.0251364 0.354217
        endloop
    endfacet
    facet normal -0.227311 0.720481 -0.655161
        outer loop
            vertex -0.0197642 0.038813 0.0100001
            vertex -0.00908745 0.0421815 0.0100001
            vertex -0.00935903 0.0330012 -1.26038e-006
        endloop
    endfacet
    facet normal -0.300879 0.953662 -0.000424271
        outer loop
            vertex -0.0197642 0.038813 0.0100001
            vertex -0.0113455 0.0416159 0.34
            vertex -0.00908745 0.0421815 0.0100001
        endloop
    endfacet
    facet normal -0.469041 0.650222 -0.597672
        outer loop
            vertex -0.0244722 0.0261678 -6.21698e-005
            vertex -0.0312417 0.0304874 0.0099498
            vertex -0.0197642 0.038813 0.0100001
        endloop
    endfacet
    facet normal 0.0594032 0.724511 0.686698
        outer loop
            vertex -0.000498569 0.0436036 0.34
            vertex -0.00463909 0.034465 0.35
            vertex 0.00875144 0.0333671 0.35
        endloop
    endfacet
    facet normal -0.637072 0.770803 0.00128399
        outer loop
            vertex -0.0312417 0.0304874 0.0099498
            vertex -0.0302007 0.030798 0.34
            vertex -0.0217008 0.0378232 0.34
        endloop
    endfacet
    facet normal -0.606526 0.383541 0.696436
        outer loop
            vertex -0.0225106 0.0278111 0.35
            vertex -0.0373912 0.0224372 0.34
            vertex -0.0346903 0.00855032 0.35
        endloop
    endfacet
    facet normal -0.324846 0.205419 0.923189
        outer loop
            vertex -0.0276639 -1.8267e-005 0.354379
            vertex -0.0225106 0.0278111 0.35
            vertex -0.0346903 0.00855032 0.35
        endloop
    endfacet
    facet normal 0.375603 0.926779 -0.00168763
        outer loop
            vertex 0.0140558 0.0412791 0.34
            vertex 0.0229731 0.0370642 0.0100001
            vertex 0.0127532 0.0412061 0.0100001
        endloop
    endfacet
    facet normal -0.996643 -0.081856 -0.00168774
        outer loop
            vertex -0.0434382 0.0038271 0.0100001
            vertex -0.0422317 -0.0108627 0.0100001
            vertex -0.0431872 -0.00603303 0.34
        endloop
    endfacet
    facet normal 0.00508926 0.0123542 0.999911
        outer loop
            vertex -0.0276639 -1.8267e-005 0.354379
            vertex 0.0231963 0.00703463 0.354033
            vertex -0.0114301 0.0213784 0.354032
        endloop
    endfacet
    facet normal 0.779901 0.625902 -0.0010591
        outer loop
            vertex 0.0381321 0.0211532 0.0100001
            vertex 0.0312297 0.0297539 0.0100001
            vertex 0.0368685 0.0232861 0.34
        endloop
    endfacet
    facet normal 0.0255153 -0.804076 -0.593978
        outer loop
            vertex -0.00953299 -0.0433633 0.0100001
            vertex 0.0102192 -0.0352565 -0.000125692
            vertex 0.00878915 -0.0427627 0.00997412
        endloop
    endfacet
    facet normal -0.775838 0.20448 -0.596878
        outer loop
            vertex -0.0351821 0.00571615 -8.42354e-005
            vertex -0.0434382 0.0038271 0.0100001
            vertex -0.0396818 0.0180796 0.0100001
        endloop
    endfacet
    facet normal -0.525625 -0.561141 0.639406
        outer loop
            vertex -0.0240037 -0.0364053 0.34
            vertex -0.0201808 -0.0285915 0.35
            vertex -0.0320521 -0.0288663 0.34
        endloop
    endfacet
    facet normal 0.289293 0.68725 -0.666331
        outer loop
            vertex 0.00501776 0.0347559 -1.10058e-005
            vertex 0.0127532 0.0412061 0.0100001
            vertex 0.0204175 0.0282773 -7.08335e-006
        endloop
    endfacet
    facet normal 0.810746 -0.585397 0.00105832
        outer loop
            vertex 0.0380058 -0.0213794 0.0100001
            vertex 0.0391592 -0.0191854 0.34
            vertex 0.0305311 -0.0311349 0.34
        endloop
    endfacet
    facet normal 0.00124815 0.00236142 -0.999996
        outer loop
            vertex 0.0355512 -0.00287354 -6.17546e-005
            vertex 0.00501776 0.0347559 -1.10058e-005
            vertex 0.0204175 0.0282773 -7.08335e-006
        endloop
    endfacet
    facet normal -0.254072 0.693699 0.673965
        outer loop
            vertex -0.0225106 0.0278111 0.35
            vertex -0.0113455 0.0416159 0.34
            vertex -0.0217008 0.0378232 0.34
        endloop
    endfacet
    facet normal -0.64627 0.437073 -0.625542
        outer loop
            vertex -0.0244722 0.0261678 -6.21698e-005
            vertex -0.0396818 0.0180796 0.0100001
            vertex -0.0312417 0.0304874 0.0099498
        endloop
    endfacet
    facet normal 0.328884 0.172612 0.928461
        outer loop
            vertex 0.0247553 0.0257573 0.35
            vertex 0.0231963 0.00703463 0.354033
            vertex 0.0352657 0.00573141 0.35
        endloop
    endfacet
    facet normal -0.0307288 0.308834 0.950619
        outer loop
            vertex 0.00953248 0.0230209 0.354176
            vertex -0.00463909 0.034465 0.35
            vertex -0.0114301 0.0213784 0.354032
        endloop
    endfacet
    facet normal -0.714275 -0.116086 -0.690171
        outer loop
            vertex -0.0351821 0.00571615 -8.42354e-005
            vertex -0.0315979 -0.0165853 -4.25424e-005
            vertex -0.0422317 -0.0108627 0.0100001
        endloop
    endfacet
    facet normal 0.569415 -0.822048 0.00168654
        outer loop
            vertex 0.0227528 -0.0371998 0.0100001
            vertex 0.0305311 -0.0311349 0.34
            vertex 0.0184262 -0.0395197 0.34
        endloop
    endfacet
    facet normal 0.751187 -0.220693 0.622103
        outer loop
            vertex 0.031636 -0.016604 0.35
            vertex 0.0391592 -0.0191854 0.34
            vertex 0.0433138 -0.00504412 0.34
        endloop
    endfacet
    facet normal 0.496869 -0.517304 0.696791
        outer loop
            vertex 0.031636 -0.016604 0.35
            vertex 0.0194599 -0.0282991 0.35
            vertex 0.0305311 -0.0311349 0.34
        endloop
    endfacet
    facet normal 0.312927 -0.78298 -0.537604
        outer loop
            vertex 0.0102192 -0.0352565 -0.000125692
            vertex 0.0227528 -0.0371998 0.0100001
            vertex 0.00878915 -0.0427627 0.00997412
        endloop
    endfacet
    facet normal -0.180248 0.983621 0.000452502
        outer loop
            vertex -0.000498569 0.0436036 0.34
            vertex -0.00908745 0.0421815 0.0100001
            vertex -0.0113455 0.0416159 0.34
        endloop
    endfacet
    facet normal 0.658435 -0.752635 -0.00168743
        outer loop
            vertex 0.0227528 -0.0371998 0.0100001
            vertex 0.0310526 -0.0299388 0.0100001
            vertex 0.0305311 -0.0311349 0.34
        endloop
    endfacet
    facet normal -0.00578078 -0.0138865 0.999887
        outer loop
            vertex 0.00953248 0.0230209 0.354176
            vertex -0.0114301 0.0213784 0.354032
            vertex 0.0231963 0.00703463 0.354033
        endloop
    endfacet
    facet normal 0.00317944 0.00329966 -0.99999
        outer loop
            vertex 0.0355512 -0.00287354 -6.17546e-005
            vertex 0.0204175 0.0282773 -7.08335e-006
            vertex 0.0309137 0.0161358 -1.37743e-005
        endloop
    endfacet
    facet normal 0.493674 -0.564302 -0.661703
        outer loop
            vertex 0.0227528 -0.0371998 0.0100001
            vertex 0.0278929 -0.0209601 -1.43006e-005
            vertex 0.0310526 -0.0299388 0.0100001
        endloop
    endfacet
    facet normal -0.683633 -0.729825 0.00105831
        outer loop
            vertex -0.0260335 -0.0349825 0.0100001
            vertex -0.0240037 -0.0364053 0.34
            vertex -0.0320521 -0.0288663 0.34
        endloop
    endfacet
    facet normal -0.966977 0.254857 -0.00168752
        outer loop
            vertex -0.0396818 0.0180796 0.0100001
            vertex -0.0434382 0.0038271 0.0100001
            vertex -0.0427301 0.00869884 0.34
        endloop
    endfacet
    facet normal 0.0011107 0.00465428 0.999989
        outer loop
            vertex 0.0204991 -0.0168137 0.354147
            vertex 0.0231963 0.00703463 0.354033
            vertex -0.00765308 -0.0251364 0.354217
        endloop
    endfacet
    facet normal -0.343915 0.939 0.000798166
        outer loop
            vertex -0.0217008 0.0378232 0.34
            vertex -0.0113455 0.0416159 0.34
            vertex -0.0197642 0.038813 0.0100001
        endloop
    endfacet
endsolid D:/Users/Paul Maroldt/Documents/!StartUp_Repositories/modrob-gen2/ModuleLibrary/L350-I-80-80/L350-I-80-80_convdec.stl_created_by_BoundingMesh