solid C:/Users/felix/Documents/Solidworks/Connector Clamps/C116-86/C116-86_convdec.stl_created_by_BoundingMesh
    facet normal -0.465489 0.885053 -0.000756057
        outer loop
            vertex -0.0328991 0.0482406 0.00899938
            vertex -0.00743583 0.0616175 -0.00900175
            vertex -0.0329039 0.0482227 -0.00900054
        endloop
    endfacet
    facet normal -0.867152 -0.498041 0.00138812
        outer loop
            vertex -0.0542471 -0.0220547 0.00919469
            vertex -0.0474837 -0.0338814 -0.0090232
            vertex -0.0481871 -0.0326073 0.0087
        endloop
    endfacet
    facet normal -0.968635 0.24679 -0.0289939
        outer loop
            vertex -0.0565732 0.0151143 0.00911234
            vertex -0.0552232 0.0183203 -0.0087
            vertex -0.0576107 0.00890412 -0.0090863
        endloop
    endfacet
    facet normal -0.00593573 -0.0143532 -0.999879
        outer loop
            vertex 0.0399497 0.0427681 -0.00901247
            vertex -0.00743583 0.0616175 -0.00900175
            vertex 0.00743289 0.0616191 -0.00909004
        endloop
    endfacet
    facet normal -0.000485971 0.000733978 -1
        outer loop
            vertex -0.0426233 0.0398588 -0.00900062
            vertex -0.00743583 0.0616175 -0.00900175
            vertex -0.0581307 -0.00256189 -0.00902422
        endloop
    endfacet
    facet normal -0.870022 -0.493004 -0.00294768
        outer loop
            vertex -0.0542471 -0.0220547 0.00919469
            vertex -0.0521034 -0.0257287 -0.00904694
            vertex -0.0474837 -0.0338814 -0.0090232
        endloop
    endfacet
    facet normal -0.465491 -0.885053 -1.77386e-008
        outer loop
            vertex -0.0329449 -0.0482011 0.00899026
            vertex -0.0298231 -0.049843 -0.00900021
            vertex -0.00738071 -0.0616465 -0.00907067
        endloop
    endfacet
    facet normal -0.0681187 0.997677 4.33737e-005
        outer loop
            vertex -0.00743583 0.0616175 -0.00900175
            vertex -0.00743757 0.0616166 0.00900198
            vertex 0.000778719 0.0621776 0.0087
        endloop
    endfacet
    facet normal -0.00494793 0.568043 -0.822984
        outer loop
            vertex 0.00743289 0.0616191 -0.00909004
            vertex -0.00743583 0.0616175 -0.00900175
            vertex 0.00107019 0.0621995 -0.00865118
        endloop
    endfacet
    facet normal -0.0087364 0.0164357 0.999827
        outer loop
            vertex -0.0328991 0.0482406 0.00899938
            vertex -0.0423986 0.0400266 0.0090514
            vertex -0.00743757 0.0616166 0.00900198
        endloop
    endfacet
    facet normal -0.78845 0.615098 0.000925542
        outer loop
            vertex -0.050621 0.0295143 -0.00916556
            vertex -0.0506452 0.0294557 0.00916306
            vertex -0.0423986 0.0400266 0.0090514
        endloop
    endfacet
    facet normal 0.00463017 -0.525552 0.850749
        outer loop
            vertex -0.00740046 -0.0616362 0.00907049
            vertex -0.000778719 -0.0621776 0.0087
            vertex 0.00743707 -0.0616168 0.00900172
        endloop
    endfacet
    facet normal 0.00116367 -0.00047091 0.999999
        outer loop
            vertex -0.0565732 0.0151143 0.00911234
            vertex 0.00743707 -0.0616168 0.00900172
            vertex 0.0329457 0.0482007 0.00902375
        endloop
    endfacet
    facet normal 0.0384065 -0.0194086 0.999074
        outer loop
            vertex -0.0565732 0.0151143 0.00911234
            vertex -0.0423986 0.0400266 0.0090514
            vertex -0.0506452 0.0294557 0.00916306
        endloop
    endfacet
    facet normal -1.3125e-005 0.000774898 -1
        outer loop
            vertex -0.00738071 -0.0616465 -0.00907067
            vertex -0.0581307 -0.00256189 -0.00902422
            vertex 0.0581315 -0.0025421 -0.00902573
        endloop
    endfacet
    facet normal -0.00417583 -0.00606059 -0.999973
        outer loop
            vertex -0.0399601 -0.0427612 -0.0090008
            vertex -0.0474837 -0.0338814 -0.0090232
            vertex -0.0298231 -0.049843 -0.00900021
        endloop
    endfacet
    facet normal -0.0138487 -0.0203609 0.999697
        outer loop
            vertex -0.0329449 -0.0482011 0.00899026
            vertex -0.00740046 -0.0616362 0.00907049
            vertex -0.0425304 -0.0399129 0.00902628
        endloop
    endfacet
    facet normal -0.465493 -0.885052 -4.25101e-006
        outer loop
            vertex -0.0329449 -0.0482011 0.00899026
            vertex -0.00738071 -0.0616465 -0.00907067
            vertex -0.00740046 -0.0616362 0.00907049
        endloop
    endfacet
    facet normal -0.0382788 0.015255 -0.999151
        outer loop
            vertex 0.0506581 -0.0294872 -0.00915081
            vertex 0.0426206 -0.0398611 -0.00900127
            vertex 0.0581315 -0.0025421 -0.00902573
        endloop
    endfacet
    facet normal -0.161479 0.00512269 0.986863
        outer loop
            vertex -0.0565732 0.0151143 0.00911234
            vertex -0.0581283 0.00258294 0.00892293
            vertex -0.0576049 -0.00902149 0.00906881
        endloop
    endfacet
    facet normal -0.465071 0.885273 -6.22844e-007
        outer loop
            vertex -0.0328991 0.0482406 0.00899938
            vertex -0.00743757 0.0616166 0.00900198
            vertex -0.00743583 0.0616175 -0.00900175
        endloop
    endfacet
    facet normal 0.653833 0.756187 0.0261352
        outer loop
            vertex 0.0399497 0.0427681 -0.00901247
            vertex 0.0329457 0.0482007 0.00902375
            vertex 0.0424673 0.0399674 0.0090384
        endloop
    endfacet
    facet normal -0.00462061 0.525604 0.850717
        outer loop
            vertex 0.00743671 0.0616171 0.00908246
            vertex 0.000778719 0.0621776 0.0087
            vertex -0.00743757 0.0616166 0.00900198
        endloop
    endfacet
    facet normal -0.45892 0.152271 -0.875332
        outer loop
            vertex -0.050621 0.0295143 -0.00916556
            vertex -0.0576107 0.00890412 -0.0090863
            vertex -0.0552232 0.0183203 -0.0087
        endloop
    endfacet
    facet normal -0.00080411 -0.00176917 0.999998
        outer loop
            vertex -0.0565732 0.0151143 0.00911234
            vertex -0.0576049 -0.00902149 0.00906881
            vertex -0.0425304 -0.0399129 0.00902628
        endloop
    endfacet
    facet normal -0.000135124 0.000166599 -1
        outer loop
            vertex -0.0329039 0.0482227 -0.00900054
            vertex -0.00743583 0.0616175 -0.00900175
            vertex -0.0426233 0.0398588 -0.00900062
        endloop
    endfacet
    facet normal 0.465492 0.885052 -1.43512e-006
        outer loop
            vertex 0.0329457 0.0482007 0.00902375
            vertex 0.0298231 0.049843 -0.00900006
            vertex 0.00743289 0.0616191 -0.00909004
        endloop
    endfacet
    facet normal -0.00932067 -0.0117529 -0.999887
        outer loop
            vertex -0.00738071 -0.0616465 -0.00907067
            vertex -0.0298231 -0.049843 -0.00900021
            vertex -0.0474837 -0.0338814 -0.0090232
        endloop
    endfacet
    facet normal 0.0157665 0.000268498 -0.999876
        outer loop
            vertex 0.0565839 -0.0150423 -0.00905349
            vertex 0.0506581 -0.0294872 -0.00915081
            vertex 0.0581315 -0.0025421 -0.00902573
        endloop
    endfacet
    facet normal -0.00264258 -0.00223834 0.999994
        outer loop
            vertex -0.0565732 0.0151143 0.00911234
            vertex -0.0425304 -0.0399129 0.00902628
            vertex -0.00740046 -0.0616362 0.00907049
        endloop
    endfacet
    facet normal -0.924907 0.380189 -0.00166966
        outer loop
            vertex -0.050621 0.0295143 -0.00916556
            vertex -0.0552232 0.0183203 -0.0087
            vertex -0.0565732 0.0151143 0.00911234
        endloop
    endfacet
    facet normal 0.921208 0.387971 0.0292355
        outer loop
            vertex 0.0502261 0.0301904 0.00901983
            vertex 0.0565722 0.015116 0.00910011
            vertex 0.0543217 0.0218276 -0.00905333
        endloop
    endfacet
    facet normal -0.0290391 0.0170868 0.999432
        outer loop
            vertex 0.0505332 -0.0296189 0.0091935
            vertex 0.0575999 -0.00915063 0.00904889
            vertex 0.0328993 -0.0482405 0.0089995
        endloop
    endfacet
    facet normal -0.000149604 0.0025313 0.999997
        outer loop
            vertex -0.0565732 0.0151143 0.00911234
            vertex -0.00743757 0.0616166 0.00900198
            vertex -0.0423986 0.0400266 0.0090514
        endloop
    endfacet
    facet normal -0.968024 -0.249111 0.0295603
        outer loop
            vertex -0.0542471 -0.0220547 0.00919469
            vertex -0.0576049 -0.00902149 0.00906881
            vertex -0.0566296 -0.0149807 -0.00921198
        endloop
    endfacet
    facet normal 0.00533904 -0.00565624 -0.99997
        outer loop
            vertex -0.050621 0.0295143 -0.00916556
            vertex -0.0581307 -0.00256189 -0.00902422
            vertex -0.0576107 0.00890412 -0.0090863
        endloop
    endfacet
    facet normal 0.00112407 -0.00197378 0.999997
        outer loop
            vertex 0.0328993 -0.0482405 0.0089995
            vertex 0.0575999 -0.00915063 0.00904889
            vertex 0.00743707 -0.0616168 0.00900172
        endloop
    endfacet
    facet normal -0.572523 -0.819521 -0.0245536
        outer loop
            vertex -0.0399601 -0.0427612 -0.0090008
            vertex -0.0298231 -0.049843 -0.00900021
            vertex -0.0329449 -0.0482011 0.00899026
        endloop
    endfacet
    facet normal -0.400549 -0.271053 0.875266
        outer loop
            vertex -0.0542471 -0.0220547 0.00919469
            vertex -0.0481871 -0.0326073 0.0087
            vertex -0.0425304 -0.0399129 0.00902628
        endloop
    endfacet
    facet normal 0.00119518 0.00316151 0.999994
        outer loop
            vertex 0.0565722 0.015116 0.00910011
            vertex 0.0424673 0.0399674 0.0090384
            vertex 0.0329457 0.0482007 0.00902375
        endloop
    endfacet
    facet normal -0.652273 0.757984 -0.000579903
        outer loop
            vertex -0.0328991 0.0482406 0.00899938
            vertex -0.0329039 0.0482227 -0.00900054
            vertex -0.0426233 0.0398588 -0.00900062
        endloop
    endfacet
    facet normal 0.000184543 0.00217823 0.999998
        outer loop
            vertex -0.0565732 0.0151143 0.00911234
            vertex 0.0329457 0.0482007 0.00902375
            vertex -0.00743757 0.0616166 0.00900198
        endloop
    endfacet
    facet normal -0.791154 0.611603 0.00416257
        outer loop
            vertex -0.050621 0.0295143 -0.00916556
            vertex -0.0423986 0.0400266 0.0090514
            vertex -0.0426233 0.0398588 -0.00900062
        endloop
    endfacet
    facet normal 0.923591 -0.383379 8.68636e-007
        outer loop
            vertex 0.0565839 -0.0150423 -0.00905349
            vertex 0.0552232 -0.0183203 0.0087
            vertex 0.0505332 -0.0296189 0.0091935
        endloop
    endfacet
    facet normal 0.0478397 0.0219701 0.998613
        outer loop
            vertex -0.0542471 -0.0220547 0.00919469
            vertex -0.0425304 -0.0399129 0.00902628
            vertex -0.0576049 -0.00902149 0.00906881
        endloop
    endfacet
    facet normal -0.00657757 -0.00238923 0.999976
        outer loop
            vertex 0.0565722 0.015116 0.00910011
            vertex 0.0329457 0.0482007 0.00902375
            vertex 0.0575999 -0.00915063 0.00904889
        endloop
    endfacet
    facet normal 0.992305 -0.122818 -0.0157203
        outer loop
            vertex 0.0565839 -0.0150423 -0.00905349
            vertex 0.0581315 -0.0025421 -0.00902573
            vertex 0.0575999 -0.00915063 0.00904889
        endloop
    endfacet
    facet normal 0.0683388 -0.997662 0.000111289
        outer loop
            vertex 0.00743706 -0.0616168 -0.00900251
            vertex -0.000778719 -0.0621776 0.0087
            vertex -0.00107019 -0.0621995 -0.00865118
        endloop
    endfacet
    facet normal 0.86936 0.493194 -0.0312026
        outer loop
            vertex 0.0502261 0.0301904 0.00901983
            vertex 0.0543217 0.0218276 -0.00905333
            vertex 0.0475107 0.0338348 -0.00903209
        endloop
    endfacet
    facet normal -0.998894 0.0452317 -0.0128328
        outer loop
            vertex -0.0581283 0.00258294 0.00892293
            vertex -0.0576107 0.00890412 -0.0090863
            vertex -0.0581307 -0.00256189 -0.00902422
        endloop
    endfacet
    facet normal -0.0813429 -0.996683 0.00262446
        outer loop
            vertex -0.00740046 -0.0616362 0.00907049
            vertex -0.00107019 -0.0621995 -0.00865118
            vertex -0.000778719 -0.0621776 0.0087
        endloop
    endfacet
    facet normal 0.00204361 -0.00150482 -0.999997
        outer loop
            vertex -0.00738071 -0.0616465 -0.00907067
            vertex 0.0581315 -0.0025421 -0.00902573
            vertex 0.0426206 -0.0398611 -0.00900127
        endloop
    endfacet
    facet normal -0.085084 -0.0511101 -0.995062
        outer loop
            vertex -0.0566296 -0.0149807 -0.00921198
            vertex -0.0474837 -0.0338814 -0.0090232
            vertex -0.0521034 -0.0257287 -0.00904694
        endloop
    endfacet
    facet normal 0.00463162 0.00242213 0.999986
        outer loop
            vertex -0.0565732 0.0151143 0.00911234
            vertex -0.00740046 -0.0616362 0.00907049
            vertex 0.00743707 -0.0616168 0.00900172
        endloop
    endfacet
    facet normal -0.998907 -0.0448907 0.0130021
        outer loop
            vertex -0.0581283 0.00258294 0.00892293
            vertex -0.0581307 -0.00256189 -0.00902422
            vertex -0.0576049 -0.00902149 0.00906881
        endloop
    endfacet
    facet normal -1.30544e-005 0.000360424 -1
        outer loop
            vertex 0.0581315 -0.0025421 -0.00902573
            vertex -0.0581307 -0.00256189 -0.00902422
            vertex -0.00743583 0.0616175 -0.00900175
        endloop
    endfacet
    facet normal 0.00461453 -0.00740565 -0.999962
        outer loop
            vertex -0.00738071 -0.0616465 -0.00907067
            vertex 0.0426206 -0.0398611 -0.00900127
            vertex 0.00743706 -0.0616168 -0.00900251
        endloop
    endfacet
    facet normal 0.068978 0.0234164 -0.997343
        outer loop
            vertex -0.0566296 -0.0149807 -0.00921198
            vertex -0.0581307 -0.00256189 -0.00902422
            vertex -0.0474837 -0.0338814 -0.0090232
        endloop
    endfacet
    facet normal 0.992293 0.123071 0.014459
        outer loop
            vertex 0.0565722 0.015116 0.00910011
            vertex 0.0581285 0.00258617 0.00894493
            vertex 0.0576118 0.00887117 -0.00909136
        endloop
    endfacet
    facet normal 0.572524 0.819521 -0.0245157
        outer loop
            vertex 0.0399497 0.0427681 -0.00901247
            vertex 0.0298231 0.049843 -0.00900006
            vertex 0.0329457 0.0482007 0.00902375
        endloop
    endfacet
    facet normal 0.00372241 0.0038804 -0.999986
        outer loop
            vertex 0.0543217 0.0218276 -0.00905333
            vertex 0.0576118 0.00887117 -0.00909136
            vertex 0.0475107 0.0338348 -0.00903209
        endloop
    endfacet
    facet normal 0.465491 0.885052 -4.16164e-007
        outer loop
            vertex 0.0329457 0.0482007 0.00902375
            vertex 0.00743289 0.0616191 -0.00909004
            vertex 0.00743671 0.0616171 0.00908246
        endloop
    endfacet
    facet normal 0.0377259 -0.0132353 -0.9992
        outer loop
            vertex -0.050621 0.0295143 -0.00916556
            vertex -0.0426233 0.0398588 -0.00900062
            vertex -0.0581307 -0.00256189 -0.00902422
        endloop
    endfacet
    facet normal 0.0837355 0.996484 0.0026644
        outer loop
            vertex 0.00743671 0.0616171 0.00908246
            vertex 0.00107019 0.0621995 -0.00865118
            vertex 0.000778719 0.0621776 0.0087
        endloop
    endfacet
    facet normal -0.068267 0.997667 0.000112503
        outer loop
            vertex -0.00743583 0.0616175 -0.00900175
            vertex 0.000778719 0.0621776 0.0087
            vertex 0.00107019 0.0621995 -0.00865118
        endloop
    endfacet
    facet normal 0.124536 0.00317985 0.99221
        outer loop
            vertex 0.0565722 0.015116 0.00910011
            vertex 0.0575999 -0.00915063 0.00904889
            vertex 0.0581285 0.00258617 0.00894493
        endloop
    endfacet
    facet normal 0.968807 0.2461 -0.029117
        outer loop
            vertex 0.0543217 0.0218276 -0.00905333
            vertex 0.0565722 0.015116 0.00910011
            vertex 0.0576118 0.00887117 -0.00909136
        endloop
    endfacet
    facet normal 0.998887 0.0454105 -0.0127919
        outer loop
            vertex 0.0581315 -0.0025421 -0.00902573
            vertex 0.0576118 0.00887117 -0.00909136
            vertex 0.0581285 0.00258617 0.00894493
        endloop
    endfacet
    facet normal -0.790241 -0.61259 -0.0158826
        outer loop
            vertex -0.0399601 -0.0427612 -0.0090008
            vertex -0.0425304 -0.0399129 0.00902628
            vertex -0.0481871 -0.0326073 0.0087
        endloop
    endfacet
    facet normal -0.00427675 -0.0014235 -0.99999
        outer loop
            vertex 0.0399497 0.0427681 -0.00901247
            vertex 0.0475107 0.0338348 -0.00903209
            vertex 0.0581315 -0.0025421 -0.00902573
        endloop
    endfacet
    facet normal 0.763224 0.645946 0.0156009
        outer loop
            vertex 0.0502261 0.0301904 0.00901983
            vertex 0.0475107 0.0338348 -0.00903209
            vertex 0.0399497 0.0427681 -0.00901247
        endloop
    endfacet
    facet normal -0.000964963 2.35342e-005 1
        outer loop
            vertex 0.0329457 0.0482007 0.00902375
            vertex 0.00743707 -0.0616168 0.00900172
            vertex 0.0575999 -0.00915063 0.00904889
        endloop
    endfacet
    facet normal 0.465069 -0.885274 -2.52599e-007
        outer loop
            vertex 0.0328993 -0.0482405 0.0089995
            vertex 0.00743707 -0.0616168 0.00900172
            vertex 0.00743706 -0.0616168 -0.00900251
        endloop
    endfacet
    facet normal 0.458872 -0.152242 0.875362
        outer loop
            vertex 0.0505332 -0.0296189 0.0091935
            vertex 0.0552232 -0.0183203 0.0087
            vertex 0.0575999 -0.00915063 0.00904889
        endloop
    endfacet
    facet normal 0.998908 -0.0448738 0.0129725
        outer loop
            vertex 0.0581315 -0.0025421 -0.00902573
            vertex 0.0581285 0.00258617 0.00894493
            vertex 0.0575999 -0.00915063 0.00904889
        endloop
    endfacet
    facet normal 0.0193855 0.0134851 0.999721
        outer loop
            vertex 0.0502261 0.0301904 0.00901983
            vertex 0.0424673 0.0399674 0.0090384
            vertex 0.0565722 0.015116 0.00910011
        endloop
    endfacet
    facet normal 0.000461497 -0.000689318 -1
        outer loop
            vertex 0.0329045 -0.0482224 -0.00899999
            vertex 0.00743706 -0.0616168 -0.00900251
            vertex 0.0426206 -0.0398611 -0.00900127
        endloop
    endfacet
    facet normal -0.087328 -0.996179 0.000470551
        outer loop
            vertex -0.00738071 -0.0616465 -0.00907067
            vertex -0.00107019 -0.0621995 -0.00865118
            vertex -0.00740046 -0.0616362 0.00907049
        endloop
    endfacet
    facet normal 0.652284 -0.757975 -0.000573931
        outer loop
            vertex 0.0328993 -0.0482405 0.0089995
            vertex 0.0329045 -0.0482224 -0.00899999
            vertex 0.0426206 -0.0398611 -0.00900127
        endloop
    endfacet
    facet normal 0.0199767 0.0303464 -0.99934
        outer loop
            vertex 0.0399497 0.0427681 -0.00901247
            vertex 0.00743289 0.0616191 -0.00909004
            vertex 0.0298231 0.049843 -0.00900006
        endloop
    endfacet
    facet normal -0.921033 -0.388326 -0.0300251
        outer loop
            vertex -0.0542471 -0.0220547 0.00919469
            vertex -0.0566296 -0.0149807 -0.00921198
            vertex -0.0521034 -0.0257287 -0.00904694
        endloop
    endfacet
    facet normal 0.783241 0.621586 -0.0127978
        outer loop
            vertex 0.0502261 0.0301904 0.00901983
            vertex 0.0399497 0.0427681 -0.00901247
            vertex 0.0424673 0.0399674 0.0090384
        endloop
    endfacet
    facet normal 0.0681001 -0.997678 -3.69881e-008
        outer loop
            vertex 0.00743706 -0.0616168 -0.00900251
            vertex 0.00743707 -0.0616168 0.00900172
            vertex -0.000778719 -0.0621776 0.0087
        endloop
    endfacet
    facet normal -0.762886 -0.646331 0.0161866
        outer loop
            vertex -0.0399601 -0.0427612 -0.0090008
            vertex -0.0481871 -0.0326073 0.0087
            vertex -0.0474837 -0.0338814 -0.0090232
        endloop
    endfacet
    facet normal -0.992309 0.122921 0.0146252
        outer loop
            vertex -0.0565732 0.0151143 0.00911234
            vertex -0.0576107 0.00890412 -0.0090863
            vertex -0.0581283 0.00258294 0.00892293
        endloop
    endfacet
    facet normal -0.992703 -0.119781 -0.0139155
        outer loop
            vertex -0.0566296 -0.0149807 -0.00921198
            vertex -0.0576049 -0.00902149 0.00906881
            vertex -0.0581307 -0.00256189 -0.00902422
        endloop
    endfacet
    facet normal 0.00492405 -0.568081 -0.822958
        outer loop
            vertex -0.00738071 -0.0616465 -0.00907067
            vertex 0.00743706 -0.0616168 -0.00900251
            vertex -0.00107019 -0.0621995 -0.00865118
        endloop
    endfacet
    facet normal -0.654067 0.756436 0.00110991
        outer loop
            vertex -0.0328991 0.0482406 0.00899938
            vertex -0.0426233 0.0398588 -0.00900062
            vertex -0.0423986 0.0400266 0.0090514
        endloop
    endfacet
    facet normal -0.653781 -0.756228 0.0262688
        outer loop
            vertex -0.0399601 -0.0427612 -0.0090008
            vertex -0.0329449 -0.0482011 0.00899026
            vertex -0.0425304 -0.0399129 0.00902628
        endloop
    endfacet
    facet normal 0.967387 -0.25179 0.0276539
        outer loop
            vertex 0.0565839 -0.0150423 -0.00905349
            vertex 0.0575999 -0.00915063 0.00904889
            vertex 0.0552232 -0.0183203 0.0087
        endloop
    endfacet
    facet normal 0.00582259 -0.0159302 0.999856
        outer loop
            vertex 0.0505332 -0.0296189 0.0091935
            vertex 0.0328993 -0.0482405 0.0089995
            vertex 0.0422802 -0.0401289 0.00907411
        endloop
    endfacet
    facet normal 0.925161 -0.379557 0.00357401
        outer loop
            vertex 0.0565839 -0.0150423 -0.00905349
            vertex 0.0505332 -0.0296189 0.0091935
            vertex 0.0506581 -0.0294872 -0.00915081
        endloop
    endfacet
    facet normal -0.000130685 0.000240213 -1
        outer loop
            vertex 0.0399497 0.0427681 -0.00901247
            vertex 0.0581315 -0.0025421 -0.00902573
            vertex -0.00743583 0.0616175 -0.00900175
        endloop
    endfacet
    facet normal -0.0226184 -0.00677859 -0.999721
        outer loop
            vertex 0.0475107 0.0338348 -0.00903209
            vertex 0.0576118 0.00887117 -0.00909136
            vertex 0.0581315 -0.0025421 -0.00902573
        endloop
    endfacet
    facet normal 0.0908482 0.995865 9.05316e-005
        outer loop
            vertex 0.00743289 0.0616191 -0.00909004
            vertex 0.00107019 0.0621995 -0.00865118
            vertex 0.00743671 0.0616171 0.00908246
        endloop
    endfacet
    facet normal -0.00540955 -0.0146608 0.999878
        outer loop
            vertex 0.0329457 0.0482007 0.00902375
            vertex 0.00743671 0.0616171 0.00908246
            vertex -0.00743757 0.0616166 0.00900198
        endloop
    endfacet
    facet normal 0.786489 -0.617603 0.000920851
        outer loop
            vertex 0.0506581 -0.0294872 -0.00915081
            vertex 0.0505332 -0.0296189 0.0091935
            vertex 0.0422802 -0.0401289 0.00907411
        endloop
    endfacet
    facet normal 0.654072 -0.756431 0.00111051
        outer loop
            vertex 0.0328993 -0.0482405 0.0089995
            vertex 0.0426206 -0.0398611 -0.00900127
            vertex 0.0422802 -0.0401289 0.00907411
        endloop
    endfacet
    facet normal 0.790526 -0.612401 0.00581415
        outer loop
            vertex 0.0506581 -0.0294872 -0.00915081
            vertex 0.0422802 -0.0401289 0.00907411
            vertex 0.0426206 -0.0398611 -0.00900127
        endloop
    endfacet
    facet normal 0.465487 -0.885054 -0.00075566
        outer loop
            vertex 0.0328993 -0.0482405 0.0089995
            vertex 0.00743706 -0.0616168 -0.00900251
            vertex 0.0329045 -0.0482224 -0.00899999
        endloop
    endfacet
    facet normal -0.924162 0.382001 1.12291e-006
        outer loop
            vertex -0.050621 0.0295143 -0.00916556
            vertex -0.0565732 0.0151143 0.00911234
            vertex -0.0506452 0.0294557 0.00916306
        endloop
    endfacet
    facet normal -0.00157755 -0.000568845 -0.999999
        outer loop
            vertex -0.00738071 -0.0616465 -0.00907067
            vertex -0.0474837 -0.0338814 -0.0090232
            vertex -0.0581307 -0.00256189 -0.00902422
        endloop
    endfacet
endsolid C:/Users/felix/Documents/Solidworks/Connector Clamps/C116-86/C116-86_convdec.stl_created_by_BoundingMesh